<?xml version="1.0" encoding="utf-8" standalone="no"?>
<!DOCTYPE svg PUBLIC "-//W3C//DTD SVG 1.1//EN"
  "http://www.w3.org/Graphics/SVG/1.1/DTD/svg11.dtd">
<!-- Created with matplotlib (https://matplotlib.org/) -->
<svg height="288pt" version="1.1" viewBox="0 0 432 288" width="432pt" xmlns="http://www.w3.org/2000/svg" xmlns:xlink="http://www.w3.org/1999/xlink">
 <defs>
  <style type="text/css">
*{stroke-linecap:butt;stroke-linejoin:round;}
  </style>
 </defs>
 <g id="figure_1">
  <g id="patch_1">
   <path d="M 0 288 
L 432 288 
L 432 0 
L 0 0 
z
" style="fill:#ffffff;"/>
  </g>
  <g id="axes_1">
   <g id="patch_2">
    <path d="M 54 256.32 
L 388.8 256.32 
L 388.8 34.56 
L 54 34.56 
z
" style="fill:#ffffff;"/>
   </g>
   <g id="matplotlib.axis_1">
    <g id="xtick_1">
     <g id="line2d_1">
      <defs>
       <path d="M 0 0 
L 0 -3 
" id="m585bbaa134" style="stroke:#000000;"/>
      </defs>
      <g>
       <use style="stroke:#000000;" x="69.218182" xlink:href="#m585bbaa134" y="256.32"/>
      </g>
     </g>
     <g id="line2d_2">
      <defs>
       <path d="M 0 0 
L 0 3 
" id="mc309e5ab26" style="stroke:#000000;"/>
      </defs>
      <g>
       <use style="stroke:#000000;" x="69.218182" xlink:href="#mc309e5ab26" y="34.56"/>
      </g>
     </g>
     <g id="text_1">
      <!-- 0 -->
      <defs>
       <path d="M 4.15625 35.296875 
Q 4.15625 48 6.765625 55.734375 
Q 9.375 63.484375 14.515625 67.671875 
Q 19.671875 71.875 27.484375 71.875 
Q 33.25 71.875 37.59375 69.546875 
Q 41.9375 67.234375 44.765625 62.859375 
Q 47.609375 58.5 49.21875 52.21875 
Q 50.828125 45.953125 50.828125 35.296875 
Q 50.828125 22.703125 48.234375 14.96875 
Q 45.65625 7.234375 40.5 3 
Q 35.359375 -1.21875 27.484375 -1.21875 
Q 17.140625 -1.21875 11.234375 6.203125 
Q 4.15625 15.140625 4.15625 35.296875 
z
M 13.1875 35.296875 
Q 13.1875 17.671875 17.3125 11.828125 
Q 21.4375 6 27.484375 6 
Q 33.546875 6 37.671875 11.859375 
Q 41.796875 17.71875 41.796875 35.296875 
Q 41.796875 52.984375 37.671875 58.78125 
Q 33.546875 64.59375 27.390625 64.59375 
Q 21.34375 64.59375 17.71875 59.46875 
Q 13.1875 52.9375 13.1875 35.296875 
z
" id="ArialMT-48"/>
      </defs>
      <g transform="translate(66.282007 267.37865)scale(0.1056 -0.1056)">
       <use xlink:href="#ArialMT-48"/>
      </g>
     </g>
    </g>
    <g id="xtick_2">
     <g id="line2d_3">
      <g>
       <use style="stroke:#000000;" x="109.8" xlink:href="#m585bbaa134" y="256.32"/>
      </g>
     </g>
     <g id="line2d_4">
      <g>
       <use style="stroke:#000000;" x="109.8" xlink:href="#mc309e5ab26" y="34.56"/>
      </g>
     </g>
     <g id="text_2">
      <!-- 200 -->
      <defs>
       <path d="M 50.34375 8.453125 
L 50.34375 0 
L 3.03125 0 
Q 2.9375 3.171875 4.046875 6.109375 
Q 5.859375 10.9375 9.828125 15.625 
Q 13.8125 20.3125 21.34375 26.46875 
Q 33.015625 36.03125 37.109375 41.625 
Q 41.21875 47.21875 41.21875 52.203125 
Q 41.21875 57.421875 37.46875 61 
Q 33.734375 64.59375 27.734375 64.59375 
Q 21.390625 64.59375 17.578125 60.78125 
Q 13.765625 56.984375 13.71875 50.25 
L 4.6875 51.171875 
Q 5.609375 61.28125 11.65625 66.578125 
Q 17.71875 71.875 27.9375 71.875 
Q 38.234375 71.875 44.234375 66.15625 
Q 50.25 60.453125 50.25 52 
Q 50.25 47.703125 48.484375 43.546875 
Q 46.734375 39.40625 42.65625 34.8125 
Q 38.578125 30.21875 29.109375 22.21875 
Q 21.1875 15.578125 18.9375 13.203125 
Q 16.703125 10.84375 15.234375 8.453125 
z
" id="ArialMT-50"/>
      </defs>
      <g transform="translate(100.991475 267.37865)scale(0.1056 -0.1056)">
       <use xlink:href="#ArialMT-50"/>
       <use x="55.615234" xlink:href="#ArialMT-48"/>
       <use x="111.230469" xlink:href="#ArialMT-48"/>
      </g>
     </g>
    </g>
    <g id="xtick_3">
     <g id="line2d_5">
      <g>
       <use style="stroke:#000000;" x="150.381818" xlink:href="#m585bbaa134" y="256.32"/>
      </g>
     </g>
     <g id="line2d_6">
      <g>
       <use style="stroke:#000000;" x="150.381818" xlink:href="#mc309e5ab26" y="34.56"/>
      </g>
     </g>
     <g id="text_3">
      <!-- 400 -->
      <defs>
       <path d="M 32.328125 0 
L 32.328125 17.140625 
L 1.265625 17.140625 
L 1.265625 25.203125 
L 33.9375 71.578125 
L 41.109375 71.578125 
L 41.109375 25.203125 
L 50.78125 25.203125 
L 50.78125 17.140625 
L 41.109375 17.140625 
L 41.109375 0 
z
M 32.328125 25.203125 
L 32.328125 57.46875 
L 9.90625 25.203125 
z
" id="ArialMT-52"/>
      </defs>
      <g transform="translate(141.573293 267.37865)scale(0.1056 -0.1056)">
       <use xlink:href="#ArialMT-52"/>
       <use x="55.615234" xlink:href="#ArialMT-48"/>
       <use x="111.230469" xlink:href="#ArialMT-48"/>
      </g>
     </g>
    </g>
    <g id="xtick_4">
     <g id="line2d_7">
      <g>
       <use style="stroke:#000000;" x="190.963636" xlink:href="#m585bbaa134" y="256.32"/>
      </g>
     </g>
     <g id="line2d_8">
      <g>
       <use style="stroke:#000000;" x="190.963636" xlink:href="#mc309e5ab26" y="34.56"/>
      </g>
     </g>
     <g id="text_4">
      <!-- 600 -->
      <defs>
       <path d="M 49.75 54.046875 
L 41.015625 53.375 
Q 39.84375 58.546875 37.703125 60.890625 
Q 34.125 64.65625 28.90625 64.65625 
Q 24.703125 64.65625 21.53125 62.3125 
Q 17.390625 59.28125 14.984375 53.46875 
Q 12.59375 47.65625 12.5 36.921875 
Q 15.671875 41.75 20.265625 44.09375 
Q 24.859375 46.4375 29.890625 46.4375 
Q 38.671875 46.4375 44.84375 39.96875 
Q 51.03125 33.5 51.03125 23.25 
Q 51.03125 16.5 48.125 10.71875 
Q 45.21875 4.9375 40.140625 1.859375 
Q 35.0625 -1.21875 28.609375 -1.21875 
Q 17.625 -1.21875 10.6875 6.859375 
Q 3.765625 14.9375 3.765625 33.5 
Q 3.765625 54.25 11.421875 63.671875 
Q 18.109375 71.875 29.4375 71.875 
Q 37.890625 71.875 43.28125 67.140625 
Q 48.6875 62.40625 49.75 54.046875 
z
M 13.875 23.1875 
Q 13.875 18.65625 15.796875 14.5 
Q 17.71875 10.359375 21.1875 8.171875 
Q 24.65625 6 28.46875 6 
Q 34.03125 6 38.03125 10.484375 
Q 42.046875 14.984375 42.046875 22.703125 
Q 42.046875 30.125 38.078125 34.390625 
Q 34.125 38.671875 28.125 38.671875 
Q 22.171875 38.671875 18.015625 34.390625 
Q 13.875 30.125 13.875 23.1875 
z
" id="ArialMT-54"/>
      </defs>
      <g transform="translate(182.155111 267.37865)scale(0.1056 -0.1056)">
       <use xlink:href="#ArialMT-54"/>
       <use x="55.615234" xlink:href="#ArialMT-48"/>
       <use x="111.230469" xlink:href="#ArialMT-48"/>
      </g>
     </g>
    </g>
    <g id="xtick_5">
     <g id="line2d_9">
      <g>
       <use style="stroke:#000000;" x="231.545455" xlink:href="#m585bbaa134" y="256.32"/>
      </g>
     </g>
     <g id="line2d_10">
      <g>
       <use style="stroke:#000000;" x="231.545455" xlink:href="#mc309e5ab26" y="34.56"/>
      </g>
     </g>
     <g id="text_5">
      <!-- 800 -->
      <defs>
       <path d="M 17.671875 38.8125 
Q 12.203125 40.828125 9.5625 44.53125 
Q 6.9375 48.25 6.9375 53.421875 
Q 6.9375 61.234375 12.546875 66.546875 
Q 18.171875 71.875 27.484375 71.875 
Q 36.859375 71.875 42.578125 66.421875 
Q 48.296875 60.984375 48.296875 53.171875 
Q 48.296875 48.1875 45.671875 44.5 
Q 43.0625 40.828125 37.75 38.8125 
Q 44.34375 36.671875 47.78125 31.875 
Q 51.21875 27.09375 51.21875 20.453125 
Q 51.21875 11.28125 44.71875 5.03125 
Q 38.234375 -1.21875 27.640625 -1.21875 
Q 17.046875 -1.21875 10.546875 5.046875 
Q 4.046875 11.328125 4.046875 20.703125 
Q 4.046875 27.6875 7.59375 32.390625 
Q 11.140625 37.109375 17.671875 38.8125 
z
M 15.921875 53.71875 
Q 15.921875 48.640625 19.1875 45.40625 
Q 22.46875 42.1875 27.6875 42.1875 
Q 32.765625 42.1875 36.015625 45.375 
Q 39.265625 48.578125 39.265625 53.21875 
Q 39.265625 58.0625 35.90625 61.359375 
Q 32.5625 64.65625 27.59375 64.65625 
Q 22.5625 64.65625 19.234375 61.421875 
Q 15.921875 58.203125 15.921875 53.71875 
z
M 13.09375 20.65625 
Q 13.09375 16.890625 14.875 13.375 
Q 16.65625 9.859375 20.171875 7.921875 
Q 23.6875 6 27.734375 6 
Q 34.03125 6 38.125 10.046875 
Q 42.234375 14.109375 42.234375 20.359375 
Q 42.234375 26.703125 38.015625 30.859375 
Q 33.796875 35.015625 27.4375 35.015625 
Q 21.234375 35.015625 17.15625 30.90625 
Q 13.09375 26.8125 13.09375 20.65625 
z
" id="ArialMT-56"/>
      </defs>
      <g transform="translate(222.73693 267.37865)scale(0.1056 -0.1056)">
       <use xlink:href="#ArialMT-56"/>
       <use x="55.615234" xlink:href="#ArialMT-48"/>
       <use x="111.230469" xlink:href="#ArialMT-48"/>
      </g>
     </g>
    </g>
    <g id="xtick_6">
     <g id="line2d_11">
      <g>
       <use style="stroke:#000000;" x="272.127273" xlink:href="#m585bbaa134" y="256.32"/>
      </g>
     </g>
     <g id="line2d_12">
      <g>
       <use style="stroke:#000000;" x="272.127273" xlink:href="#mc309e5ab26" y="34.56"/>
      </g>
     </g>
     <g id="text_6">
      <!-- 1000 -->
      <defs>
       <path d="M 37.25 0 
L 28.46875 0 
L 28.46875 56 
Q 25.296875 52.984375 20.140625 49.953125 
Q 14.984375 46.921875 10.890625 45.40625 
L 10.890625 53.90625 
Q 18.265625 57.375 23.78125 62.296875 
Q 29.296875 67.234375 31.59375 71.875 
L 37.25 71.875 
z
" id="ArialMT-49"/>
      </defs>
      <g transform="translate(260.382573 267.37865)scale(0.1056 -0.1056)">
       <use xlink:href="#ArialMT-49"/>
       <use x="55.615234" xlink:href="#ArialMT-48"/>
       <use x="111.230469" xlink:href="#ArialMT-48"/>
       <use x="166.845703" xlink:href="#ArialMT-48"/>
      </g>
     </g>
    </g>
    <g id="xtick_7">
     <g id="line2d_13">
      <g>
       <use style="stroke:#000000;" x="312.709091" xlink:href="#m585bbaa134" y="256.32"/>
      </g>
     </g>
     <g id="line2d_14">
      <g>
       <use style="stroke:#000000;" x="312.709091" xlink:href="#mc309e5ab26" y="34.56"/>
      </g>
     </g>
     <g id="text_7">
      <!-- 1200 -->
      <g transform="translate(300.964391 267.37865)scale(0.1056 -0.1056)">
       <use xlink:href="#ArialMT-49"/>
       <use x="55.615234" xlink:href="#ArialMT-50"/>
       <use x="111.230469" xlink:href="#ArialMT-48"/>
       <use x="166.845703" xlink:href="#ArialMT-48"/>
      </g>
     </g>
    </g>
    <g id="xtick_8">
     <g id="line2d_15">
      <g>
       <use style="stroke:#000000;" x="353.290909" xlink:href="#m585bbaa134" y="256.32"/>
      </g>
     </g>
     <g id="line2d_16">
      <g>
       <use style="stroke:#000000;" x="353.290909" xlink:href="#mc309e5ab26" y="34.56"/>
      </g>
     </g>
     <g id="text_8">
      <!-- 1400 -->
      <g transform="translate(341.546209 267.37865)scale(0.1056 -0.1056)">
       <use xlink:href="#ArialMT-49"/>
       <use x="55.615234" xlink:href="#ArialMT-52"/>
       <use x="111.230469" xlink:href="#ArialMT-48"/>
       <use x="166.845703" xlink:href="#ArialMT-48"/>
      </g>
     </g>
    </g>
    <g id="text_9">
     <!-- Generations -->
     <defs>
      <path d="M 41.21875 28.078125 
L 41.21875 36.46875 
L 71.53125 36.53125 
L 71.53125 9.96875 
Q 64.546875 4.390625 57.125 1.578125 
Q 49.703125 -1.21875 41.890625 -1.21875 
Q 31.34375 -1.21875 22.71875 3.296875 
Q 14.109375 7.8125 9.71875 16.359375 
Q 5.328125 24.90625 5.328125 35.453125 
Q 5.328125 45.90625 9.6875 54.953125 
Q 14.0625 64.015625 22.265625 68.40625 
Q 30.46875 72.796875 41.15625 72.796875 
Q 48.921875 72.796875 55.1875 70.28125 
Q 61.46875 67.78125 65.03125 63.28125 
Q 68.609375 58.796875 70.453125 51.5625 
L 61.921875 49.21875 
Q 60.296875 54.6875 57.90625 57.8125 
Q 55.515625 60.9375 51.0625 62.8125 
Q 46.625 64.703125 41.21875 64.703125 
Q 34.71875 64.703125 29.984375 62.71875 
Q 25.25 60.75 22.34375 57.515625 
Q 19.4375 54.296875 17.828125 50.4375 
Q 15.09375 43.796875 15.09375 36.03125 
Q 15.09375 26.46875 18.390625 20.015625 
Q 21.6875 13.578125 27.984375 10.453125 
Q 34.28125 7.328125 41.359375 7.328125 
Q 47.515625 7.328125 53.375 9.6875 
Q 59.234375 12.0625 62.25 14.75 
L 62.25 28.078125 
z
" id="ArialMT-71"/>
      <path d="M 42.09375 16.703125 
L 51.171875 15.578125 
Q 49.03125 7.625 43.21875 3.21875 
Q 37.40625 -1.171875 28.375 -1.171875 
Q 17 -1.171875 10.328125 5.828125 
Q 3.65625 12.84375 3.65625 25.484375 
Q 3.65625 38.578125 10.390625 45.796875 
Q 17.140625 53.03125 27.875 53.03125 
Q 38.28125 53.03125 44.875 45.953125 
Q 51.46875 38.875 51.46875 26.03125 
Q 51.46875 25.25 51.421875 23.6875 
L 12.75 23.6875 
Q 13.234375 15.140625 17.578125 10.59375 
Q 21.921875 6.0625 28.421875 6.0625 
Q 33.25 6.0625 36.671875 8.59375 
Q 40.09375 11.140625 42.09375 16.703125 
z
M 13.234375 30.90625 
L 42.1875 30.90625 
Q 41.609375 37.453125 38.875 40.71875 
Q 34.671875 45.796875 27.984375 45.796875 
Q 21.921875 45.796875 17.796875 41.75 
Q 13.671875 37.703125 13.234375 30.90625 
z
" id="ArialMT-101"/>
      <path d="M 6.59375 0 
L 6.59375 51.859375 
L 14.5 51.859375 
L 14.5 44.484375 
Q 20.21875 53.03125 31 53.03125 
Q 35.6875 53.03125 39.625 51.34375 
Q 43.5625 49.65625 45.515625 46.921875 
Q 47.46875 44.1875 48.25 40.4375 
Q 48.734375 37.984375 48.734375 31.890625 
L 48.734375 0 
L 39.9375 0 
L 39.9375 31.546875 
Q 39.9375 36.921875 38.90625 39.578125 
Q 37.890625 42.234375 35.28125 43.8125 
Q 32.671875 45.40625 29.15625 45.40625 
Q 23.53125 45.40625 19.453125 41.84375 
Q 15.375 38.28125 15.375 28.328125 
L 15.375 0 
z
" id="ArialMT-110"/>
      <path d="M 6.5 0 
L 6.5 51.859375 
L 14.40625 51.859375 
L 14.40625 44 
Q 17.4375 49.515625 20 51.265625 
Q 22.5625 53.03125 25.640625 53.03125 
Q 30.078125 53.03125 34.671875 50.203125 
L 31.640625 42.046875 
Q 28.421875 43.953125 25.203125 43.953125 
Q 22.3125 43.953125 20.015625 42.21875 
Q 17.71875 40.484375 16.75 37.40625 
Q 15.28125 32.71875 15.28125 27.15625 
L 15.28125 0 
z
" id="ArialMT-114"/>
      <path d="M 40.4375 6.390625 
Q 35.546875 2.25 31.03125 0.53125 
Q 26.515625 -1.171875 21.34375 -1.171875 
Q 12.796875 -1.171875 8.203125 3 
Q 3.609375 7.171875 3.609375 13.671875 
Q 3.609375 17.484375 5.34375 20.625 
Q 7.078125 23.78125 9.890625 25.6875 
Q 12.703125 27.59375 16.21875 28.5625 
Q 18.796875 29.25 24.03125 29.890625 
Q 34.671875 31.15625 39.703125 32.90625 
Q 39.75 34.71875 39.75 35.203125 
Q 39.75 40.578125 37.25 42.78125 
Q 33.890625 45.75 27.25 45.75 
Q 21.046875 45.75 18.09375 43.578125 
Q 15.140625 41.40625 13.71875 35.890625 
L 5.125 37.0625 
Q 6.296875 42.578125 8.984375 45.96875 
Q 11.671875 49.359375 16.75 51.1875 
Q 21.828125 53.03125 28.515625 53.03125 
Q 35.15625 53.03125 39.296875 51.46875 
Q 43.453125 49.90625 45.40625 47.53125 
Q 47.359375 45.171875 48.140625 41.546875 
Q 48.578125 39.3125 48.578125 33.453125 
L 48.578125 21.734375 
Q 48.578125 9.46875 49.140625 6.21875 
Q 49.703125 2.984375 51.375 0 
L 42.1875 0 
Q 40.828125 2.734375 40.4375 6.390625 
z
M 39.703125 26.03125 
Q 34.90625 24.078125 25.34375 22.703125 
Q 19.921875 21.921875 17.671875 20.9375 
Q 15.4375 19.96875 14.203125 18.09375 
Q 12.984375 16.21875 12.984375 13.921875 
Q 12.984375 10.40625 15.640625 8.0625 
Q 18.3125 5.71875 23.4375 5.71875 
Q 28.515625 5.71875 32.46875 7.9375 
Q 36.421875 10.15625 38.28125 14.015625 
Q 39.703125 17 39.703125 22.796875 
z
" id="ArialMT-97"/>
      <path d="M 25.78125 7.859375 
L 27.046875 0.09375 
Q 23.34375 -0.6875 20.40625 -0.6875 
Q 15.625 -0.6875 12.984375 0.828125 
Q 10.359375 2.34375 9.28125 4.8125 
Q 8.203125 7.28125 8.203125 15.1875 
L 8.203125 45.015625 
L 1.765625 45.015625 
L 1.765625 51.859375 
L 8.203125 51.859375 
L 8.203125 64.703125 
L 16.9375 69.96875 
L 16.9375 51.859375 
L 25.78125 51.859375 
L 25.78125 45.015625 
L 16.9375 45.015625 
L 16.9375 14.703125 
Q 16.9375 10.9375 17.40625 9.859375 
Q 17.875 8.796875 18.921875 8.15625 
Q 19.96875 7.515625 21.921875 7.515625 
Q 23.390625 7.515625 25.78125 7.859375 
z
" id="ArialMT-116"/>
      <path d="M 6.640625 61.46875 
L 6.640625 71.578125 
L 15.4375 71.578125 
L 15.4375 61.46875 
z
M 6.640625 0 
L 6.640625 51.859375 
L 15.4375 51.859375 
L 15.4375 0 
z
" id="ArialMT-105"/>
      <path d="M 3.328125 25.921875 
Q 3.328125 40.328125 11.328125 47.265625 
Q 18.015625 53.03125 27.640625 53.03125 
Q 38.328125 53.03125 45.109375 46.015625 
Q 51.90625 39.015625 51.90625 26.65625 
Q 51.90625 16.65625 48.90625 10.90625 
Q 45.90625 5.171875 40.15625 2 
Q 34.421875 -1.171875 27.640625 -1.171875 
Q 16.75 -1.171875 10.03125 5.8125 
Q 3.328125 12.796875 3.328125 25.921875 
z
M 12.359375 25.921875 
Q 12.359375 15.96875 16.703125 11.015625 
Q 21.046875 6.0625 27.640625 6.0625 
Q 34.1875 6.0625 38.53125 11.03125 
Q 42.875 16.015625 42.875 26.21875 
Q 42.875 35.84375 38.5 40.796875 
Q 34.125 45.75 27.640625 45.75 
Q 21.046875 45.75 16.703125 40.8125 
Q 12.359375 35.890625 12.359375 25.921875 
z
" id="ArialMT-111"/>
      <path d="M 3.078125 15.484375 
L 11.765625 16.84375 
Q 12.5 11.625 15.84375 8.84375 
Q 19.1875 6.0625 25.203125 6.0625 
Q 31.25 6.0625 34.171875 8.515625 
Q 37.109375 10.984375 37.109375 14.3125 
Q 37.109375 17.28125 34.515625 19 
Q 32.71875 20.171875 25.53125 21.96875 
Q 15.875 24.421875 12.140625 26.203125 
Q 8.40625 27.984375 6.46875 31.125 
Q 4.546875 34.28125 4.546875 38.09375 
Q 4.546875 41.546875 6.125 44.5 
Q 7.71875 47.46875 10.453125 49.421875 
Q 12.5 50.921875 16.03125 51.96875 
Q 19.578125 53.03125 23.640625 53.03125 
Q 29.734375 53.03125 34.34375 51.265625 
Q 38.96875 49.515625 41.15625 46.5 
Q 43.359375 43.5 44.1875 38.484375 
L 35.59375 37.3125 
Q 35.015625 41.3125 32.203125 43.546875 
Q 29.390625 45.796875 24.265625 45.796875 
Q 18.21875 45.796875 15.625 43.796875 
Q 13.03125 41.796875 13.03125 39.109375 
Q 13.03125 37.40625 14.109375 36.03125 
Q 15.1875 34.625 17.484375 33.6875 
Q 18.796875 33.203125 25.25 31.453125 
Q 34.578125 28.953125 38.25 27.359375 
Q 41.9375 25.78125 44.03125 22.75 
Q 46.140625 19.734375 46.140625 15.234375 
Q 46.140625 10.84375 43.578125 6.953125 
Q 41.015625 3.078125 36.171875 0.953125 
Q 31.34375 -1.171875 25.25 -1.171875 
Q 15.140625 -1.171875 9.84375 3.03125 
Q 4.546875 7.234375 3.078125 15.484375 
z
" id="ArialMT-115"/>
     </defs>
     <g transform="translate(190.0233 281.72325)scale(0.1152 -0.1152)">
      <use xlink:href="#ArialMT-71"/>
      <use x="77.783203" xlink:href="#ArialMT-101"/>
      <use x="133.398438" xlink:href="#ArialMT-110"/>
      <use x="189.013672" xlink:href="#ArialMT-101"/>
      <use x="244.628906" xlink:href="#ArialMT-114"/>
      <use x="277.929688" xlink:href="#ArialMT-97"/>
      <use x="333.544922" xlink:href="#ArialMT-116"/>
      <use x="361.328125" xlink:href="#ArialMT-105"/>
      <use x="383.544922" xlink:href="#ArialMT-111"/>
      <use x="439.160156" xlink:href="#ArialMT-110"/>
      <use x="494.775391" xlink:href="#ArialMT-115"/>
     </g>
    </g>
   </g>
   <g id="matplotlib.axis_2">
    <g id="ytick_1">
     <g id="line2d_17">
      <defs>
       <path d="M 0 0 
L 3 0 
" id="mcdc31b972f" style="stroke:#000000;"/>
      </defs>
      <g>
       <use style="stroke:#000000;" x="54" xlink:href="#mcdc31b972f" y="199.097504"/>
      </g>
     </g>
     <g id="line2d_18">
      <defs>
       <path d="M 0 0 
L -3 0 
" id="ma863ac1fd9" style="stroke:#000000;"/>
      </defs>
      <g>
       <use style="stroke:#000000;" x="388.8" xlink:href="#ma863ac1fd9" y="199.097504"/>
      </g>
     </g>
     <g id="text_10">
      <!-- $\mathdefault{10^{-4}}$ -->
      <defs>
       <path d="M 52.828125 31.203125 
L 5.5625 31.203125 
L 5.5625 39.40625 
L 52.828125 39.40625 
z
" id="ArialMT-8722"/>
      </defs>
      <g transform="translate(29.5912 204.489704)scale(0.1056 -0.1056)">
       <use transform="translate(0 0.201563)" xlink:href="#ArialMT-49"/>
       <use transform="translate(55.615234 0.201563)" xlink:href="#ArialMT-48"/>
       <use transform="translate(112.972813 69.895313)scale(0.7)" xlink:href="#ArialMT-8722"/>
       <use transform="translate(153.851719 69.895313)scale(0.7)" xlink:href="#ArialMT-52"/>
      </g>
     </g>
    </g>
    <g id="ytick_2">
     <g id="line2d_19">
      <g>
       <use style="stroke:#000000;" x="54" xlink:href="#mcdc31b972f" y="103.794695"/>
      </g>
     </g>
     <g id="line2d_20">
      <g>
       <use style="stroke:#000000;" x="388.8" xlink:href="#ma863ac1fd9" y="103.794695"/>
      </g>
     </g>
     <g id="text_11">
      <!-- $\mathdefault{10^{-3}}$ -->
      <defs>
       <path d="M 4.203125 18.890625 
L 12.984375 20.0625 
Q 14.5 12.59375 18.140625 9.296875 
Q 21.78125 6 27 6 
Q 33.203125 6 37.46875 10.296875 
Q 41.75 14.59375 41.75 20.953125 
Q 41.75 27 37.796875 30.921875 
Q 33.84375 34.859375 27.734375 34.859375 
Q 25.25 34.859375 21.53125 33.890625 
L 22.515625 41.609375 
Q 23.390625 41.5 23.921875 41.5 
Q 29.546875 41.5 34.03125 44.421875 
Q 38.53125 47.359375 38.53125 53.46875 
Q 38.53125 58.296875 35.25 61.46875 
Q 31.984375 64.65625 26.8125 64.65625 
Q 21.6875 64.65625 18.265625 61.421875 
Q 14.84375 58.203125 13.875 51.765625 
L 5.078125 53.328125 
Q 6.6875 62.15625 12.390625 67.015625 
Q 18.109375 71.875 26.609375 71.875 
Q 32.46875 71.875 37.390625 69.359375 
Q 42.328125 66.84375 44.9375 62.5 
Q 47.5625 58.15625 47.5625 53.265625 
Q 47.5625 48.640625 45.0625 44.828125 
Q 42.578125 41.015625 37.703125 38.765625 
Q 44.046875 37.3125 47.5625 32.6875 
Q 51.078125 28.078125 51.078125 21.140625 
Q 51.078125 11.765625 44.234375 5.25 
Q 37.40625 -1.265625 26.953125 -1.265625 
Q 17.53125 -1.265625 11.296875 4.34375 
Q 5.078125 9.96875 4.203125 18.890625 
z
" id="ArialMT-51"/>
      </defs>
      <g transform="translate(29.5912 109.239695)scale(0.1056 -0.1056)">
       <use transform="translate(0 0.99375)" xlink:href="#ArialMT-49"/>
       <use transform="translate(55.615234 0.99375)" xlink:href="#ArialMT-48"/>
       <use transform="translate(112.972813 70.6875)scale(0.7)" xlink:href="#ArialMT-8722"/>
       <use transform="translate(153.851719 70.6875)scale(0.7)" xlink:href="#ArialMT-51"/>
      </g>
     </g>
    </g>
    <g id="ytick_3">
     <g id="line2d_21">
      <defs>
       <path d="M 0 0 
L 3.2 0 
" id="m6ce5d45904" style="stroke:#000000;stroke-width:0.8;"/>
      </defs>
      <g>
       <use style="stroke:#000000;stroke-width:0.8;" x="54" xlink:href="#m6ce5d45904" y="248.929317"/>
      </g>
     </g>
     <g id="line2d_22">
      <defs>
       <path d="M 0 0 
L -3.2 0 
" id="m3d87a37c93" style="stroke:#000000;stroke-width:0.8;"/>
      </defs>
      <g>
       <use style="stroke:#000000;stroke-width:0.8;" x="388.8" xlink:href="#m3d87a37c93" y="248.929317"/>
      </g>
     </g>
    </g>
    <g id="ytick_4">
     <g id="line2d_23">
      <g>
       <use style="stroke:#000000;stroke-width:0.8;" x="54" xlink:href="#m6ce5d45904" y="237.022305"/>
      </g>
     </g>
     <g id="line2d_24">
      <g>
       <use style="stroke:#000000;stroke-width:0.8;" x="388.8" xlink:href="#m3d87a37c93" y="237.022305"/>
      </g>
     </g>
    </g>
    <g id="ytick_5">
     <g id="line2d_25">
      <g>
       <use style="stroke:#000000;stroke-width:0.8;" x="54" xlink:href="#m6ce5d45904" y="227.786508"/>
      </g>
     </g>
     <g id="line2d_26">
      <g>
       <use style="stroke:#000000;stroke-width:0.8;" x="388.8" xlink:href="#m3d87a37c93" y="227.786508"/>
      </g>
     </g>
    </g>
    <g id="ytick_6">
     <g id="line2d_27">
      <g>
       <use style="stroke:#000000;stroke-width:0.8;" x="54" xlink:href="#m6ce5d45904" y="220.240313"/>
      </g>
     </g>
     <g id="line2d_28">
      <g>
       <use style="stroke:#000000;stroke-width:0.8;" x="388.8" xlink:href="#m3d87a37c93" y="220.240313"/>
      </g>
     </g>
    </g>
    <g id="ytick_7">
     <g id="line2d_29">
      <g>
       <use style="stroke:#000000;stroke-width:0.8;" x="54" xlink:href="#m6ce5d45904" y="213.860096"/>
      </g>
     </g>
     <g id="line2d_30">
      <g>
       <use style="stroke:#000000;stroke-width:0.8;" x="388.8" xlink:href="#m3d87a37c93" y="213.860096"/>
      </g>
     </g>
    </g>
    <g id="ytick_8">
     <g id="line2d_31">
      <g>
       <use style="stroke:#000000;stroke-width:0.8;" x="54" xlink:href="#m6ce5d45904" y="208.3333"/>
      </g>
     </g>
     <g id="line2d_32">
      <g>
       <use style="stroke:#000000;stroke-width:0.8;" x="388.8" xlink:href="#m3d87a37c93" y="208.3333"/>
      </g>
     </g>
    </g>
    <g id="ytick_9">
     <g id="line2d_33">
      <g>
       <use style="stroke:#000000;stroke-width:0.8;" x="54" xlink:href="#m6ce5d45904" y="203.458321"/>
      </g>
     </g>
     <g id="line2d_34">
      <g>
       <use style="stroke:#000000;stroke-width:0.8;" x="388.8" xlink:href="#m3d87a37c93" y="203.458321"/>
      </g>
     </g>
    </g>
    <g id="ytick_10">
     <g id="line2d_35">
      <g>
       <use style="stroke:#000000;stroke-width:0.8;" x="54" xlink:href="#m6ce5d45904" y="170.4085"/>
      </g>
     </g>
     <g id="line2d_36">
      <g>
       <use style="stroke:#000000;stroke-width:0.8;" x="388.8" xlink:href="#m3d87a37c93" y="170.4085"/>
      </g>
     </g>
    </g>
    <g id="ytick_11">
     <g id="line2d_37">
      <g>
       <use style="stroke:#000000;stroke-width:0.8;" x="54" xlink:href="#m6ce5d45904" y="153.626508"/>
      </g>
     </g>
     <g id="line2d_38">
      <g>
       <use style="stroke:#000000;stroke-width:0.8;" x="388.8" xlink:href="#m3d87a37c93" y="153.626508"/>
      </g>
     </g>
    </g>
    <g id="ytick_12">
     <g id="line2d_39">
      <g>
       <use style="stroke:#000000;stroke-width:0.8;" x="54" xlink:href="#m6ce5d45904" y="141.719496"/>
      </g>
     </g>
     <g id="line2d_40">
      <g>
       <use style="stroke:#000000;stroke-width:0.8;" x="388.8" xlink:href="#m3d87a37c93" y="141.719496"/>
      </g>
     </g>
    </g>
    <g id="ytick_13">
     <g id="line2d_41">
      <g>
       <use style="stroke:#000000;stroke-width:0.8;" x="54" xlink:href="#m6ce5d45904" y="132.483699"/>
      </g>
     </g>
     <g id="line2d_42">
      <g>
       <use style="stroke:#000000;stroke-width:0.8;" x="388.8" xlink:href="#m3d87a37c93" y="132.483699"/>
      </g>
     </g>
    </g>
    <g id="ytick_14">
     <g id="line2d_43">
      <g>
       <use style="stroke:#000000;stroke-width:0.8;" x="54" xlink:href="#m6ce5d45904" y="124.937504"/>
      </g>
     </g>
     <g id="line2d_44">
      <g>
       <use style="stroke:#000000;stroke-width:0.8;" x="388.8" xlink:href="#m3d87a37c93" y="124.937504"/>
      </g>
     </g>
    </g>
    <g id="ytick_15">
     <g id="line2d_45">
      <g>
       <use style="stroke:#000000;stroke-width:0.8;" x="54" xlink:href="#m6ce5d45904" y="118.557287"/>
      </g>
     </g>
     <g id="line2d_46">
      <g>
       <use style="stroke:#000000;stroke-width:0.8;" x="388.8" xlink:href="#m3d87a37c93" y="118.557287"/>
      </g>
     </g>
    </g>
    <g id="ytick_16">
     <g id="line2d_47">
      <g>
       <use style="stroke:#000000;stroke-width:0.8;" x="54" xlink:href="#m6ce5d45904" y="113.030491"/>
      </g>
     </g>
     <g id="line2d_48">
      <g>
       <use style="stroke:#000000;stroke-width:0.8;" x="388.8" xlink:href="#m3d87a37c93" y="113.030491"/>
      </g>
     </g>
    </g>
    <g id="ytick_17">
     <g id="line2d_49">
      <g>
       <use style="stroke:#000000;stroke-width:0.8;" x="54" xlink:href="#m6ce5d45904" y="108.155512"/>
      </g>
     </g>
     <g id="line2d_50">
      <g>
       <use style="stroke:#000000;stroke-width:0.8;" x="388.8" xlink:href="#m3d87a37c93" y="108.155512"/>
      </g>
     </g>
    </g>
    <g id="ytick_18">
     <g id="line2d_51">
      <g>
       <use style="stroke:#000000;stroke-width:0.8;" x="54" xlink:href="#m6ce5d45904" y="75.105691"/>
      </g>
     </g>
     <g id="line2d_52">
      <g>
       <use style="stroke:#000000;stroke-width:0.8;" x="388.8" xlink:href="#m3d87a37c93" y="75.105691"/>
      </g>
     </g>
    </g>
    <g id="ytick_19">
     <g id="line2d_53">
      <g>
       <use style="stroke:#000000;stroke-width:0.8;" x="54" xlink:href="#m6ce5d45904" y="58.323699"/>
      </g>
     </g>
     <g id="line2d_54">
      <g>
       <use style="stroke:#000000;stroke-width:0.8;" x="388.8" xlink:href="#m3d87a37c93" y="58.323699"/>
      </g>
     </g>
    </g>
    <g id="ytick_20">
     <g id="line2d_55">
      <g>
       <use style="stroke:#000000;stroke-width:0.8;" x="54" xlink:href="#m6ce5d45904" y="46.416687"/>
      </g>
     </g>
     <g id="line2d_56">
      <g>
       <use style="stroke:#000000;stroke-width:0.8;" x="388.8" xlink:href="#m3d87a37c93" y="46.416687"/>
      </g>
     </g>
    </g>
    <g id="ytick_21">
     <g id="line2d_57">
      <g>
       <use style="stroke:#000000;stroke-width:0.8;" x="54" xlink:href="#m6ce5d45904" y="37.18089"/>
      </g>
     </g>
     <g id="line2d_58">
      <g>
       <use style="stroke:#000000;stroke-width:0.8;" x="388.8" xlink:href="#m3d87a37c93" y="37.18089"/>
      </g>
     </g>
    </g>
    <g id="text_12">
     <!-- IGD -->
     <defs>
      <path d="M 9.328125 0 
L 9.328125 71.578125 
L 18.796875 71.578125 
L 18.796875 0 
z
" id="ArialMT-73"/>
      <path d="M 7.71875 0 
L 7.71875 71.578125 
L 32.375 71.578125 
Q 40.71875 71.578125 45.125 70.5625 
Q 51.265625 69.140625 55.609375 65.4375 
Q 61.28125 60.640625 64.078125 53.1875 
Q 66.890625 45.75 66.890625 36.1875 
Q 66.890625 28.03125 64.984375 21.734375 
Q 63.09375 15.4375 60.109375 11.296875 
Q 57.125 7.171875 53.578125 4.796875 
Q 50.046875 2.4375 45.046875 1.21875 
Q 40.046875 0 33.546875 0 
z
M 17.1875 8.453125 
L 32.46875 8.453125 
Q 39.546875 8.453125 43.578125 9.765625 
Q 47.609375 11.078125 50 13.484375 
Q 53.375 16.84375 55.25 22.53125 
Q 57.125 28.21875 57.125 36.328125 
Q 57.125 47.5625 53.4375 53.59375 
Q 49.75 59.625 44.484375 61.671875 
Q 40.671875 63.140625 32.234375 63.140625 
L 17.1875 63.140625 
z
" id="ArialMT-68"/>
     </defs>
     <g transform="translate(23.3016 155.6802)rotate(-90)scale(0.1152 -0.1152)">
      <use xlink:href="#ArialMT-73"/>
      <use x="27.783203" xlink:href="#ArialMT-71"/>
      <use x="105.566406" xlink:href="#ArialMT-68"/>
     </g>
    </g>
   </g>
   <g id="line2d_59">
    <path clip-path="url(#pcf35e0dd6f)" d="M 69.218182 46.916179 
L 69.421091 57.993235 
L 69.624 81.323353 
L 69.826909 81.851375 
L 70.029818 82.946438 
L 70.435636 83.190821 
L 70.638545 83.932581 
L 70.841455 114.244182 
L 71.044364 84.489016 
L 71.247273 103.189691 
L 71.450182 106.738087 
L 71.653091 125.075434 
L 72.261818 141.449922 
L 72.464727 139.194617 
L 72.667636 140.162204 
L 72.870545 136.789476 
L 73.073455 139.326387 
L 73.479273 148.440168 
L 73.885091 153.508101 
L 74.088 153.916519 
L 74.493818 157.039733 
L 74.696727 162.088192 
L 75.102545 165.140621 
L 75.305455 163.503056 
L 75.508364 167.365294 
L 75.711273 168.146413 
L 75.914182 167.261121 
L 76.32 170.198016 
L 76.522909 171.084095 
L 76.928727 168.761909 
L 77.131636 169.253329 
L 77.537455 172.483792 
L 77.943273 146.444953 
L 78.146182 148.693692 
L 78.349091 152.360373 
L 78.552 153.654041 
L 78.957818 154.637004 
L 79.160727 154.717852 
L 79.566545 160.096218 
L 79.972364 161.587766 
L 80.175273 161.831696 
L 80.378182 166.479767 
L 80.784 168.261675 
L 80.986909 168.4338 
L 81.189818 168.417919 
L 81.392727 168.002995 
L 81.595636 168.611462 
L 81.798545 168.756163 
L 82.001455 167.89428 
L 82.407273 168.817401 
L 82.610182 168.590931 
L 82.813091 169.668953 
L 83.016 169.863209 
L 83.218909 170.495077 
L 83.421818 170.287394 
L 83.624727 169.184107 
L 83.827636 169.320627 
L 84.030545 176.138508 
L 84.233455 176.465176 
L 84.436364 176.257064 
L 84.842182 176.889058 
L 85.248 178.265945 
L 85.450909 178.935574 
L 85.653818 179.093904 
L 86.059636 178.097767 
L 86.262545 178.371647 
L 86.668364 179.47585 
L 87.074182 175.448215 
L 87.277091 177.614534 
L 87.48 157.557524 
L 87.682909 150.539672 
L 87.885818 150.808165 
L 88.088727 154.116849 
L 88.291636 155.192141 
L 88.494545 155.63528 
L 88.697455 155.189468 
L 88.900364 155.803824 
L 89.103273 156.01517 
L 89.306182 146.597783 
L 89.712 143.830512 
L 89.914909 145.919054 
L 90.117818 146.471254 
L 90.320727 146.452578 
L 90.523636 146.634228 
L 90.726545 147.00513 
L 90.929455 147.882287 
L 91.132364 147.935109 
L 91.335273 155.001862 
L 91.538182 154.562756 
L 91.741091 154.667211 
L 91.944 154.626279 
L 92.755636 156.282341 
L 92.958545 156.27378 
L 93.161455 161.649342 
L 93.364364 160.869518 
L 93.567273 168.463872 
L 93.770182 168.674002 
L 93.973091 168.410972 
L 94.176 168.690598 
L 94.987636 171.809536 
L 95.393455 171.861424 
L 95.596364 171.789156 
L 95.799273 172.262529 
L 96.205091 172.327925 
L 96.408 172.11954 
L 96.813818 172.190669 
L 97.219636 172.461815 
L 97.625455 172.553691 
L 97.828364 172.496979 
L 98.031273 173.520858 
L 98.234182 173.661374 
L 98.64 173.505958 
L 99.654545 173.61068 
L 100.263273 173.738217 
L 100.669091 176.830385 
L 101.074909 176.64245 
L 101.277818 176.920502 
L 101.480727 176.907573 
L 101.683636 175.933521 
L 101.886545 175.926101 
L 102.089455 177.173739 
L 102.292364 183.032536 
L 102.495273 182.173919 
L 102.901091 182.1047 
L 103.306909 182.499175 
L 103.509818 188.807275 
L 103.712727 188.009271 
L 103.915636 188.930911 
L 104.118545 188.31418 
L 104.321455 188.414442 
L 104.524364 189.315225 
L 104.727273 189.667507 
L 105.133091 190.722232 
L 105.741818 190.768499 
L 106.147636 190.552192 
L 106.350545 190.56211 
L 106.553455 190.720195 
L 106.756364 190.718696 
L 107.162182 190.933748 
L 107.568 190.952982 
L 107.770909 191.066284 
L 107.973818 191.91901 
L 108.379636 191.978143 
L 108.582545 191.288979 
L 108.785455 191.531282 
L 108.988364 192.09115 
L 109.191273 193.91244 
L 109.394182 193.813746 
L 109.597091 194.026427 
L 109.8 193.98494 
L 110.205818 193.732743 
L 110.408727 193.582935 
L 110.611636 193.840123 
L 111.017455 193.857461 
L 111.220364 194.3327 
L 111.829091 194.508937 
L 112.032 194.412394 
L 112.234909 194.548635 
L 112.437818 194.045592 
L 112.640727 193.968026 
L 113.046545 171.046404 
L 113.249455 169.87589 
L 113.655273 174.849357 
L 113.858182 177.006493 
L 114.264 178.189918 
L 114.466909 178.223852 
L 114.669818 178.377949 
L 114.872727 179.250145 
L 115.075636 188.857064 
L 115.278545 186.685872 
L 115.684364 187.449777 
L 115.887273 187.684974 
L 116.293091 189.420991 
L 116.901818 191.699337 
L 117.104727 192.565738 
L 117.307636 194.113615 
L 117.510545 194.628025 
L 117.713455 194.435983 
L 117.916364 194.794577 
L 118.119273 194.684515 
L 118.930909 194.8054 
L 119.133818 194.417613 
L 119.742545 194.480814 
L 120.148364 194.523105 
L 120.351273 194.592256 
L 120.554182 194.945269 
L 120.757091 194.894136 
L 121.162909 195.187017 
L 121.568727 195.218737 
L 121.771636 195.746652 
L 122.177455 195.782091 
L 122.380364 195.620059 
L 122.989091 195.552767 
L 123.192 197.230835 
L 123.394909 197.460201 
L 123.597818 197.378709 
L 124.003636 197.463254 
L 124.206545 200.570656 
L 124.612364 200.551755 
L 124.815273 200.823572 
L 125.018182 200.658822 
L 125.221091 201.664184 
L 125.626909 201.472322 
L 125.829818 205.972944 
L 126.032727 204.545457 
L 126.235636 204.361621 
L 126.438545 204.967837 
L 126.844364 205.455604 
L 127.047273 207.242722 
L 127.250182 207.250484 
L 127.453091 215.590586 
L 127.656 211.916299 
L 127.858909 211.560656 
L 128.061818 211.479705 
L 128.264727 211.850852 
L 128.467636 210.950122 
L 129.279273 211.750677 
L 129.685091 211.722784 
L 129.888 212.170991 
L 130.293818 212.390024 
L 130.496727 212.748589 
L 131.105455 212.961698 
L 131.511273 163.62491 
L 131.714182 166.044374 
L 131.917091 171.571835 
L 132.12 172.75053 
L 132.728727 188.800718 
L 132.931636 188.746318 
L 133.134545 190.247116 
L 133.540364 191.401241 
L 133.743273 192.662996 
L 133.946182 193.149959 
L 134.149091 193.947597 
L 134.554909 194.301601 
L 134.960727 194.200886 
L 135.366545 194.356638 
L 135.975273 194.517832 
L 136.381091 195.213341 
L 137.192727 195.322798 
L 137.395636 197.599324 
L 137.801455 197.599131 
L 138.004364 199.585473 
L 138.613091 199.063616 
L 138.816 199.155446 
L 139.018909 199.405227 
L 139.221818 199.844461 
L 139.627636 200.241984 
L 139.830545 200.492273 
L 140.033455 200.561215 
L 140.236364 201.589995 
L 140.439273 201.403409 
L 140.845091 201.476917 
L 141.656727 201.666917 
L 141.859636 201.943199 
L 142.062545 201.956565 
L 142.265455 202.857122 
L 142.671273 202.784563 
L 142.874182 203.292459 
L 143.888727 203.345155 
L 144.497455 203.438012 
L 144.903273 203.531584 
L 147.541091 203.686376 
L 147.744 204.124526 
L 148.149818 204.108627 
L 148.352727 204.553155 
L 148.758545 199.926937 
L 148.961455 199.748672 
L 149.164364 201.897344 
L 149.367273 202.262301 
L 149.570182 202.320692 
L 149.773091 205.308787 
L 149.976 204.64208 
L 150.178909 204.530199 
L 150.381818 205.056002 
L 150.787636 204.855165 
L 150.990545 204.869424 
L 151.396364 205.300864 
L 151.599273 204.861009 
L 151.802182 204.851011 
L 152.005091 205.664757 
L 152.410909 205.72577 
L 152.613818 205.7765 
L 152.816727 207.102342 
L 153.628364 207.510218 
L 153.831273 207.01197 
L 154.237091 207.349584 
L 154.44 208.028469 
L 154.845818 207.832961 
L 155.251636 208.393502 
L 156.672 208.509467 
L 156.874909 208.486668 
L 157.077818 208.089843 
L 157.686545 208.105331 
L 157.889455 207.984347 
L 158.092364 208.134943 
L 158.498182 208.171288 
L 158.701091 218.145953 
L 158.904 214.433125 
L 159.106909 214.827757 
L 159.309818 215.604472 
L 159.918545 216.293848 
L 160.121455 216.340652 
L 160.324364 218.185411 
L 160.527273 218.240931 
L 160.730182 214.27985 
L 161.136 214.491609 
L 161.338909 214.888137 
L 161.541818 214.888492 
L 161.947636 215.315777 
L 162.150545 215.3485 
L 162.353455 215.198561 
L 162.556364 215.354371 
L 162.759273 215.941368 
L 163.165091 216.318007 
L 163.368 216.460699 
L 164.382545 216.500418 
L 164.585455 215.978375 
L 164.788364 215.963322 
L 164.991273 216.541095 
L 167.223273 216.64401 
L 167.426182 217.326156 
L 167.832 217.22127 
L 168.034909 217.602447 
L 168.237818 217.474335 
L 168.440727 217.485263 
L 168.846545 184.767481 
L 169.049455 185.193937 
L 169.455273 190.983134 
L 169.658182 191.495686 
L 169.861091 192.409182 
L 170.064 192.413362 
L 170.469818 194.134874 
L 170.672727 194.113673 
L 171.078545 197.426004 
L 171.281455 197.85891 
L 171.484364 200.471697 
L 171.687273 209.303247 
L 171.890182 206.683387 
L 172.093091 206.384339 
L 172.904727 210.133815 
L 173.107636 210.413714 
L 173.310545 209.998965 
L 173.513455 209.297848 
L 174.528 210.287556 
L 174.730909 210.277722 
L 174.933818 210.742011 
L 175.542545 210.930213 
L 175.745455 210.510246 
L 176.151273 210.799722 
L 176.354182 217.276745 
L 176.557091 215.824718 
L 176.76 216.351578 
L 176.962909 216.141912 
L 177.165818 216.788515 
L 177.368727 216.652638 
L 177.571636 217.009111 
L 177.774545 218.473448 
L 177.977455 219.124747 
L 178.180364 217.285518 
L 178.383273 219.089227 
L 178.789091 219.181028 
L 178.992 220.222627 
L 179.600727 221.064333 
L 179.803636 220.793456 
L 180.006545 221.282282 
L 180.412364 221.427511 
L 180.615273 221.358675 
L 181.832727 221.679554 
L 182.035636 223.181573 
L 182.238545 223.159712 
L 182.441455 222.737691 
L 182.644364 223.125354 
L 183.253091 223.002739 
L 183.456 223.389377 
L 183.658909 223.213252 
L 183.861818 222.272212 
L 184.064727 220.672249 
L 184.470545 220.394491 
L 184.673455 220.714013 
L 184.876364 220.546216 
L 185.079273 220.934462 
L 185.282182 221.034231 
L 185.485091 221.688289 
L 185.688 221.906551 
L 186.093818 221.980712 
L 186.296727 223.317446 
L 186.499636 223.196874 
L 186.702545 224.041931 
L 187.311273 224.155406 
L 187.514182 224.6039 
L 188.122909 224.978876 
L 188.934545 224.709682 
L 189.137455 225.111391 
L 189.746182 225.412307 
L 189.949091 224.976171 
L 190.152 224.946744 
L 190.354909 225.404345 
L 190.760727 225.421426 
L 190.963636 228.037243 
L 191.166545 228.045564 
L 191.369455 227.80927 
L 191.978182 227.902137 
L 192.384 227.723609 
L 192.992727 227.745793 
L 193.195636 228.37353 
L 193.398545 228.093314 
L 193.601455 228.078242 
L 193.804364 228.187484 
L 194.007273 228.021893 
L 194.210182 228.048595 
L 194.616 228.373213 
L 194.818909 228.3749 
L 195.021818 228.568627 
L 195.833455 228.489228 
L 196.442182 228.530984 
L 196.645091 228.793192 
L 197.253818 228.923197 
L 197.456727 228.913822 
L 197.862545 229.038283 
L 198.065455 229.033628 
L 198.268364 229.61896 
L 199.08 229.598117 
L 199.485818 229.5946 
L 199.688727 229.46932 
L 199.891636 230.321028 
L 200.094545 230.057915 
L 200.297455 230.069359 
L 200.500364 229.447379 
L 201.312 229.519571 
L 201.717818 229.62749 
L 201.920727 229.634179 
L 202.123636 232.038565 
L 202.326545 231.34413 
L 202.529455 231.287821 
L 202.732364 230.858706 
L 202.935273 230.943284 
L 203.544 230.87075 
L 203.949818 232.821303 
L 204.152727 232.973179 
L 204.558545 232.923467 
L 205.370182 233.32742 
L 205.573091 233.331154 
L 205.776 232.874201 
L 205.978909 232.89517 
L 206.181818 232.65964 
L 206.790545 232.821763 
L 207.399273 232.913841 
L 207.602182 232.728177 
L 207.805091 232.148681 
L 209.428364 232.281406 
L 209.631273 232.29498 
L 209.834182 232.696309 
L 210.037091 232.696038 
L 210.24 234.783743 
L 210.848727 234.617865 
L 211.051636 234.319591 
L 211.254545 234.299231 
L 211.457455 234.15403 
L 211.660364 234.212881 
L 211.863273 234.788723 
L 212.066182 234.713873 
L 212.269091 238.624328 
L 212.472 227.789404 
L 212.877818 228.242471 
L 213.080727 227.991483 
L 213.283636 231.326166 
L 213.486545 232.054977 
L 213.689455 232.070308 
L 214.095273 233.419071 
L 214.298182 233.941621 
L 214.501091 236.822377 
L 214.704 231.317256 
L 214.906909 205.516259 
L 215.921455 218.54257 
L 216.124364 219.428657 
L 216.733091 223.116136 
L 216.936 226.298216 
L 217.138909 227.310633 
L 217.341818 227.321087 
L 217.544727 227.571793 
L 217.747636 227.132243 
L 217.950545 228.887268 
L 218.153455 228.908606 
L 218.356364 226.89461 
L 218.559273 229.310984 
L 218.762182 229.612063 
L 218.965091 230.279861 
L 219.168 230.34202 
L 219.370909 232.373707 
L 219.573818 232.689396 
L 219.776727 232.622442 
L 219.979636 231.534729 
L 220.182545 232.771435 
L 220.385455 233.132103 
L 220.588364 233.092965 
L 220.791273 234.979392 
L 220.994182 234.506361 
L 221.197091 234.611137 
L 221.4 234.547776 
L 221.805818 234.733511 
L 222.008727 235.521658 
L 222.211636 235.573996 
L 222.617455 235.781529 
L 222.820364 235.631768 
L 223.226182 235.662842 
L 223.429091 235.98974 
L 224.849455 236.372484 
L 225.255273 237.470518 
L 225.661091 237.423881 
L 226.269818 237.494386 
L 226.675636 237.317779 
L 226.878545 237.26301 
L 227.284364 237.339923 
L 227.487273 237.189618 
L 228.096 237.223289 
L 228.501818 237.615951 
L 229.110545 237.690072 
L 229.719273 237.670991 
L 229.922182 239.89728 
L 230.125091 235.415388 
L 230.328 235.159241 
L 230.936727 235.797782 
L 231.139636 236.340461 
L 231.342545 236.533847 
L 231.545455 237.817063 
L 231.748364 237.931521 
L 231.951273 238.639195 
L 232.357091 238.559502 
L 232.56 238.771832 
L 232.762909 240.871593 
L 233.574545 241.268447 
L 233.777455 241.93512 
L 233.980364 241.844437 
L 235.197818 242.13143 
L 235.806545 242.261393 
L 236.212364 242.224962 
L 236.618182 242.319857 
L 237.024 242.449298 
L 238.444364 242.510154 
L 238.647273 242.434291 
L 238.850182 242.726633 
L 240.473455 242.86579 
L 240.676364 243.166308 
L 241.082182 243.215382 
L 242.502545 243.25454 
L 242.908364 243.396746 
L 243.517091 243.416991 
L 243.72 243.311413 
L 245.140364 243.578465 
L 245.952 243.580155 
L 246.763636 243.561329 
L 246.966545 243.760086 
L 247.372364 243.726747 
L 247.981091 243.759312 
L 248.589818 243.727381 
L 252.039273 243.727656 
L 373.581818 243.727656 
L 373.581818 243.727656 
" style="fill:none;stroke:#023eff;stroke-linecap:round;stroke-width:1.2;"/>
    <defs>
     <path d="M 0 2.4 
C 0.636487 2.4 1.246992 2.147121 1.697056 1.697056 
C 2.147121 1.246992 2.4 0.636487 2.4 0 
C 2.4 -0.636487 2.147121 -1.246992 1.697056 -1.697056 
C 1.246992 -2.147121 0.636487 -2.4 0 -2.4 
C -0.636487 -2.4 -1.246992 -2.147121 -1.697056 -1.697056 
C -2.147121 -1.246992 -2.4 -0.636487 -2.4 0 
C -2.4 0.636487 -2.147121 1.246992 -1.697056 1.697056 
C -1.246992 2.147121 -0.636487 2.4 0 2.4 
z
" id="m1917b53781" style="stroke:#023eff;"/>
    </defs>
    <g clip-path="url(#pcf35e0dd6f)">
     <use style="fill-opacity:0;stroke:#023eff;" x="69.218182" xlink:href="#m1917b53781" y="46.916179"/>
     <use style="fill-opacity:0;stroke:#023eff;" x="109.8" xlink:href="#m1917b53781" y="193.98494"/>
     <use style="fill-opacity:0;stroke:#023eff;" x="150.381818" xlink:href="#m1917b53781" y="205.056002"/>
     <use style="fill-opacity:0;stroke:#023eff;" x="190.963636" xlink:href="#m1917b53781" y="228.037243"/>
     <use style="fill-opacity:0;stroke:#023eff;" x="231.545455" xlink:href="#m1917b53781" y="237.817063"/>
     <use style="fill-opacity:0;stroke:#023eff;" x="272.127273" xlink:href="#m1917b53781" y="243.727656"/>
     <use style="fill-opacity:0;stroke:#023eff;" x="312.709091" xlink:href="#m1917b53781" y="243.727656"/>
     <use style="fill-opacity:0;stroke:#023eff;" x="353.290909" xlink:href="#m1917b53781" y="243.727656"/>
    </g>
   </g>
   <g id="line2d_60">
    <path clip-path="url(#pcf35e0dd6f)" d="M 69.218182 45.843067 
L 69.421091 49.341483 
L 69.624 50.262153 
L 70.029818 56.205408 
L 70.232727 56.766215 
L 70.435636 58.320624 
L 70.638545 60.814485 
L 71.044364 62.322064 
L 71.247273 62.79476 
L 71.450182 62.489587 
L 71.653091 63.372425 
L 71.856 65.263084 
L 72.058909 72.3959 
L 72.261818 71.6424 
L 72.464727 71.753362 
L 72.667636 72.290313 
L 73.073455 81.58104 
L 73.276364 83.095119 
L 73.885091 90.466559 
L 74.088 91.267865 
L 74.290909 91.390897 
L 75.305455 108.603149 
L 75.508364 108.237683 
L 75.711273 109.057953 
L 75.914182 111.967262 
L 76.117091 111.927204 
L 76.522909 121.53711 
L 76.725818 121.695017 
L 76.928727 122.818055 
L 77.131636 123.024632 
L 77.334545 124.208217 
L 77.537455 124.152513 
L 77.943273 124.359576 
L 78.349091 127.792426 
L 78.552 128.566811 
L 78.957818 132.965705 
L 79.160727 133.010156 
L 79.363636 135.309037 
L 79.566545 132.311482 
L 79.769455 133.146696 
L 79.972364 135.548301 
L 80.378182 135.804427 
L 80.581091 135.90702 
L 80.986909 138.491414 
L 81.189818 138.405807 
L 81.392727 142.28101 
L 81.595636 142.306416 
L 81.798545 143.119969 
L 82.001455 143.23439 
L 82.204364 145.602282 
L 82.407273 145.744092 
L 82.610182 147.560873 
L 83.421818 147.833495 
L 83.624727 147.94266 
L 83.827636 148.180237 
L 84.030545 148.158881 
L 84.233455 148.656348 
L 85.045091 149.430695 
L 85.856727 149.625456 
L 86.059636 150.024275 
L 86.262545 150.090837 
L 86.465455 152.5348 
L 86.668364 152.70014 
L 86.871273 154.141666 
L 87.074182 154.245833 
L 87.277091 155.582169 
L 87.682909 160.943642 
L 87.885818 161.652391 
L 88.291636 162.166084 
L 88.494545 162.518442 
L 88.900364 166.641788 
L 89.306182 168.388032 
L 89.509091 171.059376 
L 89.914909 172.710442 
L 90.320727 173.50401 
L 90.726545 173.682098 
L 90.929455 182.766866 
L 91.132364 182.859248 
L 91.335273 184.786447 
L 91.741091 186.399889 
L 92.146909 188.494737 
L 92.349818 189.053609 
L 92.552727 187.447793 
L 92.958545 192.249491 
L 93.567273 195.625248 
L 93.770182 194.861571 
L 93.973091 199.772066 
L 94.176 201.175662 
L 94.378909 201.50218 
L 94.581818 204.30492 
L 94.784727 204.387532 
L 94.987636 205.324876 
L 95.190545 205.448385 
L 95.393455 208.325112 
L 95.596364 207.75779 
L 95.799273 208.122117 
L 96.002182 207.838376 
L 96.408 209.259894 
L 96.610909 210.672717 
L 96.813818 209.019033 
L 97.016727 210.819149 
L 97.219636 206.065663 
L 97.422545 208.845563 
L 97.828364 211.565558 
L 98.031273 214.718372 
L 98.234182 215.57168 
L 98.437091 217.69693 
L 98.842909 219.120971 
L 99.045818 215.886897 
L 99.451636 219.717867 
L 99.654545 220.627282 
L 100.263273 225.880347 
L 100.466182 225.710089 
L 100.669091 226.882176 
L 100.872 227.106308 
L 101.074909 229.081387 
L 101.277818 228.387839 
L 101.480727 229.68246 
L 101.683636 229.054052 
L 101.886545 229.358755 
L 102.292364 232.070934 
L 102.698182 232.834881 
L 103.104 233.379299 
L 103.306909 232.611545 
L 103.509818 233.490877 
L 103.712727 233.70302 
L 103.915636 233.694217 
L 104.118545 233.835212 
L 104.524364 221.288366 
L 104.727273 224.354337 
L 105.336 226.800923 
L 105.538909 226.854541 
L 106.350545 228.397271 
L 106.553455 231.507747 
L 106.756364 232.135101 
L 107.162182 232.394057 
L 107.365091 233.101556 
L 107.568 233.083346 
L 108.176727 233.949442 
L 108.785455 234.178603 
L 108.988364 234.3975 
L 109.191273 236.34738 
L 110.002909 236.594768 
L 111.017455 236.732097 
L 111.220364 236.789188 
L 111.423273 236.989312 
L 111.626182 236.977032 
L 111.829091 237.084354 
L 112.032 236.703595 
L 112.843636 236.92705 
L 113.452364 237.059226 
L 113.655273 237.152722 
L 113.858182 237.606699 
L 114.872727 237.728142 
L 115.075636 234.360173 
L 115.278545 225.296551 
L 115.481455 228.029918 
L 115.684364 227.942549 
L 115.887273 228.031869 
L 116.090182 229.133774 
L 116.293091 233.143481 
L 116.901818 233.826475 
L 117.104727 233.521859 
L 117.307636 231.6553 
L 117.510545 233.743455 
L 117.713455 234.302496 
L 117.916364 234.197118 
L 118.119273 233.905768 
L 118.525091 233.895816 
L 118.728 234.120312 
L 120.148364 234.270375 
L 120.351273 234.021413 
L 120.757091 234.207022 
L 120.96 231.943431 
L 121.162909 232.041756 
L 121.365818 232.331255 
L 121.568727 234.257881 
L 121.771636 228.914044 
L 121.974545 234.540507 
L 122.786182 236.724559 
L 122.989091 237.634066 
L 123.192 238.023389 
L 124.003636 238.403986 
L 124.206545 239.719792 
L 124.815273 239.998872 
L 125.018182 240.365538 
L 125.424 240.625595 
L 125.626909 241.030684 
L 125.829818 240.620393 
L 126.641455 240.922652 
L 127.250182 241.032607 
L 129.482182 241.316843 
L 130.293818 241.492112 
L 131.917091 241.56598 
L 132.322909 241.600087 
L 132.728727 241.768404 
L 132.931636 241.7819 
L 133.134545 244.108021 
L 133.946182 244.132806 
L 134.149091 244.501237 
L 140.236364 244.534145 
L 373.581818 244.534145 
L 373.581818 244.534145 
" style="fill:none;stroke:#1ac938;stroke-linecap:round;stroke-width:1.2;"/>
    <defs>
     <path d="M -0 2.4 
L 2.4 -2.4 
L -2.4 -2.4 
z
" id="m6b1fb8ca30" style="stroke:#1ac938;stroke-linejoin:miter;"/>
    </defs>
    <g clip-path="url(#pcf35e0dd6f)">
     <use style="fill-opacity:0;stroke:#1ac938;stroke-linejoin:miter;" x="69.218182" xlink:href="#m6b1fb8ca30" y="45.843067"/>
     <use style="fill-opacity:0;stroke:#1ac938;stroke-linejoin:miter;" x="109.8" xlink:href="#m6b1fb8ca30" y="236.514952"/>
     <use style="fill-opacity:0;stroke:#1ac938;stroke-linejoin:miter;" x="150.381818" xlink:href="#m6b1fb8ca30" y="244.534145"/>
     <use style="fill-opacity:0;stroke:#1ac938;stroke-linejoin:miter;" x="190.963636" xlink:href="#m6b1fb8ca30" y="244.534145"/>
     <use style="fill-opacity:0;stroke:#1ac938;stroke-linejoin:miter;" x="231.545455" xlink:href="#m6b1fb8ca30" y="244.534145"/>
     <use style="fill-opacity:0;stroke:#1ac938;stroke-linejoin:miter;" x="272.127273" xlink:href="#m6b1fb8ca30" y="244.534145"/>
     <use style="fill-opacity:0;stroke:#1ac938;stroke-linejoin:miter;" x="312.709091" xlink:href="#m6b1fb8ca30" y="244.534145"/>
     <use style="fill-opacity:0;stroke:#1ac938;stroke-linejoin:miter;" x="353.290909" xlink:href="#m6b1fb8ca30" y="244.534145"/>
    </g>
   </g>
   <g id="line2d_61">
    <path clip-path="url(#pcf35e0dd6f)" d="M 69.218182 45.843067 
L 69.421091 47.792152 
L 69.624 47.792152 
L 69.826909 54.082368 
L 70.232727 54.124198 
L 70.435636 58.452448 
L 70.638545 60.222839 
L 70.841455 59.628797 
L 71.044364 60.732485 
L 71.247273 66.604437 
L 71.450182 63.614516 
L 71.653091 63.379216 
L 71.856 64.779307 
L 72.058909 64.18405 
L 72.261818 64.762602 
L 72.667636 71.747817 
L 72.870545 74.121001 
L 73.073455 74.643092 
L 73.276364 74.128383 
L 73.682182 75.259531 
L 73.885091 76.056972 
L 74.088 77.371206 
L 74.290909 77.394074 
L 74.493818 79.490072 
L 74.696727 83.637681 
L 74.899636 82.909382 
L 75.102545 86.066733 
L 75.305455 91.473249 
L 75.508364 90.556085 
L 75.711273 94.129043 
L 75.914182 95.184589 
L 76.117091 95.282133 
L 76.522909 102.306682 
L 76.725818 101.462054 
L 76.928727 106.515361 
L 77.131636 108.321162 
L 77.334545 107.606166 
L 77.537455 112.092125 
L 77.943273 112.343768 
L 78.349091 123.450698 
L 78.552 123.743613 
L 78.957818 126.546065 
L 79.363636 134.190297 
L 79.566545 134.305789 
L 79.769455 135.267282 
L 79.972364 135.606751 
L 80.581091 144.275422 
L 80.784 146.321914 
L 80.986909 153.698817 
L 81.189818 155.029529 
L 81.595636 154.002638 
L 82.001455 154.927319 
L 82.407273 155.320975 
L 82.610182 156.289894 
L 82.813091 156.418332 
L 83.016 157.185813 
L 83.218909 157.424939 
L 83.421818 157.463269 
L 83.624727 159.669229 
L 83.827636 159.872637 
L 84.030545 160.589943 
L 84.436364 160.834069 
L 84.842182 161.029586 
L 85.248 163.687207 
L 85.450909 163.905953 
L 85.856727 162.369169 
L 86.059636 162.792921 
L 86.262545 163.946451 
L 86.668364 164.187732 
L 86.871273 165.575993 
L 87.074182 165.440215 
L 87.277091 169.182775 
L 87.48 169.262887 
L 87.682909 170.075472 
L 87.885818 170.2114 
L 88.088727 171.806266 
L 88.494545 172.430214 
L 88.697455 172.009776 
L 88.900364 172.872065 
L 89.103273 173.050171 
L 89.509091 176.214782 
L 89.712 176.277401 
L 90.523636 186.888555 
L 90.726545 186.789551 
L 90.929455 184.914012 
L 91.132364 186.507653 
L 91.335273 189.654229 
L 91.741091 192.057203 
L 91.944 194.188727 
L 92.349818 195.749198 
L 92.755636 198.958724 
L 93.161455 197.322678 
L 93.567273 199.406223 
L 93.770182 198.853868 
L 93.973091 200.025666 
L 94.176 199.651216 
L 94.378909 208.321371 
L 94.581818 204.704885 
L 94.784727 208.560284 
L 94.987636 209.570186 
L 95.190545 211.793727 
L 95.393455 211.878422 
L 95.596364 214.020884 
L 95.799273 214.12169 
L 96.002182 214.825704 
L 96.408 217.452005 
L 96.610909 218.171367 
L 96.813818 219.915286 
L 97.016727 219.370487 
L 97.625455 221.979751 
L 97.828364 222.077429 
L 98.234182 223.505513 
L 98.437091 224.0968 
L 98.64 227.900704 
L 98.842909 227.759011 
L 99.045818 225.929974 
L 99.248727 226.092544 
L 99.451636 224.917071 
L 99.654545 219.710211 
L 99.857455 202.401488 
L 100.263273 212.432087 
L 100.466182 217.273253 
L 100.669091 216.00745 
L 100.872 218.053227 
L 101.074909 222.795764 
L 101.683636 218.903175 
L 102.089455 222.29515 
L 102.292364 221.575632 
L 102.495273 222.024074 
L 102.698182 222.14508 
L 102.901091 221.165282 
L 103.104 221.214718 
L 103.306909 221.625543 
L 103.509818 222.972673 
L 103.712727 223.036176 
L 104.118545 223.544524 
L 104.524364 223.878642 
L 104.727273 224.875126 
L 105.336 225.261571 
L 105.538909 225.332626 
L 105.741818 231.091702 
L 105.944727 226.021488 
L 106.147636 228.597109 
L 107.162182 231.031026 
L 107.365091 234.336039 
L 107.568 234.767664 
L 107.770909 234.929255 
L 108.176727 235.956115 
L 108.379636 232.293804 
L 108.582545 232.293193 
L 108.988364 229.893442 
L 109.191273 232.454468 
L 109.394182 232.134856 
L 109.597091 232.524808 
L 109.8 234.011109 
L 110.002909 216.668711 
L 110.205818 219.764371 
L 110.408727 226.507912 
L 110.611636 229.485847 
L 110.814545 229.392089 
L 111.017455 230.990777 
L 111.220364 230.798357 
L 111.423273 231.257125 
L 112.032 231.274853 
L 112.234909 232.956557 
L 112.437818 232.532629 
L 112.640727 233.988873 
L 112.843636 234.23515 
L 113.046545 234.748021 
L 113.249455 236.35365 
L 113.655273 229.6694 
L 113.858182 228.049722 
L 114.061091 232.182604 
L 114.264 233.917175 
L 114.466909 233.758451 
L 114.669818 234.967211 
L 114.872727 223.441086 
L 115.075636 201.914124 
L 115.481455 212.147355 
L 115.684364 206.71236 
L 116.090182 219.059833 
L 116.293091 219.744501 
L 116.496 221.681817 
L 116.698909 221.911418 
L 117.307636 224.112238 
L 117.510545 224.663765 
L 117.916364 224.967526 
L 118.119273 224.688362 
L 118.728 225.136434 
L 118.930909 228.994197 
L 119.133818 225.62934 
L 119.539636 223.419594 
L 119.742545 230.002223 
L 119.945455 230.498706 
L 120.148364 231.341121 
L 120.351273 231.686596 
L 120.757091 231.521297 
L 121.162909 233.536381 
L 121.365818 233.012381 
L 121.568727 233.055549 
L 121.771636 232.190512 
L 121.974545 233.156339 
L 122.989091 233.395477 
L 123.192 233.635554 
L 123.394909 233.461719 
L 123.597818 233.666589 
L 123.800727 235.414382 
L 124.003636 235.25731 
L 124.206545 235.261732 
L 124.409455 235.617761 
L 124.612364 235.748926 
L 124.815273 236.130493 
L 125.424 236.396543 
L 125.626909 236.525214 
L 126.032727 236.496137 
L 126.438545 236.591666 
L 126.641455 236.698424 
L 126.844364 236.931145 
L 127.250182 236.927866 
L 127.656 236.959936 
L 128.467636 237.313849 
L 129.685091 237.518416 
L 129.888 237.295418 
L 130.496727 237.384526 
L 130.699636 237.633343 
L 131.308364 237.763423 
L 131.714182 237.908602 
L 132.728727 238.017842 
L 133.134545 238.078643 
L 133.337455 237.831443 
L 134.554909 237.792369 
L 134.757818 238.014369 
L 134.960727 238.054123 
L 135.163636 240.780087 
L 135.366545 239.781406 
L 135.569455 240.034827 
L 135.772364 239.780232 
L 135.975273 239.7681 
L 136.178182 239.314246 
L 136.584 239.513523 
L 136.786909 239.855015 
L 137.192727 239.910471 
L 137.395636 239.532271 
L 137.598545 239.519957 
L 137.801455 239.626296 
L 138.207273 239.595321 
L 138.410182 239.629745 
L 138.613091 239.834849 
L 138.816 238.953246 
L 139.830545 239.070477 
L 140.033455 239.278225 
L 140.439273 242.657866 
L 141.048 239.883461 
L 141.250909 231.22026 
L 141.859636 233.875124 
L 142.062545 234.131922 
L 142.265455 236.052593 
L 142.468364 240.71694 
L 142.671273 234.219914 
L 142.874182 236.289939 
L 143.077091 236.754151 
L 143.28 236.806816 
L 143.482909 237.063462 
L 143.685818 239.532842 
L 143.888727 243.963553 
L 144.294545 244.461447 
L 144.497455 244.041235 
L 144.700364 244.993186 
L 144.903273 236.777897 
L 145.106182 239.682691 
L 145.309091 240.383759 
L 145.512 240.473189 
L 145.714909 242.5762 
L 146.323636 243.630616 
L 146.526545 243.492913 
L 146.729455 243.882444 
L 146.932364 244.027848 
L 147.135273 243.812251 
L 147.338182 244.726677 
L 147.744 245.213863 
L 148.149818 245.314085 
L 148.352727 245.030559 
L 148.555636 245.642873 
L 150.787636 245.735209 
L 150.990545 245.858015 
L 151.193455 243.686274 
L 151.396364 242.89469 
L 151.599273 242.93646 
L 151.802182 245.249474 
L 152.005091 245.281271 
L 152.208 245.099798 
L 152.410909 245.102847 
L 152.613818 245.909421 
L 152.816727 245.896851 
L 153.019636 246.182442 
L 373.581818 246.236841 
L 373.581818 246.236841 
" style="fill:none;stroke:#e8000b;stroke-linecap:round;stroke-width:1.2;"/>
    <defs>
     <path d="M 0 -2.4 
L -2.4 2.4 
L 2.4 2.4 
z
" id="m3de8cf8b43" style="stroke:#e8000b;stroke-linejoin:miter;"/>
    </defs>
    <g clip-path="url(#pcf35e0dd6f)">
     <use style="fill-opacity:0;stroke:#e8000b;stroke-linejoin:miter;" x="69.218182" xlink:href="#m3de8cf8b43" y="45.843067"/>
     <use style="fill-opacity:0;stroke:#e8000b;stroke-linejoin:miter;" x="109.8" xlink:href="#m3de8cf8b43" y="234.011109"/>
     <use style="fill-opacity:0;stroke:#e8000b;stroke-linejoin:miter;" x="150.381818" xlink:href="#m3de8cf8b43" y="245.73416"/>
     <use style="fill-opacity:0;stroke:#e8000b;stroke-linejoin:miter;" x="190.963636" xlink:href="#m3de8cf8b43" y="246.236841"/>
     <use style="fill-opacity:0;stroke:#e8000b;stroke-linejoin:miter;" x="231.545455" xlink:href="#m3de8cf8b43" y="246.236841"/>
     <use style="fill-opacity:0;stroke:#e8000b;stroke-linejoin:miter;" x="272.127273" xlink:href="#m3de8cf8b43" y="246.236841"/>
     <use style="fill-opacity:0;stroke:#e8000b;stroke-linejoin:miter;" x="312.709091" xlink:href="#m3de8cf8b43" y="246.236841"/>
     <use style="fill-opacity:0;stroke:#e8000b;stroke-linejoin:miter;" x="353.290909" xlink:href="#m3de8cf8b43" y="246.236841"/>
    </g>
   </g>
   <g id="line2d_62">
    <path clip-path="url(#pcf35e0dd6f)" d="M 69.218182 44.64 
L 69.826909 48.209781 
L 70.029818 48.209781 
L 70.232727 49.137985 
L 70.435636 50.96727 
L 70.638545 51.555917 
L 71.044364 55.647382 
L 71.247273 57.311488 
L 71.653091 57.314503 
L 72.058909 59.232105 
L 72.261818 59.223411 
L 72.464727 59.486132 
L 72.667636 59.484538 
L 72.870545 61.656886 
L 73.073455 60.374729 
L 73.276364 60.385596 
L 73.479273 62.195477 
L 73.682182 62.205733 
L 74.696727 70.837106 
L 74.899636 70.264741 
L 75.305455 70.368518 
L 75.711273 77.664258 
L 75.914182 80.215511 
L 76.117091 84.436514 
L 76.522909 84.555852 
L 76.725818 87.24762 
L 76.928727 86.282479 
L 77.131636 86.42257 
L 77.334545 87.044731 
L 77.740364 97.465304 
L 77.943273 107.701389 
L 78.146182 107.524225 
L 78.349091 108.962083 
L 78.552 109.027878 
L 78.754909 109.439062 
L 78.957818 111.31238 
L 79.160727 118.625718 
L 79.363636 117.868091 
L 79.566545 119.218231 
L 79.769455 119.076619 
L 79.972364 119.355523 
L 80.175273 124.573923 
L 80.378182 124.842059 
L 80.581091 123.980223 
L 80.986909 126.532919 
L 81.189818 126.417955 
L 81.595636 126.766855 
L 82.001455 127.819515 
L 82.407273 128.105126 
L 82.610182 128.219186 
L 82.813091 128.486166 
L 83.016 128.98134 
L 83.218909 131.937615 
L 83.421818 131.960851 
L 83.827636 132.33875 
L 84.030545 132.295847 
L 84.639273 132.613531 
L 84.842182 135.592906 
L 85.045091 136.082378 
L 85.653818 136.230995 
L 86.059636 136.394261 
L 86.465455 136.583557 
L 86.668364 136.105968 
L 86.871273 136.371199 
L 87.074182 136.304402 
L 87.277091 136.04856 
L 87.48 136.084867 
L 87.682909 136.467323 
L 87.885818 138.757247 
L 88.088727 139.149296 
L 88.291636 141.616199 
L 88.494545 141.928698 
L 88.697455 144.26879 
L 88.900364 144.687201 
L 89.103273 145.363379 
L 89.306182 147.615839 
L 89.509091 147.869989 
L 89.712 153.601273 
L 89.914909 154.243271 
L 90.117818 154.248885 
L 90.320727 153.632513 
L 90.523636 156.075581 
L 90.726545 152.052355 
L 90.929455 153.90124 
L 91.132364 157.303313 
L 91.335273 158.107059 
L 91.538182 159.450124 
L 91.741091 168.038607 
L 92.349818 168.840132 
L 92.552727 171.543013 
L 92.755636 172.04632 
L 92.958545 172.073728 
L 93.161455 173.345535 
L 93.364364 173.244311 
L 93.770182 176.431359 
L 93.973091 176.541871 
L 94.784727 178.175428 
L 94.987636 180.246194 
L 95.190545 180.280721 
L 95.393455 175.841238 
L 95.596364 174.216287 
L 96.002182 181.470155 
L 96.205091 183.213867 
L 96.408 183.203328 
L 97.016727 191.79883 
L 97.219636 192.349679 
L 97.422545 192.309458 
L 97.625455 193.506482 
L 97.828364 193.560408 
L 98.031273 195.140539 
L 98.234182 191.524179 
L 98.437091 175.971296 
L 98.64 185.786337 
L 98.842909 181.829041 
L 99.248727 184.451156 
L 99.451636 193.26013 
L 99.654545 195.294714 
L 99.857455 195.36513 
L 100.060364 196.162499 
L 100.263273 196.21625 
L 100.466182 197.802265 
L 100.669091 197.923114 
L 101.074909 198.861511 
L 101.277818 200.972422 
L 101.683636 201.911147 
L 101.886545 202.38547 
L 102.089455 203.341257 
L 102.292364 203.240999 
L 102.495273 203.521663 
L 102.698182 204.27393 
L 103.104 203.788228 
L 103.306909 204.605883 
L 104.118545 205.034856 
L 104.524364 205.142858 
L 104.727273 205.667459 
L 105.133091 205.981916 
L 105.336 205.796314 
L 105.741818 206.631699 
L 105.944727 206.553008 
L 106.350545 211.293553 
L 106.959273 209.982845 
L 107.162182 209.726519 
L 107.365091 210.483151 
L 107.568 211.737241 
L 107.770909 210.168387 
L 107.973818 209.746738 
L 108.176727 210.263885 
L 108.379636 210.065905 
L 108.785455 203.333401 
L 108.988364 202.748989 
L 109.597091 210.046032 
L 109.8 209.926021 
L 110.002909 208.594038 
L 110.408727 212.006082 
L 110.611636 211.756971 
L 110.814545 212.09822 
L 111.017455 213.638147 
L 111.220364 213.728698 
L 111.626182 214.541984 
L 111.829091 199.550776 
L 112.032 161.986166 
L 112.234909 187.409741 
L 112.437818 187.952962 
L 112.640727 193.653909 
L 112.843636 195.059443 
L 113.046545 197.649734 
L 113.249455 195.396505 
L 113.452364 195.607074 
L 113.655273 199.1868 
L 114.061091 199.854333 
L 114.264 200.9405 
L 114.466909 200.612397 
L 114.669818 200.672421 
L 114.872727 191.366401 
L 115.075636 190.65763 
L 115.278545 190.506736 
L 115.481455 189.561205 
L 115.684364 191.025444 
L 115.887273 190.2216 
L 116.090182 190.555348 
L 116.698909 192.70145 
L 117.104727 203.322651 
L 117.307636 203.218272 
L 117.510545 203.453883 
L 117.916364 203.452126 
L 118.322182 204.937861 
L 118.525091 205.00263 
L 118.728 204.742644 
L 118.930909 202.862096 
L 119.133818 202.838979 
L 119.336727 213.135735 
L 119.539636 213.611583 
L 119.945455 212.461757 
L 120.148364 213.15968 
L 120.351273 213.426341 
L 120.554182 212.881961 
L 120.757091 213.13039 
L 120.96 213.740532 
L 121.162909 215.640209 
L 121.365818 215.766513 
L 121.568727 216.224456 
L 121.771636 215.726215 
L 121.974545 217.745057 
L 122.380364 218.649151 
L 122.583273 218.790551 
L 122.989091 218.748239 
L 123.192 218.84362 
L 123.800727 220.038517 
L 124.003636 220.976384 
L 124.206545 220.980286 
L 124.409455 221.440517 
L 125.018182 221.6824 
L 125.221091 221.265133 
L 125.424 221.265492 
L 125.626909 221.631057 
L 125.829818 221.667978 
L 126.032727 219.814829 
L 126.235636 220.268267 
L 126.438545 220.406785 
L 126.641455 221.616989 
L 126.844364 220.974585 
L 127.047273 223.338562 
L 127.250182 223.544122 
L 127.453091 223.546299 
L 127.656 224.10733 
L 127.858909 223.804092 
L 128.061818 225.225514 
L 128.467636 223.93616 
L 128.670545 217.738041 
L 128.873455 204.966803 
L 129.279273 202.537627 
L 129.482182 211.072905 
L 129.685091 211.580156 
L 129.888 211.684482 
L 130.090909 213.449168 
L 130.496727 213.477656 
L 130.699636 215.47484 
L 130.902545 215.787967 
L 131.105455 214.292572 
L 131.308364 214.334031 
L 131.511273 217.535399 
L 131.714182 217.438459 
L 131.917091 218.299855 
L 132.12 219.675108 
L 132.322909 218.78787 
L 132.525818 218.682916 
L 133.134545 219.033368 
L 133.540364 218.218567 
L 133.743273 219.129419 
L 133.946182 218.632317 
L 134.554909 220.491518 
L 135.163636 221.461605 
L 135.366545 219.691352 
L 135.569455 220.481057 
L 135.772364 218.32749 
L 135.975273 222.754159 
L 136.178182 220.381804 
L 136.381091 221.698218 
L 136.584 221.716061 
L 136.786909 222.918817 
L 136.989818 224.852161 
L 137.395636 224.878055 
L 137.598545 224.99881 
L 137.801455 224.282404 
L 138.004364 224.089668 
L 138.410182 226.492525 
L 138.613091 226.314999 
L 138.816 226.286576 
L 139.018909 228.249532 
L 139.424727 228.27121 
L 139.627636 228.435778 
L 139.830545 228.891894 
L 140.236364 228.955073 
L 140.439273 229.689646 
L 140.845091 229.34124 
L 141.250909 229.4184 
L 141.453818 229.911229 
L 141.656727 231.410545 
L 141.859636 231.420816 
L 142.062545 231.744258 
L 142.265455 231.700339 
L 142.468364 232.124567 
L 142.874182 232.160015 
L 143.28 232.291066 
L 144.091636 232.210218 
L 145.106182 232.255434 
L 145.512 232.365316 
L 146.120727 232.341155 
L 146.526545 232.691631 
L 146.932364 232.77683 
L 148.352727 232.88094 
L 148.555636 232.917467 
L 148.758545 232.772122 
L 149.164364 232.696765 
L 149.570182 236.078908 
L 149.773091 235.781185 
L 149.976 235.039522 
L 150.178909 235.015 
L 150.381818 234.177549 
L 150.584727 234.610411 
L 150.787636 234.515296 
L 150.990545 234.218822 
L 151.193455 233.627152 
L 151.599273 233.601488 
L 151.802182 233.851457 
L 152.005091 233.657552 
L 152.208 233.25256 
L 152.816727 233.420781 
L 153.019636 232.472824 
L 153.222545 232.651531 
L 153.425455 232.489319 
L 153.628364 232.546822 
L 153.831273 232.740471 
L 154.034182 233.491109 
L 154.237091 234.805738 
L 154.642909 235.234048 
L 155.048727 235.357676 
L 155.251636 235.391574 
L 155.454545 234.660121 
L 155.657455 234.977413 
L 155.860364 234.968053 
L 156.063273 233.4613 
L 156.266182 233.349497 
L 156.672 233.433761 
L 156.874909 234.602111 
L 157.280727 234.700258 
L 157.483636 234.513914 
L 157.686545 233.216008 
L 157.889455 234.588294 
L 158.092364 234.323062 
L 158.295273 235.558199 
L 158.701091 235.558433 
L 158.904 236.231499 
L 159.512727 236.253083 
L 159.715636 236.559807 
L 159.918545 236.493564 
L 160.121455 236.149452 
L 160.324364 236.149452 
L 160.527273 234.205705 
L 162.150545 234.331639 
L 162.353455 235.138725 
L 163.165091 235.142839 
L 163.570909 235.13171 
L 163.773818 234.544936 
L 163.976727 234.545329 
L 164.179636 236.198255 
L 164.382545 236.450161 
L 165.194182 236.467257 
L 165.397091 236.612558 
L 166.614545 236.61152 
L 167.020364 236.647059 
L 167.223273 236.813673 
L 167.426182 236.732622 
L 167.629091 236.934088 
L 168.846545 236.989106 
L 169.049455 233.063596 
L 169.252364 233.123388 
L 169.658182 233.06927 
L 373.581818 233.06927 
L 373.581818 233.06927 
" style="fill:none;stroke:#00d7ff;stroke-linecap:round;stroke-width:1.2;"/>
    <defs>
     <path d="M -2.4 2.4 
L 2.4 2.4 
L 2.4 -2.4 
L -2.4 -2.4 
z
" id="m4088bbb7db" style="stroke:#00d7ff;stroke-linejoin:miter;"/>
    </defs>
    <g clip-path="url(#pcf35e0dd6f)">
     <use style="fill-opacity:0;stroke:#00d7ff;stroke-linejoin:miter;" x="69.218182" xlink:href="#m4088bbb7db" y="44.64"/>
     <use style="fill-opacity:0;stroke:#00d7ff;stroke-linejoin:miter;" x="109.8" xlink:href="#m4088bbb7db" y="209.926021"/>
     <use style="fill-opacity:0;stroke:#00d7ff;stroke-linejoin:miter;" x="150.381818" xlink:href="#m4088bbb7db" y="234.177549"/>
     <use style="fill-opacity:0;stroke:#00d7ff;stroke-linejoin:miter;" x="190.963636" xlink:href="#m4088bbb7db" y="233.06927"/>
     <use style="fill-opacity:0;stroke:#00d7ff;stroke-linejoin:miter;" x="231.545455" xlink:href="#m4088bbb7db" y="233.06927"/>
     <use style="fill-opacity:0;stroke:#00d7ff;stroke-linejoin:miter;" x="272.127273" xlink:href="#m4088bbb7db" y="233.06927"/>
     <use style="fill-opacity:0;stroke:#00d7ff;stroke-linejoin:miter;" x="312.709091" xlink:href="#m4088bbb7db" y="233.06927"/>
     <use style="fill-opacity:0;stroke:#00d7ff;stroke-linejoin:miter;" x="353.290909" xlink:href="#m4088bbb7db" y="233.06927"/>
    </g>
   </g>
   <g id="patch_3">
    <path d="M 54 256.32 
L 54 34.56 
" style="fill:none;stroke:#000000;stroke-linecap:square;stroke-linejoin:miter;"/>
   </g>
   <g id="patch_4">
    <path d="M 388.8 256.32 
L 388.8 34.56 
" style="fill:none;stroke:#000000;stroke-linecap:square;stroke-linejoin:miter;"/>
   </g>
   <g id="patch_5">
    <path d="M 54 256.32 
L 388.8 256.32 
" style="fill:none;stroke:#000000;stroke-linecap:square;stroke-linejoin:miter;"/>
   </g>
   <g id="patch_6">
    <path d="M 54 34.56 
L 388.8 34.56 
" style="fill:none;stroke:#000000;stroke-linecap:square;stroke-linejoin:miter;"/>
   </g>
   <g id="legend_1">
    <g id="patch_7">
     <path d="M 308.544 102.7578 
L 383.52 102.7578 
L 383.52 39.84 
L 308.544 39.84 
z
" style="fill:#ffffff;opacity:0.8;stroke:#000000;stroke-linejoin:miter;stroke-width:0.8;"/>
    </g>
    <g id="line2d_63">
     <path d="M 312.768 47.92665 
L 333.888 47.92665 
" style="fill:none;stroke:#023eff;stroke-linecap:round;stroke-width:1.2;"/>
    </g>
    <g id="line2d_64">
     <g>
      <use style="fill-opacity:0;stroke:#023eff;" x="323.328" xlink:href="#m1917b53781" y="47.92665"/>
     </g>
    </g>
    <g id="text_13">
     <!-- LEVY -->
     <defs>
      <path d="M 7.328125 0 
L 7.328125 71.578125 
L 16.796875 71.578125 
L 16.796875 8.453125 
L 52.046875 8.453125 
L 52.046875 0 
z
" id="ArialMT-76"/>
      <path d="M 7.90625 0 
L 7.90625 71.578125 
L 59.671875 71.578125 
L 59.671875 63.140625 
L 17.390625 63.140625 
L 17.390625 41.21875 
L 56.984375 41.21875 
L 56.984375 32.8125 
L 17.390625 32.8125 
L 17.390625 8.453125 
L 61.328125 8.453125 
L 61.328125 0 
z
" id="ArialMT-69"/>
      <path d="M 28.171875 0 
L 0.4375 71.578125 
L 10.6875 71.578125 
L 29.296875 19.578125 
Q 31.546875 13.328125 33.0625 7.859375 
Q 34.71875 13.71875 36.921875 19.578125 
L 56.25 71.578125 
L 65.921875 71.578125 
L 37.890625 0 
z
" id="ArialMT-86"/>
      <path d="M 27.875 0 
L 27.875 30.328125 
L 0.296875 71.578125 
L 11.8125 71.578125 
L 25.921875 50 
Q 29.828125 43.953125 33.203125 37.890625 
Q 36.421875 43.5 41.015625 50.53125 
L 54.890625 71.578125 
L 65.921875 71.578125 
L 37.359375 30.328125 
L 37.359375 0 
z
" id="ArialMT-89"/>
     </defs>
     <g transform="translate(342.336 51.62265)scale(0.1056 -0.1056)">
      <use xlink:href="#ArialMT-76"/>
      <use x="55.615234" xlink:href="#ArialMT-69"/>
      <use x="122.314453" xlink:href="#ArialMT-86"/>
      <use x="189.013672" xlink:href="#ArialMT-89"/>
     </g>
    </g>
    <g id="line2d_65">
     <path d="M 312.768 62.8641 
L 333.888 62.8641 
" style="fill:none;stroke:#1ac938;stroke-linecap:round;stroke-width:1.2;"/>
    </g>
    <g id="line2d_66">
     <g>
      <use style="fill-opacity:0;stroke:#1ac938;stroke-linejoin:miter;" x="323.328" xlink:href="#m6b1fb8ca30" y="62.8641"/>
     </g>
    </g>
    <g id="text_14">
     <!-- UNIF -->
     <defs>
      <path d="M 54.6875 71.578125 
L 64.15625 71.578125 
L 64.15625 30.21875 
Q 64.15625 19.4375 61.71875 13.078125 
Q 59.28125 6.734375 52.90625 2.75 
Q 46.53125 -1.21875 36.1875 -1.21875 
Q 26.125 -1.21875 19.71875 2.25 
Q 13.328125 5.71875 10.59375 12.28125 
Q 7.859375 18.84375 7.859375 30.21875 
L 7.859375 71.578125 
L 17.328125 71.578125 
L 17.328125 30.28125 
Q 17.328125 20.953125 19.0625 16.53125 
Q 20.796875 12.109375 25.015625 9.71875 
Q 29.25 7.328125 35.359375 7.328125 
Q 45.796875 7.328125 50.234375 12.0625 
Q 54.6875 16.796875 54.6875 30.28125 
z
" id="ArialMT-85"/>
      <path d="M 7.625 0 
L 7.625 71.578125 
L 17.328125 71.578125 
L 54.9375 15.375 
L 54.9375 71.578125 
L 64.015625 71.578125 
L 64.015625 0 
L 54.296875 0 
L 16.703125 56.25 
L 16.703125 0 
z
" id="ArialMT-78"/>
      <path d="M 8.203125 0 
L 8.203125 71.578125 
L 56.5 71.578125 
L 56.5 63.140625 
L 17.671875 63.140625 
L 17.671875 40.96875 
L 51.265625 40.96875 
L 51.265625 32.515625 
L 17.671875 32.515625 
L 17.671875 0 
z
" id="ArialMT-70"/>
     </defs>
     <g transform="translate(342.336 66.5601)scale(0.1056 -0.1056)">
      <use xlink:href="#ArialMT-85"/>
      <use x="72.216797" xlink:href="#ArialMT-78"/>
      <use x="144.433594" xlink:href="#ArialMT-73"/>
      <use x="172.216797" xlink:href="#ArialMT-70"/>
     </g>
    </g>
    <g id="line2d_67">
     <path d="M 312.768 77.80155 
L 333.888 77.80155 
" style="fill:none;stroke:#e8000b;stroke-linecap:round;stroke-width:1.2;"/>
    </g>
    <g id="line2d_68">
     <g>
      <use style="fill-opacity:0;stroke:#e8000b;stroke-linejoin:miter;" x="323.328" xlink:href="#m3de8cf8b43" y="77.80155"/>
     </g>
    </g>
    <g id="text_15">
     <!-- NORM -->
     <defs>
      <path d="M 4.828125 34.859375 
Q 4.828125 52.6875 14.390625 62.765625 
Q 23.96875 72.859375 39.109375 72.859375 
Q 49.03125 72.859375 56.984375 68.109375 
Q 64.9375 63.375 69.109375 54.90625 
Q 73.296875 46.4375 73.296875 35.6875 
Q 73.296875 24.8125 68.890625 16.21875 
Q 64.5 7.625 56.4375 3.203125 
Q 48.390625 -1.21875 39.0625 -1.21875 
Q 28.953125 -1.21875 20.984375 3.65625 
Q 13.03125 8.546875 8.921875 16.984375 
Q 4.828125 25.4375 4.828125 34.859375 
z
M 14.59375 34.71875 
Q 14.59375 21.78125 21.546875 14.328125 
Q 28.515625 6.890625 39.015625 6.890625 
Q 49.703125 6.890625 56.609375 14.40625 
Q 63.53125 21.921875 63.53125 35.75 
Q 63.53125 44.484375 60.578125 51 
Q 57.625 57.515625 51.921875 61.109375 
Q 46.234375 64.703125 39.15625 64.703125 
Q 29.109375 64.703125 21.84375 57.78125 
Q 14.59375 50.875 14.59375 34.71875 
z
" id="ArialMT-79"/>
      <path d="M 7.859375 0 
L 7.859375 71.578125 
L 39.59375 71.578125 
Q 49.171875 71.578125 54.140625 69.640625 
Q 59.125 67.71875 62.109375 62.828125 
Q 65.09375 57.953125 65.09375 52.046875 
Q 65.09375 44.4375 60.15625 39.203125 
Q 55.21875 33.984375 44.921875 32.5625 
Q 48.6875 30.765625 50.640625 29 
Q 54.78125 25.203125 58.5 19.484375 
L 70.953125 0 
L 59.03125 0 
L 49.5625 14.890625 
Q 45.40625 21.34375 42.71875 24.75 
Q 40.046875 28.171875 37.921875 29.53125 
Q 35.796875 30.90625 33.59375 31.453125 
Q 31.984375 31.78125 28.328125 31.78125 
L 17.328125 31.78125 
L 17.328125 0 
z
M 17.328125 39.984375 
L 37.703125 39.984375 
Q 44.1875 39.984375 47.84375 41.328125 
Q 51.515625 42.671875 53.421875 45.625 
Q 55.328125 48.578125 55.328125 52.046875 
Q 55.328125 57.125 51.640625 60.390625 
Q 47.953125 63.671875 39.984375 63.671875 
L 17.328125 63.671875 
z
" id="ArialMT-82"/>
      <path d="M 7.421875 0 
L 7.421875 71.578125 
L 21.6875 71.578125 
L 38.625 20.90625 
Q 40.96875 13.8125 42.046875 10.296875 
Q 43.265625 14.203125 45.84375 21.78125 
L 62.984375 71.578125 
L 75.734375 71.578125 
L 75.734375 0 
L 66.609375 0 
L 66.609375 59.90625 
L 45.796875 0 
L 37.25 0 
L 16.546875 60.9375 
L 16.546875 0 
z
" id="ArialMT-77"/>
     </defs>
     <g transform="translate(342.336 81.49755)scale(0.1056 -0.1056)">
      <use xlink:href="#ArialMT-78"/>
      <use x="72.216797" xlink:href="#ArialMT-79"/>
      <use x="150" xlink:href="#ArialMT-82"/>
      <use x="222.216797" xlink:href="#ArialMT-77"/>
     </g>
    </g>
    <g id="line2d_69">
     <path d="M 312.768 92.739 
L 333.888 92.739 
" style="fill:none;stroke:#00d7ff;stroke-linecap:round;stroke-width:1.2;"/>
    </g>
    <g id="line2d_70">
     <g>
      <use style="fill-opacity:0;stroke:#00d7ff;stroke-linejoin:miter;" x="323.328" xlink:href="#m4088bbb7db" y="92.739"/>
     </g>
    </g>
    <g id="text_16">
     <!-- CONST -->
     <defs>
      <path d="M 58.796875 25.09375 
L 68.265625 22.703125 
Q 65.28125 11.03125 57.546875 4.90625 
Q 49.8125 -1.21875 38.625 -1.21875 
Q 27.046875 -1.21875 19.796875 3.484375 
Q 12.546875 8.203125 8.765625 17.140625 
Q 4.984375 26.078125 4.984375 36.328125 
Q 4.984375 47.515625 9.25 55.828125 
Q 13.53125 64.15625 21.40625 68.46875 
Q 29.296875 72.796875 38.765625 72.796875 
Q 49.515625 72.796875 56.828125 67.328125 
Q 64.15625 61.859375 67.046875 51.953125 
L 57.71875 49.75 
Q 55.21875 57.5625 50.484375 61.125 
Q 45.75 64.703125 38.578125 64.703125 
Q 30.328125 64.703125 24.78125 60.734375 
Q 19.234375 56.78125 16.984375 50.109375 
Q 14.75 43.453125 14.75 36.375 
Q 14.75 27.25 17.40625 20.4375 
Q 20.0625 13.625 25.671875 10.25 
Q 31.296875 6.890625 37.84375 6.890625 
Q 45.796875 6.890625 51.3125 11.46875 
Q 56.84375 16.0625 58.796875 25.09375 
z
" id="ArialMT-67"/>
      <path d="M 4.5 23 
L 13.421875 23.78125 
Q 14.0625 18.40625 16.375 14.96875 
Q 18.703125 11.53125 23.578125 9.40625 
Q 28.46875 7.28125 34.578125 7.28125 
Q 39.984375 7.28125 44.140625 8.890625 
Q 48.296875 10.5 50.3125 13.296875 
Q 52.34375 16.109375 52.34375 19.4375 
Q 52.34375 22.796875 50.390625 25.3125 
Q 48.4375 27.828125 43.953125 29.546875 
Q 41.0625 30.671875 31.203125 33.03125 
Q 21.34375 35.40625 17.390625 37.5 
Q 12.25 40.1875 9.734375 44.15625 
Q 7.234375 48.140625 7.234375 53.078125 
Q 7.234375 58.5 10.296875 63.203125 
Q 13.375 67.921875 19.28125 70.359375 
Q 25.203125 72.796875 32.421875 72.796875 
Q 40.375 72.796875 46.453125 70.234375 
Q 52.546875 67.671875 55.8125 62.6875 
Q 59.078125 57.71875 59.328125 51.421875 
L 50.25 50.734375 
Q 49.515625 57.515625 45.28125 60.984375 
Q 41.0625 64.453125 32.8125 64.453125 
Q 24.21875 64.453125 20.28125 61.296875 
Q 16.359375 58.15625 16.359375 53.71875 
Q 16.359375 49.859375 19.140625 47.359375 
Q 21.875 44.875 33.421875 42.265625 
Q 44.96875 39.65625 49.265625 37.703125 
Q 55.515625 34.8125 58.484375 30.390625 
Q 61.46875 25.984375 61.46875 20.21875 
Q 61.46875 14.5 58.203125 9.4375 
Q 54.9375 4.390625 48.796875 1.578125 
Q 42.671875 -1.21875 35.015625 -1.21875 
Q 25.296875 -1.21875 18.71875 1.609375 
Q 12.15625 4.4375 8.421875 10.125 
Q 4.6875 15.828125 4.5 23 
z
" id="ArialMT-83"/>
      <path d="M 25.921875 0 
L 25.921875 63.140625 
L 2.34375 63.140625 
L 2.34375 71.578125 
L 59.078125 71.578125 
L 59.078125 63.140625 
L 35.40625 63.140625 
L 35.40625 0 
z
" id="ArialMT-84"/>
     </defs>
     <g transform="translate(342.336 96.435)scale(0.1056 -0.1056)">
      <use xlink:href="#ArialMT-67"/>
      <use x="72.216797" xlink:href="#ArialMT-79"/>
      <use x="150" xlink:href="#ArialMT-78"/>
      <use x="222.216797" xlink:href="#ArialMT-83"/>
      <use x="288.916016" xlink:href="#ArialMT-84"/>
     </g>
    </g>
   </g>
  </g>
 </g>
 <defs>
  <clipPath id="pcf35e0dd6f">
   <rect height="221.76" width="334.8" x="54" y="34.56"/>
  </clipPath>
 </defs>
</svg>
