<?xml version="1.0" encoding="utf-8" standalone="no"?>
<!DOCTYPE svg PUBLIC "-//W3C//DTD SVG 1.1//EN"
  "http://www.w3.org/Graphics/SVG/1.1/DTD/svg11.dtd">
<!-- Created with matplotlib (https://matplotlib.org/) -->
<svg height="288pt" version="1.1" viewBox="0 0 432 288" width="432pt" xmlns="http://www.w3.org/2000/svg" xmlns:xlink="http://www.w3.org/1999/xlink">
 <defs>
  <style type="text/css">
*{stroke-linecap:butt;stroke-linejoin:round;}
  </style>
 </defs>
 <g id="figure_1">
  <g id="patch_1">
   <path d="M 0 288 
L 432 288 
L 432 0 
L 0 0 
z
" style="fill:#ffffff;"/>
  </g>
  <g id="axes_1">
   <g id="patch_2">
    <path d="M 54 256.32 
L 388.8 256.32 
L 388.8 34.56 
L 54 34.56 
z
" style="fill:#ffffff;"/>
   </g>
   <g id="matplotlib.axis_1">
    <g id="xtick_1">
     <g id="line2d_1">
      <defs>
       <path d="M 0 0 
L 0 -3 
" id="mb5c2303815" style="stroke:#000000;"/>
      </defs>
      <g>
       <use style="stroke:#000000;" x="69.218182" xlink:href="#mb5c2303815" y="256.32"/>
      </g>
     </g>
     <g id="line2d_2">
      <defs>
       <path d="M 0 0 
L 0 3 
" id="m287a52b4d4" style="stroke:#000000;"/>
      </defs>
      <g>
       <use style="stroke:#000000;" x="69.218182" xlink:href="#m287a52b4d4" y="34.56"/>
      </g>
     </g>
     <g id="text_1">
      <!-- 0 -->
      <defs>
       <path d="M 4.15625 35.296875 
Q 4.15625 48 6.765625 55.734375 
Q 9.375 63.484375 14.515625 67.671875 
Q 19.671875 71.875 27.484375 71.875 
Q 33.25 71.875 37.59375 69.546875 
Q 41.9375 67.234375 44.765625 62.859375 
Q 47.609375 58.5 49.21875 52.21875 
Q 50.828125 45.953125 50.828125 35.296875 
Q 50.828125 22.703125 48.234375 14.96875 
Q 45.65625 7.234375 40.5 3 
Q 35.359375 -1.21875 27.484375 -1.21875 
Q 17.140625 -1.21875 11.234375 6.203125 
Q 4.15625 15.140625 4.15625 35.296875 
z
M 13.1875 35.296875 
Q 13.1875 17.671875 17.3125 11.828125 
Q 21.4375 6 27.484375 6 
Q 33.546875 6 37.671875 11.859375 
Q 41.796875 17.71875 41.796875 35.296875 
Q 41.796875 52.984375 37.671875 58.78125 
Q 33.546875 64.59375 27.390625 64.59375 
Q 21.34375 64.59375 17.71875 59.46875 
Q 13.1875 52.9375 13.1875 35.296875 
z
" id="ArialMT-48"/>
      </defs>
      <g transform="translate(66.282007 267.37865)scale(0.1056 -0.1056)">
       <use xlink:href="#ArialMT-48"/>
      </g>
     </g>
    </g>
    <g id="xtick_2">
     <g id="line2d_3">
      <g>
       <use style="stroke:#000000;" x="109.8" xlink:href="#mb5c2303815" y="256.32"/>
      </g>
     </g>
     <g id="line2d_4">
      <g>
       <use style="stroke:#000000;" x="109.8" xlink:href="#m287a52b4d4" y="34.56"/>
      </g>
     </g>
     <g id="text_2">
      <!-- 200 -->
      <defs>
       <path d="M 50.34375 8.453125 
L 50.34375 0 
L 3.03125 0 
Q 2.9375 3.171875 4.046875 6.109375 
Q 5.859375 10.9375 9.828125 15.625 
Q 13.8125 20.3125 21.34375 26.46875 
Q 33.015625 36.03125 37.109375 41.625 
Q 41.21875 47.21875 41.21875 52.203125 
Q 41.21875 57.421875 37.46875 61 
Q 33.734375 64.59375 27.734375 64.59375 
Q 21.390625 64.59375 17.578125 60.78125 
Q 13.765625 56.984375 13.71875 50.25 
L 4.6875 51.171875 
Q 5.609375 61.28125 11.65625 66.578125 
Q 17.71875 71.875 27.9375 71.875 
Q 38.234375 71.875 44.234375 66.15625 
Q 50.25 60.453125 50.25 52 
Q 50.25 47.703125 48.484375 43.546875 
Q 46.734375 39.40625 42.65625 34.8125 
Q 38.578125 30.21875 29.109375 22.21875 
Q 21.1875 15.578125 18.9375 13.203125 
Q 16.703125 10.84375 15.234375 8.453125 
z
" id="ArialMT-50"/>
      </defs>
      <g transform="translate(100.991475 267.37865)scale(0.1056 -0.1056)">
       <use xlink:href="#ArialMT-50"/>
       <use x="55.615234" xlink:href="#ArialMT-48"/>
       <use x="111.230469" xlink:href="#ArialMT-48"/>
      </g>
     </g>
    </g>
    <g id="xtick_3">
     <g id="line2d_5">
      <g>
       <use style="stroke:#000000;" x="150.381818" xlink:href="#mb5c2303815" y="256.32"/>
      </g>
     </g>
     <g id="line2d_6">
      <g>
       <use style="stroke:#000000;" x="150.381818" xlink:href="#m287a52b4d4" y="34.56"/>
      </g>
     </g>
     <g id="text_3">
      <!-- 400 -->
      <defs>
       <path d="M 32.328125 0 
L 32.328125 17.140625 
L 1.265625 17.140625 
L 1.265625 25.203125 
L 33.9375 71.578125 
L 41.109375 71.578125 
L 41.109375 25.203125 
L 50.78125 25.203125 
L 50.78125 17.140625 
L 41.109375 17.140625 
L 41.109375 0 
z
M 32.328125 25.203125 
L 32.328125 57.46875 
L 9.90625 25.203125 
z
" id="ArialMT-52"/>
      </defs>
      <g transform="translate(141.573293 267.37865)scale(0.1056 -0.1056)">
       <use xlink:href="#ArialMT-52"/>
       <use x="55.615234" xlink:href="#ArialMT-48"/>
       <use x="111.230469" xlink:href="#ArialMT-48"/>
      </g>
     </g>
    </g>
    <g id="xtick_4">
     <g id="line2d_7">
      <g>
       <use style="stroke:#000000;" x="190.963636" xlink:href="#mb5c2303815" y="256.32"/>
      </g>
     </g>
     <g id="line2d_8">
      <g>
       <use style="stroke:#000000;" x="190.963636" xlink:href="#m287a52b4d4" y="34.56"/>
      </g>
     </g>
     <g id="text_4">
      <!-- 600 -->
      <defs>
       <path d="M 49.75 54.046875 
L 41.015625 53.375 
Q 39.84375 58.546875 37.703125 60.890625 
Q 34.125 64.65625 28.90625 64.65625 
Q 24.703125 64.65625 21.53125 62.3125 
Q 17.390625 59.28125 14.984375 53.46875 
Q 12.59375 47.65625 12.5 36.921875 
Q 15.671875 41.75 20.265625 44.09375 
Q 24.859375 46.4375 29.890625 46.4375 
Q 38.671875 46.4375 44.84375 39.96875 
Q 51.03125 33.5 51.03125 23.25 
Q 51.03125 16.5 48.125 10.71875 
Q 45.21875 4.9375 40.140625 1.859375 
Q 35.0625 -1.21875 28.609375 -1.21875 
Q 17.625 -1.21875 10.6875 6.859375 
Q 3.765625 14.9375 3.765625 33.5 
Q 3.765625 54.25 11.421875 63.671875 
Q 18.109375 71.875 29.4375 71.875 
Q 37.890625 71.875 43.28125 67.140625 
Q 48.6875 62.40625 49.75 54.046875 
z
M 13.875 23.1875 
Q 13.875 18.65625 15.796875 14.5 
Q 17.71875 10.359375 21.1875 8.171875 
Q 24.65625 6 28.46875 6 
Q 34.03125 6 38.03125 10.484375 
Q 42.046875 14.984375 42.046875 22.703125 
Q 42.046875 30.125 38.078125 34.390625 
Q 34.125 38.671875 28.125 38.671875 
Q 22.171875 38.671875 18.015625 34.390625 
Q 13.875 30.125 13.875 23.1875 
z
" id="ArialMT-54"/>
      </defs>
      <g transform="translate(182.155111 267.37865)scale(0.1056 -0.1056)">
       <use xlink:href="#ArialMT-54"/>
       <use x="55.615234" xlink:href="#ArialMT-48"/>
       <use x="111.230469" xlink:href="#ArialMT-48"/>
      </g>
     </g>
    </g>
    <g id="xtick_5">
     <g id="line2d_9">
      <g>
       <use style="stroke:#000000;" x="231.545455" xlink:href="#mb5c2303815" y="256.32"/>
      </g>
     </g>
     <g id="line2d_10">
      <g>
       <use style="stroke:#000000;" x="231.545455" xlink:href="#m287a52b4d4" y="34.56"/>
      </g>
     </g>
     <g id="text_5">
      <!-- 800 -->
      <defs>
       <path d="M 17.671875 38.8125 
Q 12.203125 40.828125 9.5625 44.53125 
Q 6.9375 48.25 6.9375 53.421875 
Q 6.9375 61.234375 12.546875 66.546875 
Q 18.171875 71.875 27.484375 71.875 
Q 36.859375 71.875 42.578125 66.421875 
Q 48.296875 60.984375 48.296875 53.171875 
Q 48.296875 48.1875 45.671875 44.5 
Q 43.0625 40.828125 37.75 38.8125 
Q 44.34375 36.671875 47.78125 31.875 
Q 51.21875 27.09375 51.21875 20.453125 
Q 51.21875 11.28125 44.71875 5.03125 
Q 38.234375 -1.21875 27.640625 -1.21875 
Q 17.046875 -1.21875 10.546875 5.046875 
Q 4.046875 11.328125 4.046875 20.703125 
Q 4.046875 27.6875 7.59375 32.390625 
Q 11.140625 37.109375 17.671875 38.8125 
z
M 15.921875 53.71875 
Q 15.921875 48.640625 19.1875 45.40625 
Q 22.46875 42.1875 27.6875 42.1875 
Q 32.765625 42.1875 36.015625 45.375 
Q 39.265625 48.578125 39.265625 53.21875 
Q 39.265625 58.0625 35.90625 61.359375 
Q 32.5625 64.65625 27.59375 64.65625 
Q 22.5625 64.65625 19.234375 61.421875 
Q 15.921875 58.203125 15.921875 53.71875 
z
M 13.09375 20.65625 
Q 13.09375 16.890625 14.875 13.375 
Q 16.65625 9.859375 20.171875 7.921875 
Q 23.6875 6 27.734375 6 
Q 34.03125 6 38.125 10.046875 
Q 42.234375 14.109375 42.234375 20.359375 
Q 42.234375 26.703125 38.015625 30.859375 
Q 33.796875 35.015625 27.4375 35.015625 
Q 21.234375 35.015625 17.15625 30.90625 
Q 13.09375 26.8125 13.09375 20.65625 
z
" id="ArialMT-56"/>
      </defs>
      <g transform="translate(222.73693 267.37865)scale(0.1056 -0.1056)">
       <use xlink:href="#ArialMT-56"/>
       <use x="55.615234" xlink:href="#ArialMT-48"/>
       <use x="111.230469" xlink:href="#ArialMT-48"/>
      </g>
     </g>
    </g>
    <g id="xtick_6">
     <g id="line2d_11">
      <g>
       <use style="stroke:#000000;" x="272.127273" xlink:href="#mb5c2303815" y="256.32"/>
      </g>
     </g>
     <g id="line2d_12">
      <g>
       <use style="stroke:#000000;" x="272.127273" xlink:href="#m287a52b4d4" y="34.56"/>
      </g>
     </g>
     <g id="text_6">
      <!-- 1000 -->
      <defs>
       <path d="M 37.25 0 
L 28.46875 0 
L 28.46875 56 
Q 25.296875 52.984375 20.140625 49.953125 
Q 14.984375 46.921875 10.890625 45.40625 
L 10.890625 53.90625 
Q 18.265625 57.375 23.78125 62.296875 
Q 29.296875 67.234375 31.59375 71.875 
L 37.25 71.875 
z
" id="ArialMT-49"/>
      </defs>
      <g transform="translate(260.382573 267.37865)scale(0.1056 -0.1056)">
       <use xlink:href="#ArialMT-49"/>
       <use x="55.615234" xlink:href="#ArialMT-48"/>
       <use x="111.230469" xlink:href="#ArialMT-48"/>
       <use x="166.845703" xlink:href="#ArialMT-48"/>
      </g>
     </g>
    </g>
    <g id="xtick_7">
     <g id="line2d_13">
      <g>
       <use style="stroke:#000000;" x="312.709091" xlink:href="#mb5c2303815" y="256.32"/>
      </g>
     </g>
     <g id="line2d_14">
      <g>
       <use style="stroke:#000000;" x="312.709091" xlink:href="#m287a52b4d4" y="34.56"/>
      </g>
     </g>
     <g id="text_7">
      <!-- 1200 -->
      <g transform="translate(300.964391 267.37865)scale(0.1056 -0.1056)">
       <use xlink:href="#ArialMT-49"/>
       <use x="55.615234" xlink:href="#ArialMT-50"/>
       <use x="111.230469" xlink:href="#ArialMT-48"/>
       <use x="166.845703" xlink:href="#ArialMT-48"/>
      </g>
     </g>
    </g>
    <g id="xtick_8">
     <g id="line2d_15">
      <g>
       <use style="stroke:#000000;" x="353.290909" xlink:href="#mb5c2303815" y="256.32"/>
      </g>
     </g>
     <g id="line2d_16">
      <g>
       <use style="stroke:#000000;" x="353.290909" xlink:href="#m287a52b4d4" y="34.56"/>
      </g>
     </g>
     <g id="text_8">
      <!-- 1400 -->
      <g transform="translate(341.546209 267.37865)scale(0.1056 -0.1056)">
       <use xlink:href="#ArialMT-49"/>
       <use x="55.615234" xlink:href="#ArialMT-52"/>
       <use x="111.230469" xlink:href="#ArialMT-48"/>
       <use x="166.845703" xlink:href="#ArialMT-48"/>
      </g>
     </g>
    </g>
    <g id="text_9">
     <!-- Generations -->
     <defs>
      <path d="M 41.21875 28.078125 
L 41.21875 36.46875 
L 71.53125 36.53125 
L 71.53125 9.96875 
Q 64.546875 4.390625 57.125 1.578125 
Q 49.703125 -1.21875 41.890625 -1.21875 
Q 31.34375 -1.21875 22.71875 3.296875 
Q 14.109375 7.8125 9.71875 16.359375 
Q 5.328125 24.90625 5.328125 35.453125 
Q 5.328125 45.90625 9.6875 54.953125 
Q 14.0625 64.015625 22.265625 68.40625 
Q 30.46875 72.796875 41.15625 72.796875 
Q 48.921875 72.796875 55.1875 70.28125 
Q 61.46875 67.78125 65.03125 63.28125 
Q 68.609375 58.796875 70.453125 51.5625 
L 61.921875 49.21875 
Q 60.296875 54.6875 57.90625 57.8125 
Q 55.515625 60.9375 51.0625 62.8125 
Q 46.625 64.703125 41.21875 64.703125 
Q 34.71875 64.703125 29.984375 62.71875 
Q 25.25 60.75 22.34375 57.515625 
Q 19.4375 54.296875 17.828125 50.4375 
Q 15.09375 43.796875 15.09375 36.03125 
Q 15.09375 26.46875 18.390625 20.015625 
Q 21.6875 13.578125 27.984375 10.453125 
Q 34.28125 7.328125 41.359375 7.328125 
Q 47.515625 7.328125 53.375 9.6875 
Q 59.234375 12.0625 62.25 14.75 
L 62.25 28.078125 
z
" id="ArialMT-71"/>
      <path d="M 42.09375 16.703125 
L 51.171875 15.578125 
Q 49.03125 7.625 43.21875 3.21875 
Q 37.40625 -1.171875 28.375 -1.171875 
Q 17 -1.171875 10.328125 5.828125 
Q 3.65625 12.84375 3.65625 25.484375 
Q 3.65625 38.578125 10.390625 45.796875 
Q 17.140625 53.03125 27.875 53.03125 
Q 38.28125 53.03125 44.875 45.953125 
Q 51.46875 38.875 51.46875 26.03125 
Q 51.46875 25.25 51.421875 23.6875 
L 12.75 23.6875 
Q 13.234375 15.140625 17.578125 10.59375 
Q 21.921875 6.0625 28.421875 6.0625 
Q 33.25 6.0625 36.671875 8.59375 
Q 40.09375 11.140625 42.09375 16.703125 
z
M 13.234375 30.90625 
L 42.1875 30.90625 
Q 41.609375 37.453125 38.875 40.71875 
Q 34.671875 45.796875 27.984375 45.796875 
Q 21.921875 45.796875 17.796875 41.75 
Q 13.671875 37.703125 13.234375 30.90625 
z
" id="ArialMT-101"/>
      <path d="M 6.59375 0 
L 6.59375 51.859375 
L 14.5 51.859375 
L 14.5 44.484375 
Q 20.21875 53.03125 31 53.03125 
Q 35.6875 53.03125 39.625 51.34375 
Q 43.5625 49.65625 45.515625 46.921875 
Q 47.46875 44.1875 48.25 40.4375 
Q 48.734375 37.984375 48.734375 31.890625 
L 48.734375 0 
L 39.9375 0 
L 39.9375 31.546875 
Q 39.9375 36.921875 38.90625 39.578125 
Q 37.890625 42.234375 35.28125 43.8125 
Q 32.671875 45.40625 29.15625 45.40625 
Q 23.53125 45.40625 19.453125 41.84375 
Q 15.375 38.28125 15.375 28.328125 
L 15.375 0 
z
" id="ArialMT-110"/>
      <path d="M 6.5 0 
L 6.5 51.859375 
L 14.40625 51.859375 
L 14.40625 44 
Q 17.4375 49.515625 20 51.265625 
Q 22.5625 53.03125 25.640625 53.03125 
Q 30.078125 53.03125 34.671875 50.203125 
L 31.640625 42.046875 
Q 28.421875 43.953125 25.203125 43.953125 
Q 22.3125 43.953125 20.015625 42.21875 
Q 17.71875 40.484375 16.75 37.40625 
Q 15.28125 32.71875 15.28125 27.15625 
L 15.28125 0 
z
" id="ArialMT-114"/>
      <path d="M 40.4375 6.390625 
Q 35.546875 2.25 31.03125 0.53125 
Q 26.515625 -1.171875 21.34375 -1.171875 
Q 12.796875 -1.171875 8.203125 3 
Q 3.609375 7.171875 3.609375 13.671875 
Q 3.609375 17.484375 5.34375 20.625 
Q 7.078125 23.78125 9.890625 25.6875 
Q 12.703125 27.59375 16.21875 28.5625 
Q 18.796875 29.25 24.03125 29.890625 
Q 34.671875 31.15625 39.703125 32.90625 
Q 39.75 34.71875 39.75 35.203125 
Q 39.75 40.578125 37.25 42.78125 
Q 33.890625 45.75 27.25 45.75 
Q 21.046875 45.75 18.09375 43.578125 
Q 15.140625 41.40625 13.71875 35.890625 
L 5.125 37.0625 
Q 6.296875 42.578125 8.984375 45.96875 
Q 11.671875 49.359375 16.75 51.1875 
Q 21.828125 53.03125 28.515625 53.03125 
Q 35.15625 53.03125 39.296875 51.46875 
Q 43.453125 49.90625 45.40625 47.53125 
Q 47.359375 45.171875 48.140625 41.546875 
Q 48.578125 39.3125 48.578125 33.453125 
L 48.578125 21.734375 
Q 48.578125 9.46875 49.140625 6.21875 
Q 49.703125 2.984375 51.375 0 
L 42.1875 0 
Q 40.828125 2.734375 40.4375 6.390625 
z
M 39.703125 26.03125 
Q 34.90625 24.078125 25.34375 22.703125 
Q 19.921875 21.921875 17.671875 20.9375 
Q 15.4375 19.96875 14.203125 18.09375 
Q 12.984375 16.21875 12.984375 13.921875 
Q 12.984375 10.40625 15.640625 8.0625 
Q 18.3125 5.71875 23.4375 5.71875 
Q 28.515625 5.71875 32.46875 7.9375 
Q 36.421875 10.15625 38.28125 14.015625 
Q 39.703125 17 39.703125 22.796875 
z
" id="ArialMT-97"/>
      <path d="M 25.78125 7.859375 
L 27.046875 0.09375 
Q 23.34375 -0.6875 20.40625 -0.6875 
Q 15.625 -0.6875 12.984375 0.828125 
Q 10.359375 2.34375 9.28125 4.8125 
Q 8.203125 7.28125 8.203125 15.1875 
L 8.203125 45.015625 
L 1.765625 45.015625 
L 1.765625 51.859375 
L 8.203125 51.859375 
L 8.203125 64.703125 
L 16.9375 69.96875 
L 16.9375 51.859375 
L 25.78125 51.859375 
L 25.78125 45.015625 
L 16.9375 45.015625 
L 16.9375 14.703125 
Q 16.9375 10.9375 17.40625 9.859375 
Q 17.875 8.796875 18.921875 8.15625 
Q 19.96875 7.515625 21.921875 7.515625 
Q 23.390625 7.515625 25.78125 7.859375 
z
" id="ArialMT-116"/>
      <path d="M 6.640625 61.46875 
L 6.640625 71.578125 
L 15.4375 71.578125 
L 15.4375 61.46875 
z
M 6.640625 0 
L 6.640625 51.859375 
L 15.4375 51.859375 
L 15.4375 0 
z
" id="ArialMT-105"/>
      <path d="M 3.328125 25.921875 
Q 3.328125 40.328125 11.328125 47.265625 
Q 18.015625 53.03125 27.640625 53.03125 
Q 38.328125 53.03125 45.109375 46.015625 
Q 51.90625 39.015625 51.90625 26.65625 
Q 51.90625 16.65625 48.90625 10.90625 
Q 45.90625 5.171875 40.15625 2 
Q 34.421875 -1.171875 27.640625 -1.171875 
Q 16.75 -1.171875 10.03125 5.8125 
Q 3.328125 12.796875 3.328125 25.921875 
z
M 12.359375 25.921875 
Q 12.359375 15.96875 16.703125 11.015625 
Q 21.046875 6.0625 27.640625 6.0625 
Q 34.1875 6.0625 38.53125 11.03125 
Q 42.875 16.015625 42.875 26.21875 
Q 42.875 35.84375 38.5 40.796875 
Q 34.125 45.75 27.640625 45.75 
Q 21.046875 45.75 16.703125 40.8125 
Q 12.359375 35.890625 12.359375 25.921875 
z
" id="ArialMT-111"/>
      <path d="M 3.078125 15.484375 
L 11.765625 16.84375 
Q 12.5 11.625 15.84375 8.84375 
Q 19.1875 6.0625 25.203125 6.0625 
Q 31.25 6.0625 34.171875 8.515625 
Q 37.109375 10.984375 37.109375 14.3125 
Q 37.109375 17.28125 34.515625 19 
Q 32.71875 20.171875 25.53125 21.96875 
Q 15.875 24.421875 12.140625 26.203125 
Q 8.40625 27.984375 6.46875 31.125 
Q 4.546875 34.28125 4.546875 38.09375 
Q 4.546875 41.546875 6.125 44.5 
Q 7.71875 47.46875 10.453125 49.421875 
Q 12.5 50.921875 16.03125 51.96875 
Q 19.578125 53.03125 23.640625 53.03125 
Q 29.734375 53.03125 34.34375 51.265625 
Q 38.96875 49.515625 41.15625 46.5 
Q 43.359375 43.5 44.1875 38.484375 
L 35.59375 37.3125 
Q 35.015625 41.3125 32.203125 43.546875 
Q 29.390625 45.796875 24.265625 45.796875 
Q 18.21875 45.796875 15.625 43.796875 
Q 13.03125 41.796875 13.03125 39.109375 
Q 13.03125 37.40625 14.109375 36.03125 
Q 15.1875 34.625 17.484375 33.6875 
Q 18.796875 33.203125 25.25 31.453125 
Q 34.578125 28.953125 38.25 27.359375 
Q 41.9375 25.78125 44.03125 22.75 
Q 46.140625 19.734375 46.140625 15.234375 
Q 46.140625 10.84375 43.578125 6.953125 
Q 41.015625 3.078125 36.171875 0.953125 
Q 31.34375 -1.171875 25.25 -1.171875 
Q 15.140625 -1.171875 9.84375 3.03125 
Q 4.546875 7.234375 3.078125 15.484375 
z
" id="ArialMT-115"/>
     </defs>
     <g transform="translate(190.0233 281.72325)scale(0.1152 -0.1152)">
      <use xlink:href="#ArialMT-71"/>
      <use x="77.783203" xlink:href="#ArialMT-101"/>
      <use x="133.398438" xlink:href="#ArialMT-110"/>
      <use x="189.013672" xlink:href="#ArialMT-101"/>
      <use x="244.628906" xlink:href="#ArialMT-114"/>
      <use x="277.929688" xlink:href="#ArialMT-97"/>
      <use x="333.544922" xlink:href="#ArialMT-116"/>
      <use x="361.328125" xlink:href="#ArialMT-105"/>
      <use x="383.544922" xlink:href="#ArialMT-111"/>
      <use x="439.160156" xlink:href="#ArialMT-110"/>
      <use x="494.775391" xlink:href="#ArialMT-115"/>
     </g>
    </g>
   </g>
   <g id="matplotlib.axis_2">
    <g id="ytick_1">
     <g id="line2d_17">
      <defs>
       <path d="M 0 0 
L 3 0 
" id="m92f17da216" style="stroke:#000000;"/>
      </defs>
      <g>
       <use style="stroke:#000000;" x="54" xlink:href="#m92f17da216" y="199.890389"/>
      </g>
     </g>
     <g id="line2d_18">
      <defs>
       <path d="M 0 0 
L -3 0 
" id="maf36b5be33" style="stroke:#000000;"/>
      </defs>
      <g>
       <use style="stroke:#000000;" x="388.8" xlink:href="#maf36b5be33" y="199.890389"/>
      </g>
     </g>
     <g id="text_10">
      <!-- $\mathdefault{10^{-4}}$ -->
      <defs>
       <path d="M 52.828125 31.203125 
L 5.5625 31.203125 
L 5.5625 39.40625 
L 52.828125 39.40625 
z
" id="ArialMT-8722"/>
      </defs>
      <g transform="translate(29.5912 205.282589)scale(0.1056 -0.1056)">
       <use transform="translate(0 0.201563)" xlink:href="#ArialMT-49"/>
       <use transform="translate(55.615234 0.201563)" xlink:href="#ArialMT-48"/>
       <use transform="translate(112.972813 69.895313)scale(0.7)" xlink:href="#ArialMT-8722"/>
       <use transform="translate(153.851719 69.895313)scale(0.7)" xlink:href="#ArialMT-52"/>
      </g>
     </g>
    </g>
    <g id="ytick_2">
     <g id="line2d_19">
      <g>
       <use style="stroke:#000000;" x="54" xlink:href="#m92f17da216" y="104.250605"/>
      </g>
     </g>
     <g id="line2d_20">
      <g>
       <use style="stroke:#000000;" x="388.8" xlink:href="#maf36b5be33" y="104.250605"/>
      </g>
     </g>
     <g id="text_11">
      <!-- $\mathdefault{10^{-3}}$ -->
      <defs>
       <path d="M 4.203125 18.890625 
L 12.984375 20.0625 
Q 14.5 12.59375 18.140625 9.296875 
Q 21.78125 6 27 6 
Q 33.203125 6 37.46875 10.296875 
Q 41.75 14.59375 41.75 20.953125 
Q 41.75 27 37.796875 30.921875 
Q 33.84375 34.859375 27.734375 34.859375 
Q 25.25 34.859375 21.53125 33.890625 
L 22.515625 41.609375 
Q 23.390625 41.5 23.921875 41.5 
Q 29.546875 41.5 34.03125 44.421875 
Q 38.53125 47.359375 38.53125 53.46875 
Q 38.53125 58.296875 35.25 61.46875 
Q 31.984375 64.65625 26.8125 64.65625 
Q 21.6875 64.65625 18.265625 61.421875 
Q 14.84375 58.203125 13.875 51.765625 
L 5.078125 53.328125 
Q 6.6875 62.15625 12.390625 67.015625 
Q 18.109375 71.875 26.609375 71.875 
Q 32.46875 71.875 37.390625 69.359375 
Q 42.328125 66.84375 44.9375 62.5 
Q 47.5625 58.15625 47.5625 53.265625 
Q 47.5625 48.640625 45.0625 44.828125 
Q 42.578125 41.015625 37.703125 38.765625 
Q 44.046875 37.3125 47.5625 32.6875 
Q 51.078125 28.078125 51.078125 21.140625 
Q 51.078125 11.765625 44.234375 5.25 
Q 37.40625 -1.265625 26.953125 -1.265625 
Q 17.53125 -1.265625 11.296875 4.34375 
Q 5.078125 9.96875 4.203125 18.890625 
z
" id="ArialMT-51"/>
      </defs>
      <g transform="translate(29.5912 109.695605)scale(0.1056 -0.1056)">
       <use transform="translate(0 0.99375)" xlink:href="#ArialMT-49"/>
       <use transform="translate(55.615234 0.99375)" xlink:href="#ArialMT-48"/>
       <use transform="translate(112.972813 70.6875)scale(0.7)" xlink:href="#ArialMT-8722"/>
       <use transform="translate(153.851719 70.6875)scale(0.7)" xlink:href="#ArialMT-51"/>
      </g>
     </g>
    </g>
    <g id="ytick_3">
     <g id="line2d_21">
      <defs>
       <path d="M 0 0 
L 3.2 0 
" id="m11b476a663" style="stroke:#000000;stroke-width:0.8;"/>
      </defs>
      <g>
       <use style="stroke:#000000;stroke-width:0.8;" x="54" xlink:href="#m11b476a663" y="249.898399"/>
      </g>
     </g>
     <g id="line2d_22">
      <defs>
       <path d="M 0 0 
L -3.2 0 
" id="m21db2e7ad4" style="stroke:#000000;stroke-width:0.8;"/>
      </defs>
      <g>
       <use style="stroke:#000000;stroke-width:0.8;" x="388.8" xlink:href="#m21db2e7ad4" y="249.898399"/>
      </g>
     </g>
    </g>
    <g id="ytick_4">
     <g id="line2d_23">
      <g>
       <use style="stroke:#000000;stroke-width:0.8;" x="54" xlink:href="#m11b476a663" y="237.949285"/>
      </g>
     </g>
     <g id="line2d_24">
      <g>
       <use style="stroke:#000000;stroke-width:0.8;" x="388.8" xlink:href="#m21db2e7ad4" y="237.949285"/>
      </g>
     </g>
    </g>
    <g id="ytick_5">
     <g id="line2d_25">
      <g>
       <use style="stroke:#000000;stroke-width:0.8;" x="54" xlink:href="#m11b476a663" y="228.680833"/>
      </g>
     </g>
     <g id="line2d_26">
      <g>
       <use style="stroke:#000000;stroke-width:0.8;" x="388.8" xlink:href="#m21db2e7ad4" y="228.680833"/>
      </g>
     </g>
    </g>
    <g id="ytick_6">
     <g id="line2d_27">
      <g>
       <use style="stroke:#000000;stroke-width:0.8;" x="54" xlink:href="#m11b476a663" y="221.107955"/>
      </g>
     </g>
     <g id="line2d_28">
      <g>
       <use style="stroke:#000000;stroke-width:0.8;" x="388.8" xlink:href="#m21db2e7ad4" y="221.107955"/>
      </g>
     </g>
    </g>
    <g id="ytick_7">
     <g id="line2d_29">
      <g>
       <use style="stroke:#000000;stroke-width:0.8;" x="54" xlink:href="#m11b476a663" y="214.705179"/>
      </g>
     </g>
     <g id="line2d_30">
      <g>
       <use style="stroke:#000000;stroke-width:0.8;" x="388.8" xlink:href="#m21db2e7ad4" y="214.705179"/>
      </g>
     </g>
    </g>
    <g id="ytick_8">
     <g id="line2d_31">
      <g>
       <use style="stroke:#000000;stroke-width:0.8;" x="54" xlink:href="#m11b476a663" y="209.158842"/>
      </g>
     </g>
     <g id="line2d_32">
      <g>
       <use style="stroke:#000000;stroke-width:0.8;" x="388.8" xlink:href="#m21db2e7ad4" y="209.158842"/>
      </g>
     </g>
    </g>
    <g id="ytick_9">
     <g id="line2d_33">
      <g>
       <use style="stroke:#000000;stroke-width:0.8;" x="54" xlink:href="#m11b476a663" y="204.266625"/>
      </g>
     </g>
     <g id="line2d_34">
      <g>
       <use style="stroke:#000000;stroke-width:0.8;" x="388.8" xlink:href="#m21db2e7ad4" y="204.266625"/>
      </g>
     </g>
    </g>
    <g id="ytick_10">
     <g id="line2d_35">
      <g>
       <use style="stroke:#000000;stroke-width:0.8;" x="54" xlink:href="#m11b476a663" y="171.099945"/>
      </g>
     </g>
     <g id="line2d_36">
      <g>
       <use style="stroke:#000000;stroke-width:0.8;" x="388.8" xlink:href="#m21db2e7ad4" y="171.099945"/>
      </g>
     </g>
    </g>
    <g id="ytick_11">
     <g id="line2d_37">
      <g>
       <use style="stroke:#000000;stroke-width:0.8;" x="54" xlink:href="#m11b476a663" y="154.258615"/>
      </g>
     </g>
     <g id="line2d_38">
      <g>
       <use style="stroke:#000000;stroke-width:0.8;" x="388.8" xlink:href="#m21db2e7ad4" y="154.258615"/>
      </g>
     </g>
    </g>
    <g id="ytick_12">
     <g id="line2d_39">
      <g>
       <use style="stroke:#000000;stroke-width:0.8;" x="54" xlink:href="#m11b476a663" y="142.309501"/>
      </g>
     </g>
     <g id="line2d_40">
      <g>
       <use style="stroke:#000000;stroke-width:0.8;" x="388.8" xlink:href="#m21db2e7ad4" y="142.309501"/>
      </g>
     </g>
    </g>
    <g id="ytick_13">
     <g id="line2d_41">
      <g>
       <use style="stroke:#000000;stroke-width:0.8;" x="54" xlink:href="#m11b476a663" y="133.041048"/>
      </g>
     </g>
     <g id="line2d_42">
      <g>
       <use style="stroke:#000000;stroke-width:0.8;" x="388.8" xlink:href="#m21db2e7ad4" y="133.041048"/>
      </g>
     </g>
    </g>
    <g id="ytick_14">
     <g id="line2d_43">
      <g>
       <use style="stroke:#000000;stroke-width:0.8;" x="54" xlink:href="#m11b476a663" y="125.468171"/>
      </g>
     </g>
     <g id="line2d_44">
      <g>
       <use style="stroke:#000000;stroke-width:0.8;" x="388.8" xlink:href="#m21db2e7ad4" y="125.468171"/>
      </g>
     </g>
    </g>
    <g id="ytick_15">
     <g id="line2d_45">
      <g>
       <use style="stroke:#000000;stroke-width:0.8;" x="54" xlink:href="#m11b476a663" y="119.065395"/>
      </g>
     </g>
     <g id="line2d_46">
      <g>
       <use style="stroke:#000000;stroke-width:0.8;" x="388.8" xlink:href="#m21db2e7ad4" y="119.065395"/>
      </g>
     </g>
    </g>
    <g id="ytick_16">
     <g id="line2d_47">
      <g>
       <use style="stroke:#000000;stroke-width:0.8;" x="54" xlink:href="#m11b476a663" y="113.519057"/>
      </g>
     </g>
     <g id="line2d_48">
      <g>
       <use style="stroke:#000000;stroke-width:0.8;" x="388.8" xlink:href="#m21db2e7ad4" y="113.519057"/>
      </g>
     </g>
    </g>
    <g id="ytick_17">
     <g id="line2d_49">
      <g>
       <use style="stroke:#000000;stroke-width:0.8;" x="54" xlink:href="#m11b476a663" y="108.626841"/>
      </g>
     </g>
     <g id="line2d_50">
      <g>
       <use style="stroke:#000000;stroke-width:0.8;" x="388.8" xlink:href="#m21db2e7ad4" y="108.626841"/>
      </g>
     </g>
    </g>
    <g id="ytick_18">
     <g id="line2d_51">
      <g>
       <use style="stroke:#000000;stroke-width:0.8;" x="54" xlink:href="#m11b476a663" y="75.460161"/>
      </g>
     </g>
     <g id="line2d_52">
      <g>
       <use style="stroke:#000000;stroke-width:0.8;" x="388.8" xlink:href="#m21db2e7ad4" y="75.460161"/>
      </g>
     </g>
    </g>
    <g id="ytick_19">
     <g id="line2d_53">
      <g>
       <use style="stroke:#000000;stroke-width:0.8;" x="54" xlink:href="#m11b476a663" y="58.618831"/>
      </g>
     </g>
     <g id="line2d_54">
      <g>
       <use style="stroke:#000000;stroke-width:0.8;" x="388.8" xlink:href="#m21db2e7ad4" y="58.618831"/>
      </g>
     </g>
    </g>
    <g id="ytick_20">
     <g id="line2d_55">
      <g>
       <use style="stroke:#000000;stroke-width:0.8;" x="54" xlink:href="#m11b476a663" y="46.669717"/>
      </g>
     </g>
     <g id="line2d_56">
      <g>
       <use style="stroke:#000000;stroke-width:0.8;" x="388.8" xlink:href="#m21db2e7ad4" y="46.669717"/>
      </g>
     </g>
    </g>
    <g id="ytick_21">
     <g id="line2d_57">
      <g>
       <use style="stroke:#000000;stroke-width:0.8;" x="54" xlink:href="#m11b476a663" y="37.401264"/>
      </g>
     </g>
     <g id="line2d_58">
      <g>
       <use style="stroke:#000000;stroke-width:0.8;" x="388.8" xlink:href="#m21db2e7ad4" y="37.401264"/>
      </g>
     </g>
    </g>
    <g id="text_12">
     <!-- IGD -->
     <defs>
      <path d="M 9.328125 0 
L 9.328125 71.578125 
L 18.796875 71.578125 
L 18.796875 0 
z
" id="ArialMT-73"/>
      <path d="M 7.71875 0 
L 7.71875 71.578125 
L 32.375 71.578125 
Q 40.71875 71.578125 45.125 70.5625 
Q 51.265625 69.140625 55.609375 65.4375 
Q 61.28125 60.640625 64.078125 53.1875 
Q 66.890625 45.75 66.890625 36.1875 
Q 66.890625 28.03125 64.984375 21.734375 
Q 63.09375 15.4375 60.109375 11.296875 
Q 57.125 7.171875 53.578125 4.796875 
Q 50.046875 2.4375 45.046875 1.21875 
Q 40.046875 0 33.546875 0 
z
M 17.1875 8.453125 
L 32.46875 8.453125 
Q 39.546875 8.453125 43.578125 9.765625 
Q 47.609375 11.078125 50 13.484375 
Q 53.375 16.84375 55.25 22.53125 
Q 57.125 28.21875 57.125 36.328125 
Q 57.125 47.5625 53.4375 53.59375 
Q 49.75 59.625 44.484375 61.671875 
Q 40.671875 63.140625 32.234375 63.140625 
L 17.1875 63.140625 
z
" id="ArialMT-68"/>
     </defs>
     <g transform="translate(23.3016 155.6802)rotate(-90)scale(0.1152 -0.1152)">
      <use xlink:href="#ArialMT-73"/>
      <use x="27.783203" xlink:href="#ArialMT-71"/>
      <use x="105.566406" xlink:href="#ArialMT-68"/>
     </g>
    </g>
   </g>
   <g id="line2d_59">
    <path clip-path="url(#peb3357dcb5)" d="M 69.218182 46.045711 
L 69.421091 92.08494 
L 69.826909 116.539488 
L 70.029818 125.454543 
L 70.232727 126.16504 
L 70.435636 142.580588 
L 70.638545 144.784035 
L 70.841455 150.916899 
L 71.044364 151.073704 
L 71.247273 158.676275 
L 71.653091 162.329969 
L 71.856 163.406898 
L 72.058909 157.669961 
L 72.261818 160.232718 
L 73.073455 177.705767 
L 73.682182 188.644723 
L 73.885091 189.092009 
L 74.088 189.85926 
L 74.290909 188.491937 
L 74.493818 191.525967 
L 74.696727 188.328632 
L 74.899636 190.251558 
L 75.305455 183.311445 
L 75.711273 190.225025 
L 76.117091 170.940655 
L 76.522909 176.889879 
L 76.725818 179.210909 
L 76.928727 179.14606 
L 77.131636 180.616063 
L 77.334545 180.963375 
L 77.740364 182.317716 
L 77.943273 184.930477 
L 78.146182 183.977397 
L 78.349091 185.288431 
L 78.754909 185.894938 
L 78.957818 184.626836 
L 79.160727 187.560081 
L 79.363636 187.669985 
L 79.566545 187.517065 
L 79.769455 187.170667 
L 79.972364 187.049569 
L 80.175273 187.476808 
L 80.378182 166.808832 
L 80.581091 175.630038 
L 80.784 175.768885 
L 80.986909 182.032866 
L 81.189818 182.366594 
L 81.392727 183.08856 
L 81.595636 184.668098 
L 81.798545 180.881656 
L 82.001455 180.904141 
L 82.407273 183.274366 
L 82.610182 183.360025 
L 82.813091 179.258398 
L 83.016 188.036776 
L 83.218909 187.299007 
L 83.421818 191.650326 
L 83.624727 190.828918 
L 83.827636 190.82094 
L 84.436364 164.762051 
L 84.842182 167.650289 
L 85.653818 169.15827 
L 85.856727 169.126337 
L 86.465455 169.653234 
L 86.668364 170.649684 
L 86.871273 170.871429 
L 87.074182 170.864015 
L 87.48 171.154641 
L 87.682909 174.841301 
L 87.885818 174.663166 
L 88.088727 174.636698 
L 88.291636 174.885454 
L 88.494545 174.884231 
L 88.697455 174.631793 
L 88.900364 172.966439 
L 89.103273 172.841741 
L 89.306182 173.117522 
L 89.509091 174.465214 
L 89.712 174.449363 
L 89.914909 174.56005 
L 90.320727 174.551883 
L 90.523636 176.565098 
L 90.929455 176.691543 
L 91.132364 182.056532 
L 91.335273 180.377828 
L 91.538182 180.406664 
L 92.146909 180.959826 
L 92.349818 190.929546 
L 92.552727 189.026051 
L 92.755636 189.293542 
L 93.161455 191.038315 
L 93.567273 191.165952 
L 93.770182 191.962262 
L 94.176 192.361222 
L 94.378909 192.960925 
L 94.581818 192.771015 
L 94.784727 192.739273 
L 94.987636 193.205038 
L 95.190545 193.305313 
L 95.393455 193.179009 
L 95.799273 193.436123 
L 96.002182 195.386822 
L 96.205091 195.321603 
L 96.408 194.537755 
L 96.813818 194.391703 
L 97.016727 194.715812 
L 97.219636 194.814827 
L 97.422545 194.744128 
L 97.625455 195.168908 
L 98.031273 195.241357 
L 98.234182 195.473649 
L 98.437091 195.375608 
L 98.64 195.499107 
L 98.842909 195.974081 
L 99.045818 195.963419 
L 99.248727 195.678815 
L 99.451636 195.735355 
L 100.060364 196.904138 
L 100.263273 196.7198 
L 100.466182 196.383854 
L 100.669091 196.65203 
L 101.277818 196.667076 
L 101.683636 196.924113 
L 101.886545 195.944605 
L 102.292364 179.370217 
L 102.495273 183.513444 
L 102.698182 183.721004 
L 103.306909 185.980891 
L 103.509818 186.704132 
L 103.915636 187.005648 
L 104.118545 187.307792 
L 104.321455 189.635673 
L 104.524364 189.536273 
L 104.727273 190.027449 
L 105.944727 190.348027 
L 106.147636 190.337373 
L 106.350545 195.650173 
L 106.553455 194.707608 
L 106.756364 194.668272 
L 106.959273 195.056282 
L 107.365091 195.21011 
L 107.568 196.17668 
L 107.973818 196.189115 
L 108.176727 196.221439 
L 108.379636 195.657081 
L 108.988364 195.684901 
L 109.191273 195.405392 
L 109.597091 195.837921 
L 109.8 195.874603 
L 110.002909 197.347494 
L 110.205818 197.316433 
L 110.611636 197.66641 
L 111.017455 197.606656 
L 111.220364 197.325323 
L 112.437818 197.331954 
L 112.640727 198.544178 
L 112.843636 201.077891 
L 113.046545 200.816958 
L 113.249455 200.743419 
L 113.655273 201.06561 
L 113.858182 200.650186 
L 114.061091 200.689262 
L 114.466909 201.005278 
L 114.669818 201.40893 
L 115.278545 201.481028 
L 115.481455 200.265914 
L 115.684364 203.213305 
L 116.090182 202.754488 
L 116.901818 202.855122 
L 117.104727 203.139001 
L 117.307636 203.849407 
L 117.510545 203.832166 
L 117.916364 204.056803 
L 118.322182 204.184419 
L 118.930909 204.413093 
L 120.554182 204.531513 
L 120.757091 205.108543 
L 120.96 216.23 
L 121.162909 211.503243 
L 121.365818 211.008451 
L 121.771636 212.936357 
L 121.974545 212.909652 
L 122.380364 213.367518 
L 122.786182 215.050906 
L 122.989091 214.20883 
L 123.394909 214.275056 
L 123.597818 214.038918 
L 123.800727 214.660041 
L 124.003636 214.688458 
L 124.206545 214.950695 
L 124.409455 191.197957 
L 124.815273 176.415075 
L 125.221091 183.071757 
L 125.829818 189.026078 
L 126.032727 189.21013 
L 126.235636 188.977084 
L 126.438545 189.800411 
L 126.641455 189.70736 
L 127.453091 190.650914 
L 127.656 190.695302 
L 127.858909 191.102667 
L 128.061818 190.949523 
L 128.264727 191.061687 
L 128.467636 191.617088 
L 128.670545 191.749869 
L 128.873455 191.462828 
L 129.279273 191.468286 
L 129.482182 206.352222 
L 129.685091 199.7118 
L 129.888 200.151221 
L 130.496727 204.590848 
L 130.699636 205.460319 
L 130.902545 205.597921 
L 131.105455 208.640262 
L 131.714182 209.630379 
L 131.917091 209.604866 
L 132.12 208.944829 
L 132.525818 209.233848 
L 132.931636 209.298564 
L 133.337455 209.253307 
L 133.743273 209.395444 
L 134.352 209.729659 
L 134.554909 210.312075 
L 134.960727 197.355387 
L 135.163636 197.424996 
L 135.366545 197.802942 
L 135.772364 199.392274 
L 135.975273 200.547266 
L 136.381091 200.890111 
L 136.989818 201.739569 
L 137.192727 203.171445 
L 137.395636 203.235376 
L 138.004364 204.332629 
L 138.816 204.757932 
L 139.018909 204.699915 
L 139.221818 204.819491 
L 139.424727 218.292547 
L 139.830545 211.978932 
L 140.236364 216.249075 
L 140.439273 216.577055 
L 140.845091 218.513056 
L 141.048 219.057195 
L 141.250909 218.877203 
L 141.453818 223.549423 
L 141.656727 223.106566 
L 141.859636 222.034624 
L 142.468364 221.606538 
L 142.671273 221.921038 
L 142.874182 221.814667 
L 143.077091 221.964044 
L 143.28 223.192287 
L 143.482909 222.810152 
L 143.685818 228.577297 
L 143.888727 224.57934 
L 144.091636 223.711984 
L 144.497455 227.277961 
L 145.309091 232.022883 
L 145.714909 232.479088 
L 145.917818 232.885349 
L 146.526545 233.097701 
L 146.729455 233.39525 
L 147.135273 233.349363 
L 147.541091 233.38485 
L 147.744 233.349265 
L 147.946909 233.748399 
L 148.149818 232.407851 
L 148.352727 232.167291 
L 148.555636 232.263898 
L 148.758545 232.681047 
L 149.570182 232.998506 
L 149.976 233.120618 
L 150.178909 233.274769 
L 150.381818 233.211757 
L 150.584727 233.286822 
L 150.990545 234.217307 
L 151.396364 234.476896 
L 151.599273 235.096724 
L 152.005091 235.22659 
L 152.208 234.90795 
L 152.613818 234.935406 
L 152.816727 235.973445 
L 153.019636 234.934073 
L 153.425455 234.708335 
L 153.628364 234.859681 
L 153.831273 234.79954 
L 154.237091 235.585654 
L 154.44 235.301945 
L 154.642909 236.192794 
L 155.048727 236.507262 
L 155.251636 236.157591 
L 155.454545 237.147622 
L 155.657455 237.358779 
L 156.063273 237.404083 
L 156.266182 237.421781 
L 156.469091 237.62551 
L 156.672 237.321574 
L 157.077818 235.207556 
L 157.483636 234.159209 
L 158.092364 235.018108 
L 158.295273 235.825614 
L 158.498182 235.506947 
L 158.904 234.465547 
L 159.512727 235.4424 
L 159.715636 235.015193 
L 159.918545 235.26509 
L 160.121455 235.794467 
L 160.324364 235.767784 
L 160.527273 236.499232 
L 161.136 236.510147 
L 161.338909 236.814822 
L 161.541818 236.539716 
L 162.150545 236.941374 
L 162.353455 236.904506 
L 162.556364 237.882252 
L 162.759273 237.731734 
L 163.570909 238.362975 
L 163.773818 236.88625 
L 163.976727 236.989994 
L 164.179636 236.7116 
L 164.788364 236.850876 
L 164.991273 238.634876 
L 165.802909 238.544201 
L 166.005818 238.863991 
L 166.208727 238.866467 
L 166.411636 239.171747 
L 166.817455 238.091369 
L 167.020364 238.333154 
L 167.223273 238.231542 
L 167.426182 238.802604 
L 167.629091 237.719771 
L 167.832 238.044846 
L 168.034909 238.785129 
L 168.237818 238.122157 
L 168.643636 238.893317 
L 168.846545 237.569674 
L 169.049455 237.789015 
L 169.252364 237.706854 
L 169.658182 238.351126 
L 170.064 238.457921 
L 170.266909 238.425502 
L 170.469818 238.543311 
L 170.875636 238.539024 
L 171.078545 238.52774 
L 171.281455 239.689681 
L 171.484364 239.693293 
L 171.687273 239.400083 
L 171.890182 239.786179 
L 172.093091 239.767166 
L 172.296 239.924567 
L 172.498909 239.792471 
L 173.310545 239.911239 
L 173.513455 239.746107 
L 174.325091 239.755614 
L 174.528 240.450539 
L 174.933818 240.445038 
L 175.136727 244.005493 
L 175.339636 244.079686 
L 175.542545 241.250622 
L 175.745455 241.534053 
L 175.948364 240.591288 
L 176.557091 243.15041 
L 176.76 243.260485 
L 176.962909 243.65929 
L 177.368727 243.776446 
L 177.571636 243.378634 
L 177.774545 243.528468 
L 177.977455 243.534842 
L 178.383273 243.874376 
L 178.586182 243.385083 
L 178.992 243.37257 
L 179.194909 243.950097 
L 179.600727 243.977318 
L 179.803636 244.452958 
L 180.209455 244.505888 
L 180.412364 244.590614 
L 180.615273 245.004923 
L 180.818182 244.988862 
L 181.426909 245.253516 
L 181.629818 245.265778 
L 181.832727 245.888949 
L 182.035636 245.820792 
L 182.441455 246.069367 
L 182.644364 246.091694 
L 182.847273 246.24 
L 373.581818 246.24 
L 373.581818 246.24 
" style="fill:none;stroke:#023eff;stroke-linecap:round;stroke-width:1.2;"/>
    <defs>
     <path d="M 0 2.4 
C 0.636487 2.4 1.246992 2.147121 1.697056 1.697056 
C 2.147121 1.246992 2.4 0.636487 2.4 0 
C 2.4 -0.636487 2.147121 -1.246992 1.697056 -1.697056 
C 1.246992 -2.147121 0.636487 -2.4 0 -2.4 
C -0.636487 -2.4 -1.246992 -2.147121 -1.697056 -1.697056 
C -2.147121 -1.246992 -2.4 -0.636487 -2.4 0 
C -2.4 0.636487 -2.147121 1.246992 -1.697056 1.697056 
C -1.246992 2.147121 -0.636487 2.4 0 2.4 
z
" id="m772d176232" style="stroke:#023eff;"/>
    </defs>
    <g clip-path="url(#peb3357dcb5)">
     <use style="fill-opacity:0;stroke:#023eff;" x="69.218182" xlink:href="#m772d176232" y="46.045711"/>
     <use style="fill-opacity:0;stroke:#023eff;" x="109.8" xlink:href="#m772d176232" y="195.874603"/>
     <use style="fill-opacity:0;stroke:#023eff;" x="150.381818" xlink:href="#m772d176232" y="233.211757"/>
     <use style="fill-opacity:0;stroke:#023eff;" x="190.963636" xlink:href="#m772d176232" y="246.24"/>
     <use style="fill-opacity:0;stroke:#023eff;" x="231.545455" xlink:href="#m772d176232" y="246.24"/>
     <use style="fill-opacity:0;stroke:#023eff;" x="272.127273" xlink:href="#m772d176232" y="246.24"/>
     <use style="fill-opacity:0;stroke:#023eff;" x="312.709091" xlink:href="#m772d176232" y="246.24"/>
     <use style="fill-opacity:0;stroke:#023eff;" x="353.290909" xlink:href="#m772d176232" y="246.24"/>
    </g>
   </g>
   <g id="line2d_60">
    <path clip-path="url(#peb3357dcb5)" d="M 69.218182 46.108791 
L 69.421091 48.37263 
L 69.624 54.323739 
L 69.826909 54.907 
L 70.029818 52.137872 
L 70.232727 55.43908 
L 70.435636 56.460108 
L 70.638545 56.494366 
L 70.841455 59.714719 
L 71.044364 60.469626 
L 71.247273 63.44478 
L 71.450182 62.446993 
L 71.653091 66.934886 
L 72.058909 67.180602 
L 72.261818 68.459672 
L 72.464727 68.55037 
L 72.667636 69.820149 
L 72.870545 69.940179 
L 73.073455 72.727467 
L 73.276364 77.370568 
L 73.479273 77.377446 
L 73.682182 79.164214 
L 73.885091 79.181978 
L 74.088 81.496632 
L 74.290909 79.277423 
L 74.696727 84.296804 
L 74.899636 86.22964 
L 75.102545 86.635341 
L 75.305455 86.701187 
L 75.508364 86.928809 
L 75.711273 88.558752 
L 75.914182 92.646033 
L 76.32 95.235323 
L 76.522909 95.517727 
L 76.725818 93.625724 
L 76.928727 101.454485 
L 77.537455 101.367995 
L 77.740364 105.228959 
L 78.552 105.233971 
L 78.754909 104.470762 
L 78.957818 104.943545 
L 79.160727 104.881201 
L 79.363636 105.399216 
L 79.769455 105.606409 
L 80.175273 105.626737 
L 80.581091 105.654062 
L 80.784 105.873203 
L 81.595636 105.963265 
L 82.001455 108.647182 
L 82.204364 108.658588 
L 82.407273 109.076785 
L 82.610182 108.957456 
L 82.813091 110.93224 
L 83.218909 111.065671 
L 83.421818 114.064536 
L 83.624727 114.155201 
L 84.030545 119.848105 
L 84.233455 119.878315 
L 84.436364 120.042791 
L 84.639273 122.121211 
L 85.045091 122.280733 
L 85.248 122.577912 
L 85.450909 122.076025 
L 85.653818 122.446612 
L 85.856727 121.252136 
L 86.059636 127.474767 
L 86.465455 127.503652 
L 86.668364 126.587727 
L 86.871273 127.461438 
L 87.277091 124.29899 
L 87.48 124.4119 
L 87.682909 123.280641 
L 88.088727 123.435082 
L 88.697455 123.529495 
L 88.900364 124.130429 
L 89.103273 126.439643 
L 89.306182 126.453355 
L 89.509091 126.13038 
L 89.712 126.274526 
L 89.914909 127.424356 
L 91.944 127.793944 
L 92.146909 129.036535 
L 93.364364 129.155934 
L 93.567273 132.840265 
L 94.784727 133.090964 
L 94.987636 134.966737 
L 95.190545 134.342142 
L 95.393455 134.135304 
L 95.596364 134.183238 
L 95.799273 139.600553 
L 96.002182 139.34946 
L 96.205091 142.17995 
L 96.813818 141.72733 
L 97.016727 142.71202 
L 97.219636 142.879804 
L 97.422545 142.815803 
L 97.625455 143.151479 
L 98.031273 143.321867 
L 98.437091 143.260354 
L 98.64 139.948878 
L 99.045818 140.146427 
L 99.451636 140.670745 
L 99.654545 139.381676 
L 100.060364 139.450505 
L 100.263273 143.28414 
L 100.466182 143.115342 
L 101.074909 143.289819 
L 101.277818 142.771851 
L 101.480727 140.368204 
L 101.886545 140.573862 
L 102.089455 142.250146 
L 102.292364 142.665772 
L 102.495273 141.919537 
L 102.698182 141.710927 
L 103.104 147.232357 
L 103.306909 154.281309 
L 103.509818 154.52271 
L 103.712727 154.01718 
L 104.118545 155.146063 
L 104.321455 155.589528 
L 104.524364 156.969791 
L 104.727273 157.050744 
L 104.930182 164.760881 
L 105.133091 165.138685 
L 105.538909 176.0913 
L 105.944727 181.638993 
L 106.350545 183.57881 
L 106.553455 185.910232 
L 106.756364 186.236339 
L 106.959273 192.061735 
L 107.162182 194.437588 
L 107.365091 198.974993 
L 107.568 199.221943 
L 107.770909 204.065545 
L 107.973818 205.039579 
L 108.176727 205.34713 
L 108.582545 209.714114 
L 108.785455 207.948352 
L 108.988364 208.465895 
L 109.191273 208.564389 
L 109.597091 208.400655 
L 110.002909 210.271413 
L 110.205818 189.57632 
L 110.408727 194.989032 
L 110.611636 190.049663 
L 110.814545 199.030708 
L 111.017455 199.325356 
L 111.220364 199.114799 
L 111.423273 201.427832 
L 111.626182 201.165729 
L 111.829091 199.596767 
L 112.032 201.21376 
L 112.234909 205.145125 
L 112.437818 205.899755 
L 112.640727 207.313085 
L 112.843636 206.746277 
L 113.046545 207.062242 
L 113.858182 209.568964 
L 114.061091 209.976063 
L 114.264 210.048789 
L 114.466909 209.930711 
L 114.872727 211.167316 
L 115.075636 211.401658 
L 115.278545 210.98128 
L 115.481455 210.956592 
L 115.684364 211.193987 
L 115.887273 211.204072 
L 116.090182 211.671255 
L 116.496 211.787779 
L 116.901818 212.401739 
L 117.307636 212.944287 
L 117.510545 212.958104 
L 118.525091 213.552815 
L 119.133818 213.60862 
L 119.336727 214.39547 
L 119.742545 214.512699 
L 119.945455 214.602503 
L 120.351273 215.02996 
L 120.554182 215.797115 
L 120.757091 216.097298 
L 120.96 216.0976 
L 121.162909 215.074893 
L 121.771636 215.172975 
L 121.974545 215.369358 
L 122.177455 216.028278 
L 122.380364 216.203869 
L 122.583273 216.211533 
L 122.786182 217.420006 
L 123.394909 217.632894 
L 123.597818 217.205486 
L 123.800727 217.437155 
L 124.003636 217.177005 
L 124.409455 217.66517 
L 124.612364 217.66517 
L 124.815273 218.230047 
L 125.221091 218.397909 
L 125.424 218.552792 
L 125.626909 218.493368 
L 125.829818 218.861949 
L 126.032727 218.917331 
L 126.235636 219.094092 
L 126.844364 219.252401 
L 127.047273 219.875191 
L 127.250182 219.950071 
L 127.453091 219.834258 
L 127.858909 219.923038 
L 128.061818 220.394335 
L 128.264727 220.328297 
L 128.467636 220.703817 
L 128.670545 220.748811 
L 128.873455 220.059776 
L 129.076364 220.594033 
L 129.279273 220.651809 
L 129.685091 221.093064 
L 129.888 221.493216 
L 130.090909 221.193917 
L 130.293818 221.282409 
L 130.496727 222.58843 
L 130.699636 221.840108 
L 130.902545 221.840108 
L 131.105455 222.274149 
L 131.308364 222.02177 
L 131.714182 222.066206 
L 131.917091 226.077576 
L 132.12 226.458681 
L 132.322909 225.946977 
L 132.525818 226.229093 
L 132.728727 225.383529 
L 132.931636 225.243722 
L 133.134545 224.471766 
L 133.337455 224.345295 
L 133.540364 223.904683 
L 133.743273 223.918387 
L 133.946182 225.183836 
L 134.149091 225.65283 
L 134.352 227.187829 
L 134.554909 226.758603 
L 134.757818 227.226263 
L 134.960727 227.369914 
L 135.163636 228.466149 
L 135.366545 228.287901 
L 135.569455 228.32689 
L 135.772364 228.739767 
L 135.975273 229.509042 
L 136.178182 229.509045 
L 136.381091 229.038174 
L 136.989818 229.249496 
L 137.192727 229.60088 
L 137.395636 228.995697 
L 137.598545 228.96619 
L 137.801455 229.319108 
L 138.410182 229.170997 
L 138.613091 227.783171 
L 138.816 228.137612 
L 139.018909 228.137612 
L 139.221818 226.982914 
L 139.424727 227.69157 
L 139.627636 227.609998 
L 139.830545 226.913697 
L 140.033455 226.898949 
L 140.236364 224.684732 
L 140.439273 223.693039 
L 140.642182 221.535816 
L 140.845091 220.839608 
L 141.048 218.924121 
L 141.250909 219.651278 
L 141.453818 218.295564 
L 141.859636 219.719862 
L 142.062545 220.365639 
L 142.265455 223.587899 
L 142.671273 223.971394 
L 142.874182 225.529809 
L 143.077091 226.182099 
L 143.482909 226.231281 
L 143.888727 226.916269 
L 144.091636 226.91591 
L 144.903273 228.958963 
L 145.106182 228.958963 
L 145.309091 229.171265 
L 146.526545 229.20764 
L 146.729455 229.899501 
L 146.932364 230.024887 
L 147.135273 228.933262 
L 147.541091 228.942213 
L 147.744 228.488627 
L 148.149818 228.422978 
L 148.352727 228.439884 
L 148.555636 229.1369 
L 148.758545 229.1369 
L 148.961455 229.317782 
L 149.570182 229.352419 
L 149.773091 228.614482 
L 150.178909 228.678533 
L 150.584727 228.490967 
L 151.193455 228.369812 
L 151.396364 233.887914 
L 152.005091 233.947476 
L 152.208 234.295124 
L 152.410909 234.377259 
L 152.613818 237.147295 
L 153.425455 236.875839 
L 153.628364 236.324168 
L 153.831273 236.449324 
L 154.034182 236.173273 
L 154.237091 237.096732 
L 154.44 236.961774 
L 154.845818 237.051189 
L 155.048727 237.265471 
L 155.251636 237.312922 
L 155.657455 237.849474 
L 155.860364 239.167569 
L 156.063273 239.532063 
L 156.266182 239.529688 
L 156.469091 238.201582 
L 156.672 238.475726 
L 157.077818 238.48916 
L 157.280727 238.191079 
L 157.483636 239.029792 
L 157.686545 238.969053 
L 157.889455 239.491408 
L 158.092364 239.676407 
L 158.701091 239.643211 
L 158.904 239.946896 
L 159.309818 240.032167 
L 159.512727 240.026011 
L 159.918545 239.497734 
L 160.121455 239.534524 
L 160.324364 240.709906 
L 160.527273 240.897832 
L 160.730182 239.333695 
L 160.933091 239.347041 
L 161.338909 239.670637 
L 161.947636 239.520686 
L 162.150545 239.981558 
L 162.556364 240.095443 
L 162.759273 240.258004 
L 163.165091 240.223066 
L 163.368 240.365193 
L 166.005818 240.268975 
L 166.208727 240.788048 
L 167.020364 240.773709 
L 167.629091 240.805479 
L 167.832 241.449179 
L 168.846545 241.513161 
L 169.049455 241.26563 
L 169.252364 241.219278 
L 169.658182 241.327919 
L 170.266909 241.39336 
L 170.469818 241.393433 
L 170.672727 242.301525 
L 171.484364 242.342155 
L 171.687273 242.630828 
L 172.296 242.618516 
L 172.498909 242.097147 
L 373.581818 242.117992 
L 373.581818 242.117992 
" style="fill:none;stroke:#1ac938;stroke-linecap:round;stroke-width:1.2;"/>
    <defs>
     <path d="M -0 2.4 
L 2.4 -2.4 
L -2.4 -2.4 
z
" id="mc1b2ee77bc" style="stroke:#1ac938;stroke-linejoin:miter;"/>
    </defs>
    <g clip-path="url(#peb3357dcb5)">
     <use style="fill-opacity:0;stroke:#1ac938;stroke-linejoin:miter;" x="69.218182" xlink:href="#mc1b2ee77bc" y="46.108791"/>
     <use style="fill-opacity:0;stroke:#1ac938;stroke-linejoin:miter;" x="109.8" xlink:href="#mc1b2ee77bc" y="209.559911"/>
     <use style="fill-opacity:0;stroke:#1ac938;stroke-linejoin:miter;" x="150.381818" xlink:href="#mc1b2ee77bc" y="228.542452"/>
     <use style="fill-opacity:0;stroke:#1ac938;stroke-linejoin:miter;" x="190.963636" xlink:href="#mc1b2ee77bc" y="242.117992"/>
     <use style="fill-opacity:0;stroke:#1ac938;stroke-linejoin:miter;" x="231.545455" xlink:href="#mc1b2ee77bc" y="242.117992"/>
     <use style="fill-opacity:0;stroke:#1ac938;stroke-linejoin:miter;" x="272.127273" xlink:href="#mc1b2ee77bc" y="242.117992"/>
     <use style="fill-opacity:0;stroke:#1ac938;stroke-linejoin:miter;" x="312.709091" xlink:href="#mc1b2ee77bc" y="242.117992"/>
     <use style="fill-opacity:0;stroke:#1ac938;stroke-linejoin:miter;" x="353.290909" xlink:href="#mc1b2ee77bc" y="242.117992"/>
    </g>
   </g>
   <g id="line2d_61">
    <path clip-path="url(#peb3357dcb5)" d="M 69.218182 44.886749 
L 69.826909 48.469152 
L 70.029818 48.469152 
L 70.232727 49.400638 
L 70.435636 51.236391 
L 70.638545 51.827119 
L 71.044364 55.933051 
L 71.247273 57.603041 
L 71.653091 57.606066 
L 72.058909 59.530448 
L 72.261818 59.521724 
L 72.464727 59.785374 
L 72.667636 59.783774 
L 72.870545 61.963804 
L 73.073455 60.677113 
L 73.276364 60.688018 
L 73.479273 62.504299 
L 73.682182 62.514591 
L 74.696727 71.176483 
L 74.899636 70.602095 
L 75.305455 70.706239 
L 75.711273 78.027775 
L 75.914182 80.588049 
L 76.117091 84.823977 
L 76.522909 84.943737 
L 76.725818 87.645022 
L 76.928727 86.676468 
L 77.131636 86.817054 
L 77.334545 87.441416 
L 77.740364 97.898834 
L 77.943273 108.171112 
L 78.146182 107.993322 
L 78.349091 109.436263 
L 78.552 109.502291 
L 78.754909 109.91493 
L 78.957818 111.794871 
L 79.160727 119.134067 
L 79.363636 118.373762 
L 79.566545 119.728676 
L 79.769455 119.586563 
L 79.972364 119.866453 
L 80.175273 125.103305 
L 80.378182 125.372389 
L 80.581091 124.507506 
L 80.986909 127.069228 
L 81.189818 126.953857 
L 81.595636 127.30399 
L 82.001455 128.360372 
L 82.407273 128.646994 
L 82.610182 128.761457 
L 82.813091 129.029381 
L 83.016 129.526306 
L 83.218909 132.493033 
L 83.421818 132.516351 
L 83.827636 132.895587 
L 84.030545 132.852532 
L 84.639273 133.171339 
L 84.842182 136.161249 
L 85.045091 136.652451 
L 85.653818 136.801594 
L 86.059636 136.965438 
L 86.465455 137.155402 
L 86.668364 136.676125 
L 86.871273 136.942294 
L 87.074182 136.87526 
L 87.277091 136.618514 
L 87.48 136.65495 
L 87.682909 137.038758 
L 87.885818 139.336778 
L 88.088727 139.730214 
L 88.291636 142.20584 
L 88.494545 142.519443 
L 88.697455 144.86781 
L 88.900364 145.287699 
L 89.103273 145.966269 
L 89.306182 148.226693 
L 89.509091 148.481742 
L 89.712 154.23329 
L 89.914909 154.877558 
L 90.117818 154.883192 
L 90.320727 154.264642 
L 90.523636 156.716347 
L 90.726545 152.678896 
L 90.929455 154.534318 
L 91.132364 157.948421 
L 91.335273 158.755009 
L 91.538182 160.102822 
L 91.741091 168.721672 
L 92.349818 169.526032 
L 92.552727 172.23847 
L 92.755636 172.743556 
L 92.958545 172.771062 
L 93.161455 174.047365 
L 93.364364 173.945783 
L 93.770182 177.1441 
L 93.973091 177.255002 
L 94.784727 178.894336 
L 94.987636 180.972424 
L 95.190545 181.007072 
L 95.393455 176.551892 
L 95.596364 174.921196 
L 96.002182 182.200713 
L 96.205091 183.95059 
L 96.408 183.940013 
L 97.016727 192.565908 
L 97.219636 193.118705 
L 97.422545 193.078342 
L 97.625455 194.279598 
L 97.828364 194.333715 
L 98.031273 195.919432 
L 98.234182 192.290286 
L 98.437091 176.68241 
L 98.64 186.532155 
L 98.842909 182.560867 
L 99.248727 185.192254 
L 99.451636 194.032375 
L 99.654545 196.074153 
L 99.857455 196.144818 
L 100.060364 196.945006 
L 100.263273 196.998947 
L 100.466182 198.59057 
L 100.669091 198.711847 
L 101.074909 199.653562 
L 101.277818 201.771936 
L 101.683636 202.713981 
L 101.886545 203.18998 
L 102.089455 204.149147 
L 102.292364 204.048534 
L 102.495273 204.330191 
L 102.698182 205.085118 
L 103.104 204.597698 
L 103.306909 205.418245 
L 104.118545 205.848735 
L 104.524364 205.957118 
L 104.727273 206.483574 
L 105.133091 206.799143 
L 105.336 206.612885 
L 105.741818 207.451223 
L 105.944727 207.372254 
L 106.350545 212.129561 
L 106.959273 210.814219 
L 107.162182 210.556986 
L 107.365091 211.316293 
L 107.568 212.574818 
L 107.770909 211.000417 
L 107.973818 210.577277 
L 108.176727 211.096253 
L 108.379636 210.897572 
L 108.785455 204.141263 
L 108.988364 203.554785 
L 109.597091 210.877629 
L 109.8 210.757194 
L 110.002909 209.420501 
L 110.408727 212.844609 
L 110.611636 212.594618 
L 110.814545 212.937073 
L 111.017455 214.482445 
L 111.220364 214.573317 
L 111.626182 215.389478 
L 111.829091 200.345263 
L 112.032 162.647832 
L 112.234909 188.161299 
L 112.437818 188.706441 
L 112.640727 194.427546 
L 112.843636 195.83805 
L 113.046545 198.4375 
L 113.249455 196.176303 
L 113.452364 196.387617 
L 113.655273 199.98 
L 114.061091 200.649894 
L 114.264 201.739901 
L 114.466909 201.410638 
L 114.669818 201.470875 
L 114.872727 192.13195 
L 115.075636 191.420672 
L 115.278545 191.269246 
L 115.481455 190.32037 
L 115.684364 191.789787 
L 115.887273 190.983101 
L 116.090182 191.318029 
L 116.698909 193.471719 
L 117.104727 204.130475 
L 117.307636 204.025727 
L 117.510545 204.262171 
L 117.916364 204.260408 
L 118.322182 205.751397 
L 118.525091 205.816394 
L 118.728 205.555489 
L 118.930909 203.668291 
L 119.133818 203.645093 
L 119.336727 213.978256 
L 119.539636 214.455787 
L 119.945455 213.301895 
L 120.148364 214.002286 
L 120.351273 214.269891 
L 120.554182 213.723585 
L 120.757091 213.972893 
L 120.96 214.585192 
L 121.162909 216.491586 
L 121.365818 216.618337 
L 121.568727 217.077899 
L 121.771636 216.577896 
L 121.974545 218.603877 
L 122.380364 219.511168 
L 122.583273 219.653067 
L 122.989091 219.610606 
L 123.192 219.706324 
L 123.800727 220.905445 
L 124.003636 221.846629 
L 124.206545 221.850544 
L 124.409455 222.312403 
L 125.018182 222.555141 
L 125.221091 222.136399 
L 125.424 222.136759 
L 125.626909 222.503617 
L 125.829818 222.540668 
L 126.032727 220.680967 
L 126.235636 221.136008 
L 126.438545 221.275016 
L 126.641455 222.489499 
L 126.844364 221.844824 
L 127.047273 224.217159 
L 127.250182 224.423446 
L 127.453091 224.42563 
L 127.656 224.988646 
L 127.858909 224.684335 
L 128.061818 226.110783 
L 128.467636 224.81687 
L 128.670545 218.596836 
L 128.873455 205.780441 
L 129.279273 203.342676 
L 129.482182 211.908132 
L 129.685091 212.417177 
L 129.888 212.521873 
L 130.090909 214.292798 
L 130.496727 214.321386 
L 130.699636 216.325632 
L 130.902545 216.639866 
L 131.105455 215.139184 
L 131.308364 215.180789 
L 131.511273 218.393477 
L 131.714182 218.296194 
L 131.917091 219.160636 
L 132.12 220.540752 
L 132.322909 219.650377 
L 132.525818 219.545052 
L 133.134545 219.896743 
L 133.540364 219.07906 
L 133.743273 219.993134 
L 133.946182 219.494274 
L 134.554909 221.360049 
L 135.163636 222.333566 
L 135.366545 220.557053 
L 135.569455 221.34955 
L 135.772364 219.188369 
L 135.975273 223.63069 
L 136.178182 221.249947 
L 136.381091 222.571015 
L 136.584 222.588921 
L 136.786909 223.79593 
L 136.989818 225.73611 
L 137.395636 225.762095 
L 137.598545 225.883277 
L 137.801455 225.164339 
L 138.004364 224.970921 
L 138.410182 227.382274 
L 138.613091 227.204121 
L 138.816 227.175597 
L 139.018909 229.145493 
L 139.424727 229.167249 
L 139.627636 229.332398 
L 139.830545 229.790127 
L 140.236364 229.853529 
L 140.439273 230.590699 
L 140.845091 230.241062 
L 141.250909 230.318494 
L 141.453818 230.813066 
L 141.656727 232.317684 
L 141.859636 232.327991 
L 142.062545 232.652577 
L 142.265455 232.608502 
L 142.468364 233.03423 
L 142.874182 233.069803 
L 143.28 233.201317 
L 144.091636 233.120184 
L 145.106182 233.16556 
L 145.512 233.27583 
L 146.120727 233.251583 
L 146.526545 233.6033 
L 146.932364 233.688799 
L 148.352727 233.793277 
L 148.555636 233.829934 
L 148.758545 233.684075 
L 149.164364 233.608452 
L 149.570182 237.002553 
L 149.773091 236.703777 
L 149.976 235.959492 
L 150.178909 235.934883 
L 150.381818 235.094471 
L 150.584727 235.528864 
L 150.787636 235.433413 
L 150.990545 235.13589 
L 151.193455 234.542128 
L 151.599273 234.516373 
L 151.802182 234.767226 
L 152.005091 234.572635 
L 152.208 234.166212 
L 152.816727 234.335027 
L 153.019636 233.383719 
L 153.222545 233.563057 
L 153.425455 233.400272 
L 153.628364 233.457979 
L 153.831273 233.652312 
L 154.034182 234.405604 
L 154.237091 235.724881 
L 154.642909 236.154706 
L 155.048727 236.278771 
L 155.251636 236.312788 
L 155.454545 235.57875 
L 155.657455 235.897164 
L 155.860364 235.88777 
L 156.063273 234.37569 
L 156.266182 234.263491 
L 156.672 234.348053 
L 156.874909 235.520534 
L 157.280727 235.619028 
L 157.483636 235.432026 
L 157.686545 234.129531 
L 157.889455 235.506668 
L 158.092364 235.240499 
L 158.295273 236.480003 
L 158.701091 236.480237 
L 158.904 237.155683 
L 159.512727 237.177344 
L 159.715636 237.485153 
L 159.918545 237.418675 
L 160.121455 237.073346 
L 160.324364 237.073346 
L 160.527273 235.122727 
L 162.150545 235.249106 
L 162.353455 236.059046 
L 163.165091 236.063175 
L 163.570909 236.052006 
L 163.773818 235.463157 
L 163.976727 235.463552 
L 164.179636 237.122322 
L 164.382545 237.375119 
L 165.194182 237.392275 
L 165.397091 237.53809 
L 166.614545 237.537048 
L 167.020364 237.572713 
L 167.223273 237.739915 
L 167.426182 237.658579 
L 167.629091 237.860757 
L 168.846545 237.915969 
L 169.049455 233.976579 
L 169.252364 234.036582 
L 169.658182 233.982274 
L 373.581818 233.982274 
L 373.581818 233.982274 
" style="fill:none;stroke:#e8000b;stroke-linecap:round;stroke-width:1.2;"/>
    <defs>
     <path d="M 0 -2.4 
L -2.4 2.4 
L 2.4 2.4 
z
" id="me8a7a390d8" style="stroke:#e8000b;stroke-linejoin:miter;"/>
    </defs>
    <g clip-path="url(#peb3357dcb5)">
     <use style="fill-opacity:0;stroke:#e8000b;stroke-linejoin:miter;" x="69.218182" xlink:href="#me8a7a390d8" y="44.886749"/>
     <use style="fill-opacity:0;stroke:#e8000b;stroke-linejoin:miter;" x="109.8" xlink:href="#me8a7a390d8" y="210.757194"/>
     <use style="fill-opacity:0;stroke:#e8000b;stroke-linejoin:miter;" x="150.381818" xlink:href="#me8a7a390d8" y="235.094471"/>
     <use style="fill-opacity:0;stroke:#e8000b;stroke-linejoin:miter;" x="190.963636" xlink:href="#me8a7a390d8" y="233.982274"/>
     <use style="fill-opacity:0;stroke:#e8000b;stroke-linejoin:miter;" x="231.545455" xlink:href="#me8a7a390d8" y="233.982274"/>
     <use style="fill-opacity:0;stroke:#e8000b;stroke-linejoin:miter;" x="272.127273" xlink:href="#me8a7a390d8" y="233.982274"/>
     <use style="fill-opacity:0;stroke:#e8000b;stroke-linejoin:miter;" x="312.709091" xlink:href="#me8a7a390d8" y="233.982274"/>
     <use style="fill-opacity:0;stroke:#e8000b;stroke-linejoin:miter;" x="353.290909" xlink:href="#me8a7a390d8" y="233.982274"/>
    </g>
   </g>
   <g id="line2d_62">
    <path clip-path="url(#peb3357dcb5)" d="M 69.218182 44.64 
L 69.421091 54.375505 
L 69.826909 54.458765 
L 70.232727 66.794217 
L 70.435636 70.491442 
L 71.044364 90.399835 
L 71.247273 93.129457 
L 71.450182 111.638871 
L 72.261818 133.315711 
L 72.464727 135.667763 
L 72.667636 131.221578 
L 73.073455 142.969686 
L 73.276364 145.764109 
L 73.479273 145.96881 
L 73.682182 159.081267 
L 73.885091 163.108292 
L 74.088 161.906391 
L 74.493818 164.415024 
L 74.696727 166.384798 
L 75.102545 174.784135 
L 75.305455 175.333435 
L 75.508364 176.75066 
L 75.711273 177.167055 
L 75.914182 141.194463 
L 76.117091 140.669688 
L 76.32 141.670426 
L 76.522909 138.317379 
L 76.725818 147.006665 
L 76.928727 147.11458 
L 77.131636 149.080717 
L 77.334545 149.48211 
L 77.537455 151.854767 
L 78.146182 152.163061 
L 78.349091 151.376385 
L 78.957818 151.894813 
L 79.160727 162.423598 
L 79.363636 141.68353 
L 79.566545 142.035167 
L 79.769455 145.168869 
L 79.972364 143.643804 
L 80.175273 143.400782 
L 80.581091 144.048558 
L 80.784 144.809501 
L 81.189818 144.964236 
L 81.595636 145.597959 
L 82.204364 145.794577 
L 82.813091 145.843304 
L 83.016 146.101186 
L 83.624727 146.093041 
L 85.653818 146.594438 
L 87.074182 146.629479 
L 87.885818 146.617015 
L 88.900364 146.750224 
L 89.306182 146.776546 
L 89.509091 149.314742 
L 91.335273 149.330365 
L 94.581818 149.408264 
L 94.987636 149.544788 
L 95.393455 149.491854 
L 97.016727 149.510922 
L 102.698182 149.661179 
L 102.901091 161.990421 
L 103.104 160.533173 
L 103.306909 160.474803 
L 103.509818 160.895621 
L 103.712727 160.868252 
L 103.915636 161.757109 
L 104.118545 162.131418 
L 104.727273 162.424568 
L 104.930182 162.577472 
L 105.133091 162.437872 
L 105.538909 162.63358 
L 105.741818 162.595549 
L 106.350545 162.742697 
L 108.176727 162.894774 
L 108.379636 167.746344 
L 108.785455 167.287198 
L 109.191273 167.483695 
L 109.597091 167.735952 
L 110.002909 167.776875 
L 110.408727 167.757295 
L 110.814545 167.793939 
L 111.220364 167.724654 
L 111.626182 167.847969 
L 112.640727 167.920933 
L 113.046545 168.082554 
L 113.249455 168.077047 
L 113.452364 166.518142 
L 114.466909 166.466568 
L 114.872727 166.506886 
L 115.278545 166.496897 
L 116.293091 166.52627 
L 116.496 174.524294 
L 116.698909 171.734202 
L 116.901818 171.772808 
L 117.307636 171.666573 
L 117.713455 172.1772 
L 117.916364 169.735483 
L 118.322182 169.310202 
L 118.525091 169.284148 
L 118.930909 169.559073 
L 119.133818 169.528087 
L 119.742545 169.993409 
L 120.351273 170.044196 
L 120.554182 169.994145 
L 120.757091 170.175524 
L 121.365818 170.229782 
L 121.568727 170.411485 
L 121.771636 170.412727 
L 121.974545 170.220541 
L 125.626909 170.594278 
L 125.829818 180.662654 
L 126.032727 179.581406 
L 126.235636 179.451508 
L 126.438545 179.05231 
L 126.641455 179.247819 
L 126.844364 179.953138 
L 127.047273 180.231519 
L 127.250182 187.484792 
L 127.453091 186.635654 
L 127.656 186.827902 
L 127.858909 188.795147 
L 128.061818 188.857448 
L 128.264727 189.142597 
L 128.670545 188.74161 
L 128.873455 188.796975 
L 129.279273 189.956529 
L 130.090909 190.635702 
L 130.293818 190.251591 
L 131.308364 190.361734 
L 131.511273 190.889441 
L 133.337455 191.040394 
L 133.946182 191.154062 
L 134.352 191.072727 
L 135.366545 191.128165 
L 135.569455 190.624176 
L 135.975273 190.668193 
L 136.381091 189.876739 
L 136.584 189.839918 
L 136.786909 189.146834 
L 136.989818 189.167083 
L 137.192727 189.022832 
L 137.598545 189.028824 
L 138.004364 189.452788 
L 138.207273 174.371745 
L 138.613091 167.589284 
L 139.424727 173.807223 
L 139.627636 174.250061 
L 139.830545 174.359096 
L 140.439273 175.159168 
L 140.642182 175.016441 
L 140.845091 175.154135 
L 141.250909 175.166062 
L 141.656727 175.430171 
L 142.062545 175.475198 
L 142.671273 175.539689 
L 143.077091 175.519946 
L 145.917818 175.74906 
L 147.135273 175.788594 
L 147.338182 175.697005 
L 147.744 175.828184 
L 150.381818 175.793991 
L 150.584727 176.359968 
L 152.613818 176.355183 
L 152.816727 189.607337 
L 153.019636 186.024648 
L 153.222545 186.218261 
L 153.628364 187.168621 
L 153.831273 188.544951 
L 154.034182 188.991725 
L 154.237091 189.133558 
L 154.44 189.435192 
L 154.642909 189.460514 
L 154.845818 189.280657 
L 155.048727 189.287802 
L 155.251636 189.928734 
L 155.860364 189.925484 
L 156.063273 189.936442 
L 156.266182 189.250396 
L 156.469091 186.453963 
L 156.672 186.414343 
L 156.874909 185.583715 
L 157.077818 186.771785 
L 157.280727 186.443438 
L 157.686545 186.380271 
L 157.889455 186.770432 
L 158.092364 186.820695 
L 158.295273 187.083883 
L 158.498182 186.801702 
L 158.701091 186.781902 
L 158.904 186.968767 
L 159.918545 187.032652 
L 160.121455 187.361941 
L 160.324364 187.383299 
L 160.527273 187.691871 
L 160.933091 187.600127 
L 163.773818 187.752435 
L 163.976727 187.891638 
L 164.179636 183.106756 
L 164.382545 181.20407 
L 164.585455 181.541824 
L 164.788364 181.134332 
L 164.991273 181.322921 
L 165.194182 181.321578 
L 165.397091 181.186163 
L 165.6 182.060358 
L 166.411636 182.548712 
L 167.020364 182.58813 
L 168.237818 182.994154 
L 168.440727 182.976617 
L 168.846545 183.104064 
L 170.469818 183.106423 
L 170.875636 183.187552 
L 178.180364 183.276327 
L 179.397818 183.301526 
L 180.006545 183.30154 
L 180.209455 174.372732 
L 180.412364 173.276493 
L 180.615273 173.232992 
L 181.224 174.045488 
L 181.426909 174.195935 
L 181.629818 175.17365 
L 181.832727 175.312692 
L 182.035636 176.168007 
L 182.644364 176.362877 
L 182.847273 175.731542 
L 183.456 175.836959 
L 183.861818 175.860356 
L 184.064727 176.764113 
L 185.890909 176.809467 
L 186.499636 176.814187 
L 186.702545 176.335296 
L 187.514182 176.380844 
L 187.717091 176.656625 
L 187.92 176.567468 
L 188.528727 176.65036 
L 188.731636 177.547055 
L 190.963636 177.564911 
L 191.166545 190.9512 
L 191.369455 188.411362 
L 191.572364 188.139104 
L 191.775273 188.78024 
L 191.978182 189.901589 
L 192.181091 189.741067 
L 192.789818 191.479421 
L 192.992727 192.629374 
L 193.195636 192.956845 
L 193.398545 192.854251 
L 194.413091 193.059269 
L 194.818909 193.387345 
L 195.630545 193.41438 
L 196.036364 193.479219 
L 196.645091 193.657479 
L 197.253818 193.697534 
L 197.456727 193.858937 
L 197.659636 193.563045 
L 198.065455 193.579085 
L 198.268364 193.402883 
L 198.471273 193.415848 
L 198.674182 193.573911 
L 199.891636 193.693081 
L 200.094545 193.389274 
L 200.500364 193.396286 
L 200.703273 193.910156 
L 200.906182 193.911362 
L 201.109091 195.343027 
L 202.935273 195.369104 
L 203.138182 205.680572 
L 203.341091 204.795266 
L 203.544 205.193199 
L 203.746909 203.712412 
L 203.949818 204.057664 
L 204.152727 204.662464 
L 204.355636 204.662958 
L 204.558545 204.91118 
L 204.761455 204.823344 
L 205.370182 207.658542 
L 205.573091 207.860911 
L 205.776 207.85687 
L 205.978909 208.1358 
L 206.587636 208.232168 
L 206.790545 205.974678 
L 206.993455 206.119053 
L 207.602182 206.120561 
L 208.210909 206.398605 
L 208.413818 206.871479 
L 208.616727 206.872863 
L 208.819636 207.244536 
L 209.428364 207.248373 
L 210.442909 207.331119 
L 210.848727 207.400772 
L 211.051636 209.258536 
L 213.486545 209.277759 
L 213.689455 209.323363 
L 213.892364 216.087349 
L 214.298182 214.799685 
L 214.501091 215.428665 
L 214.906909 215.444808 
L 215.109818 215.156173 
L 215.515636 215.938557 
L 215.921455 215.75844 
L 216.327273 215.829157 
L 216.530182 215.708313 
L 217.138909 215.893146 
L 218.153455 216.004181 
L 218.559273 216.110752 
L 218.965091 215.980667 
L 219.370909 182.590328 
L 219.979636 191.168711 
L 220.385455 193.624126 
L 220.791273 194.364173 
L 221.197091 194.40098 
L 221.4 194.873163 
L 221.602909 194.979573 
L 221.805818 195.245827 
L 222.414545 195.074976 
L 222.617455 194.736071 
L 222.820364 194.801468 
L 223.023273 195.471928 
L 223.226182 195.46475 
L 223.429091 196.171494 
L 223.834909 196.250233 
L 224.037818 196.612744 
L 224.443636 196.714909 
L 224.646545 205.67437 
L 225.052364 203.070782 
L 225.458182 202.143789 
L 225.661091 202.139635 
L 225.864 202.373794 
L 226.066909 203.866049 
L 226.269818 203.866904 
L 226.472727 204.95123 
L 228.096 205.482892 
L 228.298909 205.641292 
L 228.501818 206.243869 
L 228.704727 206.356883 
L 228.907636 206.165734 
L 229.110545 206.546546 
L 229.516364 206.429793 
L 229.922182 206.559904 
L 230.328 206.620802 
L 230.733818 206.582221 
L 230.936727 214.302671 
L 231.139636 211.863049 
L 231.342545 211.29189 
L 231.545455 211.708185 
L 231.748364 212.551613 
L 231.951273 212.45411 
L 232.56 213.681336 
L 232.762909 213.78742 
L 233.168727 214.488577 
L 233.371636 214.556839 
L 233.574545 215.385066 
L 233.777455 215.279412 
L 234.183273 215.447756 
L 234.386182 215.454923 
L 234.792 215.663437 
L 234.994909 215.747219 
L 235.603636 215.607542 
L 235.806545 215.764538 
L 236.212364 215.765428 
L 236.415273 215.878262 
L 236.618182 215.532714 
L 238.038545 215.77191 
L 238.241455 214.890235 
L 238.444364 214.934317 
L 238.647273 215.279435 
L 239.256 215.326932 
L 239.661818 215.228932 
L 243.111273 215.219154 
L 243.314182 215.497786 
L 244.328727 215.589667 
L 244.531636 215.334129 
L 245.343273 215.359159 
L 245.546182 215.280111 
L 246.154909 215.368386 
L 246.560727 215.366199 
L 246.763636 215.495322 
L 246.966545 215.479551 
L 247.372364 212.526763 
L 247.778182 212.501062 
L 248.589818 212.504663 
L 248.792727 212.718179 
L 249.198545 212.700909 
L 249.401455 213.274291 
L 250.416 213.582858 
L 250.618909 213.469029 
L 250.821818 213.642549 
L 251.024727 213.649794 
L 251.227636 213.508572 
L 373.581818 213.508572 
L 373.581818 213.508572 
" style="fill:none;stroke:#00d7ff;stroke-linecap:round;stroke-width:1.2;"/>
    <defs>
     <path d="M -2.4 2.4 
L 2.4 2.4 
L 2.4 -2.4 
L -2.4 -2.4 
z
" id="m1ea96634c5" style="stroke:#00d7ff;stroke-linejoin:miter;"/>
    </defs>
    <g clip-path="url(#peb3357dcb5)">
     <use style="fill-opacity:0;stroke:#00d7ff;stroke-linejoin:miter;" x="69.218182" xlink:href="#m1ea96634c5" y="44.64"/>
     <use style="fill-opacity:0;stroke:#00d7ff;stroke-linejoin:miter;" x="109.8" xlink:href="#m1ea96634c5" y="167.783419"/>
     <use style="fill-opacity:0;stroke:#00d7ff;stroke-linejoin:miter;" x="150.381818" xlink:href="#m1ea96634c5" y="175.793991"/>
     <use style="fill-opacity:0;stroke:#00d7ff;stroke-linejoin:miter;" x="190.963636" xlink:href="#m1ea96634c5" y="177.564911"/>
     <use style="fill-opacity:0;stroke:#00d7ff;stroke-linejoin:miter;" x="231.545455" xlink:href="#m1ea96634c5" y="211.708185"/>
     <use style="fill-opacity:0;stroke:#00d7ff;stroke-linejoin:miter;" x="272.127273" xlink:href="#m1ea96634c5" y="213.508572"/>
     <use style="fill-opacity:0;stroke:#00d7ff;stroke-linejoin:miter;" x="312.709091" xlink:href="#m1ea96634c5" y="213.508572"/>
     <use style="fill-opacity:0;stroke:#00d7ff;stroke-linejoin:miter;" x="353.290909" xlink:href="#m1ea96634c5" y="213.508572"/>
    </g>
   </g>
   <g id="line2d_63">
    <path clip-path="url(#peb3357dcb5)" d="M 69.218182 46.593471 
L 69.421091 47.398546 
L 69.624 47.398546 
L 69.826909 52.061265 
L 70.029818 52.982452 
L 70.232727 53.356333 
L 70.435636 54.577372 
L 70.638545 57.606969 
L 70.841455 58.404828 
L 71.044364 63.013313 
L 71.247273 62.882397 
L 71.450182 62.991513 
L 71.653091 66.804468 
L 71.856 72.857907 
L 72.058909 72.89932 
L 72.261818 73.476011 
L 72.464727 78.129836 
L 72.667636 80.056149 
L 72.870545 80.510702 
L 73.073455 83.370571 
L 73.479273 83.4026 
L 73.682182 83.546801 
L 73.885091 82.599652 
L 74.088 84.243267 
L 74.290909 84.233243 
L 74.493818 86.180032 
L 74.696727 90.772126 
L 74.899636 90.885234 
L 75.102545 91.129021 
L 75.508364 92.736033 
L 75.711273 97.332603 
L 75.914182 97.513012 
L 76.117091 97.541642 
L 76.32 98.992693 
L 76.522909 102.145772 
L 76.725818 102.18558 
L 76.928727 102.7872 
L 77.131636 104.335419 
L 77.740364 104.351022 
L 77.943273 104.419982 
L 78.146182 105.864992 
L 78.349091 105.905574 
L 78.552 106.500078 
L 78.957818 108.877894 
L 79.160727 109.213062 
L 79.566545 109.343283 
L 79.769455 112.128973 
L 79.972364 127.407418 
L 80.175273 124.19866 
L 80.581091 124.588505 
L 80.986909 124.758597 
L 81.189818 124.833545 
L 81.392727 125.637307 
L 82.001455 125.711362 
L 82.204364 126.175819 
L 82.407273 126.196314 
L 82.610182 126.433165 
L 82.813091 127.17336 
L 83.624727 127.247218 
L 83.827636 129.610607 
L 84.030545 129.605265 
L 84.436364 129.744135 
L 84.639273 133.75305 
L 84.842182 133.747016 
L 85.045091 133.362068 
L 85.248 133.884698 
L 85.653818 133.944981 
L 85.856727 133.925204 
L 86.059636 134.888986 
L 86.668364 135.133707 
L 86.871273 135.78728 
L 87.074182 135.653039 
L 87.277091 135.662754 
L 87.48 136.616869 
L 87.682909 136.919477 
L 87.885818 136.908783 
L 88.088727 133.580115 
L 88.291636 133.162386 
L 88.494545 133.191581 
L 88.900364 136.400567 
L 89.306182 136.399438 
L 89.712 136.326276 
L 89.914909 135.890781 
L 90.117818 138.080333 
L 90.320727 138.05417 
L 90.523636 141.788891 
L 91.132364 141.802859 
L 91.335273 143.433731 
L 91.538182 143.4276 
L 91.741091 143.590551 
L 92.552727 143.606545 
L 92.755636 145.941649 
L 92.958545 145.993227 
L 93.161455 148.09747 
L 93.364364 148.101557 
L 93.770182 147.931691 
L 94.581818 147.967013 
L 96.408 147.957108 
L 96.610909 151.591483 
L 97.625455 151.567773 
L 97.828364 152.853025 
L 98.234182 152.909997 
L 98.437091 153.255712 
L 98.64 153.263745 
L 99.045818 153.118164 
L 99.248727 155.423521 
L 99.451636 155.498197 
L 99.654545 157.356871 
L 100.060364 157.325137 
L 100.263273 158.73913 
L 100.466182 158.618826 
L 100.669091 162.264548 
L 100.872 162.243765 
L 101.074909 163.350051 
L 102.089455 163.304417 
L 102.292364 163.19549 
L 102.495273 163.847587 
L 102.698182 163.874868 
L 102.901091 168.871223 
L 103.306909 169.025566 
L 103.509818 168.94977 
L 103.712727 169.005648 
L 103.915636 168.930196 
L 104.524364 169.2649 
L 104.727273 169.131779 
L 104.930182 169.247487 
L 105.133091 168.985378 
L 105.336 168.983577 
L 105.538909 169.252949 
L 105.944727 169.198045 
L 106.147636 169.122193 
L 106.350545 170.683242 
L 106.756364 170.466732 
L 107.162182 170.585093 
L 107.365091 170.576385 
L 107.568 170.437094 
L 107.973818 170.447757 
L 108.176727 170.671779 
L 108.379636 171.533109 
L 108.582545 171.520899 
L 108.785455 171.627501 
L 108.988364 171.342841 
L 109.394182 171.44367 
L 110.002909 171.116522 
L 110.205818 171.611051 
L 110.611636 171.748915 
L 110.814545 172.058337 
L 111.017455 173.595054 
L 111.220364 173.279929 
L 111.423273 172.530586 
L 111.626182 172.417711 
L 112.032 172.598653 
L 112.234909 172.350348 
L 112.640727 173.381042 
L 113.249455 173.272634 
L 113.452364 173.872569 
L 113.655273 173.68486 
L 114.061091 173.648142 
L 114.264 173.840564 
L 114.466909 173.643919 
L 114.872727 173.779366 
L 115.278545 173.916616 
L 115.684364 174.097112 
L 115.887273 174.003233 
L 116.090182 173.758289 
L 116.293091 173.694218 
L 116.496 173.894454 
L 116.698909 173.872638 
L 117.510545 174.161436 
L 117.713455 173.903612 
L 118.119273 174.061741 
L 118.525091 173.777371 
L 118.930909 173.994297 
L 119.133818 174.112098 
L 119.336727 173.772159 
L 119.945455 173.964892 
L 120.351273 174.20954 
L 121.365818 173.869632 
L 121.568727 173.841898 
L 121.974545 174.001045 
L 122.380364 173.677602 
L 122.583273 173.67636 
L 122.989091 173.898432 
L 123.192 173.728958 
L 123.394909 173.889456 
L 123.597818 173.793721 
L 123.800727 175.852442 
L 124.206545 175.888696 
L 124.409455 175.800401 
L 125.018182 176.458676 
L 125.424 176.484971 
L 125.829818 175.353227 
L 126.032727 175.309573 
L 126.235636 175.527945 
L 126.438545 175.505464 
L 126.641455 175.753222 
L 126.844364 175.758613 
L 127.047273 176.500593 
L 127.250182 176.296189 
L 128.061818 176.217856 
L 128.264727 176.152761 
L 128.873455 176.314453 
L 129.076364 176.208573 
L 129.685091 176.515211 
L 129.888 176.286189 
L 130.090909 180.030072 
L 130.293818 180.23122 
L 130.699636 180.089652 
L 130.902545 180.125952 
L 131.105455 179.882378 
L 131.511273 179.905736 
L 131.917091 179.72818 
L 132.12 179.516739 
L 132.525818 179.801041 
L 132.728727 179.729982 
L 133.134545 180.005356 
L 133.337455 187.68732 
L 133.540364 187.689224 
L 133.743273 188.007587 
L 133.946182 187.868011 
L 134.149091 188.068038 
L 134.757818 187.673754 
L 134.960727 187.735741 
L 135.163636 187.445641 
L 135.975273 187.658499 
L 136.178182 187.598542 
L 136.786909 186.913542 
L 136.989818 187.6162 
L 137.192727 187.819575 
L 137.395636 186.197818 
L 137.598545 186.26049 
L 137.801455 186.187272 
L 138.004364 186.900248 
L 138.207273 186.931601 
L 138.613091 186.784406 
L 138.816 186.903801 
L 139.018909 186.455907 
L 139.424727 186.330931 
L 139.627636 186.706752 
L 140.236364 186.212291 
L 140.439273 186.286845 
L 140.642182 186.522719 
L 140.845091 186.413855 
L 141.048 186.45911 
L 141.250909 186.334666 
L 141.453818 186.054394 
L 141.656727 186.478172 
L 141.859636 186.429728 
L 142.265455 186.737072 
L 142.468364 187.11533 
L 142.874182 186.83331 
L 143.077091 195.036871 
L 143.28 195.549837 
L 143.482909 195.571333 
L 143.685818 195.204718 
L 143.888727 195.2728 
L 144.091636 195.654812 
L 144.294545 195.340129 
L 144.497455 195.26286 
L 144.700364 194.901218 
L 144.903273 194.963717 
L 145.106182 196.635331 
L 145.309091 196.576267 
L 145.714909 197.867689 
L 146.120727 197.856342 
L 146.323636 197.949518 
L 146.526545 197.799154 
L 146.729455 198.173765 
L 146.932364 197.998033 
L 147.135273 198.374383 
L 147.541091 197.232574 
L 147.744 198.053457 
L 147.946909 200.002851 
L 148.149818 200.395276 
L 148.555636 199.800896 
L 148.758545 199.843967 
L 148.961455 199.768527 
L 149.164364 200.003013 
L 149.367273 202.668728 
L 149.570182 202.651137 
L 149.773091 202.956198 
L 149.976 203.654223 
L 150.178909 203.047517 
L 150.381818 203.563268 
L 150.584727 203.115937 
L 150.787636 203.278388 
L 151.193455 202.511213 
L 151.396364 202.993161 
L 151.599273 203.070202 
L 151.802182 203.344792 
L 152.005091 204.090023 
L 152.208 203.928632 
L 152.410909 205.496198 
L 152.816727 206.646887 
L 153.019636 212.402029 
L 153.222545 212.137976 
L 153.628364 210.944003 
L 154.034182 212.062871 
L 154.44 210.897464 
L 154.642909 210.903555 
L 154.845818 211.027521 
L 155.048727 211.648447 
L 155.251636 210.515207 
L 155.454545 221.138121 
L 155.860364 221.315163 
L 156.266182 219.967552 
L 156.469091 218.524109 
L 156.672 218.489057 
L 156.874909 218.830877 
L 157.077818 220.685413 
L 157.280727 221.404331 
L 157.483636 221.234851 
L 157.686545 221.329857 
L 157.889455 221.158307 
L 158.092364 222.083693 
L 158.295273 222.037694 
L 158.498182 222.417117 
L 158.701091 219.548729 
L 158.904 218.949932 
L 159.106909 215.376748 
L 159.309818 215.562562 
L 159.512727 217.357065 
L 159.715636 216.942704 
L 159.918545 217.168314 
L 160.121455 217.768324 
L 160.527273 218.320454 
L 160.730182 218.626812 
L 160.933091 217.980572 
L 161.136 217.869173 
L 161.338909 218.937278 
L 161.541818 218.987044 
L 161.744727 222.053356 
L 161.947636 221.566509 
L 162.150545 221.790226 
L 162.353455 221.543574 
L 162.556364 220.754797 
L 162.759273 221.185827 
L 162.962182 223.500274 
L 163.165091 223.064018 
L 163.368 222.356482 
L 163.570909 222.241057 
L 163.773818 222.707919 
L 163.976727 221.84851 
L 164.179636 219.870614 
L 164.382545 220.255796 
L 164.585455 219.829411 
L 164.788364 218.620206 
L 165.194182 219.343635 
L 165.6 218.940776 
L 165.802909 219.253548 
L 166.005818 218.775035 
L 166.208727 222.078938 
L 166.411636 221.743363 
L 166.614545 221.999665 
L 166.817455 220.898258 
L 167.020364 221.54372 
L 167.223273 222.808954 
L 167.426182 216.299013 
L 167.629091 215.741025 
L 167.832 216.718653 
L 168.034909 216.108598 
L 168.237818 216.978493 
L 168.440727 216.478094 
L 168.643636 216.386109 
L 168.846545 216.160595 
L 169.049455 215.527921 
L 169.658182 217.022927 
L 169.861091 214.653513 
L 170.064 215.162736 
L 170.469818 213.94896 
L 170.672727 215.028714 
L 170.875636 213.923048 
L 171.078545 214.015442 
L 171.281455 216.050341 
L 171.484364 216.389144 
L 171.890182 215.021178 
L 172.093091 214.520736 
L 172.296 217.570391 
L 172.498909 217.601577 
L 172.904727 219.815836 
L 173.107636 220.94856 
L 173.310545 220.435223 
L 173.513455 220.309614 
L 173.716364 221.027109 
L 173.919273 220.833779 
L 174.122182 219.796739 
L 174.325091 219.749274 
L 174.528 219.456829 
L 174.730909 218.773023 
L 174.933818 219.162974 
L 175.136727 220.663843 
L 175.339636 219.697284 
L 175.542545 219.687852 
L 175.745455 220.546039 
L 175.948364 220.373504 
L 176.151273 220.437332 
L 176.354182 220.010709 
L 176.557091 220.303603 
L 176.76 220.128083 
L 176.962909 219.746059 
L 177.165818 220.386735 
L 177.368727 218.915834 
L 177.571636 219.038938 
L 177.774545 218.99094 
L 177.977455 218.361528 
L 178.586182 220.989399 
L 178.992 221.933904 
L 179.194909 221.737266 
L 179.397818 220.571148 
L 179.600727 220.2428 
L 179.803636 221.01959 
L 180.006545 221.224604 
L 180.615273 219.623207 
L 181.021091 221.427691 
L 181.224 220.337158 
L 181.426909 220.34547 
L 181.629818 221.033124 
L 181.832727 220.720284 
L 182.238545 218.592738 
L 182.644364 220.043415 
L 182.847273 221.471602 
L 183.050182 221.182171 
L 183.253091 221.397337 
L 183.456 220.259032 
L 183.658909 220.923995 
L 183.861818 219.988935 
L 184.064727 220.318257 
L 184.470545 219.949414 
L 184.876364 220.992512 
L 185.079273 218.515133 
L 185.485091 219.276876 
L 185.890909 219.274374 
L 186.093818 219.387546 
L 186.702545 216.987042 
L 187.311273 219.03859 
L 187.514182 218.615998 
L 187.717091 227.168881 
L 187.92 229.116128 
L 188.122909 229.585829 
L 188.325818 229.030618 
L 188.528727 227.91885 
L 188.731636 227.913115 
L 189.137455 229.363888 
L 189.340364 230.181938 
L 189.543273 229.021612 
L 189.746182 229.413667 
L 189.949091 227.186383 
L 190.152 226.880273 
L 190.354909 229.883275 
L 190.557818 229.121043 
L 190.963636 229.888914 
L 191.166545 231.516495 
L 191.369455 230.560307 
L 191.572364 228.797096 
L 191.978182 232.89738 
L 192.181091 231.449574 
L 192.384 232.017681 
L 192.586909 231.466367 
L 192.789818 232.912625 
L 193.398545 233.032838 
L 193.601455 234.559709 
L 194.007273 232.745366 
L 194.210182 231.953658 
L 194.413091 231.749622 
L 194.818909 233.396478 
L 195.021818 233.056622 
L 195.224727 233.395476 
L 195.427636 233.23679 
L 195.630545 232.756396 
L 195.833455 234.001844 
L 196.036364 233.206555 
L 196.239273 233.493591 
L 196.442182 232.596876 
L 196.645091 233.825523 
L 196.848 233.327336 
L 197.050909 234.705817 
L 197.253818 234.47993 
L 197.456727 234.809382 
L 197.659636 233.267081 
L 197.862545 234.224012 
L 198.065455 234.223395 
L 198.268364 231.97596 
L 198.674182 233.595261 
L 198.877091 234.192106 
L 199.08 232.813806 
L 199.282909 232.531336 
L 199.688727 227.301644 
L 199.891636 229.380476 
L 200.094545 228.086282 
L 200.297455 227.866868 
L 200.500364 225.789572 
L 201.109091 229.801583 
L 201.312 229.119406 
L 201.514909 229.806552 
L 201.717818 229.394291 
L 202.123636 230.039171 
L 202.326545 229.986522 
L 202.529455 231.438631 
L 202.732364 230.75368 
L 202.935273 231.714356 
L 203.138182 229.897547 
L 203.341091 229.883822 
L 203.544 230.83596 
L 203.746909 230.236929 
L 203.949818 230.648389 
L 204.152727 232.48305 
L 204.355636 230.352755 
L 204.558545 230.027413 
L 204.761455 230.029257 
L 204.964364 232.262484 
L 205.167273 231.409049 
L 205.370182 231.495087 
L 205.776 230.160567 
L 205.978909 229.584615 
L 206.384727 230.997231 
L 206.993455 232.278627 
L 207.399273 230.872285 
L 207.805091 234.044821 
L 208.210909 236.522149 
L 373.581818 236.522149 
L 373.581818 236.522149 
" style="fill:none;stroke:#8b2be2;stroke-linecap:round;stroke-width:1.2;"/>
    <defs>
     <path d="M -0 3.394113 
L 3.394113 0 
L 0 -3.394113 
L -3.394113 -0 
z
" id="ma69e827cfd" style="stroke:#8b2be2;stroke-linejoin:miter;"/>
    </defs>
    <g clip-path="url(#peb3357dcb5)">
     <use style="fill-opacity:0;stroke:#8b2be2;stroke-linejoin:miter;" x="69.218182" xlink:href="#ma69e827cfd" y="46.593471"/>
     <use style="fill-opacity:0;stroke:#8b2be2;stroke-linejoin:miter;" x="109.8" xlink:href="#ma69e827cfd" y="171.255354"/>
     <use style="fill-opacity:0;stroke:#8b2be2;stroke-linejoin:miter;" x="150.381818" xlink:href="#ma69e827cfd" y="203.563268"/>
     <use style="fill-opacity:0;stroke:#8b2be2;stroke-linejoin:miter;" x="190.963636" xlink:href="#ma69e827cfd" y="229.888914"/>
     <use style="fill-opacity:0;stroke:#8b2be2;stroke-linejoin:miter;" x="231.545455" xlink:href="#ma69e827cfd" y="236.522149"/>
     <use style="fill-opacity:0;stroke:#8b2be2;stroke-linejoin:miter;" x="272.127273" xlink:href="#ma69e827cfd" y="236.522149"/>
     <use style="fill-opacity:0;stroke:#8b2be2;stroke-linejoin:miter;" x="312.709091" xlink:href="#ma69e827cfd" y="236.522149"/>
     <use style="fill-opacity:0;stroke:#8b2be2;stroke-linejoin:miter;" x="353.290909" xlink:href="#ma69e827cfd" y="236.522149"/>
    </g>
   </g>
   <g id="patch_3">
    <path d="M 54 256.32 
L 54 34.56 
" style="fill:none;stroke:#000000;stroke-linecap:square;stroke-linejoin:miter;"/>
   </g>
   <g id="patch_4">
    <path d="M 388.8 256.32 
L 388.8 34.56 
" style="fill:none;stroke:#000000;stroke-linecap:square;stroke-linejoin:miter;"/>
   </g>
   <g id="patch_5">
    <path d="M 54 256.32 
L 388.8 256.32 
" style="fill:none;stroke:#000000;stroke-linecap:square;stroke-linejoin:miter;"/>
   </g>
   <g id="patch_6">
    <path d="M 54 34.56 
L 388.8 34.56 
" style="fill:none;stroke:#000000;stroke-linecap:square;stroke-linejoin:miter;"/>
   </g>
   <g id="legend_1">
    <g id="patch_7">
     <path d="M 276.864 117.9543 
L 383.52 117.9543 
L 383.52 39.84 
L 276.864 39.84 
z
" style="fill:#ffffff;opacity:0.8;stroke:#000000;stroke-linejoin:miter;stroke-width:0.8;"/>
    </g>
    <g id="line2d_64">
     <path d="M 281.088 48.06195 
L 302.208 48.06195 
" style="fill:none;stroke:#023eff;stroke-linecap:round;stroke-width:1.2;"/>
    </g>
    <g id="line2d_65">
     <g>
      <use style="fill-opacity:0;stroke:#023eff;" x="291.648" xlink:href="#m772d176232" y="48.06195"/>
     </g>
    </g>
    <g id="text_13">
     <!-- MOEA/D-Lvy -->
     <defs>
      <path d="M 7.421875 0 
L 7.421875 71.578125 
L 21.6875 71.578125 
L 38.625 20.90625 
Q 40.96875 13.8125 42.046875 10.296875 
Q 43.265625 14.203125 45.84375 21.78125 
L 62.984375 71.578125 
L 75.734375 71.578125 
L 75.734375 0 
L 66.609375 0 
L 66.609375 59.90625 
L 45.796875 0 
L 37.25 0 
L 16.546875 60.9375 
L 16.546875 0 
z
" id="ArialMT-77"/>
      <path d="M 4.828125 34.859375 
Q 4.828125 52.6875 14.390625 62.765625 
Q 23.96875 72.859375 39.109375 72.859375 
Q 49.03125 72.859375 56.984375 68.109375 
Q 64.9375 63.375 69.109375 54.90625 
Q 73.296875 46.4375 73.296875 35.6875 
Q 73.296875 24.8125 68.890625 16.21875 
Q 64.5 7.625 56.4375 3.203125 
Q 48.390625 -1.21875 39.0625 -1.21875 
Q 28.953125 -1.21875 20.984375 3.65625 
Q 13.03125 8.546875 8.921875 16.984375 
Q 4.828125 25.4375 4.828125 34.859375 
z
M 14.59375 34.71875 
Q 14.59375 21.78125 21.546875 14.328125 
Q 28.515625 6.890625 39.015625 6.890625 
Q 49.703125 6.890625 56.609375 14.40625 
Q 63.53125 21.921875 63.53125 35.75 
Q 63.53125 44.484375 60.578125 51 
Q 57.625 57.515625 51.921875 61.109375 
Q 46.234375 64.703125 39.15625 64.703125 
Q 29.109375 64.703125 21.84375 57.78125 
Q 14.59375 50.875 14.59375 34.71875 
z
" id="ArialMT-79"/>
      <path d="M 7.90625 0 
L 7.90625 71.578125 
L 59.671875 71.578125 
L 59.671875 63.140625 
L 17.390625 63.140625 
L 17.390625 41.21875 
L 56.984375 41.21875 
L 56.984375 32.8125 
L 17.390625 32.8125 
L 17.390625 8.453125 
L 61.328125 8.453125 
L 61.328125 0 
z
" id="ArialMT-69"/>
      <path d="M -0.140625 0 
L 27.34375 71.578125 
L 37.546875 71.578125 
L 66.84375 0 
L 56.0625 0 
L 47.703125 21.6875 
L 17.78125 21.6875 
L 9.90625 0 
z
M 20.515625 29.390625 
L 44.78125 29.390625 
L 37.3125 49.21875 
Q 33.890625 58.25 32.234375 64.0625 
Q 30.859375 57.171875 28.375 50.390625 
z
" id="ArialMT-65"/>
      <path d="M 0 -1.21875 
L 20.75 72.796875 
L 27.78125 72.796875 
L 7.078125 -1.21875 
z
" id="ArialMT-47"/>
      <path d="M 3.171875 21.484375 
L 3.171875 30.328125 
L 30.171875 30.328125 
L 30.171875 21.484375 
z
" id="ArialMT-45"/>
      <path d="M 7.328125 0 
L 7.328125 71.578125 
L 16.796875 71.578125 
L 16.796875 8.453125 
L 52.046875 8.453125 
L 52.046875 0 
z
" id="ArialMT-76"/>
      <path d="M 42.09375 16.703125 
L 51.171875 15.578125 
Q 49.03125 7.625 43.21875 3.21875 
Q 37.40625 -1.171875 28.375 -1.171875 
Q 17 -1.171875 10.328125 5.828125 
Q 3.65625 12.84375 3.65625 25.484375 
Q 3.65625 38.578125 10.390625 45.796875 
Q 17.140625 53.03125 27.875 53.03125 
Q 38.28125 53.03125 44.875 45.953125 
Q 51.46875 38.875 51.46875 26.03125 
Q 51.46875 25.25 51.421875 23.6875 
L 12.75 23.6875 
Q 13.234375 15.140625 17.578125 10.59375 
Q 21.921875 6.0625 28.421875 6.0625 
Q 33.25 6.0625 36.671875 8.59375 
Q 40.09375 11.140625 42.09375 16.703125 
z
M 13.234375 30.90625 
L 42.1875 30.90625 
Q 41.609375 37.453125 38.875 40.71875 
Q 34.671875 45.796875 27.984375 45.796875 
Q 21.921875 45.796875 17.796875 41.75 
Q 13.671875 37.703125 13.234375 30.90625 
z
M 22.71875 58.296875 
L 29.203125 71.96875 
L 40.734375 71.96875 
L 29.984375 58.296875 
z
" id="ArialMT-233"/>
      <path d="M 21 0 
L 1.265625 51.859375 
L 10.546875 51.859375 
L 21.6875 20.796875 
Q 23.484375 15.765625 25 10.359375 
Q 26.171875 14.453125 28.265625 20.21875 
L 39.796875 51.859375 
L 48.828125 51.859375 
L 29.203125 0 
z
" id="ArialMT-118"/>
      <path d="M 6.203125 -19.96875 
L 5.21875 -11.71875 
Q 8.109375 -12.5 10.25 -12.5 
Q 13.1875 -12.5 14.9375 -11.515625 
Q 16.703125 -10.546875 17.828125 -8.796875 
Q 18.65625 -7.46875 20.515625 -2.25 
Q 20.75 -1.515625 21.296875 -0.09375 
L 1.609375 51.859375 
L 11.078125 51.859375 
L 21.875 21.828125 
Q 23.96875 16.109375 25.640625 9.8125 
Q 27.15625 15.875 29.25 21.625 
L 40.328125 51.859375 
L 49.125 51.859375 
L 29.390625 -0.875 
Q 26.21875 -9.421875 24.46875 -12.640625 
Q 22.125 -17 19.09375 -19.015625 
Q 16.0625 -21.046875 11.859375 -21.046875 
Q 9.328125 -21.046875 6.203125 -19.96875 
z
" id="ArialMT-121"/>
     </defs>
     <g transform="translate(310.656 51.75795)scale(0.1056 -0.1056)">
      <use xlink:href="#ArialMT-77"/>
      <use x="83.300781" xlink:href="#ArialMT-79"/>
      <use x="161.083984" xlink:href="#ArialMT-69"/>
      <use x="227.783203" xlink:href="#ArialMT-65"/>
      <use x="294.482422" xlink:href="#ArialMT-47"/>
      <use x="322.265625" xlink:href="#ArialMT-68"/>
      <use x="394.482422" xlink:href="#ArialMT-45"/>
      <use x="427.783203" xlink:href="#ArialMT-76"/>
      <use x="483.398438" xlink:href="#ArialMT-233"/>
      <use x="539.013672" xlink:href="#ArialMT-118"/>
      <use x="589.013672" xlink:href="#ArialMT-121"/>
     </g>
    </g>
    <g id="line2d_66">
     <path d="M 281.088 63.12315 
L 302.208 63.12315 
" style="fill:none;stroke:#1ac938;stroke-linecap:round;stroke-width:1.2;"/>
    </g>
    <g id="line2d_67">
     <g>
      <use style="fill-opacity:0;stroke:#1ac938;stroke-linejoin:miter;" x="291.648" xlink:href="#mc1b2ee77bc" y="63.12315"/>
     </g>
    </g>
    <g id="text_14">
     <!-- MOEA/D-DEM -->
     <g transform="translate(310.656 66.81915)scale(0.1056 -0.1056)">
      <use xlink:href="#ArialMT-77"/>
      <use x="83.300781" xlink:href="#ArialMT-79"/>
      <use x="161.083984" xlink:href="#ArialMT-69"/>
      <use x="227.783203" xlink:href="#ArialMT-65"/>
      <use x="294.482422" xlink:href="#ArialMT-47"/>
      <use x="322.265625" xlink:href="#ArialMT-68"/>
      <use x="394.482422" xlink:href="#ArialMT-45"/>
      <use x="427.783203" xlink:href="#ArialMT-68"/>
      <use x="500" xlink:href="#ArialMT-69"/>
      <use x="566.699219" xlink:href="#ArialMT-77"/>
     </g>
    </g>
    <g id="line2d_68">
     <path d="M 281.088 78.0606 
L 302.208 78.0606 
" style="fill:none;stroke:#e8000b;stroke-linecap:round;stroke-width:1.2;"/>
    </g>
    <g id="line2d_69">
     <g>
      <use style="fill-opacity:0;stroke:#e8000b;stroke-linejoin:miter;" x="291.648" xlink:href="#me8a7a390d8" y="78.0606"/>
     </g>
    </g>
    <g id="text_15">
     <!-- MOEA/D-DE -->
     <g transform="translate(310.656 81.7566)scale(0.1056 -0.1056)">
      <use xlink:href="#ArialMT-77"/>
      <use x="83.300781" xlink:href="#ArialMT-79"/>
      <use x="161.083984" xlink:href="#ArialMT-69"/>
      <use x="227.783203" xlink:href="#ArialMT-65"/>
      <use x="294.482422" xlink:href="#ArialMT-47"/>
      <use x="322.265625" xlink:href="#ArialMT-68"/>
      <use x="394.482422" xlink:href="#ArialMT-45"/>
      <use x="427.783203" xlink:href="#ArialMT-68"/>
      <use x="500" xlink:href="#ArialMT-69"/>
     </g>
    </g>
    <g id="line2d_70">
     <path d="M 281.088 92.99805 
L 302.208 92.99805 
" style="fill:none;stroke:#00d7ff;stroke-linecap:round;stroke-width:1.2;"/>
    </g>
    <g id="line2d_71">
     <g>
      <use style="fill-opacity:0;stroke:#00d7ff;stroke-linejoin:miter;" x="291.648" xlink:href="#m1ea96634c5" y="92.99805"/>
     </g>
    </g>
    <g id="text_16">
     <!-- MOEA/D-GA -->
     <g transform="translate(310.656 96.69405)scale(0.1056 -0.1056)">
      <use xlink:href="#ArialMT-77"/>
      <use x="83.300781" xlink:href="#ArialMT-79"/>
      <use x="161.083984" xlink:href="#ArialMT-69"/>
      <use x="227.783203" xlink:href="#ArialMT-65"/>
      <use x="294.482422" xlink:href="#ArialMT-47"/>
      <use x="322.265625" xlink:href="#ArialMT-68"/>
      <use x="394.482422" xlink:href="#ArialMT-45"/>
      <use x="427.783203" xlink:href="#ArialMT-71"/>
      <use x="505.566406" xlink:href="#ArialMT-65"/>
     </g>
    </g>
    <g id="line2d_72">
     <path d="M 281.088 107.9355 
L 302.208 107.9355 
" style="fill:none;stroke:#8b2be2;stroke-linecap:round;stroke-width:1.2;"/>
    </g>
    <g id="line2d_73">
     <g>
      <use style="fill-opacity:0;stroke:#8b2be2;stroke-linejoin:miter;" x="291.648" xlink:href="#ma69e827cfd" y="107.9355"/>
     </g>
    </g>
    <g id="text_17">
     <!-- NSGA-II -->
     <defs>
      <path d="M 7.625 0 
L 7.625 71.578125 
L 17.328125 71.578125 
L 54.9375 15.375 
L 54.9375 71.578125 
L 64.015625 71.578125 
L 64.015625 0 
L 54.296875 0 
L 16.703125 56.25 
L 16.703125 0 
z
" id="ArialMT-78"/>
      <path d="M 4.5 23 
L 13.421875 23.78125 
Q 14.0625 18.40625 16.375 14.96875 
Q 18.703125 11.53125 23.578125 9.40625 
Q 28.46875 7.28125 34.578125 7.28125 
Q 39.984375 7.28125 44.140625 8.890625 
Q 48.296875 10.5 50.3125 13.296875 
Q 52.34375 16.109375 52.34375 19.4375 
Q 52.34375 22.796875 50.390625 25.3125 
Q 48.4375 27.828125 43.953125 29.546875 
Q 41.0625 30.671875 31.203125 33.03125 
Q 21.34375 35.40625 17.390625 37.5 
Q 12.25 40.1875 9.734375 44.15625 
Q 7.234375 48.140625 7.234375 53.078125 
Q 7.234375 58.5 10.296875 63.203125 
Q 13.375 67.921875 19.28125 70.359375 
Q 25.203125 72.796875 32.421875 72.796875 
Q 40.375 72.796875 46.453125 70.234375 
Q 52.546875 67.671875 55.8125 62.6875 
Q 59.078125 57.71875 59.328125 51.421875 
L 50.25 50.734375 
Q 49.515625 57.515625 45.28125 60.984375 
Q 41.0625 64.453125 32.8125 64.453125 
Q 24.21875 64.453125 20.28125 61.296875 
Q 16.359375 58.15625 16.359375 53.71875 
Q 16.359375 49.859375 19.140625 47.359375 
Q 21.875 44.875 33.421875 42.265625 
Q 44.96875 39.65625 49.265625 37.703125 
Q 55.515625 34.8125 58.484375 30.390625 
Q 61.46875 25.984375 61.46875 20.21875 
Q 61.46875 14.5 58.203125 9.4375 
Q 54.9375 4.390625 48.796875 1.578125 
Q 42.671875 -1.21875 35.015625 -1.21875 
Q 25.296875 -1.21875 18.71875 1.609375 
Q 12.15625 4.4375 8.421875 10.125 
Q 4.6875 15.828125 4.5 23 
z
" id="ArialMT-83"/>
     </defs>
     <g transform="translate(310.656 111.6315)scale(0.1056 -0.1056)">
      <use xlink:href="#ArialMT-78"/>
      <use x="72.216797" xlink:href="#ArialMT-83"/>
      <use x="138.916016" xlink:href="#ArialMT-71"/>
      <use x="216.699219" xlink:href="#ArialMT-65"/>
      <use x="283.398438" xlink:href="#ArialMT-45"/>
      <use x="316.699219" xlink:href="#ArialMT-73"/>
      <use x="344.482422" xlink:href="#ArialMT-73"/>
     </g>
    </g>
   </g>
  </g>
 </g>
 <defs>
  <clipPath id="peb3357dcb5">
   <rect height="221.76" width="334.8" x="54" y="34.56"/>
  </clipPath>
 </defs>
</svg>
