<?xml version="1.0" encoding="utf-8" standalone="no"?>
<!DOCTYPE svg PUBLIC "-//W3C//DTD SVG 1.1//EN"
  "http://www.w3.org/Graphics/SVG/1.1/DTD/svg11.dtd">
<!-- Created with matplotlib (https://matplotlib.org/) -->
<svg height="288pt" version="1.1" viewBox="0 0 432 288" width="432pt" xmlns="http://www.w3.org/2000/svg" xmlns:xlink="http://www.w3.org/1999/xlink">
 <defs>
  <style type="text/css">
*{stroke-linecap:butt;stroke-linejoin:round;}
  </style>
 </defs>
 <g id="figure_1">
  <g id="patch_1">
   <path d="M 0 288 
L 432 288 
L 432 0 
L 0 0 
z
" style="fill:#ffffff;"/>
  </g>
  <g id="axes_1">
   <g id="patch_2">
    <path d="M 54 256.32 
L 388.8 256.32 
L 388.8 34.56 
L 54 34.56 
z
" style="fill:#ffffff;"/>
   </g>
   <g id="matplotlib.axis_1">
    <g id="xtick_1">
     <g id="line2d_1">
      <defs>
       <path d="M 0 0 
L 0 -3 
" id="m72de8be458" style="stroke:#000000;"/>
      </defs>
      <g>
       <use style="stroke:#000000;" x="69.218182" xlink:href="#m72de8be458" y="256.32"/>
      </g>
     </g>
     <g id="line2d_2">
      <defs>
       <path d="M 0 0 
L 0 3 
" id="m3baf480a9f" style="stroke:#000000;"/>
      </defs>
      <g>
       <use style="stroke:#000000;" x="69.218182" xlink:href="#m3baf480a9f" y="34.56"/>
      </g>
     </g>
     <g id="text_1">
      <!-- 0 -->
      <defs>
       <path d="M 4.15625 35.296875 
Q 4.15625 48 6.765625 55.734375 
Q 9.375 63.484375 14.515625 67.671875 
Q 19.671875 71.875 27.484375 71.875 
Q 33.25 71.875 37.59375 69.546875 
Q 41.9375 67.234375 44.765625 62.859375 
Q 47.609375 58.5 49.21875 52.21875 
Q 50.828125 45.953125 50.828125 35.296875 
Q 50.828125 22.703125 48.234375 14.96875 
Q 45.65625 7.234375 40.5 3 
Q 35.359375 -1.21875 27.484375 -1.21875 
Q 17.140625 -1.21875 11.234375 6.203125 
Q 4.15625 15.140625 4.15625 35.296875 
z
M 13.1875 35.296875 
Q 13.1875 17.671875 17.3125 11.828125 
Q 21.4375 6 27.484375 6 
Q 33.546875 6 37.671875 11.859375 
Q 41.796875 17.71875 41.796875 35.296875 
Q 41.796875 52.984375 37.671875 58.78125 
Q 33.546875 64.59375 27.390625 64.59375 
Q 21.34375 64.59375 17.71875 59.46875 
Q 13.1875 52.9375 13.1875 35.296875 
z
" id="ArialMT-48"/>
      </defs>
      <g transform="translate(66.282007 267.37865)scale(0.1056 -0.1056)">
       <use xlink:href="#ArialMT-48"/>
      </g>
     </g>
    </g>
    <g id="xtick_2">
     <g id="line2d_3">
      <g>
       <use style="stroke:#000000;" x="109.8" xlink:href="#m72de8be458" y="256.32"/>
      </g>
     </g>
     <g id="line2d_4">
      <g>
       <use style="stroke:#000000;" x="109.8" xlink:href="#m3baf480a9f" y="34.56"/>
      </g>
     </g>
     <g id="text_2">
      <!-- 200 -->
      <defs>
       <path d="M 50.34375 8.453125 
L 50.34375 0 
L 3.03125 0 
Q 2.9375 3.171875 4.046875 6.109375 
Q 5.859375 10.9375 9.828125 15.625 
Q 13.8125 20.3125 21.34375 26.46875 
Q 33.015625 36.03125 37.109375 41.625 
Q 41.21875 47.21875 41.21875 52.203125 
Q 41.21875 57.421875 37.46875 61 
Q 33.734375 64.59375 27.734375 64.59375 
Q 21.390625 64.59375 17.578125 60.78125 
Q 13.765625 56.984375 13.71875 50.25 
L 4.6875 51.171875 
Q 5.609375 61.28125 11.65625 66.578125 
Q 17.71875 71.875 27.9375 71.875 
Q 38.234375 71.875 44.234375 66.15625 
Q 50.25 60.453125 50.25 52 
Q 50.25 47.703125 48.484375 43.546875 
Q 46.734375 39.40625 42.65625 34.8125 
Q 38.578125 30.21875 29.109375 22.21875 
Q 21.1875 15.578125 18.9375 13.203125 
Q 16.703125 10.84375 15.234375 8.453125 
z
" id="ArialMT-50"/>
      </defs>
      <g transform="translate(100.991475 267.37865)scale(0.1056 -0.1056)">
       <use xlink:href="#ArialMT-50"/>
       <use x="55.615234" xlink:href="#ArialMT-48"/>
       <use x="111.230469" xlink:href="#ArialMT-48"/>
      </g>
     </g>
    </g>
    <g id="xtick_3">
     <g id="line2d_5">
      <g>
       <use style="stroke:#000000;" x="150.381818" xlink:href="#m72de8be458" y="256.32"/>
      </g>
     </g>
     <g id="line2d_6">
      <g>
       <use style="stroke:#000000;" x="150.381818" xlink:href="#m3baf480a9f" y="34.56"/>
      </g>
     </g>
     <g id="text_3">
      <!-- 400 -->
      <defs>
       <path d="M 32.328125 0 
L 32.328125 17.140625 
L 1.265625 17.140625 
L 1.265625 25.203125 
L 33.9375 71.578125 
L 41.109375 71.578125 
L 41.109375 25.203125 
L 50.78125 25.203125 
L 50.78125 17.140625 
L 41.109375 17.140625 
L 41.109375 0 
z
M 32.328125 25.203125 
L 32.328125 57.46875 
L 9.90625 25.203125 
z
" id="ArialMT-52"/>
      </defs>
      <g transform="translate(141.573293 267.37865)scale(0.1056 -0.1056)">
       <use xlink:href="#ArialMT-52"/>
       <use x="55.615234" xlink:href="#ArialMT-48"/>
       <use x="111.230469" xlink:href="#ArialMT-48"/>
      </g>
     </g>
    </g>
    <g id="xtick_4">
     <g id="line2d_7">
      <g>
       <use style="stroke:#000000;" x="190.963636" xlink:href="#m72de8be458" y="256.32"/>
      </g>
     </g>
     <g id="line2d_8">
      <g>
       <use style="stroke:#000000;" x="190.963636" xlink:href="#m3baf480a9f" y="34.56"/>
      </g>
     </g>
     <g id="text_4">
      <!-- 600 -->
      <defs>
       <path d="M 49.75 54.046875 
L 41.015625 53.375 
Q 39.84375 58.546875 37.703125 60.890625 
Q 34.125 64.65625 28.90625 64.65625 
Q 24.703125 64.65625 21.53125 62.3125 
Q 17.390625 59.28125 14.984375 53.46875 
Q 12.59375 47.65625 12.5 36.921875 
Q 15.671875 41.75 20.265625 44.09375 
Q 24.859375 46.4375 29.890625 46.4375 
Q 38.671875 46.4375 44.84375 39.96875 
Q 51.03125 33.5 51.03125 23.25 
Q 51.03125 16.5 48.125 10.71875 
Q 45.21875 4.9375 40.140625 1.859375 
Q 35.0625 -1.21875 28.609375 -1.21875 
Q 17.625 -1.21875 10.6875 6.859375 
Q 3.765625 14.9375 3.765625 33.5 
Q 3.765625 54.25 11.421875 63.671875 
Q 18.109375 71.875 29.4375 71.875 
Q 37.890625 71.875 43.28125 67.140625 
Q 48.6875 62.40625 49.75 54.046875 
z
M 13.875 23.1875 
Q 13.875 18.65625 15.796875 14.5 
Q 17.71875 10.359375 21.1875 8.171875 
Q 24.65625 6 28.46875 6 
Q 34.03125 6 38.03125 10.484375 
Q 42.046875 14.984375 42.046875 22.703125 
Q 42.046875 30.125 38.078125 34.390625 
Q 34.125 38.671875 28.125 38.671875 
Q 22.171875 38.671875 18.015625 34.390625 
Q 13.875 30.125 13.875 23.1875 
z
" id="ArialMT-54"/>
      </defs>
      <g transform="translate(182.155111 267.37865)scale(0.1056 -0.1056)">
       <use xlink:href="#ArialMT-54"/>
       <use x="55.615234" xlink:href="#ArialMT-48"/>
       <use x="111.230469" xlink:href="#ArialMT-48"/>
      </g>
     </g>
    </g>
    <g id="xtick_5">
     <g id="line2d_9">
      <g>
       <use style="stroke:#000000;" x="231.545455" xlink:href="#m72de8be458" y="256.32"/>
      </g>
     </g>
     <g id="line2d_10">
      <g>
       <use style="stroke:#000000;" x="231.545455" xlink:href="#m3baf480a9f" y="34.56"/>
      </g>
     </g>
     <g id="text_5">
      <!-- 800 -->
      <defs>
       <path d="M 17.671875 38.8125 
Q 12.203125 40.828125 9.5625 44.53125 
Q 6.9375 48.25 6.9375 53.421875 
Q 6.9375 61.234375 12.546875 66.546875 
Q 18.171875 71.875 27.484375 71.875 
Q 36.859375 71.875 42.578125 66.421875 
Q 48.296875 60.984375 48.296875 53.171875 
Q 48.296875 48.1875 45.671875 44.5 
Q 43.0625 40.828125 37.75 38.8125 
Q 44.34375 36.671875 47.78125 31.875 
Q 51.21875 27.09375 51.21875 20.453125 
Q 51.21875 11.28125 44.71875 5.03125 
Q 38.234375 -1.21875 27.640625 -1.21875 
Q 17.046875 -1.21875 10.546875 5.046875 
Q 4.046875 11.328125 4.046875 20.703125 
Q 4.046875 27.6875 7.59375 32.390625 
Q 11.140625 37.109375 17.671875 38.8125 
z
M 15.921875 53.71875 
Q 15.921875 48.640625 19.1875 45.40625 
Q 22.46875 42.1875 27.6875 42.1875 
Q 32.765625 42.1875 36.015625 45.375 
Q 39.265625 48.578125 39.265625 53.21875 
Q 39.265625 58.0625 35.90625 61.359375 
Q 32.5625 64.65625 27.59375 64.65625 
Q 22.5625 64.65625 19.234375 61.421875 
Q 15.921875 58.203125 15.921875 53.71875 
z
M 13.09375 20.65625 
Q 13.09375 16.890625 14.875 13.375 
Q 16.65625 9.859375 20.171875 7.921875 
Q 23.6875 6 27.734375 6 
Q 34.03125 6 38.125 10.046875 
Q 42.234375 14.109375 42.234375 20.359375 
Q 42.234375 26.703125 38.015625 30.859375 
Q 33.796875 35.015625 27.4375 35.015625 
Q 21.234375 35.015625 17.15625 30.90625 
Q 13.09375 26.8125 13.09375 20.65625 
z
" id="ArialMT-56"/>
      </defs>
      <g transform="translate(222.73693 267.37865)scale(0.1056 -0.1056)">
       <use xlink:href="#ArialMT-56"/>
       <use x="55.615234" xlink:href="#ArialMT-48"/>
       <use x="111.230469" xlink:href="#ArialMT-48"/>
      </g>
     </g>
    </g>
    <g id="xtick_6">
     <g id="line2d_11">
      <g>
       <use style="stroke:#000000;" x="272.127273" xlink:href="#m72de8be458" y="256.32"/>
      </g>
     </g>
     <g id="line2d_12">
      <g>
       <use style="stroke:#000000;" x="272.127273" xlink:href="#m3baf480a9f" y="34.56"/>
      </g>
     </g>
     <g id="text_6">
      <!-- 1000 -->
      <defs>
       <path d="M 37.25 0 
L 28.46875 0 
L 28.46875 56 
Q 25.296875 52.984375 20.140625 49.953125 
Q 14.984375 46.921875 10.890625 45.40625 
L 10.890625 53.90625 
Q 18.265625 57.375 23.78125 62.296875 
Q 29.296875 67.234375 31.59375 71.875 
L 37.25 71.875 
z
" id="ArialMT-49"/>
      </defs>
      <g transform="translate(260.382573 267.37865)scale(0.1056 -0.1056)">
       <use xlink:href="#ArialMT-49"/>
       <use x="55.615234" xlink:href="#ArialMT-48"/>
       <use x="111.230469" xlink:href="#ArialMT-48"/>
       <use x="166.845703" xlink:href="#ArialMT-48"/>
      </g>
     </g>
    </g>
    <g id="xtick_7">
     <g id="line2d_13">
      <g>
       <use style="stroke:#000000;" x="312.709091" xlink:href="#m72de8be458" y="256.32"/>
      </g>
     </g>
     <g id="line2d_14">
      <g>
       <use style="stroke:#000000;" x="312.709091" xlink:href="#m3baf480a9f" y="34.56"/>
      </g>
     </g>
     <g id="text_7">
      <!-- 1200 -->
      <g transform="translate(300.964391 267.37865)scale(0.1056 -0.1056)">
       <use xlink:href="#ArialMT-49"/>
       <use x="55.615234" xlink:href="#ArialMT-50"/>
       <use x="111.230469" xlink:href="#ArialMT-48"/>
       <use x="166.845703" xlink:href="#ArialMT-48"/>
      </g>
     </g>
    </g>
    <g id="xtick_8">
     <g id="line2d_15">
      <g>
       <use style="stroke:#000000;" x="353.290909" xlink:href="#m72de8be458" y="256.32"/>
      </g>
     </g>
     <g id="line2d_16">
      <g>
       <use style="stroke:#000000;" x="353.290909" xlink:href="#m3baf480a9f" y="34.56"/>
      </g>
     </g>
     <g id="text_8">
      <!-- 1400 -->
      <g transform="translate(341.546209 267.37865)scale(0.1056 -0.1056)">
       <use xlink:href="#ArialMT-49"/>
       <use x="55.615234" xlink:href="#ArialMT-52"/>
       <use x="111.230469" xlink:href="#ArialMT-48"/>
       <use x="166.845703" xlink:href="#ArialMT-48"/>
      </g>
     </g>
    </g>
    <g id="text_9">
     <!-- Generations -->
     <defs>
      <path d="M 41.21875 28.078125 
L 41.21875 36.46875 
L 71.53125 36.53125 
L 71.53125 9.96875 
Q 64.546875 4.390625 57.125 1.578125 
Q 49.703125 -1.21875 41.890625 -1.21875 
Q 31.34375 -1.21875 22.71875 3.296875 
Q 14.109375 7.8125 9.71875 16.359375 
Q 5.328125 24.90625 5.328125 35.453125 
Q 5.328125 45.90625 9.6875 54.953125 
Q 14.0625 64.015625 22.265625 68.40625 
Q 30.46875 72.796875 41.15625 72.796875 
Q 48.921875 72.796875 55.1875 70.28125 
Q 61.46875 67.78125 65.03125 63.28125 
Q 68.609375 58.796875 70.453125 51.5625 
L 61.921875 49.21875 
Q 60.296875 54.6875 57.90625 57.8125 
Q 55.515625 60.9375 51.0625 62.8125 
Q 46.625 64.703125 41.21875 64.703125 
Q 34.71875 64.703125 29.984375 62.71875 
Q 25.25 60.75 22.34375 57.515625 
Q 19.4375 54.296875 17.828125 50.4375 
Q 15.09375 43.796875 15.09375 36.03125 
Q 15.09375 26.46875 18.390625 20.015625 
Q 21.6875 13.578125 27.984375 10.453125 
Q 34.28125 7.328125 41.359375 7.328125 
Q 47.515625 7.328125 53.375 9.6875 
Q 59.234375 12.0625 62.25 14.75 
L 62.25 28.078125 
z
" id="ArialMT-71"/>
      <path d="M 42.09375 16.703125 
L 51.171875 15.578125 
Q 49.03125 7.625 43.21875 3.21875 
Q 37.40625 -1.171875 28.375 -1.171875 
Q 17 -1.171875 10.328125 5.828125 
Q 3.65625 12.84375 3.65625 25.484375 
Q 3.65625 38.578125 10.390625 45.796875 
Q 17.140625 53.03125 27.875 53.03125 
Q 38.28125 53.03125 44.875 45.953125 
Q 51.46875 38.875 51.46875 26.03125 
Q 51.46875 25.25 51.421875 23.6875 
L 12.75 23.6875 
Q 13.234375 15.140625 17.578125 10.59375 
Q 21.921875 6.0625 28.421875 6.0625 
Q 33.25 6.0625 36.671875 8.59375 
Q 40.09375 11.140625 42.09375 16.703125 
z
M 13.234375 30.90625 
L 42.1875 30.90625 
Q 41.609375 37.453125 38.875 40.71875 
Q 34.671875 45.796875 27.984375 45.796875 
Q 21.921875 45.796875 17.796875 41.75 
Q 13.671875 37.703125 13.234375 30.90625 
z
" id="ArialMT-101"/>
      <path d="M 6.59375 0 
L 6.59375 51.859375 
L 14.5 51.859375 
L 14.5 44.484375 
Q 20.21875 53.03125 31 53.03125 
Q 35.6875 53.03125 39.625 51.34375 
Q 43.5625 49.65625 45.515625 46.921875 
Q 47.46875 44.1875 48.25 40.4375 
Q 48.734375 37.984375 48.734375 31.890625 
L 48.734375 0 
L 39.9375 0 
L 39.9375 31.546875 
Q 39.9375 36.921875 38.90625 39.578125 
Q 37.890625 42.234375 35.28125 43.8125 
Q 32.671875 45.40625 29.15625 45.40625 
Q 23.53125 45.40625 19.453125 41.84375 
Q 15.375 38.28125 15.375 28.328125 
L 15.375 0 
z
" id="ArialMT-110"/>
      <path d="M 6.5 0 
L 6.5 51.859375 
L 14.40625 51.859375 
L 14.40625 44 
Q 17.4375 49.515625 20 51.265625 
Q 22.5625 53.03125 25.640625 53.03125 
Q 30.078125 53.03125 34.671875 50.203125 
L 31.640625 42.046875 
Q 28.421875 43.953125 25.203125 43.953125 
Q 22.3125 43.953125 20.015625 42.21875 
Q 17.71875 40.484375 16.75 37.40625 
Q 15.28125 32.71875 15.28125 27.15625 
L 15.28125 0 
z
" id="ArialMT-114"/>
      <path d="M 40.4375 6.390625 
Q 35.546875 2.25 31.03125 0.53125 
Q 26.515625 -1.171875 21.34375 -1.171875 
Q 12.796875 -1.171875 8.203125 3 
Q 3.609375 7.171875 3.609375 13.671875 
Q 3.609375 17.484375 5.34375 20.625 
Q 7.078125 23.78125 9.890625 25.6875 
Q 12.703125 27.59375 16.21875 28.5625 
Q 18.796875 29.25 24.03125 29.890625 
Q 34.671875 31.15625 39.703125 32.90625 
Q 39.75 34.71875 39.75 35.203125 
Q 39.75 40.578125 37.25 42.78125 
Q 33.890625 45.75 27.25 45.75 
Q 21.046875 45.75 18.09375 43.578125 
Q 15.140625 41.40625 13.71875 35.890625 
L 5.125 37.0625 
Q 6.296875 42.578125 8.984375 45.96875 
Q 11.671875 49.359375 16.75 51.1875 
Q 21.828125 53.03125 28.515625 53.03125 
Q 35.15625 53.03125 39.296875 51.46875 
Q 43.453125 49.90625 45.40625 47.53125 
Q 47.359375 45.171875 48.140625 41.546875 
Q 48.578125 39.3125 48.578125 33.453125 
L 48.578125 21.734375 
Q 48.578125 9.46875 49.140625 6.21875 
Q 49.703125 2.984375 51.375 0 
L 42.1875 0 
Q 40.828125 2.734375 40.4375 6.390625 
z
M 39.703125 26.03125 
Q 34.90625 24.078125 25.34375 22.703125 
Q 19.921875 21.921875 17.671875 20.9375 
Q 15.4375 19.96875 14.203125 18.09375 
Q 12.984375 16.21875 12.984375 13.921875 
Q 12.984375 10.40625 15.640625 8.0625 
Q 18.3125 5.71875 23.4375 5.71875 
Q 28.515625 5.71875 32.46875 7.9375 
Q 36.421875 10.15625 38.28125 14.015625 
Q 39.703125 17 39.703125 22.796875 
z
" id="ArialMT-97"/>
      <path d="M 25.78125 7.859375 
L 27.046875 0.09375 
Q 23.34375 -0.6875 20.40625 -0.6875 
Q 15.625 -0.6875 12.984375 0.828125 
Q 10.359375 2.34375 9.28125 4.8125 
Q 8.203125 7.28125 8.203125 15.1875 
L 8.203125 45.015625 
L 1.765625 45.015625 
L 1.765625 51.859375 
L 8.203125 51.859375 
L 8.203125 64.703125 
L 16.9375 69.96875 
L 16.9375 51.859375 
L 25.78125 51.859375 
L 25.78125 45.015625 
L 16.9375 45.015625 
L 16.9375 14.703125 
Q 16.9375 10.9375 17.40625 9.859375 
Q 17.875 8.796875 18.921875 8.15625 
Q 19.96875 7.515625 21.921875 7.515625 
Q 23.390625 7.515625 25.78125 7.859375 
z
" id="ArialMT-116"/>
      <path d="M 6.640625 61.46875 
L 6.640625 71.578125 
L 15.4375 71.578125 
L 15.4375 61.46875 
z
M 6.640625 0 
L 6.640625 51.859375 
L 15.4375 51.859375 
L 15.4375 0 
z
" id="ArialMT-105"/>
      <path d="M 3.328125 25.921875 
Q 3.328125 40.328125 11.328125 47.265625 
Q 18.015625 53.03125 27.640625 53.03125 
Q 38.328125 53.03125 45.109375 46.015625 
Q 51.90625 39.015625 51.90625 26.65625 
Q 51.90625 16.65625 48.90625 10.90625 
Q 45.90625 5.171875 40.15625 2 
Q 34.421875 -1.171875 27.640625 -1.171875 
Q 16.75 -1.171875 10.03125 5.8125 
Q 3.328125 12.796875 3.328125 25.921875 
z
M 12.359375 25.921875 
Q 12.359375 15.96875 16.703125 11.015625 
Q 21.046875 6.0625 27.640625 6.0625 
Q 34.1875 6.0625 38.53125 11.03125 
Q 42.875 16.015625 42.875 26.21875 
Q 42.875 35.84375 38.5 40.796875 
Q 34.125 45.75 27.640625 45.75 
Q 21.046875 45.75 16.703125 40.8125 
Q 12.359375 35.890625 12.359375 25.921875 
z
" id="ArialMT-111"/>
      <path d="M 3.078125 15.484375 
L 11.765625 16.84375 
Q 12.5 11.625 15.84375 8.84375 
Q 19.1875 6.0625 25.203125 6.0625 
Q 31.25 6.0625 34.171875 8.515625 
Q 37.109375 10.984375 37.109375 14.3125 
Q 37.109375 17.28125 34.515625 19 
Q 32.71875 20.171875 25.53125 21.96875 
Q 15.875 24.421875 12.140625 26.203125 
Q 8.40625 27.984375 6.46875 31.125 
Q 4.546875 34.28125 4.546875 38.09375 
Q 4.546875 41.546875 6.125 44.5 
Q 7.71875 47.46875 10.453125 49.421875 
Q 12.5 50.921875 16.03125 51.96875 
Q 19.578125 53.03125 23.640625 53.03125 
Q 29.734375 53.03125 34.34375 51.265625 
Q 38.96875 49.515625 41.15625 46.5 
Q 43.359375 43.5 44.1875 38.484375 
L 35.59375 37.3125 
Q 35.015625 41.3125 32.203125 43.546875 
Q 29.390625 45.796875 24.265625 45.796875 
Q 18.21875 45.796875 15.625 43.796875 
Q 13.03125 41.796875 13.03125 39.109375 
Q 13.03125 37.40625 14.109375 36.03125 
Q 15.1875 34.625 17.484375 33.6875 
Q 18.796875 33.203125 25.25 31.453125 
Q 34.578125 28.953125 38.25 27.359375 
Q 41.9375 25.78125 44.03125 22.75 
Q 46.140625 19.734375 46.140625 15.234375 
Q 46.140625 10.84375 43.578125 6.953125 
Q 41.015625 3.078125 36.171875 0.953125 
Q 31.34375 -1.171875 25.25 -1.171875 
Q 15.140625 -1.171875 9.84375 3.03125 
Q 4.546875 7.234375 3.078125 15.484375 
z
" id="ArialMT-115"/>
     </defs>
     <g transform="translate(190.0233 281.72325)scale(0.1152 -0.1152)">
      <use xlink:href="#ArialMT-71"/>
      <use x="77.783203" xlink:href="#ArialMT-101"/>
      <use x="133.398438" xlink:href="#ArialMT-110"/>
      <use x="189.013672" xlink:href="#ArialMT-101"/>
      <use x="244.628906" xlink:href="#ArialMT-114"/>
      <use x="277.929688" xlink:href="#ArialMT-97"/>
      <use x="333.544922" xlink:href="#ArialMT-116"/>
      <use x="361.328125" xlink:href="#ArialMT-105"/>
      <use x="383.544922" xlink:href="#ArialMT-111"/>
      <use x="439.160156" xlink:href="#ArialMT-110"/>
      <use x="494.775391" xlink:href="#ArialMT-115"/>
     </g>
    </g>
   </g>
   <g id="matplotlib.axis_2">
    <g id="ytick_1">
     <g id="line2d_17">
      <defs>
       <path d="M 0 0 
L 3 0 
" id="mbf2fce2285" style="stroke:#000000;"/>
      </defs>
      <g>
       <use style="stroke:#000000;" x="54" xlink:href="#mbf2fce2285" y="186.450868"/>
      </g>
     </g>
     <g id="line2d_18">
      <defs>
       <path d="M 0 0 
L -3 0 
" id="md91d9cda9f" style="stroke:#000000;"/>
      </defs>
      <g>
       <use style="stroke:#000000;" x="388.8" xlink:href="#md91d9cda9f" y="186.450868"/>
      </g>
     </g>
     <g id="text_10">
      <!-- $\mathdefault{10^{-4}}$ -->
      <defs>
       <path d="M 52.828125 31.203125 
L 5.5625 31.203125 
L 5.5625 39.40625 
L 52.828125 39.40625 
z
" id="ArialMT-8722"/>
      </defs>
      <g transform="translate(29.5912 191.843068)scale(0.1056 -0.1056)">
       <use transform="translate(0 0.201563)" xlink:href="#ArialMT-49"/>
       <use transform="translate(55.615234 0.201563)" xlink:href="#ArialMT-48"/>
       <use transform="translate(112.972813 69.895313)scale(0.7)" xlink:href="#ArialMT-8722"/>
       <use transform="translate(153.851719 69.895313)scale(0.7)" xlink:href="#ArialMT-52"/>
      </g>
     </g>
    </g>
    <g id="ytick_2">
     <g id="line2d_19">
      <g>
       <use style="stroke:#000000;" x="54" xlink:href="#mbf2fce2285" y="83.79784"/>
      </g>
     </g>
     <g id="line2d_20">
      <g>
       <use style="stroke:#000000;" x="388.8" xlink:href="#md91d9cda9f" y="83.79784"/>
      </g>
     </g>
     <g id="text_11">
      <!-- $\mathdefault{10^{-3}}$ -->
      <defs>
       <path d="M 4.203125 18.890625 
L 12.984375 20.0625 
Q 14.5 12.59375 18.140625 9.296875 
Q 21.78125 6 27 6 
Q 33.203125 6 37.46875 10.296875 
Q 41.75 14.59375 41.75 20.953125 
Q 41.75 27 37.796875 30.921875 
Q 33.84375 34.859375 27.734375 34.859375 
Q 25.25 34.859375 21.53125 33.890625 
L 22.515625 41.609375 
Q 23.390625 41.5 23.921875 41.5 
Q 29.546875 41.5 34.03125 44.421875 
Q 38.53125 47.359375 38.53125 53.46875 
Q 38.53125 58.296875 35.25 61.46875 
Q 31.984375 64.65625 26.8125 64.65625 
Q 21.6875 64.65625 18.265625 61.421875 
Q 14.84375 58.203125 13.875 51.765625 
L 5.078125 53.328125 
Q 6.6875 62.15625 12.390625 67.015625 
Q 18.109375 71.875 26.609375 71.875 
Q 32.46875 71.875 37.390625 69.359375 
Q 42.328125 66.84375 44.9375 62.5 
Q 47.5625 58.15625 47.5625 53.265625 
Q 47.5625 48.640625 45.0625 44.828125 
Q 42.578125 41.015625 37.703125 38.765625 
Q 44.046875 37.3125 47.5625 32.6875 
Q 51.078125 28.078125 51.078125 21.140625 
Q 51.078125 11.765625 44.234375 5.25 
Q 37.40625 -1.265625 26.953125 -1.265625 
Q 17.53125 -1.265625 11.296875 4.34375 
Q 5.078125 9.96875 4.203125 18.890625 
z
" id="ArialMT-51"/>
      </defs>
      <g transform="translate(29.5912 89.24284)scale(0.1056 -0.1056)">
       <use transform="translate(0 0.99375)" xlink:href="#ArialMT-49"/>
       <use transform="translate(55.615234 0.99375)" xlink:href="#ArialMT-48"/>
       <use transform="translate(112.972813 70.6875)scale(0.7)" xlink:href="#ArialMT-8722"/>
       <use transform="translate(153.851719 70.6875)scale(0.7)" xlink:href="#ArialMT-51"/>
      </g>
     </g>
    </g>
    <g id="ytick_3">
     <g id="line2d_21">
      <defs>
       <path d="M 0 0 
L 3.2 0 
" id="m3f3a4c47bf" style="stroke:#000000;stroke-width:0.8;"/>
      </defs>
      <g>
       <use style="stroke:#000000;stroke-width:0.8;" x="54" xlink:href="#m3f3a4c47bf" y="240.125954"/>
      </g>
     </g>
     <g id="line2d_22">
      <defs>
       <path d="M 0 0 
L -3.2 0 
" id="mde771e759e" style="stroke:#000000;stroke-width:0.8;"/>
      </defs>
      <g>
       <use style="stroke:#000000;stroke-width:0.8;" x="388.8" xlink:href="#mde771e759e" y="240.125954"/>
      </g>
     </g>
    </g>
    <g id="ytick_4">
     <g id="line2d_23">
      <g>
       <use style="stroke:#000000;stroke-width:0.8;" x="54" xlink:href="#m3f3a4c47bf" y="227.300614"/>
      </g>
     </g>
     <g id="line2d_24">
      <g>
       <use style="stroke:#000000;stroke-width:0.8;" x="388.8" xlink:href="#mde771e759e" y="227.300614"/>
      </g>
     </g>
    </g>
    <g id="ytick_5">
     <g id="line2d_25">
      <g>
       <use style="stroke:#000000;stroke-width:0.8;" x="54" xlink:href="#m3f3a4c47bf" y="217.352508"/>
      </g>
     </g>
     <g id="line2d_26">
      <g>
       <use style="stroke:#000000;stroke-width:0.8;" x="388.8" xlink:href="#mde771e759e" y="217.352508"/>
      </g>
     </g>
    </g>
    <g id="ytick_6">
     <g id="line2d_27">
      <g>
       <use style="stroke:#000000;stroke-width:0.8;" x="54" xlink:href="#m3f3a4c47bf" y="209.224314"/>
      </g>
     </g>
     <g id="line2d_28">
      <g>
       <use style="stroke:#000000;stroke-width:0.8;" x="388.8" xlink:href="#mde771e759e" y="209.224314"/>
      </g>
     </g>
    </g>
    <g id="ytick_7">
     <g id="line2d_29">
      <g>
       <use style="stroke:#000000;stroke-width:0.8;" x="54" xlink:href="#m3f3a4c47bf" y="202.352023"/>
      </g>
     </g>
     <g id="line2d_30">
      <g>
       <use style="stroke:#000000;stroke-width:0.8;" x="388.8" xlink:href="#mde771e759e" y="202.352023"/>
      </g>
     </g>
    </g>
    <g id="ytick_8">
     <g id="line2d_31">
      <g>
       <use style="stroke:#000000;stroke-width:0.8;" x="54" xlink:href="#m3f3a4c47bf" y="196.398974"/>
      </g>
     </g>
     <g id="line2d_32">
      <g>
       <use style="stroke:#000000;stroke-width:0.8;" x="388.8" xlink:href="#mde771e759e" y="196.398974"/>
      </g>
     </g>
    </g>
    <g id="ytick_9">
     <g id="line2d_33">
      <g>
       <use style="stroke:#000000;stroke-width:0.8;" x="54" xlink:href="#m3f3a4c47bf" y="191.148013"/>
      </g>
     </g>
     <g id="line2d_34">
      <g>
       <use style="stroke:#000000;stroke-width:0.8;" x="388.8" xlink:href="#mde771e759e" y="191.148013"/>
      </g>
     </g>
    </g>
    <g id="ytick_10">
     <g id="line2d_35">
      <g>
       <use style="stroke:#000000;stroke-width:0.8;" x="54" xlink:href="#m3f3a4c47bf" y="155.549227"/>
      </g>
     </g>
     <g id="line2d_36">
      <g>
       <use style="stroke:#000000;stroke-width:0.8;" x="388.8" xlink:href="#mde771e759e" y="155.549227"/>
      </g>
     </g>
    </g>
    <g id="ytick_11">
     <g id="line2d_37">
      <g>
       <use style="stroke:#000000;stroke-width:0.8;" x="54" xlink:href="#m3f3a4c47bf" y="137.472926"/>
      </g>
     </g>
     <g id="line2d_38">
      <g>
       <use style="stroke:#000000;stroke-width:0.8;" x="388.8" xlink:href="#mde771e759e" y="137.472926"/>
      </g>
     </g>
    </g>
    <g id="ytick_12">
     <g id="line2d_39">
      <g>
       <use style="stroke:#000000;stroke-width:0.8;" x="54" xlink:href="#m3f3a4c47bf" y="124.647587"/>
      </g>
     </g>
     <g id="line2d_40">
      <g>
       <use style="stroke:#000000;stroke-width:0.8;" x="388.8" xlink:href="#mde771e759e" y="124.647587"/>
      </g>
     </g>
    </g>
    <g id="ytick_13">
     <g id="line2d_41">
      <g>
       <use style="stroke:#000000;stroke-width:0.8;" x="54" xlink:href="#m3f3a4c47bf" y="114.69948"/>
      </g>
     </g>
     <g id="line2d_42">
      <g>
       <use style="stroke:#000000;stroke-width:0.8;" x="388.8" xlink:href="#mde771e759e" y="114.69948"/>
      </g>
     </g>
    </g>
    <g id="ytick_14">
     <g id="line2d_43">
      <g>
       <use style="stroke:#000000;stroke-width:0.8;" x="54" xlink:href="#m3f3a4c47bf" y="106.571286"/>
      </g>
     </g>
     <g id="line2d_44">
      <g>
       <use style="stroke:#000000;stroke-width:0.8;" x="388.8" xlink:href="#mde771e759e" y="106.571286"/>
      </g>
     </g>
    </g>
    <g id="ytick_15">
     <g id="line2d_45">
      <g>
       <use style="stroke:#000000;stroke-width:0.8;" x="54" xlink:href="#m3f3a4c47bf" y="99.698995"/>
      </g>
     </g>
     <g id="line2d_46">
      <g>
       <use style="stroke:#000000;stroke-width:0.8;" x="388.8" xlink:href="#mde771e759e" y="99.698995"/>
      </g>
     </g>
    </g>
    <g id="ytick_16">
     <g id="line2d_47">
      <g>
       <use style="stroke:#000000;stroke-width:0.8;" x="54" xlink:href="#m3f3a4c47bf" y="93.745946"/>
      </g>
     </g>
     <g id="line2d_48">
      <g>
       <use style="stroke:#000000;stroke-width:0.8;" x="388.8" xlink:href="#mde771e759e" y="93.745946"/>
      </g>
     </g>
    </g>
    <g id="ytick_17">
     <g id="line2d_49">
      <g>
       <use style="stroke:#000000;stroke-width:0.8;" x="54" xlink:href="#m3f3a4c47bf" y="88.494985"/>
      </g>
     </g>
     <g id="line2d_50">
      <g>
       <use style="stroke:#000000;stroke-width:0.8;" x="388.8" xlink:href="#mde771e759e" y="88.494985"/>
      </g>
     </g>
    </g>
    <g id="ytick_18">
     <g id="line2d_51">
      <g>
       <use style="stroke:#000000;stroke-width:0.8;" x="54" xlink:href="#m3f3a4c47bf" y="52.896199"/>
      </g>
     </g>
     <g id="line2d_52">
      <g>
       <use style="stroke:#000000;stroke-width:0.8;" x="388.8" xlink:href="#mde771e759e" y="52.896199"/>
      </g>
     </g>
    </g>
    <g id="ytick_19">
     <g id="line2d_53">
      <g>
       <use style="stroke:#000000;stroke-width:0.8;" x="54" xlink:href="#m3f3a4c47bf" y="34.819899"/>
      </g>
     </g>
     <g id="line2d_54">
      <g>
       <use style="stroke:#000000;stroke-width:0.8;" x="388.8" xlink:href="#mde771e759e" y="34.819899"/>
      </g>
     </g>
    </g>
    <g id="text_12">
     <!-- IGD -->
     <defs>
      <path d="M 9.328125 0 
L 9.328125 71.578125 
L 18.796875 71.578125 
L 18.796875 0 
z
" id="ArialMT-73"/>
      <path d="M 7.71875 0 
L 7.71875 71.578125 
L 32.375 71.578125 
Q 40.71875 71.578125 45.125 70.5625 
Q 51.265625 69.140625 55.609375 65.4375 
Q 61.28125 60.640625 64.078125 53.1875 
Q 66.890625 45.75 66.890625 36.1875 
Q 66.890625 28.03125 64.984375 21.734375 
Q 63.09375 15.4375 60.109375 11.296875 
Q 57.125 7.171875 53.578125 4.796875 
Q 50.046875 2.4375 45.046875 1.21875 
Q 40.046875 0 33.546875 0 
z
M 17.1875 8.453125 
L 32.46875 8.453125 
Q 39.546875 8.453125 43.578125 9.765625 
Q 47.609375 11.078125 50 13.484375 
Q 53.375 16.84375 55.25 22.53125 
Q 57.125 28.21875 57.125 36.328125 
Q 57.125 47.5625 53.4375 53.59375 
Q 49.75 59.625 44.484375 61.671875 
Q 40.671875 63.140625 32.234375 63.140625 
L 17.1875 63.140625 
z
" id="ArialMT-68"/>
     </defs>
     <g transform="translate(23.3016 155.6802)rotate(-90)scale(0.1152 -0.1152)">
      <use xlink:href="#ArialMT-73"/>
      <use x="27.783203" xlink:href="#ArialMT-71"/>
      <use x="105.566406" xlink:href="#ArialMT-68"/>
     </g>
    </g>
   </g>
   <g id="line2d_55">
    <path clip-path="url(#p61a70e10d9)" d="M 69.218182 44.963662 
L 69.421091 84.708952 
L 69.624 97.710732 
L 69.826909 98.58342 
L 70.029818 121.357709 
L 70.435636 126.283006 
L 71.450182 147.388283 
L 72.058909 158.035593 
L 72.261818 159.857326 
L 72.667636 165.289384 
L 72.870545 167.705539 
L 73.073455 168.753778 
L 73.276364 171.093008 
L 73.479273 171.4596 
L 73.682182 170.675897 
L 73.885091 171.725116 
L 74.088 171.285454 
L 74.290909 172.640398 
L 74.493818 175.328454 
L 74.899636 176.420423 
L 75.102545 177.446287 
L 75.305455 177.818098 
L 75.914182 179.771344 
L 76.32 180.832482 
L 76.522909 182.863563 
L 76.928727 184.204093 
L 77.131636 185.066726 
L 77.334545 184.28131 
L 77.537455 184.513232 
L 77.740364 185.215614 
L 77.943273 184.684622 
L 78.146182 185.457363 
L 78.349091 182.475604 
L 78.552 183.976566 
L 78.754909 183.327131 
L 78.957818 185.124977 
L 79.160727 185.217809 
L 79.566545 187.641033 
L 79.769455 186.097132 
L 79.972364 186.664085 
L 80.175273 163.779228 
L 80.378182 160.10888 
L 81.189818 162.534777 
L 81.392727 161.76108 
L 82.001455 165.424671 
L 82.204364 165.659556 
L 82.407273 164.914836 
L 82.610182 169.499038 
L 82.813091 170.403476 
L 83.016 172.621811 
L 83.218909 172.53309 
L 83.421818 172.706372 
L 83.827636 174.010316 
L 84.030545 174.072877 
L 84.436364 177.160927 
L 84.842182 177.456223 
L 85.045091 177.641584 
L 85.248 173.236177 
L 86.059636 175.12932 
L 86.465455 175.386339 
L 86.668364 175.223234 
L 87.277091 175.859911 
L 87.48 175.826296 
L 87.682909 175.91017 
L 88.494545 176.982853 
L 89.103273 177.29764 
L 89.306182 177.361216 
L 89.509091 181.093652 
L 89.914909 180.560037 
L 90.117818 180.425562 
L 90.320727 181.28715 
L 90.523636 172.717653 
L 90.726545 168.848871 
L 90.929455 168.958622 
L 91.132364 170.20225 
L 91.944 172.033849 
L 92.146909 171.954398 
L 92.552727 172.604031 
L 92.755636 173.162631 
L 92.958545 172.888061 
L 93.161455 173.48508 
L 93.364364 173.550284 
L 93.567273 173.742242 
L 93.770182 175.542155 
L 94.176 175.35262 
L 94.987636 175.465169 
L 95.393455 175.860734 
L 95.799273 176.015162 
L 96.002182 175.848345 
L 96.205091 175.883384 
L 96.408 176.179661 
L 97.625455 176.346459 
L 97.828364 176.66932 
L 98.64 176.980463 
L 99.045818 177.152034 
L 99.451636 177.263523 
L 99.654545 178.30002 
L 99.857455 182.46605 
L 100.060364 181.576166 
L 100.263273 181.495559 
L 100.466182 181.790856 
L 100.669091 181.613662 
L 100.872 181.203424 
L 101.277818 181.601153 
L 101.480727 182.814088 
L 101.683636 182.90909 
L 101.886545 182.535824 
L 102.089455 182.73255 
L 102.292364 183.289148 
L 102.495273 186.333201 
L 103.104 186.210243 
L 103.306909 185.618929 
L 103.509818 185.722105 
L 103.915636 185.560532 
L 104.321455 185.934389 
L 104.524364 185.91123 
L 104.930182 186.116477 
L 105.133091 188.65535 
L 105.336 194.628091 
L 105.538909 192.462099 
L 105.741818 192.486085 
L 106.147636 193.96004 
L 106.553455 194.103603 
L 106.959273 194.779667 
L 107.162182 194.997148 
L 107.365091 193.541779 
L 107.568 197.09524 
L 107.973818 197.118682 
L 108.176727 196.998712 
L 108.379636 196.352378 
L 108.988364 197.075395 
L 109.191273 200.612548 
L 109.394182 200.810648 
L 109.597091 200.842858 
L 109.8 200.488317 
L 110.205818 200.949081 
L 110.408727 199.663294 
L 110.611636 199.711589 
L 111.017455 200.439913 
L 111.423273 200.572857 
L 111.626182 200.716639 
L 111.829091 201.176075 
L 112.234909 201.195244 
L 112.437818 202.150753 
L 112.640727 202.265685 
L 112.843636 198.593158 
L 113.046545 197.572649 
L 113.249455 195.802203 
L 113.452364 195.425739 
L 113.858182 195.964921 
L 114.061091 195.958606 
L 115.075636 196.78622 
L 115.278545 196.816587 
L 115.481455 196.979754 
L 115.684364 197.328466 
L 115.887273 197.335266 
L 116.090182 196.595746 
L 116.293091 200.687592 
L 116.496 200.398419 
L 116.698909 201.280339 
L 116.901818 200.583483 
L 117.307636 200.653482 
L 117.510545 201.042541 
L 118.322182 201.337187 
L 118.728 201.801996 
L 119.133818 201.877918 
L 119.945455 202.244355 
L 120.351273 202.331721 
L 120.554182 201.784835 
L 121.162909 202.231866 
L 121.365818 202.548407 
L 121.771636 202.586024 
L 122.177455 202.676367 
L 122.380364 203.084205 
L 122.583273 203.100195 
L 122.786182 203.569732 
L 122.989091 203.585837 
L 123.192 204.400673 
L 123.800727 204.361319 
L 124.815273 204.716756 
L 125.018182 204.404923 
L 125.221091 204.587305 
L 125.424 204.595174 
L 125.626909 204.452175 
L 125.829818 204.467199 
L 126.032727 205.384059 
L 128.061818 205.436144 
L 128.264727 209.147773 
L 128.467636 208.853047 
L 128.670545 209.450951 
L 128.873455 209.234254 
L 129.076364 209.352436 
L 129.279273 208.452969 
L 130.090909 208.900135 
L 130.293818 208.788958 
L 130.699636 208.8321 
L 131.105455 209.367232 
L 131.714182 209.452561 
L 131.917091 213.235855 
L 132.12 212.744009 
L 132.525818 212.462849 
L 132.728727 211.612953 
L 133.134545 211.644375 
L 133.337455 211.907796 
L 133.743273 211.858074 
L 134.149091 212.667904 
L 134.554909 213.058279 
L 134.757818 212.860931 
L 135.366545 213.061931 
L 135.772364 213.262964 
L 135.975273 213.247072 
L 136.381091 213.498532 
L 136.786909 213.671023 
L 136.989818 219.018158 
L 137.395636 218.769856 
L 137.598545 218.802399 
L 137.801455 218.51311 
L 138.004364 218.680928 
L 138.410182 218.545171 
L 138.613091 219.239582 
L 138.816 219.372037 
L 139.018909 218.861753 
L 140.033455 219.035746 
L 140.236364 223.489861 
L 140.439273 222.820423 
L 140.642182 222.670645 
L 140.845091 222.724519 
L 141.048 221.782347 
L 141.250909 222.025253 
L 141.453818 222.089375 
L 141.656727 222.296523 
L 142.062545 222.236259 
L 142.265455 222.604701 
L 142.468364 222.578323 
L 142.671273 224.25137 
L 142.874182 224.407323 
L 143.077091 224.281393 
L 143.28 226.14919 
L 143.482909 226.145108 
L 143.685818 226.840322 
L 143.888727 227.105299 
L 144.091636 226.657559 
L 144.497455 226.883197 
L 144.700364 226.695154 
L 144.903273 235.580206 
L 145.106182 226.232356 
L 145.309091 227.388014 
L 145.512 229.663718 
L 145.714909 230.350331 
L 145.917818 230.425759 
L 146.120727 223.542845 
L 146.323636 210.209486 
L 146.526545 211.017435 
L 146.729455 213.85159 
L 147.135273 220.936657 
L 147.338182 222.230181 
L 147.541091 222.107849 
L 147.946909 224.977269 
L 148.149818 225.223344 
L 148.352727 226.437075 
L 148.555636 226.443521 
L 148.758545 226.573704 
L 149.164364 227.579928 
L 149.367273 227.565089 
L 149.570182 228.925631 
L 149.773091 229.067573 
L 149.976 228.135552 
L 150.178909 227.965051 
L 150.381818 228.140619 
L 150.584727 229.813771 
L 150.787636 229.328741 
L 150.990545 229.393309 
L 151.396364 229.219889 
L 151.802182 229.311309 
L 152.005091 230.400099 
L 152.208 230.406326 
L 152.613818 230.117862 
L 152.816727 230.114399 
L 153.019636 229.759354 
L 153.222545 229.923172 
L 153.425455 230.91524 
L 154.034182 231.509716 
L 154.44 231.503862 
L 154.642909 231.863227 
L 154.845818 236.168971 
L 155.251636 234.436671 
L 156.063273 233.760106 
L 156.266182 234.159041 
L 156.469091 234.054746 
L 156.672 233.786268 
L 156.874909 234.302773 
L 157.077818 233.957347 
L 157.280727 234.228139 
L 157.483636 236.551299 
L 157.686545 236.580758 
L 157.889455 236.388106 
L 158.092364 237.392277 
L 158.295273 237.430834 
L 158.498182 237.226112 
L 158.701091 237.495623 
L 158.904 238.672514 
L 159.715636 238.790834 
L 160.121455 239.491829 
L 160.324364 239.71453 
L 160.527273 239.55327 
L 160.730182 239.963355 
L 160.933091 239.961654 
L 161.136 238.57754 
L 161.541818 238.728675 
L 161.744727 239.224411 
L 162.150545 239.337997 
L 162.353455 240.777845 
L 162.556364 240.6051 
L 162.759273 240.592584 
L 162.962182 240.738719 
L 163.165091 240.384626 
L 163.368 240.315335 
L 163.570909 240.489533 
L 163.976727 240.216331 
L 164.179636 240.330418 
L 164.382545 240.766947 
L 164.788364 240.85131 
L 164.991273 242.387627 
L 165.397091 242.265725 
L 165.802909 242.716593 
L 166.208727 242.753969 
L 166.614545 242.919598 
L 167.020364 243.060682 
L 167.223273 243.018614 
L 167.629091 243.410411 
L 168.237818 243.309272 
L 168.440727 244.05926 
L 168.643636 243.96047 
L 168.846545 244.064442 
L 169.049455 244.015308 
L 170.064 241.870622 
L 170.469818 241.749677 
L 170.672727 241.717906 
L 170.875636 241.378191 
L 171.078545 241.339573 
L 171.281455 241.507388 
L 171.484364 243.442901 
L 171.687273 243.427296 
L 172.093091 243.710019 
L 172.296 244.447964 
L 172.498909 244.448897 
L 172.701818 244.565656 
L 173.310545 245.467842 
L 173.513455 245.362549 
L 173.716364 245.906581 
L 174.122182 246.068262 
L 176.557091 246.24 
L 373.581818 246.24 
L 373.581818 246.24 
" style="fill:none;stroke:#023eff;stroke-linecap:round;stroke-width:1.2;"/>
    <defs>
     <path d="M 0 2.4 
C 0.636487 2.4 1.246992 2.147121 1.697056 1.697056 
C 2.147121 1.246992 2.4 0.636487 2.4 0 
C 2.4 -0.636487 2.147121 -1.246992 1.697056 -1.697056 
C 1.246992 -2.147121 0.636487 -2.4 0 -2.4 
C -0.636487 -2.4 -1.246992 -2.147121 -1.697056 -1.697056 
C -2.147121 -1.246992 -2.4 -0.636487 -2.4 0 
C -2.4 0.636487 -2.147121 1.246992 -1.697056 1.697056 
C -1.246992 2.147121 -0.636487 2.4 0 2.4 
z
" id="m8535224639" style="stroke:#023eff;"/>
    </defs>
    <g clip-path="url(#p61a70e10d9)">
     <use style="fill-opacity:0;stroke:#023eff;" x="69.218182" xlink:href="#m8535224639" y="44.963662"/>
     <use style="fill-opacity:0;stroke:#023eff;" x="109.8" xlink:href="#m8535224639" y="200.488317"/>
     <use style="fill-opacity:0;stroke:#023eff;" x="150.381818" xlink:href="#m8535224639" y="228.140619"/>
     <use style="fill-opacity:0;stroke:#023eff;" x="190.963636" xlink:href="#m8535224639" y="246.24"/>
     <use style="fill-opacity:0;stroke:#023eff;" x="231.545455" xlink:href="#m8535224639" y="246.24"/>
     <use style="fill-opacity:0;stroke:#023eff;" x="272.127273" xlink:href="#m8535224639" y="246.24"/>
     <use style="fill-opacity:0;stroke:#023eff;" x="312.709091" xlink:href="#m8535224639" y="246.24"/>
     <use style="fill-opacity:0;stroke:#023eff;" x="353.290909" xlink:href="#m8535224639" y="246.24"/>
    </g>
   </g>
   <g id="line2d_56">
    <path clip-path="url(#p61a70e10d9)" d="M 69.218182 44.64 
L 69.421091 46.201277 
L 69.624 46.009834 
L 70.029818 50.273238 
L 70.232727 50.341067 
L 70.435636 50.998053 
L 70.638545 52.594541 
L 71.044364 57.259752 
L 71.247273 57.718045 
L 71.450182 58.758043 
L 71.653091 61.288226 
L 71.856 61.661781 
L 72.058909 68.046679 
L 72.261818 67.960553 
L 72.464727 70.46573 
L 72.667636 70.478085 
L 72.870545 74.662891 
L 73.073455 74.434615 
L 73.276364 75.723581 
L 73.479273 75.867766 
L 73.682182 78.797558 
L 73.885091 79.841236 
L 74.088 80.131608 
L 74.290909 80.103983 
L 74.493818 80.393547 
L 74.899636 80.413754 
L 75.102545 81.650891 
L 75.305455 81.68034 
L 75.508364 83.271109 
L 75.914182 84.411568 
L 76.117091 84.593379 
L 76.32 84.620018 
L 76.522909 86.387617 
L 76.725818 87.130931 
L 77.537455 98.005874 
L 77.740364 97.71771 
L 78.146182 102.749597 
L 78.349091 104.800103 
L 78.552 104.128171 
L 78.754909 104.248073 
L 79.160727 105.545273 
L 79.566545 108.47334 
L 79.769455 108.541239 
L 79.972364 119.395887 
L 80.175273 121.495309 
L 80.378182 121.755958 
L 80.581091 125.762369 
L 80.784 125.765407 
L 80.986909 127.923412 
L 81.189818 128.022097 
L 81.392727 127.890954 
L 81.595636 130.596948 
L 82.001455 131.168571 
L 82.204364 132.117421 
L 82.407273 131.998626 
L 82.610182 130.399539 
L 82.813091 129.686964 
L 83.016 131.092138 
L 83.218909 135.16035 
L 83.624727 135.419001 
L 83.827636 135.407837 
L 84.030545 136.676594 
L 84.233455 137.0973 
L 84.436364 138.152 
L 84.639273 138.133741 
L 85.045091 140.909219 
L 85.248 141.234371 
L 85.450909 144.112391 
L 85.653818 144.137842 
L 85.856727 142.591141 
L 86.059636 142.383757 
L 86.465455 147.164778 
L 86.668364 147.52797 
L 86.871273 153.840742 
L 87.074182 150.48785 
L 87.277091 153.361134 
L 87.682909 165.592905 
L 87.885818 167.008665 
L 88.291636 172.714128 
L 88.494545 173.290207 
L 88.697455 174.401777 
L 88.900364 174.054465 
L 89.103273 178.480313 
L 89.306182 179.413812 
L 89.509091 182.558397 
L 89.712 183.546587 
L 90.117818 187.35795 
L 90.320727 187.157775 
L 90.929455 189.296884 
L 91.132364 189.491824 
L 91.741091 191.677109 
L 92.349818 192.577563 
L 92.552727 195.063927 
L 92.755636 195.755304 
L 92.958545 196.007902 
L 93.161455 196.599231 
L 93.567273 196.964252 
L 93.973091 197.697071 
L 94.176 197.881675 
L 94.378909 198.626084 
L 95.393455 199.912362 
L 95.596364 200.132655 
L 95.799273 199.497532 
L 96.002182 199.643809 
L 96.813818 201.342291 
L 98.031273 202.320704 
L 98.234182 202.204633 
L 99.045818 202.888923 
L 99.451636 202.824127 
L 99.654545 203.156874 
L 99.857455 203.147041 
L 100.060364 203.320838 
L 100.263273 203.643488 
L 100.669091 203.815762 
L 100.872 204.101172 
L 102.698182 204.70504 
L 103.306909 204.887767 
L 103.712727 205.02761 
L 103.915636 205.468068 
L 105.133091 205.73986 
L 105.538909 205.889109 
L 106.959273 206.126626 
L 107.365091 206.206746 
L 108.582545 206.413568 
L 108.785455 206.44786 
L 108.988364 209.942096 
L 109.191273 209.777854 
L 111.829091 210.361741 
L 112.843636 210.442095 
L 113.046545 210.363104 
L 113.452364 210.415131 
L 114.669818 210.416855 
L 115.075636 210.444079 
L 116.293091 210.559342 
L 116.496 217.494441 
L 116.901818 215.164678 
L 117.104727 215.715146 
L 117.713455 215.782814 
L 117.916364 216.541368 
L 118.322182 216.859974 
L 118.525091 217.367677 
L 118.728 217.382568 
L 119.133818 218.370893 
L 119.539636 218.43218 
L 119.742545 218.621692 
L 119.945455 218.641726 
L 120.554182 218.999825 
L 120.96 219.092722 
L 121.365818 219.367575 
L 121.771636 219.278632 
L 122.177455 219.317649 
L 124.815273 219.715754 
L 126.641455 219.918248 
L 126.844364 227.876069 
L 127.047273 226.177564 
L 127.250182 225.903931 
L 127.453091 225.219657 
L 127.858909 225.493071 
L 128.061818 226.015435 
L 128.264727 226.055159 
L 128.670545 225.966619 
L 128.873455 226.358612 
L 129.076364 226.35159 
L 129.279273 226.882677 
L 129.482182 226.897464 
L 129.685091 227.216468 
L 129.888 227.2185 
L 130.293818 227.770694 
L 130.496727 227.599182 
L 130.902545 227.755059 
L 131.105455 228.057567 
L 131.511273 228.119746 
L 131.714182 228.377001 
L 132.12 228.343095 
L 132.525818 228.426413 
L 133.337455 228.552398 
L 134.757818 229.003241 
L 135.163636 228.952518 
L 135.366545 227.175864 
L 137.598545 227.187631 
L 137.801455 226.868509 
L 138.207273 226.917917 
L 138.410182 226.990951 
L 138.816 227.336329 
L 139.424727 227.377583 
L 142.062545 227.491992 
L 143.077091 227.606701 
L 146.323636 227.782532 
L 146.526545 227.688933 
L 146.932364 227.799223 
L 149.367273 227.809195 
L 373.581818 227.809195 
L 373.581818 227.809195 
" style="fill:none;stroke:#1ac938;stroke-linecap:round;stroke-width:1.2;"/>
    <defs>
     <path d="M -0 2.4 
L 2.4 -2.4 
L -2.4 -2.4 
z
" id="mfa2b33268d" style="stroke:#1ac938;stroke-linejoin:miter;"/>
    </defs>
    <g clip-path="url(#p61a70e10d9)">
     <use style="fill-opacity:0;stroke:#1ac938;stroke-linejoin:miter;" x="69.218182" xlink:href="#mfa2b33268d" y="44.64"/>
     <use style="fill-opacity:0;stroke:#1ac938;stroke-linejoin:miter;" x="109.8" xlink:href="#mfa2b33268d" y="209.988465"/>
     <use style="fill-opacity:0;stroke:#1ac938;stroke-linejoin:miter;" x="150.381818" xlink:href="#mfa2b33268d" y="227.809195"/>
     <use style="fill-opacity:0;stroke:#1ac938;stroke-linejoin:miter;" x="190.963636" xlink:href="#mfa2b33268d" y="227.809195"/>
     <use style="fill-opacity:0;stroke:#1ac938;stroke-linejoin:miter;" x="231.545455" xlink:href="#mfa2b33268d" y="227.809195"/>
     <use style="fill-opacity:0;stroke:#1ac938;stroke-linejoin:miter;" x="272.127273" xlink:href="#mfa2b33268d" y="227.809195"/>
     <use style="fill-opacity:0;stroke:#1ac938;stroke-linejoin:miter;" x="312.709091" xlink:href="#mfa2b33268d" y="227.809195"/>
     <use style="fill-opacity:0;stroke:#1ac938;stroke-linejoin:miter;" x="353.290909" xlink:href="#mfa2b33268d" y="227.809195"/>
    </g>
   </g>
   <g id="line2d_57">
    <path clip-path="url(#p61a70e10d9)" d="M 69.218182 44.803168 
L 69.826909 50.697116 
L 70.029818 53.742469 
L 70.232727 59.117424 
L 70.638545 61.96868 
L 70.841455 67.547469 
L 71.247273 71.960393 
L 71.450182 75.686533 
L 71.856 77.39898 
L 72.058909 96.194037 
L 72.261818 95.331865 
L 72.667636 99.654745 
L 72.870545 103.82558 
L 73.073455 105.361109 
L 73.276364 108.526471 
L 73.479273 114.89218 
L 73.682182 116.480486 
L 73.885091 120.558596 
L 74.088 121.154799 
L 74.290909 132.89632 
L 74.493818 131.686042 
L 74.696727 133.826618 
L 74.899636 132.328436 
L 75.102545 138.237212 
L 75.305455 138.811352 
L 75.508364 150.080594 
L 75.914182 152.522264 
L 76.117091 156.239748 
L 76.32 157.60001 
L 76.928727 166.521152 
L 77.334545 168.968676 
L 77.537455 168.837645 
L 78.146182 170.580683 
L 78.349091 169.25772 
L 78.552 169.038982 
L 78.754909 170.589954 
L 78.957818 178.552232 
L 79.160727 179.963888 
L 79.363636 182.247188 
L 79.566545 186.391673 
L 79.972364 187.88724 
L 80.378182 193.375028 
L 81.189818 197.87107 
L 81.392727 198.51333 
L 81.595636 198.477819 
L 81.798545 200.196297 
L 82.001455 190.046901 
L 82.204364 187.378868 
L 83.218909 193.784347 
L 83.827636 195.390394 
L 84.030545 195.065298 
L 84.233455 195.838623 
L 84.436364 196.08308 
L 85.045091 198.12337 
L 85.248 198.227514 
L 85.450909 198.548352 
L 85.653818 199.112525 
L 85.856727 200.244142 
L 86.262545 200.725486 
L 86.465455 201.3706 
L 86.668364 203.43675 
L 86.871273 203.246835 
L 87.074182 203.564416 
L 87.277091 202.111313 
L 87.885818 202.865884 
L 88.494545 203.736122 
L 88.697455 202.547955 
L 88.900364 213.122442 
L 89.103273 209.863048 
L 89.306182 210.327796 
L 89.914909 213.811838 
L 90.117818 216.875818 
L 90.523636 217.91583 
L 90.929455 220.064213 
L 92.146909 221.063594 
L 92.349818 220.752587 
L 92.552727 220.874868 
L 92.755636 221.201479 
L 92.958545 220.317701 
L 93.161455 219.985359 
L 93.364364 220.365105 
L 93.567273 219.694916 
L 93.770182 219.778264 
L 93.973091 220.136086 
L 94.176 220.202042 
L 94.378909 220.826152 
L 94.784727 220.774223 
L 95.190545 210.504284 
L 95.393455 210.971003 
L 95.596364 213.230038 
L 95.799273 213.468134 
L 96.205091 215.365062 
L 96.408 216.217727 
L 96.813818 216.33039 
L 97.016727 215.902922 
L 97.219636 223.603941 
L 97.422545 222.282861 
L 97.625455 215.198687 
L 97.828364 214.561712 
L 98.031273 214.91289 
L 98.234182 214.625701 
L 98.437091 215.045831 
L 98.64 216.409238 
L 98.842909 216.4285 
L 99.248727 216.938678 
L 99.654545 198.517607 
L 99.857455 200.855563 
L 100.060364 218.737796 
L 100.263273 211.314288 
L 100.466182 217.595959 
L 100.669091 219.631455 
L 100.872 220.022411 
L 101.277818 219.647097 
L 101.480727 220.773464 
L 101.683636 222.787154 
L 101.886545 223.302379 
L 102.089455 228.507605 
L 102.495273 228.398249 
L 102.698182 228.123906 
L 103.104 228.683539 
L 103.509818 221.723403 
L 103.712727 220.630365 
L 104.118545 223.344326 
L 104.524364 224.039624 
L 104.930182 203.939585 
L 105.538909 211.738677 
L 105.741818 210.483284 
L 106.147636 212.805026 
L 106.756364 213.841515 
L 106.959273 217.604472 
L 107.162182 218.242926 
L 107.568 218.081385 
L 107.770909 218.042351 
L 107.973818 218.819822 
L 108.176727 218.718788 
L 108.582545 218.986144 
L 109.394182 219.735651 
L 110.002909 219.662537 
L 110.205818 219.542669 
L 112.234909 219.794854 
L 112.640727 220.16543 
L 113.655273 220.102518 
L 113.858182 227.233713 
L 114.264 223.74273 
L 114.466909 223.990283 
L 114.669818 224.463337 
L 114.872727 224.523444 
L 115.075636 225.208635 
L 115.278545 232.252734 
L 115.481455 225.829378 
L 115.684364 228.367242 
L 115.887273 229.149723 
L 116.293091 216.944906 
L 116.496 223.932825 
L 116.698909 224.585562 
L 116.901818 227.337157 
L 117.104727 227.91526 
L 117.307636 226.931622 
L 117.510545 227.708963 
L 117.916364 227.938857 
L 118.119273 227.777548 
L 118.728 228.200753 
L 118.930909 228.653816 
L 119.133818 228.733021 
L 119.336727 228.383975 
L 119.539636 228.558143 
L 119.742545 229.693017 
L 119.945455 230.109165 
L 120.148364 230.27075 
L 120.554182 229.037938 
L 120.757091 237.441638 
L 120.96 230.015737 
L 121.162909 229.105944 
L 121.365818 237.480874 
L 121.568727 234.378962 
L 121.771636 218.723586 
L 121.974545 212.845221 
L 122.177455 218.952594 
L 122.380364 220.163576 
L 122.786182 223.153372 
L 122.989091 224.425571 
L 123.192 224.545367 
L 123.394909 225.02471 
L 123.800727 212.885502 
L 124.206545 217.815602 
L 124.815273 219.389462 
L 125.018182 219.203476 
L 125.221091 219.220967 
L 125.424 219.648052 
L 125.626909 219.578593 
L 125.829818 218.940181 
L 126.032727 219.350837 
L 126.235636 220.082645 
L 126.438545 220.265427 
L 126.641455 220.712365 
L 126.844364 220.722194 
L 127.047273 221.503318 
L 127.656 221.741764 
L 128.061818 221.819872 
L 128.264727 221.579393 
L 128.467636 229.649739 
L 128.670545 227.064169 
L 128.873455 226.196637 
L 129.076364 226.431777 
L 129.279273 226.959112 
L 129.482182 227.932141 
L 129.888 227.841506 
L 130.699636 229.205952 
L 130.902545 229.906215 
L 131.105455 230.051447 
L 131.308364 229.63833 
L 131.511273 233.939914 
L 132.12 233.698399 
L 132.322909 234.627463 
L 132.525818 234.935496 
L 132.728727 234.670094 
L 133.337455 234.995675 
L 133.743273 234.576003 
L 134.149091 235.108454 
L 134.352 234.84065 
L 134.554909 234.913568 
L 134.757818 234.860722 
L 134.960727 235.134395 
L 135.163636 234.780075 
L 135.569455 234.888951 
L 135.772364 235.463053 
L 136.178182 235.855194 
L 136.584 235.475313 
L 136.786909 237.598948 
L 137.395636 237.668673 
L 137.598545 237.182667 
L 137.801455 238.170765 
L 138.207273 238.316582 
L 139.221818 238.537273 
L 139.627636 238.564496 
L 140.033455 238.511669 
L 141.250909 238.863236 
L 141.656727 238.811256 
L 142.265455 238.854949 
L 142.468364 239.067949 
L 143.077091 239.079958 
L 145.512 239.467312 
L 147.541091 239.621485 
L 148.961455 239.774015 
L 149.367273 239.696235 
L 150.381818 239.813332 
L 154.034182 239.880739 
L 373.581818 239.880739 
L 373.581818 239.880739 
" style="fill:none;stroke:#e8000b;stroke-linecap:round;stroke-width:1.2;"/>
    <defs>
     <path d="M 0 -2.4 
L -2.4 2.4 
L 2.4 2.4 
z
" id="me23666e54a" style="stroke:#e8000b;stroke-linejoin:miter;"/>
    </defs>
    <g clip-path="url(#p61a70e10d9)">
     <use style="fill-opacity:0;stroke:#e8000b;stroke-linejoin:miter;" x="69.218182" xlink:href="#me23666e54a" y="44.803168"/>
     <use style="fill-opacity:0;stroke:#e8000b;stroke-linejoin:miter;" x="109.8" xlink:href="#me23666e54a" y="219.658777"/>
     <use style="fill-opacity:0;stroke:#e8000b;stroke-linejoin:miter;" x="150.381818" xlink:href="#me23666e54a" y="239.813332"/>
     <use style="fill-opacity:0;stroke:#e8000b;stroke-linejoin:miter;" x="190.963636" xlink:href="#me23666e54a" y="239.880739"/>
     <use style="fill-opacity:0;stroke:#e8000b;stroke-linejoin:miter;" x="231.545455" xlink:href="#me23666e54a" y="239.880739"/>
     <use style="fill-opacity:0;stroke:#e8000b;stroke-linejoin:miter;" x="272.127273" xlink:href="#me23666e54a" y="239.880739"/>
     <use style="fill-opacity:0;stroke:#e8000b;stroke-linejoin:miter;" x="312.709091" xlink:href="#me23666e54a" y="239.880739"/>
     <use style="fill-opacity:0;stroke:#e8000b;stroke-linejoin:miter;" x="353.290909" xlink:href="#me23666e54a" y="239.880739"/>
    </g>
   </g>
   <g id="line2d_58">
    <path clip-path="url(#p61a70e10d9)" d="M 69.218182 44.794222 
L 69.624 45.221054 
L 69.826909 46.777268 
L 70.029818 50.365645 
L 70.232727 50.40964 
L 70.841455 51.358955 
L 71.247273 52.953834 
L 71.653091 52.918267 
L 71.856 55.062988 
L 72.261818 55.123784 
L 72.464727 54.980222 
L 72.870545 61.618677 
L 73.073455 63.02367 
L 73.276364 66.222748 
L 73.479273 67.511423 
L 73.682182 74.246042 
L 73.885091 77.164453 
L 74.088 75.601277 
L 74.290909 77.330974 
L 74.493818 77.319105 
L 74.696727 77.444449 
L 75.102545 80.227286 
L 75.305455 80.279068 
L 75.508364 81.505996 
L 75.711273 81.681694 
L 75.914182 82.341125 
L 76.117091 82.373641 
L 76.32 85.014653 
L 76.522909 90.934789 
L 76.725818 90.957497 
L 76.928727 93.108569 
L 77.334545 93.212675 
L 77.537455 93.376355 
L 77.740364 94.751212 
L 78.146182 94.822408 
L 78.349091 97.987088 
L 78.552 103.277865 
L 78.754909 103.199548 
L 78.957818 109.45489 
L 79.160727 110.318664 
L 79.363636 133.682633 
L 79.566545 142.408307 
L 79.769455 139.183252 
L 79.972364 146.776267 
L 80.175273 147.155421 
L 80.784 149.245026 
L 80.986909 147.833226 
L 81.189818 149.122154 
L 81.392727 149.589872 
L 81.595636 149.658503 
L 82.001455 151.184741 
L 82.407273 152.304746 
L 82.610182 152.774786 
L 82.813091 154.736606 
L 83.016 152.574465 
L 83.218909 152.779069 
L 83.421818 153.31133 
L 83.624727 156.50335 
L 84.030545 157.761111 
L 84.233455 158.659335 
L 84.436364 158.499852 
L 84.639273 157.441363 
L 85.045091 159.836333 
L 85.450909 161.212218 
L 85.653818 161.804346 
L 85.856727 162.0389 
L 86.059636 172.07654 
L 86.262545 170.052605 
L 86.465455 170.794163 
L 86.668364 172.811896 
L 87.074182 174.317745 
L 87.682909 175.895655 
L 88.494545 176.866099 
L 89.509091 180.239247 
L 89.914909 181.447718 
L 90.117818 181.748816 
L 90.320727 181.750134 
L 90.726545 182.134635 
L 90.929455 182.233876 
L 91.538182 183.502966 
L 91.944 183.894325 
L 92.146909 183.925623 
L 92.349818 184.299828 
L 92.552727 184.407775 
L 93.364364 185.304675 
L 93.567273 187.502601 
L 93.770182 187.805087 
L 93.973091 187.246742 
L 94.176 187.869177 
L 94.784727 188.649629 
L 94.987636 188.625963 
L 95.190545 189.282538 
L 95.393455 186.937645 
L 95.596364 186.523488 
L 95.799273 187.077514 
L 96.002182 186.891375 
L 96.408 187.614873 
L 96.610909 187.929673 
L 96.813818 188.545559 
L 97.219636 188.790265 
L 97.422545 189.10202 
L 97.828364 189.32882 
L 98.031273 189.605373 
L 98.234182 189.64054 
L 98.437091 190.008531 
L 98.64 190.048471 
L 98.842909 190.210815 
L 99.045818 190.125672 
L 99.248727 188.449239 
L 99.857455 188.328893 
L 100.060364 188.46007 
L 100.263273 193.607711 
L 100.466182 193.599025 
L 100.669091 193.930378 
L 101.074909 193.735821 
L 101.277818 193.552815 
L 101.886545 194.123215 
L 102.089455 194.171172 
L 102.292364 194.579362 
L 102.495273 203.581426 
L 102.698182 203.06802 
L 102.901091 202.185272 
L 103.509818 205.139013 
L 103.712727 205.061568 
L 103.915636 205.766451 
L 104.118545 205.506773 
L 104.321455 205.913696 
L 104.524364 205.959443 
L 104.727273 205.66295 
L 105.336 207.785104 
L 105.538909 207.85726 
L 105.741818 208.210188 
L 105.944727 209.138466 
L 106.147636 209.445987 
L 106.350545 209.049947 
L 106.553455 209.660732 
L 107.568 210.324621 
L 107.973818 210.52901 
L 108.176727 209.94855 
L 108.785455 210.961315 
L 108.988364 212.11874 
L 109.191273 216.191491 
L 109.394182 215.987313 
L 109.597091 216.204641 
L 109.8 213.896226 
L 110.002909 213.73748 
L 110.205818 213.77989 
L 110.408727 213.320597 
L 111.017455 214.175735 
L 111.220364 214.150364 
L 111.423273 216.526596 
L 111.626182 216.866351 
L 112.032 216.868874 
L 113.655273 218.01004 
L 113.858182 218.640564 
L 114.061091 218.492178 
L 114.669818 218.64469 
L 114.872727 218.824257 
L 115.075636 218.43496 
L 116.293091 218.724699 
L 116.496 218.658288 
L 116.698909 221.017917 
L 116.901818 221.194159 
L 117.307636 221.035517 
L 117.713455 221.116899 
L 117.916364 221.42013 
L 118.119273 221.397241 
L 118.322182 221.1754 
L 118.525091 221.200303 
L 118.728 221.425225 
L 119.336727 221.473458 
L 119.539636 221.47215 
L 119.742545 220.913548 
L 119.945455 221.224534 
L 120.351273 221.208031 
L 120.757091 221.302495 
L 121.568727 221.317566 
L 121.974545 221.681311 
L 122.583273 222.506382 
L 122.786182 222.549322 
L 123.192 222.789321 
L 123.394909 222.435048 
L 123.800727 222.617994 
L 124.003636 222.642297 
L 124.206545 223.970651 
L 125.018182 224.005639 
L 125.221091 224.405937 
L 126.235636 224.501555 
L 126.438545 224.483902 
L 126.844364 207.930692 
L 127.047273 206.160837 
L 127.453091 210.590743 
L 127.656 211.64203 
L 127.858909 211.715732 
L 128.061818 211.362924 
L 128.264727 221.516321 
L 128.670545 214.966667 
L 128.873455 214.909665 
L 129.279273 220.440457 
L 129.482182 220.744839 
L 129.685091 221.265567 
L 129.888 222.544042 
L 130.090909 222.245506 
L 130.496727 222.606652 
L 130.699636 223.262608 
L 130.902545 223.384652 
L 131.105455 223.327057 
L 131.511273 223.878008 
L 131.714182 223.662422 
L 132.12 225.017013 
L 132.322909 226.153505 
L 132.728727 226.073712 
L 132.931636 226.407836 
L 133.134545 222.256515 
L 133.337455 214.548853 
L 133.540364 214.997858 
L 133.743273 215.926816 
L 133.946182 219.510691 
L 134.149091 219.317455 
L 134.352 220.310303 
L 134.757818 220.310864 
L 134.960727 220.653675 
L 135.163636 220.447967 
L 135.366545 220.502829 
L 135.772364 220.334065 
L 135.975273 219.685937 
L 136.786909 219.741632 
L 136.989818 219.027583 
L 137.192727 219.023844 
L 137.395636 219.293577 
L 137.598545 219.144843 
L 137.801455 219.143097 
L 138.207273 220.38378 
L 138.613091 221.622476 
L 139.018909 221.608152 
L 139.221818 221.324667 
L 139.424727 221.75776 
L 139.627636 221.765763 
L 139.830545 222.849234 
L 140.033455 222.858203 
L 140.236364 223.098358 
L 140.845091 222.985956 
L 141.453818 206.36313 
L 141.656727 205.181471 
L 141.859636 205.154611 
L 142.062545 203.652259 
L 142.265455 206.028614 
L 142.468364 206.006005 
L 142.671273 206.418379 
L 142.874182 206.431759 
L 143.077091 207.324585 
L 143.28 207.382871 
L 143.685818 207.761893 
L 144.294545 207.971961 
L 144.497455 208.358671 
L 144.903273 208.427047 
L 145.106182 208.743887 
L 145.309091 208.743262 
L 145.714909 209.103222 
L 145.917818 209.620709 
L 146.323636 209.777631 
L 146.526545 210.259573 
L 146.729455 210.101218 
L 147.135273 210.051459 
L 147.338182 210.428638 
L 147.946909 210.081235 
L 148.149818 210.535057 
L 148.352727 210.602978 
L 148.555636 210.832535 
L 148.961455 210.920032 
L 149.164364 210.661187 
L 149.570182 210.733841 
L 149.976 210.851025 
L 150.178909 210.857827 
L 150.584727 210.992212 
L 150.990545 211.038899 
L 151.193455 213.030458 
L 151.599273 212.950336 
L 152.005091 212.822392 
L 152.208 212.997289 
L 152.410909 212.799756 
L 153.628364 212.87152 
L 154.44 212.984532 
L 154.642909 213.075657 
L 154.845818 212.862382 
L 155.251636 212.889228 
L 155.454545 213.417202 
L 155.860364 213.427362 
L 156.063273 218.380326 
L 156.469091 217.474517 
L 156.672 217.138593 
L 156.874909 217.489955 
L 157.077818 217.462162 
L 157.280727 217.792157 
L 157.483636 217.794839 
L 157.686545 217.649214 
L 157.889455 217.756322 
L 158.092364 217.436381 
L 158.498182 217.704134 
L 159.512727 218.225569 
L 159.918545 218.202669 
L 160.121455 227.169369 
L 160.324364 219.70884 
L 160.527273 217.441958 
L 161.136 219.159775 
L 161.338909 221.397964 
L 161.541818 225.070124 
L 161.947636 227.669809 
L 162.353455 229.407987 
L 162.556364 229.65582 
L 162.962182 229.836306 
L 163.570909 230.53921 
L 164.382545 230.437202 
L 164.788364 230.309177 
L 165.194182 230.506807 
L 165.6 230.933835 
L 166.614545 231.00599 
L 166.817455 231.321519 
L 167.020364 231.183008 
L 167.223273 231.223884 
L 167.426182 231.690846 
L 167.629091 231.676878 
L 167.832 229.283684 
L 168.034909 229.320365 
L 168.237818 229.121366 
L 169.252364 229.558462 
L 169.658182 229.713511 
L 169.861091 229.893761 
L 171.078545 229.893547 
L 171.281455 230.083271 
L 171.484364 230.082631 
L 171.687273 229.652708 
L 172.093091 229.664023 
L 172.296 201.707223 
L 172.498909 200.377067 
L 172.904727 201.420684 
L 173.107636 202.4533 
L 173.310545 202.329873 
L 173.513455 202.976228 
L 173.919273 203.402961 
L 174.122182 203.452443 
L 174.325091 203.642733 
L 174.528 202.796459 
L 174.933818 202.952225 
L 175.339636 204.922977 
L 175.542545 205.143546 
L 175.745455 205.060288 
L 175.948364 212.338401 
L 176.151273 212.546214 
L 176.354182 212.519431 
L 176.76 212.846626 
L 176.962909 212.729312 
L 178.180364 213.108349 
L 178.383273 213.108349 
L 178.586182 213.437185 
L 178.789091 213.126764 
L 179.194909 213.144002 
L 179.397818 213.562852 
L 180.006545 213.757331 
L 180.209455 214.222241 
L 180.412364 213.835766 
L 181.021091 213.985649 
L 181.629818 214.148671 
L 181.832727 214.371728 
L 182.035636 214.380475 
L 182.441455 214.256634 
L 183.253091 214.358619 
L 183.456 221.885371 
L 183.658909 221.114333 
L 183.861818 221.153997 
L 184.470545 220.056966 
L 184.673455 220.259789 
L 184.876364 220.140993 
L 185.282182 220.262106 
L 185.688 220.238249 
L 185.890909 220.381401 
L 186.296727 220.392393 
L 186.499636 220.9972 
L 186.702545 220.988164 
L 186.905455 221.244685 
L 188.934545 221.576169 
L 189.137455 221.87471 
L 189.746182 221.830159 
L 190.354909 221.905425 
L 190.557818 222.419336 
L 191.369455 222.439841 
L 191.572364 222.924956 
L 191.775273 222.862403 
L 191.978182 223.044397 
L 192.384 223.110999 
L 192.586909 223.903499 
L 194.818909 223.943382 
L 195.021818 223.455414 
L 195.630545 223.514644 
L 196.848 223.604116 
L 197.253818 223.648541 
L 197.456727 223.864656 
L 197.862545 223.909143 
L 198.065455 224.087065 
L 198.268364 223.440627 
L 198.471273 224.191126 
L 199.891636 224.215704 
L 200.906182 224.317635 
L 205.370182 224.469858 
L 373.581818 224.469858 
L 373.581818 224.469858 
" style="fill:none;stroke:#00d7ff;stroke-linecap:round;stroke-width:1.2;"/>
    <defs>
     <path d="M -2.4 2.4 
L 2.4 2.4 
L 2.4 -2.4 
L -2.4 -2.4 
z
" id="m8a406384c4" style="stroke:#00d7ff;stroke-linejoin:miter;"/>
    </defs>
    <g clip-path="url(#p61a70e10d9)">
     <use style="fill-opacity:0;stroke:#00d7ff;stroke-linejoin:miter;" x="69.218182" xlink:href="#m8a406384c4" y="44.794222"/>
     <use style="fill-opacity:0;stroke:#00d7ff;stroke-linejoin:miter;" x="109.8" xlink:href="#m8a406384c4" y="213.896226"/>
     <use style="fill-opacity:0;stroke:#00d7ff;stroke-linejoin:miter;" x="150.381818" xlink:href="#m8a406384c4" y="210.990938"/>
     <use style="fill-opacity:0;stroke:#00d7ff;stroke-linejoin:miter;" x="190.963636" xlink:href="#m8a406384c4" y="222.435576"/>
     <use style="fill-opacity:0;stroke:#00d7ff;stroke-linejoin:miter;" x="231.545455" xlink:href="#m8a406384c4" y="224.469858"/>
     <use style="fill-opacity:0;stroke:#00d7ff;stroke-linejoin:miter;" x="272.127273" xlink:href="#m8a406384c4" y="224.469858"/>
     <use style="fill-opacity:0;stroke:#00d7ff;stroke-linejoin:miter;" x="312.709091" xlink:href="#m8a406384c4" y="224.469858"/>
     <use style="fill-opacity:0;stroke:#00d7ff;stroke-linejoin:miter;" x="353.290909" xlink:href="#m8a406384c4" y="224.469858"/>
    </g>
   </g>
   <g id="patch_3">
    <path d="M 54 256.32 
L 54 34.56 
" style="fill:none;stroke:#000000;stroke-linecap:square;stroke-linejoin:miter;"/>
   </g>
   <g id="patch_4">
    <path d="M 388.8 256.32 
L 388.8 34.56 
" style="fill:none;stroke:#000000;stroke-linecap:square;stroke-linejoin:miter;"/>
   </g>
   <g id="patch_5">
    <path d="M 54 256.32 
L 388.8 256.32 
" style="fill:none;stroke:#000000;stroke-linecap:square;stroke-linejoin:miter;"/>
   </g>
   <g id="patch_6">
    <path d="M 54 34.56 
L 388.8 34.56 
" style="fill:none;stroke:#000000;stroke-linecap:square;stroke-linejoin:miter;"/>
   </g>
   <g id="legend_1">
    <g id="patch_7">
     <path d="M 308.544 102.7578 
L 383.52 102.7578 
L 383.52 39.84 
L 308.544 39.84 
z
" style="fill:#ffffff;opacity:0.8;stroke:#000000;stroke-linejoin:miter;stroke-width:0.8;"/>
    </g>
    <g id="line2d_59">
     <path d="M 312.768 47.92665 
L 333.888 47.92665 
" style="fill:none;stroke:#023eff;stroke-linecap:round;stroke-width:1.2;"/>
    </g>
    <g id="line2d_60">
     <g>
      <use style="fill-opacity:0;stroke:#023eff;" x="323.328" xlink:href="#m8535224639" y="47.92665"/>
     </g>
    </g>
    <g id="text_13">
     <!-- LEVY -->
     <defs>
      <path d="M 7.328125 0 
L 7.328125 71.578125 
L 16.796875 71.578125 
L 16.796875 8.453125 
L 52.046875 8.453125 
L 52.046875 0 
z
" id="ArialMT-76"/>
      <path d="M 7.90625 0 
L 7.90625 71.578125 
L 59.671875 71.578125 
L 59.671875 63.140625 
L 17.390625 63.140625 
L 17.390625 41.21875 
L 56.984375 41.21875 
L 56.984375 32.8125 
L 17.390625 32.8125 
L 17.390625 8.453125 
L 61.328125 8.453125 
L 61.328125 0 
z
" id="ArialMT-69"/>
      <path d="M 28.171875 0 
L 0.4375 71.578125 
L 10.6875 71.578125 
L 29.296875 19.578125 
Q 31.546875 13.328125 33.0625 7.859375 
Q 34.71875 13.71875 36.921875 19.578125 
L 56.25 71.578125 
L 65.921875 71.578125 
L 37.890625 0 
z
" id="ArialMT-86"/>
      <path d="M 27.875 0 
L 27.875 30.328125 
L 0.296875 71.578125 
L 11.8125 71.578125 
L 25.921875 50 
Q 29.828125 43.953125 33.203125 37.890625 
Q 36.421875 43.5 41.015625 50.53125 
L 54.890625 71.578125 
L 65.921875 71.578125 
L 37.359375 30.328125 
L 37.359375 0 
z
" id="ArialMT-89"/>
     </defs>
     <g transform="translate(342.336 51.62265)scale(0.1056 -0.1056)">
      <use xlink:href="#ArialMT-76"/>
      <use x="55.615234" xlink:href="#ArialMT-69"/>
      <use x="122.314453" xlink:href="#ArialMT-86"/>
      <use x="189.013672" xlink:href="#ArialMT-89"/>
     </g>
    </g>
    <g id="line2d_61">
     <path d="M 312.768 62.8641 
L 333.888 62.8641 
" style="fill:none;stroke:#1ac938;stroke-linecap:round;stroke-width:1.2;"/>
    </g>
    <g id="line2d_62">
     <g>
      <use style="fill-opacity:0;stroke:#1ac938;stroke-linejoin:miter;" x="323.328" xlink:href="#mfa2b33268d" y="62.8641"/>
     </g>
    </g>
    <g id="text_14">
     <!-- UNIF -->
     <defs>
      <path d="M 54.6875 71.578125 
L 64.15625 71.578125 
L 64.15625 30.21875 
Q 64.15625 19.4375 61.71875 13.078125 
Q 59.28125 6.734375 52.90625 2.75 
Q 46.53125 -1.21875 36.1875 -1.21875 
Q 26.125 -1.21875 19.71875 2.25 
Q 13.328125 5.71875 10.59375 12.28125 
Q 7.859375 18.84375 7.859375 30.21875 
L 7.859375 71.578125 
L 17.328125 71.578125 
L 17.328125 30.28125 
Q 17.328125 20.953125 19.0625 16.53125 
Q 20.796875 12.109375 25.015625 9.71875 
Q 29.25 7.328125 35.359375 7.328125 
Q 45.796875 7.328125 50.234375 12.0625 
Q 54.6875 16.796875 54.6875 30.28125 
z
" id="ArialMT-85"/>
      <path d="M 7.625 0 
L 7.625 71.578125 
L 17.328125 71.578125 
L 54.9375 15.375 
L 54.9375 71.578125 
L 64.015625 71.578125 
L 64.015625 0 
L 54.296875 0 
L 16.703125 56.25 
L 16.703125 0 
z
" id="ArialMT-78"/>
      <path d="M 8.203125 0 
L 8.203125 71.578125 
L 56.5 71.578125 
L 56.5 63.140625 
L 17.671875 63.140625 
L 17.671875 40.96875 
L 51.265625 40.96875 
L 51.265625 32.515625 
L 17.671875 32.515625 
L 17.671875 0 
z
" id="ArialMT-70"/>
     </defs>
     <g transform="translate(342.336 66.5601)scale(0.1056 -0.1056)">
      <use xlink:href="#ArialMT-85"/>
      <use x="72.216797" xlink:href="#ArialMT-78"/>
      <use x="144.433594" xlink:href="#ArialMT-73"/>
      <use x="172.216797" xlink:href="#ArialMT-70"/>
     </g>
    </g>
    <g id="line2d_63">
     <path d="M 312.768 77.80155 
L 333.888 77.80155 
" style="fill:none;stroke:#e8000b;stroke-linecap:round;stroke-width:1.2;"/>
    </g>
    <g id="line2d_64">
     <g>
      <use style="fill-opacity:0;stroke:#e8000b;stroke-linejoin:miter;" x="323.328" xlink:href="#me23666e54a" y="77.80155"/>
     </g>
    </g>
    <g id="text_15">
     <!-- NORM -->
     <defs>
      <path d="M 4.828125 34.859375 
Q 4.828125 52.6875 14.390625 62.765625 
Q 23.96875 72.859375 39.109375 72.859375 
Q 49.03125 72.859375 56.984375 68.109375 
Q 64.9375 63.375 69.109375 54.90625 
Q 73.296875 46.4375 73.296875 35.6875 
Q 73.296875 24.8125 68.890625 16.21875 
Q 64.5 7.625 56.4375 3.203125 
Q 48.390625 -1.21875 39.0625 -1.21875 
Q 28.953125 -1.21875 20.984375 3.65625 
Q 13.03125 8.546875 8.921875 16.984375 
Q 4.828125 25.4375 4.828125 34.859375 
z
M 14.59375 34.71875 
Q 14.59375 21.78125 21.546875 14.328125 
Q 28.515625 6.890625 39.015625 6.890625 
Q 49.703125 6.890625 56.609375 14.40625 
Q 63.53125 21.921875 63.53125 35.75 
Q 63.53125 44.484375 60.578125 51 
Q 57.625 57.515625 51.921875 61.109375 
Q 46.234375 64.703125 39.15625 64.703125 
Q 29.109375 64.703125 21.84375 57.78125 
Q 14.59375 50.875 14.59375 34.71875 
z
" id="ArialMT-79"/>
      <path d="M 7.859375 0 
L 7.859375 71.578125 
L 39.59375 71.578125 
Q 49.171875 71.578125 54.140625 69.640625 
Q 59.125 67.71875 62.109375 62.828125 
Q 65.09375 57.953125 65.09375 52.046875 
Q 65.09375 44.4375 60.15625 39.203125 
Q 55.21875 33.984375 44.921875 32.5625 
Q 48.6875 30.765625 50.640625 29 
Q 54.78125 25.203125 58.5 19.484375 
L 70.953125 0 
L 59.03125 0 
L 49.5625 14.890625 
Q 45.40625 21.34375 42.71875 24.75 
Q 40.046875 28.171875 37.921875 29.53125 
Q 35.796875 30.90625 33.59375 31.453125 
Q 31.984375 31.78125 28.328125 31.78125 
L 17.328125 31.78125 
L 17.328125 0 
z
M 17.328125 39.984375 
L 37.703125 39.984375 
Q 44.1875 39.984375 47.84375 41.328125 
Q 51.515625 42.671875 53.421875 45.625 
Q 55.328125 48.578125 55.328125 52.046875 
Q 55.328125 57.125 51.640625 60.390625 
Q 47.953125 63.671875 39.984375 63.671875 
L 17.328125 63.671875 
z
" id="ArialMT-82"/>
      <path d="M 7.421875 0 
L 7.421875 71.578125 
L 21.6875 71.578125 
L 38.625 20.90625 
Q 40.96875 13.8125 42.046875 10.296875 
Q 43.265625 14.203125 45.84375 21.78125 
L 62.984375 71.578125 
L 75.734375 71.578125 
L 75.734375 0 
L 66.609375 0 
L 66.609375 59.90625 
L 45.796875 0 
L 37.25 0 
L 16.546875 60.9375 
L 16.546875 0 
z
" id="ArialMT-77"/>
     </defs>
     <g transform="translate(342.336 81.49755)scale(0.1056 -0.1056)">
      <use xlink:href="#ArialMT-78"/>
      <use x="72.216797" xlink:href="#ArialMT-79"/>
      <use x="150" xlink:href="#ArialMT-82"/>
      <use x="222.216797" xlink:href="#ArialMT-77"/>
     </g>
    </g>
    <g id="line2d_65">
     <path d="M 312.768 92.739 
L 333.888 92.739 
" style="fill:none;stroke:#00d7ff;stroke-linecap:round;stroke-width:1.2;"/>
    </g>
    <g id="line2d_66">
     <g>
      <use style="fill-opacity:0;stroke:#00d7ff;stroke-linejoin:miter;" x="323.328" xlink:href="#m8a406384c4" y="92.739"/>
     </g>
    </g>
    <g id="text_16">
     <!-- CONST -->
     <defs>
      <path d="M 58.796875 25.09375 
L 68.265625 22.703125 
Q 65.28125 11.03125 57.546875 4.90625 
Q 49.8125 -1.21875 38.625 -1.21875 
Q 27.046875 -1.21875 19.796875 3.484375 
Q 12.546875 8.203125 8.765625 17.140625 
Q 4.984375 26.078125 4.984375 36.328125 
Q 4.984375 47.515625 9.25 55.828125 
Q 13.53125 64.15625 21.40625 68.46875 
Q 29.296875 72.796875 38.765625 72.796875 
Q 49.515625 72.796875 56.828125 67.328125 
Q 64.15625 61.859375 67.046875 51.953125 
L 57.71875 49.75 
Q 55.21875 57.5625 50.484375 61.125 
Q 45.75 64.703125 38.578125 64.703125 
Q 30.328125 64.703125 24.78125 60.734375 
Q 19.234375 56.78125 16.984375 50.109375 
Q 14.75 43.453125 14.75 36.375 
Q 14.75 27.25 17.40625 20.4375 
Q 20.0625 13.625 25.671875 10.25 
Q 31.296875 6.890625 37.84375 6.890625 
Q 45.796875 6.890625 51.3125 11.46875 
Q 56.84375 16.0625 58.796875 25.09375 
z
" id="ArialMT-67"/>
      <path d="M 4.5 23 
L 13.421875 23.78125 
Q 14.0625 18.40625 16.375 14.96875 
Q 18.703125 11.53125 23.578125 9.40625 
Q 28.46875 7.28125 34.578125 7.28125 
Q 39.984375 7.28125 44.140625 8.890625 
Q 48.296875 10.5 50.3125 13.296875 
Q 52.34375 16.109375 52.34375 19.4375 
Q 52.34375 22.796875 50.390625 25.3125 
Q 48.4375 27.828125 43.953125 29.546875 
Q 41.0625 30.671875 31.203125 33.03125 
Q 21.34375 35.40625 17.390625 37.5 
Q 12.25 40.1875 9.734375 44.15625 
Q 7.234375 48.140625 7.234375 53.078125 
Q 7.234375 58.5 10.296875 63.203125 
Q 13.375 67.921875 19.28125 70.359375 
Q 25.203125 72.796875 32.421875 72.796875 
Q 40.375 72.796875 46.453125 70.234375 
Q 52.546875 67.671875 55.8125 62.6875 
Q 59.078125 57.71875 59.328125 51.421875 
L 50.25 50.734375 
Q 49.515625 57.515625 45.28125 60.984375 
Q 41.0625 64.453125 32.8125 64.453125 
Q 24.21875 64.453125 20.28125 61.296875 
Q 16.359375 58.15625 16.359375 53.71875 
Q 16.359375 49.859375 19.140625 47.359375 
Q 21.875 44.875 33.421875 42.265625 
Q 44.96875 39.65625 49.265625 37.703125 
Q 55.515625 34.8125 58.484375 30.390625 
Q 61.46875 25.984375 61.46875 20.21875 
Q 61.46875 14.5 58.203125 9.4375 
Q 54.9375 4.390625 48.796875 1.578125 
Q 42.671875 -1.21875 35.015625 -1.21875 
Q 25.296875 -1.21875 18.71875 1.609375 
Q 12.15625 4.4375 8.421875 10.125 
Q 4.6875 15.828125 4.5 23 
z
" id="ArialMT-83"/>
      <path d="M 25.921875 0 
L 25.921875 63.140625 
L 2.34375 63.140625 
L 2.34375 71.578125 
L 59.078125 71.578125 
L 59.078125 63.140625 
L 35.40625 63.140625 
L 35.40625 0 
z
" id="ArialMT-84"/>
     </defs>
     <g transform="translate(342.336 96.435)scale(0.1056 -0.1056)">
      <use xlink:href="#ArialMT-67"/>
      <use x="72.216797" xlink:href="#ArialMT-79"/>
      <use x="150" xlink:href="#ArialMT-78"/>
      <use x="222.216797" xlink:href="#ArialMT-83"/>
      <use x="288.916016" xlink:href="#ArialMT-84"/>
     </g>
    </g>
   </g>
  </g>
 </g>
 <defs>
  <clipPath id="p61a70e10d9">
   <rect height="221.76" width="334.8" x="54" y="34.56"/>
  </clipPath>
 </defs>
</svg>
