<?xml version="1.0" encoding="utf-8" standalone="no"?>
<!DOCTYPE svg PUBLIC "-//W3C//DTD SVG 1.1//EN"
  "http://www.w3.org/Graphics/SVG/1.1/DTD/svg11.dtd">
<!-- Created with matplotlib (https://matplotlib.org/) -->
<svg height="288pt" version="1.1" viewBox="0 0 432 288" width="432pt" xmlns="http://www.w3.org/2000/svg" xmlns:xlink="http://www.w3.org/1999/xlink">
 <defs>
  <style type="text/css">
*{stroke-linecap:butt;stroke-linejoin:round;}
  </style>
 </defs>
 <g id="figure_1">
  <g id="patch_1">
   <path d="M 0 288 
L 432 288 
L 432 0 
L 0 0 
z
" style="fill:#ffffff;"/>
  </g>
  <g id="axes_1">
   <g id="patch_2">
    <path d="M 54 256.32 
L 388.8 256.32 
L 388.8 34.56 
L 54 34.56 
z
" style="fill:#ffffff;"/>
   </g>
   <g id="matplotlib.axis_1">
    <g id="xtick_1">
     <g id="line2d_1">
      <defs>
       <path d="M 0 0 
L 0 -3 
" id="m1d549d9e72" style="stroke:#000000;"/>
      </defs>
      <g>
       <use style="stroke:#000000;" x="69.218182" xlink:href="#m1d549d9e72" y="256.32"/>
      </g>
     </g>
     <g id="line2d_2">
      <defs>
       <path d="M 0 0 
L 0 3 
" id="m05d099b08f" style="stroke:#000000;"/>
      </defs>
      <g>
       <use style="stroke:#000000;" x="69.218182" xlink:href="#m05d099b08f" y="34.56"/>
      </g>
     </g>
     <g id="text_1">
      <!-- 0 -->
      <defs>
       <path d="M 4.15625 35.296875 
Q 4.15625 48 6.765625 55.734375 
Q 9.375 63.484375 14.515625 67.671875 
Q 19.671875 71.875 27.484375 71.875 
Q 33.25 71.875 37.59375 69.546875 
Q 41.9375 67.234375 44.765625 62.859375 
Q 47.609375 58.5 49.21875 52.21875 
Q 50.828125 45.953125 50.828125 35.296875 
Q 50.828125 22.703125 48.234375 14.96875 
Q 45.65625 7.234375 40.5 3 
Q 35.359375 -1.21875 27.484375 -1.21875 
Q 17.140625 -1.21875 11.234375 6.203125 
Q 4.15625 15.140625 4.15625 35.296875 
z
M 13.1875 35.296875 
Q 13.1875 17.671875 17.3125 11.828125 
Q 21.4375 6 27.484375 6 
Q 33.546875 6 37.671875 11.859375 
Q 41.796875 17.71875 41.796875 35.296875 
Q 41.796875 52.984375 37.671875 58.78125 
Q 33.546875 64.59375 27.390625 64.59375 
Q 21.34375 64.59375 17.71875 59.46875 
Q 13.1875 52.9375 13.1875 35.296875 
z
" id="ArialMT-48"/>
      </defs>
      <g transform="translate(66.282007 267.37865)scale(0.1056 -0.1056)">
       <use xlink:href="#ArialMT-48"/>
      </g>
     </g>
    </g>
    <g id="xtick_2">
     <g id="line2d_3">
      <g>
       <use style="stroke:#000000;" x="109.8" xlink:href="#m1d549d9e72" y="256.32"/>
      </g>
     </g>
     <g id="line2d_4">
      <g>
       <use style="stroke:#000000;" x="109.8" xlink:href="#m05d099b08f" y="34.56"/>
      </g>
     </g>
     <g id="text_2">
      <!-- 200 -->
      <defs>
       <path d="M 50.34375 8.453125 
L 50.34375 0 
L 3.03125 0 
Q 2.9375 3.171875 4.046875 6.109375 
Q 5.859375 10.9375 9.828125 15.625 
Q 13.8125 20.3125 21.34375 26.46875 
Q 33.015625 36.03125 37.109375 41.625 
Q 41.21875 47.21875 41.21875 52.203125 
Q 41.21875 57.421875 37.46875 61 
Q 33.734375 64.59375 27.734375 64.59375 
Q 21.390625 64.59375 17.578125 60.78125 
Q 13.765625 56.984375 13.71875 50.25 
L 4.6875 51.171875 
Q 5.609375 61.28125 11.65625 66.578125 
Q 17.71875 71.875 27.9375 71.875 
Q 38.234375 71.875 44.234375 66.15625 
Q 50.25 60.453125 50.25 52 
Q 50.25 47.703125 48.484375 43.546875 
Q 46.734375 39.40625 42.65625 34.8125 
Q 38.578125 30.21875 29.109375 22.21875 
Q 21.1875 15.578125 18.9375 13.203125 
Q 16.703125 10.84375 15.234375 8.453125 
z
" id="ArialMT-50"/>
      </defs>
      <g transform="translate(100.991475 267.37865)scale(0.1056 -0.1056)">
       <use xlink:href="#ArialMT-50"/>
       <use x="55.615234" xlink:href="#ArialMT-48"/>
       <use x="111.230469" xlink:href="#ArialMT-48"/>
      </g>
     </g>
    </g>
    <g id="xtick_3">
     <g id="line2d_5">
      <g>
       <use style="stroke:#000000;" x="150.381818" xlink:href="#m1d549d9e72" y="256.32"/>
      </g>
     </g>
     <g id="line2d_6">
      <g>
       <use style="stroke:#000000;" x="150.381818" xlink:href="#m05d099b08f" y="34.56"/>
      </g>
     </g>
     <g id="text_3">
      <!-- 400 -->
      <defs>
       <path d="M 32.328125 0 
L 32.328125 17.140625 
L 1.265625 17.140625 
L 1.265625 25.203125 
L 33.9375 71.578125 
L 41.109375 71.578125 
L 41.109375 25.203125 
L 50.78125 25.203125 
L 50.78125 17.140625 
L 41.109375 17.140625 
L 41.109375 0 
z
M 32.328125 25.203125 
L 32.328125 57.46875 
L 9.90625 25.203125 
z
" id="ArialMT-52"/>
      </defs>
      <g transform="translate(141.573293 267.37865)scale(0.1056 -0.1056)">
       <use xlink:href="#ArialMT-52"/>
       <use x="55.615234" xlink:href="#ArialMT-48"/>
       <use x="111.230469" xlink:href="#ArialMT-48"/>
      </g>
     </g>
    </g>
    <g id="xtick_4">
     <g id="line2d_7">
      <g>
       <use style="stroke:#000000;" x="190.963636" xlink:href="#m1d549d9e72" y="256.32"/>
      </g>
     </g>
     <g id="line2d_8">
      <g>
       <use style="stroke:#000000;" x="190.963636" xlink:href="#m05d099b08f" y="34.56"/>
      </g>
     </g>
     <g id="text_4">
      <!-- 600 -->
      <defs>
       <path d="M 49.75 54.046875 
L 41.015625 53.375 
Q 39.84375 58.546875 37.703125 60.890625 
Q 34.125 64.65625 28.90625 64.65625 
Q 24.703125 64.65625 21.53125 62.3125 
Q 17.390625 59.28125 14.984375 53.46875 
Q 12.59375 47.65625 12.5 36.921875 
Q 15.671875 41.75 20.265625 44.09375 
Q 24.859375 46.4375 29.890625 46.4375 
Q 38.671875 46.4375 44.84375 39.96875 
Q 51.03125 33.5 51.03125 23.25 
Q 51.03125 16.5 48.125 10.71875 
Q 45.21875 4.9375 40.140625 1.859375 
Q 35.0625 -1.21875 28.609375 -1.21875 
Q 17.625 -1.21875 10.6875 6.859375 
Q 3.765625 14.9375 3.765625 33.5 
Q 3.765625 54.25 11.421875 63.671875 
Q 18.109375 71.875 29.4375 71.875 
Q 37.890625 71.875 43.28125 67.140625 
Q 48.6875 62.40625 49.75 54.046875 
z
M 13.875 23.1875 
Q 13.875 18.65625 15.796875 14.5 
Q 17.71875 10.359375 21.1875 8.171875 
Q 24.65625 6 28.46875 6 
Q 34.03125 6 38.03125 10.484375 
Q 42.046875 14.984375 42.046875 22.703125 
Q 42.046875 30.125 38.078125 34.390625 
Q 34.125 38.671875 28.125 38.671875 
Q 22.171875 38.671875 18.015625 34.390625 
Q 13.875 30.125 13.875 23.1875 
z
" id="ArialMT-54"/>
      </defs>
      <g transform="translate(182.155111 267.37865)scale(0.1056 -0.1056)">
       <use xlink:href="#ArialMT-54"/>
       <use x="55.615234" xlink:href="#ArialMT-48"/>
       <use x="111.230469" xlink:href="#ArialMT-48"/>
      </g>
     </g>
    </g>
    <g id="xtick_5">
     <g id="line2d_9">
      <g>
       <use style="stroke:#000000;" x="231.545455" xlink:href="#m1d549d9e72" y="256.32"/>
      </g>
     </g>
     <g id="line2d_10">
      <g>
       <use style="stroke:#000000;" x="231.545455" xlink:href="#m05d099b08f" y="34.56"/>
      </g>
     </g>
     <g id="text_5">
      <!-- 800 -->
      <defs>
       <path d="M 17.671875 38.8125 
Q 12.203125 40.828125 9.5625 44.53125 
Q 6.9375 48.25 6.9375 53.421875 
Q 6.9375 61.234375 12.546875 66.546875 
Q 18.171875 71.875 27.484375 71.875 
Q 36.859375 71.875 42.578125 66.421875 
Q 48.296875 60.984375 48.296875 53.171875 
Q 48.296875 48.1875 45.671875 44.5 
Q 43.0625 40.828125 37.75 38.8125 
Q 44.34375 36.671875 47.78125 31.875 
Q 51.21875 27.09375 51.21875 20.453125 
Q 51.21875 11.28125 44.71875 5.03125 
Q 38.234375 -1.21875 27.640625 -1.21875 
Q 17.046875 -1.21875 10.546875 5.046875 
Q 4.046875 11.328125 4.046875 20.703125 
Q 4.046875 27.6875 7.59375 32.390625 
Q 11.140625 37.109375 17.671875 38.8125 
z
M 15.921875 53.71875 
Q 15.921875 48.640625 19.1875 45.40625 
Q 22.46875 42.1875 27.6875 42.1875 
Q 32.765625 42.1875 36.015625 45.375 
Q 39.265625 48.578125 39.265625 53.21875 
Q 39.265625 58.0625 35.90625 61.359375 
Q 32.5625 64.65625 27.59375 64.65625 
Q 22.5625 64.65625 19.234375 61.421875 
Q 15.921875 58.203125 15.921875 53.71875 
z
M 13.09375 20.65625 
Q 13.09375 16.890625 14.875 13.375 
Q 16.65625 9.859375 20.171875 7.921875 
Q 23.6875 6 27.734375 6 
Q 34.03125 6 38.125 10.046875 
Q 42.234375 14.109375 42.234375 20.359375 
Q 42.234375 26.703125 38.015625 30.859375 
Q 33.796875 35.015625 27.4375 35.015625 
Q 21.234375 35.015625 17.15625 30.90625 
Q 13.09375 26.8125 13.09375 20.65625 
z
" id="ArialMT-56"/>
      </defs>
      <g transform="translate(222.73693 267.37865)scale(0.1056 -0.1056)">
       <use xlink:href="#ArialMT-56"/>
       <use x="55.615234" xlink:href="#ArialMT-48"/>
       <use x="111.230469" xlink:href="#ArialMT-48"/>
      </g>
     </g>
    </g>
    <g id="xtick_6">
     <g id="line2d_11">
      <g>
       <use style="stroke:#000000;" x="272.127273" xlink:href="#m1d549d9e72" y="256.32"/>
      </g>
     </g>
     <g id="line2d_12">
      <g>
       <use style="stroke:#000000;" x="272.127273" xlink:href="#m05d099b08f" y="34.56"/>
      </g>
     </g>
     <g id="text_6">
      <!-- 1000 -->
      <defs>
       <path d="M 37.25 0 
L 28.46875 0 
L 28.46875 56 
Q 25.296875 52.984375 20.140625 49.953125 
Q 14.984375 46.921875 10.890625 45.40625 
L 10.890625 53.90625 
Q 18.265625 57.375 23.78125 62.296875 
Q 29.296875 67.234375 31.59375 71.875 
L 37.25 71.875 
z
" id="ArialMT-49"/>
      </defs>
      <g transform="translate(260.382573 267.37865)scale(0.1056 -0.1056)">
       <use xlink:href="#ArialMT-49"/>
       <use x="55.615234" xlink:href="#ArialMT-48"/>
       <use x="111.230469" xlink:href="#ArialMT-48"/>
       <use x="166.845703" xlink:href="#ArialMT-48"/>
      </g>
     </g>
    </g>
    <g id="xtick_7">
     <g id="line2d_13">
      <g>
       <use style="stroke:#000000;" x="312.709091" xlink:href="#m1d549d9e72" y="256.32"/>
      </g>
     </g>
     <g id="line2d_14">
      <g>
       <use style="stroke:#000000;" x="312.709091" xlink:href="#m05d099b08f" y="34.56"/>
      </g>
     </g>
     <g id="text_7">
      <!-- 1200 -->
      <g transform="translate(300.964391 267.37865)scale(0.1056 -0.1056)">
       <use xlink:href="#ArialMT-49"/>
       <use x="55.615234" xlink:href="#ArialMT-50"/>
       <use x="111.230469" xlink:href="#ArialMT-48"/>
       <use x="166.845703" xlink:href="#ArialMT-48"/>
      </g>
     </g>
    </g>
    <g id="xtick_8">
     <g id="line2d_15">
      <g>
       <use style="stroke:#000000;" x="353.290909" xlink:href="#m1d549d9e72" y="256.32"/>
      </g>
     </g>
     <g id="line2d_16">
      <g>
       <use style="stroke:#000000;" x="353.290909" xlink:href="#m05d099b08f" y="34.56"/>
      </g>
     </g>
     <g id="text_8">
      <!-- 1400 -->
      <g transform="translate(341.546209 267.37865)scale(0.1056 -0.1056)">
       <use xlink:href="#ArialMT-49"/>
       <use x="55.615234" xlink:href="#ArialMT-52"/>
       <use x="111.230469" xlink:href="#ArialMT-48"/>
       <use x="166.845703" xlink:href="#ArialMT-48"/>
      </g>
     </g>
    </g>
    <g id="text_9">
     <!-- Generations -->
     <defs>
      <path d="M 41.21875 28.078125 
L 41.21875 36.46875 
L 71.53125 36.53125 
L 71.53125 9.96875 
Q 64.546875 4.390625 57.125 1.578125 
Q 49.703125 -1.21875 41.890625 -1.21875 
Q 31.34375 -1.21875 22.71875 3.296875 
Q 14.109375 7.8125 9.71875 16.359375 
Q 5.328125 24.90625 5.328125 35.453125 
Q 5.328125 45.90625 9.6875 54.953125 
Q 14.0625 64.015625 22.265625 68.40625 
Q 30.46875 72.796875 41.15625 72.796875 
Q 48.921875 72.796875 55.1875 70.28125 
Q 61.46875 67.78125 65.03125 63.28125 
Q 68.609375 58.796875 70.453125 51.5625 
L 61.921875 49.21875 
Q 60.296875 54.6875 57.90625 57.8125 
Q 55.515625 60.9375 51.0625 62.8125 
Q 46.625 64.703125 41.21875 64.703125 
Q 34.71875 64.703125 29.984375 62.71875 
Q 25.25 60.75 22.34375 57.515625 
Q 19.4375 54.296875 17.828125 50.4375 
Q 15.09375 43.796875 15.09375 36.03125 
Q 15.09375 26.46875 18.390625 20.015625 
Q 21.6875 13.578125 27.984375 10.453125 
Q 34.28125 7.328125 41.359375 7.328125 
Q 47.515625 7.328125 53.375 9.6875 
Q 59.234375 12.0625 62.25 14.75 
L 62.25 28.078125 
z
" id="ArialMT-71"/>
      <path d="M 42.09375 16.703125 
L 51.171875 15.578125 
Q 49.03125 7.625 43.21875 3.21875 
Q 37.40625 -1.171875 28.375 -1.171875 
Q 17 -1.171875 10.328125 5.828125 
Q 3.65625 12.84375 3.65625 25.484375 
Q 3.65625 38.578125 10.390625 45.796875 
Q 17.140625 53.03125 27.875 53.03125 
Q 38.28125 53.03125 44.875 45.953125 
Q 51.46875 38.875 51.46875 26.03125 
Q 51.46875 25.25 51.421875 23.6875 
L 12.75 23.6875 
Q 13.234375 15.140625 17.578125 10.59375 
Q 21.921875 6.0625 28.421875 6.0625 
Q 33.25 6.0625 36.671875 8.59375 
Q 40.09375 11.140625 42.09375 16.703125 
z
M 13.234375 30.90625 
L 42.1875 30.90625 
Q 41.609375 37.453125 38.875 40.71875 
Q 34.671875 45.796875 27.984375 45.796875 
Q 21.921875 45.796875 17.796875 41.75 
Q 13.671875 37.703125 13.234375 30.90625 
z
" id="ArialMT-101"/>
      <path d="M 6.59375 0 
L 6.59375 51.859375 
L 14.5 51.859375 
L 14.5 44.484375 
Q 20.21875 53.03125 31 53.03125 
Q 35.6875 53.03125 39.625 51.34375 
Q 43.5625 49.65625 45.515625 46.921875 
Q 47.46875 44.1875 48.25 40.4375 
Q 48.734375 37.984375 48.734375 31.890625 
L 48.734375 0 
L 39.9375 0 
L 39.9375 31.546875 
Q 39.9375 36.921875 38.90625 39.578125 
Q 37.890625 42.234375 35.28125 43.8125 
Q 32.671875 45.40625 29.15625 45.40625 
Q 23.53125 45.40625 19.453125 41.84375 
Q 15.375 38.28125 15.375 28.328125 
L 15.375 0 
z
" id="ArialMT-110"/>
      <path d="M 6.5 0 
L 6.5 51.859375 
L 14.40625 51.859375 
L 14.40625 44 
Q 17.4375 49.515625 20 51.265625 
Q 22.5625 53.03125 25.640625 53.03125 
Q 30.078125 53.03125 34.671875 50.203125 
L 31.640625 42.046875 
Q 28.421875 43.953125 25.203125 43.953125 
Q 22.3125 43.953125 20.015625 42.21875 
Q 17.71875 40.484375 16.75 37.40625 
Q 15.28125 32.71875 15.28125 27.15625 
L 15.28125 0 
z
" id="ArialMT-114"/>
      <path d="M 40.4375 6.390625 
Q 35.546875 2.25 31.03125 0.53125 
Q 26.515625 -1.171875 21.34375 -1.171875 
Q 12.796875 -1.171875 8.203125 3 
Q 3.609375 7.171875 3.609375 13.671875 
Q 3.609375 17.484375 5.34375 20.625 
Q 7.078125 23.78125 9.890625 25.6875 
Q 12.703125 27.59375 16.21875 28.5625 
Q 18.796875 29.25 24.03125 29.890625 
Q 34.671875 31.15625 39.703125 32.90625 
Q 39.75 34.71875 39.75 35.203125 
Q 39.75 40.578125 37.25 42.78125 
Q 33.890625 45.75 27.25 45.75 
Q 21.046875 45.75 18.09375 43.578125 
Q 15.140625 41.40625 13.71875 35.890625 
L 5.125 37.0625 
Q 6.296875 42.578125 8.984375 45.96875 
Q 11.671875 49.359375 16.75 51.1875 
Q 21.828125 53.03125 28.515625 53.03125 
Q 35.15625 53.03125 39.296875 51.46875 
Q 43.453125 49.90625 45.40625 47.53125 
Q 47.359375 45.171875 48.140625 41.546875 
Q 48.578125 39.3125 48.578125 33.453125 
L 48.578125 21.734375 
Q 48.578125 9.46875 49.140625 6.21875 
Q 49.703125 2.984375 51.375 0 
L 42.1875 0 
Q 40.828125 2.734375 40.4375 6.390625 
z
M 39.703125 26.03125 
Q 34.90625 24.078125 25.34375 22.703125 
Q 19.921875 21.921875 17.671875 20.9375 
Q 15.4375 19.96875 14.203125 18.09375 
Q 12.984375 16.21875 12.984375 13.921875 
Q 12.984375 10.40625 15.640625 8.0625 
Q 18.3125 5.71875 23.4375 5.71875 
Q 28.515625 5.71875 32.46875 7.9375 
Q 36.421875 10.15625 38.28125 14.015625 
Q 39.703125 17 39.703125 22.796875 
z
" id="ArialMT-97"/>
      <path d="M 25.78125 7.859375 
L 27.046875 0.09375 
Q 23.34375 -0.6875 20.40625 -0.6875 
Q 15.625 -0.6875 12.984375 0.828125 
Q 10.359375 2.34375 9.28125 4.8125 
Q 8.203125 7.28125 8.203125 15.1875 
L 8.203125 45.015625 
L 1.765625 45.015625 
L 1.765625 51.859375 
L 8.203125 51.859375 
L 8.203125 64.703125 
L 16.9375 69.96875 
L 16.9375 51.859375 
L 25.78125 51.859375 
L 25.78125 45.015625 
L 16.9375 45.015625 
L 16.9375 14.703125 
Q 16.9375 10.9375 17.40625 9.859375 
Q 17.875 8.796875 18.921875 8.15625 
Q 19.96875 7.515625 21.921875 7.515625 
Q 23.390625 7.515625 25.78125 7.859375 
z
" id="ArialMT-116"/>
      <path d="M 6.640625 61.46875 
L 6.640625 71.578125 
L 15.4375 71.578125 
L 15.4375 61.46875 
z
M 6.640625 0 
L 6.640625 51.859375 
L 15.4375 51.859375 
L 15.4375 0 
z
" id="ArialMT-105"/>
      <path d="M 3.328125 25.921875 
Q 3.328125 40.328125 11.328125 47.265625 
Q 18.015625 53.03125 27.640625 53.03125 
Q 38.328125 53.03125 45.109375 46.015625 
Q 51.90625 39.015625 51.90625 26.65625 
Q 51.90625 16.65625 48.90625 10.90625 
Q 45.90625 5.171875 40.15625 2 
Q 34.421875 -1.171875 27.640625 -1.171875 
Q 16.75 -1.171875 10.03125 5.8125 
Q 3.328125 12.796875 3.328125 25.921875 
z
M 12.359375 25.921875 
Q 12.359375 15.96875 16.703125 11.015625 
Q 21.046875 6.0625 27.640625 6.0625 
Q 34.1875 6.0625 38.53125 11.03125 
Q 42.875 16.015625 42.875 26.21875 
Q 42.875 35.84375 38.5 40.796875 
Q 34.125 45.75 27.640625 45.75 
Q 21.046875 45.75 16.703125 40.8125 
Q 12.359375 35.890625 12.359375 25.921875 
z
" id="ArialMT-111"/>
      <path d="M 3.078125 15.484375 
L 11.765625 16.84375 
Q 12.5 11.625 15.84375 8.84375 
Q 19.1875 6.0625 25.203125 6.0625 
Q 31.25 6.0625 34.171875 8.515625 
Q 37.109375 10.984375 37.109375 14.3125 
Q 37.109375 17.28125 34.515625 19 
Q 32.71875 20.171875 25.53125 21.96875 
Q 15.875 24.421875 12.140625 26.203125 
Q 8.40625 27.984375 6.46875 31.125 
Q 4.546875 34.28125 4.546875 38.09375 
Q 4.546875 41.546875 6.125 44.5 
Q 7.71875 47.46875 10.453125 49.421875 
Q 12.5 50.921875 16.03125 51.96875 
Q 19.578125 53.03125 23.640625 53.03125 
Q 29.734375 53.03125 34.34375 51.265625 
Q 38.96875 49.515625 41.15625 46.5 
Q 43.359375 43.5 44.1875 38.484375 
L 35.59375 37.3125 
Q 35.015625 41.3125 32.203125 43.546875 
Q 29.390625 45.796875 24.265625 45.796875 
Q 18.21875 45.796875 15.625 43.796875 
Q 13.03125 41.796875 13.03125 39.109375 
Q 13.03125 37.40625 14.109375 36.03125 
Q 15.1875 34.625 17.484375 33.6875 
Q 18.796875 33.203125 25.25 31.453125 
Q 34.578125 28.953125 38.25 27.359375 
Q 41.9375 25.78125 44.03125 22.75 
Q 46.140625 19.734375 46.140625 15.234375 
Q 46.140625 10.84375 43.578125 6.953125 
Q 41.015625 3.078125 36.171875 0.953125 
Q 31.34375 -1.171875 25.25 -1.171875 
Q 15.140625 -1.171875 9.84375 3.03125 
Q 4.546875 7.234375 3.078125 15.484375 
z
" id="ArialMT-115"/>
     </defs>
     <g transform="translate(190.0233 281.72325)scale(0.1152 -0.1152)">
      <use xlink:href="#ArialMT-71"/>
      <use x="77.783203" xlink:href="#ArialMT-101"/>
      <use x="133.398438" xlink:href="#ArialMT-110"/>
      <use x="189.013672" xlink:href="#ArialMT-101"/>
      <use x="244.628906" xlink:href="#ArialMT-114"/>
      <use x="277.929688" xlink:href="#ArialMT-97"/>
      <use x="333.544922" xlink:href="#ArialMT-116"/>
      <use x="361.328125" xlink:href="#ArialMT-105"/>
      <use x="383.544922" xlink:href="#ArialMT-111"/>
      <use x="439.160156" xlink:href="#ArialMT-110"/>
      <use x="494.775391" xlink:href="#ArialMT-115"/>
     </g>
    </g>
   </g>
   <g id="matplotlib.axis_2">
    <g id="ytick_1">
     <g id="line2d_17">
      <defs>
       <path d="M 0 0 
L 3 0 
" id="m5da6362cf6" style="stroke:#000000;"/>
      </defs>
      <g>
       <use style="stroke:#000000;" x="54" xlink:href="#m5da6362cf6" y="183.51936"/>
      </g>
     </g>
     <g id="line2d_18">
      <defs>
       <path d="M 0 0 
L -3 0 
" id="mb96a405a13" style="stroke:#000000;"/>
      </defs>
      <g>
       <use style="stroke:#000000;" x="388.8" xlink:href="#mb96a405a13" y="183.51936"/>
      </g>
     </g>
     <g id="text_10">
      <!-- $\mathdefault{10^{-4}}$ -->
      <defs>
       <path d="M 52.828125 31.203125 
L 5.5625 31.203125 
L 5.5625 39.40625 
L 52.828125 39.40625 
z
" id="ArialMT-8722"/>
      </defs>
      <g transform="translate(29.5912 188.91156)scale(0.1056 -0.1056)">
       <use transform="translate(0 0.201563)" xlink:href="#ArialMT-49"/>
       <use transform="translate(55.615234 0.201563)" xlink:href="#ArialMT-48"/>
       <use transform="translate(112.972813 69.895313)scale(0.7)" xlink:href="#ArialMT-8722"/>
       <use transform="translate(153.851719 69.895313)scale(0.7)" xlink:href="#ArialMT-52"/>
      </g>
     </g>
    </g>
    <g id="ytick_2">
     <g id="line2d_19">
      <g>
       <use style="stroke:#000000;" x="54" xlink:href="#m5da6362cf6" y="83.803215"/>
      </g>
     </g>
     <g id="line2d_20">
      <g>
       <use style="stroke:#000000;" x="388.8" xlink:href="#mb96a405a13" y="83.803215"/>
      </g>
     </g>
     <g id="text_11">
      <!-- $\mathdefault{10^{-3}}$ -->
      <defs>
       <path d="M 4.203125 18.890625 
L 12.984375 20.0625 
Q 14.5 12.59375 18.140625 9.296875 
Q 21.78125 6 27 6 
Q 33.203125 6 37.46875 10.296875 
Q 41.75 14.59375 41.75 20.953125 
Q 41.75 27 37.796875 30.921875 
Q 33.84375 34.859375 27.734375 34.859375 
Q 25.25 34.859375 21.53125 33.890625 
L 22.515625 41.609375 
Q 23.390625 41.5 23.921875 41.5 
Q 29.546875 41.5 34.03125 44.421875 
Q 38.53125 47.359375 38.53125 53.46875 
Q 38.53125 58.296875 35.25 61.46875 
Q 31.984375 64.65625 26.8125 64.65625 
Q 21.6875 64.65625 18.265625 61.421875 
Q 14.84375 58.203125 13.875 51.765625 
L 5.078125 53.328125 
Q 6.6875 62.15625 12.390625 67.015625 
Q 18.109375 71.875 26.609375 71.875 
Q 32.46875 71.875 37.390625 69.359375 
Q 42.328125 66.84375 44.9375 62.5 
Q 47.5625 58.15625 47.5625 53.265625 
Q 47.5625 48.640625 45.0625 44.828125 
Q 42.578125 41.015625 37.703125 38.765625 
Q 44.046875 37.3125 47.5625 32.6875 
Q 51.078125 28.078125 51.078125 21.140625 
Q 51.078125 11.765625 44.234375 5.25 
Q 37.40625 -1.265625 26.953125 -1.265625 
Q 17.53125 -1.265625 11.296875 4.34375 
Q 5.078125 9.96875 4.203125 18.890625 
z
" id="ArialMT-51"/>
      </defs>
      <g transform="translate(29.5912 89.248215)scale(0.1056 -0.1056)">
       <use transform="translate(0 0.99375)" xlink:href="#ArialMT-49"/>
       <use transform="translate(55.615234 0.99375)" xlink:href="#ArialMT-48"/>
       <use transform="translate(112.972813 70.6875)scale(0.7)" xlink:href="#ArialMT-8722"/>
       <use transform="translate(153.851719 70.6875)scale(0.7)" xlink:href="#ArialMT-51"/>
      </g>
     </g>
    </g>
    <g id="ytick_3">
     <g id="line2d_21">
      <defs>
       <path d="M 0 0 
L 3.2 0 
" id="mcb7c93bb3a" style="stroke:#000000;stroke-width:0.8;"/>
      </defs>
      <g>
       <use style="stroke:#000000;stroke-width:0.8;" x="54" xlink:href="#mcb7c93bb3a" y="253.217954"/>
      </g>
     </g>
     <g id="line2d_22">
      <defs>
       <path d="M 0 0 
L -3.2 0 
" id="m76c32ae961" style="stroke:#000000;stroke-width:0.8;"/>
      </defs>
      <g>
       <use style="stroke:#000000;stroke-width:0.8;" x="388.8" xlink:href="#m76c32ae961" y="253.217954"/>
      </g>
     </g>
    </g>
    <g id="ytick_4">
     <g id="line2d_23">
      <g>
       <use style="stroke:#000000;stroke-width:0.8;" x="54" xlink:href="#mcb7c93bb3a" y="235.658813"/>
      </g>
     </g>
     <g id="line2d_24">
      <g>
       <use style="stroke:#000000;stroke-width:0.8;" x="388.8" xlink:href="#m76c32ae961" y="235.658813"/>
      </g>
     </g>
    </g>
    <g id="ytick_5">
     <g id="line2d_25">
      <g>
       <use style="stroke:#000000;stroke-width:0.8;" x="54" xlink:href="#mcb7c93bb3a" y="223.200404"/>
      </g>
     </g>
     <g id="line2d_26">
      <g>
       <use style="stroke:#000000;stroke-width:0.8;" x="388.8" xlink:href="#m76c32ae961" y="223.200404"/>
      </g>
     </g>
    </g>
    <g id="ytick_6">
     <g id="line2d_27">
      <g>
       <use style="stroke:#000000;stroke-width:0.8;" x="54" xlink:href="#mcb7c93bb3a" y="213.536911"/>
      </g>
     </g>
     <g id="line2d_28">
      <g>
       <use style="stroke:#000000;stroke-width:0.8;" x="388.8" xlink:href="#m76c32ae961" y="213.536911"/>
      </g>
     </g>
    </g>
    <g id="ytick_7">
     <g id="line2d_29">
      <g>
       <use style="stroke:#000000;stroke-width:0.8;" x="54" xlink:href="#mcb7c93bb3a" y="205.641262"/>
      </g>
     </g>
     <g id="line2d_30">
      <g>
       <use style="stroke:#000000;stroke-width:0.8;" x="388.8" xlink:href="#m76c32ae961" y="205.641262"/>
      </g>
     </g>
    </g>
    <g id="ytick_8">
     <g id="line2d_31">
      <g>
       <use style="stroke:#000000;stroke-width:0.8;" x="54" xlink:href="#mcb7c93bb3a" y="198.965586"/>
      </g>
     </g>
     <g id="line2d_32">
      <g>
       <use style="stroke:#000000;stroke-width:0.8;" x="388.8" xlink:href="#m76c32ae961" y="198.965586"/>
      </g>
     </g>
    </g>
    <g id="ytick_9">
     <g id="line2d_33">
      <g>
       <use style="stroke:#000000;stroke-width:0.8;" x="54" xlink:href="#mcb7c93bb3a" y="193.182853"/>
      </g>
     </g>
     <g id="line2d_34">
      <g>
       <use style="stroke:#000000;stroke-width:0.8;" x="388.8" xlink:href="#m76c32ae961" y="193.182853"/>
      </g>
     </g>
    </g>
    <g id="ytick_10">
     <g id="line2d_35">
      <g>
       <use style="stroke:#000000;stroke-width:0.8;" x="54" xlink:href="#mcb7c93bb3a" y="188.08212"/>
      </g>
     </g>
     <g id="line2d_36">
      <g>
       <use style="stroke:#000000;stroke-width:0.8;" x="388.8" xlink:href="#m76c32ae961" y="188.08212"/>
      </g>
     </g>
    </g>
    <g id="ytick_11">
     <g id="line2d_37">
      <g>
       <use style="stroke:#000000;stroke-width:0.8;" x="54" xlink:href="#mcb7c93bb3a" y="153.501809"/>
      </g>
     </g>
     <g id="line2d_38">
      <g>
       <use style="stroke:#000000;stroke-width:0.8;" x="388.8" xlink:href="#m76c32ae961" y="153.501809"/>
      </g>
     </g>
    </g>
    <g id="ytick_12">
     <g id="line2d_39">
      <g>
       <use style="stroke:#000000;stroke-width:0.8;" x="54" xlink:href="#mcb7c93bb3a" y="135.942667"/>
      </g>
     </g>
     <g id="line2d_40">
      <g>
       <use style="stroke:#000000;stroke-width:0.8;" x="388.8" xlink:href="#m76c32ae961" y="135.942667"/>
      </g>
     </g>
    </g>
    <g id="ytick_13">
     <g id="line2d_41">
      <g>
       <use style="stroke:#000000;stroke-width:0.8;" x="54" xlink:href="#mcb7c93bb3a" y="123.484258"/>
      </g>
     </g>
     <g id="line2d_42">
      <g>
       <use style="stroke:#000000;stroke-width:0.8;" x="388.8" xlink:href="#m76c32ae961" y="123.484258"/>
      </g>
     </g>
    </g>
    <g id="ytick_14">
     <g id="line2d_43">
      <g>
       <use style="stroke:#000000;stroke-width:0.8;" x="54" xlink:href="#mcb7c93bb3a" y="113.820765"/>
      </g>
     </g>
     <g id="line2d_44">
      <g>
       <use style="stroke:#000000;stroke-width:0.8;" x="388.8" xlink:href="#m76c32ae961" y="113.820765"/>
      </g>
     </g>
    </g>
    <g id="ytick_15">
     <g id="line2d_45">
      <g>
       <use style="stroke:#000000;stroke-width:0.8;" x="54" xlink:href="#mcb7c93bb3a" y="105.925117"/>
      </g>
     </g>
     <g id="line2d_46">
      <g>
       <use style="stroke:#000000;stroke-width:0.8;" x="388.8" xlink:href="#m76c32ae961" y="105.925117"/>
      </g>
     </g>
    </g>
    <g id="ytick_16">
     <g id="line2d_47">
      <g>
       <use style="stroke:#000000;stroke-width:0.8;" x="54" xlink:href="#mcb7c93bb3a" y="99.249441"/>
      </g>
     </g>
     <g id="line2d_48">
      <g>
       <use style="stroke:#000000;stroke-width:0.8;" x="388.8" xlink:href="#m76c32ae961" y="99.249441"/>
      </g>
     </g>
    </g>
    <g id="ytick_17">
     <g id="line2d_49">
      <g>
       <use style="stroke:#000000;stroke-width:0.8;" x="54" xlink:href="#mcb7c93bb3a" y="93.466708"/>
      </g>
     </g>
     <g id="line2d_50">
      <g>
       <use style="stroke:#000000;stroke-width:0.8;" x="388.8" xlink:href="#m76c32ae961" y="93.466708"/>
      </g>
     </g>
    </g>
    <g id="ytick_18">
     <g id="line2d_51">
      <g>
       <use style="stroke:#000000;stroke-width:0.8;" x="54" xlink:href="#mcb7c93bb3a" y="88.365975"/>
      </g>
     </g>
     <g id="line2d_52">
      <g>
       <use style="stroke:#000000;stroke-width:0.8;" x="388.8" xlink:href="#m76c32ae961" y="88.365975"/>
      </g>
     </g>
    </g>
    <g id="ytick_19">
     <g id="line2d_53">
      <g>
       <use style="stroke:#000000;stroke-width:0.8;" x="54" xlink:href="#mcb7c93bb3a" y="53.785664"/>
      </g>
     </g>
     <g id="line2d_54">
      <g>
       <use style="stroke:#000000;stroke-width:0.8;" x="388.8" xlink:href="#m76c32ae961" y="53.785664"/>
      </g>
     </g>
    </g>
    <g id="ytick_20">
     <g id="line2d_55">
      <g>
       <use style="stroke:#000000;stroke-width:0.8;" x="54" xlink:href="#mcb7c93bb3a" y="36.226522"/>
      </g>
     </g>
     <g id="line2d_56">
      <g>
       <use style="stroke:#000000;stroke-width:0.8;" x="388.8" xlink:href="#m76c32ae961" y="36.226522"/>
      </g>
     </g>
    </g>
    <g id="text_12">
     <!-- IGD -->
     <defs>
      <path d="M 9.328125 0 
L 9.328125 71.578125 
L 18.796875 71.578125 
L 18.796875 0 
z
" id="ArialMT-73"/>
      <path d="M 7.71875 0 
L 7.71875 71.578125 
L 32.375 71.578125 
Q 40.71875 71.578125 45.125 70.5625 
Q 51.265625 69.140625 55.609375 65.4375 
Q 61.28125 60.640625 64.078125 53.1875 
Q 66.890625 45.75 66.890625 36.1875 
Q 66.890625 28.03125 64.984375 21.734375 
Q 63.09375 15.4375 60.109375 11.296875 
Q 57.125 7.171875 53.578125 4.796875 
Q 50.046875 2.4375 45.046875 1.21875 
Q 40.046875 0 33.546875 0 
z
M 17.1875 8.453125 
L 32.46875 8.453125 
Q 39.546875 8.453125 43.578125 9.765625 
Q 47.609375 11.078125 50 13.484375 
Q 53.375 16.84375 55.25 22.53125 
Q 57.125 28.21875 57.125 36.328125 
Q 57.125 47.5625 53.4375 53.59375 
Q 49.75 59.625 44.484375 61.671875 
Q 40.671875 63.140625 32.234375 63.140625 
L 17.1875 63.140625 
z
" id="ArialMT-68"/>
     </defs>
     <g transform="translate(23.3016 155.6802)rotate(-90)scale(0.1152 -0.1152)">
      <use xlink:href="#ArialMT-73"/>
      <use x="27.783203" xlink:href="#ArialMT-71"/>
      <use x="105.566406" xlink:href="#ArialMT-68"/>
     </g>
    </g>
   </g>
   <g id="line2d_57">
    <path clip-path="url(#p27d04833a6)" d="M 69.218182 44.895033 
L 69.421091 72.724846 
L 69.624 72.574796 
L 69.826909 72.963689 
L 70.029818 72.343003 
L 70.435636 73.782055 
L 70.638545 74.101184 
L 70.841455 108.05053 
L 71.044364 88.925474 
L 71.247273 114.56369 
L 71.653091 104.701833 
L 71.856 108.839804 
L 72.058909 108.885459 
L 72.261818 127.998326 
L 72.464727 135.23828 
L 73.073455 139.455587 
L 73.276364 141.693852 
L 73.479273 142.511578 
L 73.682182 141.275988 
L 73.885091 142.285579 
L 74.493818 147.423382 
L 74.899636 148.650615 
L 75.102545 148.841825 
L 76.32 151.357586 
L 76.725818 151.841301 
L 76.928727 153.015379 
L 77.334545 153.856181 
L 77.537455 155.63314 
L 77.740364 155.909962 
L 77.943273 157.698349 
L 78.146182 163.984361 
L 78.349091 163.295338 
L 78.957818 165.040156 
L 79.160727 165.645493 
L 79.363636 164.811948 
L 80.175273 165.463516 
L 80.378182 145.991965 
L 80.581091 142.650724 
L 80.784 159.74397 
L 80.986909 158.565898 
L 81.392727 163.180696 
L 81.595636 163.679489 
L 82.001455 165.499588 
L 82.204364 165.616808 
L 82.407273 163.506107 
L 82.610182 163.433762 
L 82.813091 165.064513 
L 83.016 165.197527 
L 83.218909 165.877582 
L 83.421818 166.128496 
L 83.624727 166.782057 
L 83.827636 166.830165 
L 84.233455 167.429614 
L 84.436364 167.933146 
L 85.653818 169.031813 
L 85.856727 169.341273 
L 86.059636 169.285589 
L 86.262545 169.551103 
L 86.465455 169.521676 
L 86.668364 174.642512 
L 86.871273 174.036428 
L 87.074182 173.972145 
L 87.885818 175.027308 
L 88.291636 175.888912 
L 88.494545 174.401642 
L 88.697455 174.331731 
L 89.103273 175.798053 
L 89.306182 175.915263 
L 89.509091 172.986761 
L 89.712 173.024511 
L 89.914909 172.362151 
L 90.320727 172.921921 
L 90.523636 172.907107 
L 90.929455 173.146638 
L 91.132364 177.274694 
L 91.335273 176.891568 
L 91.741091 177.58204 
L 91.944 177.827463 
L 92.146909 178.498015 
L 92.349818 178.63401 
L 92.552727 177.653947 
L 92.755636 177.933062 
L 92.958545 177.81605 
L 93.161455 178.552916 
L 93.364364 178.546318 
L 93.567273 178.836451 
L 93.770182 178.838005 
L 93.973091 179.059321 
L 94.378909 179.033152 
L 94.581818 175.78203 
L 94.784727 175.361089 
L 95.190545 175.585516 
L 95.393455 176.284894 
L 95.799273 176.575642 
L 96.610909 176.779211 
L 97.016727 177.061639 
L 97.219636 176.856676 
L 97.422545 176.929323 
L 97.625455 176.86137 
L 97.828364 177.584889 
L 98.234182 177.829939 
L 98.437091 175.713277 
L 98.64 175.785921 
L 98.842909 181.141423 
L 99.045818 180.415605 
L 99.248727 180.375031 
L 99.654545 180.940323 
L 99.857455 180.482142 
L 100.263273 182.595937 
L 100.872 183.166428 
L 101.074909 169.186655 
L 101.277818 163.553248 
L 101.683636 164.653751 
L 102.089455 167.074489 
L 102.292364 167.831932 
L 103.104 168.676746 
L 103.306909 171.860246 
L 103.712727 171.41094 
L 103.915636 171.721475 
L 104.727273 172.033675 
L 104.930182 172.157794 
L 105.133091 172.112584 
L 105.336 172.36699 
L 105.741818 172.345678 
L 106.756364 172.585552 
L 106.959273 172.016703 
L 107.162182 174.151249 
L 107.770909 174.310729 
L 107.973818 174.095367 
L 108.176727 174.304977 
L 108.379636 184.818443 
L 108.582545 181.645534 
L 108.988364 182.450278 
L 109.191273 184.230628 
L 109.394182 184.370449 
L 109.597091 185.029887 
L 109.8 174.111158 
L 110.002909 169.188205 
L 110.205818 169.433744 
L 110.611636 170.626099 
L 111.017455 172.345218 
L 111.423273 172.887815 
L 111.626182 173.728146 
L 111.829091 173.633961 
L 112.032 173.810153 
L 112.234909 174.887612 
L 112.437818 174.702566 
L 112.843636 175.445313 
L 113.249455 175.447958 
L 113.655273 175.474038 
L 114.669818 175.526914 
L 115.278545 175.677126 
L 115.481455 175.687449 
L 115.887273 175.56811 
L 116.496 175.837053 
L 117.916364 175.991241 
L 118.322182 176.061117 
L 118.525091 175.911341 
L 119.945455 176.160718 
L 121.365818 176.100709 
L 121.568727 178.77021 
L 121.974545 178.511817 
L 122.380364 178.808568 
L 123.192 178.888088 
L 123.394909 180.375051 
L 123.800727 180.374138 
L 124.206545 180.493885 
L 125.424 180.501641 
L 125.829818 180.532832 
L 126.032727 188.475525 
L 126.235636 186.674345 
L 127.047273 188.000519 
L 127.453091 188.362594 
L 127.656 189.144711 
L 127.858909 189.388131 
L 128.264727 189.34782 
L 128.670545 189.458995 
L 128.873455 189.674779 
L 129.685091 189.786277 
L 129.888 189.776404 
L 130.090909 190.415168 
L 130.293818 190.451215 
L 130.699636 190.217837 
L 131.308364 190.664249 
L 131.714182 190.591326 
L 131.917091 190.332057 
L 133.134545 190.460343 
L 133.337455 190.442663 
L 133.540364 190.594316 
L 134.757818 190.606937 
L 134.960727 190.406601 
L 135.163636 190.610086 
L 135.772364 190.459735 
L 135.975273 190.82164 
L 136.178182 190.820281 
L 136.381091 190.616704 
L 136.786909 190.819639 
L 136.989818 190.819988 
L 137.395636 191.003927 
L 139.627636 191.116102 
L 139.830545 191.309747 
L 140.845091 191.351982 
L 141.250909 191.457673 
L 141.453818 191.45807 
L 141.656727 192.743817 
L 142.062545 192.670017 
L 143.685818 192.776845 
L 143.888727 202.584709 
L 144.091636 200.184962 
L 144.294545 200.065234 
L 144.497455 200.603155 
L 145.309091 200.888196 
L 145.512 201.561001 
L 145.714909 201.562169 
L 146.120727 201.80761 
L 146.323636 201.822037 
L 146.932364 202.477262 
L 147.338182 202.618099 
L 147.541091 202.737151 
L 147.744 201.907647 
L 147.946909 201.880385 
L 148.149818 201.490586 
L 148.555636 197.981101 
L 148.758545 197.967718 
L 149.164364 198.523319 
L 149.367273 198.442762 
L 150.381818 199.123503 
L 150.584727 205.215009 
L 150.990545 203.331592 
L 151.396364 204.231903 
L 151.599273 204.406676 
L 152.005091 205.852692 
L 152.208 205.833165 
L 152.410909 203.817936 
L 152.613818 204.087047 
L 153.019636 204.979663 
L 153.425455 205.04927 
L 153.831273 205.238418 
L 154.44 205.291197 
L 154.642909 205.304508 
L 154.845818 205.649368 
L 155.048727 205.634575 
L 155.251636 203.78019 
L 155.454545 203.322392 
L 155.657455 204.713981 
L 155.860364 204.693199 
L 156.266182 209.354164 
L 156.672 208.540649 
L 156.874909 208.592786 
L 157.077818 208.381779 
L 157.280727 208.378079 
L 157.483636 208.58328 
L 158.701091 208.623578 
L 159.309818 210.632186 
L 159.918545 210.725684 
L 160.324364 211.031176 
L 160.527273 211.191513 
L 161.338909 211.236048 
L 161.744727 207.919204 
L 161.947636 208.447538 
L 162.150545 215.105584 
L 162.353455 213.66145 
L 162.556364 213.71927 
L 162.759273 213.361704 
L 163.165091 214.385595 
L 163.368 214.493973 
L 163.773818 214.426045 
L 163.976727 214.449061 
L 164.179636 215.361669 
L 164.382545 215.721269 
L 165.6 216.401468 
L 165.802909 220.986782 
L 166.005818 219.721545 
L 166.208727 219.364977 
L 166.411636 219.353078 
L 166.614545 219.055477 
L 166.817455 219.239137 
L 167.020364 219.833013 
L 167.223273 219.852006 
L 167.426182 220.075981 
L 167.629091 219.92986 
L 167.832 220.211054 
L 168.440727 220.156385 
L 168.643636 219.367957 
L 169.252364 219.824454 
L 169.455273 221.120867 
L 169.861091 224.551113 
L 170.064 225.261115 
L 170.266909 225.537435 
L 170.469818 224.929992 
L 170.672727 224.933083 
L 170.875636 225.254247 
L 171.078545 225.895167 
L 171.281455 225.949057 
L 171.687273 225.771674 
L 172.093091 225.893966 
L 172.701818 226.062042 
L 172.904727 224.485579 
L 173.107636 224.131123 
L 173.513455 223.874375 
L 173.716364 225.100065 
L 174.528 224.894744 
L 174.730909 225.536751 
L 175.339636 225.745408 
L 175.542545 226.131414 
L 175.948364 225.959664 
L 176.354182 226.098865 
L 176.557091 226.424168 
L 176.76 226.309926 
L 177.165818 226.506029 
L 177.571636 226.547683 
L 177.977455 226.417265 
L 178.789091 226.486111 
L 178.992 226.805187 
L 179.194909 226.805516 
L 180.006545 227.283151 
L 180.209455 227.295875 
L 180.412364 227.904921 
L 181.021091 227.932566 
L 181.426909 227.993267 
L 181.629818 228.207979 
L 182.441455 228.26961 
L 182.644364 228.262154 
L 182.847273 234.897144 
L 183.050182 222.970877 
L 183.253091 222.863457 
L 183.456 222.442523 
L 183.861818 228.351934 
L 184.064727 228.941425 
L 184.470545 231.422281 
L 184.673455 230.914603 
L 184.876364 226.099702 
L 185.079273 225.190303 
L 185.485091 230.924236 
L 185.688 231.865271 
L 185.890909 232.023851 
L 186.296727 233.81875 
L 186.499636 233.113119 
L 186.905455 233.289702 
L 187.108364 233.359887 
L 187.311273 234.223933 
L 187.514182 234.421949 
L 187.717091 234.347321 
L 187.92 235.543314 
L 188.122909 235.459983 
L 188.325818 235.512989 
L 188.528727 236.753989 
L 188.731636 236.881618 
L 188.934545 238.017934 
L 189.137455 238.110171 
L 189.340364 238.06898 
L 189.746182 238.294118 
L 189.949091 238.483803 
L 190.152 238.471939 
L 190.354909 238.710916 
L 190.557818 238.513299 
L 190.760727 237.27385 
L 191.572364 237.473092 
L 191.775273 229.744018 
L 191.978182 210.856734 
L 192.181091 211.368982 
L 192.384 212.27852 
L 192.992727 221.409855 
L 193.601455 227.22715 
L 194.007273 218.10769 
L 194.210182 218.047472 
L 194.413091 218.331995 
L 194.616 217.718196 
L 194.818909 218.381799 
L 195.021818 220.57314 
L 195.224727 220.702295 
L 195.630545 221.416888 
L 195.833455 220.729249 
L 196.036364 221.900096 
L 196.239273 222.08679 
L 196.442182 222.944333 
L 196.645091 222.931122 
L 196.848 223.072216 
L 197.050909 224.079866 
L 197.253818 224.052442 
L 198.268364 224.676741 
L 198.471273 224.484784 
L 198.674182 224.458015 
L 199.08 221.229539 
L 199.282909 222.25286 
L 199.485818 222.324419 
L 199.688727 224.892258 
L 199.891636 225.069523 
L 200.094545 225.789781 
L 200.297455 225.998887 
L 200.500364 225.927201 
L 200.703273 225.602772 
L 200.906182 225.506634 
L 201.109091 225.910394 
L 201.920727 226.254956 
L 202.123636 237.524709 
L 202.326545 226.260905 
L 202.529455 227.457961 
L 202.732364 227.915524 
L 202.935273 231.503583 
L 203.138182 231.453543 
L 203.341091 234.204775 
L 203.544 234.482425 
L 203.746909 236.625657 
L 204.152727 237.361548 
L 204.558545 237.868236 
L 204.761455 237.44621 
L 204.964364 237.970908 
L 205.167273 238.13921 
L 205.370182 238.886367 
L 205.573091 238.896576 
L 205.978909 239.089708 
L 206.181818 239.092225 
L 206.384727 240.431856 
L 206.587636 240.402422 
L 206.790545 240.723763 
L 206.993455 240.498183 
L 207.196364 240.74475 
L 207.602182 240.772633 
L 207.805091 240.464628 
L 208.008 240.591362 
L 208.413818 240.572549 
L 208.616727 240.759317 
L 208.819636 240.678198 
L 209.022545 238.622914 
L 209.428364 239.22842 
L 209.631273 239.120285 
L 209.834182 237.885077 
L 210.037091 237.531856 
L 210.645818 237.289671 
L 210.848727 237.737871 
L 211.254545 237.76769 
L 211.457455 237.490682 
L 211.660364 238.239161 
L 211.863273 238.371347 
L 212.066182 238.744919 
L 212.269091 238.607539 
L 212.472 238.021531 
L 212.674909 238.590918 
L 212.877818 238.426224 
L 213.283636 238.602421 
L 213.892364 238.568352 
L 214.095273 238.976891 
L 214.298182 238.755518 
L 214.501091 238.978614 
L 215.109818 238.972758 
L 215.312727 238.656279 
L 215.921455 238.61935 
L 216.124364 242.093628 
L 216.327273 242.111074 
L 216.733091 242.402625 
L 216.936 242.405809 
L 217.138909 242.558442 
L 217.341818 243.01148 
L 217.747636 242.937406 
L 217.950545 243.122022 
L 218.153455 243.115214 
L 218.356364 243.956176 
L 218.965091 244.081941 
L 219.370909 244.593678 
L 219.776727 242.261779 
L 219.979636 244.350177 
L 220.385455 244.522794 
L 220.588364 246.000195 
L 220.791273 245.716539 
L 220.994182 245.989287 
L 221.602909 246.025508 
L 222.211636 246.24 
L 222.617455 246.127166 
L 373.581818 246.127166 
L 373.581818 246.127166 
" style="fill:none;stroke:#023eff;stroke-linecap:round;stroke-width:1.2;"/>
    <defs>
     <path d="M 0 2.4 
C 0.636487 2.4 1.246992 2.147121 1.697056 1.697056 
C 2.147121 1.246992 2.4 0.636487 2.4 0 
C 2.4 -0.636487 2.147121 -1.246992 1.697056 -1.697056 
C 1.246992 -2.147121 0.636487 -2.4 0 -2.4 
C -0.636487 -2.4 -1.246992 -2.147121 -1.697056 -1.697056 
C -2.147121 -1.246992 -2.4 -0.636487 -2.4 0 
C -2.4 0.636487 -2.147121 1.246992 -1.697056 1.697056 
C -1.246992 2.147121 -0.636487 2.4 0 2.4 
z
" id="mc3bb9230ed" style="stroke:#023eff;"/>
    </defs>
    <g clip-path="url(#p27d04833a6)">
     <use style="fill-opacity:0;stroke:#023eff;" x="69.218182" xlink:href="#mc3bb9230ed" y="44.895033"/>
     <use style="fill-opacity:0;stroke:#023eff;" x="109.8" xlink:href="#mc3bb9230ed" y="174.111158"/>
     <use style="fill-opacity:0;stroke:#023eff;" x="150.381818" xlink:href="#mc3bb9230ed" y="199.123503"/>
     <use style="fill-opacity:0;stroke:#023eff;" x="190.963636" xlink:href="#mc3bb9230ed" y="237.324903"/>
     <use style="fill-opacity:0;stroke:#023eff;" x="231.545455" xlink:href="#mc3bb9230ed" y="246.127166"/>
     <use style="fill-opacity:0;stroke:#023eff;" x="272.127273" xlink:href="#mc3bb9230ed" y="246.127166"/>
     <use style="fill-opacity:0;stroke:#023eff;" x="312.709091" xlink:href="#mc3bb9230ed" y="246.127166"/>
     <use style="fill-opacity:0;stroke:#023eff;" x="353.290909" xlink:href="#mc3bb9230ed" y="246.127166"/>
    </g>
   </g>
   <g id="line2d_58">
    <path clip-path="url(#p27d04833a6)" d="M 69.218182 45.615832 
L 69.421091 49.41957 
L 69.624 46.382798 
L 69.826909 47.193286 
L 70.029818 47.351988 
L 70.232727 50.971597 
L 70.435636 52.34562 
L 70.638545 52.285927 
L 70.841455 52.408823 
L 71.247273 55.859765 
L 71.450182 56.197944 
L 71.653091 56.830819 
L 71.856 60.19291 
L 72.261818 62.025253 
L 72.464727 61.695865 
L 72.870545 61.687585 
L 73.073455 61.698874 
L 73.276364 61.327565 
L 73.479273 70.810736 
L 73.682182 70.894932 
L 73.885091 72.782445 
L 74.088 67.894047 
L 74.290909 68.053888 
L 74.899636 75.496544 
L 75.102545 75.53544 
L 75.305455 75.910435 
L 75.508364 75.338318 
L 75.711273 83.046446 
L 76.32 83.237726 
L 76.522909 86.020203 
L 76.928727 85.768506 
L 77.131636 85.961081 
L 77.334545 91.411544 
L 77.537455 92.468657 
L 77.740364 92.501496 
L 77.943273 92.716787 
L 78.146182 93.799362 
L 78.754909 93.810186 
L 79.160727 93.93691 
L 79.363636 95.935717 
L 79.566545 95.977788 
L 79.769455 96.305021 
L 79.972364 94.884588 
L 80.175273 96.170446 
L 80.378182 95.313494 
L 80.581091 95.316675 
L 80.986909 99.140373 
L 83.016 99.365663 
L 83.624727 99.435477 
L 83.827636 100.388538 
L 84.030545 102.958485 
L 84.233455 102.912185 
L 84.639273 103.030774 
L 85.045091 103.051191 
L 85.248 104.305845 
L 85.450909 104.400875 
L 85.653818 106.631401 
L 86.262545 106.693639 
L 86.465455 109.073458 
L 86.668364 109.415734 
L 86.871273 109.474509 
L 87.074182 112.016219 
L 87.277091 111.210493 
L 87.682909 111.233163 
L 87.885818 117.340668 
L 88.088727 119.661098 
L 88.291636 119.561578 
L 88.494545 124.236791 
L 88.697455 119.335881 
L 88.900364 119.331963 
L 89.306182 119.578587 
L 89.509091 116.426683 
L 89.712 116.246677 
L 89.914909 119.013311 
L 90.117818 118.963463 
L 90.320727 121.950983 
L 90.726545 121.772956 
L 90.929455 121.931164 
L 91.132364 129.265419 
L 91.335273 130.225567 
L 91.538182 130.598042 
L 91.741091 130.620334 
L 91.944 130.977849 
L 92.349818 130.994982 
L 92.552727 136.092258 
L 93.364364 136.060248 
L 93.567273 136.159952 
L 93.770182 138.366781 
L 93.973091 138.333836 
L 94.378909 138.434381 
L 94.581818 138.541514 
L 94.784727 140.041307 
L 95.190545 139.878356 
L 95.393455 139.539716 
L 95.596364 139.66469 
L 95.799273 144.776604 
L 96.002182 144.941248 
L 96.205091 147.198422 
L 96.408 147.421654 
L 96.813818 153.29067 
L 97.016727 153.344638 
L 97.422545 153.880371 
L 97.625455 155.028492 
L 97.828364 155.342732 
L 98.437091 161.830631 
L 98.64 162.037172 
L 98.842909 161.80865 
L 99.045818 161.872505 
L 99.248727 162.063462 
L 99.451636 162.86012 
L 99.654545 162.847744 
L 99.857455 163.44583 
L 100.263273 163.847315 
L 100.466182 167.753255 
L 100.669091 165.243876 
L 100.872 166.528848 
L 101.074909 166.811309 
L 101.277818 166.610076 
L 101.480727 172.914013 
L 101.683636 172.879744 
L 101.886545 174.141206 
L 102.089455 174.55598 
L 102.292364 183.030218 
L 102.495273 183.062046 
L 102.901091 180.922755 
L 103.509818 185.227838 
L 103.915636 187.658922 
L 104.118545 190.063183 
L 104.321455 190.393047 
L 104.727273 192.490364 
L 104.930182 193.089296 
L 105.336 193.44498 
L 105.538909 193.287907 
L 105.741818 194.335896 
L 105.944727 194.537005 
L 106.350545 196.380882 
L 107.162182 198.648955 
L 107.365091 199.927063 
L 107.568 200.21072 
L 107.770909 201.133138 
L 108.176727 201.704909 
L 108.582545 186.984448 
L 108.785455 187.842677 
L 109.191273 191.806647 
L 109.597091 191.12637 
L 109.8 191.111124 
L 110.002909 192.361516 
L 110.205818 192.256247 
L 110.408727 193.235374 
L 110.814545 193.119667 
L 111.017455 193.323098 
L 111.220364 193.700851 
L 111.423273 193.825221 
L 111.626182 194.33505 
L 111.829091 194.411701 
L 112.032 194.620563 
L 112.234909 199.119687 
L 112.437818 199.388826 
L 112.843636 199.24138 
L 113.046545 199.382539 
L 113.655273 199.467857 
L 114.061091 199.438474 
L 114.264 199.857055 
L 114.466909 199.810659 
L 114.669818 199.999553 
L 114.872727 199.912896 
L 115.075636 200.279818 
L 115.481455 200.375422 
L 115.684364 200.723739 
L 116.698909 200.982776 
L 116.901818 201.474739 
L 117.713455 201.83116 
L 117.916364 201.481375 
L 118.119273 201.509353 
L 118.322182 201.422659 
L 118.728 201.581473 
L 118.930909 213.126016 
L 119.133818 207.981215 
L 119.336727 208.187795 
L 119.539636 208.8369 
L 119.945455 209.297528 
L 120.148364 210.973863 
L 120.351273 211.340805 
L 120.554182 213.2435 
L 120.757091 213.739636 
L 120.96 213.8494 
L 121.162909 214.104643 
L 121.365818 213.875888 
L 121.568727 213.939301 
L 121.974545 216.4669 
L 122.177455 216.798678 
L 122.380364 224.823814 
L 122.583273 218.130361 
L 122.786182 217.969373 
L 122.989091 219.181267 
L 123.192 218.213493 
L 123.394909 219.048441 
L 123.597818 218.43004 
L 124.409455 224.821785 
L 124.612364 224.925692 
L 126.032727 222.693998 
L 126.438545 226.10781 
L 126.641455 226.343273 
L 127.047273 226.421797 
L 127.250182 226.539939 
L 127.453091 226.849615 
L 127.656 230.961515 
L 127.858909 230.909537 
L 128.061818 231.050658 
L 128.264727 231.050486 
L 128.467636 231.167485 
L 128.670545 232.29416 
L 129.076364 232.205913 
L 129.279273 232.381929 
L 129.482182 231.819904 
L 129.685091 231.978309 
L 130.090909 231.858214 
L 130.293818 231.401822 
L 130.496727 231.829027 
L 130.699636 232.84478 
L 130.902545 232.644638 
L 131.105455 232.615125 
L 131.714182 230.286013 
L 131.917091 230.298513 
L 132.12 229.85957 
L 132.728727 229.895611 
L 132.931636 231.446073 
L 133.337455 231.296887 
L 133.540364 230.723756 
L 133.946182 231.176978 
L 134.960727 231.565807 
L 135.163636 232.470866 
L 135.366545 232.570283 
L 135.569455 232.850876 
L 135.975273 232.882998 
L 136.786909 232.918478 
L 136.989818 233.341576 
L 137.192727 233.139474 
L 137.395636 233.237094 
L 137.598545 233.179261 
L 137.801455 233.507014 
L 138.004364 234.131797 
L 138.207273 234.27551 
L 138.410182 234.555389 
L 139.018909 234.60059 
L 139.221818 234.806654 
L 139.424727 235.408555 
L 139.627636 234.646018 
L 139.830545 234.660387 
L 140.033455 236.230648 
L 140.845091 236.258828 
L 141.048 235.487731 
L 141.250909 235.5191 
L 141.453818 235.325379 
L 141.656727 235.340647 
L 141.859636 235.883203 
L 142.062545 235.899216 
L 142.265455 236.108915 
L 142.468364 236.100849 
L 142.671273 237.107903 
L 373.581818 237.107903 
L 373.581818 237.107903 
" style="fill:none;stroke:#1ac938;stroke-linecap:round;stroke-width:1.2;"/>
    <defs>
     <path d="M -0 2.4 
L 2.4 -2.4 
L -2.4 -2.4 
z
" id="mb3d8c7f695" style="stroke:#1ac938;stroke-linejoin:miter;"/>
    </defs>
    <g clip-path="url(#p27d04833a6)">
     <use style="fill-opacity:0;stroke:#1ac938;stroke-linejoin:miter;" x="69.218182" xlink:href="#mb3d8c7f695" y="45.615832"/>
     <use style="fill-opacity:0;stroke:#1ac938;stroke-linejoin:miter;" x="109.8" xlink:href="#mb3d8c7f695" y="191.111124"/>
     <use style="fill-opacity:0;stroke:#1ac938;stroke-linejoin:miter;" x="150.381818" xlink:href="#mb3d8c7f695" y="237.107903"/>
     <use style="fill-opacity:0;stroke:#1ac938;stroke-linejoin:miter;" x="190.963636" xlink:href="#mb3d8c7f695" y="237.107903"/>
     <use style="fill-opacity:0;stroke:#1ac938;stroke-linejoin:miter;" x="231.545455" xlink:href="#mb3d8c7f695" y="237.107903"/>
     <use style="fill-opacity:0;stroke:#1ac938;stroke-linejoin:miter;" x="272.127273" xlink:href="#mb3d8c7f695" y="237.107903"/>
     <use style="fill-opacity:0;stroke:#1ac938;stroke-linejoin:miter;" x="312.709091" xlink:href="#mb3d8c7f695" y="237.107903"/>
     <use style="fill-opacity:0;stroke:#1ac938;stroke-linejoin:miter;" x="353.290909" xlink:href="#mb3d8c7f695" y="237.107903"/>
    </g>
   </g>
   <g id="line2d_59">
    <path clip-path="url(#p27d04833a6)" d="M 69.218182 45.915482 
L 69.624 46.330103 
L 69.826909 47.841794 
L 70.029818 51.327508 
L 70.232727 51.370244 
L 70.841455 52.2924 
L 71.247273 53.841649 
L 71.653091 53.8071 
L 71.856 55.890461 
L 72.261818 55.949517 
L 72.464727 55.810063 
L 72.870545 62.258593 
L 73.073455 63.623389 
L 73.276364 66.730942 
L 73.479273 67.982749 
L 73.682182 74.524692 
L 73.885091 77.359607 
L 74.088 75.841153 
L 74.290909 77.521364 
L 74.493818 77.509835 
L 74.696727 77.631593 
L 75.102545 80.334813 
L 75.305455 80.385114 
L 75.508364 81.57694 
L 75.711273 81.747611 
L 75.914182 82.388176 
L 76.117091 82.419762 
L 76.32 84.985215 
L 76.522909 90.735977 
L 76.725818 90.758035 
L 76.928727 92.847566 
L 77.334545 92.948693 
L 77.537455 93.10769 
L 77.740364 94.443213 
L 78.146182 94.512372 
L 78.349091 97.586511 
L 78.552 102.72592 
L 78.754909 102.649844 
L 78.957818 108.726221 
L 79.160727 109.565283 
L 79.363636 132.260814 
L 79.566545 140.736848 
L 79.769455 137.604061 
L 79.972364 144.979842 
L 80.175273 145.348148 
L 80.784 147.377969 
L 80.986909 146.006561 
L 81.189818 147.258613 
L 81.392727 147.71295 
L 81.595636 147.779617 
L 82.001455 149.26219 
L 82.407273 150.350152 
L 82.610182 150.806744 
L 82.813091 152.712437 
L 83.016 150.612154 
L 83.218909 150.810905 
L 83.421818 151.327938 
L 83.624727 154.428635 
L 84.030545 155.650411 
L 84.233455 156.522938 
L 84.436364 156.368017 
L 84.639273 155.339811 
L 85.045091 157.666262 
L 85.450909 159.002783 
L 85.653818 159.57797 
L 85.856727 159.805813 
L 86.059636 169.556279 
L 86.262545 167.590248 
L 86.465455 168.31059 
L 86.668364 170.270596 
L 87.074182 171.733364 
L 87.682909 173.266129 
L 88.494545 174.20881 
L 89.509091 177.485453 
L 89.914909 178.659349 
L 90.117818 178.951833 
L 90.320727 178.953113 
L 90.726545 179.326614 
L 90.929455 179.423016 
L 91.538182 180.655797 
L 91.944 181.035959 
L 92.146909 181.066362 
L 92.349818 181.429861 
L 92.552727 181.53472 
L 93.364364 182.40596 
L 93.567273 184.541003 
L 93.770182 184.834836 
L 93.973091 184.292464 
L 94.176 184.897092 
L 94.784727 185.655215 
L 94.987636 185.632226 
L 95.190545 186.270016 
L 95.393455 183.992211 
L 95.596364 183.589902 
L 95.799273 184.128078 
L 96.002182 183.947265 
L 96.408 184.650063 
L 96.610909 184.955857 
L 96.813818 185.554122 
L 97.219636 185.791828 
L 97.422545 186.094663 
L 97.828364 186.314974 
L 98.031273 186.583616 
L 98.234182 186.617776 
L 98.437091 186.975239 
L 98.64 187.014036 
L 98.842909 187.171735 
L 99.045818 187.089029 
L 99.248727 185.460559 
L 99.857455 185.343655 
L 100.060364 185.47108 
L 100.263273 190.471447 
L 100.466182 190.463009 
L 100.669091 190.784883 
L 101.074909 190.595892 
L 101.277818 190.418122 
L 101.886545 190.972202 
L 102.089455 191.018788 
L 102.292364 191.4153 
L 102.495273 200.159817 
L 102.698182 199.661098 
L 102.901091 198.803606 
L 103.509818 201.672841 
L 103.712727 201.597612 
L 103.915636 202.282328 
L 104.118545 202.030079 
L 104.321455 202.425361 
L 104.524364 202.469799 
L 104.727273 202.181789 
L 105.336 204.243228 
L 105.538909 204.313319 
L 105.741818 204.656151 
L 105.944727 205.557871 
L 106.147636 205.856593 
L 106.350545 205.471884 
L 106.553455 206.065195 
L 107.568 206.71009 
L 107.973818 206.908631 
L 108.176727 206.344778 
L 108.785455 207.328568 
L 108.988364 208.45288 
L 109.191273 212.40911 
L 109.394182 212.210774 
L 109.597091 212.421883 
L 109.8 210.179512 
L 110.002909 210.025308 
L 110.205818 210.066504 
L 110.408727 209.620352 
L 111.017455 210.451024 
L 111.220364 210.426379 
L 111.423273 212.734627 
L 111.626182 213.064663 
L 112.032 213.067113 
L 113.655273 214.175631 
L 113.858182 214.788115 
L 114.061091 214.643975 
L 114.872727 214.966553 
L 115.075636 214.588393 
L 116.293091 214.869843 
L 116.496 214.805332 
L 116.698909 217.097453 
L 116.901818 217.268653 
L 117.307636 217.114549 
L 117.713455 217.193603 
L 117.916364 217.488159 
L 118.119273 217.465924 
L 118.322182 217.25043 
L 118.525091 217.27462 
L 118.728 217.493107 
L 119.336727 217.539961 
L 119.539636 217.538691 
L 119.742545 216.99607 
L 119.945455 217.298159 
L 120.351273 217.282128 
L 120.757091 217.37389 
L 121.568727 217.388529 
L 121.974545 217.741868 
L 122.583273 218.543333 
L 122.786182 218.585044 
L 123.192 218.818178 
L 123.394909 218.47404 
L 123.800727 218.651752 
L 124.003636 218.67536 
L 124.206545 219.96571 
L 125.018182 219.999697 
L 125.221091 220.388542 
L 126.235636 220.481424 
L 126.438545 220.464277 
L 126.844364 204.384651 
L 127.047273 202.665431 
L 127.453091 206.968598 
L 127.656 207.989808 
L 127.858909 208.061402 
L 128.061818 207.718688 
L 128.264727 217.581598 
L 128.670545 211.219328 
L 128.873455 211.163957 
L 129.279273 216.536514 
L 129.482182 216.832187 
L 129.685091 217.338018 
L 129.888 218.579915 
L 130.090909 218.289921 
L 130.496727 218.640735 
L 130.699636 219.277924 
L 130.902545 219.396476 
L 131.105455 219.340529 
L 131.511273 219.875717 
L 131.714182 219.666299 
L 132.12 220.982135 
L 132.322909 222.086113 
L 132.728727 222.008603 
L 132.931636 222.333167 
L 133.134545 218.300614 
L 133.337455 210.813467 
L 133.540364 211.249626 
L 133.743273 212.152007 
L 133.946182 215.633348 
L 134.149091 215.445641 
L 134.352 216.410084 
L 134.757818 216.410628 
L 134.960727 216.743631 
L 135.163636 216.543809 
L 135.366545 216.597101 
L 135.772364 216.433165 
L 135.975273 215.803581 
L 136.786909 215.857682 
L 136.989818 215.164062 
L 137.192727 215.16043 
L 137.395636 215.422445 
L 137.598545 215.277968 
L 137.801455 215.276271 
L 138.207273 216.481459 
L 138.613091 217.684716 
L 139.018909 217.670801 
L 139.221818 217.395427 
L 139.424727 217.81613 
L 139.627636 217.823903 
L 139.830545 218.876376 
L 140.033455 218.885089 
L 140.236364 219.118373 
L 140.845091 219.009187 
L 141.453818 202.861936 
L 141.656727 201.714084 
L 141.859636 201.687993 
L 142.062545 200.228623 
L 142.265455 202.53699 
L 142.468364 202.515028 
L 142.671273 202.915605 
L 142.874182 202.928602 
L 143.077091 203.795884 
L 143.28 203.852503 
L 143.685818 204.220681 
L 144.294545 204.424739 
L 144.497455 204.800386 
L 144.903273 204.866805 
L 145.106182 205.17458 
L 145.309091 205.173973 
L 145.714909 205.523635 
L 145.917818 206.026317 
L 146.323636 206.178749 
L 146.526545 206.646903 
L 146.729455 206.493079 
L 147.135273 206.444743 
L 147.338182 206.811131 
L 147.946909 206.473667 
L 148.149818 206.914505 
L 148.352727 206.980483 
L 148.555636 207.203472 
L 148.961455 207.288466 
L 149.164364 207.037027 
L 149.570182 207.107602 
L 149.976 207.221434 
L 150.178909 207.228041 
L 150.584727 207.358581 
L 150.990545 207.403932 
L 151.193455 209.338513 
L 151.599273 209.260684 
L 152.005091 209.1364 
L 152.208 209.306294 
L 152.410909 209.114412 
L 153.628364 209.184122 
L 154.44 209.293901 
L 154.642909 209.38242 
L 154.845818 209.175246 
L 155.251636 209.201324 
L 155.454545 209.714193 
L 155.860364 209.724062 
L 156.063273 214.535323 
L 156.469091 213.655429 
L 156.672 213.329115 
L 156.874909 213.670425 
L 157.077818 213.643427 
L 157.280727 213.963981 
L 157.483636 213.966586 
L 157.686545 213.825128 
L 157.889455 213.929172 
L 158.092364 213.618384 
L 158.498182 213.878477 
L 159.512727 214.384994 
L 159.918545 214.362748 
L 160.121455 223.072913 
L 160.324364 215.825829 
L 160.527273 213.623801 
L 161.136 215.292472 
L 161.338909 217.466627 
L 161.541818 221.033727 
L 161.947636 223.559036 
L 162.353455 225.247485 
L 162.556364 225.488228 
L 162.962182 225.66355 
L 163.773818 226.347514 
L 163.976727 226.291639 
L 164.179636 226.358854 
L 164.788364 226.122892 
L 165.194182 226.314868 
L 165.6 226.729679 
L 166.614545 226.799769 
L 166.817455 227.106271 
L 167.020364 226.971723 
L 167.223273 227.01143 
L 167.426182 227.465032 
L 167.629091 227.451463 
L 167.832 225.126738 
L 168.034909 225.16237 
L 168.237818 224.969064 
L 169.252364 225.393655 
L 169.658182 225.544268 
L 169.861091 225.719361 
L 171.078545 225.719152 
L 171.281455 225.903449 
L 171.484364 225.902827 
L 171.687273 225.485205 
L 172.093091 225.496195 
L 172.296 198.339234 
L 172.498909 197.047133 
L 172.904727 198.060892 
L 173.107636 199.063966 
L 173.310545 198.94407 
L 173.513455 199.571933 
L 173.919273 199.986457 
L 174.122182 200.034523 
L 174.325091 200.219369 
L 174.528 199.397307 
L 174.933818 199.548616 
L 175.339636 201.462986 
L 175.542545 201.677245 
L 175.745455 201.596368 
L 175.948364 208.666256 
L 176.151273 208.868124 
L 176.354182 208.842107 
L 176.76 209.159941 
L 176.962909 209.045983 
L 178.180364 209.414176 
L 178.383273 209.414176 
L 178.586182 209.733604 
L 178.789091 209.432064 
L 179.194909 209.448809 
L 179.397818 209.855676 
L 180.006545 210.04459 
L 180.209455 210.496199 
L 180.412364 210.120781 
L 181.021091 210.266376 
L 181.629818 210.424735 
L 181.832727 210.64141 
L 182.035636 210.649907 
L 182.441455 210.529609 
L 183.253091 210.628676 
L 183.456 217.940089 
L 183.658909 217.19111 
L 183.861818 217.229639 
L 184.470545 216.163994 
L 184.673455 216.361014 
L 184.876364 216.245617 
L 185.282182 216.363265 
L 185.688 216.340091 
L 185.890909 216.479148 
L 186.296727 216.489825 
L 186.499636 217.077329 
L 186.702545 217.068551 
L 186.905455 217.317733 
L 188.934545 217.639733 
L 189.137455 217.929733 
L 189.746182 217.886457 
L 190.354909 217.95957 
L 190.557818 218.458778 
L 191.369455 218.478696 
L 191.572364 218.949931 
L 191.775273 218.889169 
L 191.978182 219.065956 
L 192.384 219.130652 
L 192.586909 219.900479 
L 194.818909 219.939221 
L 195.021818 219.465213 
L 195.630545 219.522749 
L 196.848 219.609661 
L 197.862545 219.905962 
L 198.065455 220.078793 
L 198.268364 219.450849 
L 198.471273 220.179877 
L 199.891636 220.203752 
L 200.906182 220.302767 
L 205.370182 220.450634 
L 373.581818 220.450634 
L 373.581818 220.450634 
" style="fill:none;stroke:#e8000b;stroke-linecap:round;stroke-width:1.2;"/>
    <defs>
     <path d="M 0 -2.4 
L -2.4 2.4 
L 2.4 2.4 
z
" id="m9cd89803c0" style="stroke:#e8000b;stroke-linejoin:miter;"/>
    </defs>
    <g clip-path="url(#p27d04833a6)">
     <use style="fill-opacity:0;stroke:#e8000b;stroke-linejoin:miter;" x="69.218182" xlink:href="#m9cd89803c0" y="45.915482"/>
     <use style="fill-opacity:0;stroke:#e8000b;stroke-linejoin:miter;" x="109.8" xlink:href="#m9cd89803c0" y="210.179512"/>
     <use style="fill-opacity:0;stroke:#e8000b;stroke-linejoin:miter;" x="150.381818" xlink:href="#m9cd89803c0" y="207.357344"/>
     <use style="fill-opacity:0;stroke:#e8000b;stroke-linejoin:miter;" x="190.963636" xlink:href="#m9cd89803c0" y="218.474553"/>
     <use style="fill-opacity:0;stroke:#e8000b;stroke-linejoin:miter;" x="231.545455" xlink:href="#m9cd89803c0" y="220.450634"/>
     <use style="fill-opacity:0;stroke:#e8000b;stroke-linejoin:miter;" x="272.127273" xlink:href="#m9cd89803c0" y="220.450634"/>
     <use style="fill-opacity:0;stroke:#e8000b;stroke-linejoin:miter;" x="312.709091" xlink:href="#m9cd89803c0" y="220.450634"/>
     <use style="fill-opacity:0;stroke:#e8000b;stroke-linejoin:miter;" x="353.290909" xlink:href="#m9cd89803c0" y="220.450634"/>
    </g>
   </g>
   <g id="line2d_60">
    <path clip-path="url(#p27d04833a6)" d="M 69.218182 45.766107 
L 69.624 51.868804 
L 69.826909 48.235042 
L 70.029818 53.730362 
L 70.232727 51.182481 
L 70.435636 55.638901 
L 70.638545 56.623363 
L 70.841455 56.681097 
L 71.044364 57.134763 
L 71.247273 62.116106 
L 71.450182 61.175771 
L 71.653091 64.115773 
L 71.856 64.259945 
L 72.058909 65.410725 
L 72.261818 67.767277 
L 72.464727 67.405204 
L 72.667636 74.346903 
L 72.870545 74.262557 
L 73.073455 73.644364 
L 73.276364 74.470034 
L 73.479273 74.470081 
L 73.682182 75.16599 
L 73.885091 79.755447 
L 74.088 80.914463 
L 74.290909 80.975943 
L 74.696727 86.110614 
L 74.899636 86.079694 
L 75.102545 84.982862 
L 75.305455 85.047297 
L 75.508364 84.175317 
L 75.711273 84.196674 
L 75.914182 82.377528 
L 76.117091 82.389869 
L 76.32 82.832511 
L 76.725818 82.871541 
L 76.928727 83.197608 
L 77.334545 83.317337 
L 77.537455 87.640802 
L 77.740364 86.962525 
L 77.943273 87.37904 
L 78.146182 87.288052 
L 78.754909 88.153244 
L 78.957818 90.472535 
L 79.160727 90.746958 
L 79.363636 90.743429 
L 79.566545 90.445981 
L 79.769455 90.451269 
L 79.972364 90.728213 
L 80.175273 95.122388 
L 80.378182 95.162568 
L 80.581091 96.777456 
L 80.784 96.778692 
L 80.986909 98.301311 
L 81.189818 98.290769 
L 81.392727 98.569385 
L 81.595636 98.582413 
L 81.798545 99.756901 
L 82.204364 99.761538 
L 82.407273 100.140909 
L 83.624727 100.287703 
L 83.827636 104.666041 
L 84.233455 104.743287 
L 84.436364 103.407787 
L 84.639273 108.085458 
L 84.842182 108.013061 
L 85.248 108.243174 
L 85.450909 109.599426 
L 85.856727 109.660196 
L 86.059636 110.61165 
L 86.262545 110.665378 
L 86.465455 109.790863 
L 86.668364 110.030005 
L 87.074182 110.073693 
L 87.277091 112.941266 
L 87.48 112.885344 
L 87.885818 112.979858 
L 88.494545 113.058748 
L 88.900364 115.279598 
L 89.103273 115.222684 
L 90.523636 115.386873 
L 90.726545 120.54127 
L 90.929455 119.160318 
L 91.132364 119.066342 
L 91.335273 122.731762 
L 91.538182 122.919376 
L 91.741091 123.817629 
L 91.944 125.391578 
L 92.146909 125.43998 
L 92.349818 129.687267 
L 92.552727 129.274253 
L 92.755636 129.751238 
L 92.958545 129.726712 
L 93.161455 130.850576 
L 93.567273 131.240528 
L 93.770182 131.330019 
L 93.973091 131.082584 
L 94.176 132.271591 
L 94.581818 132.441699 
L 94.784727 132.533688 
L 94.987636 135.068185 
L 95.190545 134.730753 
L 95.799273 135.057731 
L 96.002182 139.916305 
L 96.205091 139.761902 
L 97.016727 140.333985 
L 97.219636 140.33633 
L 97.625455 140.499652 
L 98.234182 140.674675 
L 98.437091 140.280064 
L 98.842909 140.351825 
L 99.248727 142.735672 
L 99.857455 142.745805 
L 100.060364 142.325531 
L 100.466182 142.36571 
L 100.669091 143.195294 
L 101.074909 143.147937 
L 101.277818 141.62006 
L 101.683636 141.369655 
L 102.089455 141.417021 
L 102.698182 141.711868 
L 102.901091 142.730166 
L 103.915636 143.13643 
L 104.118545 147.510062 
L 104.321455 147.423791 
L 105.133091 148.088861 
L 105.336 147.988397 
L 106.350545 148.298238 
L 106.959273 148.335294 
L 107.365091 148.320773 
L 107.568 148.935835 
L 107.973818 149.006176 
L 108.176727 147.589036 
L 108.379636 147.34232 
L 108.582545 147.357384 
L 108.785455 148.912855 
L 108.988364 149.005114 
L 109.191273 152.908769 
L 109.394182 152.985212 
L 109.8 153.589273 
L 110.002909 153.693549 
L 110.205818 153.985137 
L 110.408727 154.037091 
L 110.611636 155.83246 
L 111.017455 156.674932 
L 111.626182 156.87987 
L 112.032 157.22305 
L 112.234909 158.302675 
L 112.843636 158.618774 
L 113.655273 158.855673 
L 114.264 158.879801 
L 114.466909 160.162824 
L 114.669818 160.610455 
L 114.872727 160.633711 
L 115.075636 160.500779 
L 115.278545 160.710129 
L 115.684364 160.777986 
L 115.887273 162.224737 
L 116.090182 161.673777 
L 116.293091 161.685026 
L 116.496 161.538135 
L 116.698909 161.814662 
L 116.901818 165.188174 
L 117.104727 164.138789 
L 117.307636 164.495175 
L 117.510545 164.513937 
L 117.916364 165.159668 
L 118.119273 166.574363 
L 118.930909 167.296222 
L 119.336727 167.32109 
L 119.539636 173.368982 
L 119.742545 173.784271 
L 120.351273 175.759499 
L 120.554182 175.992741 
L 120.757091 176.65818 
L 121.365818 177.402406 
L 121.974545 177.472113 
L 122.380364 177.568596 
L 122.583273 180.902673 
L 122.989091 181.300524 
L 123.394909 181.610695 
L 123.800727 181.739322 
L 124.003636 182.000943 
L 124.206545 177.856018 
L 124.815273 178.077482 
L 125.018182 179.497808 
L 125.221091 179.467692 
L 125.424 181.434818 
L 125.626909 181.278194 
L 126.235636 181.935927 
L 126.438545 182.116402 
L 126.641455 184.864668 
L 126.844364 184.986554 
L 127.047273 184.838924 
L 127.250182 184.853318 
L 127.453091 185.2159 
L 127.656 185.345641 
L 127.858909 185.196279 
L 128.061818 185.42217 
L 128.467636 185.597396 
L 128.670545 185.756486 
L 128.873455 186.443083 
L 129.888 186.607336 
L 133.337455 187.307404 
L 133.540364 187.307134 
L 133.743273 187.618875 
L 134.757818 187.690343 
L 135.366545 187.738759 
L 136.584 187.739281 
L 136.786909 191.364765 
L 136.989818 190.267996 
L 137.598545 194.63474 
L 137.801455 194.897695 
L 138.004364 198.978992 
L 138.207273 193.698341 
L 138.410182 195.323803 
L 139.018909 196.367782 
L 139.424727 197.876245 
L 139.627636 198.785889 
L 139.830545 202.910022 
L 140.033455 203.247936 
L 140.236364 203.105882 
L 140.439273 201.487145 
L 140.642182 201.34213 
L 140.845091 204.699512 
L 141.048 204.467278 
L 141.250909 204.412841 
L 141.859636 206.261717 
L 142.468364 206.511338 
L 142.671273 206.82888 
L 143.077091 188.182311 
L 143.28 191.129507 
L 144.091636 195.694085 
L 144.903273 197.375251 
L 145.106182 197.614214 
L 145.714909 197.607167 
L 146.120727 197.764442 
L 146.526545 198.130694 
L 147.135273 198.195936 
L 147.338182 198.570464 
L 147.946909 198.65574 
L 148.149818 198.910778 
L 149.164364 198.981326 
L 149.570182 198.834852 
L 149.976 198.965476 
L 150.178909 192.546402 
L 150.381818 191.864128 
L 150.787636 193.364168 
L 150.990545 195.308333 
L 151.396364 197.000399 
L 151.599273 198.552237 
L 151.802182 202.799391 
L 152.208 203.191763 
L 152.410909 202.93587 
L 152.816727 203.244252 
L 153.222545 204.510589 
L 153.425455 204.31442 
L 154.034182 205.552423 
L 154.237091 205.523586 
L 154.44 205.227773 
L 154.642909 205.414322 
L 155.048727 194.011107 
L 155.454545 196.123069 
L 155.657455 196.032447 
L 156.672 197.514346 
L 156.874909 198.720157 
L 157.077818 198.831613 
L 157.280727 198.777042 
L 157.483636 199.196627 
L 157.686545 198.992207 
L 157.889455 199.097947 
L 158.092364 199.028615 
L 158.498182 199.107888 
L 158.701091 199.399307 
L 159.106909 199.378126 
L 159.309818 199.71106 
L 160.121455 200.036238 
L 160.324364 200.640028 
L 161.338909 200.985354 
L 161.541818 200.847036 
L 164.179636 201.240232 
L 164.585455 201.372804 
L 164.991273 201.364906 
L 165.397091 201.489196 
L 165.802909 201.607768 
L 166.411636 201.654374 
L 166.614545 201.81138 
L 167.629091 201.944353 
L 167.832 208.16771 
L 168.034909 207.385326 
L 168.440727 206.874456 
L 168.643636 207.075592 
L 169.049455 207.105521 
L 169.252364 206.559747 
L 169.861091 206.727496 
L 170.064 206.551522 
L 170.266909 206.729005 
L 170.672727 206.798887 
L 171.078545 207.686641 
L 171.281455 207.871885 
L 171.484364 207.879306 
L 172.093091 208.228005 
L 173.107636 208.435256 
L 173.310545 208.435324 
L 173.716364 208.683188 
L 173.919273 208.684277 
L 174.325091 208.821921 
L 175.542545 208.880442 
L 175.745455 209.082874 
L 175.948364 209.125178 
L 176.151273 208.954627 
L 177.165818 209.047158 
L 177.571636 209.237719 
L 178.789091 209.284387 
L 178.992 205.792246 
L 179.397818 205.151532 
L 179.600727 205.194134 
L 180.006545 205.439563 
L 180.209455 218.475126 
L 180.412364 216.318726 
L 181.021091 216.073038 
L 181.426909 214.917915 
L 181.629818 215.026213 
L 182.035636 216.306185 
L 182.238545 216.323317 
L 182.441455 217.038681 
L 182.847273 217.504536 
L 183.050182 217.282317 
L 183.253091 217.671167 
L 183.456 217.725499 
L 183.658909 217.2087 
L 183.861818 218.138407 
L 184.064727 218.24474 
L 184.267636 218.168628 
L 184.470545 218.467693 
L 184.673455 219.4271 
L 186.499636 219.52329 
L 186.702545 221.481196 
L 186.905455 221.487063 
L 187.108364 219.344139 
L 187.92 219.433678 
L 189.340364 219.6219 
L 189.949091 219.720434 
L 190.152 221.468147 
L 196.645091 222.084727 
L 196.848 222.370889 
L 198.674182 222.466719 
L 199.485818 222.487413 
L 200.094545 222.452774 
L 373.581818 222.455053 
L 373.581818 222.455053 
" style="fill:none;stroke:#00d7ff;stroke-linecap:round;stroke-width:1.2;"/>
    <defs>
     <path d="M -2.4 2.4 
L 2.4 2.4 
L 2.4 -2.4 
L -2.4 -2.4 
z
" id="m65f6610753" style="stroke:#00d7ff;stroke-linejoin:miter;"/>
    </defs>
    <g clip-path="url(#p27d04833a6)">
     <use style="fill-opacity:0;stroke:#00d7ff;stroke-linejoin:miter;" x="69.218182" xlink:href="#m65f6610753" y="45.766107"/>
     <use style="fill-opacity:0;stroke:#00d7ff;stroke-linejoin:miter;" x="109.8" xlink:href="#m65f6610753" y="153.589273"/>
     <use style="fill-opacity:0;stroke:#00d7ff;stroke-linejoin:miter;" x="150.381818" xlink:href="#m65f6610753" y="191.864128"/>
     <use style="fill-opacity:0;stroke:#00d7ff;stroke-linejoin:miter;" x="190.963636" xlink:href="#m65f6610753" y="221.527015"/>
     <use style="fill-opacity:0;stroke:#00d7ff;stroke-linejoin:miter;" x="231.545455" xlink:href="#m65f6610753" y="222.455053"/>
     <use style="fill-opacity:0;stroke:#00d7ff;stroke-linejoin:miter;" x="272.127273" xlink:href="#m65f6610753" y="222.455053"/>
     <use style="fill-opacity:0;stroke:#00d7ff;stroke-linejoin:miter;" x="312.709091" xlink:href="#m65f6610753" y="222.455053"/>
     <use style="fill-opacity:0;stroke:#00d7ff;stroke-linejoin:miter;" x="353.290909" xlink:href="#m65f6610753" y="222.455053"/>
    </g>
   </g>
   <g id="line2d_61">
    <path clip-path="url(#p27d04833a6)" d="M 69.218182 44.64 
L 69.624 47.624135 
L 70.029818 47.78234 
L 70.435636 50.471666 
L 70.638545 50.324912 
L 70.841455 50.506923 
L 71.247273 52.827308 
L 71.450182 54.50695 
L 71.856 55.959649 
L 72.058909 59.323351 
L 72.261818 59.432359 
L 72.464727 61.069572 
L 72.870545 67.396226 
L 73.276364 67.545165 
L 73.479273 68.286029 
L 73.885091 72.697426 
L 74.088 71.094624 
L 74.290909 72.080692 
L 74.493818 72.122231 
L 74.696727 74.41215 
L 74.899636 74.91008 
L 75.508364 75.290531 
L 75.711273 74.693641 
L 75.914182 74.873169 
L 76.117091 75.554733 
L 76.32 75.572037 
L 76.522909 76.131998 
L 77.131636 76.153692 
L 77.334545 76.991125 
L 77.537455 77.008728 
L 77.740364 77.141229 
L 77.943273 77.135501 
L 78.146182 79.751256 
L 78.349091 80.127118 
L 78.552 79.931125 
L 78.957818 79.931451 
L 79.160727 80.186753 
L 79.566545 81.558221 
L 79.769455 81.732539 
L 79.972364 83.740501 
L 80.175273 83.748586 
L 80.581091 84.525682 
L 81.392727 84.69097 
L 81.798545 86.154045 
L 82.204364 86.16716 
L 82.407273 90.992106 
L 83.827636 91.077697 
L 84.030545 92.59492 
L 84.233455 92.607917 
L 84.436364 94.030006 
L 85.045091 94.048613 
L 85.450909 95.499726 
L 86.668364 95.562516 
L 86.871273 98.156409 
L 87.277091 98.180346 
L 87.48 97.40184 
L 87.682909 97.550038 
L 87.885818 97.55953 
L 88.088727 100.427502 
L 88.697455 100.455544 
L 88.900364 101.011332 
L 89.306182 101.016251 
L 89.509091 102.328663 
L 91.132364 102.29444 
L 91.335273 103.968393 
L 91.741091 103.989421 
L 91.944 104.872471 
L 93.161455 104.88139 
L 93.364364 107.619579 
L 93.567273 107.615158 
L 93.770182 108.106708 
L 94.784727 108.185391 
L 94.987636 108.573417 
L 95.393455 108.56668 
L 95.596364 108.737755 
L 96.002182 108.739736 
L 96.205091 109.193688 
L 96.408 110.178745 
L 98.437091 110.267794 
L 98.64 115.420527 
L 98.842909 115.995462 
L 99.248727 116.075817 
L 99.451636 116.167921 
L 99.654545 116.406469 
L 100.466182 116.379916 
L 100.669091 116.612999 
L 101.886545 116.600246 
L 102.089455 118.619585 
L 102.292364 118.61083 
L 102.495273 118.818621 
L 102.698182 120.518447 
L 102.901091 120.502293 
L 103.104 123.461342 
L 103.306909 124.226661 
L 103.509818 124.515569 
L 104.118545 124.497723 
L 104.321455 125.753744 
L 104.727273 125.661719 
L 104.930182 127.877272 
L 105.336 127.995683 
L 105.538909 128.027981 
L 105.741818 127.819845 
L 106.147636 127.813219 
L 106.350545 127.108501 
L 106.756364 127.145485 
L 106.959273 129.384352 
L 107.162182 129.416902 
L 107.365091 131.797429 
L 107.568 132.40953 
L 107.770909 133.544219 
L 107.973818 133.54484 
L 108.176727 136.256894 
L 108.988364 136.184168 
L 109.394182 136.270138 
L 109.597091 137.150673 
L 110.002909 137.146241 
L 110.205818 140.395974 
L 110.814545 140.349008 
L 111.017455 140.438419 
L 111.220364 145.857957 
L 111.423273 146.916419 
L 111.829091 146.834247 
L 112.032 146.945546 
L 112.234909 148.872257 
L 112.437818 148.759064 
L 112.640727 148.803736 
L 112.843636 150.321003 
L 113.249455 150.26368 
L 113.452364 150.312497 
L 113.858182 150.188391 
L 114.264 150.175281 
L 114.466909 147.990426 
L 114.872727 147.965911 
L 115.481455 148.090185 
L 115.684364 151.007626 
L 115.887273 149.977054 
L 116.090182 150.439117 
L 116.293091 150.487263 
L 116.496 151.735066 
L 116.698909 151.681424 
L 116.901818 152.314127 
L 117.307636 152.445175 
L 117.510545 152.330185 
L 117.916364 153.023714 
L 118.322182 153.076542 
L 118.525091 153.968987 
L 118.930909 153.847347 
L 119.336727 153.739438 
L 120.148364 153.891366 
L 120.554182 153.775246 
L 120.757091 153.890897 
L 121.568727 153.919061 
L 121.771636 149.574894 
L 121.974545 149.983336 
L 122.177455 149.861805 
L 124.003636 150.064185 
L 124.409455 149.891458 
L 124.612364 150.15177 
L 125.018182 150.152926 
L 125.221091 149.009314 
L 126.235636 149.165483 
L 126.438545 149.063597 
L 127.250182 149.165902 
L 127.453091 149.336799 
L 129.279273 149.375878 
L 129.685091 149.476347 
L 129.888 149.449302 
L 130.090909 150.068086 
L 130.293818 150.023362 
L 130.496727 150.124601 
L 130.699636 150.009825 
L 131.105455 150.028435 
L 131.308364 152.252204 
L 131.511273 152.296801 
L 131.714182 154.002973 
L 131.917091 153.920595 
L 132.12 160.688173 
L 132.322909 161.076914 
L 133.946182 161.601823 
L 134.149091 163.942822 
L 134.352 163.998567 
L 134.554909 163.846764 
L 134.960727 164.153849 
L 135.163636 166.299888 
L 135.366545 169.708541 
L 135.569455 169.725324 
L 135.772364 169.876878 
L 135.975273 171.924824 
L 136.381091 171.699418 
L 136.584 172.478129 
L 136.786909 172.494303 
L 136.989818 172.745304 
L 137.192727 172.616044 
L 137.395636 172.778409 
L 137.598545 175.170438 
L 137.801455 175.090505 
L 138.004364 176.210438 
L 138.410182 176.35003 
L 138.613091 176.259898 
L 138.816 176.454958 
L 139.018909 176.365243 
L 139.221818 176.471534 
L 139.424727 176.242782 
L 139.627636 178.145028 
L 139.830545 178.049935 
L 140.033455 178.11204 
L 140.439273 178.499196 
L 140.845091 178.053257 
L 141.048 178.278223 
L 141.453818 180.520948 
L 141.859636 180.820805 
L 142.062545 192.358447 
L 142.468364 192.697087 
L 142.874182 196.801423 
L 143.077091 197.405346 
L 143.28 200.068164 
L 143.685818 200.391391 
L 143.888727 200.047862 
L 144.091636 200.495247 
L 144.700364 198.984654 
L 144.903273 203.115336 
L 145.106182 204.73463 
L 145.309091 204.281455 
L 145.917818 205.310288 
L 146.526545 205.807101 
L 146.729455 205.609987 
L 146.932364 206.162707 
L 147.338182 206.160857 
L 147.541091 205.805557 
L 147.946909 206.260653 
L 148.149818 206.414498 
L 148.352727 204.883379 
L 148.555636 206.755054 
L 148.758545 206.465976 
L 149.367273 207.857001 
L 149.773091 208.626267 
L 149.976 208.354681 
L 150.178909 208.375394 
L 150.381818 207.849669 
L 150.584727 207.779044 
L 150.787636 207.196976 
L 150.990545 210.451308 
L 151.193455 210.987396 
L 151.599273 210.558282 
L 151.802182 210.758892 
L 152.005091 210.474221 
L 152.208 211.255185 
L 152.410909 210.977351 
L 152.613818 210.456694 
L 153.019636 211.792218 
L 153.222545 211.929611 
L 153.425455 212.492472 
L 153.831273 213.005608 
L 154.034182 213.495457 
L 154.237091 212.074147 
L 154.642909 212.46624 
L 154.845818 213.088734 
L 155.048727 212.579589 
L 155.251636 213.20285 
L 155.454545 212.742901 
L 155.657455 212.644343 
L 155.860364 213.114071 
L 156.266182 211.843959 
L 156.672 212.483652 
L 156.874909 212.801264 
L 157.077818 211.699875 
L 157.280727 211.611742 
L 157.483636 211.777842 
L 157.686545 211.766217 
L 157.889455 211.16796 
L 158.092364 211.916463 
L 158.295273 213.094346 
L 158.498182 212.52826 
L 158.904 214.593575 
L 159.106909 215.436431 
L 159.309818 215.640745 
L 159.512727 215.389434 
L 159.715636 215.497004 
L 159.918545 215.16068 
L 160.121455 215.070794 
L 160.324364 214.698815 
L 160.527273 213.129594 
L 160.730182 213.313319 
L 161.136 212.967866 
L 161.338909 212.922609 
L 161.541818 212.659448 
L 161.744727 215.109261 
L 161.947636 215.11003 
L 162.150545 214.275732 
L 162.353455 214.642054 
L 162.556364 216.0058 
L 162.759273 215.737063 
L 162.962182 216.019668 
L 163.368 214.984139 
L 163.773818 215.643833 
L 163.976727 215.863758 
L 164.179636 216.772719 
L 164.382545 216.316802 
L 164.788364 216.804424 
L 164.991273 219.527673 
L 165.194182 219.310174 
L 165.397091 219.300894 
L 165.6 217.892659 
L 166.005818 218.603807 
L 166.208727 217.955146 
L 166.614545 218.008917 
L 167.020364 217.88197 
L 167.223273 218.074413 
L 168.237818 220.521095 
L 168.643636 221.237223 
L 168.846545 223.027367 
L 169.455273 221.51126 
L 169.658182 221.342676 
L 169.861091 220.921201 
L 170.064 220.166122 
L 170.266909 220.892086 
L 170.469818 221.009382 
L 170.875636 222.229299 
L 171.078545 222.170442 
L 171.281455 221.505625 
L 171.687273 222.009924 
L 171.890182 221.105839 
L 172.093091 218.868958 
L 172.296 218.482209 
L 172.498909 219.729648 
L 172.904727 219.26687 
L 173.513455 222.230899 
L 173.919273 223.292786 
L 174.122182 221.8583 
L 174.325091 221.704367 
L 174.528 221.847996 
L 174.730909 221.441017 
L 174.933818 220.533957 
L 175.136727 221.34254 
L 175.339636 223.385687 
L 175.542545 222.848178 
L 175.745455 223.359942 
L 175.948364 222.247194 
L 176.151273 222.936675 
L 176.557091 222.272846 
L 176.76 226.663825 
L 176.962909 227.714442 
L 177.165818 225.82988 
L 177.368727 226.664434 
L 177.571636 226.585063 
L 177.774545 225.882571 
L 177.977455 226.266204 
L 178.383273 226.482703 
L 178.586182 228.193166 
L 178.789091 227.249056 
L 178.992 231.261408 
L 179.194909 229.17533 
L 179.397818 228.635352 
L 179.600727 227.233086 
L 179.803636 227.104192 
L 180.006545 227.193115 
L 180.412364 228.352456 
L 180.615273 227.225068 
L 180.818182 235.235659 
L 181.224 234.728772 
L 181.426909 235.210068 
L 181.629818 235.178762 
L 181.832727 234.983776 
L 182.035636 235.724739 
L 182.238545 236.949722 
L 182.644364 235.514539 
L 182.847273 234.648767 
L 183.050182 234.754132 
L 183.253091 232.650971 
L 183.658909 233.753886 
L 183.861818 235.500991 
L 184.064727 236.170308 
L 184.267636 235.013965 
L 184.470545 235.495511 
L 184.673455 234.388262 
L 184.876364 233.997419 
L 185.079273 234.396084 
L 185.282182 235.105903 
L 185.485091 234.915752 
L 185.688 234.919664 
L 186.296727 231.254586 
L 186.702545 232.844413 
L 186.905455 232.54954 
L 187.108364 233.475707 
L 187.311273 233.630657 
L 187.514182 233.97619 
L 187.717091 233.837527 
L 187.92 234.563976 
L 188.122909 234.129457 
L 188.325818 234.991127 
L 188.731636 233.849793 
L 188.934545 233.775318 
L 189.137455 234.210055 
L 189.340364 234.941965 
L 189.746182 232.199657 
L 189.949091 233.48356 
L 190.152 236.464305 
L 190.354909 236.233697 
L 190.760727 236.630919 
L 190.963636 236.403669 
L 191.166545 234.205963 
L 191.369455 233.328556 
L 191.572364 233.675836 
L 191.775273 237.025259 
L 192.181091 237.884448 
L 192.384 237.454874 
L 192.789818 235.04432 
L 192.992727 235.116636 
L 193.195636 236.585985 
L 193.398545 236.574987 
L 193.601455 234.422804 
L 194.007273 235.160065 
L 194.210182 235.385592 
L 194.413091 234.252656 
L 194.616 237.217265 
L 194.818909 235.375377 
L 195.224727 236.644141 
L 195.427636 235.823925 
L 195.630545 232.463102 
L 196.036364 234.537438 
L 196.239273 233.271493 
L 196.645091 235.411393 
L 196.848 234.497064 
L 197.050909 232.531639 
L 373.581818 232.531639 
L 373.581818 232.531639 
" style="fill:none;stroke:#8b2be2;stroke-linecap:round;stroke-width:1.2;"/>
    <defs>
     <path d="M -0 3.394113 
L 3.394113 0 
L 0 -3.394113 
L -3.394113 -0 
z
" id="m3221f51ed6" style="stroke:#8b2be2;stroke-linejoin:miter;"/>
    </defs>
    <g clip-path="url(#p27d04833a6)">
     <use style="fill-opacity:0;stroke:#8b2be2;stroke-linejoin:miter;" x="69.218182" xlink:href="#m3221f51ed6" y="44.64"/>
     <use style="fill-opacity:0;stroke:#8b2be2;stroke-linejoin:miter;" x="109.8" xlink:href="#m3221f51ed6" y="137.169914"/>
     <use style="fill-opacity:0;stroke:#8b2be2;stroke-linejoin:miter;" x="150.381818" xlink:href="#m3221f51ed6" y="207.849669"/>
     <use style="fill-opacity:0;stroke:#8b2be2;stroke-linejoin:miter;" x="190.963636" xlink:href="#m3221f51ed6" y="236.403669"/>
     <use style="fill-opacity:0;stroke:#8b2be2;stroke-linejoin:miter;" x="231.545455" xlink:href="#m3221f51ed6" y="232.531639"/>
     <use style="fill-opacity:0;stroke:#8b2be2;stroke-linejoin:miter;" x="272.127273" xlink:href="#m3221f51ed6" y="232.531639"/>
     <use style="fill-opacity:0;stroke:#8b2be2;stroke-linejoin:miter;" x="312.709091" xlink:href="#m3221f51ed6" y="232.531639"/>
     <use style="fill-opacity:0;stroke:#8b2be2;stroke-linejoin:miter;" x="353.290909" xlink:href="#m3221f51ed6" y="232.531639"/>
    </g>
   </g>
   <g id="patch_3">
    <path d="M 54 256.32 
L 54 34.56 
" style="fill:none;stroke:#000000;stroke-linecap:square;stroke-linejoin:miter;"/>
   </g>
   <g id="patch_4">
    <path d="M 388.8 256.32 
L 388.8 34.56 
" style="fill:none;stroke:#000000;stroke-linecap:square;stroke-linejoin:miter;"/>
   </g>
   <g id="patch_5">
    <path d="M 54 256.32 
L 388.8 256.32 
" style="fill:none;stroke:#000000;stroke-linecap:square;stroke-linejoin:miter;"/>
   </g>
   <g id="patch_6">
    <path d="M 54 34.56 
L 388.8 34.56 
" style="fill:none;stroke:#000000;stroke-linecap:square;stroke-linejoin:miter;"/>
   </g>
   <g id="legend_1">
    <g id="patch_7">
     <path d="M 276.864 117.9543 
L 383.52 117.9543 
L 383.52 39.84 
L 276.864 39.84 
z
" style="fill:#ffffff;opacity:0.8;stroke:#000000;stroke-linejoin:miter;stroke-width:0.8;"/>
    </g>
    <g id="line2d_62">
     <path d="M 281.088 48.06195 
L 302.208 48.06195 
" style="fill:none;stroke:#023eff;stroke-linecap:round;stroke-width:1.2;"/>
    </g>
    <g id="line2d_63">
     <g>
      <use style="fill-opacity:0;stroke:#023eff;" x="291.648" xlink:href="#mc3bb9230ed" y="48.06195"/>
     </g>
    </g>
    <g id="text_13">
     <!-- MOEA/D-Lvy -->
     <defs>
      <path d="M 7.421875 0 
L 7.421875 71.578125 
L 21.6875 71.578125 
L 38.625 20.90625 
Q 40.96875 13.8125 42.046875 10.296875 
Q 43.265625 14.203125 45.84375 21.78125 
L 62.984375 71.578125 
L 75.734375 71.578125 
L 75.734375 0 
L 66.609375 0 
L 66.609375 59.90625 
L 45.796875 0 
L 37.25 0 
L 16.546875 60.9375 
L 16.546875 0 
z
" id="ArialMT-77"/>
      <path d="M 4.828125 34.859375 
Q 4.828125 52.6875 14.390625 62.765625 
Q 23.96875 72.859375 39.109375 72.859375 
Q 49.03125 72.859375 56.984375 68.109375 
Q 64.9375 63.375 69.109375 54.90625 
Q 73.296875 46.4375 73.296875 35.6875 
Q 73.296875 24.8125 68.890625 16.21875 
Q 64.5 7.625 56.4375 3.203125 
Q 48.390625 -1.21875 39.0625 -1.21875 
Q 28.953125 -1.21875 20.984375 3.65625 
Q 13.03125 8.546875 8.921875 16.984375 
Q 4.828125 25.4375 4.828125 34.859375 
z
M 14.59375 34.71875 
Q 14.59375 21.78125 21.546875 14.328125 
Q 28.515625 6.890625 39.015625 6.890625 
Q 49.703125 6.890625 56.609375 14.40625 
Q 63.53125 21.921875 63.53125 35.75 
Q 63.53125 44.484375 60.578125 51 
Q 57.625 57.515625 51.921875 61.109375 
Q 46.234375 64.703125 39.15625 64.703125 
Q 29.109375 64.703125 21.84375 57.78125 
Q 14.59375 50.875 14.59375 34.71875 
z
" id="ArialMT-79"/>
      <path d="M 7.90625 0 
L 7.90625 71.578125 
L 59.671875 71.578125 
L 59.671875 63.140625 
L 17.390625 63.140625 
L 17.390625 41.21875 
L 56.984375 41.21875 
L 56.984375 32.8125 
L 17.390625 32.8125 
L 17.390625 8.453125 
L 61.328125 8.453125 
L 61.328125 0 
z
" id="ArialMT-69"/>
      <path d="M -0.140625 0 
L 27.34375 71.578125 
L 37.546875 71.578125 
L 66.84375 0 
L 56.0625 0 
L 47.703125 21.6875 
L 17.78125 21.6875 
L 9.90625 0 
z
M 20.515625 29.390625 
L 44.78125 29.390625 
L 37.3125 49.21875 
Q 33.890625 58.25 32.234375 64.0625 
Q 30.859375 57.171875 28.375 50.390625 
z
" id="ArialMT-65"/>
      <path d="M 0 -1.21875 
L 20.75 72.796875 
L 27.78125 72.796875 
L 7.078125 -1.21875 
z
" id="ArialMT-47"/>
      <path d="M 3.171875 21.484375 
L 3.171875 30.328125 
L 30.171875 30.328125 
L 30.171875 21.484375 
z
" id="ArialMT-45"/>
      <path d="M 7.328125 0 
L 7.328125 71.578125 
L 16.796875 71.578125 
L 16.796875 8.453125 
L 52.046875 8.453125 
L 52.046875 0 
z
" id="ArialMT-76"/>
      <path d="M 42.09375 16.703125 
L 51.171875 15.578125 
Q 49.03125 7.625 43.21875 3.21875 
Q 37.40625 -1.171875 28.375 -1.171875 
Q 17 -1.171875 10.328125 5.828125 
Q 3.65625 12.84375 3.65625 25.484375 
Q 3.65625 38.578125 10.390625 45.796875 
Q 17.140625 53.03125 27.875 53.03125 
Q 38.28125 53.03125 44.875 45.953125 
Q 51.46875 38.875 51.46875 26.03125 
Q 51.46875 25.25 51.421875 23.6875 
L 12.75 23.6875 
Q 13.234375 15.140625 17.578125 10.59375 
Q 21.921875 6.0625 28.421875 6.0625 
Q 33.25 6.0625 36.671875 8.59375 
Q 40.09375 11.140625 42.09375 16.703125 
z
M 13.234375 30.90625 
L 42.1875 30.90625 
Q 41.609375 37.453125 38.875 40.71875 
Q 34.671875 45.796875 27.984375 45.796875 
Q 21.921875 45.796875 17.796875 41.75 
Q 13.671875 37.703125 13.234375 30.90625 
z
M 22.71875 58.296875 
L 29.203125 71.96875 
L 40.734375 71.96875 
L 29.984375 58.296875 
z
" id="ArialMT-233"/>
      <path d="M 21 0 
L 1.265625 51.859375 
L 10.546875 51.859375 
L 21.6875 20.796875 
Q 23.484375 15.765625 25 10.359375 
Q 26.171875 14.453125 28.265625 20.21875 
L 39.796875 51.859375 
L 48.828125 51.859375 
L 29.203125 0 
z
" id="ArialMT-118"/>
      <path d="M 6.203125 -19.96875 
L 5.21875 -11.71875 
Q 8.109375 -12.5 10.25 -12.5 
Q 13.1875 -12.5 14.9375 -11.515625 
Q 16.703125 -10.546875 17.828125 -8.796875 
Q 18.65625 -7.46875 20.515625 -2.25 
Q 20.75 -1.515625 21.296875 -0.09375 
L 1.609375 51.859375 
L 11.078125 51.859375 
L 21.875 21.828125 
Q 23.96875 16.109375 25.640625 9.8125 
Q 27.15625 15.875 29.25 21.625 
L 40.328125 51.859375 
L 49.125 51.859375 
L 29.390625 -0.875 
Q 26.21875 -9.421875 24.46875 -12.640625 
Q 22.125 -17 19.09375 -19.015625 
Q 16.0625 -21.046875 11.859375 -21.046875 
Q 9.328125 -21.046875 6.203125 -19.96875 
z
" id="ArialMT-121"/>
     </defs>
     <g transform="translate(310.656 51.75795)scale(0.1056 -0.1056)">
      <use xlink:href="#ArialMT-77"/>
      <use x="83.300781" xlink:href="#ArialMT-79"/>
      <use x="161.083984" xlink:href="#ArialMT-69"/>
      <use x="227.783203" xlink:href="#ArialMT-65"/>
      <use x="294.482422" xlink:href="#ArialMT-47"/>
      <use x="322.265625" xlink:href="#ArialMT-68"/>
      <use x="394.482422" xlink:href="#ArialMT-45"/>
      <use x="427.783203" xlink:href="#ArialMT-76"/>
      <use x="483.398438" xlink:href="#ArialMT-233"/>
      <use x="539.013672" xlink:href="#ArialMT-118"/>
      <use x="589.013672" xlink:href="#ArialMT-121"/>
     </g>
    </g>
    <g id="line2d_64">
     <path d="M 281.088 63.12315 
L 302.208 63.12315 
" style="fill:none;stroke:#1ac938;stroke-linecap:round;stroke-width:1.2;"/>
    </g>
    <g id="line2d_65">
     <g>
      <use style="fill-opacity:0;stroke:#1ac938;stroke-linejoin:miter;" x="291.648" xlink:href="#mb3d8c7f695" y="63.12315"/>
     </g>
    </g>
    <g id="text_14">
     <!-- MOEA/D-DEM -->
     <g transform="translate(310.656 66.81915)scale(0.1056 -0.1056)">
      <use xlink:href="#ArialMT-77"/>
      <use x="83.300781" xlink:href="#ArialMT-79"/>
      <use x="161.083984" xlink:href="#ArialMT-69"/>
      <use x="227.783203" xlink:href="#ArialMT-65"/>
      <use x="294.482422" xlink:href="#ArialMT-47"/>
      <use x="322.265625" xlink:href="#ArialMT-68"/>
      <use x="394.482422" xlink:href="#ArialMT-45"/>
      <use x="427.783203" xlink:href="#ArialMT-68"/>
      <use x="500" xlink:href="#ArialMT-69"/>
      <use x="566.699219" xlink:href="#ArialMT-77"/>
     </g>
    </g>
    <g id="line2d_66">
     <path d="M 281.088 78.0606 
L 302.208 78.0606 
" style="fill:none;stroke:#e8000b;stroke-linecap:round;stroke-width:1.2;"/>
    </g>
    <g id="line2d_67">
     <g>
      <use style="fill-opacity:0;stroke:#e8000b;stroke-linejoin:miter;" x="291.648" xlink:href="#m9cd89803c0" y="78.0606"/>
     </g>
    </g>
    <g id="text_15">
     <!-- MOEA/D-DE -->
     <g transform="translate(310.656 81.7566)scale(0.1056 -0.1056)">
      <use xlink:href="#ArialMT-77"/>
      <use x="83.300781" xlink:href="#ArialMT-79"/>
      <use x="161.083984" xlink:href="#ArialMT-69"/>
      <use x="227.783203" xlink:href="#ArialMT-65"/>
      <use x="294.482422" xlink:href="#ArialMT-47"/>
      <use x="322.265625" xlink:href="#ArialMT-68"/>
      <use x="394.482422" xlink:href="#ArialMT-45"/>
      <use x="427.783203" xlink:href="#ArialMT-68"/>
      <use x="500" xlink:href="#ArialMT-69"/>
     </g>
    </g>
    <g id="line2d_68">
     <path d="M 281.088 92.99805 
L 302.208 92.99805 
" style="fill:none;stroke:#00d7ff;stroke-linecap:round;stroke-width:1.2;"/>
    </g>
    <g id="line2d_69">
     <g>
      <use style="fill-opacity:0;stroke:#00d7ff;stroke-linejoin:miter;" x="291.648" xlink:href="#m65f6610753" y="92.99805"/>
     </g>
    </g>
    <g id="text_16">
     <!-- MOEA/D-GA -->
     <g transform="translate(310.656 96.69405)scale(0.1056 -0.1056)">
      <use xlink:href="#ArialMT-77"/>
      <use x="83.300781" xlink:href="#ArialMT-79"/>
      <use x="161.083984" xlink:href="#ArialMT-69"/>
      <use x="227.783203" xlink:href="#ArialMT-65"/>
      <use x="294.482422" xlink:href="#ArialMT-47"/>
      <use x="322.265625" xlink:href="#ArialMT-68"/>
      <use x="394.482422" xlink:href="#ArialMT-45"/>
      <use x="427.783203" xlink:href="#ArialMT-71"/>
      <use x="505.566406" xlink:href="#ArialMT-65"/>
     </g>
    </g>
    <g id="line2d_70">
     <path d="M 281.088 107.9355 
L 302.208 107.9355 
" style="fill:none;stroke:#8b2be2;stroke-linecap:round;stroke-width:1.2;"/>
    </g>
    <g id="line2d_71">
     <g>
      <use style="fill-opacity:0;stroke:#8b2be2;stroke-linejoin:miter;" x="291.648" xlink:href="#m3221f51ed6" y="107.9355"/>
     </g>
    </g>
    <g id="text_17">
     <!-- NSGA-II -->
     <defs>
      <path d="M 7.625 0 
L 7.625 71.578125 
L 17.328125 71.578125 
L 54.9375 15.375 
L 54.9375 71.578125 
L 64.015625 71.578125 
L 64.015625 0 
L 54.296875 0 
L 16.703125 56.25 
L 16.703125 0 
z
" id="ArialMT-78"/>
      <path d="M 4.5 23 
L 13.421875 23.78125 
Q 14.0625 18.40625 16.375 14.96875 
Q 18.703125 11.53125 23.578125 9.40625 
Q 28.46875 7.28125 34.578125 7.28125 
Q 39.984375 7.28125 44.140625 8.890625 
Q 48.296875 10.5 50.3125 13.296875 
Q 52.34375 16.109375 52.34375 19.4375 
Q 52.34375 22.796875 50.390625 25.3125 
Q 48.4375 27.828125 43.953125 29.546875 
Q 41.0625 30.671875 31.203125 33.03125 
Q 21.34375 35.40625 17.390625 37.5 
Q 12.25 40.1875 9.734375 44.15625 
Q 7.234375 48.140625 7.234375 53.078125 
Q 7.234375 58.5 10.296875 63.203125 
Q 13.375 67.921875 19.28125 70.359375 
Q 25.203125 72.796875 32.421875 72.796875 
Q 40.375 72.796875 46.453125 70.234375 
Q 52.546875 67.671875 55.8125 62.6875 
Q 59.078125 57.71875 59.328125 51.421875 
L 50.25 50.734375 
Q 49.515625 57.515625 45.28125 60.984375 
Q 41.0625 64.453125 32.8125 64.453125 
Q 24.21875 64.453125 20.28125 61.296875 
Q 16.359375 58.15625 16.359375 53.71875 
Q 16.359375 49.859375 19.140625 47.359375 
Q 21.875 44.875 33.421875 42.265625 
Q 44.96875 39.65625 49.265625 37.703125 
Q 55.515625 34.8125 58.484375 30.390625 
Q 61.46875 25.984375 61.46875 20.21875 
Q 61.46875 14.5 58.203125 9.4375 
Q 54.9375 4.390625 48.796875 1.578125 
Q 42.671875 -1.21875 35.015625 -1.21875 
Q 25.296875 -1.21875 18.71875 1.609375 
Q 12.15625 4.4375 8.421875 10.125 
Q 4.6875 15.828125 4.5 23 
z
" id="ArialMT-83"/>
     </defs>
     <g transform="translate(310.656 111.6315)scale(0.1056 -0.1056)">
      <use xlink:href="#ArialMT-78"/>
      <use x="72.216797" xlink:href="#ArialMT-83"/>
      <use x="138.916016" xlink:href="#ArialMT-71"/>
      <use x="216.699219" xlink:href="#ArialMT-65"/>
      <use x="283.398438" xlink:href="#ArialMT-45"/>
      <use x="316.699219" xlink:href="#ArialMT-73"/>
      <use x="344.482422" xlink:href="#ArialMT-73"/>
     </g>
    </g>
   </g>
  </g>
 </g>
 <defs>
  <clipPath id="p27d04833a6">
   <rect height="221.76" width="334.8" x="54" y="34.56"/>
  </clipPath>
 </defs>
</svg>
