<?xml version="1.0" encoding="utf-8" standalone="no"?>
<!DOCTYPE svg PUBLIC "-//W3C//DTD SVG 1.1//EN"
  "http://www.w3.org/Graphics/SVG/1.1/DTD/svg11.dtd">
<!-- Created with matplotlib (https://matplotlib.org/) -->
<svg height="288pt" version="1.1" viewBox="0 0 432 288" width="432pt" xmlns="http://www.w3.org/2000/svg" xmlns:xlink="http://www.w3.org/1999/xlink">
 <defs>
  <style type="text/css">
*{stroke-linecap:butt;stroke-linejoin:round;}
  </style>
 </defs>
 <g id="figure_1">
  <g id="patch_1">
   <path d="M 0 288 
L 432 288 
L 432 0 
L 0 0 
z
" style="fill:#ffffff;"/>
  </g>
  <g id="axes_1">
   <g id="patch_2">
    <path d="M 54 256.32 
L 388.8 256.32 
L 388.8 34.56 
L 54 34.56 
z
" style="fill:#ffffff;"/>
   </g>
   <g id="matplotlib.axis_1">
    <g id="xtick_1">
     <g id="line2d_1">
      <defs>
       <path d="M 0 0 
L 0 -3 
" id="m201f06ef23" style="stroke:#000000;"/>
      </defs>
      <g>
       <use style="stroke:#000000;" x="69.218182" xlink:href="#m201f06ef23" y="256.32"/>
      </g>
     </g>
     <g id="line2d_2">
      <defs>
       <path d="M 0 0 
L 0 3 
" id="m49241e75e2" style="stroke:#000000;"/>
      </defs>
      <g>
       <use style="stroke:#000000;" x="69.218182" xlink:href="#m49241e75e2" y="34.56"/>
      </g>
     </g>
     <g id="text_1">
      <!-- 0 -->
      <defs>
       <path d="M 4.15625 35.296875 
Q 4.15625 48 6.765625 55.734375 
Q 9.375 63.484375 14.515625 67.671875 
Q 19.671875 71.875 27.484375 71.875 
Q 33.25 71.875 37.59375 69.546875 
Q 41.9375 67.234375 44.765625 62.859375 
Q 47.609375 58.5 49.21875 52.21875 
Q 50.828125 45.953125 50.828125 35.296875 
Q 50.828125 22.703125 48.234375 14.96875 
Q 45.65625 7.234375 40.5 3 
Q 35.359375 -1.21875 27.484375 -1.21875 
Q 17.140625 -1.21875 11.234375 6.203125 
Q 4.15625 15.140625 4.15625 35.296875 
z
M 13.1875 35.296875 
Q 13.1875 17.671875 17.3125 11.828125 
Q 21.4375 6 27.484375 6 
Q 33.546875 6 37.671875 11.859375 
Q 41.796875 17.71875 41.796875 35.296875 
Q 41.796875 52.984375 37.671875 58.78125 
Q 33.546875 64.59375 27.390625 64.59375 
Q 21.34375 64.59375 17.71875 59.46875 
Q 13.1875 52.9375 13.1875 35.296875 
z
" id="ArialMT-48"/>
      </defs>
      <g transform="translate(66.282007 267.37865)scale(0.1056 -0.1056)">
       <use xlink:href="#ArialMT-48"/>
      </g>
     </g>
    </g>
    <g id="xtick_2">
     <g id="line2d_3">
      <g>
       <use style="stroke:#000000;" x="109.8" xlink:href="#m201f06ef23" y="256.32"/>
      </g>
     </g>
     <g id="line2d_4">
      <g>
       <use style="stroke:#000000;" x="109.8" xlink:href="#m49241e75e2" y="34.56"/>
      </g>
     </g>
     <g id="text_2">
      <!-- 200 -->
      <defs>
       <path d="M 50.34375 8.453125 
L 50.34375 0 
L 3.03125 0 
Q 2.9375 3.171875 4.046875 6.109375 
Q 5.859375 10.9375 9.828125 15.625 
Q 13.8125 20.3125 21.34375 26.46875 
Q 33.015625 36.03125 37.109375 41.625 
Q 41.21875 47.21875 41.21875 52.203125 
Q 41.21875 57.421875 37.46875 61 
Q 33.734375 64.59375 27.734375 64.59375 
Q 21.390625 64.59375 17.578125 60.78125 
Q 13.765625 56.984375 13.71875 50.25 
L 4.6875 51.171875 
Q 5.609375 61.28125 11.65625 66.578125 
Q 17.71875 71.875 27.9375 71.875 
Q 38.234375 71.875 44.234375 66.15625 
Q 50.25 60.453125 50.25 52 
Q 50.25 47.703125 48.484375 43.546875 
Q 46.734375 39.40625 42.65625 34.8125 
Q 38.578125 30.21875 29.109375 22.21875 
Q 21.1875 15.578125 18.9375 13.203125 
Q 16.703125 10.84375 15.234375 8.453125 
z
" id="ArialMT-50"/>
      </defs>
      <g transform="translate(100.991475 267.37865)scale(0.1056 -0.1056)">
       <use xlink:href="#ArialMT-50"/>
       <use x="55.615234" xlink:href="#ArialMT-48"/>
       <use x="111.230469" xlink:href="#ArialMT-48"/>
      </g>
     </g>
    </g>
    <g id="xtick_3">
     <g id="line2d_5">
      <g>
       <use style="stroke:#000000;" x="150.381818" xlink:href="#m201f06ef23" y="256.32"/>
      </g>
     </g>
     <g id="line2d_6">
      <g>
       <use style="stroke:#000000;" x="150.381818" xlink:href="#m49241e75e2" y="34.56"/>
      </g>
     </g>
     <g id="text_3">
      <!-- 400 -->
      <defs>
       <path d="M 32.328125 0 
L 32.328125 17.140625 
L 1.265625 17.140625 
L 1.265625 25.203125 
L 33.9375 71.578125 
L 41.109375 71.578125 
L 41.109375 25.203125 
L 50.78125 25.203125 
L 50.78125 17.140625 
L 41.109375 17.140625 
L 41.109375 0 
z
M 32.328125 25.203125 
L 32.328125 57.46875 
L 9.90625 25.203125 
z
" id="ArialMT-52"/>
      </defs>
      <g transform="translate(141.573293 267.37865)scale(0.1056 -0.1056)">
       <use xlink:href="#ArialMT-52"/>
       <use x="55.615234" xlink:href="#ArialMT-48"/>
       <use x="111.230469" xlink:href="#ArialMT-48"/>
      </g>
     </g>
    </g>
    <g id="xtick_4">
     <g id="line2d_7">
      <g>
       <use style="stroke:#000000;" x="190.963636" xlink:href="#m201f06ef23" y="256.32"/>
      </g>
     </g>
     <g id="line2d_8">
      <g>
       <use style="stroke:#000000;" x="190.963636" xlink:href="#m49241e75e2" y="34.56"/>
      </g>
     </g>
     <g id="text_4">
      <!-- 600 -->
      <defs>
       <path d="M 49.75 54.046875 
L 41.015625 53.375 
Q 39.84375 58.546875 37.703125 60.890625 
Q 34.125 64.65625 28.90625 64.65625 
Q 24.703125 64.65625 21.53125 62.3125 
Q 17.390625 59.28125 14.984375 53.46875 
Q 12.59375 47.65625 12.5 36.921875 
Q 15.671875 41.75 20.265625 44.09375 
Q 24.859375 46.4375 29.890625 46.4375 
Q 38.671875 46.4375 44.84375 39.96875 
Q 51.03125 33.5 51.03125 23.25 
Q 51.03125 16.5 48.125 10.71875 
Q 45.21875 4.9375 40.140625 1.859375 
Q 35.0625 -1.21875 28.609375 -1.21875 
Q 17.625 -1.21875 10.6875 6.859375 
Q 3.765625 14.9375 3.765625 33.5 
Q 3.765625 54.25 11.421875 63.671875 
Q 18.109375 71.875 29.4375 71.875 
Q 37.890625 71.875 43.28125 67.140625 
Q 48.6875 62.40625 49.75 54.046875 
z
M 13.875 23.1875 
Q 13.875 18.65625 15.796875 14.5 
Q 17.71875 10.359375 21.1875 8.171875 
Q 24.65625 6 28.46875 6 
Q 34.03125 6 38.03125 10.484375 
Q 42.046875 14.984375 42.046875 22.703125 
Q 42.046875 30.125 38.078125 34.390625 
Q 34.125 38.671875 28.125 38.671875 
Q 22.171875 38.671875 18.015625 34.390625 
Q 13.875 30.125 13.875 23.1875 
z
" id="ArialMT-54"/>
      </defs>
      <g transform="translate(182.155111 267.37865)scale(0.1056 -0.1056)">
       <use xlink:href="#ArialMT-54"/>
       <use x="55.615234" xlink:href="#ArialMT-48"/>
       <use x="111.230469" xlink:href="#ArialMT-48"/>
      </g>
     </g>
    </g>
    <g id="xtick_5">
     <g id="line2d_9">
      <g>
       <use style="stroke:#000000;" x="231.545455" xlink:href="#m201f06ef23" y="256.32"/>
      </g>
     </g>
     <g id="line2d_10">
      <g>
       <use style="stroke:#000000;" x="231.545455" xlink:href="#m49241e75e2" y="34.56"/>
      </g>
     </g>
     <g id="text_5">
      <!-- 800 -->
      <defs>
       <path d="M 17.671875 38.8125 
Q 12.203125 40.828125 9.5625 44.53125 
Q 6.9375 48.25 6.9375 53.421875 
Q 6.9375 61.234375 12.546875 66.546875 
Q 18.171875 71.875 27.484375 71.875 
Q 36.859375 71.875 42.578125 66.421875 
Q 48.296875 60.984375 48.296875 53.171875 
Q 48.296875 48.1875 45.671875 44.5 
Q 43.0625 40.828125 37.75 38.8125 
Q 44.34375 36.671875 47.78125 31.875 
Q 51.21875 27.09375 51.21875 20.453125 
Q 51.21875 11.28125 44.71875 5.03125 
Q 38.234375 -1.21875 27.640625 -1.21875 
Q 17.046875 -1.21875 10.546875 5.046875 
Q 4.046875 11.328125 4.046875 20.703125 
Q 4.046875 27.6875 7.59375 32.390625 
Q 11.140625 37.109375 17.671875 38.8125 
z
M 15.921875 53.71875 
Q 15.921875 48.640625 19.1875 45.40625 
Q 22.46875 42.1875 27.6875 42.1875 
Q 32.765625 42.1875 36.015625 45.375 
Q 39.265625 48.578125 39.265625 53.21875 
Q 39.265625 58.0625 35.90625 61.359375 
Q 32.5625 64.65625 27.59375 64.65625 
Q 22.5625 64.65625 19.234375 61.421875 
Q 15.921875 58.203125 15.921875 53.71875 
z
M 13.09375 20.65625 
Q 13.09375 16.890625 14.875 13.375 
Q 16.65625 9.859375 20.171875 7.921875 
Q 23.6875 6 27.734375 6 
Q 34.03125 6 38.125 10.046875 
Q 42.234375 14.109375 42.234375 20.359375 
Q 42.234375 26.703125 38.015625 30.859375 
Q 33.796875 35.015625 27.4375 35.015625 
Q 21.234375 35.015625 17.15625 30.90625 
Q 13.09375 26.8125 13.09375 20.65625 
z
" id="ArialMT-56"/>
      </defs>
      <g transform="translate(222.73693 267.37865)scale(0.1056 -0.1056)">
       <use xlink:href="#ArialMT-56"/>
       <use x="55.615234" xlink:href="#ArialMT-48"/>
       <use x="111.230469" xlink:href="#ArialMT-48"/>
      </g>
     </g>
    </g>
    <g id="xtick_6">
     <g id="line2d_11">
      <g>
       <use style="stroke:#000000;" x="272.127273" xlink:href="#m201f06ef23" y="256.32"/>
      </g>
     </g>
     <g id="line2d_12">
      <g>
       <use style="stroke:#000000;" x="272.127273" xlink:href="#m49241e75e2" y="34.56"/>
      </g>
     </g>
     <g id="text_6">
      <!-- 1000 -->
      <defs>
       <path d="M 37.25 0 
L 28.46875 0 
L 28.46875 56 
Q 25.296875 52.984375 20.140625 49.953125 
Q 14.984375 46.921875 10.890625 45.40625 
L 10.890625 53.90625 
Q 18.265625 57.375 23.78125 62.296875 
Q 29.296875 67.234375 31.59375 71.875 
L 37.25 71.875 
z
" id="ArialMT-49"/>
      </defs>
      <g transform="translate(260.382573 267.37865)scale(0.1056 -0.1056)">
       <use xlink:href="#ArialMT-49"/>
       <use x="55.615234" xlink:href="#ArialMT-48"/>
       <use x="111.230469" xlink:href="#ArialMT-48"/>
       <use x="166.845703" xlink:href="#ArialMT-48"/>
      </g>
     </g>
    </g>
    <g id="xtick_7">
     <g id="line2d_13">
      <g>
       <use style="stroke:#000000;" x="312.709091" xlink:href="#m201f06ef23" y="256.32"/>
      </g>
     </g>
     <g id="line2d_14">
      <g>
       <use style="stroke:#000000;" x="312.709091" xlink:href="#m49241e75e2" y="34.56"/>
      </g>
     </g>
     <g id="text_7">
      <!-- 1200 -->
      <g transform="translate(300.964391 267.37865)scale(0.1056 -0.1056)">
       <use xlink:href="#ArialMT-49"/>
       <use x="55.615234" xlink:href="#ArialMT-50"/>
       <use x="111.230469" xlink:href="#ArialMT-48"/>
       <use x="166.845703" xlink:href="#ArialMT-48"/>
      </g>
     </g>
    </g>
    <g id="xtick_8">
     <g id="line2d_15">
      <g>
       <use style="stroke:#000000;" x="353.290909" xlink:href="#m201f06ef23" y="256.32"/>
      </g>
     </g>
     <g id="line2d_16">
      <g>
       <use style="stroke:#000000;" x="353.290909" xlink:href="#m49241e75e2" y="34.56"/>
      </g>
     </g>
     <g id="text_8">
      <!-- 1400 -->
      <g transform="translate(341.546209 267.37865)scale(0.1056 -0.1056)">
       <use xlink:href="#ArialMT-49"/>
       <use x="55.615234" xlink:href="#ArialMT-52"/>
       <use x="111.230469" xlink:href="#ArialMT-48"/>
       <use x="166.845703" xlink:href="#ArialMT-48"/>
      </g>
     </g>
    </g>
    <g id="text_9">
     <!-- Generations -->
     <defs>
      <path d="M 41.21875 28.078125 
L 41.21875 36.46875 
L 71.53125 36.53125 
L 71.53125 9.96875 
Q 64.546875 4.390625 57.125 1.578125 
Q 49.703125 -1.21875 41.890625 -1.21875 
Q 31.34375 -1.21875 22.71875 3.296875 
Q 14.109375 7.8125 9.71875 16.359375 
Q 5.328125 24.90625 5.328125 35.453125 
Q 5.328125 45.90625 9.6875 54.953125 
Q 14.0625 64.015625 22.265625 68.40625 
Q 30.46875 72.796875 41.15625 72.796875 
Q 48.921875 72.796875 55.1875 70.28125 
Q 61.46875 67.78125 65.03125 63.28125 
Q 68.609375 58.796875 70.453125 51.5625 
L 61.921875 49.21875 
Q 60.296875 54.6875 57.90625 57.8125 
Q 55.515625 60.9375 51.0625 62.8125 
Q 46.625 64.703125 41.21875 64.703125 
Q 34.71875 64.703125 29.984375 62.71875 
Q 25.25 60.75 22.34375 57.515625 
Q 19.4375 54.296875 17.828125 50.4375 
Q 15.09375 43.796875 15.09375 36.03125 
Q 15.09375 26.46875 18.390625 20.015625 
Q 21.6875 13.578125 27.984375 10.453125 
Q 34.28125 7.328125 41.359375 7.328125 
Q 47.515625 7.328125 53.375 9.6875 
Q 59.234375 12.0625 62.25 14.75 
L 62.25 28.078125 
z
" id="ArialMT-71"/>
      <path d="M 42.09375 16.703125 
L 51.171875 15.578125 
Q 49.03125 7.625 43.21875 3.21875 
Q 37.40625 -1.171875 28.375 -1.171875 
Q 17 -1.171875 10.328125 5.828125 
Q 3.65625 12.84375 3.65625 25.484375 
Q 3.65625 38.578125 10.390625 45.796875 
Q 17.140625 53.03125 27.875 53.03125 
Q 38.28125 53.03125 44.875 45.953125 
Q 51.46875 38.875 51.46875 26.03125 
Q 51.46875 25.25 51.421875 23.6875 
L 12.75 23.6875 
Q 13.234375 15.140625 17.578125 10.59375 
Q 21.921875 6.0625 28.421875 6.0625 
Q 33.25 6.0625 36.671875 8.59375 
Q 40.09375 11.140625 42.09375 16.703125 
z
M 13.234375 30.90625 
L 42.1875 30.90625 
Q 41.609375 37.453125 38.875 40.71875 
Q 34.671875 45.796875 27.984375 45.796875 
Q 21.921875 45.796875 17.796875 41.75 
Q 13.671875 37.703125 13.234375 30.90625 
z
" id="ArialMT-101"/>
      <path d="M 6.59375 0 
L 6.59375 51.859375 
L 14.5 51.859375 
L 14.5 44.484375 
Q 20.21875 53.03125 31 53.03125 
Q 35.6875 53.03125 39.625 51.34375 
Q 43.5625 49.65625 45.515625 46.921875 
Q 47.46875 44.1875 48.25 40.4375 
Q 48.734375 37.984375 48.734375 31.890625 
L 48.734375 0 
L 39.9375 0 
L 39.9375 31.546875 
Q 39.9375 36.921875 38.90625 39.578125 
Q 37.890625 42.234375 35.28125 43.8125 
Q 32.671875 45.40625 29.15625 45.40625 
Q 23.53125 45.40625 19.453125 41.84375 
Q 15.375 38.28125 15.375 28.328125 
L 15.375 0 
z
" id="ArialMT-110"/>
      <path d="M 6.5 0 
L 6.5 51.859375 
L 14.40625 51.859375 
L 14.40625 44 
Q 17.4375 49.515625 20 51.265625 
Q 22.5625 53.03125 25.640625 53.03125 
Q 30.078125 53.03125 34.671875 50.203125 
L 31.640625 42.046875 
Q 28.421875 43.953125 25.203125 43.953125 
Q 22.3125 43.953125 20.015625 42.21875 
Q 17.71875 40.484375 16.75 37.40625 
Q 15.28125 32.71875 15.28125 27.15625 
L 15.28125 0 
z
" id="ArialMT-114"/>
      <path d="M 40.4375 6.390625 
Q 35.546875 2.25 31.03125 0.53125 
Q 26.515625 -1.171875 21.34375 -1.171875 
Q 12.796875 -1.171875 8.203125 3 
Q 3.609375 7.171875 3.609375 13.671875 
Q 3.609375 17.484375 5.34375 20.625 
Q 7.078125 23.78125 9.890625 25.6875 
Q 12.703125 27.59375 16.21875 28.5625 
Q 18.796875 29.25 24.03125 29.890625 
Q 34.671875 31.15625 39.703125 32.90625 
Q 39.75 34.71875 39.75 35.203125 
Q 39.75 40.578125 37.25 42.78125 
Q 33.890625 45.75 27.25 45.75 
Q 21.046875 45.75 18.09375 43.578125 
Q 15.140625 41.40625 13.71875 35.890625 
L 5.125 37.0625 
Q 6.296875 42.578125 8.984375 45.96875 
Q 11.671875 49.359375 16.75 51.1875 
Q 21.828125 53.03125 28.515625 53.03125 
Q 35.15625 53.03125 39.296875 51.46875 
Q 43.453125 49.90625 45.40625 47.53125 
Q 47.359375 45.171875 48.140625 41.546875 
Q 48.578125 39.3125 48.578125 33.453125 
L 48.578125 21.734375 
Q 48.578125 9.46875 49.140625 6.21875 
Q 49.703125 2.984375 51.375 0 
L 42.1875 0 
Q 40.828125 2.734375 40.4375 6.390625 
z
M 39.703125 26.03125 
Q 34.90625 24.078125 25.34375 22.703125 
Q 19.921875 21.921875 17.671875 20.9375 
Q 15.4375 19.96875 14.203125 18.09375 
Q 12.984375 16.21875 12.984375 13.921875 
Q 12.984375 10.40625 15.640625 8.0625 
Q 18.3125 5.71875 23.4375 5.71875 
Q 28.515625 5.71875 32.46875 7.9375 
Q 36.421875 10.15625 38.28125 14.015625 
Q 39.703125 17 39.703125 22.796875 
z
" id="ArialMT-97"/>
      <path d="M 25.78125 7.859375 
L 27.046875 0.09375 
Q 23.34375 -0.6875 20.40625 -0.6875 
Q 15.625 -0.6875 12.984375 0.828125 
Q 10.359375 2.34375 9.28125 4.8125 
Q 8.203125 7.28125 8.203125 15.1875 
L 8.203125 45.015625 
L 1.765625 45.015625 
L 1.765625 51.859375 
L 8.203125 51.859375 
L 8.203125 64.703125 
L 16.9375 69.96875 
L 16.9375 51.859375 
L 25.78125 51.859375 
L 25.78125 45.015625 
L 16.9375 45.015625 
L 16.9375 14.703125 
Q 16.9375 10.9375 17.40625 9.859375 
Q 17.875 8.796875 18.921875 8.15625 
Q 19.96875 7.515625 21.921875 7.515625 
Q 23.390625 7.515625 25.78125 7.859375 
z
" id="ArialMT-116"/>
      <path d="M 6.640625 61.46875 
L 6.640625 71.578125 
L 15.4375 71.578125 
L 15.4375 61.46875 
z
M 6.640625 0 
L 6.640625 51.859375 
L 15.4375 51.859375 
L 15.4375 0 
z
" id="ArialMT-105"/>
      <path d="M 3.328125 25.921875 
Q 3.328125 40.328125 11.328125 47.265625 
Q 18.015625 53.03125 27.640625 53.03125 
Q 38.328125 53.03125 45.109375 46.015625 
Q 51.90625 39.015625 51.90625 26.65625 
Q 51.90625 16.65625 48.90625 10.90625 
Q 45.90625 5.171875 40.15625 2 
Q 34.421875 -1.171875 27.640625 -1.171875 
Q 16.75 -1.171875 10.03125 5.8125 
Q 3.328125 12.796875 3.328125 25.921875 
z
M 12.359375 25.921875 
Q 12.359375 15.96875 16.703125 11.015625 
Q 21.046875 6.0625 27.640625 6.0625 
Q 34.1875 6.0625 38.53125 11.03125 
Q 42.875 16.015625 42.875 26.21875 
Q 42.875 35.84375 38.5 40.796875 
Q 34.125 45.75 27.640625 45.75 
Q 21.046875 45.75 16.703125 40.8125 
Q 12.359375 35.890625 12.359375 25.921875 
z
" id="ArialMT-111"/>
      <path d="M 3.078125 15.484375 
L 11.765625 16.84375 
Q 12.5 11.625 15.84375 8.84375 
Q 19.1875 6.0625 25.203125 6.0625 
Q 31.25 6.0625 34.171875 8.515625 
Q 37.109375 10.984375 37.109375 14.3125 
Q 37.109375 17.28125 34.515625 19 
Q 32.71875 20.171875 25.53125 21.96875 
Q 15.875 24.421875 12.140625 26.203125 
Q 8.40625 27.984375 6.46875 31.125 
Q 4.546875 34.28125 4.546875 38.09375 
Q 4.546875 41.546875 6.125 44.5 
Q 7.71875 47.46875 10.453125 49.421875 
Q 12.5 50.921875 16.03125 51.96875 
Q 19.578125 53.03125 23.640625 53.03125 
Q 29.734375 53.03125 34.34375 51.265625 
Q 38.96875 49.515625 41.15625 46.5 
Q 43.359375 43.5 44.1875 38.484375 
L 35.59375 37.3125 
Q 35.015625 41.3125 32.203125 43.546875 
Q 29.390625 45.796875 24.265625 45.796875 
Q 18.21875 45.796875 15.625 43.796875 
Q 13.03125 41.796875 13.03125 39.109375 
Q 13.03125 37.40625 14.109375 36.03125 
Q 15.1875 34.625 17.484375 33.6875 
Q 18.796875 33.203125 25.25 31.453125 
Q 34.578125 28.953125 38.25 27.359375 
Q 41.9375 25.78125 44.03125 22.75 
Q 46.140625 19.734375 46.140625 15.234375 
Q 46.140625 10.84375 43.578125 6.953125 
Q 41.015625 3.078125 36.171875 0.953125 
Q 31.34375 -1.171875 25.25 -1.171875 
Q 15.140625 -1.171875 9.84375 3.03125 
Q 4.546875 7.234375 3.078125 15.484375 
z
" id="ArialMT-115"/>
     </defs>
     <g transform="translate(190.0233 281.72325)scale(0.1152 -0.1152)">
      <use xlink:href="#ArialMT-71"/>
      <use x="77.783203" xlink:href="#ArialMT-101"/>
      <use x="133.398438" xlink:href="#ArialMT-110"/>
      <use x="189.013672" xlink:href="#ArialMT-101"/>
      <use x="244.628906" xlink:href="#ArialMT-114"/>
      <use x="277.929688" xlink:href="#ArialMT-97"/>
      <use x="333.544922" xlink:href="#ArialMT-116"/>
      <use x="361.328125" xlink:href="#ArialMT-105"/>
      <use x="383.544922" xlink:href="#ArialMT-111"/>
      <use x="439.160156" xlink:href="#ArialMT-110"/>
      <use x="494.775391" xlink:href="#ArialMT-115"/>
     </g>
    </g>
   </g>
   <g id="matplotlib.axis_2">
    <g id="ytick_1">
     <g id="line2d_17">
      <defs>
       <path d="M 0 0 
L 3 0 
" id="mf17becc054" style="stroke:#000000;"/>
      </defs>
      <g>
       <use style="stroke:#000000;" x="54" xlink:href="#mf17becc054" y="192.846001"/>
      </g>
     </g>
     <g id="line2d_18">
      <defs>
       <path d="M 0 0 
L -3 0 
" id="m7c414bf436" style="stroke:#000000;"/>
      </defs>
      <g>
       <use style="stroke:#000000;" x="388.8" xlink:href="#m7c414bf436" y="192.846001"/>
      </g>
     </g>
     <g id="text_10">
      <!-- $\mathdefault{10^{-4}}$ -->
      <defs>
       <path d="M 52.828125 31.203125 
L 5.5625 31.203125 
L 5.5625 39.40625 
L 52.828125 39.40625 
z
" id="ArialMT-8722"/>
      </defs>
      <g transform="translate(29.5912 198.238201)scale(0.1056 -0.1056)">
       <use transform="translate(0 0.201563)" xlink:href="#ArialMT-49"/>
       <use transform="translate(55.615234 0.201563)" xlink:href="#ArialMT-48"/>
       <use transform="translate(112.972813 69.895313)scale(0.7)" xlink:href="#ArialMT-8722"/>
       <use transform="translate(153.851719 69.895313)scale(0.7)" xlink:href="#ArialMT-52"/>
      </g>
     </g>
    </g>
    <g id="ytick_2">
     <g id="line2d_19">
      <g>
       <use style="stroke:#000000;" x="54" xlink:href="#mf17becc054" y="94.143069"/>
      </g>
     </g>
     <g id="line2d_20">
      <g>
       <use style="stroke:#000000;" x="388.8" xlink:href="#m7c414bf436" y="94.143069"/>
      </g>
     </g>
     <g id="text_11">
      <!-- $\mathdefault{10^{-3}}$ -->
      <defs>
       <path d="M 4.203125 18.890625 
L 12.984375 20.0625 
Q 14.5 12.59375 18.140625 9.296875 
Q 21.78125 6 27 6 
Q 33.203125 6 37.46875 10.296875 
Q 41.75 14.59375 41.75 20.953125 
Q 41.75 27 37.796875 30.921875 
Q 33.84375 34.859375 27.734375 34.859375 
Q 25.25 34.859375 21.53125 33.890625 
L 22.515625 41.609375 
Q 23.390625 41.5 23.921875 41.5 
Q 29.546875 41.5 34.03125 44.421875 
Q 38.53125 47.359375 38.53125 53.46875 
Q 38.53125 58.296875 35.25 61.46875 
Q 31.984375 64.65625 26.8125 64.65625 
Q 21.6875 64.65625 18.265625 61.421875 
Q 14.84375 58.203125 13.875 51.765625 
L 5.078125 53.328125 
Q 6.6875 62.15625 12.390625 67.015625 
Q 18.109375 71.875 26.609375 71.875 
Q 32.46875 71.875 37.390625 69.359375 
Q 42.328125 66.84375 44.9375 62.5 
Q 47.5625 58.15625 47.5625 53.265625 
Q 47.5625 48.640625 45.0625 44.828125 
Q 42.578125 41.015625 37.703125 38.765625 
Q 44.046875 37.3125 47.5625 32.6875 
Q 51.078125 28.078125 51.078125 21.140625 
Q 51.078125 11.765625 44.234375 5.25 
Q 37.40625 -1.265625 26.953125 -1.265625 
Q 17.53125 -1.265625 11.296875 4.34375 
Q 5.078125 9.96875 4.203125 18.890625 
z
" id="ArialMT-51"/>
      </defs>
      <g transform="translate(29.5912 99.588069)scale(0.1056 -0.1056)">
       <use transform="translate(0 0.99375)" xlink:href="#ArialMT-49"/>
       <use transform="translate(55.615234 0.99375)" xlink:href="#ArialMT-48"/>
       <use transform="translate(112.972813 70.6875)scale(0.7)" xlink:href="#ArialMT-8722"/>
       <use transform="translate(153.851719 70.6875)scale(0.7)" xlink:href="#ArialMT-51"/>
      </g>
     </g>
    </g>
    <g id="ytick_3">
     <g id="line2d_21">
      <defs>
       <path d="M 0 0 
L 3.2 0 
" id="m957e1d7d0e" style="stroke:#000000;stroke-width:0.8;"/>
      </defs>
      <g>
       <use style="stroke:#000000;stroke-width:0.8;" x="54" xlink:href="#m957e1d7d0e" y="244.455666"/>
      </g>
     </g>
     <g id="line2d_22">
      <defs>
       <path d="M 0 0 
L -3.2 0 
" id="m6e61756ac3" style="stroke:#000000;stroke-width:0.8;"/>
      </defs>
      <g>
       <use style="stroke:#000000;stroke-width:0.8;" x="388.8" xlink:href="#m6e61756ac3" y="244.455666"/>
      </g>
     </g>
    </g>
    <g id="ytick_4">
     <g id="line2d_23">
      <g>
       <use style="stroke:#000000;stroke-width:0.8;" x="54" xlink:href="#m957e1d7d0e" y="232.123847"/>
      </g>
     </g>
     <g id="line2d_24">
      <g>
       <use style="stroke:#000000;stroke-width:0.8;" x="388.8" xlink:href="#m6e61756ac3" y="232.123847"/>
      </g>
     </g>
    </g>
    <g id="ytick_5">
     <g id="line2d_25">
      <g>
       <use style="stroke:#000000;stroke-width:0.8;" x="54" xlink:href="#m957e1d7d0e" y="222.558544"/>
      </g>
     </g>
     <g id="line2d_26">
      <g>
       <use style="stroke:#000000;stroke-width:0.8;" x="388.8" xlink:href="#m6e61756ac3" y="222.558544"/>
      </g>
     </g>
    </g>
    <g id="ytick_6">
     <g id="line2d_27">
      <g>
       <use style="stroke:#000000;stroke-width:0.8;" x="54" xlink:href="#m957e1d7d0e" y="214.743123"/>
      </g>
     </g>
     <g id="line2d_28">
      <g>
       <use style="stroke:#000000;stroke-width:0.8;" x="388.8" xlink:href="#m6e61756ac3" y="214.743123"/>
      </g>
     </g>
    </g>
    <g id="ytick_7">
     <g id="line2d_29">
      <g>
       <use style="stroke:#000000;stroke-width:0.8;" x="54" xlink:href="#m957e1d7d0e" y="208.135279"/>
      </g>
     </g>
     <g id="line2d_30">
      <g>
       <use style="stroke:#000000;stroke-width:0.8;" x="388.8" xlink:href="#m6e61756ac3" y="208.135279"/>
      </g>
     </g>
    </g>
    <g id="ytick_8">
     <g id="line2d_31">
      <g>
       <use style="stroke:#000000;stroke-width:0.8;" x="54" xlink:href="#m957e1d7d0e" y="202.411303"/>
      </g>
     </g>
     <g id="line2d_32">
      <g>
       <use style="stroke:#000000;stroke-width:0.8;" x="388.8" xlink:href="#m6e61756ac3" y="202.411303"/>
      </g>
     </g>
    </g>
    <g id="ytick_9">
     <g id="line2d_33">
      <g>
       <use style="stroke:#000000;stroke-width:0.8;" x="54" xlink:href="#m957e1d7d0e" y="197.3624"/>
      </g>
     </g>
     <g id="line2d_34">
      <g>
       <use style="stroke:#000000;stroke-width:0.8;" x="388.8" xlink:href="#m6e61756ac3" y="197.3624"/>
      </g>
     </g>
    </g>
    <g id="ytick_10">
     <g id="line2d_35">
      <g>
       <use style="stroke:#000000;stroke-width:0.8;" x="54" xlink:href="#m957e1d7d0e" y="163.133458"/>
      </g>
     </g>
     <g id="line2d_36">
      <g>
       <use style="stroke:#000000;stroke-width:0.8;" x="388.8" xlink:href="#m6e61756ac3" y="163.133458"/>
      </g>
     </g>
    </g>
    <g id="ytick_11">
     <g id="line2d_37">
      <g>
       <use style="stroke:#000000;stroke-width:0.8;" x="54" xlink:href="#m957e1d7d0e" y="145.752735"/>
      </g>
     </g>
     <g id="line2d_38">
      <g>
       <use style="stroke:#000000;stroke-width:0.8;" x="388.8" xlink:href="#m6e61756ac3" y="145.752735"/>
      </g>
     </g>
    </g>
    <g id="ytick_12">
     <g id="line2d_39">
      <g>
       <use style="stroke:#000000;stroke-width:0.8;" x="54" xlink:href="#m957e1d7d0e" y="133.420915"/>
      </g>
     </g>
     <g id="line2d_40">
      <g>
       <use style="stroke:#000000;stroke-width:0.8;" x="388.8" xlink:href="#m6e61756ac3" y="133.420915"/>
      </g>
     </g>
    </g>
    <g id="ytick_13">
     <g id="line2d_41">
      <g>
       <use style="stroke:#000000;stroke-width:0.8;" x="54" xlink:href="#m957e1d7d0e" y="123.855613"/>
      </g>
     </g>
     <g id="line2d_42">
      <g>
       <use style="stroke:#000000;stroke-width:0.8;" x="388.8" xlink:href="#m6e61756ac3" y="123.855613"/>
      </g>
     </g>
    </g>
    <g id="ytick_14">
     <g id="line2d_43">
      <g>
       <use style="stroke:#000000;stroke-width:0.8;" x="54" xlink:href="#m957e1d7d0e" y="116.040191"/>
      </g>
     </g>
     <g id="line2d_44">
      <g>
       <use style="stroke:#000000;stroke-width:0.8;" x="388.8" xlink:href="#m6e61756ac3" y="116.040191"/>
      </g>
     </g>
    </g>
    <g id="ytick_15">
     <g id="line2d_45">
      <g>
       <use style="stroke:#000000;stroke-width:0.8;" x="54" xlink:href="#m957e1d7d0e" y="109.432347"/>
      </g>
     </g>
     <g id="line2d_46">
      <g>
       <use style="stroke:#000000;stroke-width:0.8;" x="388.8" xlink:href="#m6e61756ac3" y="109.432347"/>
      </g>
     </g>
    </g>
    <g id="ytick_16">
     <g id="line2d_47">
      <g>
       <use style="stroke:#000000;stroke-width:0.8;" x="54" xlink:href="#m957e1d7d0e" y="103.708372"/>
      </g>
     </g>
     <g id="line2d_48">
      <g>
       <use style="stroke:#000000;stroke-width:0.8;" x="388.8" xlink:href="#m6e61756ac3" y="103.708372"/>
      </g>
     </g>
    </g>
    <g id="ytick_17">
     <g id="line2d_49">
      <g>
       <use style="stroke:#000000;stroke-width:0.8;" x="54" xlink:href="#m957e1d7d0e" y="98.659468"/>
      </g>
     </g>
     <g id="line2d_50">
      <g>
       <use style="stroke:#000000;stroke-width:0.8;" x="388.8" xlink:href="#m6e61756ac3" y="98.659468"/>
      </g>
     </g>
    </g>
    <g id="ytick_18">
     <g id="line2d_51">
      <g>
       <use style="stroke:#000000;stroke-width:0.8;" x="54" xlink:href="#m957e1d7d0e" y="64.430526"/>
      </g>
     </g>
     <g id="line2d_52">
      <g>
       <use style="stroke:#000000;stroke-width:0.8;" x="388.8" xlink:href="#m6e61756ac3" y="64.430526"/>
      </g>
     </g>
    </g>
    <g id="ytick_19">
     <g id="line2d_53">
      <g>
       <use style="stroke:#000000;stroke-width:0.8;" x="54" xlink:href="#m957e1d7d0e" y="47.049803"/>
      </g>
     </g>
     <g id="line2d_54">
      <g>
       <use style="stroke:#000000;stroke-width:0.8;" x="388.8" xlink:href="#m6e61756ac3" y="47.049803"/>
      </g>
     </g>
    </g>
    <g id="ytick_20">
     <g id="line2d_55">
      <g>
       <use style="stroke:#000000;stroke-width:0.8;" x="54" xlink:href="#m957e1d7d0e" y="34.717983"/>
      </g>
     </g>
     <g id="line2d_56">
      <g>
       <use style="stroke:#000000;stroke-width:0.8;" x="388.8" xlink:href="#m6e61756ac3" y="34.717983"/>
      </g>
     </g>
    </g>
    <g id="text_12">
     <!-- IGD -->
     <defs>
      <path d="M 9.328125 0 
L 9.328125 71.578125 
L 18.796875 71.578125 
L 18.796875 0 
z
" id="ArialMT-73"/>
      <path d="M 7.71875 0 
L 7.71875 71.578125 
L 32.375 71.578125 
Q 40.71875 71.578125 45.125 70.5625 
Q 51.265625 69.140625 55.609375 65.4375 
Q 61.28125 60.640625 64.078125 53.1875 
Q 66.890625 45.75 66.890625 36.1875 
Q 66.890625 28.03125 64.984375 21.734375 
Q 63.09375 15.4375 60.109375 11.296875 
Q 57.125 7.171875 53.578125 4.796875 
Q 50.046875 2.4375 45.046875 1.21875 
Q 40.046875 0 33.546875 0 
z
M 17.1875 8.453125 
L 32.46875 8.453125 
Q 39.546875 8.453125 43.578125 9.765625 
Q 47.609375 11.078125 50 13.484375 
Q 53.375 16.84375 55.25 22.53125 
Q 57.125 28.21875 57.125 36.328125 
Q 57.125 47.5625 53.4375 53.59375 
Q 49.75 59.625 44.484375 61.671875 
Q 40.671875 63.140625 32.234375 63.140625 
L 17.1875 63.140625 
z
" id="ArialMT-68"/>
     </defs>
     <g transform="translate(23.3016 155.6802)rotate(-90)scale(0.1152 -0.1152)">
      <use xlink:href="#ArialMT-73"/>
      <use x="27.783203" xlink:href="#ArialMT-71"/>
      <use x="105.566406" xlink:href="#ArialMT-68"/>
     </g>
    </g>
   </g>
   <g id="line2d_57">
    <path clip-path="url(#p126f25ae41)" d="M 69.218182 45.484155 
L 69.421091 60.349094 
L 69.624 60.849916 
L 69.826909 60.990967 
L 70.029818 97.856464 
L 70.232727 87.568585 
L 70.435636 103.902335 
L 70.638545 103.948186 
L 70.841455 103.168513 
L 71.044364 102.891125 
L 71.450182 107.766754 
L 71.653091 108.782325 
L 71.856 111.705897 
L 72.870545 116.29952 
L 73.073455 115.816397 
L 73.479273 116.462532 
L 73.682182 116.824142 
L 73.885091 119.114575 
L 74.088 117.244285 
L 74.290909 117.829878 
L 74.493818 121.59004 
L 74.696727 122.808112 
L 74.899636 123.00384 
L 75.508364 124.521662 
L 75.914182 124.642418 
L 76.32 127.095136 
L 76.522909 115.645528 
L 76.725818 114.110196 
L 76.928727 114.263671 
L 77.334545 116.02088 
L 77.740364 116.657625 
L 78.146182 116.908376 
L 78.349091 117.34761 
L 78.552 146.913787 
L 78.754909 148.645957 
L 79.160727 117.218285 
L 79.363636 111.433604 
L 79.769455 112.916834 
L 79.972364 118.566414 
L 80.175273 119.045691 
L 80.986909 119.707516 
L 81.189818 119.629009 
L 81.392727 122.746612 
L 81.595636 123.504058 
L 81.798545 123.510583 
L 82.001455 123.684745 
L 82.204364 132.432775 
L 82.407273 132.784099 
L 82.610182 132.831199 
L 82.813091 141.728988 
L 83.016 141.787695 
L 83.827636 142.499809 
L 84.639273 142.370961 
L 84.842182 142.652251 
L 85.248 142.895548 
L 85.653818 143.273954 
L 85.856727 143.627383 
L 86.262545 143.770168 
L 86.465455 143.896119 
L 86.668364 144.262672 
L 86.871273 145.309599 
L 87.48 145.350139 
L 87.682909 145.63929 
L 88.494545 145.833399 
L 88.697455 165.609437 
L 88.900364 163.847631 
L 89.103273 164.006727 
L 89.509091 164.608361 
L 89.712 164.813439 
L 89.914909 167.608747 
L 90.117818 147.027266 
L 90.320727 140.236516 
L 90.523636 142.237228 
L 90.726545 142.868972 
L 91.132364 144.615356 
L 91.335273 146.769833 
L 91.538182 147.085862 
L 91.741091 147.130976 
L 92.146909 147.481757 
L 92.552727 148.192992 
L 92.958545 148.522268 
L 93.161455 149.921473 
L 93.364364 150.007208 
L 93.567273 148.927492 
L 93.973091 149.042443 
L 94.581818 149.597181 
L 94.784727 149.534508 
L 95.596364 149.899344 
L 96.002182 150.282272 
L 96.205091 150.277047 
L 96.408 173.019313 
L 96.610909 170.845988 
L 96.813818 170.780824 
L 97.219636 173.264627 
L 97.422545 173.707451 
L 97.625455 173.166497 
L 98.031273 174.057159 
L 98.437091 176.832544 
L 98.64 176.700761 
L 98.842909 177.340338 
L 99.248727 177.246327 
L 99.451636 186.526411 
L 99.654545 186.599054 
L 99.857455 187.708332 
L 100.060364 187.755269 
L 100.263273 187.932409 
L 100.466182 188.585238 
L 100.669091 188.307933 
L 100.872 188.376515 
L 101.074909 189.134946 
L 101.277818 189.345768 
L 101.480727 189.38844 
L 101.683636 189.313833 
L 102.292364 189.828673 
L 102.495273 199.640663 
L 102.698182 198.425704 
L 102.901091 199.750664 
L 103.104 199.645725 
L 103.306909 201.142184 
L 103.509818 201.201233 
L 103.915636 201.541849 
L 104.930182 203.246422 
L 105.133091 203.247682 
L 105.336 203.018566 
L 105.741818 203.089832 
L 105.944727 203.31376 
L 106.350545 203.500648 
L 106.553455 208.83493 
L 106.756364 206.490929 
L 106.959273 206.615101 
L 107.162182 206.418011 
L 107.365091 209.18631 
L 107.568 209.034796 
L 107.770909 209.084319 
L 107.973818 208.497392 
L 108.176727 208.815548 
L 108.379636 209.644185 
L 108.582545 211.720889 
L 108.988364 211.838924 
L 109.191273 210.961729 
L 109.394182 210.599509 
L 109.597091 210.688146 
L 109.8 209.820855 
L 110.002909 209.514913 
L 110.205818 209.908116 
L 110.408727 209.895525 
L 110.611636 210.000536 
L 110.814545 209.422562 
L 111.017455 209.675229 
L 111.220364 209.74619 
L 112.032 210.793198 
L 112.234909 210.767549 
L 112.437818 211.18371 
L 113.452364 211.493136 
L 113.655273 211.149341 
L 114.061091 211.230165 
L 114.264 211.802145 
L 114.466909 211.64187 
L 114.872727 180.154668 
L 115.075636 180.565621 
L 115.481455 184.78297 
L 115.684364 185.1003 
L 115.887273 189.351419 
L 116.090182 190.408932 
L 116.293091 190.09337 
L 116.698909 191.991213 
L 116.901818 193.988242 
L 117.307636 194.794684 
L 117.713455 195.351958 
L 117.916364 194.674848 
L 118.119273 194.695217 
L 118.525091 195.936428 
L 119.133818 196.126602 
L 119.539636 196.15686 
L 119.742545 196.119697 
L 119.945455 196.421081 
L 121.162909 196.7331 
L 121.365818 196.433059 
L 121.568727 196.368648 
L 121.771636 201.184263 
L 121.974545 200.204925 
L 122.177455 200.732072 
L 122.380364 200.601127 
L 122.583273 200.830419 
L 122.786182 201.435505 
L 122.989091 202.716089 
L 123.597818 203.694432 
L 123.800727 203.411919 
L 124.003636 205.069534 
L 124.206545 205.100537 
L 124.409455 206.217367 
L 124.815273 206.479375 
L 125.018182 206.59672 
L 125.221091 222.454018 
L 125.424 217.037487 
L 125.626909 217.439855 
L 126.032727 218.536519 
L 126.235636 218.332701 
L 126.438545 218.370155 
L 126.641455 220.602092 
L 127.047273 181.841958 
L 127.250182 178.94615 
L 127.453091 181.285889 
L 127.656 181.540807 
L 127.858909 183.305834 
L 128.061818 190.245315 
L 128.264727 190.948295 
L 128.467636 193.194041 
L 128.670545 193.909754 
L 128.873455 193.898238 
L 129.076364 195.406191 
L 129.279273 195.63253 
L 129.482182 195.560369 
L 129.685091 196.107332 
L 129.888 197.986523 
L 130.090909 196.754437 
L 130.293818 197.213574 
L 130.496727 197.294486 
L 130.699636 199.361309 
L 131.511273 200.351547 
L 131.714182 200.311168 
L 132.12 201.19769 
L 132.322909 201.392727 
L 132.525818 200.538003 
L 133.134545 200.695792 
L 133.540364 200.790003 
L 133.743273 200.791349 
L 133.946182 201.133523 
L 134.149091 201.161938 
L 134.352 201.548429 
L 134.757818 201.435413 
L 134.960727 201.869832 
L 135.163636 201.434447 
L 135.366545 201.941121 
L 135.772364 199.5558 
L 135.975273 200.253406 
L 136.989818 200.310383 
L 137.192727 200.561675 
L 137.395636 200.996396 
L 137.801455 200.996125 
L 138.004364 206.631723 
L 138.410182 205.341147 
L 138.613091 205.198421 
L 138.816 205.516726 
L 139.627636 205.109748 
L 139.830545 206.180291 
L 140.033455 214.410288 
L 140.236364 210.057148 
L 140.439273 210.895735 
L 140.642182 210.887787 
L 141.859636 213.465019 
L 142.062545 214.193485 
L 142.265455 214.304266 
L 142.468364 214.779854 
L 142.671273 214.869324 
L 142.874182 217.850365 
L 143.077091 217.295014 
L 143.482909 217.889262 
L 144.294545 218.595068 
L 144.497455 218.493525 
L 145.106182 218.828842 
L 145.309091 219.137945 
L 145.917818 220.679431 
L 146.120727 220.828508 
L 146.526545 219.938053 
L 146.729455 219.996402 
L 146.932364 220.456992 
L 147.135273 220.503633 
L 147.338182 220.864129 
L 147.744 220.858027 
L 147.946909 221.147238 
L 148.555636 221.170991 
L 148.758545 222.064758 
L 149.367273 222.085909 
L 149.570182 221.942452 
L 152.208 222.102135 
L 152.410909 222.562923 
L 152.613818 222.731874 
L 152.816727 222.732181 
L 153.019636 225.470026 
L 153.222545 225.357609 
L 153.425455 224.794124 
L 154.44 224.613061 
L 154.642909 224.483427 
L 154.845818 224.628107 
L 155.048727 225.203378 
L 155.251636 225.15852 
L 155.454545 225.230544 
L 155.657455 225.501762 
L 155.860364 225.425806 
L 156.063273 225.511925 
L 156.266182 225.323466 
L 156.469091 225.877811 
L 156.672 225.305226 
L 156.874909 225.521516 
L 157.077818 225.562288 
L 157.280727 233.207724 
L 157.483636 217.542953 
L 157.889455 218.804508 
L 158.092364 217.666794 
L 158.295273 221.800932 
L 159.106909 223.758328 
L 159.309818 224.011394 
L 159.512727 224.605805 
L 159.715636 225.591721 
L 160.324364 226.420306 
L 160.527273 228.363486 
L 160.730182 228.93326 
L 160.933091 228.956566 
L 161.136 228.350738 
L 161.541818 228.44269 
L 161.744727 228.588973 
L 162.353455 228.698678 
L 162.556364 229.093005 
L 162.759273 235.122844 
L 162.962182 235.577137 
L 163.368 238.328036 
L 163.570909 238.338803 
L 163.773818 238.834487 
L 164.382545 239.068562 
L 164.585455 239.103461 
L 164.788364 239.4541 
L 165.194182 239.558483 
L 165.802909 239.815372 
L 167.020364 240.125541 
L 167.223273 240.479395 
L 167.832 240.791005 
L 168.440727 241.243993 
L 168.643636 241.130018 
L 168.846545 239.836314 
L 169.455273 239.913268 
L 169.658182 240.572725 
L 169.861091 232.046457 
L 170.064 231.853995 
L 170.266909 232.640896 
L 170.469818 234.308656 
L 170.672727 234.466826 
L 171.078545 238.452269 
L 171.281455 238.487584 
L 171.890182 240.348952 
L 172.093091 240.265317 
L 172.296 236.332301 
L 172.498909 237.126676 
L 172.701818 236.752215 
L 172.904727 236.839041 
L 173.107636 235.989537 
L 173.716364 238.640032 
L 174.122182 239.055155 
L 174.325091 239.000477 
L 174.528 239.58311 
L 174.730909 239.774527 
L 174.933818 239.666278 
L 175.136727 240.01251 
L 175.339636 241.038564 
L 175.948364 241.057084 
L 176.354182 241.631401 
L 176.557091 241.584715 
L 176.76 241.231745 
L 177.368727 241.326265 
L 177.571636 241.661988 
L 178.180364 241.727028 
L 178.383273 242.142565 
L 178.992 242.298665 
L 179.194909 242.692401 
L 179.397818 243.655601 
L 179.600727 243.832458 
L 179.803636 242.480518 
L 180.209455 242.588921 
L 180.412364 241.837182 
L 180.615273 241.91694 
L 180.818182 242.474202 
L 181.426909 242.759311 
L 181.629818 243.800859 
L 181.832727 243.675742 
L 182.238545 243.834523 
L 182.441455 243.496458 
L 182.644364 243.776819 
L 182.847273 243.788992 
L 183.050182 243.416155 
L 183.253091 243.70677 
L 183.456 243.774281 
L 183.658909 244.944141 
L 373.581818 244.944141 
L 373.581818 244.944141 
" style="fill:none;stroke:#023eff;stroke-linecap:round;stroke-width:1.2;"/>
    <defs>
     <path d="M 0 2.4 
C 0.636487 2.4 1.246992 2.147121 1.697056 1.697056 
C 2.147121 1.246992 2.4 0.636487 2.4 0 
C 2.4 -0.636487 2.147121 -1.246992 1.697056 -1.697056 
C 1.246992 -2.147121 0.636487 -2.4 0 -2.4 
C -0.636487 -2.4 -1.246992 -2.147121 -1.697056 -1.697056 
C -2.147121 -1.246992 -2.4 -0.636487 -2.4 0 
C -2.4 0.636487 -2.147121 1.246992 -1.697056 1.697056 
C -1.246992 2.147121 -0.636487 2.4 0 2.4 
z
" id="m4cd1fe7769" style="stroke:#023eff;"/>
    </defs>
    <g clip-path="url(#p126f25ae41)">
     <use style="fill-opacity:0;stroke:#023eff;" x="69.218182" xlink:href="#m4cd1fe7769" y="45.484155"/>
     <use style="fill-opacity:0;stroke:#023eff;" x="109.8" xlink:href="#m4cd1fe7769" y="209.820855"/>
     <use style="fill-opacity:0;stroke:#023eff;" x="150.381818" xlink:href="#m4cd1fe7769" y="222.013234"/>
     <use style="fill-opacity:0;stroke:#023eff;" x="190.963636" xlink:href="#m4cd1fe7769" y="244.944141"/>
     <use style="fill-opacity:0;stroke:#023eff;" x="231.545455" xlink:href="#m4cd1fe7769" y="244.944141"/>
     <use style="fill-opacity:0;stroke:#023eff;" x="272.127273" xlink:href="#m4cd1fe7769" y="244.944141"/>
     <use style="fill-opacity:0;stroke:#023eff;" x="312.709091" xlink:href="#m4cd1fe7769" y="244.944141"/>
     <use style="fill-opacity:0;stroke:#023eff;" x="353.290909" xlink:href="#m4cd1fe7769" y="244.944141"/>
    </g>
   </g>
   <g id="line2d_58">
    <path clip-path="url(#p126f25ae41)" d="M 69.218182 46.418875 
L 69.421091 47.85826 
L 69.624 54.070703 
L 70.232727 60.584119 
L 70.435636 71.230272 
L 70.638545 72.547259 
L 71.044364 85.795764 
L 71.247273 86.859633 
L 71.450182 94.607445 
L 71.653091 98.073726 
L 71.856 106.941192 
L 72.058909 109.547205 
L 72.261818 117.522217 
L 72.464727 118.837844 
L 72.667636 118.532048 
L 72.870545 118.447624 
L 73.073455 128.346028 
L 74.493818 154.861957 
L 74.899636 157.232192 
L 75.305455 162.281583 
L 76.117091 166.279715 
L 76.32 163.968982 
L 76.522909 163.443168 
L 76.928727 166.12144 
L 77.131636 167.082457 
L 77.740364 178.620649 
L 78.552 184.917925 
L 78.957818 187.17734 
L 79.160727 186.59359 
L 79.363636 186.806855 
L 79.769455 189.128153 
L 80.175273 190.135382 
L 80.378182 190.56456 
L 80.581091 189.272253 
L 80.784 190.267368 
L 81.189818 193.285002 
L 81.392727 194.2322 
L 81.595636 194.640186 
L 81.798545 194.004451 
L 82.001455 194.370785 
L 82.610182 196.292721 
L 83.218909 197.097506 
L 83.421818 201.749385 
L 83.624727 200.685452 
L 83.827636 202.594745 
L 84.030545 202.258839 
L 84.436364 203.832072 
L 84.639273 197.463098 
L 84.842182 195.355644 
L 85.045091 196.135132 
L 85.248 201.683423 
L 85.450909 201.611315 
L 85.856727 204.056856 
L 86.059636 204.645455 
L 86.262545 205.795131 
L 86.465455 205.524351 
L 86.871273 207.063236 
L 87.074182 207.091889 
L 87.48 207.690173 
L 87.885818 208.160934 
L 88.291636 197.029524 
L 88.900364 200.648062 
L 89.306182 201.83064 
L 89.712 202.781108 
L 90.929455 203.731647 
L 91.132364 205.05267 
L 91.538182 205.219735 
L 92.146909 205.125101 
L 92.349818 205.113063 
L 92.552727 205.218972 
L 92.755636 205.152886 
L 92.958545 209.903419 
L 93.161455 209.388137 
L 93.567273 209.093742 
L 93.770182 209.388365 
L 93.973091 209.311387 
L 95.190545 210.571612 
L 95.596364 210.83432 
L 95.799273 209.052348 
L 96.002182 208.988933 
L 96.205091 209.452584 
L 96.813818 209.662898 
L 97.016727 210.952648 
L 97.219636 191.70072 
L 97.422545 183.392584 
L 97.625455 195.96517 
L 97.828364 197.852248 
L 98.031273 198.681565 
L 98.437091 201.38707 
L 98.64 204.125377 
L 98.842909 203.973305 
L 99.248727 202.51949 
L 99.654545 205.416399 
L 99.857455 206.33132 
L 100.060364 206.537889 
L 100.263273 206.272109 
L 100.466182 212.333201 
L 100.872 210.863556 
L 101.277818 212.537027 
L 101.683636 213.234609 
L 101.886545 213.214142 
L 102.089455 213.566928 
L 102.698182 213.909311 
L 102.901091 215.756356 
L 103.306909 214.026093 
L 103.509818 214.897762 
L 103.712727 214.96467 
L 103.915636 214.39378 
L 104.321455 215.359049 
L 104.727273 197.487688 
L 104.930182 211.026324 
L 105.133091 208.664459 
L 105.336 212.420873 
L 105.538909 213.970771 
L 105.741818 213.959015 
L 106.147636 215.641901 
L 106.553455 216.057046 
L 106.756364 215.897494 
L 107.770909 216.516107 
L 108.379636 216.734695 
L 108.785455 216.900646 
L 109.8 217.002974 
L 112.032 217.534145 
L 112.437818 217.466672 
L 113.249455 217.583347 
L 113.452364 219.782801 
L 113.858182 219.757628 
L 114.061091 219.602484 
L 114.264 219.743663 
L 114.872727 219.73189 
L 115.481455 219.921584 
L 116.496 220.021614 
L 119.336727 220.189026 
L 120.351273 220.259226 
L 124.409455 220.60204 
L 129.482182 220.844155 
L 129.685091 227.35327 
L 129.888 225.456391 
L 130.090909 225.130777 
L 131.105455 225.666009 
L 131.308364 230.040985 
L 131.714182 226.343685 
L 132.322909 229.92417 
L 132.728727 230.258035 
L 132.931636 229.494183 
L 133.134545 229.611273 
L 133.337455 229.567878 
L 133.540364 231.82151 
L 133.743273 231.881517 
L 133.946182 231.642037 
L 134.149091 231.635182 
L 134.352 234.080833 
L 134.554909 234.413805 
L 134.757818 234.29959 
L 135.569455 234.612725 
L 135.772364 234.824189 
L 136.584 234.994983 
L 136.786909 228.560299 
L 136.989818 218.23452 
L 137.192727 223.803597 
L 137.395636 223.556968 
L 137.598545 222.781909 
L 137.801455 225.439358 
L 138.004364 225.190436 
L 138.207273 225.43214 
L 138.410182 226.830131 
L 138.816 227.666024 
L 139.424727 227.847101 
L 139.627636 227.25839 
L 139.830545 227.376053 
L 140.033455 228.712008 
L 140.236364 228.816101 
L 140.439273 228.763076 
L 140.642182 230.135847 
L 140.845091 229.895471 
L 141.250909 230.054877 
L 142.265455 230.186372 
L 142.874182 230.181864 
L 143.28 216.393733 
L 143.482909 219.024017 
L 143.685818 219.899856 
L 143.888727 222.229899 
L 144.091636 221.755411 
L 144.294545 222.055928 
L 144.497455 222.8092 
L 144.700364 222.793411 
L 144.903273 223.653218 
L 145.106182 223.864273 
L 145.512 223.793054 
L 145.917818 223.950435 
L 146.120727 226.77881 
L 146.323636 226.559259 
L 146.729455 226.972697 
L 146.932364 226.953282 
L 147.338182 227.097586 
L 147.744 226.916891 
L 147.946909 226.882832 
L 148.149818 227.027154 
L 148.352727 226.915165 
L 149.164364 227.329323 
L 152.005091 227.650857 
L 152.410909 225.205861 
L 152.613818 224.845126 
L 152.816727 223.751023 
L 153.019636 223.714421 
L 153.425455 224.53836 
L 154.237091 224.578263 
L 154.44 224.992859 
L 154.642909 225.017226 
L 154.845818 233.797933 
L 155.048727 228.001326 
L 155.251636 228.117255 
L 155.454545 232.78366 
L 155.657455 232.9378 
L 155.860364 233.700677 
L 156.063273 235.334279 
L 156.469091 236.037239 
L 156.672 240.042674 
L 156.874909 233.147799 
L 157.077818 234.297006 
L 157.280727 233.652128 
L 157.483636 235.208648 
L 157.686545 235.292838 
L 157.889455 239.030685 
L 158.092364 239.514178 
L 158.295273 239.612543 
L 158.498182 239.414399 
L 158.904 239.693562 
L 159.106909 235.993244 
L 159.309818 214.963639 
L 159.715636 222.39541 
L 159.918545 224.796281 
L 160.121455 225.593398 
L 160.527273 233.208331 
L 160.730182 234.136955 
L 160.933091 234.08508 
L 161.136 234.719817 
L 161.338909 235.823946 
L 161.541818 235.836776 
L 161.744727 235.648621 
L 161.947636 235.28815 
L 162.150545 223.73626 
L 162.353455 225.626376 
L 162.962182 233.634723 
L 163.165091 234.09886 
L 163.368 239.360347 
L 163.976727 241.190655 
L 164.179636 241.281771 
L 164.585455 241.696289 
L 165.194182 241.706219 
L 165.397091 241.7545 
L 165.802909 242.092844 
L 166.005818 243.765723 
L 166.817455 244.104647 
L 167.020364 244.104647 
L 167.426182 244.350156 
L 167.629091 244.328776 
L 167.832 243.319769 
L 168.034909 243.312611 
L 168.237818 243.668288 
L 168.643636 243.716121 
L 168.846545 244.002381 
L 169.455273 244.221993 
L 169.861091 244.508019 
L 170.469818 244.492657 
L 170.672727 244.258386 
L 170.875636 245.102402 
L 171.281455 245.168788 
L 172.296 245.20179 
L 173.107636 245.670361 
L 173.716364 245.649154 
L 175.948364 245.767051 
L 183.861818 246.189923 
L 373.581818 246.189923 
L 373.581818 246.189923 
" style="fill:none;stroke:#1ac938;stroke-linecap:round;stroke-width:1.2;"/>
    <defs>
     <path d="M -0 2.4 
L 2.4 -2.4 
L -2.4 -2.4 
z
" id="madd077e1bb" style="stroke:#1ac938;stroke-linejoin:miter;"/>
    </defs>
    <g clip-path="url(#p126f25ae41)">
     <use style="fill-opacity:0;stroke:#1ac938;stroke-linejoin:miter;" x="69.218182" xlink:href="#madd077e1bb" y="46.418875"/>
     <use style="fill-opacity:0;stroke:#1ac938;stroke-linejoin:miter;" x="109.8" xlink:href="#madd077e1bb" y="217.002974"/>
     <use style="fill-opacity:0;stroke:#1ac938;stroke-linejoin:miter;" x="150.381818" xlink:href="#madd077e1bb" y="227.402241"/>
     <use style="fill-opacity:0;stroke:#1ac938;stroke-linejoin:miter;" x="190.963636" xlink:href="#madd077e1bb" y="246.189923"/>
     <use style="fill-opacity:0;stroke:#1ac938;stroke-linejoin:miter;" x="231.545455" xlink:href="#madd077e1bb" y="246.189923"/>
     <use style="fill-opacity:0;stroke:#1ac938;stroke-linejoin:miter;" x="272.127273" xlink:href="#madd077e1bb" y="246.189923"/>
     <use style="fill-opacity:0;stroke:#1ac938;stroke-linejoin:miter;" x="312.709091" xlink:href="#madd077e1bb" y="246.189923"/>
     <use style="fill-opacity:0;stroke:#1ac938;stroke-linejoin:miter;" x="353.290909" xlink:href="#madd077e1bb" y="246.189923"/>
    </g>
   </g>
   <g id="line2d_59">
    <path clip-path="url(#p126f25ae41)" d="M 69.218182 45.705306 
L 69.624 50.926819 
L 69.826909 63.731618 
L 70.029818 64.801425 
L 70.841455 89.062182 
L 71.044364 93.973921 
L 71.247273 96.002149 
L 71.450182 99.150121 
L 71.653091 104.085334 
L 71.856 105.008045 
L 72.058909 105.043555 
L 72.261818 103.56648 
L 72.464727 105.590394 
L 72.667636 111.249586 
L 72.870545 112.651715 
L 73.073455 113.277664 
L 73.276364 118.463025 
L 73.479273 120.530792 
L 73.682182 127.179571 
L 73.885091 144.185826 
L 74.290909 150.435041 
L 74.493818 149.085351 
L 74.696727 145.674776 
L 74.899636 146.347635 
L 75.102545 146.630085 
L 75.508364 154.840142 
L 75.914182 162.008776 
L 76.32 167.446158 
L 77.537455 179.795857 
L 78.349091 184.20098 
L 78.754909 186.992557 
L 79.769455 192.39411 
L 79.972364 193.467097 
L 80.175273 193.49771 
L 80.784 187.035389 
L 81.189818 188.48115 
L 81.392727 191.400636 
L 81.595636 192.134021 
L 81.798545 192.43901 
L 82.204364 194.232564 
L 82.407273 195.085933 
L 82.610182 205.979014 
L 82.813091 201.448925 
L 83.421818 206.228747 
L 84.030545 208.964387 
L 84.233455 209.284108 
L 84.436364 206.80571 
L 84.639273 206.730739 
L 84.842182 206.013141 
L 85.248 207.178758 
L 85.450909 215.214204 
L 85.653818 214.085299 
L 85.856727 210.673357 
L 86.059636 211.007893 
L 86.262545 211.706771 
L 86.465455 211.733443 
L 86.668364 211.944982 
L 86.871273 212.644262 
L 87.48 213.33772 
L 87.682909 213.137017 
L 87.885818 219.423644 
L 88.088727 219.133042 
L 88.291636 217.720831 
L 88.494545 222.181782 
L 88.900364 224.520054 
L 89.103273 223.876504 
L 89.306182 226.146897 
L 89.509091 226.622558 
L 89.914909 201.053129 
L 90.117818 203.150274 
L 90.320727 207.44068 
L 91.132364 212.755555 
L 91.538182 214.027102 
L 91.741091 214.270004 
L 91.944 214.730413 
L 92.146909 217.896883 
L 92.552727 219.425338 
L 92.755636 219.532721 
L 93.161455 220.230039 
L 93.567273 220.411738 
L 93.770182 219.573352 
L 93.973091 220.690981 
L 94.176 221.078459 
L 94.987636 221.666012 
L 95.190545 221.850927 
L 95.393455 221.540616 
L 95.596364 220.827627 
L 95.799273 221.975336 
L 96.002182 222.013569 
L 96.408 222.421916 
L 97.625455 222.760016 
L 97.828364 222.773158 
L 98.234182 219.939459 
L 98.64 220.017727 
L 98.842909 220.843864 
L 99.045818 220.935637 
L 99.248727 221.246301 
L 99.857455 221.4459 
L 100.060364 221.630002 
L 100.263273 225.866447 
L 100.466182 225.283461 
L 100.872 225.239674 
L 101.886545 225.575942 
L 102.292364 225.501991 
L 102.698182 225.526005 
L 103.104 225.865186 
L 103.509818 225.997768 
L 103.712727 227.541346 
L 103.915636 227.300162 
L 104.321455 227.30103 
L 104.524364 228.140424 
L 105.133091 228.289002 
L 105.336 228.723847 
L 105.538909 228.703897 
L 105.741818 228.801427 
L 106.147636 229.251581 
L 106.553455 229.436636 
L 106.756364 229.395944 
L 106.959273 228.691445 
L 107.162182 228.575108 
L 107.568 228.7385 
L 107.770909 228.696431 
L 107.973818 233.817008 
L 108.176727 230.440684 
L 108.379636 229.342724 
L 108.582545 229.110932 
L 108.785455 229.048124 
L 108.988364 232.00347 
L 109.191273 232.242742 
L 109.394182 232.722517 
L 109.597091 234.763778 
L 109.8 235.587051 
L 110.002909 235.049984 
L 110.205818 235.451296 
L 110.408727 234.192395 
L 110.611636 234.3006 
L 111.017455 237.469174 
L 111.829091 237.755235 
L 112.032 238.225297 
L 112.234909 238.290419 
L 112.437818 238.681298 
L 112.843636 238.887777 
L 114.061091 239.077665 
L 114.466909 239.236387 
L 115.278545 236.536739 
L 115.684364 236.647731 
L 115.887273 236.676908 
L 116.090182 237.446302 
L 116.496 237.367377 
L 116.698909 235.731544 
L 117.307636 235.846427 
L 117.510545 236.175113 
L 117.713455 236.217877 
L 117.916364 235.987753 
L 118.119273 236.32901 
L 118.322182 236.918618 
L 118.930909 236.939044 
L 119.133818 232.145071 
L 119.539636 209.867246 
L 119.742545 221.977793 
L 119.945455 225.651845 
L 120.148364 225.912242 
L 120.351273 225.99184 
L 120.554182 228.470692 
L 120.757091 228.675874 
L 120.96 228.327697 
L 121.162909 229.951886 
L 121.974545 231.5377 
L 122.177455 231.777973 
L 122.583273 231.863968 
L 122.989091 232.096732 
L 123.394909 232.682708 
L 124.612364 232.897512 
L 125.829818 233.144494 
L 126.032727 233.189162 
L 126.438545 233.105442 
L 126.641455 233.097644 
L 126.844364 232.914548 
L 127.656 233.008873 
L 127.858909 233.147321 
L 128.061818 233.1449 
L 128.264727 234.0457 
L 128.670545 234.156938 
L 129.279273 234.203222 
L 129.482182 234.329419 
L 129.888 234.298079 
L 130.090909 239.056597 
L 130.496727 234.170112 
L 130.699636 234.398005 
L 130.902545 234.370411 
L 131.105455 234.460852 
L 131.308364 234.282141 
L 131.511273 236.472963 
L 131.714182 237.327703 
L 131.917091 237.195636 
L 133.337455 238.127668 
L 133.540364 238.160806 
L 133.743273 239.000421 
L 133.946182 234.046343 
L 134.149091 233.104279 
L 134.352 237.033839 
L 134.757818 238.286512 
L 135.163636 238.478312 
L 135.569455 238.919359 
L 135.975273 238.634395 
L 136.381091 242.003933 
L 136.584 242.366554 
L 136.989818 242.393553 
L 137.192727 241.516926 
L 137.801455 241.655293 
L 138.004364 242.18386 
L 139.221818 242.402383 
L 139.424727 242.192078 
L 140.033455 242.579832 
L 141.250909 242.547951 
L 141.453818 244.119487 
L 141.859636 244.212284 
L 142.062545 245.173694 
L 144.903273 245.300784 
L 145.106182 245.111966 
L 146.323636 245.283701 
L 146.526545 245.284533 
L 146.932364 245.15883 
L 147.338182 245.191547 
L 148.149818 245.487473 
L 148.555636 245.535675 
L 149.164364 245.675486 
L 151.802182 245.798953 
L 152.208 245.832369 
L 152.613818 245.716397 
L 154.642909 245.761549 
L 155.048727 245.85789 
L 155.251636 245.698687 
L 156.063273 245.682658 
L 156.469091 245.598438 
L 156.874909 245.704128 
L 158.701091 245.735866 
L 160.527273 245.856764 
L 160.933091 245.966125 
L 177.774545 245.991062 
L 373.581818 245.991062 
L 373.581818 245.991062 
" style="fill:none;stroke:#e8000b;stroke-linecap:round;stroke-width:1.2;"/>
    <defs>
     <path d="M 0 -2.4 
L -2.4 2.4 
L 2.4 2.4 
z
" id="m71389836ba" style="stroke:#e8000b;stroke-linejoin:miter;"/>
    </defs>
    <g clip-path="url(#p126f25ae41)">
     <use style="fill-opacity:0;stroke:#e8000b;stroke-linejoin:miter;" x="69.218182" xlink:href="#m71389836ba" y="45.705306"/>
     <use style="fill-opacity:0;stroke:#e8000b;stroke-linejoin:miter;" x="109.8" xlink:href="#m71389836ba" y="235.587051"/>
     <use style="fill-opacity:0;stroke:#e8000b;stroke-linejoin:miter;" x="150.381818" xlink:href="#m71389836ba" y="245.700355"/>
     <use style="fill-opacity:0;stroke:#e8000b;stroke-linejoin:miter;" x="190.963636" xlink:href="#m71389836ba" y="245.991062"/>
     <use style="fill-opacity:0;stroke:#e8000b;stroke-linejoin:miter;" x="231.545455" xlink:href="#m71389836ba" y="245.991062"/>
     <use style="fill-opacity:0;stroke:#e8000b;stroke-linejoin:miter;" x="272.127273" xlink:href="#m71389836ba" y="245.991062"/>
     <use style="fill-opacity:0;stroke:#e8000b;stroke-linejoin:miter;" x="312.709091" xlink:href="#m71389836ba" y="245.991062"/>
     <use style="fill-opacity:0;stroke:#e8000b;stroke-linejoin:miter;" x="353.290909" xlink:href="#m71389836ba" y="245.991062"/>
    </g>
   </g>
   <g id="line2d_60">
    <path clip-path="url(#p126f25ae41)" d="M 69.218182 44.64 
L 69.421091 47.549277 
L 69.624 53.125774 
L 69.826909 55.106615 
L 70.029818 55.303954 
L 70.435636 57.563856 
L 70.638545 56.898043 
L 70.841455 62.37129 
L 71.044364 60.794554 
L 71.247273 61.439437 
L 71.450182 61.704729 
L 71.856 68.586708 
L 72.058909 73.698906 
L 72.261818 75.935591 
L 72.464727 76.604488 
L 72.870545 80.637149 
L 73.073455 87.458886 
L 73.276364 87.600599 
L 73.479273 87.464048 
L 73.682182 87.710207 
L 73.885091 91.415999 
L 74.088 92.800216 
L 74.290909 92.558977 
L 74.493818 92.704109 
L 74.899636 105.386836 
L 75.305455 104.097271 
L 75.508364 105.996352 
L 75.711273 106.229721 
L 75.914182 105.99106 
L 76.117091 109.244838 
L 76.32 109.546768 
L 76.928727 111.096889 
L 77.334545 113.403046 
L 77.537455 113.20752 
L 77.943273 114.311221 
L 78.349091 113.161022 
L 79.160727 115.591565 
L 79.363636 118.592439 
L 79.769455 129.099435 
L 79.972364 129.937478 
L 80.175273 133.038011 
L 80.581091 135.273681 
L 80.986909 138.938888 
L 81.189818 138.47439 
L 81.392727 138.43002 
L 81.595636 138.763649 
L 81.798545 142.061874 
L 82.001455 142.729414 
L 82.204364 143.802189 
L 82.407273 148.179086 
L 82.610182 148.965698 
L 82.813091 149.235527 
L 83.016 152.088113 
L 83.218909 157.468978 
L 83.624727 160.056758 
L 84.436364 171.112533 
L 84.639273 168.764613 
L 85.248 180.784773 
L 85.450909 184.515253 
L 85.653818 184.556856 
L 86.262545 196.225932 
L 86.465455 197.4085 
L 86.668364 199.248403 
L 86.871273 199.984845 
L 87.48 204.99304 
L 87.682909 205.001826 
L 88.291636 212.847654 
L 88.900364 214.160265 
L 89.103273 214.252309 
L 89.306182 217.15534 
L 89.509091 217.001648 
L 89.712 217.432483 
L 89.914909 217.169421 
L 90.117818 217.277539 
L 90.523636 218.945108 
L 90.726545 219.22184 
L 90.929455 219.16538 
L 91.132364 216.801608 
L 91.335273 217.105928 
L 91.538182 217.057941 
L 91.944 197.624672 
L 92.146909 198.16223 
L 92.755636 200.437354 
L 92.958545 197.989047 
L 93.161455 209.577629 
L 93.364364 209.606976 
L 93.567273 211.011705 
L 93.973091 212.498167 
L 94.378909 216.029841 
L 94.784727 217.309104 
L 94.987636 217.669425 
L 95.190545 218.50877 
L 95.393455 218.819793 
L 95.596364 220.949311 
L 95.799273 221.892481 
L 96.002182 221.780793 
L 96.205091 222.064188 
L 96.408 224.020846 
L 96.610909 224.445458 
L 96.813818 225.684155 
L 97.219636 225.902098 
L 97.422545 226.576967 
L 97.625455 226.837811 
L 97.828364 226.902966 
L 98.031273 227.322129 
L 98.234182 226.465541 
L 98.437091 226.877282 
L 98.64 227.585381 
L 99.045818 227.713686 
L 99.248727 228.16468 
L 99.451636 228.231073 
L 99.654545 226.443184 
L 99.857455 219.064458 
L 100.060364 221.407753 
L 100.466182 220.447597 
L 100.669091 222.864895 
L 100.872 223.14342 
L 101.074909 224.333567 
L 101.277818 224.579348 
L 101.480727 225.22478 
L 101.683636 225.266666 
L 101.886545 230.281729 
L 102.089455 230.685125 
L 102.698182 229.60942 
L 102.901091 230.048446 
L 103.306909 230.081008 
L 103.712727 230.759421 
L 103.915636 229.990085 
L 104.118545 230.661618 
L 104.524364 230.592237 
L 104.727273 231.384155 
L 104.930182 231.384155 
L 105.133091 231.127167 
L 105.336 231.980298 
L 105.944727 232.460387 
L 106.147636 232.308 
L 106.350545 232.453425 
L 106.756364 232.442425 
L 106.959273 233.780056 
L 107.365091 233.807693 
L 107.568 233.672842 
L 107.770909 235.451648 
L 107.973818 214.592273 
L 108.176727 213.970873 
L 108.379636 215.845229 
L 108.582545 221.82723 
L 109.394182 228.421062 
L 109.597091 228.868368 
L 109.8 229.005002 
L 110.205818 230.742691 
L 110.408727 230.913149 
L 110.611636 230.888048 
L 110.814545 231.068001 
L 111.017455 231.849552 
L 111.423273 232.088254 
L 111.626182 232.209298 
L 111.829091 232.761381 
L 112.032 231.892507 
L 112.234909 231.915585 
L 112.437818 231.514989 
L 112.843636 231.520178 
L 113.249455 235.517347 
L 113.452364 235.520484 
L 113.655273 235.774125 
L 113.858182 235.22009 
L 114.061091 235.079407 
L 114.264 234.34988 
L 114.466909 234.639197 
L 114.872727 234.561146 
L 115.075636 234.54773 
L 115.278545 235.519185 
L 115.481455 235.557752 
L 115.684364 236.333641 
L 115.887273 236.405179 
L 116.090182 236.25522 
L 116.293091 236.488744 
L 116.496 237.423783 
L 116.698909 237.424091 
L 117.104727 237.654671 
L 117.307636 237.719756 
L 117.713455 236.660404 
L 117.916364 236.67297 
L 118.119273 237.813283 
L 118.322182 238.16762 
L 118.525091 239.661465 
L 118.728 240.247995 
L 119.133818 240.293248 
L 119.336727 240.784945 
L 119.742545 240.925273 
L 119.945455 241.120077 
L 120.351273 241.078905 
L 120.554182 241.238257 
L 121.365818 241.325845 
L 121.771636 241.390769 
L 122.583273 241.310706 
L 122.786182 240.888393 
L 123.394909 240.898521 
L 123.597818 241.195239 
L 124.003636 241.275779 
L 124.409455 241.385971 
L 124.815273 241.294131 
L 128.873455 241.610913 
L 129.279273 242.140115 
L 130.293818 242.291387 
L 131.308364 242.315625 
L 373.581818 242.391889 
L 373.581818 242.391889 
" style="fill:none;stroke:#00d7ff;stroke-linecap:round;stroke-width:1.2;"/>
    <defs>
     <path d="M -2.4 2.4 
L 2.4 2.4 
L 2.4 -2.4 
L -2.4 -2.4 
z
" id="mac18c1a8b8" style="stroke:#00d7ff;stroke-linejoin:miter;"/>
    </defs>
    <g clip-path="url(#p126f25ae41)">
     <use style="fill-opacity:0;stroke:#00d7ff;stroke-linejoin:miter;" x="69.218182" xlink:href="#mac18c1a8b8" y="44.64"/>
     <use style="fill-opacity:0;stroke:#00d7ff;stroke-linejoin:miter;" x="109.8" xlink:href="#mac18c1a8b8" y="229.005002"/>
     <use style="fill-opacity:0;stroke:#00d7ff;stroke-linejoin:miter;" x="150.381818" xlink:href="#mac18c1a8b8" y="242.391889"/>
     <use style="fill-opacity:0;stroke:#00d7ff;stroke-linejoin:miter;" x="190.963636" xlink:href="#mac18c1a8b8" y="242.391889"/>
     <use style="fill-opacity:0;stroke:#00d7ff;stroke-linejoin:miter;" x="231.545455" xlink:href="#mac18c1a8b8" y="242.391889"/>
     <use style="fill-opacity:0;stroke:#00d7ff;stroke-linejoin:miter;" x="272.127273" xlink:href="#mac18c1a8b8" y="242.391889"/>
     <use style="fill-opacity:0;stroke:#00d7ff;stroke-linejoin:miter;" x="312.709091" xlink:href="#mac18c1a8b8" y="242.391889"/>
     <use style="fill-opacity:0;stroke:#00d7ff;stroke-linejoin:miter;" x="353.290909" xlink:href="#mac18c1a8b8" y="242.391889"/>
    </g>
   </g>
   <g id="patch_3">
    <path d="M 54 256.32 
L 54 34.56 
" style="fill:none;stroke:#000000;stroke-linecap:square;stroke-linejoin:miter;"/>
   </g>
   <g id="patch_4">
    <path d="M 388.8 256.32 
L 388.8 34.56 
" style="fill:none;stroke:#000000;stroke-linecap:square;stroke-linejoin:miter;"/>
   </g>
   <g id="patch_5">
    <path d="M 54 256.32 
L 388.8 256.32 
" style="fill:none;stroke:#000000;stroke-linecap:square;stroke-linejoin:miter;"/>
   </g>
   <g id="patch_6">
    <path d="M 54 34.56 
L 388.8 34.56 
" style="fill:none;stroke:#000000;stroke-linecap:square;stroke-linejoin:miter;"/>
   </g>
   <g id="legend_1">
    <g id="patch_7">
     <path d="M 308.544 102.7578 
L 383.52 102.7578 
L 383.52 39.84 
L 308.544 39.84 
z
" style="fill:#ffffff;opacity:0.8;stroke:#000000;stroke-linejoin:miter;stroke-width:0.8;"/>
    </g>
    <g id="line2d_61">
     <path d="M 312.768 47.92665 
L 333.888 47.92665 
" style="fill:none;stroke:#023eff;stroke-linecap:round;stroke-width:1.2;"/>
    </g>
    <g id="line2d_62">
     <g>
      <use style="fill-opacity:0;stroke:#023eff;" x="323.328" xlink:href="#m4cd1fe7769" y="47.92665"/>
     </g>
    </g>
    <g id="text_13">
     <!-- LEVY -->
     <defs>
      <path d="M 7.328125 0 
L 7.328125 71.578125 
L 16.796875 71.578125 
L 16.796875 8.453125 
L 52.046875 8.453125 
L 52.046875 0 
z
" id="ArialMT-76"/>
      <path d="M 7.90625 0 
L 7.90625 71.578125 
L 59.671875 71.578125 
L 59.671875 63.140625 
L 17.390625 63.140625 
L 17.390625 41.21875 
L 56.984375 41.21875 
L 56.984375 32.8125 
L 17.390625 32.8125 
L 17.390625 8.453125 
L 61.328125 8.453125 
L 61.328125 0 
z
" id="ArialMT-69"/>
      <path d="M 28.171875 0 
L 0.4375 71.578125 
L 10.6875 71.578125 
L 29.296875 19.578125 
Q 31.546875 13.328125 33.0625 7.859375 
Q 34.71875 13.71875 36.921875 19.578125 
L 56.25 71.578125 
L 65.921875 71.578125 
L 37.890625 0 
z
" id="ArialMT-86"/>
      <path d="M 27.875 0 
L 27.875 30.328125 
L 0.296875 71.578125 
L 11.8125 71.578125 
L 25.921875 50 
Q 29.828125 43.953125 33.203125 37.890625 
Q 36.421875 43.5 41.015625 50.53125 
L 54.890625 71.578125 
L 65.921875 71.578125 
L 37.359375 30.328125 
L 37.359375 0 
z
" id="ArialMT-89"/>
     </defs>
     <g transform="translate(342.336 51.62265)scale(0.1056 -0.1056)">
      <use xlink:href="#ArialMT-76"/>
      <use x="55.615234" xlink:href="#ArialMT-69"/>
      <use x="122.314453" xlink:href="#ArialMT-86"/>
      <use x="189.013672" xlink:href="#ArialMT-89"/>
     </g>
    </g>
    <g id="line2d_63">
     <path d="M 312.768 62.8641 
L 333.888 62.8641 
" style="fill:none;stroke:#1ac938;stroke-linecap:round;stroke-width:1.2;"/>
    </g>
    <g id="line2d_64">
     <g>
      <use style="fill-opacity:0;stroke:#1ac938;stroke-linejoin:miter;" x="323.328" xlink:href="#madd077e1bb" y="62.8641"/>
     </g>
    </g>
    <g id="text_14">
     <!-- UNIF -->
     <defs>
      <path d="M 54.6875 71.578125 
L 64.15625 71.578125 
L 64.15625 30.21875 
Q 64.15625 19.4375 61.71875 13.078125 
Q 59.28125 6.734375 52.90625 2.75 
Q 46.53125 -1.21875 36.1875 -1.21875 
Q 26.125 -1.21875 19.71875 2.25 
Q 13.328125 5.71875 10.59375 12.28125 
Q 7.859375 18.84375 7.859375 30.21875 
L 7.859375 71.578125 
L 17.328125 71.578125 
L 17.328125 30.28125 
Q 17.328125 20.953125 19.0625 16.53125 
Q 20.796875 12.109375 25.015625 9.71875 
Q 29.25 7.328125 35.359375 7.328125 
Q 45.796875 7.328125 50.234375 12.0625 
Q 54.6875 16.796875 54.6875 30.28125 
z
" id="ArialMT-85"/>
      <path d="M 7.625 0 
L 7.625 71.578125 
L 17.328125 71.578125 
L 54.9375 15.375 
L 54.9375 71.578125 
L 64.015625 71.578125 
L 64.015625 0 
L 54.296875 0 
L 16.703125 56.25 
L 16.703125 0 
z
" id="ArialMT-78"/>
      <path d="M 8.203125 0 
L 8.203125 71.578125 
L 56.5 71.578125 
L 56.5 63.140625 
L 17.671875 63.140625 
L 17.671875 40.96875 
L 51.265625 40.96875 
L 51.265625 32.515625 
L 17.671875 32.515625 
L 17.671875 0 
z
" id="ArialMT-70"/>
     </defs>
     <g transform="translate(342.336 66.5601)scale(0.1056 -0.1056)">
      <use xlink:href="#ArialMT-85"/>
      <use x="72.216797" xlink:href="#ArialMT-78"/>
      <use x="144.433594" xlink:href="#ArialMT-73"/>
      <use x="172.216797" xlink:href="#ArialMT-70"/>
     </g>
    </g>
    <g id="line2d_65">
     <path d="M 312.768 77.80155 
L 333.888 77.80155 
" style="fill:none;stroke:#e8000b;stroke-linecap:round;stroke-width:1.2;"/>
    </g>
    <g id="line2d_66">
     <g>
      <use style="fill-opacity:0;stroke:#e8000b;stroke-linejoin:miter;" x="323.328" xlink:href="#m71389836ba" y="77.80155"/>
     </g>
    </g>
    <g id="text_15">
     <!-- NORM -->
     <defs>
      <path d="M 4.828125 34.859375 
Q 4.828125 52.6875 14.390625 62.765625 
Q 23.96875 72.859375 39.109375 72.859375 
Q 49.03125 72.859375 56.984375 68.109375 
Q 64.9375 63.375 69.109375 54.90625 
Q 73.296875 46.4375 73.296875 35.6875 
Q 73.296875 24.8125 68.890625 16.21875 
Q 64.5 7.625 56.4375 3.203125 
Q 48.390625 -1.21875 39.0625 -1.21875 
Q 28.953125 -1.21875 20.984375 3.65625 
Q 13.03125 8.546875 8.921875 16.984375 
Q 4.828125 25.4375 4.828125 34.859375 
z
M 14.59375 34.71875 
Q 14.59375 21.78125 21.546875 14.328125 
Q 28.515625 6.890625 39.015625 6.890625 
Q 49.703125 6.890625 56.609375 14.40625 
Q 63.53125 21.921875 63.53125 35.75 
Q 63.53125 44.484375 60.578125 51 
Q 57.625 57.515625 51.921875 61.109375 
Q 46.234375 64.703125 39.15625 64.703125 
Q 29.109375 64.703125 21.84375 57.78125 
Q 14.59375 50.875 14.59375 34.71875 
z
" id="ArialMT-79"/>
      <path d="M 7.859375 0 
L 7.859375 71.578125 
L 39.59375 71.578125 
Q 49.171875 71.578125 54.140625 69.640625 
Q 59.125 67.71875 62.109375 62.828125 
Q 65.09375 57.953125 65.09375 52.046875 
Q 65.09375 44.4375 60.15625 39.203125 
Q 55.21875 33.984375 44.921875 32.5625 
Q 48.6875 30.765625 50.640625 29 
Q 54.78125 25.203125 58.5 19.484375 
L 70.953125 0 
L 59.03125 0 
L 49.5625 14.890625 
Q 45.40625 21.34375 42.71875 24.75 
Q 40.046875 28.171875 37.921875 29.53125 
Q 35.796875 30.90625 33.59375 31.453125 
Q 31.984375 31.78125 28.328125 31.78125 
L 17.328125 31.78125 
L 17.328125 0 
z
M 17.328125 39.984375 
L 37.703125 39.984375 
Q 44.1875 39.984375 47.84375 41.328125 
Q 51.515625 42.671875 53.421875 45.625 
Q 55.328125 48.578125 55.328125 52.046875 
Q 55.328125 57.125 51.640625 60.390625 
Q 47.953125 63.671875 39.984375 63.671875 
L 17.328125 63.671875 
z
" id="ArialMT-82"/>
      <path d="M 7.421875 0 
L 7.421875 71.578125 
L 21.6875 71.578125 
L 38.625 20.90625 
Q 40.96875 13.8125 42.046875 10.296875 
Q 43.265625 14.203125 45.84375 21.78125 
L 62.984375 71.578125 
L 75.734375 71.578125 
L 75.734375 0 
L 66.609375 0 
L 66.609375 59.90625 
L 45.796875 0 
L 37.25 0 
L 16.546875 60.9375 
L 16.546875 0 
z
" id="ArialMT-77"/>
     </defs>
     <g transform="translate(342.336 81.49755)scale(0.1056 -0.1056)">
      <use xlink:href="#ArialMT-78"/>
      <use x="72.216797" xlink:href="#ArialMT-79"/>
      <use x="150" xlink:href="#ArialMT-82"/>
      <use x="222.216797" xlink:href="#ArialMT-77"/>
     </g>
    </g>
    <g id="line2d_67">
     <path d="M 312.768 92.739 
L 333.888 92.739 
" style="fill:none;stroke:#00d7ff;stroke-linecap:round;stroke-width:1.2;"/>
    </g>
    <g id="line2d_68">
     <g>
      <use style="fill-opacity:0;stroke:#00d7ff;stroke-linejoin:miter;" x="323.328" xlink:href="#mac18c1a8b8" y="92.739"/>
     </g>
    </g>
    <g id="text_16">
     <!-- CONST -->
     <defs>
      <path d="M 58.796875 25.09375 
L 68.265625 22.703125 
Q 65.28125 11.03125 57.546875 4.90625 
Q 49.8125 -1.21875 38.625 -1.21875 
Q 27.046875 -1.21875 19.796875 3.484375 
Q 12.546875 8.203125 8.765625 17.140625 
Q 4.984375 26.078125 4.984375 36.328125 
Q 4.984375 47.515625 9.25 55.828125 
Q 13.53125 64.15625 21.40625 68.46875 
Q 29.296875 72.796875 38.765625 72.796875 
Q 49.515625 72.796875 56.828125 67.328125 
Q 64.15625 61.859375 67.046875 51.953125 
L 57.71875 49.75 
Q 55.21875 57.5625 50.484375 61.125 
Q 45.75 64.703125 38.578125 64.703125 
Q 30.328125 64.703125 24.78125 60.734375 
Q 19.234375 56.78125 16.984375 50.109375 
Q 14.75 43.453125 14.75 36.375 
Q 14.75 27.25 17.40625 20.4375 
Q 20.0625 13.625 25.671875 10.25 
Q 31.296875 6.890625 37.84375 6.890625 
Q 45.796875 6.890625 51.3125 11.46875 
Q 56.84375 16.0625 58.796875 25.09375 
z
" id="ArialMT-67"/>
      <path d="M 4.5 23 
L 13.421875 23.78125 
Q 14.0625 18.40625 16.375 14.96875 
Q 18.703125 11.53125 23.578125 9.40625 
Q 28.46875 7.28125 34.578125 7.28125 
Q 39.984375 7.28125 44.140625 8.890625 
Q 48.296875 10.5 50.3125 13.296875 
Q 52.34375 16.109375 52.34375 19.4375 
Q 52.34375 22.796875 50.390625 25.3125 
Q 48.4375 27.828125 43.953125 29.546875 
Q 41.0625 30.671875 31.203125 33.03125 
Q 21.34375 35.40625 17.390625 37.5 
Q 12.25 40.1875 9.734375 44.15625 
Q 7.234375 48.140625 7.234375 53.078125 
Q 7.234375 58.5 10.296875 63.203125 
Q 13.375 67.921875 19.28125 70.359375 
Q 25.203125 72.796875 32.421875 72.796875 
Q 40.375 72.796875 46.453125 70.234375 
Q 52.546875 67.671875 55.8125 62.6875 
Q 59.078125 57.71875 59.328125 51.421875 
L 50.25 50.734375 
Q 49.515625 57.515625 45.28125 60.984375 
Q 41.0625 64.453125 32.8125 64.453125 
Q 24.21875 64.453125 20.28125 61.296875 
Q 16.359375 58.15625 16.359375 53.71875 
Q 16.359375 49.859375 19.140625 47.359375 
Q 21.875 44.875 33.421875 42.265625 
Q 44.96875 39.65625 49.265625 37.703125 
Q 55.515625 34.8125 58.484375 30.390625 
Q 61.46875 25.984375 61.46875 20.21875 
Q 61.46875 14.5 58.203125 9.4375 
Q 54.9375 4.390625 48.796875 1.578125 
Q 42.671875 -1.21875 35.015625 -1.21875 
Q 25.296875 -1.21875 18.71875 1.609375 
Q 12.15625 4.4375 8.421875 10.125 
Q 4.6875 15.828125 4.5 23 
z
" id="ArialMT-83"/>
      <path d="M 25.921875 0 
L 25.921875 63.140625 
L 2.34375 63.140625 
L 2.34375 71.578125 
L 59.078125 71.578125 
L 59.078125 63.140625 
L 35.40625 63.140625 
L 35.40625 0 
z
" id="ArialMT-84"/>
     </defs>
     <g transform="translate(342.336 96.435)scale(0.1056 -0.1056)">
      <use xlink:href="#ArialMT-67"/>
      <use x="72.216797" xlink:href="#ArialMT-79"/>
      <use x="150" xlink:href="#ArialMT-78"/>
      <use x="222.216797" xlink:href="#ArialMT-83"/>
      <use x="288.916016" xlink:href="#ArialMT-84"/>
     </g>
    </g>
   </g>
  </g>
 </g>
 <defs>
  <clipPath id="p126f25ae41">
   <rect height="221.76" width="334.8" x="54" y="34.56"/>
  </clipPath>
 </defs>
</svg>
