<?xml version="1.0" encoding="utf-8" standalone="no"?>
<!DOCTYPE svg PUBLIC "-//W3C//DTD SVG 1.1//EN"
  "http://www.w3.org/Graphics/SVG/1.1/DTD/svg11.dtd">
<!-- Created with matplotlib (https://matplotlib.org/) -->
<svg height="288pt" version="1.1" viewBox="0 0 432 288" width="432pt" xmlns="http://www.w3.org/2000/svg" xmlns:xlink="http://www.w3.org/1999/xlink">
 <defs>
  <style type="text/css">
*{stroke-linecap:butt;stroke-linejoin:round;}
  </style>
 </defs>
 <g id="figure_1">
  <g id="patch_1">
   <path d="M 0 288 
L 432 288 
L 432 0 
L 0 0 
z
" style="fill:#ffffff;"/>
  </g>
  <g id="axes_1">
   <g id="patch_2">
    <path d="M 54 256.32 
L 388.8 256.32 
L 388.8 34.56 
L 54 34.56 
z
" style="fill:#ffffff;"/>
   </g>
   <g id="matplotlib.axis_1">
    <g id="xtick_1">
     <g id="line2d_1">
      <defs>
       <path d="M 0 0 
L 0 -3 
" id="m4c622aecb0" style="stroke:#000000;"/>
      </defs>
      <g>
       <use style="stroke:#000000;" x="69.218182" xlink:href="#m4c622aecb0" y="256.32"/>
      </g>
     </g>
     <g id="line2d_2">
      <defs>
       <path d="M 0 0 
L 0 3 
" id="m6a5c60d80c" style="stroke:#000000;"/>
      </defs>
      <g>
       <use style="stroke:#000000;" x="69.218182" xlink:href="#m6a5c60d80c" y="34.56"/>
      </g>
     </g>
     <g id="text_1">
      <!-- 0 -->
      <defs>
       <path d="M 4.15625 35.296875 
Q 4.15625 48 6.765625 55.734375 
Q 9.375 63.484375 14.515625 67.671875 
Q 19.671875 71.875 27.484375 71.875 
Q 33.25 71.875 37.59375 69.546875 
Q 41.9375 67.234375 44.765625 62.859375 
Q 47.609375 58.5 49.21875 52.21875 
Q 50.828125 45.953125 50.828125 35.296875 
Q 50.828125 22.703125 48.234375 14.96875 
Q 45.65625 7.234375 40.5 3 
Q 35.359375 -1.21875 27.484375 -1.21875 
Q 17.140625 -1.21875 11.234375 6.203125 
Q 4.15625 15.140625 4.15625 35.296875 
z
M 13.1875 35.296875 
Q 13.1875 17.671875 17.3125 11.828125 
Q 21.4375 6 27.484375 6 
Q 33.546875 6 37.671875 11.859375 
Q 41.796875 17.71875 41.796875 35.296875 
Q 41.796875 52.984375 37.671875 58.78125 
Q 33.546875 64.59375 27.390625 64.59375 
Q 21.34375 64.59375 17.71875 59.46875 
Q 13.1875 52.9375 13.1875 35.296875 
z
" id="ArialMT-48"/>
      </defs>
      <g transform="translate(66.282007 267.37865)scale(0.1056 -0.1056)">
       <use xlink:href="#ArialMT-48"/>
      </g>
     </g>
    </g>
    <g id="xtick_2">
     <g id="line2d_3">
      <g>
       <use style="stroke:#000000;" x="109.8" xlink:href="#m4c622aecb0" y="256.32"/>
      </g>
     </g>
     <g id="line2d_4">
      <g>
       <use style="stroke:#000000;" x="109.8" xlink:href="#m6a5c60d80c" y="34.56"/>
      </g>
     </g>
     <g id="text_2">
      <!-- 200 -->
      <defs>
       <path d="M 50.34375 8.453125 
L 50.34375 0 
L 3.03125 0 
Q 2.9375 3.171875 4.046875 6.109375 
Q 5.859375 10.9375 9.828125 15.625 
Q 13.8125 20.3125 21.34375 26.46875 
Q 33.015625 36.03125 37.109375 41.625 
Q 41.21875 47.21875 41.21875 52.203125 
Q 41.21875 57.421875 37.46875 61 
Q 33.734375 64.59375 27.734375 64.59375 
Q 21.390625 64.59375 17.578125 60.78125 
Q 13.765625 56.984375 13.71875 50.25 
L 4.6875 51.171875 
Q 5.609375 61.28125 11.65625 66.578125 
Q 17.71875 71.875 27.9375 71.875 
Q 38.234375 71.875 44.234375 66.15625 
Q 50.25 60.453125 50.25 52 
Q 50.25 47.703125 48.484375 43.546875 
Q 46.734375 39.40625 42.65625 34.8125 
Q 38.578125 30.21875 29.109375 22.21875 
Q 21.1875 15.578125 18.9375 13.203125 
Q 16.703125 10.84375 15.234375 8.453125 
z
" id="ArialMT-50"/>
      </defs>
      <g transform="translate(100.991475 267.37865)scale(0.1056 -0.1056)">
       <use xlink:href="#ArialMT-50"/>
       <use x="55.615234" xlink:href="#ArialMT-48"/>
       <use x="111.230469" xlink:href="#ArialMT-48"/>
      </g>
     </g>
    </g>
    <g id="xtick_3">
     <g id="line2d_5">
      <g>
       <use style="stroke:#000000;" x="150.381818" xlink:href="#m4c622aecb0" y="256.32"/>
      </g>
     </g>
     <g id="line2d_6">
      <g>
       <use style="stroke:#000000;" x="150.381818" xlink:href="#m6a5c60d80c" y="34.56"/>
      </g>
     </g>
     <g id="text_3">
      <!-- 400 -->
      <defs>
       <path d="M 32.328125 0 
L 32.328125 17.140625 
L 1.265625 17.140625 
L 1.265625 25.203125 
L 33.9375 71.578125 
L 41.109375 71.578125 
L 41.109375 25.203125 
L 50.78125 25.203125 
L 50.78125 17.140625 
L 41.109375 17.140625 
L 41.109375 0 
z
M 32.328125 25.203125 
L 32.328125 57.46875 
L 9.90625 25.203125 
z
" id="ArialMT-52"/>
      </defs>
      <g transform="translate(141.573293 267.37865)scale(0.1056 -0.1056)">
       <use xlink:href="#ArialMT-52"/>
       <use x="55.615234" xlink:href="#ArialMT-48"/>
       <use x="111.230469" xlink:href="#ArialMT-48"/>
      </g>
     </g>
    </g>
    <g id="xtick_4">
     <g id="line2d_7">
      <g>
       <use style="stroke:#000000;" x="190.963636" xlink:href="#m4c622aecb0" y="256.32"/>
      </g>
     </g>
     <g id="line2d_8">
      <g>
       <use style="stroke:#000000;" x="190.963636" xlink:href="#m6a5c60d80c" y="34.56"/>
      </g>
     </g>
     <g id="text_4">
      <!-- 600 -->
      <defs>
       <path d="M 49.75 54.046875 
L 41.015625 53.375 
Q 39.84375 58.546875 37.703125 60.890625 
Q 34.125 64.65625 28.90625 64.65625 
Q 24.703125 64.65625 21.53125 62.3125 
Q 17.390625 59.28125 14.984375 53.46875 
Q 12.59375 47.65625 12.5 36.921875 
Q 15.671875 41.75 20.265625 44.09375 
Q 24.859375 46.4375 29.890625 46.4375 
Q 38.671875 46.4375 44.84375 39.96875 
Q 51.03125 33.5 51.03125 23.25 
Q 51.03125 16.5 48.125 10.71875 
Q 45.21875 4.9375 40.140625 1.859375 
Q 35.0625 -1.21875 28.609375 -1.21875 
Q 17.625 -1.21875 10.6875 6.859375 
Q 3.765625 14.9375 3.765625 33.5 
Q 3.765625 54.25 11.421875 63.671875 
Q 18.109375 71.875 29.4375 71.875 
Q 37.890625 71.875 43.28125 67.140625 
Q 48.6875 62.40625 49.75 54.046875 
z
M 13.875 23.1875 
Q 13.875 18.65625 15.796875 14.5 
Q 17.71875 10.359375 21.1875 8.171875 
Q 24.65625 6 28.46875 6 
Q 34.03125 6 38.03125 10.484375 
Q 42.046875 14.984375 42.046875 22.703125 
Q 42.046875 30.125 38.078125 34.390625 
Q 34.125 38.671875 28.125 38.671875 
Q 22.171875 38.671875 18.015625 34.390625 
Q 13.875 30.125 13.875 23.1875 
z
" id="ArialMT-54"/>
      </defs>
      <g transform="translate(182.155111 267.37865)scale(0.1056 -0.1056)">
       <use xlink:href="#ArialMT-54"/>
       <use x="55.615234" xlink:href="#ArialMT-48"/>
       <use x="111.230469" xlink:href="#ArialMT-48"/>
      </g>
     </g>
    </g>
    <g id="xtick_5">
     <g id="line2d_9">
      <g>
       <use style="stroke:#000000;" x="231.545455" xlink:href="#m4c622aecb0" y="256.32"/>
      </g>
     </g>
     <g id="line2d_10">
      <g>
       <use style="stroke:#000000;" x="231.545455" xlink:href="#m6a5c60d80c" y="34.56"/>
      </g>
     </g>
     <g id="text_5">
      <!-- 800 -->
      <defs>
       <path d="M 17.671875 38.8125 
Q 12.203125 40.828125 9.5625 44.53125 
Q 6.9375 48.25 6.9375 53.421875 
Q 6.9375 61.234375 12.546875 66.546875 
Q 18.171875 71.875 27.484375 71.875 
Q 36.859375 71.875 42.578125 66.421875 
Q 48.296875 60.984375 48.296875 53.171875 
Q 48.296875 48.1875 45.671875 44.5 
Q 43.0625 40.828125 37.75 38.8125 
Q 44.34375 36.671875 47.78125 31.875 
Q 51.21875 27.09375 51.21875 20.453125 
Q 51.21875 11.28125 44.71875 5.03125 
Q 38.234375 -1.21875 27.640625 -1.21875 
Q 17.046875 -1.21875 10.546875 5.046875 
Q 4.046875 11.328125 4.046875 20.703125 
Q 4.046875 27.6875 7.59375 32.390625 
Q 11.140625 37.109375 17.671875 38.8125 
z
M 15.921875 53.71875 
Q 15.921875 48.640625 19.1875 45.40625 
Q 22.46875 42.1875 27.6875 42.1875 
Q 32.765625 42.1875 36.015625 45.375 
Q 39.265625 48.578125 39.265625 53.21875 
Q 39.265625 58.0625 35.90625 61.359375 
Q 32.5625 64.65625 27.59375 64.65625 
Q 22.5625 64.65625 19.234375 61.421875 
Q 15.921875 58.203125 15.921875 53.71875 
z
M 13.09375 20.65625 
Q 13.09375 16.890625 14.875 13.375 
Q 16.65625 9.859375 20.171875 7.921875 
Q 23.6875 6 27.734375 6 
Q 34.03125 6 38.125 10.046875 
Q 42.234375 14.109375 42.234375 20.359375 
Q 42.234375 26.703125 38.015625 30.859375 
Q 33.796875 35.015625 27.4375 35.015625 
Q 21.234375 35.015625 17.15625 30.90625 
Q 13.09375 26.8125 13.09375 20.65625 
z
" id="ArialMT-56"/>
      </defs>
      <g transform="translate(222.73693 267.37865)scale(0.1056 -0.1056)">
       <use xlink:href="#ArialMT-56"/>
       <use x="55.615234" xlink:href="#ArialMT-48"/>
       <use x="111.230469" xlink:href="#ArialMT-48"/>
      </g>
     </g>
    </g>
    <g id="xtick_6">
     <g id="line2d_11">
      <g>
       <use style="stroke:#000000;" x="272.127273" xlink:href="#m4c622aecb0" y="256.32"/>
      </g>
     </g>
     <g id="line2d_12">
      <g>
       <use style="stroke:#000000;" x="272.127273" xlink:href="#m6a5c60d80c" y="34.56"/>
      </g>
     </g>
     <g id="text_6">
      <!-- 1000 -->
      <defs>
       <path d="M 37.25 0 
L 28.46875 0 
L 28.46875 56 
Q 25.296875 52.984375 20.140625 49.953125 
Q 14.984375 46.921875 10.890625 45.40625 
L 10.890625 53.90625 
Q 18.265625 57.375 23.78125 62.296875 
Q 29.296875 67.234375 31.59375 71.875 
L 37.25 71.875 
z
" id="ArialMT-49"/>
      </defs>
      <g transform="translate(260.382573 267.37865)scale(0.1056 -0.1056)">
       <use xlink:href="#ArialMT-49"/>
       <use x="55.615234" xlink:href="#ArialMT-48"/>
       <use x="111.230469" xlink:href="#ArialMT-48"/>
       <use x="166.845703" xlink:href="#ArialMT-48"/>
      </g>
     </g>
    </g>
    <g id="xtick_7">
     <g id="line2d_13">
      <g>
       <use style="stroke:#000000;" x="312.709091" xlink:href="#m4c622aecb0" y="256.32"/>
      </g>
     </g>
     <g id="line2d_14">
      <g>
       <use style="stroke:#000000;" x="312.709091" xlink:href="#m6a5c60d80c" y="34.56"/>
      </g>
     </g>
     <g id="text_7">
      <!-- 1200 -->
      <g transform="translate(300.964391 267.37865)scale(0.1056 -0.1056)">
       <use xlink:href="#ArialMT-49"/>
       <use x="55.615234" xlink:href="#ArialMT-50"/>
       <use x="111.230469" xlink:href="#ArialMT-48"/>
       <use x="166.845703" xlink:href="#ArialMT-48"/>
      </g>
     </g>
    </g>
    <g id="xtick_8">
     <g id="line2d_15">
      <g>
       <use style="stroke:#000000;" x="353.290909" xlink:href="#m4c622aecb0" y="256.32"/>
      </g>
     </g>
     <g id="line2d_16">
      <g>
       <use style="stroke:#000000;" x="353.290909" xlink:href="#m6a5c60d80c" y="34.56"/>
      </g>
     </g>
     <g id="text_8">
      <!-- 1400 -->
      <g transform="translate(341.546209 267.37865)scale(0.1056 -0.1056)">
       <use xlink:href="#ArialMT-49"/>
       <use x="55.615234" xlink:href="#ArialMT-52"/>
       <use x="111.230469" xlink:href="#ArialMT-48"/>
       <use x="166.845703" xlink:href="#ArialMT-48"/>
      </g>
     </g>
    </g>
    <g id="text_9">
     <!-- Generations -->
     <defs>
      <path d="M 41.21875 28.078125 
L 41.21875 36.46875 
L 71.53125 36.53125 
L 71.53125 9.96875 
Q 64.546875 4.390625 57.125 1.578125 
Q 49.703125 -1.21875 41.890625 -1.21875 
Q 31.34375 -1.21875 22.71875 3.296875 
Q 14.109375 7.8125 9.71875 16.359375 
Q 5.328125 24.90625 5.328125 35.453125 
Q 5.328125 45.90625 9.6875 54.953125 
Q 14.0625 64.015625 22.265625 68.40625 
Q 30.46875 72.796875 41.15625 72.796875 
Q 48.921875 72.796875 55.1875 70.28125 
Q 61.46875 67.78125 65.03125 63.28125 
Q 68.609375 58.796875 70.453125 51.5625 
L 61.921875 49.21875 
Q 60.296875 54.6875 57.90625 57.8125 
Q 55.515625 60.9375 51.0625 62.8125 
Q 46.625 64.703125 41.21875 64.703125 
Q 34.71875 64.703125 29.984375 62.71875 
Q 25.25 60.75 22.34375 57.515625 
Q 19.4375 54.296875 17.828125 50.4375 
Q 15.09375 43.796875 15.09375 36.03125 
Q 15.09375 26.46875 18.390625 20.015625 
Q 21.6875 13.578125 27.984375 10.453125 
Q 34.28125 7.328125 41.359375 7.328125 
Q 47.515625 7.328125 53.375 9.6875 
Q 59.234375 12.0625 62.25 14.75 
L 62.25 28.078125 
z
" id="ArialMT-71"/>
      <path d="M 42.09375 16.703125 
L 51.171875 15.578125 
Q 49.03125 7.625 43.21875 3.21875 
Q 37.40625 -1.171875 28.375 -1.171875 
Q 17 -1.171875 10.328125 5.828125 
Q 3.65625 12.84375 3.65625 25.484375 
Q 3.65625 38.578125 10.390625 45.796875 
Q 17.140625 53.03125 27.875 53.03125 
Q 38.28125 53.03125 44.875 45.953125 
Q 51.46875 38.875 51.46875 26.03125 
Q 51.46875 25.25 51.421875 23.6875 
L 12.75 23.6875 
Q 13.234375 15.140625 17.578125 10.59375 
Q 21.921875 6.0625 28.421875 6.0625 
Q 33.25 6.0625 36.671875 8.59375 
Q 40.09375 11.140625 42.09375 16.703125 
z
M 13.234375 30.90625 
L 42.1875 30.90625 
Q 41.609375 37.453125 38.875 40.71875 
Q 34.671875 45.796875 27.984375 45.796875 
Q 21.921875 45.796875 17.796875 41.75 
Q 13.671875 37.703125 13.234375 30.90625 
z
" id="ArialMT-101"/>
      <path d="M 6.59375 0 
L 6.59375 51.859375 
L 14.5 51.859375 
L 14.5 44.484375 
Q 20.21875 53.03125 31 53.03125 
Q 35.6875 53.03125 39.625 51.34375 
Q 43.5625 49.65625 45.515625 46.921875 
Q 47.46875 44.1875 48.25 40.4375 
Q 48.734375 37.984375 48.734375 31.890625 
L 48.734375 0 
L 39.9375 0 
L 39.9375 31.546875 
Q 39.9375 36.921875 38.90625 39.578125 
Q 37.890625 42.234375 35.28125 43.8125 
Q 32.671875 45.40625 29.15625 45.40625 
Q 23.53125 45.40625 19.453125 41.84375 
Q 15.375 38.28125 15.375 28.328125 
L 15.375 0 
z
" id="ArialMT-110"/>
      <path d="M 6.5 0 
L 6.5 51.859375 
L 14.40625 51.859375 
L 14.40625 44 
Q 17.4375 49.515625 20 51.265625 
Q 22.5625 53.03125 25.640625 53.03125 
Q 30.078125 53.03125 34.671875 50.203125 
L 31.640625 42.046875 
Q 28.421875 43.953125 25.203125 43.953125 
Q 22.3125 43.953125 20.015625 42.21875 
Q 17.71875 40.484375 16.75 37.40625 
Q 15.28125 32.71875 15.28125 27.15625 
L 15.28125 0 
z
" id="ArialMT-114"/>
      <path d="M 40.4375 6.390625 
Q 35.546875 2.25 31.03125 0.53125 
Q 26.515625 -1.171875 21.34375 -1.171875 
Q 12.796875 -1.171875 8.203125 3 
Q 3.609375 7.171875 3.609375 13.671875 
Q 3.609375 17.484375 5.34375 20.625 
Q 7.078125 23.78125 9.890625 25.6875 
Q 12.703125 27.59375 16.21875 28.5625 
Q 18.796875 29.25 24.03125 29.890625 
Q 34.671875 31.15625 39.703125 32.90625 
Q 39.75 34.71875 39.75 35.203125 
Q 39.75 40.578125 37.25 42.78125 
Q 33.890625 45.75 27.25 45.75 
Q 21.046875 45.75 18.09375 43.578125 
Q 15.140625 41.40625 13.71875 35.890625 
L 5.125 37.0625 
Q 6.296875 42.578125 8.984375 45.96875 
Q 11.671875 49.359375 16.75 51.1875 
Q 21.828125 53.03125 28.515625 53.03125 
Q 35.15625 53.03125 39.296875 51.46875 
Q 43.453125 49.90625 45.40625 47.53125 
Q 47.359375 45.171875 48.140625 41.546875 
Q 48.578125 39.3125 48.578125 33.453125 
L 48.578125 21.734375 
Q 48.578125 9.46875 49.140625 6.21875 
Q 49.703125 2.984375 51.375 0 
L 42.1875 0 
Q 40.828125 2.734375 40.4375 6.390625 
z
M 39.703125 26.03125 
Q 34.90625 24.078125 25.34375 22.703125 
Q 19.921875 21.921875 17.671875 20.9375 
Q 15.4375 19.96875 14.203125 18.09375 
Q 12.984375 16.21875 12.984375 13.921875 
Q 12.984375 10.40625 15.640625 8.0625 
Q 18.3125 5.71875 23.4375 5.71875 
Q 28.515625 5.71875 32.46875 7.9375 
Q 36.421875 10.15625 38.28125 14.015625 
Q 39.703125 17 39.703125 22.796875 
z
" id="ArialMT-97"/>
      <path d="M 25.78125 7.859375 
L 27.046875 0.09375 
Q 23.34375 -0.6875 20.40625 -0.6875 
Q 15.625 -0.6875 12.984375 0.828125 
Q 10.359375 2.34375 9.28125 4.8125 
Q 8.203125 7.28125 8.203125 15.1875 
L 8.203125 45.015625 
L 1.765625 45.015625 
L 1.765625 51.859375 
L 8.203125 51.859375 
L 8.203125 64.703125 
L 16.9375 69.96875 
L 16.9375 51.859375 
L 25.78125 51.859375 
L 25.78125 45.015625 
L 16.9375 45.015625 
L 16.9375 14.703125 
Q 16.9375 10.9375 17.40625 9.859375 
Q 17.875 8.796875 18.921875 8.15625 
Q 19.96875 7.515625 21.921875 7.515625 
Q 23.390625 7.515625 25.78125 7.859375 
z
" id="ArialMT-116"/>
      <path d="M 6.640625 61.46875 
L 6.640625 71.578125 
L 15.4375 71.578125 
L 15.4375 61.46875 
z
M 6.640625 0 
L 6.640625 51.859375 
L 15.4375 51.859375 
L 15.4375 0 
z
" id="ArialMT-105"/>
      <path d="M 3.328125 25.921875 
Q 3.328125 40.328125 11.328125 47.265625 
Q 18.015625 53.03125 27.640625 53.03125 
Q 38.328125 53.03125 45.109375 46.015625 
Q 51.90625 39.015625 51.90625 26.65625 
Q 51.90625 16.65625 48.90625 10.90625 
Q 45.90625 5.171875 40.15625 2 
Q 34.421875 -1.171875 27.640625 -1.171875 
Q 16.75 -1.171875 10.03125 5.8125 
Q 3.328125 12.796875 3.328125 25.921875 
z
M 12.359375 25.921875 
Q 12.359375 15.96875 16.703125 11.015625 
Q 21.046875 6.0625 27.640625 6.0625 
Q 34.1875 6.0625 38.53125 11.03125 
Q 42.875 16.015625 42.875 26.21875 
Q 42.875 35.84375 38.5 40.796875 
Q 34.125 45.75 27.640625 45.75 
Q 21.046875 45.75 16.703125 40.8125 
Q 12.359375 35.890625 12.359375 25.921875 
z
" id="ArialMT-111"/>
      <path d="M 3.078125 15.484375 
L 11.765625 16.84375 
Q 12.5 11.625 15.84375 8.84375 
Q 19.1875 6.0625 25.203125 6.0625 
Q 31.25 6.0625 34.171875 8.515625 
Q 37.109375 10.984375 37.109375 14.3125 
Q 37.109375 17.28125 34.515625 19 
Q 32.71875 20.171875 25.53125 21.96875 
Q 15.875 24.421875 12.140625 26.203125 
Q 8.40625 27.984375 6.46875 31.125 
Q 4.546875 34.28125 4.546875 38.09375 
Q 4.546875 41.546875 6.125 44.5 
Q 7.71875 47.46875 10.453125 49.421875 
Q 12.5 50.921875 16.03125 51.96875 
Q 19.578125 53.03125 23.640625 53.03125 
Q 29.734375 53.03125 34.34375 51.265625 
Q 38.96875 49.515625 41.15625 46.5 
Q 43.359375 43.5 44.1875 38.484375 
L 35.59375 37.3125 
Q 35.015625 41.3125 32.203125 43.546875 
Q 29.390625 45.796875 24.265625 45.796875 
Q 18.21875 45.796875 15.625 43.796875 
Q 13.03125 41.796875 13.03125 39.109375 
Q 13.03125 37.40625 14.109375 36.03125 
Q 15.1875 34.625 17.484375 33.6875 
Q 18.796875 33.203125 25.25 31.453125 
Q 34.578125 28.953125 38.25 27.359375 
Q 41.9375 25.78125 44.03125 22.75 
Q 46.140625 19.734375 46.140625 15.234375 
Q 46.140625 10.84375 43.578125 6.953125 
Q 41.015625 3.078125 36.171875 0.953125 
Q 31.34375 -1.171875 25.25 -1.171875 
Q 15.140625 -1.171875 9.84375 3.03125 
Q 4.546875 7.234375 3.078125 15.484375 
z
" id="ArialMT-115"/>
     </defs>
     <g transform="translate(190.0233 281.72325)scale(0.1152 -0.1152)">
      <use xlink:href="#ArialMT-71"/>
      <use x="77.783203" xlink:href="#ArialMT-101"/>
      <use x="133.398438" xlink:href="#ArialMT-110"/>
      <use x="189.013672" xlink:href="#ArialMT-101"/>
      <use x="244.628906" xlink:href="#ArialMT-114"/>
      <use x="277.929688" xlink:href="#ArialMT-97"/>
      <use x="333.544922" xlink:href="#ArialMT-116"/>
      <use x="361.328125" xlink:href="#ArialMT-105"/>
      <use x="383.544922" xlink:href="#ArialMT-111"/>
      <use x="439.160156" xlink:href="#ArialMT-110"/>
      <use x="494.775391" xlink:href="#ArialMT-115"/>
     </g>
    </g>
   </g>
   <g id="matplotlib.axis_2">
    <g id="ytick_1">
     <g id="line2d_17">
      <defs>
       <path d="M 0 0 
L 3 0 
" id="mde91f8f645" style="stroke:#000000;"/>
      </defs>
      <g>
       <use style="stroke:#000000;" x="54" xlink:href="#mde91f8f645" y="193.09858"/>
      </g>
     </g>
     <g id="line2d_18">
      <defs>
       <path d="M 0 0 
L -3 0 
" id="m4112790dd7" style="stroke:#000000;"/>
      </defs>
      <g>
       <use style="stroke:#000000;" x="388.8" xlink:href="#m4112790dd7" y="193.09858"/>
      </g>
     </g>
     <g id="text_10">
      <!-- $\mathdefault{10^{-4}}$ -->
      <defs>
       <path d="M 52.828125 31.203125 
L 5.5625 31.203125 
L 5.5625 39.40625 
L 52.828125 39.40625 
z
" id="ArialMT-8722"/>
      </defs>
      <g transform="translate(29.5912 198.49078)scale(0.1056 -0.1056)">
       <use transform="translate(0 0.201563)" xlink:href="#ArialMT-49"/>
       <use transform="translate(55.615234 0.201563)" xlink:href="#ArialMT-48"/>
       <use transform="translate(112.972813 69.895313)scale(0.7)" xlink:href="#ArialMT-8722"/>
       <use transform="translate(153.851719 69.895313)scale(0.7)" xlink:href="#ArialMT-52"/>
      </g>
     </g>
    </g>
    <g id="ytick_2">
     <g id="line2d_19">
      <g>
       <use style="stroke:#000000;" x="54" xlink:href="#mde91f8f645" y="94.227435"/>
      </g>
     </g>
     <g id="line2d_20">
      <g>
       <use style="stroke:#000000;" x="388.8" xlink:href="#m4112790dd7" y="94.227435"/>
      </g>
     </g>
     <g id="text_11">
      <!-- $\mathdefault{10^{-3}}$ -->
      <defs>
       <path d="M 4.203125 18.890625 
L 12.984375 20.0625 
Q 14.5 12.59375 18.140625 9.296875 
Q 21.78125 6 27 6 
Q 33.203125 6 37.46875 10.296875 
Q 41.75 14.59375 41.75 20.953125 
Q 41.75 27 37.796875 30.921875 
Q 33.84375 34.859375 27.734375 34.859375 
Q 25.25 34.859375 21.53125 33.890625 
L 22.515625 41.609375 
Q 23.390625 41.5 23.921875 41.5 
Q 29.546875 41.5 34.03125 44.421875 
Q 38.53125 47.359375 38.53125 53.46875 
Q 38.53125 58.296875 35.25 61.46875 
Q 31.984375 64.65625 26.8125 64.65625 
Q 21.6875 64.65625 18.265625 61.421875 
Q 14.84375 58.203125 13.875 51.765625 
L 5.078125 53.328125 
Q 6.6875 62.15625 12.390625 67.015625 
Q 18.109375 71.875 26.609375 71.875 
Q 32.46875 71.875 37.390625 69.359375 
Q 42.328125 66.84375 44.9375 62.5 
Q 47.5625 58.15625 47.5625 53.265625 
Q 47.5625 48.640625 45.0625 44.828125 
Q 42.578125 41.015625 37.703125 38.765625 
Q 44.046875 37.3125 47.5625 32.6875 
Q 51.078125 28.078125 51.078125 21.140625 
Q 51.078125 11.765625 44.234375 5.25 
Q 37.40625 -1.265625 26.953125 -1.265625 
Q 17.53125 -1.265625 11.296875 4.34375 
Q 5.078125 9.96875 4.203125 18.890625 
z
" id="ArialMT-51"/>
      </defs>
      <g transform="translate(29.5912 99.672435)scale(0.1056 -0.1056)">
       <use transform="translate(0 0.99375)" xlink:href="#ArialMT-49"/>
       <use transform="translate(55.615234 0.99375)" xlink:href="#ArialMT-48"/>
       <use transform="translate(112.972813 70.6875)scale(0.7)" xlink:href="#ArialMT-8722"/>
       <use transform="translate(153.851719 70.6875)scale(0.7)" xlink:href="#ArialMT-51"/>
      </g>
     </g>
    </g>
    <g id="ytick_3">
     <g id="line2d_21">
      <defs>
       <path d="M 0 0 
L 3.2 0 
" id="m80a8ea8051" style="stroke:#000000;stroke-width:0.8;"/>
      </defs>
      <g>
       <use style="stroke:#000000;stroke-width:0.8;" x="54" xlink:href="#m80a8ea8051" y="244.7962"/>
      </g>
     </g>
     <g id="line2d_22">
      <defs>
       <path d="M 0 0 
L -3.2 0 
" id="mf868a97f48" style="stroke:#000000;stroke-width:0.8;"/>
      </defs>
      <g>
       <use style="stroke:#000000;stroke-width:0.8;" x="388.8" xlink:href="#mf868a97f48" y="244.7962"/>
      </g>
     </g>
    </g>
    <g id="ytick_4">
     <g id="line2d_23">
      <g>
       <use style="stroke:#000000;stroke-width:0.8;" x="54" xlink:href="#m80a8ea8051" y="232.443364"/>
      </g>
     </g>
     <g id="line2d_24">
      <g>
       <use style="stroke:#000000;stroke-width:0.8;" x="388.8" xlink:href="#mf868a97f48" y="232.443364"/>
      </g>
     </g>
    </g>
    <g id="ytick_5">
     <g id="line2d_25">
      <g>
       <use style="stroke:#000000;stroke-width:0.8;" x="54" xlink:href="#m80a8ea8051" y="222.86176"/>
      </g>
     </g>
     <g id="line2d_26">
      <g>
       <use style="stroke:#000000;stroke-width:0.8;" x="388.8" xlink:href="#mf868a97f48" y="222.86176"/>
      </g>
     </g>
    </g>
    <g id="ytick_6">
     <g id="line2d_27">
      <g>
       <use style="stroke:#000000;stroke-width:0.8;" x="54" xlink:href="#m80a8ea8051" y="215.03302"/>
      </g>
     </g>
     <g id="line2d_28">
      <g>
       <use style="stroke:#000000;stroke-width:0.8;" x="388.8" xlink:href="#mf868a97f48" y="215.03302"/>
      </g>
     </g>
    </g>
    <g id="ytick_7">
     <g id="line2d_29">
      <g>
       <use style="stroke:#000000;stroke-width:0.8;" x="54" xlink:href="#m80a8ea8051" y="208.413914"/>
      </g>
     </g>
     <g id="line2d_30">
      <g>
       <use style="stroke:#000000;stroke-width:0.8;" x="388.8" xlink:href="#mf868a97f48" y="208.413914"/>
      </g>
     </g>
    </g>
    <g id="ytick_8">
     <g id="line2d_31">
      <g>
       <use style="stroke:#000000;stroke-width:0.8;" x="54" xlink:href="#m80a8ea8051" y="202.680184"/>
      </g>
     </g>
     <g id="line2d_32">
      <g>
       <use style="stroke:#000000;stroke-width:0.8;" x="388.8" xlink:href="#mf868a97f48" y="202.680184"/>
      </g>
     </g>
    </g>
    <g id="ytick_9">
     <g id="line2d_33">
      <g>
       <use style="stroke:#000000;stroke-width:0.8;" x="54" xlink:href="#m80a8ea8051" y="197.622675"/>
      </g>
     </g>
     <g id="line2d_34">
      <g>
       <use style="stroke:#000000;stroke-width:0.8;" x="388.8" xlink:href="#mf868a97f48" y="197.622675"/>
      </g>
     </g>
    </g>
    <g id="ytick_10">
     <g id="line2d_35">
      <g>
       <use style="stroke:#000000;stroke-width:0.8;" x="54" xlink:href="#m80a8ea8051" y="163.3354"/>
      </g>
     </g>
     <g id="line2d_36">
      <g>
       <use style="stroke:#000000;stroke-width:0.8;" x="388.8" xlink:href="#mf868a97f48" y="163.3354"/>
      </g>
     </g>
    </g>
    <g id="ytick_11">
     <g id="line2d_37">
      <g>
       <use style="stroke:#000000;stroke-width:0.8;" x="54" xlink:href="#m80a8ea8051" y="145.925055"/>
      </g>
     </g>
     <g id="line2d_38">
      <g>
       <use style="stroke:#000000;stroke-width:0.8;" x="388.8" xlink:href="#mf868a97f48" y="145.925055"/>
      </g>
     </g>
    </g>
    <g id="ytick_12">
     <g id="line2d_39">
      <g>
       <use style="stroke:#000000;stroke-width:0.8;" x="54" xlink:href="#m80a8ea8051" y="133.572219"/>
      </g>
     </g>
     <g id="line2d_40">
      <g>
       <use style="stroke:#000000;stroke-width:0.8;" x="388.8" xlink:href="#mf868a97f48" y="133.572219"/>
      </g>
     </g>
    </g>
    <g id="ytick_13">
     <g id="line2d_41">
      <g>
       <use style="stroke:#000000;stroke-width:0.8;" x="54" xlink:href="#m80a8ea8051" y="123.990615"/>
      </g>
     </g>
     <g id="line2d_42">
      <g>
       <use style="stroke:#000000;stroke-width:0.8;" x="388.8" xlink:href="#mf868a97f48" y="123.990615"/>
      </g>
     </g>
    </g>
    <g id="ytick_14">
     <g id="line2d_43">
      <g>
       <use style="stroke:#000000;stroke-width:0.8;" x="54" xlink:href="#m80a8ea8051" y="116.161875"/>
      </g>
     </g>
     <g id="line2d_44">
      <g>
       <use style="stroke:#000000;stroke-width:0.8;" x="388.8" xlink:href="#mf868a97f48" y="116.161875"/>
      </g>
     </g>
    </g>
    <g id="ytick_15">
     <g id="line2d_45">
      <g>
       <use style="stroke:#000000;stroke-width:0.8;" x="54" xlink:href="#m80a8ea8051" y="109.542769"/>
      </g>
     </g>
     <g id="line2d_46">
      <g>
       <use style="stroke:#000000;stroke-width:0.8;" x="388.8" xlink:href="#mf868a97f48" y="109.542769"/>
      </g>
     </g>
    </g>
    <g id="ytick_16">
     <g id="line2d_47">
      <g>
       <use style="stroke:#000000;stroke-width:0.8;" x="54" xlink:href="#m80a8ea8051" y="103.809039"/>
      </g>
     </g>
     <g id="line2d_48">
      <g>
       <use style="stroke:#000000;stroke-width:0.8;" x="388.8" xlink:href="#mf868a97f48" y="103.809039"/>
      </g>
     </g>
    </g>
    <g id="ytick_17">
     <g id="line2d_49">
      <g>
       <use style="stroke:#000000;stroke-width:0.8;" x="54" xlink:href="#m80a8ea8051" y="98.75153"/>
      </g>
     </g>
     <g id="line2d_50">
      <g>
       <use style="stroke:#000000;stroke-width:0.8;" x="388.8" xlink:href="#mf868a97f48" y="98.75153"/>
      </g>
     </g>
    </g>
    <g id="ytick_18">
     <g id="line2d_51">
      <g>
       <use style="stroke:#000000;stroke-width:0.8;" x="54" xlink:href="#m80a8ea8051" y="64.464254"/>
      </g>
     </g>
     <g id="line2d_52">
      <g>
       <use style="stroke:#000000;stroke-width:0.8;" x="388.8" xlink:href="#mf868a97f48" y="64.464254"/>
      </g>
     </g>
    </g>
    <g id="ytick_19">
     <g id="line2d_53">
      <g>
       <use style="stroke:#000000;stroke-width:0.8;" x="54" xlink:href="#m80a8ea8051" y="47.05391"/>
      </g>
     </g>
     <g id="line2d_54">
      <g>
       <use style="stroke:#000000;stroke-width:0.8;" x="388.8" xlink:href="#mf868a97f48" y="47.05391"/>
      </g>
     </g>
    </g>
    <g id="ytick_20">
     <g id="line2d_55">
      <g>
       <use style="stroke:#000000;stroke-width:0.8;" x="54" xlink:href="#m80a8ea8051" y="34.701074"/>
      </g>
     </g>
     <g id="line2d_56">
      <g>
       <use style="stroke:#000000;stroke-width:0.8;" x="388.8" xlink:href="#mf868a97f48" y="34.701074"/>
      </g>
     </g>
    </g>
    <g id="text_12">
     <!-- IGD -->
     <defs>
      <path d="M 9.328125 0 
L 9.328125 71.578125 
L 18.796875 71.578125 
L 18.796875 0 
z
" id="ArialMT-73"/>
      <path d="M 7.71875 0 
L 7.71875 71.578125 
L 32.375 71.578125 
Q 40.71875 71.578125 45.125 70.5625 
Q 51.265625 69.140625 55.609375 65.4375 
Q 61.28125 60.640625 64.078125 53.1875 
Q 66.890625 45.75 66.890625 36.1875 
Q 66.890625 28.03125 64.984375 21.734375 
Q 63.09375 15.4375 60.109375 11.296875 
Q 57.125 7.171875 53.578125 4.796875 
Q 50.046875 2.4375 45.046875 1.21875 
Q 40.046875 0 33.546875 0 
z
M 17.1875 8.453125 
L 32.46875 8.453125 
Q 39.546875 8.453125 43.578125 9.765625 
Q 47.609375 11.078125 50 13.484375 
Q 53.375 16.84375 55.25 22.53125 
Q 57.125 28.21875 57.125 36.328125 
Q 57.125 47.5625 53.4375 53.59375 
Q 49.75 59.625 44.484375 61.671875 
Q 40.671875 63.140625 32.234375 63.140625 
L 17.1875 63.140625 
z
" id="ArialMT-68"/>
     </defs>
     <g transform="translate(23.3016 155.6802)rotate(-90)scale(0.1152 -0.1152)">
      <use xlink:href="#ArialMT-73"/>
      <use x="27.783203" xlink:href="#ArialMT-71"/>
      <use x="105.566406" xlink:href="#ArialMT-68"/>
     </g>
    </g>
   </g>
   <g id="line2d_57">
    <path clip-path="url(#pdf13a07daa)" d="M 69.218182 50.363148 
L 69.421091 55.236372 
L 69.624 72.09879 
L 69.826909 73.535947 
L 70.029818 77.843952 
L 70.232727 78.719317 
L 70.435636 82.987575 
L 70.638545 114.862843 
L 71.044364 122.212296 
L 71.450182 111.029038 
L 71.653091 117.898959 
L 71.856 119.030366 
L 72.058909 111.515309 
L 72.261818 119.548626 
L 72.464727 119.715204 
L 72.667636 134.829186 
L 72.870545 133.882482 
L 73.073455 138.084534 
L 73.276364 137.194883 
L 73.682182 141.394816 
L 74.088 145.749347 
L 74.290909 146.148595 
L 74.696727 148.709233 
L 74.899636 150.102927 
L 75.102545 153.102234 
L 75.305455 154.315675 
L 75.711273 158.301899 
L 75.914182 162.607959 
L 76.117091 161.337698 
L 76.32 149.486626 
L 76.522909 145.607806 
L 77.537455 156.657823 
L 77.740364 161.490592 
L 77.943273 162.355118 
L 78.146182 165.055382 
L 78.349091 165.453322 
L 79.160727 168.409893 
L 79.566545 170.24513 
L 79.972364 162.954469 
L 80.175273 164.916847 
L 80.378182 165.556274 
L 80.581091 166.617926 
L 80.784 166.995948 
L 80.986909 166.991243 
L 81.392727 167.567229 
L 82.001455 167.765998 
L 82.204364 168.000613 
L 82.407273 169.569272 
L 82.610182 186.886289 
L 82.813091 183.972381 
L 83.016 184.607608 
L 83.421818 186.695059 
L 83.624727 185.796327 
L 83.827636 186.335784 
L 84.030545 186.212626 
L 84.233455 187.036571 
L 84.436364 190.221276 
L 84.639273 191.583787 
L 85.045091 192.510038 
L 85.248 192.105847 
L 85.450909 192.440495 
L 85.653818 192.99154 
L 86.059636 193.242103 
L 86.465455 193.932992 
L 86.871273 194.508432 
L 87.074182 194.266518 
L 87.277091 194.344097 
L 87.48 192.72782 
L 87.885818 193.856948 
L 88.088727 193.45096 
L 88.291636 194.30727 
L 88.494545 194.288131 
L 89.103273 194.814714 
L 89.509091 202.437516 
L 89.712 200.409308 
L 89.914909 201.445553 
L 90.117818 201.466814 
L 90.320727 207.982175 
L 90.523636 206.194419 
L 90.726545 206.369258 
L 91.132364 207.652409 
L 91.538182 209.252394 
L 91.741091 209.058403 
L 91.944 209.086108 
L 92.349818 210.936852 
L 92.958545 211.801616 
L 93.161455 212.537481 
L 93.770182 213.189365 
L 93.973091 214.374399 
L 94.176 216.617837 
L 94.378909 214.726873 
L 94.581818 216.71426 
L 94.784727 214.784026 
L 94.987636 214.326339 
L 95.190545 214.537244 
L 95.393455 215.933317 
L 95.596364 218.490319 
L 95.799273 218.140283 
L 96.002182 218.751 
L 96.408 222.946372 
L 96.610909 223.30078 
L 96.813818 223.124887 
L 97.016727 223.155233 
L 97.219636 224.315942 
L 97.422545 224.513461 
L 97.828364 225.298143 
L 98.234182 225.207672 
L 98.437091 226.162757 
L 98.64 226.073259 
L 98.842909 232.292986 
L 99.045818 221.813857 
L 99.248727 223.737096 
L 99.451636 224.230453 
L 99.654545 225.37185 
L 100.669091 226.870868 
L 100.872 227.45852 
L 101.074909 228.71106 
L 101.277818 228.948122 
L 101.683636 230.020788 
L 101.886545 229.458686 
L 102.089455 230.538518 
L 102.292364 230.743213 
L 102.495273 232.329727 
L 102.698182 232.063792 
L 102.901091 234.258059 
L 103.104 234.347038 
L 103.306909 234.646089 
L 103.509818 233.768559 
L 103.712727 234.916042 
L 103.915636 235.003482 
L 104.321455 235.441647 
L 104.524364 235.475348 
L 104.727273 239.637767 
L 105.336 240.731208 
L 105.538909 240.770775 
L 105.741818 240.935536 
L 105.944727 241.62137 
L 106.147636 241.545836 
L 106.350545 240.470346 
L 106.553455 226.634078 
L 106.756364 228.1327 
L 106.959273 226.228997 
L 107.162182 213.484483 
L 107.365091 216.424682 
L 107.568 217.625973 
L 107.770909 221.252622 
L 107.973818 228.325195 
L 108.176727 231.344132 
L 108.379636 231.339436 
L 108.582545 232.064121 
L 108.785455 232.070946 
L 109.191273 235.419663 
L 109.597091 236.731341 
L 109.8 239.721777 
L 110.205818 240.349541 
L 110.408727 240.445876 
L 110.611636 241.143406 
L 110.814545 241.12864 
L 111.017455 241.675091 
L 111.220364 241.704145 
L 111.626182 242.252154 
L 112.234909 242.581398 
L 112.640727 241.922893 
L 112.843636 242.252917 
L 113.452364 242.332932 
L 113.655273 242.83751 
L 113.858182 242.999574 
L 114.264 243.036434 
L 114.669818 243.025494 
L 115.075636 243.317496 
L 115.278545 243.250446 
L 115.481455 243.394682 
L 115.887273 243.402967 
L 116.090182 243.550366 
L 116.293091 243.436265 
L 117.307636 243.664772 
L 117.713455 244.282864 
L 118.728 244.485996 
L 118.930909 239.599429 
L 119.133818 239.770529 
L 119.336727 238.220985 
L 119.539636 238.230126 
L 119.742545 238.575781 
L 119.945455 239.906 
L 120.148364 240.408635 
L 120.554182 240.520378 
L 120.757091 240.755949 
L 120.96 241.59273 
L 121.162909 241.691343 
L 121.365818 241.55888 
L 121.568727 242.03188 
L 121.771636 241.891077 
L 122.177455 242.114365 
L 122.380364 242.517498 
L 122.786182 242.367225 
L 122.989091 242.898399 
L 123.192 242.894362 
L 123.394909 244.191316 
L 124.206545 244.671847 
L 124.409455 244.907456 
L 125.424 244.88443 
L 126.032727 245.315584 
L 126.641455 245.221016 
L 126.844364 245.482877 
L 127.858909 245.451931 
L 128.670545 245.490236 
L 129.482182 245.610002 
L 129.888 245.747042 
L 130.293818 245.778683 
L 130.496727 245.940988 
L 131.105455 245.976288 
L 131.511273 246.052369 
L 133.337455 246.117897 
L 133.743273 246.215924 
L 134.757818 246.225039 
L 141.048 246.214004 
L 373.581818 246.214004 
L 373.581818 246.214004 
" style="fill:none;stroke:#023eff;stroke-linecap:round;stroke-width:1.2;"/>
    <defs>
     <path d="M 0 2.4 
C 0.636487 2.4 1.246992 2.147121 1.697056 1.697056 
C 2.147121 1.246992 2.4 0.636487 2.4 0 
C 2.4 -0.636487 2.147121 -1.246992 1.697056 -1.697056 
C 1.246992 -2.147121 0.636487 -2.4 0 -2.4 
C -0.636487 -2.4 -1.246992 -2.147121 -1.697056 -1.697056 
C -2.147121 -1.246992 -2.4 -0.636487 -2.4 0 
C -2.4 0.636487 -2.147121 1.246992 -1.697056 1.697056 
C -1.246992 2.147121 -0.636487 2.4 0 2.4 
z
" id="m4011a3b5e9" style="stroke:#023eff;"/>
    </defs>
    <g clip-path="url(#pdf13a07daa)">
     <use style="fill-opacity:0;stroke:#023eff;" x="69.218182" xlink:href="#m4011a3b5e9" y="50.363148"/>
     <use style="fill-opacity:0;stroke:#023eff;" x="109.8" xlink:href="#m4011a3b5e9" y="239.721777"/>
     <use style="fill-opacity:0;stroke:#023eff;" x="150.381818" xlink:href="#m4011a3b5e9" y="246.214004"/>
     <use style="fill-opacity:0;stroke:#023eff;" x="190.963636" xlink:href="#m4011a3b5e9" y="246.214004"/>
     <use style="fill-opacity:0;stroke:#023eff;" x="231.545455" xlink:href="#m4011a3b5e9" y="246.214004"/>
     <use style="fill-opacity:0;stroke:#023eff;" x="272.127273" xlink:href="#m4011a3b5e9" y="246.214004"/>
     <use style="fill-opacity:0;stroke:#023eff;" x="312.709091" xlink:href="#m4011a3b5e9" y="246.214004"/>
     <use style="fill-opacity:0;stroke:#023eff;" x="353.290909" xlink:href="#m4011a3b5e9" y="246.214004"/>
    </g>
   </g>
   <g id="line2d_58">
    <path clip-path="url(#pdf13a07daa)" d="M 69.218182 45.140598 
L 69.421091 48.40906 
L 69.624 55.729139 
L 69.826909 57.462681 
L 70.029818 55.039973 
L 70.232727 54.297309 
L 70.435636 54.076748 
L 70.638545 54.211388 
L 70.841455 55.887384 
L 71.044364 55.891941 
L 71.247273 62.98911 
L 71.450182 63.219596 
L 71.653091 67.677778 
L 71.856 66.298295 
L 72.058909 72.243902 
L 72.261818 72.814147 
L 72.667636 72.872128 
L 72.870545 73.98325 
L 73.073455 73.043985 
L 73.276364 81.861872 
L 73.479273 82.813284 
L 73.682182 83.056839 
L 73.885091 85.814046 
L 74.088 86.053777 
L 74.290909 84.088605 
L 74.493818 90.504129 
L 74.899636 90.922071 
L 75.102545 90.742508 
L 75.508364 98.803868 
L 75.711273 98.54537 
L 75.914182 102.513826 
L 76.117091 103.886101 
L 76.32 109.674001 
L 76.522909 109.890599 
L 76.725818 109.924294 
L 76.928727 110.606353 
L 77.131636 110.6007 
L 77.537455 115.572859 
L 77.740364 115.646169 
L 77.943273 119.209242 
L 78.146182 119.143824 
L 78.349091 122.368438 
L 78.552 123.265524 
L 78.754909 123.376323 
L 78.957818 123.643291 
L 79.160727 123.675191 
L 79.363636 141.785284 
L 79.769455 144.516559 
L 79.972364 145.188738 
L 80.175273 147.592693 
L 80.378182 148.198996 
L 80.581091 151.346827 
L 80.986909 154.05648 
L 81.595636 159.562097 
L 82.001455 159.859181 
L 82.204364 159.45416 
L 82.407273 161.146621 
L 82.813091 162.24114 
L 83.016 162.437109 
L 83.218909 164.018353 
L 83.624727 165.129572 
L 83.827636 168.921104 
L 84.030545 169.373762 
L 84.233455 172.377256 
L 84.436364 173.316079 
L 84.639273 177.502816 
L 84.842182 179.045519 
L 85.045091 179.638757 
L 85.248 178.590432 
L 85.450909 179.959696 
L 85.653818 178.70206 
L 85.856727 181.559068 
L 86.465455 183.496659 
L 86.668364 184.736801 
L 87.277091 186.553944 
L 87.48 186.086325 
L 87.682909 188.674819 
L 88.494545 191.452593 
L 88.697455 191.896016 
L 89.306182 195.634207 
L 89.509091 195.82722 
L 89.712 196.914292 
L 89.914909 197.267456 
L 90.117818 197.898908 
L 90.320727 199.345089 
L 90.523636 199.442563 
L 90.726545 199.395887 
L 90.929455 199.023541 
L 91.132364 200.184045 
L 91.335273 199.972152 
L 91.741091 204.300981 
L 92.146909 204.817412 
L 92.958545 207.152987 
L 93.364364 207.79653 
L 93.567273 208.459862 
L 93.770182 208.578294 
L 94.176 209.849742 
L 94.581818 210.186366 
L 94.784727 211.139884 
L 94.987636 211.552524 
L 95.190545 212.262679 
L 95.393455 216.903785 
L 95.596364 211.276014 
L 95.799273 209.777367 
L 96.002182 210.202019 
L 96.205091 209.842831 
L 96.610909 203.154377 
L 96.813818 186.316087 
L 97.016727 187.33563 
L 97.219636 189.023474 
L 97.625455 194.317618 
L 97.828364 194.717349 
L 98.437091 203.373625 
L 98.64 204.142522 
L 98.842909 205.735944 
L 99.045818 206.241788 
L 99.248727 208.460011 
L 99.451636 208.3358 
L 99.857455 209.998744 
L 100.060364 210.209168 
L 100.263273 210.647048 
L 100.466182 210.676696 
L 100.669091 210.94443 
L 100.872 209.019102 
L 101.074909 209.201715 
L 101.277818 209.208806 
L 101.480727 209.575245 
L 101.683636 207.217775 
L 102.089455 211.175121 
L 102.292364 211.723267 
L 102.495273 211.173393 
L 102.901091 211.447717 
L 103.306909 211.994447 
L 103.509818 211.714904 
L 103.712727 211.980522 
L 103.915636 212.528708 
L 104.118545 213.759041 
L 104.321455 213.900801 
L 104.524364 214.222733 
L 104.727273 214.312732 
L 104.930182 214.747668 
L 105.133091 214.772288 
L 105.336 215.01249 
L 105.944727 214.964738 
L 106.959273 215.558242 
L 107.162182 215.905192 
L 107.365091 216.637097 
L 107.568 216.413666 
L 107.770909 216.43796 
L 107.973818 216.333874 
L 108.176727 216.617443 
L 108.379636 216.651746 
L 108.582545 216.381475 
L 108.785455 216.639707 
L 109.394182 216.836852 
L 109.597091 217.457394 
L 110.002909 217.680428 
L 110.611636 217.926643 
L 110.814545 225.68033 
L 111.017455 217.989402 
L 111.220364 216.569312 
L 111.423273 217.141037 
L 111.626182 216.194341 
L 111.829091 217.631024 
L 112.032 217.566079 
L 112.234909 219.333155 
L 112.437818 219.883187 
L 112.640727 218.251914 
L 112.843636 221.301473 
L 113.249455 221.871001 
L 113.452364 221.098719 
L 113.655273 224.63649 
L 114.061091 225.171417 
L 114.264 226.134363 
L 114.669818 226.03715 
L 114.872727 226.394663 
L 115.278545 226.386622 
L 115.481455 230.186871 
L 116.090182 231.391849 
L 116.293091 229.002883 
L 116.496 217.785358 
L 116.901818 219.588716 
L 117.307636 215.660223 
L 117.510545 215.850113 
L 118.119273 219.07257 
L 118.322182 218.974607 
L 118.930909 221.793209 
L 119.133818 226.526507 
L 119.539636 227.287294 
L 119.742545 229.24251 
L 119.945455 229.330675 
L 120.148364 229.729238 
L 120.351273 229.821632 
L 120.554182 231.268363 
L 120.757091 233.598385 
L 120.96 234.361577 
L 121.162909 234.020462 
L 121.365818 233.167623 
L 121.568727 233.092712 
L 121.771636 233.481079 
L 122.177455 233.504817 
L 122.380364 233.667232 
L 122.583273 232.690272 
L 122.786182 232.934417 
L 122.989091 234.056308 
L 123.192 232.18539 
L 123.394909 232.697491 
L 123.597818 232.873596 
L 123.800727 232.36795 
L 124.409455 232.731094 
L 124.612364 233.519107 
L 124.815273 233.584734 
L 125.018182 234.278531 
L 125.424 234.300496 
L 125.626909 234.713651 
L 125.829818 233.896515 
L 126.032727 234.162735 
L 126.235636 236.366305 
L 126.438545 236.415145 
L 126.641455 236.171933 
L 127.047273 236.225222 
L 127.250182 235.647571 
L 127.453091 235.675359 
L 127.656 236.085293 
L 127.858909 236.048616 
L 128.061818 236.779545 
L 128.264727 236.788383 
L 128.467636 235.515883 
L 128.670545 235.548947 
L 128.873455 235.873122 
L 129.076364 237.083816 
L 129.888 237.241768 
L 130.090909 237.671932 
L 130.496727 237.861943 
L 130.699636 240.887133 
L 130.902545 240.953137 
L 131.105455 240.454791 
L 131.714182 240.827818 
L 132.525818 240.866274 
L 132.728727 241.107212 
L 133.743273 241.173653 
L 133.946182 241.322824 
L 135.366545 241.366206 
L 135.569455 242.786039 
L 135.975273 242.866514 
L 136.381091 243.062628 
L 136.786909 243.10337 
L 137.192727 243.21315 
L 138.613091 243.317093 
L 140.236364 243.495128 
L 141.250909 243.845493 
L 142.265455 243.947822 
L 142.874182 244.281727 
L 144.091636 244.362888 
L 145.714909 244.613949 
L 146.120727 244.76997 
L 147.338182 244.775429 
L 147.541091 244.988577 
L 152.816727 244.976846 
L 373.581818 244.976846 
L 373.581818 244.976846 
" style="fill:none;stroke:#1ac938;stroke-linecap:round;stroke-width:1.2;"/>
    <defs>
     <path d="M -0 2.4 
L 2.4 -2.4 
L -2.4 -2.4 
z
" id="ma4edafd800" style="stroke:#1ac938;stroke-linejoin:miter;"/>
    </defs>
    <g clip-path="url(#pdf13a07daa)">
     <use style="fill-opacity:0;stroke:#1ac938;stroke-linejoin:miter;" x="69.218182" xlink:href="#ma4edafd800" y="45.140598"/>
     <use style="fill-opacity:0;stroke:#1ac938;stroke-linejoin:miter;" x="109.8" xlink:href="#ma4edafd800" y="217.614142"/>
     <use style="fill-opacity:0;stroke:#1ac938;stroke-linejoin:miter;" x="150.381818" xlink:href="#ma4edafd800" y="244.976846"/>
     <use style="fill-opacity:0;stroke:#1ac938;stroke-linejoin:miter;" x="190.963636" xlink:href="#ma4edafd800" y="244.976846"/>
     <use style="fill-opacity:0;stroke:#1ac938;stroke-linejoin:miter;" x="231.545455" xlink:href="#ma4edafd800" y="244.976846"/>
     <use style="fill-opacity:0;stroke:#1ac938;stroke-linejoin:miter;" x="272.127273" xlink:href="#ma4edafd800" y="244.976846"/>
     <use style="fill-opacity:0;stroke:#1ac938;stroke-linejoin:miter;" x="312.709091" xlink:href="#ma4edafd800" y="244.976846"/>
     <use style="fill-opacity:0;stroke:#1ac938;stroke-linejoin:miter;" x="353.290909" xlink:href="#ma4edafd800" y="244.976846"/>
    </g>
   </g>
   <g id="line2d_59">
    <path clip-path="url(#pdf13a07daa)" d="M 69.218182 44.64 
L 69.421091 47.554236 
L 69.624 53.140236 
L 69.826909 55.124453 
L 70.029818 55.322128 
L 70.435636 57.585881 
L 70.638545 56.918934 
L 70.841455 62.401508 
L 71.044364 60.822086 
L 71.247273 61.468067 
L 71.450182 61.733812 
L 71.856 68.627519 
L 72.058909 73.748429 
L 72.261818 75.988927 
L 72.464727 76.658963 
L 72.870545 80.698497 
L 73.073455 87.53186 
L 73.276364 87.673814 
L 73.479273 87.537031 
L 73.682182 87.783609 
L 73.885091 91.495717 
L 74.088 92.882292 
L 74.290909 92.640643 
L 74.493818 92.786022 
L 74.899636 105.490363 
L 75.305455 104.1986 
L 75.508364 106.100918 
L 75.711273 106.334684 
L 75.914182 106.095617 
L 76.117091 109.35494 
L 76.32 109.657385 
L 76.928727 111.210147 
L 77.334545 113.520235 
L 77.537455 113.324376 
L 77.943273 114.429958 
L 78.349091 113.277798 
L 79.160727 115.712484 
L 79.363636 118.718472 
L 79.769455 129.243374 
L 79.972364 130.082845 
L 80.175273 133.188662 
L 80.581091 135.428143 
L 80.986909 139.099596 
L 81.189818 138.634307 
L 81.392727 138.58986 
L 81.595636 138.924059 
L 81.798545 142.227904 
L 82.001455 142.896582 
L 82.204364 143.971186 
L 82.407273 148.355542 
L 82.610182 149.143495 
L 82.813091 149.413783 
L 83.016 152.27123 
L 83.218909 157.661266 
L 83.624727 160.253456 
L 84.436364 171.328073 
L 84.639273 168.976151 
L 85.248 181.016797 
L 85.450909 184.753634 
L 85.653818 184.795308 
L 86.262545 196.484271 
L 86.465455 197.668854 
L 86.668364 199.511893 
L 86.871273 200.24959 
L 87.48 205.266321 
L 87.682909 205.275122 
L 88.291636 213.134321 
L 88.900364 214.449169 
L 89.103273 214.541369 
L 89.306182 217.449348 
L 89.509091 217.295394 
L 89.712 217.726963 
L 89.914909 217.463453 
L 90.117818 217.571756 
L 90.523636 219.242166 
L 90.726545 219.51937 
L 90.929455 219.462813 
L 91.132364 217.095013 
L 91.335273 217.399852 
L 91.538182 217.351783 
L 91.944 197.885395 
L 92.146909 198.423869 
L 92.755636 200.70287 
L 92.958545 198.250391 
L 93.161455 209.858723 
L 93.364364 209.88812 
L 93.567273 211.295243 
L 93.973091 212.784238 
L 94.378909 216.321931 
L 94.784727 217.603374 
L 94.987636 217.964309 
L 95.190545 218.805085 
L 95.393455 219.116638 
L 95.596364 221.249785 
L 95.799273 222.194562 
L 96.002182 222.082684 
L 96.205091 222.366562 
L 96.408 224.326554 
L 96.610909 224.75189 
L 96.813818 225.992698 
L 97.219636 226.211013 
L 97.422545 226.887031 
L 97.625455 227.14832 
L 97.828364 227.213586 
L 98.031273 227.633464 
L 98.234182 226.775416 
L 98.437091 227.187858 
L 98.64 227.897164 
L 99.045818 228.025688 
L 99.248727 228.47745 
L 99.451636 228.543957 
L 99.654545 226.753021 
L 99.857455 219.36172 
L 100.060364 221.709008 
L 100.466182 220.747216 
L 100.669091 223.168634 
L 100.872 223.447633 
L 101.074909 224.639808 
L 101.277818 224.886008 
L 101.480727 225.53254 
L 101.683636 225.574498 
L 101.886545 230.598107 
L 102.089455 231.002191 
L 102.698182 229.924653 
L 102.901091 230.364427 
L 103.306909 230.397044 
L 103.712727 231.076613 
L 103.915636 230.305967 
L 104.118545 230.978644 
L 104.524364 230.909144 
L 104.727273 231.702412 
L 104.930182 231.702412 
L 105.133091 231.444987 
L 105.336 232.299571 
L 105.944727 232.780479 
L 106.147636 232.627832 
L 106.350545 232.773504 
L 106.756364 232.762486 
L 106.959273 234.102396 
L 107.365091 234.130081 
L 107.568 233.994999 
L 107.770909 235.776837 
L 107.973818 214.881912 
L 108.176727 214.259454 
L 108.379636 216.137005 
L 108.582545 222.1292 
L 109.394182 228.734269 
L 109.597091 229.182338 
L 109.8 229.319205 
L 110.205818 231.059855 
L 110.408727 231.230603 
L 110.611636 231.20546 
L 110.814545 231.385719 
L 111.017455 232.168602 
L 111.423273 232.407711 
L 111.626182 232.528962 
L 111.829091 233.081986 
L 112.032 232.211631 
L 112.234909 232.234748 
L 112.437818 231.833469 
L 112.843636 231.838667 
L 113.249455 235.842648 
L 113.452364 235.845791 
L 113.655273 236.099864 
L 113.858182 235.544884 
L 114.061091 235.403962 
L 114.264 234.673191 
L 114.466909 234.963002 
L 114.872727 234.884817 
L 115.075636 234.871378 
L 115.278545 235.844489 
L 115.481455 235.883122 
L 115.684364 236.660333 
L 115.887273 236.731994 
L 116.090182 236.581778 
L 116.293091 236.815701 
L 116.496 237.752334 
L 116.698909 237.752642 
L 117.104727 237.983615 
L 117.307636 238.048811 
L 117.713455 236.987653 
L 117.916364 237.000241 
L 118.119273 238.142497 
L 118.322182 238.497438 
L 118.525091 239.993829 
L 118.728 240.581358 
L 119.133818 240.626689 
L 119.336727 241.119224 
L 119.742545 241.25979 
L 119.945455 241.454926 
L 120.351273 241.413685 
L 120.554182 241.573308 
L 121.365818 241.661045 
L 121.771636 241.72608 
L 122.583273 241.645881 
L 122.786182 241.222848 
L 123.394909 241.232993 
L 123.597818 241.530217 
L 124.003636 241.610894 
L 124.409455 241.721274 
L 124.815273 241.629277 
L 128.873455 241.946599 
L 129.279273 242.476703 
L 130.293818 242.628233 
L 131.308364 242.652513 
L 373.581818 242.728906 
L 373.581818 242.728906 
" style="fill:none;stroke:#e8000b;stroke-linecap:round;stroke-width:1.2;"/>
    <defs>
     <path d="M 0 -2.4 
L -2.4 2.4 
L 2.4 2.4 
z
" id="m89956c5f56" style="stroke:#e8000b;stroke-linejoin:miter;"/>
    </defs>
    <g clip-path="url(#pdf13a07daa)">
     <use style="fill-opacity:0;stroke:#e8000b;stroke-linejoin:miter;" x="69.218182" xlink:href="#m89956c5f56" y="44.64"/>
     <use style="fill-opacity:0;stroke:#e8000b;stroke-linejoin:miter;" x="109.8" xlink:href="#m89956c5f56" y="229.319205"/>
     <use style="fill-opacity:0;stroke:#e8000b;stroke-linejoin:miter;" x="150.381818" xlink:href="#m89956c5f56" y="242.728906"/>
     <use style="fill-opacity:0;stroke:#e8000b;stroke-linejoin:miter;" x="190.963636" xlink:href="#m89956c5f56" y="242.728906"/>
     <use style="fill-opacity:0;stroke:#e8000b;stroke-linejoin:miter;" x="231.545455" xlink:href="#m89956c5f56" y="242.728906"/>
     <use style="fill-opacity:0;stroke:#e8000b;stroke-linejoin:miter;" x="272.127273" xlink:href="#m89956c5f56" y="242.728906"/>
     <use style="fill-opacity:0;stroke:#e8000b;stroke-linejoin:miter;" x="312.709091" xlink:href="#m89956c5f56" y="242.728906"/>
     <use style="fill-opacity:0;stroke:#e8000b;stroke-linejoin:miter;" x="353.290909" xlink:href="#m89956c5f56" y="242.728906"/>
    </g>
   </g>
   <g id="line2d_60">
    <path clip-path="url(#pdf13a07daa)" d="M 69.218182 46.985493 
L 69.421091 49.852493 
L 69.624 49.674148 
L 69.826909 55.422309 
L 70.029818 55.601181 
L 70.232727 57.493938 
L 70.435636 60.645587 
L 70.638545 66.229273 
L 70.841455 77.897332 
L 71.044364 80.255058 
L 71.247273 87.166198 
L 71.450182 82.529983 
L 71.653091 83.143925 
L 71.856 81.203865 
L 72.058909 87.104054 
L 72.261818 86.0052 
L 72.464727 88.05384 
L 72.667636 88.088481 
L 72.870545 87.191054 
L 73.073455 87.544232 
L 73.276364 88.227521 
L 73.479273 88.307855 
L 73.885091 91.463132 
L 74.088 91.177097 
L 75.102545 91.538794 
L 75.305455 91.790772 
L 75.508364 93.137746 
L 75.711273 93.204857 
L 75.914182 94.99028 
L 77.537455 95.288133 
L 77.740364 95.534679 
L 78.146182 95.560726 
L 78.349091 95.924194 
L 78.552 96.72255 
L 78.957818 96.795689 
L 79.160727 106.156941 
L 79.972364 106.8004 
L 80.378182 112.505773 
L 80.581091 113.274828 
L 80.986909 113.47568 
L 81.189818 113.939849 
L 81.392727 113.994912 
L 81.798545 121.773182 
L 82.610182 122.450869 
L 82.813091 124.149893 
L 83.016 129.280104 
L 83.218909 129.42295 
L 83.421818 141.155256 
L 83.827636 143.368506 
L 84.030545 143.528903 
L 84.233455 150.49408 
L 84.639273 152.791913 
L 84.842182 153.681569 
L 85.248 154.135903 
L 85.450909 156.964922 
L 85.653818 166.924772 
L 85.856727 167.826784 
L 86.262545 169.92942 
L 86.668364 171.080241 
L 86.871273 171.599767 
L 87.48 172.036743 
L 87.682909 172.434172 
L 87.885818 172.560704 
L 88.291636 173.251078 
L 89.103273 173.391132 
L 89.306182 173.58715 
L 90.523636 173.735191 
L 91.741091 173.954225 
L 92.552727 174.117152 
L 92.755636 174.108802 
L 92.958545 181.503808 
L 93.161455 179.947318 
L 93.364364 180.126936 
L 93.567273 181.206171 
L 93.973091 181.600833 
L 95.799273 182.318883 
L 96.610909 182.42896 
L 96.813818 183.079561 
L 97.219636 183.097311 
L 97.422545 178.870586 
L 97.625455 179.646517 
L 98.031273 181.829945 
L 98.234182 182.102111 
L 98.64 185.508371 
L 98.842909 186.107782 
L 99.045818 186.211464 
L 99.248727 186.59689 
L 99.451636 186.641832 
L 99.654545 187.025979 
L 100.263273 187.238762 
L 102.292364 187.592141 
L 102.495273 187.780868 
L 102.698182 187.769883 
L 102.901091 191.343255 
L 103.104 191.604992 
L 103.712727 191.127316 
L 104.118545 191.212909 
L 104.321455 192.203416 
L 104.524364 192.255502 
L 104.727273 192.587935 
L 105.336 192.645466 
L 105.538909 192.261766 
L 106.350545 192.352994 
L 106.756364 192.490964 
L 108.379636 192.678745 
L 108.582545 193.73011 
L 111.626182 193.796428 
L 112.843636 193.807207 
L 113.046545 194.232219 
L 115.481455 194.284282 
L 115.684364 206.052357 
L 115.887273 201.91299 
L 116.293091 203.117437 
L 116.698909 203.710724 
L 116.901818 204.840443 
L 117.104727 204.976807 
L 117.307636 207.987359 
L 117.713455 208.334646 
L 117.916364 209.441684 
L 118.322182 209.477358 
L 118.728 209.773489 
L 119.133818 209.827089 
L 119.539636 209.814377 
L 120.148364 209.831783 
L 120.554182 209.931944 
L 120.96 210.17783 
L 122.786182 210.393571 
L 128.061818 210.466979 
L 128.264727 214.779566 
L 128.873455 214.396461 
L 130.090909 214.157544 
L 130.293818 214.370933 
L 130.699636 214.387027 
L 130.902545 214.609037 
L 131.511273 214.681139 
L 132.728727 214.682069 
L 132.931636 214.719101 
L 133.337455 214.5541 
L 133.743273 214.580342 
L 133.946182 220.015976 
L 134.149091 218.670358 
L 134.352 218.72652 
L 134.757818 218.999211 
L 134.960727 219.157683 
L 135.163636 219.13505 
L 135.366545 220.917991 
L 135.569455 221.078336 
L 135.772364 220.910092 
L 136.178182 221.132589 
L 136.381091 220.667003 
L 136.584 220.658188 
L 136.786909 221.452016 
L 137.395636 221.607404 
L 137.598545 223.110766 
L 138.410182 223.203332 
L 138.816 223.389908 
L 139.018909 229.400155 
L 139.221818 225.308813 
L 139.424727 225.400519 
L 140.236364 228.564659 
L 140.845091 232.46009 
L 141.048 232.978565 
L 141.250909 231.799823 
L 141.656727 234.319263 
L 142.062545 234.481218 
L 142.265455 235.735595 
L 142.468364 235.700508 
L 142.671273 235.443836 
L 142.874182 235.674247 
L 143.077091 236.076758 
L 143.888727 235.900778 
L 144.700364 235.972296 
L 145.106182 236.019986 
L 145.309091 236.565432 
L 145.512 235.694282 
L 146.729455 235.784002 
L 146.932364 237.848893 
L 147.338182 236.449304 
L 147.541091 236.666974 
L 147.744 236.72016 
L 147.946909 237.413523 
L 148.149818 237.067556 
L 148.352727 236.108805 
L 148.555636 236.271374 
L 148.961455 236.359542 
L 149.164364 236.629338 
L 149.570182 236.498238 
L 149.773091 236.608763 
L 149.976 237.269506 
L 150.381818 236.822714 
L 150.584727 235.84964 
L 150.787636 235.916271 
L 151.193455 236.165449 
L 151.396364 240.945002 
L 151.599273 241.806789 
L 151.802182 241.847411 
L 152.005091 239.224544 
L 152.410909 239.22818 
L 152.613818 240.145252 
L 153.019636 240.125803 
L 153.222545 242.780279 
L 153.425455 243.320919 
L 153.831273 243.332695 
L 154.034182 243.468892 
L 155.657455 243.579385 
L 155.860364 243.786133 
L 156.063273 243.798412 
L 156.266182 243.967763 
L 157.280727 243.869876 
L 157.483636 242.952456 
L 157.686545 243.721851 
L 157.889455 243.478065 
L 158.092364 242.798815 
L 158.295273 242.675556 
L 158.498182 243.343479 
L 158.904 243.311568 
L 159.309818 242.979091 
L 159.512727 242.209593 
L 159.918545 242.366767 
L 160.121455 242.711383 
L 160.527273 242.756589 
L 160.933091 242.652229 
L 161.136 245.012429 
L 373.581818 245.012429 
L 373.581818 245.012429 
" style="fill:none;stroke:#00d7ff;stroke-linecap:round;stroke-width:1.2;"/>
    <defs>
     <path d="M -2.4 2.4 
L 2.4 2.4 
L 2.4 -2.4 
L -2.4 -2.4 
z
" id="mf235b2ab89" style="stroke:#00d7ff;stroke-linejoin:miter;"/>
    </defs>
    <g clip-path="url(#pdf13a07daa)">
     <use style="fill-opacity:0;stroke:#00d7ff;stroke-linejoin:miter;" x="69.218182" xlink:href="#mf235b2ab89" y="46.985493"/>
     <use style="fill-opacity:0;stroke:#00d7ff;stroke-linejoin:miter;" x="109.8" xlink:href="#mf235b2ab89" y="193.75282"/>
     <use style="fill-opacity:0;stroke:#00d7ff;stroke-linejoin:miter;" x="150.381818" xlink:href="#mf235b2ab89" y="236.822714"/>
     <use style="fill-opacity:0;stroke:#00d7ff;stroke-linejoin:miter;" x="190.963636" xlink:href="#mf235b2ab89" y="245.012429"/>
     <use style="fill-opacity:0;stroke:#00d7ff;stroke-linejoin:miter;" x="231.545455" xlink:href="#mf235b2ab89" y="245.012429"/>
     <use style="fill-opacity:0;stroke:#00d7ff;stroke-linejoin:miter;" x="272.127273" xlink:href="#mf235b2ab89" y="245.012429"/>
     <use style="fill-opacity:0;stroke:#00d7ff;stroke-linejoin:miter;" x="312.709091" xlink:href="#mf235b2ab89" y="245.012429"/>
     <use style="fill-opacity:0;stroke:#00d7ff;stroke-linejoin:miter;" x="353.290909" xlink:href="#mf235b2ab89" y="245.012429"/>
    </g>
   </g>
   <g id="line2d_61">
    <path clip-path="url(#pdf13a07daa)" d="M 69.218182 46.133208 
L 69.421091 48.859806 
L 69.826909 48.893503 
L 70.232727 51.7218 
L 70.435636 51.829287 
L 70.638545 53.596154 
L 70.841455 52.514413 
L 71.044364 54.475562 
L 71.247273 54.962647 
L 71.653091 58.670898 
L 71.856 58.746774 
L 72.261818 60.974398 
L 72.464727 65.254119 
L 72.667636 65.338837 
L 72.870545 70.49839 
L 73.073455 71.500081 
L 73.276364 71.620117 
L 73.479273 72.945549 
L 73.682182 80.921181 
L 73.885091 81.211594 
L 74.088 79.700837 
L 74.493818 79.806064 
L 74.696727 82.310871 
L 75.102545 82.478241 
L 75.305455 84.23387 
L 75.711273 84.343385 
L 75.914182 84.993725 
L 76.117091 87.891864 
L 76.725818 88.08289 
L 76.928727 91.409893 
L 77.131636 92.341971 
L 77.334545 94.506819 
L 77.537455 100.100361 
L 77.943273 101.267631 
L 78.754909 101.559173 
L 78.957818 102.356901 
L 79.160727 102.37599 
L 79.363636 102.705167 
L 79.566545 106.119422 
L 79.769455 105.750629 
L 80.581091 105.962124 
L 80.784 106.444904 
L 81.189818 106.540302 
L 81.392727 109.148701 
L 81.595636 109.187161 
L 81.798545 109.959707 
L 82.001455 110.011593 
L 82.204364 110.531821 
L 82.407273 111.553532 
L 82.610182 111.572885 
L 82.813091 113.105578 
L 83.218909 113.080835 
L 83.421818 114.417947 
L 84.436364 114.534436 
L 84.639273 114.888277 
L 84.842182 116.066558 
L 85.653818 116.062351 
L 85.856727 117.774007 
L 86.465455 117.740746 
L 86.871273 126.491336 
L 87.074182 127.457488 
L 87.277091 127.43662 
L 87.48 132.575005 
L 87.885818 134.15766 
L 88.697455 134.140423 
L 88.900364 134.133495 
L 89.103273 136.76629 
L 89.306182 136.602425 
L 89.509091 136.786168 
L 89.712 137.289674 
L 89.914909 138.435484 
L 90.320727 138.353659 
L 90.523636 138.676383 
L 90.726545 138.620611 
L 91.132364 138.669263 
L 91.335273 139.199588 
L 92.146909 138.970914 
L 92.552727 139.050541 
L 92.755636 138.968434 
L 93.161455 139.152572 
L 93.364364 139.210638 
L 93.567273 139.047225 
L 94.176 139.27574 
L 94.378909 140.898337 
L 95.190545 141.017105 
L 95.393455 141.015555 
L 95.799273 141.142127 
L 96.002182 141.833141 
L 96.205091 145.959361 
L 96.610909 145.973358 
L 96.813818 147.494693 
L 97.016727 147.435285 
L 97.219636 148.209296 
L 97.625455 148.19567 
L 97.828364 148.217198 
L 98.031273 148.442112 
L 98.234182 148.494386 
L 98.437091 148.356478 
L 98.842909 148.539876 
L 99.248727 148.507781 
L 99.451636 148.85475 
L 99.654545 151.448139 
L 99.857455 151.872461 
L 100.060364 151.739114 
L 100.263273 151.927453 
L 100.466182 151.926646 
L 100.669091 152.489208 
L 101.277818 152.764679 
L 102.089455 152.745199 
L 102.495273 153.063537 
L 102.698182 152.898653 
L 103.104 152.979416 
L 103.306909 153.352178 
L 103.712727 153.175987 
L 103.915636 154.171348 
L 104.321455 154.221451 
L 104.524364 159.44841 
L 104.930182 159.143136 
L 105.133091 159.282549 
L 105.538909 159.268094 
L 105.741818 159.424939 
L 105.944727 162.569 
L 106.147636 162.429732 
L 106.350545 166.211361 
L 106.959273 165.879709 
L 107.365091 166.12076 
L 107.568 164.740353 
L 107.770909 164.864726 
L 107.973818 164.666626 
L 108.379636 164.888445 
L 108.582545 174.110849 
L 108.785455 175.136602 
L 108.988364 174.994542 
L 109.191273 175.06085 
L 109.394182 174.879878 
L 110.002909 175.234043 
L 110.205818 175.48379 
L 110.408727 175.300391 
L 110.611636 175.526032 
L 110.814545 175.531176 
L 111.017455 174.709106 
L 111.423273 174.972942 
L 111.829091 174.711712 
L 112.032 174.917009 
L 112.234909 174.79387 
L 112.437818 174.816167 
L 112.640727 174.338196 
L 113.249455 174.585219 
L 113.452364 176.868273 
L 113.858182 176.973786 
L 114.061091 176.745132 
L 114.466909 177.183883 
L 114.669818 176.669665 
L 115.075636 176.925879 
L 115.684364 176.521725 
L 115.887273 176.941584 
L 116.090182 181.111367 
L 116.293091 181.10818 
L 116.698909 181.489942 
L 116.901818 180.82962 
L 117.104727 181.368177 
L 117.307636 181.41926 
L 117.510545 181.142987 
L 117.713455 181.411831 
L 117.916364 182.023558 
L 118.119273 182.219496 
L 118.322182 181.782588 
L 118.525091 181.71584 
L 118.930909 182.7563 
L 119.133818 182.814111 
L 119.336727 182.606117 
L 119.539636 182.979492 
L 119.742545 182.781018 
L 119.945455 182.39199 
L 120.148364 182.748963 
L 120.554182 182.250935 
L 120.757091 182.646241 
L 120.96 181.901929 
L 121.162909 181.792286 
L 121.365818 182.742571 
L 121.771636 182.456664 
L 122.583273 183.984519 
L 122.786182 183.359439 
L 122.989091 183.201492 
L 123.192 184.279786 
L 123.394909 184.72805 
L 123.597818 184.881257 
L 124.003636 184.247516 
L 124.409455 184.733978 
L 124.612364 185.020893 
L 124.815273 184.553015 
L 125.018182 184.787721 
L 125.221091 184.579834 
L 125.424 184.116824 
L 125.829818 184.995633 
L 126.235636 185.327361 
L 126.438545 185.068454 
L 126.641455 185.075936 
L 126.844364 185.202813 
L 127.047273 185.187607 
L 127.250182 191.599196 
L 127.453091 190.635983 
L 127.656 190.819783 
L 127.858909 190.613133 
L 128.264727 191.517568 
L 128.467636 191.359631 
L 128.670545 196.737311 
L 128.873455 198.586125 
L 129.076364 198.864427 
L 129.279273 198.129841 
L 129.482182 203.170636 
L 129.685091 204.015255 
L 129.888 204.024106 
L 130.293818 204.391368 
L 130.496727 203.055649 
L 130.699636 203.415071 
L 130.902545 211.836206 
L 131.105455 212.149741 
L 131.308364 214.992682 
L 131.511273 213.794804 
L 131.714182 213.894974 
L 131.917091 211.243863 
L 132.12 216.077767 
L 132.525818 217.122351 
L 132.931636 217.779401 
L 133.134545 218.689475 
L 133.337455 216.921742 
L 133.743273 219.894557 
L 133.946182 219.14768 
L 134.149091 219.216381 
L 134.352 218.464885 
L 134.554909 219.95434 
L 134.757818 219.911417 
L 134.960727 218.921597 
L 135.163636 216.538026 
L 135.366545 217.184791 
L 135.569455 217.209834 
L 135.772364 216.449301 
L 135.975273 216.899046 
L 136.178182 219.212341 
L 136.381091 217.509217 
L 136.584 219.245953 
L 136.786909 218.541689 
L 136.989818 218.570291 
L 137.192727 218.09273 
L 137.395636 217.020385 
L 137.598545 214.968513 
L 138.004364 218.543103 
L 138.207273 217.593298 
L 138.410182 217.831903 
L 138.613091 219.450582 
L 138.816 218.960606 
L 139.018909 219.94784 
L 139.221818 219.809926 
L 139.424727 218.128139 
L 139.627636 218.093948 
L 140.033455 218.542651 
L 140.236364 219.124177 
L 140.439273 218.974048 
L 140.642182 219.538602 
L 140.845091 219.168575 
L 141.048 221.618873 
L 141.656727 220.012227 
L 142.062545 220.499758 
L 142.265455 219.839978 
L 142.468364 220.787994 
L 142.671273 222.277014 
L 143.077091 223.188811 
L 143.28 222.552549 
L 143.482909 221.446101 
L 143.685818 222.039811 
L 144.091636 221.515551 
L 144.294545 224.35015 
L 144.497455 224.565192 
L 144.700364 223.962983 
L 144.903273 224.144495 
L 145.106182 224.132036 
L 145.309091 223.944688 
L 145.512 224.513714 
L 145.714909 224.272963 
L 145.917818 225.182921 
L 146.120727 223.907017 
L 146.323636 223.882058 
L 146.526545 222.621171 
L 146.729455 223.263556 
L 146.932364 222.978064 
L 147.135273 223.215817 
L 147.338182 224.570793 
L 147.541091 223.697588 
L 147.744 224.946567 
L 147.946909 223.453072 
L 148.352727 229.131599 
L 148.555636 229.715784 
L 148.758545 226.976223 
L 148.961455 226.064651 
L 149.164364 225.871532 
L 149.367273 224.275091 
L 149.570182 226.487518 
L 149.773091 225.379875 
L 149.976 226.982566 
L 150.178909 226.634596 
L 150.381818 227.867624 
L 150.787636 226.39526 
L 150.990545 226.524477 
L 151.193455 228.323224 
L 151.396364 224.967248 
L 151.599273 227.603546 
L 151.802182 227.984005 
L 152.005091 224.575691 
L 152.208 224.430654 
L 152.410909 223.61202 
L 152.613818 228.263673 
L 152.816727 227.619118 
L 153.019636 226.091897 
L 153.222545 226.326644 
L 153.628364 228.273821 
L 153.831273 228.316576 
L 154.034182 227.976097 
L 154.642909 225.441476 
L 154.845818 229.506525 
L 155.048727 229.469745 
L 155.251636 228.752043 
L 155.454545 227.360885 
L 155.657455 229.027787 
L 155.860364 227.576403 
L 156.063273 227.037506 
L 156.266182 227.204449 
L 156.672 228.272942 
L 156.874909 230.41172 
L 157.077818 230.881883 
L 157.280727 230.469109 
L 157.483636 230.568441 
L 157.686545 230.473515 
L 157.889455 230.885792 
L 158.092364 229.805578 
L 158.498182 230.566799 
L 158.701091 224.890023 
L 158.904 224.141101 
L 159.106909 229.421658 
L 159.309818 227.872275 
L 159.512727 228.567127 
L 159.715636 229.943447 
L 159.918545 229.520272 
L 160.121455 229.855248 
L 160.324364 227.87593 
L 160.730182 231.146299 
L 161.136 230.354033 
L 161.338909 228.862298 
L 161.541818 228.992631 
L 161.744727 228.581829 
L 161.947636 229.081214 
L 162.353455 231.926768 
L 162.556364 231.75294 
L 162.759273 229.413965 
L 162.962182 230.874745 
L 163.165091 229.267916 
L 163.570909 229.200836 
L 163.773818 228.275612 
L 163.976727 231.579808 
L 164.382545 230.796613 
L 164.585455 229.546525 
L 164.788364 232.780949 
L 164.991273 231.815512 
L 165.194182 232.750348 
L 165.397091 232.815277 
L 165.802909 232.195782 
L 166.005818 232.742821 
L 166.411636 230.896 
L 166.614545 230.741995 
L 166.817455 229.498937 
L 167.020364 229.224994 
L 167.223273 230.15924 
L 167.426182 230.511174 
L 167.629091 231.166588 
L 167.832 228.680243 
L 168.237818 233.569364 
L 168.440727 229.303814 
L 168.643636 233.320622 
L 373.581818 233.320622 
L 373.581818 233.320622 
" style="fill:none;stroke:#8b2be2;stroke-linecap:round;stroke-width:1.2;"/>
    <defs>
     <path d="M -0 3.394113 
L 3.394113 0 
L 0 -3.394113 
L -3.394113 -0 
z
" id="me3ba5eb0a5" style="stroke:#8b2be2;stroke-linejoin:miter;"/>
    </defs>
    <g clip-path="url(#pdf13a07daa)">
     <use style="fill-opacity:0;stroke:#8b2be2;stroke-linejoin:miter;" x="69.218182" xlink:href="#me3ba5eb0a5" y="46.133208"/>
     <use style="fill-opacity:0;stroke:#8b2be2;stroke-linejoin:miter;" x="109.8" xlink:href="#me3ba5eb0a5" y="175.027673"/>
     <use style="fill-opacity:0;stroke:#8b2be2;stroke-linejoin:miter;" x="150.381818" xlink:href="#me3ba5eb0a5" y="227.867624"/>
     <use style="fill-opacity:0;stroke:#8b2be2;stroke-linejoin:miter;" x="190.963636" xlink:href="#me3ba5eb0a5" y="233.320622"/>
     <use style="fill-opacity:0;stroke:#8b2be2;stroke-linejoin:miter;" x="231.545455" xlink:href="#me3ba5eb0a5" y="233.320622"/>
     <use style="fill-opacity:0;stroke:#8b2be2;stroke-linejoin:miter;" x="272.127273" xlink:href="#me3ba5eb0a5" y="233.320622"/>
     <use style="fill-opacity:0;stroke:#8b2be2;stroke-linejoin:miter;" x="312.709091" xlink:href="#me3ba5eb0a5" y="233.320622"/>
     <use style="fill-opacity:0;stroke:#8b2be2;stroke-linejoin:miter;" x="353.290909" xlink:href="#me3ba5eb0a5" y="233.320622"/>
    </g>
   </g>
   <g id="patch_3">
    <path d="M 54 256.32 
L 54 34.56 
" style="fill:none;stroke:#000000;stroke-linecap:square;stroke-linejoin:miter;"/>
   </g>
   <g id="patch_4">
    <path d="M 388.8 256.32 
L 388.8 34.56 
" style="fill:none;stroke:#000000;stroke-linecap:square;stroke-linejoin:miter;"/>
   </g>
   <g id="patch_5">
    <path d="M 54 256.32 
L 388.8 256.32 
" style="fill:none;stroke:#000000;stroke-linecap:square;stroke-linejoin:miter;"/>
   </g>
   <g id="patch_6">
    <path d="M 54 34.56 
L 388.8 34.56 
" style="fill:none;stroke:#000000;stroke-linecap:square;stroke-linejoin:miter;"/>
   </g>
   <g id="legend_1">
    <g id="patch_7">
     <path d="M 276.864 117.9543 
L 383.52 117.9543 
L 383.52 39.84 
L 276.864 39.84 
z
" style="fill:#ffffff;opacity:0.8;stroke:#000000;stroke-linejoin:miter;stroke-width:0.8;"/>
    </g>
    <g id="line2d_62">
     <path d="M 281.088 48.06195 
L 302.208 48.06195 
" style="fill:none;stroke:#023eff;stroke-linecap:round;stroke-width:1.2;"/>
    </g>
    <g id="line2d_63">
     <g>
      <use style="fill-opacity:0;stroke:#023eff;" x="291.648" xlink:href="#m4011a3b5e9" y="48.06195"/>
     </g>
    </g>
    <g id="text_13">
     <!-- MOEA/D-Lvy -->
     <defs>
      <path d="M 7.421875 0 
L 7.421875 71.578125 
L 21.6875 71.578125 
L 38.625 20.90625 
Q 40.96875 13.8125 42.046875 10.296875 
Q 43.265625 14.203125 45.84375 21.78125 
L 62.984375 71.578125 
L 75.734375 71.578125 
L 75.734375 0 
L 66.609375 0 
L 66.609375 59.90625 
L 45.796875 0 
L 37.25 0 
L 16.546875 60.9375 
L 16.546875 0 
z
" id="ArialMT-77"/>
      <path d="M 4.828125 34.859375 
Q 4.828125 52.6875 14.390625 62.765625 
Q 23.96875 72.859375 39.109375 72.859375 
Q 49.03125 72.859375 56.984375 68.109375 
Q 64.9375 63.375 69.109375 54.90625 
Q 73.296875 46.4375 73.296875 35.6875 
Q 73.296875 24.8125 68.890625 16.21875 
Q 64.5 7.625 56.4375 3.203125 
Q 48.390625 -1.21875 39.0625 -1.21875 
Q 28.953125 -1.21875 20.984375 3.65625 
Q 13.03125 8.546875 8.921875 16.984375 
Q 4.828125 25.4375 4.828125 34.859375 
z
M 14.59375 34.71875 
Q 14.59375 21.78125 21.546875 14.328125 
Q 28.515625 6.890625 39.015625 6.890625 
Q 49.703125 6.890625 56.609375 14.40625 
Q 63.53125 21.921875 63.53125 35.75 
Q 63.53125 44.484375 60.578125 51 
Q 57.625 57.515625 51.921875 61.109375 
Q 46.234375 64.703125 39.15625 64.703125 
Q 29.109375 64.703125 21.84375 57.78125 
Q 14.59375 50.875 14.59375 34.71875 
z
" id="ArialMT-79"/>
      <path d="M 7.90625 0 
L 7.90625 71.578125 
L 59.671875 71.578125 
L 59.671875 63.140625 
L 17.390625 63.140625 
L 17.390625 41.21875 
L 56.984375 41.21875 
L 56.984375 32.8125 
L 17.390625 32.8125 
L 17.390625 8.453125 
L 61.328125 8.453125 
L 61.328125 0 
z
" id="ArialMT-69"/>
      <path d="M -0.140625 0 
L 27.34375 71.578125 
L 37.546875 71.578125 
L 66.84375 0 
L 56.0625 0 
L 47.703125 21.6875 
L 17.78125 21.6875 
L 9.90625 0 
z
M 20.515625 29.390625 
L 44.78125 29.390625 
L 37.3125 49.21875 
Q 33.890625 58.25 32.234375 64.0625 
Q 30.859375 57.171875 28.375 50.390625 
z
" id="ArialMT-65"/>
      <path d="M 0 -1.21875 
L 20.75 72.796875 
L 27.78125 72.796875 
L 7.078125 -1.21875 
z
" id="ArialMT-47"/>
      <path d="M 3.171875 21.484375 
L 3.171875 30.328125 
L 30.171875 30.328125 
L 30.171875 21.484375 
z
" id="ArialMT-45"/>
      <path d="M 7.328125 0 
L 7.328125 71.578125 
L 16.796875 71.578125 
L 16.796875 8.453125 
L 52.046875 8.453125 
L 52.046875 0 
z
" id="ArialMT-76"/>
      <path d="M 42.09375 16.703125 
L 51.171875 15.578125 
Q 49.03125 7.625 43.21875 3.21875 
Q 37.40625 -1.171875 28.375 -1.171875 
Q 17 -1.171875 10.328125 5.828125 
Q 3.65625 12.84375 3.65625 25.484375 
Q 3.65625 38.578125 10.390625 45.796875 
Q 17.140625 53.03125 27.875 53.03125 
Q 38.28125 53.03125 44.875 45.953125 
Q 51.46875 38.875 51.46875 26.03125 
Q 51.46875 25.25 51.421875 23.6875 
L 12.75 23.6875 
Q 13.234375 15.140625 17.578125 10.59375 
Q 21.921875 6.0625 28.421875 6.0625 
Q 33.25 6.0625 36.671875 8.59375 
Q 40.09375 11.140625 42.09375 16.703125 
z
M 13.234375 30.90625 
L 42.1875 30.90625 
Q 41.609375 37.453125 38.875 40.71875 
Q 34.671875 45.796875 27.984375 45.796875 
Q 21.921875 45.796875 17.796875 41.75 
Q 13.671875 37.703125 13.234375 30.90625 
z
M 22.71875 58.296875 
L 29.203125 71.96875 
L 40.734375 71.96875 
L 29.984375 58.296875 
z
" id="ArialMT-233"/>
      <path d="M 21 0 
L 1.265625 51.859375 
L 10.546875 51.859375 
L 21.6875 20.796875 
Q 23.484375 15.765625 25 10.359375 
Q 26.171875 14.453125 28.265625 20.21875 
L 39.796875 51.859375 
L 48.828125 51.859375 
L 29.203125 0 
z
" id="ArialMT-118"/>
      <path d="M 6.203125 -19.96875 
L 5.21875 -11.71875 
Q 8.109375 -12.5 10.25 -12.5 
Q 13.1875 -12.5 14.9375 -11.515625 
Q 16.703125 -10.546875 17.828125 -8.796875 
Q 18.65625 -7.46875 20.515625 -2.25 
Q 20.75 -1.515625 21.296875 -0.09375 
L 1.609375 51.859375 
L 11.078125 51.859375 
L 21.875 21.828125 
Q 23.96875 16.109375 25.640625 9.8125 
Q 27.15625 15.875 29.25 21.625 
L 40.328125 51.859375 
L 49.125 51.859375 
L 29.390625 -0.875 
Q 26.21875 -9.421875 24.46875 -12.640625 
Q 22.125 -17 19.09375 -19.015625 
Q 16.0625 -21.046875 11.859375 -21.046875 
Q 9.328125 -21.046875 6.203125 -19.96875 
z
" id="ArialMT-121"/>
     </defs>
     <g transform="translate(310.656 51.75795)scale(0.1056 -0.1056)">
      <use xlink:href="#ArialMT-77"/>
      <use x="83.300781" xlink:href="#ArialMT-79"/>
      <use x="161.083984" xlink:href="#ArialMT-69"/>
      <use x="227.783203" xlink:href="#ArialMT-65"/>
      <use x="294.482422" xlink:href="#ArialMT-47"/>
      <use x="322.265625" xlink:href="#ArialMT-68"/>
      <use x="394.482422" xlink:href="#ArialMT-45"/>
      <use x="427.783203" xlink:href="#ArialMT-76"/>
      <use x="483.398438" xlink:href="#ArialMT-233"/>
      <use x="539.013672" xlink:href="#ArialMT-118"/>
      <use x="589.013672" xlink:href="#ArialMT-121"/>
     </g>
    </g>
    <g id="line2d_64">
     <path d="M 281.088 63.12315 
L 302.208 63.12315 
" style="fill:none;stroke:#1ac938;stroke-linecap:round;stroke-width:1.2;"/>
    </g>
    <g id="line2d_65">
     <g>
      <use style="fill-opacity:0;stroke:#1ac938;stroke-linejoin:miter;" x="291.648" xlink:href="#ma4edafd800" y="63.12315"/>
     </g>
    </g>
    <g id="text_14">
     <!-- MOEA/D-DEM -->
     <g transform="translate(310.656 66.81915)scale(0.1056 -0.1056)">
      <use xlink:href="#ArialMT-77"/>
      <use x="83.300781" xlink:href="#ArialMT-79"/>
      <use x="161.083984" xlink:href="#ArialMT-69"/>
      <use x="227.783203" xlink:href="#ArialMT-65"/>
      <use x="294.482422" xlink:href="#ArialMT-47"/>
      <use x="322.265625" xlink:href="#ArialMT-68"/>
      <use x="394.482422" xlink:href="#ArialMT-45"/>
      <use x="427.783203" xlink:href="#ArialMT-68"/>
      <use x="500" xlink:href="#ArialMT-69"/>
      <use x="566.699219" xlink:href="#ArialMT-77"/>
     </g>
    </g>
    <g id="line2d_66">
     <path d="M 281.088 78.0606 
L 302.208 78.0606 
" style="fill:none;stroke:#e8000b;stroke-linecap:round;stroke-width:1.2;"/>
    </g>
    <g id="line2d_67">
     <g>
      <use style="fill-opacity:0;stroke:#e8000b;stroke-linejoin:miter;" x="291.648" xlink:href="#m89956c5f56" y="78.0606"/>
     </g>
    </g>
    <g id="text_15">
     <!-- MOEA/D-DE -->
     <g transform="translate(310.656 81.7566)scale(0.1056 -0.1056)">
      <use xlink:href="#ArialMT-77"/>
      <use x="83.300781" xlink:href="#ArialMT-79"/>
      <use x="161.083984" xlink:href="#ArialMT-69"/>
      <use x="227.783203" xlink:href="#ArialMT-65"/>
      <use x="294.482422" xlink:href="#ArialMT-47"/>
      <use x="322.265625" xlink:href="#ArialMT-68"/>
      <use x="394.482422" xlink:href="#ArialMT-45"/>
      <use x="427.783203" xlink:href="#ArialMT-68"/>
      <use x="500" xlink:href="#ArialMT-69"/>
     </g>
    </g>
    <g id="line2d_68">
     <path d="M 281.088 92.99805 
L 302.208 92.99805 
" style="fill:none;stroke:#00d7ff;stroke-linecap:round;stroke-width:1.2;"/>
    </g>
    <g id="line2d_69">
     <g>
      <use style="fill-opacity:0;stroke:#00d7ff;stroke-linejoin:miter;" x="291.648" xlink:href="#mf235b2ab89" y="92.99805"/>
     </g>
    </g>
    <g id="text_16">
     <!-- MOEA/D-GA -->
     <g transform="translate(310.656 96.69405)scale(0.1056 -0.1056)">
      <use xlink:href="#ArialMT-77"/>
      <use x="83.300781" xlink:href="#ArialMT-79"/>
      <use x="161.083984" xlink:href="#ArialMT-69"/>
      <use x="227.783203" xlink:href="#ArialMT-65"/>
      <use x="294.482422" xlink:href="#ArialMT-47"/>
      <use x="322.265625" xlink:href="#ArialMT-68"/>
      <use x="394.482422" xlink:href="#ArialMT-45"/>
      <use x="427.783203" xlink:href="#ArialMT-71"/>
      <use x="505.566406" xlink:href="#ArialMT-65"/>
     </g>
    </g>
    <g id="line2d_70">
     <path d="M 281.088 107.9355 
L 302.208 107.9355 
" style="fill:none;stroke:#8b2be2;stroke-linecap:round;stroke-width:1.2;"/>
    </g>
    <g id="line2d_71">
     <g>
      <use style="fill-opacity:0;stroke:#8b2be2;stroke-linejoin:miter;" x="291.648" xlink:href="#me3ba5eb0a5" y="107.9355"/>
     </g>
    </g>
    <g id="text_17">
     <!-- NSGA-II -->
     <defs>
      <path d="M 7.625 0 
L 7.625 71.578125 
L 17.328125 71.578125 
L 54.9375 15.375 
L 54.9375 71.578125 
L 64.015625 71.578125 
L 64.015625 0 
L 54.296875 0 
L 16.703125 56.25 
L 16.703125 0 
z
" id="ArialMT-78"/>
      <path d="M 4.5 23 
L 13.421875 23.78125 
Q 14.0625 18.40625 16.375 14.96875 
Q 18.703125 11.53125 23.578125 9.40625 
Q 28.46875 7.28125 34.578125 7.28125 
Q 39.984375 7.28125 44.140625 8.890625 
Q 48.296875 10.5 50.3125 13.296875 
Q 52.34375 16.109375 52.34375 19.4375 
Q 52.34375 22.796875 50.390625 25.3125 
Q 48.4375 27.828125 43.953125 29.546875 
Q 41.0625 30.671875 31.203125 33.03125 
Q 21.34375 35.40625 17.390625 37.5 
Q 12.25 40.1875 9.734375 44.15625 
Q 7.234375 48.140625 7.234375 53.078125 
Q 7.234375 58.5 10.296875 63.203125 
Q 13.375 67.921875 19.28125 70.359375 
Q 25.203125 72.796875 32.421875 72.796875 
Q 40.375 72.796875 46.453125 70.234375 
Q 52.546875 67.671875 55.8125 62.6875 
Q 59.078125 57.71875 59.328125 51.421875 
L 50.25 50.734375 
Q 49.515625 57.515625 45.28125 60.984375 
Q 41.0625 64.453125 32.8125 64.453125 
Q 24.21875 64.453125 20.28125 61.296875 
Q 16.359375 58.15625 16.359375 53.71875 
Q 16.359375 49.859375 19.140625 47.359375 
Q 21.875 44.875 33.421875 42.265625 
Q 44.96875 39.65625 49.265625 37.703125 
Q 55.515625 34.8125 58.484375 30.390625 
Q 61.46875 25.984375 61.46875 20.21875 
Q 61.46875 14.5 58.203125 9.4375 
Q 54.9375 4.390625 48.796875 1.578125 
Q 42.671875 -1.21875 35.015625 -1.21875 
Q 25.296875 -1.21875 18.71875 1.609375 
Q 12.15625 4.4375 8.421875 10.125 
Q 4.6875 15.828125 4.5 23 
z
" id="ArialMT-83"/>
     </defs>
     <g transform="translate(310.656 111.6315)scale(0.1056 -0.1056)">
      <use xlink:href="#ArialMT-78"/>
      <use x="72.216797" xlink:href="#ArialMT-83"/>
      <use x="138.916016" xlink:href="#ArialMT-71"/>
      <use x="216.699219" xlink:href="#ArialMT-65"/>
      <use x="283.398438" xlink:href="#ArialMT-45"/>
      <use x="316.699219" xlink:href="#ArialMT-73"/>
      <use x="344.482422" xlink:href="#ArialMT-73"/>
     </g>
    </g>
   </g>
  </g>
 </g>
 <defs>
  <clipPath id="pdf13a07daa">
   <rect height="221.76" width="334.8" x="54" y="34.56"/>
  </clipPath>
 </defs>
</svg>
