<?xml version="1.0" encoding="utf-8" standalone="no"?>
<!DOCTYPE svg PUBLIC "-//W3C//DTD SVG 1.1//EN"
  "http://www.w3.org/Graphics/SVG/1.1/DTD/svg11.dtd">
<!-- Created with matplotlib (https://matplotlib.org/) -->
<svg height="288pt" version="1.1" viewBox="0 0 432 288" width="432pt" xmlns="http://www.w3.org/2000/svg" xmlns:xlink="http://www.w3.org/1999/xlink">
 <defs>
  <style type="text/css">
*{stroke-linecap:butt;stroke-linejoin:round;}
  </style>
 </defs>
 <g id="figure_1">
  <g id="patch_1">
   <path d="M 0 288 
L 432 288 
L 432 0 
L 0 0 
z
" style="fill:#ffffff;"/>
  </g>
  <g id="axes_1">
   <g id="patch_2">
    <path d="M 54 256.32 
L 388.8 256.32 
L 388.8 34.56 
L 54 34.56 
z
" style="fill:#ffffff;"/>
   </g>
   <g id="matplotlib.axis_1">
    <g id="xtick_1">
     <g id="line2d_1">
      <defs>
       <path d="M 0 0 
L 0 -3 
" id="m36bb1b21fc" style="stroke:#000000;"/>
      </defs>
      <g>
       <use style="stroke:#000000;" x="69.218182" xlink:href="#m36bb1b21fc" y="256.32"/>
      </g>
     </g>
     <g id="line2d_2">
      <defs>
       <path d="M 0 0 
L 0 3 
" id="m64e992fdfb" style="stroke:#000000;"/>
      </defs>
      <g>
       <use style="stroke:#000000;" x="69.218182" xlink:href="#m64e992fdfb" y="34.56"/>
      </g>
     </g>
     <g id="text_1">
      <!-- 0 -->
      <defs>
       <path d="M 4.15625 35.296875 
Q 4.15625 48 6.765625 55.734375 
Q 9.375 63.484375 14.515625 67.671875 
Q 19.671875 71.875 27.484375 71.875 
Q 33.25 71.875 37.59375 69.546875 
Q 41.9375 67.234375 44.765625 62.859375 
Q 47.609375 58.5 49.21875 52.21875 
Q 50.828125 45.953125 50.828125 35.296875 
Q 50.828125 22.703125 48.234375 14.96875 
Q 45.65625 7.234375 40.5 3 
Q 35.359375 -1.21875 27.484375 -1.21875 
Q 17.140625 -1.21875 11.234375 6.203125 
Q 4.15625 15.140625 4.15625 35.296875 
z
M 13.1875 35.296875 
Q 13.1875 17.671875 17.3125 11.828125 
Q 21.4375 6 27.484375 6 
Q 33.546875 6 37.671875 11.859375 
Q 41.796875 17.71875 41.796875 35.296875 
Q 41.796875 52.984375 37.671875 58.78125 
Q 33.546875 64.59375 27.390625 64.59375 
Q 21.34375 64.59375 17.71875 59.46875 
Q 13.1875 52.9375 13.1875 35.296875 
z
" id="ArialMT-48"/>
      </defs>
      <g transform="translate(66.282007 267.37865)scale(0.1056 -0.1056)">
       <use xlink:href="#ArialMT-48"/>
      </g>
     </g>
    </g>
    <g id="xtick_2">
     <g id="line2d_3">
      <g>
       <use style="stroke:#000000;" x="109.8" xlink:href="#m36bb1b21fc" y="256.32"/>
      </g>
     </g>
     <g id="line2d_4">
      <g>
       <use style="stroke:#000000;" x="109.8" xlink:href="#m64e992fdfb" y="34.56"/>
      </g>
     </g>
     <g id="text_2">
      <!-- 200 -->
      <defs>
       <path d="M 50.34375 8.453125 
L 50.34375 0 
L 3.03125 0 
Q 2.9375 3.171875 4.046875 6.109375 
Q 5.859375 10.9375 9.828125 15.625 
Q 13.8125 20.3125 21.34375 26.46875 
Q 33.015625 36.03125 37.109375 41.625 
Q 41.21875 47.21875 41.21875 52.203125 
Q 41.21875 57.421875 37.46875 61 
Q 33.734375 64.59375 27.734375 64.59375 
Q 21.390625 64.59375 17.578125 60.78125 
Q 13.765625 56.984375 13.71875 50.25 
L 4.6875 51.171875 
Q 5.609375 61.28125 11.65625 66.578125 
Q 17.71875 71.875 27.9375 71.875 
Q 38.234375 71.875 44.234375 66.15625 
Q 50.25 60.453125 50.25 52 
Q 50.25 47.703125 48.484375 43.546875 
Q 46.734375 39.40625 42.65625 34.8125 
Q 38.578125 30.21875 29.109375 22.21875 
Q 21.1875 15.578125 18.9375 13.203125 
Q 16.703125 10.84375 15.234375 8.453125 
z
" id="ArialMT-50"/>
      </defs>
      <g transform="translate(100.991475 267.37865)scale(0.1056 -0.1056)">
       <use xlink:href="#ArialMT-50"/>
       <use x="55.615234" xlink:href="#ArialMT-48"/>
       <use x="111.230469" xlink:href="#ArialMT-48"/>
      </g>
     </g>
    </g>
    <g id="xtick_3">
     <g id="line2d_5">
      <g>
       <use style="stroke:#000000;" x="150.381818" xlink:href="#m36bb1b21fc" y="256.32"/>
      </g>
     </g>
     <g id="line2d_6">
      <g>
       <use style="stroke:#000000;" x="150.381818" xlink:href="#m64e992fdfb" y="34.56"/>
      </g>
     </g>
     <g id="text_3">
      <!-- 400 -->
      <defs>
       <path d="M 32.328125 0 
L 32.328125 17.140625 
L 1.265625 17.140625 
L 1.265625 25.203125 
L 33.9375 71.578125 
L 41.109375 71.578125 
L 41.109375 25.203125 
L 50.78125 25.203125 
L 50.78125 17.140625 
L 41.109375 17.140625 
L 41.109375 0 
z
M 32.328125 25.203125 
L 32.328125 57.46875 
L 9.90625 25.203125 
z
" id="ArialMT-52"/>
      </defs>
      <g transform="translate(141.573293 267.37865)scale(0.1056 -0.1056)">
       <use xlink:href="#ArialMT-52"/>
       <use x="55.615234" xlink:href="#ArialMT-48"/>
       <use x="111.230469" xlink:href="#ArialMT-48"/>
      </g>
     </g>
    </g>
    <g id="xtick_4">
     <g id="line2d_7">
      <g>
       <use style="stroke:#000000;" x="190.963636" xlink:href="#m36bb1b21fc" y="256.32"/>
      </g>
     </g>
     <g id="line2d_8">
      <g>
       <use style="stroke:#000000;" x="190.963636" xlink:href="#m64e992fdfb" y="34.56"/>
      </g>
     </g>
     <g id="text_4">
      <!-- 600 -->
      <defs>
       <path d="M 49.75 54.046875 
L 41.015625 53.375 
Q 39.84375 58.546875 37.703125 60.890625 
Q 34.125 64.65625 28.90625 64.65625 
Q 24.703125 64.65625 21.53125 62.3125 
Q 17.390625 59.28125 14.984375 53.46875 
Q 12.59375 47.65625 12.5 36.921875 
Q 15.671875 41.75 20.265625 44.09375 
Q 24.859375 46.4375 29.890625 46.4375 
Q 38.671875 46.4375 44.84375 39.96875 
Q 51.03125 33.5 51.03125 23.25 
Q 51.03125 16.5 48.125 10.71875 
Q 45.21875 4.9375 40.140625 1.859375 
Q 35.0625 -1.21875 28.609375 -1.21875 
Q 17.625 -1.21875 10.6875 6.859375 
Q 3.765625 14.9375 3.765625 33.5 
Q 3.765625 54.25 11.421875 63.671875 
Q 18.109375 71.875 29.4375 71.875 
Q 37.890625 71.875 43.28125 67.140625 
Q 48.6875 62.40625 49.75 54.046875 
z
M 13.875 23.1875 
Q 13.875 18.65625 15.796875 14.5 
Q 17.71875 10.359375 21.1875 8.171875 
Q 24.65625 6 28.46875 6 
Q 34.03125 6 38.03125 10.484375 
Q 42.046875 14.984375 42.046875 22.703125 
Q 42.046875 30.125 38.078125 34.390625 
Q 34.125 38.671875 28.125 38.671875 
Q 22.171875 38.671875 18.015625 34.390625 
Q 13.875 30.125 13.875 23.1875 
z
" id="ArialMT-54"/>
      </defs>
      <g transform="translate(182.155111 267.37865)scale(0.1056 -0.1056)">
       <use xlink:href="#ArialMT-54"/>
       <use x="55.615234" xlink:href="#ArialMT-48"/>
       <use x="111.230469" xlink:href="#ArialMT-48"/>
      </g>
     </g>
    </g>
    <g id="xtick_5">
     <g id="line2d_9">
      <g>
       <use style="stroke:#000000;" x="231.545455" xlink:href="#m36bb1b21fc" y="256.32"/>
      </g>
     </g>
     <g id="line2d_10">
      <g>
       <use style="stroke:#000000;" x="231.545455" xlink:href="#m64e992fdfb" y="34.56"/>
      </g>
     </g>
     <g id="text_5">
      <!-- 800 -->
      <defs>
       <path d="M 17.671875 38.8125 
Q 12.203125 40.828125 9.5625 44.53125 
Q 6.9375 48.25 6.9375 53.421875 
Q 6.9375 61.234375 12.546875 66.546875 
Q 18.171875 71.875 27.484375 71.875 
Q 36.859375 71.875 42.578125 66.421875 
Q 48.296875 60.984375 48.296875 53.171875 
Q 48.296875 48.1875 45.671875 44.5 
Q 43.0625 40.828125 37.75 38.8125 
Q 44.34375 36.671875 47.78125 31.875 
Q 51.21875 27.09375 51.21875 20.453125 
Q 51.21875 11.28125 44.71875 5.03125 
Q 38.234375 -1.21875 27.640625 -1.21875 
Q 17.046875 -1.21875 10.546875 5.046875 
Q 4.046875 11.328125 4.046875 20.703125 
Q 4.046875 27.6875 7.59375 32.390625 
Q 11.140625 37.109375 17.671875 38.8125 
z
M 15.921875 53.71875 
Q 15.921875 48.640625 19.1875 45.40625 
Q 22.46875 42.1875 27.6875 42.1875 
Q 32.765625 42.1875 36.015625 45.375 
Q 39.265625 48.578125 39.265625 53.21875 
Q 39.265625 58.0625 35.90625 61.359375 
Q 32.5625 64.65625 27.59375 64.65625 
Q 22.5625 64.65625 19.234375 61.421875 
Q 15.921875 58.203125 15.921875 53.71875 
z
M 13.09375 20.65625 
Q 13.09375 16.890625 14.875 13.375 
Q 16.65625 9.859375 20.171875 7.921875 
Q 23.6875 6 27.734375 6 
Q 34.03125 6 38.125 10.046875 
Q 42.234375 14.109375 42.234375 20.359375 
Q 42.234375 26.703125 38.015625 30.859375 
Q 33.796875 35.015625 27.4375 35.015625 
Q 21.234375 35.015625 17.15625 30.90625 
Q 13.09375 26.8125 13.09375 20.65625 
z
" id="ArialMT-56"/>
      </defs>
      <g transform="translate(222.73693 267.37865)scale(0.1056 -0.1056)">
       <use xlink:href="#ArialMT-56"/>
       <use x="55.615234" xlink:href="#ArialMT-48"/>
       <use x="111.230469" xlink:href="#ArialMT-48"/>
      </g>
     </g>
    </g>
    <g id="xtick_6">
     <g id="line2d_11">
      <g>
       <use style="stroke:#000000;" x="272.127273" xlink:href="#m36bb1b21fc" y="256.32"/>
      </g>
     </g>
     <g id="line2d_12">
      <g>
       <use style="stroke:#000000;" x="272.127273" xlink:href="#m64e992fdfb" y="34.56"/>
      </g>
     </g>
     <g id="text_6">
      <!-- 1000 -->
      <defs>
       <path d="M 37.25 0 
L 28.46875 0 
L 28.46875 56 
Q 25.296875 52.984375 20.140625 49.953125 
Q 14.984375 46.921875 10.890625 45.40625 
L 10.890625 53.90625 
Q 18.265625 57.375 23.78125 62.296875 
Q 29.296875 67.234375 31.59375 71.875 
L 37.25 71.875 
z
" id="ArialMT-49"/>
      </defs>
      <g transform="translate(260.382573 267.37865)scale(0.1056 -0.1056)">
       <use xlink:href="#ArialMT-49"/>
       <use x="55.615234" xlink:href="#ArialMT-48"/>
       <use x="111.230469" xlink:href="#ArialMT-48"/>
       <use x="166.845703" xlink:href="#ArialMT-48"/>
      </g>
     </g>
    </g>
    <g id="xtick_7">
     <g id="line2d_13">
      <g>
       <use style="stroke:#000000;" x="312.709091" xlink:href="#m36bb1b21fc" y="256.32"/>
      </g>
     </g>
     <g id="line2d_14">
      <g>
       <use style="stroke:#000000;" x="312.709091" xlink:href="#m64e992fdfb" y="34.56"/>
      </g>
     </g>
     <g id="text_7">
      <!-- 1200 -->
      <g transform="translate(300.964391 267.37865)scale(0.1056 -0.1056)">
       <use xlink:href="#ArialMT-49"/>
       <use x="55.615234" xlink:href="#ArialMT-50"/>
       <use x="111.230469" xlink:href="#ArialMT-48"/>
       <use x="166.845703" xlink:href="#ArialMT-48"/>
      </g>
     </g>
    </g>
    <g id="xtick_8">
     <g id="line2d_15">
      <g>
       <use style="stroke:#000000;" x="353.290909" xlink:href="#m36bb1b21fc" y="256.32"/>
      </g>
     </g>
     <g id="line2d_16">
      <g>
       <use style="stroke:#000000;" x="353.290909" xlink:href="#m64e992fdfb" y="34.56"/>
      </g>
     </g>
     <g id="text_8">
      <!-- 1400 -->
      <g transform="translate(341.546209 267.37865)scale(0.1056 -0.1056)">
       <use xlink:href="#ArialMT-49"/>
       <use x="55.615234" xlink:href="#ArialMT-52"/>
       <use x="111.230469" xlink:href="#ArialMT-48"/>
       <use x="166.845703" xlink:href="#ArialMT-48"/>
      </g>
     </g>
    </g>
    <g id="text_9">
     <!-- Generations -->
     <defs>
      <path d="M 41.21875 28.078125 
L 41.21875 36.46875 
L 71.53125 36.53125 
L 71.53125 9.96875 
Q 64.546875 4.390625 57.125 1.578125 
Q 49.703125 -1.21875 41.890625 -1.21875 
Q 31.34375 -1.21875 22.71875 3.296875 
Q 14.109375 7.8125 9.71875 16.359375 
Q 5.328125 24.90625 5.328125 35.453125 
Q 5.328125 45.90625 9.6875 54.953125 
Q 14.0625 64.015625 22.265625 68.40625 
Q 30.46875 72.796875 41.15625 72.796875 
Q 48.921875 72.796875 55.1875 70.28125 
Q 61.46875 67.78125 65.03125 63.28125 
Q 68.609375 58.796875 70.453125 51.5625 
L 61.921875 49.21875 
Q 60.296875 54.6875 57.90625 57.8125 
Q 55.515625 60.9375 51.0625 62.8125 
Q 46.625 64.703125 41.21875 64.703125 
Q 34.71875 64.703125 29.984375 62.71875 
Q 25.25 60.75 22.34375 57.515625 
Q 19.4375 54.296875 17.828125 50.4375 
Q 15.09375 43.796875 15.09375 36.03125 
Q 15.09375 26.46875 18.390625 20.015625 
Q 21.6875 13.578125 27.984375 10.453125 
Q 34.28125 7.328125 41.359375 7.328125 
Q 47.515625 7.328125 53.375 9.6875 
Q 59.234375 12.0625 62.25 14.75 
L 62.25 28.078125 
z
" id="ArialMT-71"/>
      <path d="M 42.09375 16.703125 
L 51.171875 15.578125 
Q 49.03125 7.625 43.21875 3.21875 
Q 37.40625 -1.171875 28.375 -1.171875 
Q 17 -1.171875 10.328125 5.828125 
Q 3.65625 12.84375 3.65625 25.484375 
Q 3.65625 38.578125 10.390625 45.796875 
Q 17.140625 53.03125 27.875 53.03125 
Q 38.28125 53.03125 44.875 45.953125 
Q 51.46875 38.875 51.46875 26.03125 
Q 51.46875 25.25 51.421875 23.6875 
L 12.75 23.6875 
Q 13.234375 15.140625 17.578125 10.59375 
Q 21.921875 6.0625 28.421875 6.0625 
Q 33.25 6.0625 36.671875 8.59375 
Q 40.09375 11.140625 42.09375 16.703125 
z
M 13.234375 30.90625 
L 42.1875 30.90625 
Q 41.609375 37.453125 38.875 40.71875 
Q 34.671875 45.796875 27.984375 45.796875 
Q 21.921875 45.796875 17.796875 41.75 
Q 13.671875 37.703125 13.234375 30.90625 
z
" id="ArialMT-101"/>
      <path d="M 6.59375 0 
L 6.59375 51.859375 
L 14.5 51.859375 
L 14.5 44.484375 
Q 20.21875 53.03125 31 53.03125 
Q 35.6875 53.03125 39.625 51.34375 
Q 43.5625 49.65625 45.515625 46.921875 
Q 47.46875 44.1875 48.25 40.4375 
Q 48.734375 37.984375 48.734375 31.890625 
L 48.734375 0 
L 39.9375 0 
L 39.9375 31.546875 
Q 39.9375 36.921875 38.90625 39.578125 
Q 37.890625 42.234375 35.28125 43.8125 
Q 32.671875 45.40625 29.15625 45.40625 
Q 23.53125 45.40625 19.453125 41.84375 
Q 15.375 38.28125 15.375 28.328125 
L 15.375 0 
z
" id="ArialMT-110"/>
      <path d="M 6.5 0 
L 6.5 51.859375 
L 14.40625 51.859375 
L 14.40625 44 
Q 17.4375 49.515625 20 51.265625 
Q 22.5625 53.03125 25.640625 53.03125 
Q 30.078125 53.03125 34.671875 50.203125 
L 31.640625 42.046875 
Q 28.421875 43.953125 25.203125 43.953125 
Q 22.3125 43.953125 20.015625 42.21875 
Q 17.71875 40.484375 16.75 37.40625 
Q 15.28125 32.71875 15.28125 27.15625 
L 15.28125 0 
z
" id="ArialMT-114"/>
      <path d="M 40.4375 6.390625 
Q 35.546875 2.25 31.03125 0.53125 
Q 26.515625 -1.171875 21.34375 -1.171875 
Q 12.796875 -1.171875 8.203125 3 
Q 3.609375 7.171875 3.609375 13.671875 
Q 3.609375 17.484375 5.34375 20.625 
Q 7.078125 23.78125 9.890625 25.6875 
Q 12.703125 27.59375 16.21875 28.5625 
Q 18.796875 29.25 24.03125 29.890625 
Q 34.671875 31.15625 39.703125 32.90625 
Q 39.75 34.71875 39.75 35.203125 
Q 39.75 40.578125 37.25 42.78125 
Q 33.890625 45.75 27.25 45.75 
Q 21.046875 45.75 18.09375 43.578125 
Q 15.140625 41.40625 13.71875 35.890625 
L 5.125 37.0625 
Q 6.296875 42.578125 8.984375 45.96875 
Q 11.671875 49.359375 16.75 51.1875 
Q 21.828125 53.03125 28.515625 53.03125 
Q 35.15625 53.03125 39.296875 51.46875 
Q 43.453125 49.90625 45.40625 47.53125 
Q 47.359375 45.171875 48.140625 41.546875 
Q 48.578125 39.3125 48.578125 33.453125 
L 48.578125 21.734375 
Q 48.578125 9.46875 49.140625 6.21875 
Q 49.703125 2.984375 51.375 0 
L 42.1875 0 
Q 40.828125 2.734375 40.4375 6.390625 
z
M 39.703125 26.03125 
Q 34.90625 24.078125 25.34375 22.703125 
Q 19.921875 21.921875 17.671875 20.9375 
Q 15.4375 19.96875 14.203125 18.09375 
Q 12.984375 16.21875 12.984375 13.921875 
Q 12.984375 10.40625 15.640625 8.0625 
Q 18.3125 5.71875 23.4375 5.71875 
Q 28.515625 5.71875 32.46875 7.9375 
Q 36.421875 10.15625 38.28125 14.015625 
Q 39.703125 17 39.703125 22.796875 
z
" id="ArialMT-97"/>
      <path d="M 25.78125 7.859375 
L 27.046875 0.09375 
Q 23.34375 -0.6875 20.40625 -0.6875 
Q 15.625 -0.6875 12.984375 0.828125 
Q 10.359375 2.34375 9.28125 4.8125 
Q 8.203125 7.28125 8.203125 15.1875 
L 8.203125 45.015625 
L 1.765625 45.015625 
L 1.765625 51.859375 
L 8.203125 51.859375 
L 8.203125 64.703125 
L 16.9375 69.96875 
L 16.9375 51.859375 
L 25.78125 51.859375 
L 25.78125 45.015625 
L 16.9375 45.015625 
L 16.9375 14.703125 
Q 16.9375 10.9375 17.40625 9.859375 
Q 17.875 8.796875 18.921875 8.15625 
Q 19.96875 7.515625 21.921875 7.515625 
Q 23.390625 7.515625 25.78125 7.859375 
z
" id="ArialMT-116"/>
      <path d="M 6.640625 61.46875 
L 6.640625 71.578125 
L 15.4375 71.578125 
L 15.4375 61.46875 
z
M 6.640625 0 
L 6.640625 51.859375 
L 15.4375 51.859375 
L 15.4375 0 
z
" id="ArialMT-105"/>
      <path d="M 3.328125 25.921875 
Q 3.328125 40.328125 11.328125 47.265625 
Q 18.015625 53.03125 27.640625 53.03125 
Q 38.328125 53.03125 45.109375 46.015625 
Q 51.90625 39.015625 51.90625 26.65625 
Q 51.90625 16.65625 48.90625 10.90625 
Q 45.90625 5.171875 40.15625 2 
Q 34.421875 -1.171875 27.640625 -1.171875 
Q 16.75 -1.171875 10.03125 5.8125 
Q 3.328125 12.796875 3.328125 25.921875 
z
M 12.359375 25.921875 
Q 12.359375 15.96875 16.703125 11.015625 
Q 21.046875 6.0625 27.640625 6.0625 
Q 34.1875 6.0625 38.53125 11.03125 
Q 42.875 16.015625 42.875 26.21875 
Q 42.875 35.84375 38.5 40.796875 
Q 34.125 45.75 27.640625 45.75 
Q 21.046875 45.75 16.703125 40.8125 
Q 12.359375 35.890625 12.359375 25.921875 
z
" id="ArialMT-111"/>
      <path d="M 3.078125 15.484375 
L 11.765625 16.84375 
Q 12.5 11.625 15.84375 8.84375 
Q 19.1875 6.0625 25.203125 6.0625 
Q 31.25 6.0625 34.171875 8.515625 
Q 37.109375 10.984375 37.109375 14.3125 
Q 37.109375 17.28125 34.515625 19 
Q 32.71875 20.171875 25.53125 21.96875 
Q 15.875 24.421875 12.140625 26.203125 
Q 8.40625 27.984375 6.46875 31.125 
Q 4.546875 34.28125 4.546875 38.09375 
Q 4.546875 41.546875 6.125 44.5 
Q 7.71875 47.46875 10.453125 49.421875 
Q 12.5 50.921875 16.03125 51.96875 
Q 19.578125 53.03125 23.640625 53.03125 
Q 29.734375 53.03125 34.34375 51.265625 
Q 38.96875 49.515625 41.15625 46.5 
Q 43.359375 43.5 44.1875 38.484375 
L 35.59375 37.3125 
Q 35.015625 41.3125 32.203125 43.546875 
Q 29.390625 45.796875 24.265625 45.796875 
Q 18.21875 45.796875 15.625 43.796875 
Q 13.03125 41.796875 13.03125 39.109375 
Q 13.03125 37.40625 14.109375 36.03125 
Q 15.1875 34.625 17.484375 33.6875 
Q 18.796875 33.203125 25.25 31.453125 
Q 34.578125 28.953125 38.25 27.359375 
Q 41.9375 25.78125 44.03125 22.75 
Q 46.140625 19.734375 46.140625 15.234375 
Q 46.140625 10.84375 43.578125 6.953125 
Q 41.015625 3.078125 36.171875 0.953125 
Q 31.34375 -1.171875 25.25 -1.171875 
Q 15.140625 -1.171875 9.84375 3.03125 
Q 4.546875 7.234375 3.078125 15.484375 
z
" id="ArialMT-115"/>
     </defs>
     <g transform="translate(190.0233 281.72325)scale(0.1152 -0.1152)">
      <use xlink:href="#ArialMT-71"/>
      <use x="77.783203" xlink:href="#ArialMT-101"/>
      <use x="133.398438" xlink:href="#ArialMT-110"/>
      <use x="189.013672" xlink:href="#ArialMT-101"/>
      <use x="244.628906" xlink:href="#ArialMT-114"/>
      <use x="277.929688" xlink:href="#ArialMT-97"/>
      <use x="333.544922" xlink:href="#ArialMT-116"/>
      <use x="361.328125" xlink:href="#ArialMT-105"/>
      <use x="383.544922" xlink:href="#ArialMT-111"/>
      <use x="439.160156" xlink:href="#ArialMT-110"/>
      <use x="494.775391" xlink:href="#ArialMT-115"/>
     </g>
    </g>
   </g>
   <g id="matplotlib.axis_2">
    <g id="ytick_1">
     <g id="line2d_17">
      <defs>
       <path d="M 0 0 
L 3 0 
" id="m0097246697" style="stroke:#000000;"/>
      </defs>
      <g>
       <use style="stroke:#000000;" x="54" xlink:href="#m0097246697" y="179.797528"/>
      </g>
     </g>
     <g id="line2d_18">
      <defs>
       <path d="M 0 0 
L -3 0 
" id="m617ce8cc63" style="stroke:#000000;"/>
      </defs>
      <g>
       <use style="stroke:#000000;" x="388.8" xlink:href="#m617ce8cc63" y="179.797528"/>
      </g>
     </g>
     <g id="text_10">
      <!-- $\mathdefault{10^{-4}}$ -->
      <defs>
       <path d="M 52.828125 31.203125 
L 5.5625 31.203125 
L 5.5625 39.40625 
L 52.828125 39.40625 
z
" id="ArialMT-8722"/>
      </defs>
      <g transform="translate(29.5912 185.189728)scale(0.1056 -0.1056)">
       <use transform="translate(0 0.201563)" xlink:href="#ArialMT-49"/>
       <use transform="translate(55.615234 0.201563)" xlink:href="#ArialMT-48"/>
       <use transform="translate(112.972813 69.895313)scale(0.7)" xlink:href="#ArialMT-8722"/>
       <use transform="translate(153.851719 69.895313)scale(0.7)" xlink:href="#ArialMT-52"/>
      </g>
     </g>
    </g>
    <g id="ytick_2">
     <g id="line2d_19">
      <g>
       <use style="stroke:#000000;" x="54" xlink:href="#m0097246697" y="91.521148"/>
      </g>
     </g>
     <g id="line2d_20">
      <g>
       <use style="stroke:#000000;" x="388.8" xlink:href="#m617ce8cc63" y="91.521148"/>
      </g>
     </g>
     <g id="text_11">
      <!-- $\mathdefault{10^{-3}}$ -->
      <defs>
       <path d="M 4.203125 18.890625 
L 12.984375 20.0625 
Q 14.5 12.59375 18.140625 9.296875 
Q 21.78125 6 27 6 
Q 33.203125 6 37.46875 10.296875 
Q 41.75 14.59375 41.75 20.953125 
Q 41.75 27 37.796875 30.921875 
Q 33.84375 34.859375 27.734375 34.859375 
Q 25.25 34.859375 21.53125 33.890625 
L 22.515625 41.609375 
Q 23.390625 41.5 23.921875 41.5 
Q 29.546875 41.5 34.03125 44.421875 
Q 38.53125 47.359375 38.53125 53.46875 
Q 38.53125 58.296875 35.25 61.46875 
Q 31.984375 64.65625 26.8125 64.65625 
Q 21.6875 64.65625 18.265625 61.421875 
Q 14.84375 58.203125 13.875 51.765625 
L 5.078125 53.328125 
Q 6.6875 62.15625 12.390625 67.015625 
Q 18.109375 71.875 26.609375 71.875 
Q 32.46875 71.875 37.390625 69.359375 
Q 42.328125 66.84375 44.9375 62.5 
Q 47.5625 58.15625 47.5625 53.265625 
Q 47.5625 48.640625 45.0625 44.828125 
Q 42.578125 41.015625 37.703125 38.765625 
Q 44.046875 37.3125 47.5625 32.6875 
Q 51.078125 28.078125 51.078125 21.140625 
Q 51.078125 11.765625 44.234375 5.25 
Q 37.40625 -1.265625 26.953125 -1.265625 
Q 17.53125 -1.265625 11.296875 4.34375 
Q 5.078125 9.96875 4.203125 18.890625 
z
" id="ArialMT-51"/>
      </defs>
      <g transform="translate(29.5912 96.966148)scale(0.1056 -0.1056)">
       <use transform="translate(0 0.99375)" xlink:href="#ArialMT-49"/>
       <use transform="translate(55.615234 0.99375)" xlink:href="#ArialMT-48"/>
       <use transform="translate(112.972813 70.6875)scale(0.7)" xlink:href="#ArialMT-8722"/>
       <use transform="translate(153.851719 70.6875)scale(0.7)" xlink:href="#ArialMT-51"/>
      </g>
     </g>
    </g>
    <g id="ytick_3">
     <g id="line2d_21">
      <defs>
       <path d="M 0 0 
L 3.2 0 
" id="m11e6158951" style="stroke:#000000;stroke-width:0.8;"/>
      </defs>
      <g>
       <use style="stroke:#000000;stroke-width:0.8;" x="54" xlink:href="#m11e6158951" y="241.500071"/>
      </g>
     </g>
     <g id="line2d_22">
      <defs>
       <path d="M 0 0 
L -3.2 0 
" id="medd8e18995" style="stroke:#000000;stroke-width:0.8;"/>
      </defs>
      <g>
       <use style="stroke:#000000;stroke-width:0.8;" x="388.8" xlink:href="#medd8e18995" y="241.500071"/>
      </g>
     </g>
    </g>
    <g id="ytick_4">
     <g id="line2d_23">
      <g>
       <use style="stroke:#000000;stroke-width:0.8;" x="54" xlink:href="#m11e6158951" y="225.955372"/>
      </g>
     </g>
     <g id="line2d_24">
      <g>
       <use style="stroke:#000000;stroke-width:0.8;" x="388.8" xlink:href="#medd8e18995" y="225.955372"/>
      </g>
     </g>
    </g>
    <g id="ytick_5">
     <g id="line2d_25">
      <g>
       <use style="stroke:#000000;stroke-width:0.8;" x="54" xlink:href="#m11e6158951" y="214.926232"/>
      </g>
     </g>
     <g id="line2d_26">
      <g>
       <use style="stroke:#000000;stroke-width:0.8;" x="388.8" xlink:href="#medd8e18995" y="214.926232"/>
      </g>
     </g>
    </g>
    <g id="ytick_6">
     <g id="line2d_27">
      <g>
       <use style="stroke:#000000;stroke-width:0.8;" x="54" xlink:href="#m11e6158951" y="206.371367"/>
      </g>
     </g>
     <g id="line2d_28">
      <g>
       <use style="stroke:#000000;stroke-width:0.8;" x="388.8" xlink:href="#medd8e18995" y="206.371367"/>
      </g>
     </g>
    </g>
    <g id="ytick_7">
     <g id="line2d_29">
      <g>
       <use style="stroke:#000000;stroke-width:0.8;" x="54" xlink:href="#m11e6158951" y="199.381533"/>
      </g>
     </g>
     <g id="line2d_30">
      <g>
       <use style="stroke:#000000;stroke-width:0.8;" x="388.8" xlink:href="#medd8e18995" y="199.381533"/>
      </g>
     </g>
    </g>
    <g id="ytick_8">
     <g id="line2d_31">
      <g>
       <use style="stroke:#000000;stroke-width:0.8;" x="54" xlink:href="#m11e6158951" y="193.471713"/>
      </g>
     </g>
     <g id="line2d_32">
      <g>
       <use style="stroke:#000000;stroke-width:0.8;" x="388.8" xlink:href="#medd8e18995" y="193.471713"/>
      </g>
     </g>
    </g>
    <g id="ytick_9">
     <g id="line2d_33">
      <g>
       <use style="stroke:#000000;stroke-width:0.8;" x="54" xlink:href="#m11e6158951" y="188.352394"/>
      </g>
     </g>
     <g id="line2d_34">
      <g>
       <use style="stroke:#000000;stroke-width:0.8;" x="388.8" xlink:href="#medd8e18995" y="188.352394"/>
      </g>
     </g>
    </g>
    <g id="ytick_10">
     <g id="line2d_35">
      <g>
       <use style="stroke:#000000;stroke-width:0.8;" x="54" xlink:href="#m11e6158951" y="183.836834"/>
      </g>
     </g>
     <g id="line2d_36">
      <g>
       <use style="stroke:#000000;stroke-width:0.8;" x="388.8" xlink:href="#medd8e18995" y="183.836834"/>
      </g>
     </g>
    </g>
    <g id="ytick_11">
     <g id="line2d_37">
      <g>
       <use style="stroke:#000000;stroke-width:0.8;" x="54" xlink:href="#m11e6158951" y="153.22369"/>
      </g>
     </g>
     <g id="line2d_38">
      <g>
       <use style="stroke:#000000;stroke-width:0.8;" x="388.8" xlink:href="#medd8e18995" y="153.22369"/>
      </g>
     </g>
    </g>
    <g id="ytick_12">
     <g id="line2d_39">
      <g>
       <use style="stroke:#000000;stroke-width:0.8;" x="54" xlink:href="#m11e6158951" y="137.678991"/>
      </g>
     </g>
     <g id="line2d_40">
      <g>
       <use style="stroke:#000000;stroke-width:0.8;" x="388.8" xlink:href="#medd8e18995" y="137.678991"/>
      </g>
     </g>
    </g>
    <g id="ytick_13">
     <g id="line2d_41">
      <g>
       <use style="stroke:#000000;stroke-width:0.8;" x="54" xlink:href="#m11e6158951" y="126.649851"/>
      </g>
     </g>
     <g id="line2d_42">
      <g>
       <use style="stroke:#000000;stroke-width:0.8;" x="388.8" xlink:href="#medd8e18995" y="126.649851"/>
      </g>
     </g>
    </g>
    <g id="ytick_14">
     <g id="line2d_43">
      <g>
       <use style="stroke:#000000;stroke-width:0.8;" x="54" xlink:href="#m11e6158951" y="118.094986"/>
      </g>
     </g>
     <g id="line2d_44">
      <g>
       <use style="stroke:#000000;stroke-width:0.8;" x="388.8" xlink:href="#medd8e18995" y="118.094986"/>
      </g>
     </g>
    </g>
    <g id="ytick_15">
     <g id="line2d_45">
      <g>
       <use style="stroke:#000000;stroke-width:0.8;" x="54" xlink:href="#m11e6158951" y="111.105152"/>
      </g>
     </g>
     <g id="line2d_46">
      <g>
       <use style="stroke:#000000;stroke-width:0.8;" x="388.8" xlink:href="#medd8e18995" y="111.105152"/>
      </g>
     </g>
    </g>
    <g id="ytick_16">
     <g id="line2d_47">
      <g>
       <use style="stroke:#000000;stroke-width:0.8;" x="54" xlink:href="#m11e6158951" y="105.195332"/>
      </g>
     </g>
     <g id="line2d_48">
      <g>
       <use style="stroke:#000000;stroke-width:0.8;" x="388.8" xlink:href="#medd8e18995" y="105.195332"/>
      </g>
     </g>
    </g>
    <g id="ytick_17">
     <g id="line2d_49">
      <g>
       <use style="stroke:#000000;stroke-width:0.8;" x="54" xlink:href="#m11e6158951" y="100.076013"/>
      </g>
     </g>
     <g id="line2d_50">
      <g>
       <use style="stroke:#000000;stroke-width:0.8;" x="388.8" xlink:href="#medd8e18995" y="100.076013"/>
      </g>
     </g>
    </g>
    <g id="ytick_18">
     <g id="line2d_51">
      <g>
       <use style="stroke:#000000;stroke-width:0.8;" x="54" xlink:href="#m11e6158951" y="95.560453"/>
      </g>
     </g>
     <g id="line2d_52">
      <g>
       <use style="stroke:#000000;stroke-width:0.8;" x="388.8" xlink:href="#medd8e18995" y="95.560453"/>
      </g>
     </g>
    </g>
    <g id="ytick_19">
     <g id="line2d_53">
      <g>
       <use style="stroke:#000000;stroke-width:0.8;" x="54" xlink:href="#m11e6158951" y="64.947309"/>
      </g>
     </g>
     <g id="line2d_54">
      <g>
       <use style="stroke:#000000;stroke-width:0.8;" x="388.8" xlink:href="#medd8e18995" y="64.947309"/>
      </g>
     </g>
    </g>
    <g id="ytick_20">
     <g id="line2d_55">
      <g>
       <use style="stroke:#000000;stroke-width:0.8;" x="54" xlink:href="#m11e6158951" y="49.40261"/>
      </g>
     </g>
     <g id="line2d_56">
      <g>
       <use style="stroke:#000000;stroke-width:0.8;" x="388.8" xlink:href="#medd8e18995" y="49.40261"/>
      </g>
     </g>
    </g>
    <g id="ytick_21">
     <g id="line2d_57">
      <g>
       <use style="stroke:#000000;stroke-width:0.8;" x="54" xlink:href="#m11e6158951" y="38.373471"/>
      </g>
     </g>
     <g id="line2d_58">
      <g>
       <use style="stroke:#000000;stroke-width:0.8;" x="388.8" xlink:href="#medd8e18995" y="38.373471"/>
      </g>
     </g>
    </g>
    <g id="text_12">
     <!-- IGD -->
     <defs>
      <path d="M 9.328125 0 
L 9.328125 71.578125 
L 18.796875 71.578125 
L 18.796875 0 
z
" id="ArialMT-73"/>
      <path d="M 7.71875 0 
L 7.71875 71.578125 
L 32.375 71.578125 
Q 40.71875 71.578125 45.125 70.5625 
Q 51.265625 69.140625 55.609375 65.4375 
Q 61.28125 60.640625 64.078125 53.1875 
Q 66.890625 45.75 66.890625 36.1875 
Q 66.890625 28.03125 64.984375 21.734375 
Q 63.09375 15.4375 60.109375 11.296875 
Q 57.125 7.171875 53.578125 4.796875 
Q 50.046875 2.4375 45.046875 1.21875 
Q 40.046875 0 33.546875 0 
z
M 17.1875 8.453125 
L 32.46875 8.453125 
Q 39.546875 8.453125 43.578125 9.765625 
Q 47.609375 11.078125 50 13.484375 
Q 53.375 16.84375 55.25 22.53125 
Q 57.125 28.21875 57.125 36.328125 
Q 57.125 47.5625 53.4375 53.59375 
Q 49.75 59.625 44.484375 61.671875 
Q 40.671875 63.140625 32.234375 63.140625 
L 17.1875 63.140625 
z
" id="ArialMT-68"/>
     </defs>
     <g transform="translate(23.3016 155.6802)rotate(-90)scale(0.1152 -0.1152)">
      <use xlink:href="#ArialMT-73"/>
      <use x="27.783203" xlink:href="#ArialMT-71"/>
      <use x="105.566406" xlink:href="#ArialMT-68"/>
     </g>
    </g>
   </g>
   <g id="line2d_59">
    <path clip-path="url(#p67e37943b0)" d="M 69.218182 44.899284 
L 69.421091 95.50815 
L 69.624 115.38201 
L 69.826909 118.369165 
L 70.029818 126.979733 
L 70.232727 122.886924 
L 70.435636 111.54232 
L 70.841455 133.747733 
L 71.044364 136.76093 
L 71.247273 138.039255 
L 71.450182 137.699997 
L 71.653091 139.009928 
L 71.856 144.401052 
L 72.058909 138.223215 
L 72.261818 137.622135 
L 72.464727 138.197165 
L 72.667636 124.360988 
L 72.870545 124.402935 
L 73.073455 146.414807 
L 73.276364 142.533055 
L 73.479273 113.182542 
L 73.682182 104.02579 
L 73.885091 104.214999 
L 74.088 107.095828 
L 74.290909 106.589278 
L 74.493818 109.24397 
L 74.696727 115.372178 
L 74.899636 115.447083 
L 75.102545 116.183001 
L 75.508364 116.314761 
L 75.711273 98.351822 
L 75.914182 102.60668 
L 76.117091 102.673884 
L 76.32 103.003977 
L 76.522909 107.834137 
L 76.725818 107.756697 
L 76.928727 107.008215 
L 77.334545 107.332643 
L 77.537455 107.324612 
L 77.740364 141.662778 
L 77.943273 118.28265 
L 78.146182 118.17072 
L 78.349091 116.113022 
L 78.552 116.044118 
L 79.160727 116.650803 
L 79.363636 124.376532 
L 79.566545 127.728031 
L 79.769455 127.420264 
L 79.972364 127.456445 
L 80.175273 127.345084 
L 80.581091 127.477639 
L 80.986909 130.009957 
L 81.189818 134.545362 
L 81.392727 134.103993 
L 81.595636 134.836294 
L 81.798545 143.182763 
L 82.204364 144.110016 
L 82.407273 153.345393 
L 82.610182 153.486515 
L 82.813091 154.12588 
L 83.016 154.118396 
L 83.218909 154.806866 
L 83.421818 154.526244 
L 83.624727 153.277855 
L 84.030545 153.775233 
L 84.233455 153.895996 
L 84.436364 154.264232 
L 84.639273 154.380768 
L 84.842182 158.754058 
L 85.045091 159.42535 
L 85.248 159.437238 
L 86.262545 160.237453 
L 86.465455 160.06259 
L 86.668364 160.250856 
L 86.871273 160.274256 
L 87.48 160.744349 
L 87.682909 160.675998 
L 88.088727 160.972341 
L 88.291636 161.753007 
L 88.697455 162.121908 
L 88.900364 162.141621 
L 89.103273 161.916895 
L 89.509091 161.970863 
L 89.712 162.06577 
L 89.914909 161.973427 
L 90.117818 163.072076 
L 90.320727 163.181489 
L 90.523636 164.331549 
L 90.726545 164.39729 
L 91.132364 164.129368 
L 91.538182 164.113171 
L 91.741091 164.08085 
L 91.944 164.180148 
L 92.146909 164.440617 
L 92.349818 171.603535 
L 92.552727 171.086002 
L 92.755636 171.04511 
L 92.958545 159.116448 
L 93.161455 157.632765 
L 93.364364 158.176482 
L 93.567273 158.293584 
L 93.770182 158.737115 
L 94.176 158.876336 
L 94.581818 159.045331 
L 94.784727 159.493337 
L 94.987636 159.548503 
L 95.190545 159.73576 
L 95.393455 159.750233 
L 95.799273 159.960689 
L 97.219636 160.310381 
L 97.422545 163.01569 
L 97.625455 162.864486 
L 97.828364 162.92048 
L 98.031273 166.572941 
L 98.234182 166.28977 
L 98.64 166.347998 
L 99.248727 166.664995 
L 100.263273 166.90288 
L 100.466182 167.460659 
L 100.669091 171.453163 
L 100.872 170.968712 
L 101.074909 170.894039 
L 101.277818 174.584981 
L 101.683636 174.741642 
L 101.886545 177.610506 
L 102.089455 177.404835 
L 102.292364 177.467734 
L 102.495273 176.838143 
L 102.698182 177.677091 
L 102.901091 177.920121 
L 103.104 177.87948 
L 103.306909 175.641916 
L 103.509818 175.57321 
L 104.118545 175.757091 
L 104.321455 175.384498 
L 105.133091 175.521127 
L 105.538909 175.911786 
L 105.741818 177.939001 
L 105.944727 177.932451 
L 106.350545 179.618888 
L 106.959273 180.003242 
L 107.162182 182.704466 
L 107.365091 182.333639 
L 107.568 182.256662 
L 107.770909 183.01979 
L 108.176727 183.131054 
L 108.582545 183.397469 
L 109.597091 183.575927 
L 110.002909 183.607549 
L 110.408727 183.689988 
L 110.814545 184.016631 
L 112.234909 184.184581 
L 112.640727 184.247535 
L 112.843636 184.28819 
L 113.249455 166.018065 
L 113.452364 167.702637 
L 114.264 169.10098 
L 114.466909 169.946468 
L 115.887273 171.113541 
L 116.496 171.138405 
L 116.698909 170.934976 
L 117.307636 171.152139 
L 117.713455 171.611825 
L 117.916364 175.172819 
L 118.322182 174.628061 
L 118.525091 175.106327 
L 118.728 175.103322 
L 118.930909 175.277745 
L 119.336727 175.381766 
L 119.742545 175.571143 
L 120.148364 175.863456 
L 120.554182 175.963041 
L 121.365818 175.968029 
L 121.974545 176.409123 
L 122.177455 176.448605 
L 122.380364 196.087286 
L 122.583273 193.397073 
L 122.786182 193.180867 
L 122.989091 193.29406 
L 123.192 193.639646 
L 123.394909 194.433254 
L 123.597818 194.652553 
L 123.800727 195.072459 
L 124.003636 196.648708 
L 124.206545 197.17922 
L 124.409455 197.167869 
L 124.612364 197.550118 
L 124.815273 197.544085 
L 125.018182 198.479274 
L 125.424 198.750761 
L 125.829818 198.747238 
L 126.235636 187.132925 
L 126.438545 187.634889 
L 126.641455 187.749409 
L 127.047273 188.460896 
L 127.250182 189.011052 
L 127.656 189.205793 
L 127.858909 190.113566 
L 128.061818 190.261102 
L 128.467636 190.26831 
L 128.670545 190.472436 
L 129.076364 190.618387 
L 129.685091 191.224254 
L 130.699636 191.220506 
L 130.902545 191.698385 
L 131.105455 194.122883 
L 131.308364 194.076133 
L 131.917091 194.297678 
L 132.322909 193.93942 
L 132.525818 193.946451 
L 132.728727 193.585501 
L 132.931636 193.951912 
L 133.337455 193.943034 
L 133.540364 194.206789 
L 133.743273 194.038235 
L 134.149091 194.07138 
L 134.352 193.585713 
L 134.757818 193.613853 
L 134.960727 193.783631 
L 136.381091 193.90413 
L 136.584 193.728465 
L 137.395636 193.778339 
L 137.598545 194.012879 
L 137.801455 204.725922 
L 138.004364 201.990668 
L 138.207273 201.128531 
L 138.410182 201.267559 
L 138.613091 202.086671 
L 138.816 210.882233 
L 139.018909 205.696281 
L 139.221818 207.436281 
L 139.424727 207.473986 
L 139.627636 209.002386 
L 140.033455 210.190763 
L 140.236364 210.312214 
L 140.439273 211.982911 
L 140.642182 212.249476 
L 140.845091 214.475419 
L 141.250909 215.33259 
L 141.453818 214.002688 
L 141.859636 214.149393 
L 142.265455 214.134306 
L 142.468364 214.393741 
L 142.671273 217.279465 
L 142.874182 217.366821 
L 143.077091 217.60407 
L 143.28 218.754192 
L 143.482909 218.610617 
L 143.888727 217.846272 
L 144.091636 218.207859 
L 144.294545 219.252017 
L 144.497455 219.394318 
L 144.700364 219.323597 
L 145.106182 219.571454 
L 145.309091 220.055898 
L 145.512 220.022147 
L 145.714909 219.696016 
L 146.526545 219.878388 
L 146.729455 221.888707 
L 146.932364 222.311685 
L 147.338182 222.123639 
L 147.946909 222.570186 
L 148.149818 222.629188 
L 148.352727 222.227727 
L 148.555636 222.241311 
L 148.758545 222.805117 
L 149.164364 222.984724 
L 149.367273 222.940321 
L 149.570182 223.080251 
L 150.990545 223.164804 
L 151.193455 223.329151 
L 151.396364 223.090396 
L 151.802182 223.273764 
L 152.005091 223.223337 
L 152.208 223.368324 
L 152.410909 223.33426 
L 152.613818 221.970793 
L 152.816727 221.53005 
L 153.019636 221.455448 
L 153.628364 201.399559 
L 153.831273 202.267034 
L 154.237091 208.011719 
L 154.44 210.069227 
L 154.642909 210.305278 
L 154.845818 209.780365 
L 155.251636 209.927496 
L 155.454545 212.444153 
L 155.657455 212.600853 
L 155.860364 213.38977 
L 156.063273 212.990734 
L 156.469091 213.143311 
L 156.672 213.593875 
L 156.874909 213.760768 
L 157.077818 213.63573 
L 157.280727 213.708516 
L 157.483636 213.500031 
L 157.686545 213.752918 
L 158.092364 213.720382 
L 158.295273 214.672547 
L 158.904 214.8956 
L 160.324364 215.008046 
L 160.527273 214.683472 
L 160.730182 214.665033 
L 160.933091 214.312402 
L 161.744727 214.485517 
L 161.947636 214.961403 
L 162.150545 214.99524 
L 162.353455 215.195311 
L 162.759273 215.202865 
L 162.962182 214.982053 
L 163.165091 218.73289 
L 163.570909 218.073812 
L 164.382545 217.573325 
L 165.397091 217.599328 
L 165.6 218.30495 
L 165.802909 218.240693 
L 166.005818 218.355482 
L 166.208727 219.066112 
L 166.411636 219.222237 
L 167.020364 219.217285 
L 168.237818 219.457535 
L 168.846545 219.490683 
L 169.049455 221.545043 
L 169.252364 221.171177 
L 169.455273 221.132284 
L 169.658182 220.793492 
L 169.861091 220.86499 
L 170.064 221.097132 
L 170.672727 221.157081 
L 170.875636 220.837806 
L 171.078545 221.228527 
L 171.687273 221.273291 
L 171.890182 221.760498 
L 172.498909 221.756634 
L 172.701818 221.208021 
L 172.904727 221.264507 
L 173.107636 221.682622 
L 173.716364 221.719237 
L 173.919273 221.951405 
L 174.528 221.996443 
L 174.933818 221.986952 
L 175.339636 221.934469 
L 175.542545 222.175007 
L 175.745455 232.484618 
L 175.948364 226.148818 
L 176.151273 225.051425 
L 176.354182 225.142453 
L 176.76 226.213734 
L 177.368727 229.529316 
L 177.571636 229.18888 
L 177.774545 229.260425 
L 177.977455 228.943485 
L 178.180364 231.229072 
L 178.789091 231.801148 
L 178.992 232.846898 
L 179.194909 232.850725 
L 179.600727 233.155209 
L 180.006545 233.023597 
L 180.209455 236.058913 
L 180.615273 235.824013 
L 180.818182 235.90099 
L 181.021091 236.72381 
L 181.224 235.194636 
L 181.832727 235.977269 
L 182.238545 235.782994 
L 182.441455 235.504932 
L 182.644364 235.625495 
L 182.847273 235.563687 
L 183.050182 235.381678 
L 183.253091 235.422691 
L 183.456 235.695741 
L 183.658909 235.65001 
L 183.861818 235.37836 
L 184.064727 236.475144 
L 184.267636 236.835086 
L 184.470545 236.915011 
L 184.673455 237.763635 
L 184.876364 237.818097 
L 185.079273 238.362703 
L 185.282182 239.282947 
L 185.485091 239.287208 
L 185.688 236.348619 
L 185.890909 226.632045 
L 186.093818 226.522329 
L 186.296727 221.433616 
L 186.499636 211.31504 
L 186.905455 218.833261 
L 187.311273 220.096429 
L 187.514182 221.352561 
L 187.717091 221.365115 
L 187.92 221.929087 
L 188.122909 221.955307 
L 188.325818 221.721303 
L 188.528727 226.195165 
L 188.731636 225.19912 
L 188.934545 227.031492 
L 189.137455 226.976573 
L 189.543273 228.090879 
L 189.746182 228.393564 
L 189.949091 228.358189 
L 190.557818 229.07969 
L 190.760727 230.0622 
L 190.963636 230.230248 
L 191.166545 230.058825 
L 191.369455 231.290744 
L 191.572364 231.178993 
L 191.978182 231.326602 
L 192.384 232.014499 
L 192.586909 231.941246 
L 192.789818 232.167604 
L 192.992727 232.216561 
L 193.804364 232.81884 
L 194.210182 232.820054 
L 194.413091 232.930938 
L 194.616 233.319395 
L 195.630545 233.458778 
L 195.833455 233.78332 
L 197.050909 233.848908 
L 197.456727 233.938496 
L 198.471273 234.086131 
L 199.282909 234.229143 
L 200.297455 234.259041 
L 200.500364 233.948763 
L 201.109091 234.026339 
L 201.312 233.776943 
L 202.123636 233.755155 
L 202.326545 240.255435 
L 202.529455 234.59983 
L 202.732364 232.617378 
L 202.935273 232.351898 
L 203.138182 235.00752 
L 203.544 236.327342 
L 203.746909 236.289481 
L 203.949818 237.032262 
L 204.355636 237.068501 
L 204.558545 238.906927 
L 204.761455 238.788302 
L 204.964364 238.894612 
L 205.167273 239.786989 
L 205.370182 239.647629 
L 205.573091 238.664506 
L 205.776 238.367763 
L 205.978909 237.738228 
L 206.587636 238.648838 
L 206.790545 238.660932 
L 206.993455 236.290384 
L 207.196364 236.201793 
L 207.602182 237.205908 
L 208.008 237.22776 
L 208.210909 236.918574 
L 208.616727 239.104118 
L 209.022545 239.045489 
L 209.225455 238.655914 
L 209.631273 236.861594 
L 209.834182 236.412419 
L 210.037091 236.434351 
L 210.24 236.338086 
L 210.442909 236.409027 
L 210.645818 241.586149 
L 211.051636 241.892745 
L 211.457455 241.538191 
L 211.863273 241.896992 
L 212.269091 242.085755 
L 212.674909 242.335143 
L 212.877818 242.032754 
L 213.080727 241.012126 
L 213.283636 241.256644 
L 213.486545 241.798581 
L 213.689455 241.47706 
L 214.095273 241.590342 
L 214.298182 242.685529 
L 214.501091 242.816724 
L 214.906909 244.634597 
L 215.109818 244.629648 
L 215.312727 245.375597 
L 215.515636 245.309352 
L 216.124364 245.446734 
L 216.327273 245.453366 
L 216.530182 245.602932 
L 216.733091 245.490629 
L 216.936 245.559709 
L 217.138909 245.360018 
L 217.341818 245.949311 
L 217.950545 245.927132 
L 218.153455 245.777763 
L 220.182545 245.809392 
L 220.385455 246.069561 
L 223.632 246.24 
L 373.581818 246.24 
L 373.581818 246.24 
" style="fill:none;stroke:#023eff;stroke-linecap:round;stroke-width:1.2;"/>
    <defs>
     <path d="M 0 2.4 
C 0.636487 2.4 1.246992 2.147121 1.697056 1.697056 
C 2.147121 1.246992 2.4 0.636487 2.4 0 
C 2.4 -0.636487 2.147121 -1.246992 1.697056 -1.697056 
C 1.246992 -2.147121 0.636487 -2.4 0 -2.4 
C -0.636487 -2.4 -1.246992 -2.147121 -1.697056 -1.697056 
C -2.147121 -1.246992 -2.4 -0.636487 -2.4 0 
C -2.4 0.636487 -2.147121 1.246992 -1.697056 1.697056 
C -1.246992 2.147121 -0.636487 2.4 0 2.4 
z
" id="md3b2aaa83e" style="stroke:#023eff;"/>
    </defs>
    <g clip-path="url(#p67e37943b0)">
     <use style="fill-opacity:0;stroke:#023eff;" x="69.218182" xlink:href="#md3b2aaa83e" y="44.899284"/>
     <use style="fill-opacity:0;stroke:#023eff;" x="109.8" xlink:href="#md3b2aaa83e" y="183.537872"/>
     <use style="fill-opacity:0;stroke:#023eff;" x="150.381818" xlink:href="#md3b2aaa83e" y="223.184159"/>
     <use style="fill-opacity:0;stroke:#023eff;" x="190.963636" xlink:href="#md3b2aaa83e" y="230.230248"/>
     <use style="fill-opacity:0;stroke:#023eff;" x="231.545455" xlink:href="#md3b2aaa83e" y="246.24"/>
     <use style="fill-opacity:0;stroke:#023eff;" x="272.127273" xlink:href="#md3b2aaa83e" y="246.24"/>
     <use style="fill-opacity:0;stroke:#023eff;" x="312.709091" xlink:href="#md3b2aaa83e" y="246.24"/>
     <use style="fill-opacity:0;stroke:#023eff;" x="353.290909" xlink:href="#md3b2aaa83e" y="246.24"/>
    </g>
   </g>
   <g id="line2d_60">
    <path clip-path="url(#p67e37943b0)" d="M 69.218182 44.64 
L 69.624 55.267852 
L 69.826909 55.267852 
L 70.029818 63.119463 
L 70.232727 65.29562 
L 70.435636 68.985953 
L 70.638545 70.579456 
L 70.841455 70.687273 
L 71.247273 74.175826 
L 71.450182 78.108985 
L 71.653091 76.314987 
L 71.856 77.831832 
L 72.058909 81.30233 
L 72.261818 81.057584 
L 72.464727 82.257635 
L 72.667636 88.255814 
L 73.073455 93.26082 
L 73.276364 90.964871 
L 73.479273 94.212815 
L 73.682182 94.397468 
L 73.885091 95.361562 
L 74.088 100.078921 
L 74.290909 100.224296 
L 74.696727 102.908431 
L 74.899636 103.337884 
L 75.305455 105.125542 
L 75.508364 105.566528 
L 75.711273 98.362446 
L 75.914182 98.3081 
L 76.117091 108.296012 
L 76.32 107.780452 
L 76.725818 104.975855 
L 76.928727 114.824784 
L 77.131636 111.747104 
L 77.334545 117.713558 
L 77.740364 117.631403 
L 78.146182 117.883389 
L 78.349091 117.488034 
L 78.552 117.587372 
L 78.754909 118.468911 
L 78.957818 118.780592 
L 79.160727 119.382482 
L 79.363636 119.395961 
L 79.566545 120.113244 
L 79.769455 120.228571 
L 79.972364 120.119307 
L 80.175273 118.902397 
L 80.378182 119.064344 
L 80.581091 112.323893 
L 80.784 112.325955 
L 80.986909 110.601564 
L 81.189818 112.170062 
L 81.392727 111.999404 
L 81.595636 112.3713 
L 81.798545 114.939565 
L 82.001455 115.07577 
L 82.204364 115.036837 
L 82.610182 125.113589 
L 82.813091 125.739391 
L 83.016 127.366063 
L 83.421818 127.636848 
L 83.624727 128.622115 
L 83.827636 128.622847 
L 84.030545 127.749208 
L 84.233455 127.801638 
L 84.436364 127.291316 
L 84.842182 127.931718 
L 85.045091 133.313658 
L 85.248 129.704953 
L 85.450909 129.7529 
L 85.653818 129.645165 
L 85.856727 136.310422 
L 86.262545 137.345056 
L 86.465455 137.5714 
L 86.668364 137.289787 
L 86.871273 138.761537 
L 87.074182 131.567935 
L 87.277091 130.847783 
L 87.48 131.129952 
L 87.682909 131.063544 
L 87.885818 132.801969 
L 88.291636 133.686686 
L 88.494545 139.180875 
L 88.697455 139.028863 
L 88.900364 139.080533 
L 89.103273 135.100084 
L 89.306182 134.96518 
L 89.509091 135.986203 
L 89.712 135.815926 
L 89.914909 141.036874 
L 90.117818 141.343866 
L 90.320727 141.366066 
L 90.523636 141.179195 
L 90.929455 141.205311 
L 91.538182 146.729696 
L 91.741091 146.777224 
L 91.944 146.591823 
L 92.146909 146.960868 
L 92.552727 147.030392 
L 92.755636 146.974177 
L 92.958545 147.253896 
L 93.161455 147.285191 
L 93.770182 148.058661 
L 93.973091 148.320686 
L 94.176 148.322664 
L 94.378909 148.642721 
L 94.581818 149.185153 
L 94.784727 149.294064 
L 94.987636 149.2695 
L 95.190545 148.68348 
L 95.393455 147.394467 
L 95.596364 148.331609 
L 96.002182 152.426858 
L 96.813818 153.639485 
L 97.016727 153.73499 
L 97.219636 158.153612 
L 97.422545 157.798888 
L 97.625455 157.998496 
L 97.828364 158.523322 
L 98.234182 158.729863 
L 98.437091 158.920825 
L 98.64 159.339733 
L 98.842909 159.29535 
L 99.045818 161.468066 
L 99.248727 161.453482 
L 99.451636 162.324903 
L 99.654545 161.998164 
L 99.857455 162.238682 
L 100.060364 163.152211 
L 100.263273 163.36054 
L 100.466182 163.360363 
L 100.669091 163.476668 
L 100.872 160.020142 
L 101.074909 160.218618 
L 101.277818 160.997792 
L 101.683636 161.124196 
L 101.886545 161.397008 
L 102.292364 161.412334 
L 102.698182 161.595781 
L 102.901091 161.430368 
L 103.104 159.786757 
L 103.509818 159.889276 
L 103.712727 159.961124 
L 104.118545 160.324841 
L 104.321455 156.637367 
L 104.524364 158.036079 
L 104.727273 158.184157 
L 105.336 158.287083 
L 105.538909 158.378225 
L 105.741818 159.217798 
L 105.944727 159.105883 
L 106.147636 159.652945 
L 106.350545 165.045534 
L 106.553455 165.281391 
L 106.756364 164.921338 
L 107.365091 165.924458 
L 107.568 165.587391 
L 107.770909 167.860032 
L 108.176727 167.561756 
L 108.379636 169.225955 
L 108.582545 169.619078 
L 108.785455 166.627564 
L 108.988364 167.830881 
L 109.394182 167.908225 
L 109.597091 171.32357 
L 109.8 172.653999 
L 110.002909 171.544883 
L 110.205818 171.400989 
L 110.408727 172.700486 
L 110.611636 171.737193 
L 110.814545 175.115922 
L 111.017455 152.435225 
L 111.220364 155.405978 
L 111.423273 154.524591 
L 111.829091 156.589396 
L 112.032 156.6557 
L 112.234909 165.014467 
L 112.437818 160.395015 
L 112.843636 160.86414 
L 113.452364 161.30747 
L 113.655273 171.245614 
L 113.858182 172.149822 
L 114.061091 172.449575 
L 114.872727 172.876234 
L 115.075636 169.812357 
L 115.278545 170.077741 
L 115.684364 169.82886 
L 115.887273 170.024843 
L 116.090182 169.99181 
L 116.293091 172.807548 
L 116.496 172.936557 
L 116.698909 173.203964 
L 117.307636 173.244428 
L 117.916364 174.330253 
L 118.119273 174.649522 
L 118.322182 175.61172 
L 118.525091 175.672915 
L 118.728 174.512055 
L 118.930909 174.409297 
L 119.133818 174.517009 
L 119.539636 173.90969 
L 119.742545 173.252551 
L 119.945455 173.569131 
L 120.148364 175.833454 
L 120.351273 175.231041 
L 120.554182 175.198777 
L 120.96 176.153724 
L 121.365818 176.552792 
L 121.568727 176.160587 
L 121.771636 174.941704 
L 121.974545 175.014936 
L 122.177455 175.599318 
L 122.380364 175.613871 
L 122.583273 173.976757 
L 122.786182 174.111417 
L 123.192 174.159601 
L 123.394909 174.264053 
L 123.597818 176.253365 
L 123.800727 176.274805 
L 124.206545 177.949179 
L 124.409455 178.221674 
L 124.612364 178.111222 
L 125.018182 176.27978 
L 125.626909 177.177052 
L 126.032727 178.792293 
L 126.235636 178.303205 
L 126.438545 179.079196 
L 127.250182 179.935937 
L 127.453091 180.087411 
L 127.656 173.198686 
L 127.858909 173.676069 
L 128.061818 186.89536 
L 128.264727 187.169688 
L 128.670545 187.833717 
L 128.873455 188.231425 
L 129.076364 180.571647 
L 129.482182 180.047225 
L 129.685091 179.640715 
L 129.888 180.084853 
L 130.496727 180.247254 
L 130.699636 180.795101 
L 130.902545 180.701619 
L 131.105455 179.30142 
L 132.12 180.014808 
L 132.322909 180.172883 
L 132.525818 184.464237 
L 133.743273 185.623354 
L 133.946182 186.378229 
L 134.352 186.399105 
L 134.757818 186.882606 
L 134.960727 186.154598 
L 135.163636 186.935533 
L 135.366545 186.421028 
L 135.569455 195.365771 
L 135.772364 194.138984 
L 135.975273 194.743617 
L 136.178182 194.11346 
L 136.381091 193.857415 
L 136.786909 192.86622 
L 137.192727 193.44865 
L 137.395636 193.767059 
L 137.801455 197.378193 
L 138.004364 198.04443 
L 138.410182 198.071886 
L 138.816 198.054641 
L 139.018909 170.462178 
L 139.221818 168.922102 
L 139.627636 171.925281 
L 140.033455 173.322314 
L 140.236364 179.958511 
L 140.439273 177.548153 
L 140.642182 177.848447 
L 141.048 179.105211 
L 141.656727 180.942031 
L 142.062545 180.53823 
L 142.468364 181.179143 
L 142.671273 193.818223 
L 142.874182 189.974161 
L 143.28 192.676001 
L 143.685818 192.531326 
L 144.091636 193.486596 
L 144.294545 193.483258 
L 144.903273 196.236288 
L 145.106182 196.284269 
L 145.917818 197.055977 
L 146.120727 202.169684 
L 146.323636 201.939908 
L 146.526545 202.176345 
L 146.729455 192.659358 
L 147.135273 187.841464 
L 147.338182 186.844008 
L 147.541091 189.052643 
L 147.744 188.705285 
L 147.946909 188.814066 
L 148.352727 189.584191 
L 148.555636 189.704068 
L 148.961455 190.687692 
L 149.570182 191.980991 
L 149.976 192.495124 
L 150.178909 192.286669 
L 150.381818 192.498518 
L 150.787636 193.07022 
L 151.193455 193.184782 
L 151.396364 193.225854 
L 151.802182 193.50887 
L 152.005091 193.899347 
L 152.208 193.936378 
L 152.410909 194.774714 
L 152.816727 194.831193 
L 153.019636 195.044458 
L 153.222545 195.094614 
L 153.628364 195.024317 
L 153.831273 195.053356 
L 154.034182 204.97917 
L 154.44 202.116085 
L 154.845818 202.361542 
L 155.048727 203.32408 
L 155.251636 203.022753 
L 155.454545 203.415052 
L 155.860364 202.125263 
L 156.266182 203.06261 
L 156.469091 204.305523 
L 156.874909 204.640829 
L 157.077818 205.558768 
L 157.483636 205.713812 
L 157.686545 206.087781 
L 157.889455 206.103741 
L 158.092364 206.723681 
L 158.295273 206.851773 
L 158.498182 206.312867 
L 158.701091 206.872456 
L 159.106909 206.547099 
L 159.309818 206.99823 
L 159.512727 206.940364 
L 159.918545 207.284721 
L 160.121455 207.600613 
L 160.933091 207.774152 
L 161.136 207.447008 
L 161.541818 207.312139 
L 161.744727 207.881155 
L 161.947636 207.962597 
L 162.150545 208.613143 
L 162.556364 208.762498 
L 162.759273 208.742273 
L 162.962182 209.562416 
L 163.165091 209.576252 
L 163.368 209.789967 
L 163.773818 209.778448 
L 163.976727 209.820814 
L 164.179636 202.514111 
L 164.382545 200.205471 
L 164.585455 199.834782 
L 164.788364 198.681673 
L 164.991273 198.416189 
L 165.194182 197.891306 
L 165.397091 197.048986 
L 166.005818 198.639118 
L 166.208727 199.046753 
L 166.411636 199.919681 
L 166.614545 200.010966 
L 166.817455 199.873201 
L 167.426182 201.934247 
L 167.629091 209.069321 
L 168.034909 207.803723 
L 168.237818 207.862355 
L 168.440727 208.730967 
L 168.643636 208.811041 
L 169.049455 208.29047 
L 169.252364 208.381278 
L 169.455273 208.017609 
L 170.064 208.724314 
L 170.266909 208.927959 
L 170.672727 208.630392 
L 170.875636 208.70727 
L 171.078545 209.014928 
L 171.281455 209.010978 
L 171.484364 209.415628 
L 171.687273 209.538675 
L 171.890182 211.128232 
L 172.904727 211.646051 
L 173.107636 211.753271 
L 173.310545 212.026304 
L 173.716364 212.040641 
L 174.325091 211.827761 
L 174.933818 211.922341 
L 175.339636 212.036587 
L 175.542545 212.463257 
L 175.948364 212.364293 
L 176.151273 212.370638 
L 176.354182 198.840238 
L 176.557091 197.71116 
L 176.76 197.432216 
L 176.962909 197.547969 
L 177.368727 199.12801 
L 177.774545 199.145541 
L 178.180364 199.441518 
L 178.383273 199.745994 
L 178.586182 199.781008 
L 178.789091 200.011004 
L 179.397818 200.091008 
L 180.006545 200.32999 
L 180.818182 200.576648 
L 181.224 200.374597 
L 183.253091 200.315154 
L 183.456 204.671755 
L 183.658909 204.926693 
L 183.861818 204.926693 
L 184.064727 205.253327 
L 184.673455 205.204613 
L 184.876364 205.554545 
L 185.890909 205.627948 
L 186.093818 205.370507 
L 187.717091 205.334459 
L 188.122909 205.793707 
L 189.746182 205.895572 
L 190.152 205.993313 
L 191.775273 206.077853 
L 192.586909 206.082578 
L 192.789818 205.619923 
L 192.992727 205.623572 
L 193.195636 224.236604 
L 193.398545 218.998161 
L 193.601455 218.798333 
L 193.804364 216.609886 
L 194.007273 217.539259 
L 194.210182 216.188994 
L 194.413091 215.734751 
L 194.616 215.585862 
L 194.818909 218.233268 
L 195.021818 218.219072 
L 195.224727 218.563462 
L 195.427636 218.142094 
L 195.630545 218.063744 
L 195.833455 218.596985 
L 196.645091 218.703915 
L 196.848 218.904012 
L 197.253818 218.912461 
L 197.456727 217.073324 
L 197.659636 216.936112 
L 197.862545 217.028635 
L 198.065455 217.835854 
L 198.471273 218.387374 
L 198.674182 218.429415 
L 198.877091 219.215473 
L 199.08 219.169608 
L 199.688727 219.3591 
L 199.891636 219.044243 
L 200.094545 219.044243 
L 200.297455 217.724137 
L 200.500364 219.495824 
L 200.703273 219.893236 
L 200.906182 221.591622 
L 201.109091 221.785957 
L 201.514909 221.807003 
L 201.717818 222.026078 
L 201.920727 222.545638 
L 202.326545 222.452198 
L 202.529455 228.35244 
L 202.732364 216.721276 
L 202.935273 222.139977 
L 203.138182 203.797252 
L 203.341091 210.374614 
L 203.746909 211.422008 
L 203.949818 211.786116 
L 204.152727 213.377568 
L 204.355636 216.180515 
L 204.558545 216.473421 
L 204.761455 217.728785 
L 204.964364 218.207178 
L 205.167273 218.264107 
L 205.776 222.35518 
L 205.978909 222.088557 
L 206.181818 222.871749 
L 206.384727 229.168352 
L 206.587636 229.176561 
L 206.790545 226.174838 
L 206.993455 219.958484 
L 207.196364 219.43954 
L 207.399273 215.977593 
L 207.805091 218.908203 
L 208.008 222.203537 
L 208.413818 223.547805 
L 208.616727 223.168889 
L 208.819636 223.719364 
L 209.022545 223.645348 
L 209.225455 224.869749 
L 209.428364 224.993768 
L 209.631273 221.627484 
L 209.834182 216.262889 
L 210.037091 206.389907 
L 210.24 205.348582 
L 210.442909 203.667111 
L 210.645818 208.257706 
L 210.848727 201.558557 
L 211.051636 207.572406 
L 211.254545 205.183088 
L 211.457455 206.702423 
L 211.660364 206.195199 
L 211.863273 208.34577 
L 212.066182 208.207409 
L 212.269091 209.04033 
L 212.472 209.03463 
L 212.674909 210.309347 
L 213.080727 217.886944 
L 213.486545 221.467969 
L 213.689455 224.290641 
L 213.892364 224.840624 
L 214.095273 224.914772 
L 214.298182 225.263524 
L 214.501091 226.447495 
L 214.704 224.03363 
L 214.906909 225.150708 
L 215.109818 225.345479 
L 215.312727 226.234006 
L 215.515636 226.33285 
L 216.124364 226.989672 
L 216.327273 226.145535 
L 216.530182 227.912713 
L 216.733091 228.042559 
L 217.138909 228.005699 
L 217.341818 228.410737 
L 217.544727 228.417501 
L 217.747636 228.796076 
L 217.950545 228.887784 
L 218.153455 229.102153 
L 218.356364 228.972107 
L 218.559273 232.087539 
L 218.965091 232.655284 
L 219.168 232.451444 
L 219.370909 232.537573 
L 219.573818 233.148409 
L 219.979636 233.303486 
L 220.385455 233.938576 
L 220.588364 233.939325 
L 220.791273 232.525302 
L 220.994182 232.554021 
L 221.197091 232.744115 
L 221.4 230.446135 
L 221.602909 230.446135 
L 221.805818 230.718653 
L 222.211636 230.65224 
L 222.617455 230.766328 
L 222.820364 232.215034 
L 223.226182 232.171592 
L 223.632 232.074403 
L 223.834909 217.042334 
L 224.240727 210.634308 
L 224.443636 210.282025 
L 224.849455 212.514678 
L 225.052364 212.484294 
L 225.255273 212.663999 
L 225.458182 215.263089 
L 225.864 215.413916 
L 226.066909 218.156177 
L 226.472727 218.447091 
L 226.675636 215.842948 
L 226.878545 220.474804 
L 227.284364 215.766084 
L 227.487273 216.387131 
L 227.893091 219.260765 
L 228.096 217.854134 
L 228.501818 222.57214 
L 228.704727 222.699922 
L 228.907636 222.622176 
L 229.719273 224.098528 
L 229.922182 225.18591 
L 230.125091 225.267675 
L 230.328 226.953956 
L 230.530909 226.893494 
L 230.936727 227.152042 
L 231.342545 226.705845 
L 231.545455 226.828954 
L 231.748364 227.587051 
L 231.951273 233.583748 
L 232.154182 233.889782 
L 232.357091 233.927318 
L 232.56 234.289375 
L 232.762909 234.321641 
L 232.965818 234.855895 
L 233.168727 234.584742 
L 233.371636 234.963816 
L 233.574545 236.278264 
L 233.777455 236.284287 
L 234.183273 236.571039 
L 234.386182 236.571039 
L 234.589091 237.296673 
L 234.792 237.153946 
L 235.197818 237.403403 
L 235.400727 234.687837 
L 236.009455 234.838171 
L 236.415273 229.482186 
L 236.618182 229.384395 
L 237.024 226.922178 
L 237.226909 227.156068 
L 237.429818 226.005186 
L 237.632727 227.81445 
L 237.835636 228.379157 
L 238.241455 228.53147 
L 238.444364 228.235771 
L 238.850182 228.339127 
L 239.053091 228.330437 
L 239.256 228.062853 
L 239.458909 228.420623 
L 239.661818 229.043384 
L 239.864727 229.075238 
L 240.067636 230.289715 
L 240.270545 234.70124 
L 240.473455 234.328196 
L 241.082182 234.405694 
L 241.285091 235.189563 
L 241.488 226.540106 
L 241.690909 195.119721 
L 241.893818 196.592037 
L 242.096727 187.857764 
L 242.299636 190.483517 
L 242.502545 190.125224 
L 242.705455 190.138177 
L 242.908364 191.808473 
L 243.517091 192.474139 
L 243.72 193.473581 
L 243.922909 193.819626 
L 244.125818 193.470419 
L 244.328727 194.486272 
L 244.531636 194.570197 
L 244.734545 211.449361 
L 244.937455 211.910812 
L 245.140364 211.803166 
L 245.343273 212.341826 
L 245.546182 213.649882 
L 245.749091 213.644395 
L 245.952 214.963614 
L 246.154909 215.072898 
L 246.560727 215.617818 
L 246.763636 215.450653 
L 246.966545 215.491815 
L 247.169455 215.749374 
L 247.372364 216.194505 
L 247.778182 216.463314 
L 247.981091 216.930485 
L 248.184 213.632291 
L 248.792727 213.525798 
L 248.995636 213.74582 
L 249.401455 213.722871 
L 249.604364 213.395589 
L 249.807273 212.787167 
L 250.010182 220.622746 
L 250.213091 220.595914 
L 250.416 220.762467 
L 250.618909 221.095018 
L 250.821818 225.337447 
L 251.024727 221.796278 
L 251.227636 221.88129 
L 251.430545 221.812517 
L 251.836364 222.378063 
L 252.242182 222.631017 
L 252.445091 222.631017 
L 252.850909 222.745221 
L 253.459636 222.772843 
L 253.662545 223.270283 
L 254.271273 223.094564 
L 254.474182 222.68786 
L 254.677091 223.191156 
L 255.082909 223.239918 
L 255.285818 224.985887 
L 255.488727 231.6688 
L 255.691636 231.93618 
L 255.894545 230.678515 
L 256.097455 238.024634 
L 256.300364 237.672149 
L 256.503273 237.672149 
L 256.706182 237.146598 
L 257.314909 237.146601 
L 257.720727 238.382256 
L 257.923636 238.466697 
L 258.126545 239.104823 
L 258.532364 239.048175 
L 258.735273 239.260364 
L 258.938182 239.2927 
L 259.141091 238.938044 
L 259.344 239.358461 
L 259.749818 236.557229 
L 259.952727 239.376081 
L 260.155636 239.378504 
L 260.358545 239.573077 
L 260.561455 239.067892 
L 260.967273 239.016912 
L 261.170182 240.583465 
L 261.373091 240.986218 
L 261.576 240.999924 
L 261.778909 240.791294 
L 262.387636 240.774697 
L 262.590545 240.641941 
L 262.793455 239.562053 
L 264.010909 239.726501 
L 264.416727 240.033516 
L 264.822545 240.04634 
L 265.025455 239.832064 
L 265.431273 239.902332 
L 265.634182 240.10129 
L 266.445818 240.190122 
L 266.648727 240.304109 
L 266.851636 240.650385 
L 267.054545 240.29826 
L 267.257455 240.827492 
L 267.460364 240.814133 
L 267.663273 239.974853 
L 269.692364 240.261609 
L 269.895273 240.669426 
L 270.706909 240.608379 
L 270.909818 240.123384 
L 273.750545 240.099128 
L 273.953455 240.511892 
L 274.765091 240.531209 
L 274.968 241.965465 
L 275.576727 241.762696 
L 275.779636 243.067437 
L 276.185455 243.152437 
L 278.620364 243.250982 
L 279.026182 243.325602 
L 279.432 243.325602 
L 279.837818 243.458325 
L 373.581818 243.463269 
L 373.581818 243.463269 
" style="fill:none;stroke:#1ac938;stroke-linecap:round;stroke-width:1.2;"/>
    <defs>
     <path d="M -0 2.4 
L 2.4 -2.4 
L -2.4 -2.4 
z
" id="m4594b9a3f8" style="stroke:#1ac938;stroke-linejoin:miter;"/>
    </defs>
    <g clip-path="url(#p67e37943b0)">
     <use style="fill-opacity:0;stroke:#1ac938;stroke-linejoin:miter;" x="69.218182" xlink:href="#m4594b9a3f8" y="44.64"/>
     <use style="fill-opacity:0;stroke:#1ac938;stroke-linejoin:miter;" x="109.8" xlink:href="#m4594b9a3f8" y="172.653999"/>
     <use style="fill-opacity:0;stroke:#1ac938;stroke-linejoin:miter;" x="150.381818" xlink:href="#m4594b9a3f8" y="192.498518"/>
     <use style="fill-opacity:0;stroke:#1ac938;stroke-linejoin:miter;" x="190.963636" xlink:href="#m4594b9a3f8" y="206.041224"/>
     <use style="fill-opacity:0;stroke:#1ac938;stroke-linejoin:miter;" x="231.545455" xlink:href="#m4594b9a3f8" y="226.828954"/>
     <use style="fill-opacity:0;stroke:#1ac938;stroke-linejoin:miter;" x="272.127273" xlink:href="#m4594b9a3f8" y="240.114156"/>
     <use style="fill-opacity:0;stroke:#1ac938;stroke-linejoin:miter;" x="312.709091" xlink:href="#m4594b9a3f8" y="243.463269"/>
     <use style="fill-opacity:0;stroke:#1ac938;stroke-linejoin:miter;" x="353.290909" xlink:href="#m4594b9a3f8" y="243.463269"/>
    </g>
   </g>
   <g id="line2d_61">
    <path clip-path="url(#p67e37943b0)" d="M 69.218182 45.145537 
L 69.826909 47.724543 
L 70.029818 47.724543 
L 70.435636 51.297361 
L 70.638545 52.335535 
L 71.044364 52.361596 
L 71.247273 52.475476 
L 71.450182 53.056515 
L 71.653091 55.038174 
L 71.856 58.531444 
L 72.058909 65.093788 
L 72.464727 69.63232 
L 72.667636 71.706386 
L 72.870545 76.885404 
L 73.276364 80.714278 
L 73.682182 80.763056 
L 74.088 81.738345 
L 74.290909 81.937353 
L 74.696727 90.387158 
L 74.899636 92.536914 
L 75.102545 88.249343 
L 75.305455 89.189819 
L 75.508364 89.297585 
L 76.117091 90.358259 
L 76.725818 90.397431 
L 77.131636 96.298322 
L 77.537455 96.665128 
L 77.740364 97.132873 
L 77.943273 98.55606 
L 78.146182 98.558681 
L 78.349091 98.717634 
L 78.754909 104.311476 
L 78.957818 104.415962 
L 79.363636 105.163576 
L 80.175273 107.016769 
L 80.784 107.294801 
L 80.986909 107.061388 
L 81.189818 108.240866 
L 81.392727 107.840717 
L 81.595636 107.921496 
L 81.798545 109.089784 
L 82.001455 111.373882 
L 82.204364 117.914136 
L 82.407273 118.967254 
L 82.610182 118.943387 
L 82.813091 119.163225 
L 83.016 120.170304 
L 83.218909 120.563383 
L 83.624727 125.112651 
L 83.827636 125.597476 
L 84.030545 125.701848 
L 84.436364 129.776867 
L 84.842182 132.498825 
L 85.045091 132.470724 
L 85.248 133.355497 
L 85.653818 133.173271 
L 85.856727 133.259619 
L 86.059636 135.221868 
L 86.465455 136.431453 
L 86.668364 136.817067 
L 86.871273 137.866432 
L 87.074182 137.72035 
L 87.277091 138.638417 
L 87.682909 138.756692 
L 88.088727 139.195996 
L 88.291636 138.93422 
L 89.103273 139.357608 
L 89.306182 139.753271 
L 89.509091 139.767904 
L 89.914909 137.564275 
L 90.117818 131.410248 
L 90.320727 131.667502 
L 90.726545 138.726826 
L 91.335273 139.395461 
L 92.349818 141.94903 
L 92.552727 142.070743 
L 92.755636 143.129457 
L 93.161455 143.464484 
L 93.567273 143.85266 
L 93.770182 144.416622 
L 93.973091 144.447786 
L 94.378909 144.923934 
L 94.581818 144.773134 
L 94.784727 143.243771 
L 95.596364 143.804794 
L 95.799273 144.168783 
L 96.002182 144.170575 
L 96.205091 145.359922 
L 96.408 145.514732 
L 96.610909 148.829766 
L 98.031273 149.98559 
L 98.234182 149.760147 
L 98.437091 150.355511 
L 99.045818 150.493629 
L 99.248727 146.924313 
L 99.654545 147.350711 
L 99.857455 147.486 
L 100.060364 147.436135 
L 100.669091 147.785123 
L 100.872 152.564656 
L 101.074909 152.682781 
L 101.277818 150.889642 
L 101.683636 150.825966 
L 102.089455 151.009243 
L 102.292364 147.702532 
L 102.495273 147.776776 
L 102.698182 137.772433 
L 103.104 137.855827 
L 103.306909 141.298342 
L 103.509818 151.798963 
L 103.712727 151.842894 
L 103.915636 156.304861 
L 104.118545 157.036508 
L 104.321455 156.664299 
L 104.524364 156.845344 
L 104.727273 156.344748 
L 104.930182 156.498108 
L 105.133091 141.657562 
L 105.336 144.569766 
L 105.538909 144.624429 
L 105.944727 145.376586 
L 106.147636 145.488406 
L 106.553455 153.799488 
L 106.756364 154.206924 
L 106.959273 154.34986 
L 107.365091 154.941615 
L 107.770909 155.263812 
L 107.973818 154.938236 
L 108.176727 155.038301 
L 108.379636 138.052985 
L 108.582545 154.261628 
L 109.191273 156.0375 
L 109.394182 156.193016 
L 110.002909 157.724213 
L 110.408727 157.725528 
L 110.611636 158.962444 
L 110.814545 159.022837 
L 111.017455 158.374481 
L 111.220364 160.45671 
L 111.423273 160.216641 
L 111.626182 161.922024 
L 111.829091 162.275371 
L 112.032 163.059059 
L 112.234909 150.548962 
L 112.437818 150.0309 
L 112.640727 150.025423 
L 113.046545 150.674068 
L 113.249455 150.012806 
L 113.452364 153.232326 
L 113.655273 153.180975 
L 113.858182 153.720028 
L 114.264 153.94393 
L 114.466909 153.961548 
L 114.669818 154.341111 
L 114.872727 154.394111 
L 115.278545 154.692459 
L 116.293091 154.976659 
L 116.698909 155.275105 
L 117.713455 155.34987 
L 117.916364 155.508968 
L 118.322182 155.596521 
L 118.525091 176.737214 
L 118.728 174.851847 
L 118.930909 175.346647 
L 119.133818 175.064577 
L 119.336727 175.191639 
L 119.539636 175.930391 
L 120.148364 176.313161 
L 120.351273 179.165939 
L 120.96 179.399789 
L 121.162909 179.665888 
L 121.365818 178.470962 
L 121.568727 172.618346 
L 121.974545 171.741347 
L 122.380364 168.19092 
L 122.583273 168.227675 
L 122.786182 168.028938 
L 123.192 169.24121 
L 123.394909 155.304539 
L 123.597818 155.227442 
L 124.003636 155.42825 
L 124.206545 143.463148 
L 124.409455 161.271555 
L 124.612364 161.989072 
L 125.018182 162.221925 
L 125.424 162.896351 
L 126.032727 163.110584 
L 126.235636 173.849206 
L 126.438545 173.982723 
L 126.641455 173.744144 
L 127.250182 174.674997 
L 127.453091 174.732602 
L 127.656 175.473404 
L 128.061818 175.685693 
L 128.467636 154.326878 
L 128.670545 154.346219 
L 128.873455 155.604825 
L 129.279273 156.344411 
L 129.888 156.598577 
L 130.293818 156.814273 
L 130.496727 156.995354 
L 130.699636 156.989777 
L 131.105455 157.317404 
L 132.322909 157.85133 
L 132.525818 158.159103 
L 132.728727 158.062388 
L 132.931636 158.092353 
L 133.134545 157.591353 
L 133.337455 157.576042 
L 133.540364 157.764344 
L 133.743273 164.144614 
L 133.946182 163.395953 
L 134.352 163.548346 
L 134.554909 156.763112 
L 135.772364 157.165719 
L 135.975273 158.820794 
L 136.381091 158.975063 
L 136.584 158.985355 
L 136.786909 162.942537 
L 137.801455 163.060808 
L 138.004364 158.155519 
L 139.221818 158.240594 
L 140.033455 158.286191 
L 140.236364 158.263989 
L 140.439273 160.30394 
L 140.642182 163.503215 
L 141.250909 163.566666 
L 142.062545 163.638876 
L 143.482909 163.767795 
L 145.309091 163.822029 
L 147.338182 163.929366 
L 147.541091 168.481288 
L 147.744 168.375823 
L 147.946909 168.125146 
L 148.352727 168.092193 
L 148.555636 167.603181 
L 148.758545 168.138392 
L 149.164364 171.681437 
L 149.773091 171.409795 
L 149.976 170.978881 
L 150.584727 170.838633 
L 151.193455 171.520204 
L 151.599273 188.957192 
L 151.802182 187.086477 
L 152.208 188.645142 
L 152.410909 186.935448 
L 152.613818 187.113341 
L 152.816727 187.922114 
L 153.019636 187.393292 
L 154.034182 189.109348 
L 154.237091 188.87323 
L 154.44 189.071261 
L 154.642909 187.952596 
L 154.845818 187.788216 
L 155.048727 187.955303 
L 155.251636 185.157404 
L 155.657455 185.911034 
L 155.860364 185.806122 
L 156.063273 185.914675 
L 156.266182 185.796907 
L 156.469091 185.906818 
L 156.874909 186.514715 
L 157.077818 186.526442 
L 157.889455 186.952926 
L 158.904 187.067046 
L 159.309818 187.001967 
L 159.512727 173.844017 
L 159.715636 186.486755 
L 160.324364 186.538652 
L 160.527273 191.477261 
L 161.136 191.54614 
L 161.338909 181.273488 
L 162.556364 181.389176 
L 162.759273 184.432298 
L 166.005818 184.616587 
L 166.208727 189.941753 
L 167.223273 189.997773 
L 169.049455 190.075391 
L 170.875636 190.108047 
L 171.078545 184.320154 
L 171.890182 184.31592 
L 172.093091 185.113074 
L 172.296 185.113074 
L 172.498909 189.620577 
L 176.557091 189.716901 
L 176.76 189.721884 
L 176.962909 189.231409 
L 177.774545 189.207588 
L 178.383273 189.213013 
L 178.586182 191.597164 
L 182.238545 191.718868 
L 183.658909 191.769608 
L 184.064727 191.793158 
L 184.267636 192.531006 
L 187.108364 192.572384 
L 187.311273 191.239143 
L 187.514182 191.238354 
L 187.717091 191.872476 
L 188.122909 191.873803 
L 188.325818 192.601699 
L 189.543273 192.529008 
L 189.746182 192.824646 
L 190.152 192.68602 
L 190.354909 192.688221 
L 190.557818 192.312324 
L 190.760727 192.309584 
L 190.963636 192.786739 
L 191.369455 192.777434 
L 191.572364 189.678086 
L 191.775273 189.273506 
L 191.978182 189.156327 
L 192.181091 188.665952 
L 192.586909 188.56881 
L 192.789818 188.852689 
L 373.581818 188.852689 
L 373.581818 188.852689 
" style="fill:none;stroke:#e8000b;stroke-linecap:round;stroke-width:1.2;"/>
    <defs>
     <path d="M 0 -2.4 
L -2.4 2.4 
L 2.4 2.4 
z
" id="me436b2cf49" style="stroke:#e8000b;stroke-linejoin:miter;"/>
    </defs>
    <g clip-path="url(#p67e37943b0)">
     <use style="fill-opacity:0;stroke:#e8000b;stroke-linejoin:miter;" x="69.218182" xlink:href="#me436b2cf49" y="45.145537"/>
     <use style="fill-opacity:0;stroke:#e8000b;stroke-linejoin:miter;" x="109.8" xlink:href="#me436b2cf49" y="157.290708"/>
     <use style="fill-opacity:0;stroke:#e8000b;stroke-linejoin:miter;" x="150.381818" xlink:href="#me436b2cf49" y="170.822031"/>
     <use style="fill-opacity:0;stroke:#e8000b;stroke-linejoin:miter;" x="190.963636" xlink:href="#me436b2cf49" y="192.786739"/>
     <use style="fill-opacity:0;stroke:#e8000b;stroke-linejoin:miter;" x="231.545455" xlink:href="#me436b2cf49" y="188.852689"/>
     <use style="fill-opacity:0;stroke:#e8000b;stroke-linejoin:miter;" x="272.127273" xlink:href="#me436b2cf49" y="188.852689"/>
     <use style="fill-opacity:0;stroke:#e8000b;stroke-linejoin:miter;" x="312.709091" xlink:href="#me436b2cf49" y="188.852689"/>
     <use style="fill-opacity:0;stroke:#e8000b;stroke-linejoin:miter;" x="353.290909" xlink:href="#me436b2cf49" y="188.852689"/>
    </g>
   </g>
   <g id="line2d_62">
    <path clip-path="url(#p67e37943b0)" d="M 69.218182 45.145537 
L 69.421091 47.436702 
L 69.826909 57.233042 
L 70.029818 57.233042 
L 70.232727 66.420362 
L 70.435636 66.420362 
L 70.638545 70.179758 
L 71.044364 70.175686 
L 71.247273 70.767578 
L 71.450182 73.445116 
L 71.653091 73.455513 
L 71.856 79.143781 
L 72.058909 79.277085 
L 72.261818 78.51915 
L 72.464727 76.503999 
L 72.667636 78.097086 
L 72.870545 78.031578 
L 73.073455 81.53507 
L 73.276364 102.093653 
L 73.479273 102.13656 
L 73.885091 104.913884 
L 74.088 96.037774 
L 74.290909 111.752116 
L 74.493818 110.42401 
L 74.696727 110.853609 
L 74.899636 103.238487 
L 75.102545 103.257613 
L 75.305455 104.805471 
L 75.508364 109.474498 
L 75.711273 110.787344 
L 75.914182 110.787344 
L 76.117091 110.954077 
L 76.522909 110.914527 
L 76.725818 105.092215 
L 76.928727 107.655927 
L 77.131636 107.663628 
L 77.334545 117.051638 
L 78.552 116.946944 
L 78.957818 118.777732 
L 79.566545 118.810189 
L 79.769455 120.505034 
L 79.972364 120.725682 
L 80.175273 120.727233 
L 80.378182 120.071382 
L 80.986909 120.117313 
L 81.392727 126.589856 
L 81.595636 126.64224 
L 81.798545 122.079629 
L 82.001455 126.425799 
L 82.204364 126.611494 
L 82.407273 127.321679 
L 82.610182 130.463604 
L 82.813091 130.50804 
L 83.016 130.266487 
L 83.624727 130.374495 
L 83.827636 128.745523 
L 84.030545 128.631075 
L 84.233455 128.646373 
L 84.436364 128.487802 
L 84.842182 128.63874 
L 86.262545 128.605098 
L 86.668364 128.567095 
L 86.871273 128.369993 
L 87.277091 128.502125 
L 87.682909 128.503448 
L 88.291636 128.752698 
L 88.900364 128.694094 
L 89.103273 131.581796 
L 89.306182 131.376856 
L 89.509091 131.745973 
L 91.538182 131.82939 
L 92.552727 131.980765 
L 93.161455 132.036736 
L 93.364364 132.107929 
L 93.567273 132.299177 
L 97.219636 132.486236 
L 97.422545 133.060254 
L 98.234182 133.101518 
L 99.857455 133.108119 
L 100.060364 132.891652 
L 100.669091 132.958041 
L 102.089455 133.029777 
L 102.495273 133.112175 
L 104.727273 133.117906 
L 104.930182 137.934983 
L 105.336 137.994838 
L 105.538909 137.687432 
L 105.741818 137.879916 
L 105.944727 137.856493 
L 106.350545 137.953476 
L 107.568 138.051349 
L 107.770909 127.927286 
L 108.988364 127.947728 
L 112.032 128.116406 
L 112.640727 128.176611 
L 112.843636 128.174144 
L 113.046545 127.942641 
L 113.249455 130.609437 
L 113.452364 130.386901 
L 113.858182 130.379342 
L 114.061091 120.760617 
L 114.669818 120.973462 
L 114.872727 136.590408 
L 115.278545 136.71958 
L 115.684364 136.735477 
L 116.090182 136.591019 
L 116.293091 136.591019 
L 116.496 137.199372 
L 116.698909 137.199372 
L 116.901818 138.198735 
L 117.104727 138.223962 
L 117.307636 126.502374 
L 119.742545 126.587219 
L 119.945455 126.779025 
L 121.974545 126.886566 
L 122.583273 126.905918 
L 122.786182 126.895526 
L 122.989091 122.410695 
L 126.438545 122.398844 
L 126.641455 123.561012 
L 126.844364 134.137836 
L 127.047273 134.137748 
L 127.250182 137.634405 
L 127.858909 137.571353 
L 128.061818 142.058304 
L 129.279273 142.079982 
L 129.482182 154.032985 
L 129.685091 153.968881 
L 129.888 154.228339 
L 130.902545 154.282798 
L 131.308364 154.419252 
L 133.134545 154.521314 
L 133.540364 154.66399 
L 134.149091 154.618995 
L 134.352 154.799366 
L 134.960727 154.799366 
L 135.163636 155.251201 
L 135.366545 155.989247 
L 135.772364 155.989247 
L 135.975273 156.182122 
L 136.178182 156.192041 
L 136.381091 156.074 
L 136.584 156.110819 
L 136.786909 156.404871 
L 139.018909 156.566809 
L 139.221818 156.853613 
L 140.439273 156.938293 
L 140.845091 156.930784 
L 143.077091 156.898294 
L 143.482909 157.074272 
L 146.120727 157.093843 
L 146.323636 157.479513 
L 147.744 157.575419 
L 148.758545 157.648759 
L 151.396364 157.736553 
L 151.599273 157.775067 
L 151.802182 157.930928 
L 153.425455 158.027514 
L 153.831273 158.123521 
L 154.642909 158.189075 
L 154.845818 157.824302 
L 373.581818 157.892453 
L 373.581818 157.892453 
" style="fill:none;stroke:#00d7ff;stroke-linecap:round;stroke-width:1.2;"/>
    <defs>
     <path d="M -2.4 2.4 
L 2.4 2.4 
L 2.4 -2.4 
L -2.4 -2.4 
z
" id="maf704ea5c7" style="stroke:#00d7ff;stroke-linejoin:miter;"/>
    </defs>
    <g clip-path="url(#p67e37943b0)">
     <use style="fill-opacity:0;stroke:#00d7ff;stroke-linejoin:miter;" x="69.218182" xlink:href="#maf704ea5c7" y="45.145537"/>
     <use style="fill-opacity:0;stroke:#00d7ff;stroke-linejoin:miter;" x="109.8" xlink:href="#maf704ea5c7" y="128.0002"/>
     <use style="fill-opacity:0;stroke:#00d7ff;stroke-linejoin:miter;" x="150.381818" xlink:href="#maf704ea5c7" y="157.650777"/>
     <use style="fill-opacity:0;stroke:#00d7ff;stroke-linejoin:miter;" x="190.963636" xlink:href="#maf704ea5c7" y="157.892453"/>
     <use style="fill-opacity:0;stroke:#00d7ff;stroke-linejoin:miter;" x="231.545455" xlink:href="#maf704ea5c7" y="157.892453"/>
     <use style="fill-opacity:0;stroke:#00d7ff;stroke-linejoin:miter;" x="272.127273" xlink:href="#maf704ea5c7" y="157.892453"/>
     <use style="fill-opacity:0;stroke:#00d7ff;stroke-linejoin:miter;" x="312.709091" xlink:href="#maf704ea5c7" y="157.892453"/>
     <use style="fill-opacity:0;stroke:#00d7ff;stroke-linejoin:miter;" x="353.290909" xlink:href="#maf704ea5c7" y="157.892453"/>
    </g>
   </g>
   <g id="line2d_63">
    <path clip-path="url(#p67e37943b0)" d="M 69.218182 44.952306 
L 69.421091 46.545532 
L 69.624 49.28769 
L 69.826909 54.132097 
L 70.029818 56.080517 
L 70.232727 56.120096 
L 70.435636 68.187868 
L 70.638545 68.220771 
L 70.841455 71.7491 
L 71.247273 71.937314 
L 71.450182 79.791895 
L 71.653091 79.921195 
L 71.856 88.322893 
L 72.058909 91.528735 
L 72.261818 91.578807 
L 72.464727 92.112959 
L 72.667636 93.826381 
L 72.870545 101.013477 
L 73.073455 101.993045 
L 73.276364 100.340899 
L 73.682182 110.109718 
L 73.885091 110.348511 
L 74.088 112.053592 
L 74.696727 112.672212 
L 75.102545 120.130711 
L 75.305455 116.209318 
L 75.508364 122.701505 
L 75.914182 127.692117 
L 76.117091 125.887539 
L 76.32 126.037862 
L 76.522909 123.604218 
L 76.725818 125.735934 
L 76.928727 126.603108 
L 77.131636 126.676653 
L 77.740364 128.576297 
L 78.146182 129.802024 
L 78.349091 130.323072 
L 78.552 131.691008 
L 78.754909 134.345499 
L 78.957818 134.406196 
L 79.160727 134.68137 
L 79.363636 131.847453 
L 79.566545 130.641166 
L 79.972364 131.061556 
L 80.175273 131.137051 
L 80.378182 130.953845 
L 80.784 131.167332 
L 80.986909 132.124279 
L 81.189818 132.390833 
L 81.392727 132.842318 
L 81.595636 137.44564 
L 82.001455 137.683841 
L 82.204364 137.858624 
L 82.407273 135.906461 
L 82.610182 135.862007 
L 82.813091 135.652312 
L 83.016 140.203572 
L 83.218909 132.589776 
L 83.421818 132.65681 
L 83.624727 132.996457 
L 84.030545 132.977424 
L 84.436364 133.556079 
L 84.842182 133.610329 
L 85.248 133.678318 
L 85.856727 133.857647 
L 86.059636 129.066586 
L 86.465455 130.293054 
L 86.668364 130.378722 
L 86.871273 134.693641 
L 87.074182 134.734105 
L 87.48 135.006549 
L 88.291636 135.178684 
L 88.494545 136.042983 
L 88.900364 136.151795 
L 89.103273 136.027398 
L 90.117818 136.223383 
L 90.320727 136.22888 
L 90.523636 136.401364 
L 90.726545 136.412491 
L 90.929455 136.302798 
L 91.132364 137.120534 
L 92.146909 137.244259 
L 92.552727 137.200794 
L 92.755636 137.451219 
L 93.364364 137.557312 
L 93.567273 129.347822 
L 93.770182 129.286445 
L 94.378909 129.561553 
L 94.581818 128.248922 
L 95.393455 128.324087 
L 95.596364 128.633033 
L 96.002182 128.661624 
L 96.205091 130.641048 
L 96.813818 130.706427 
L 97.016727 130.942818 
L 97.219636 130.947888 
L 97.422545 131.12547 
L 99.248727 131.241081 
L 99.451636 135.301384 
L 100.060364 135.349344 
L 100.263273 135.948907 
L 101.480727 136.010723 
L 101.683636 138.441534 
L 103.509818 138.561286 
L 104.321455 138.50046 
L 104.524364 135.713071 
L 105.538909 135.729373 
L 105.944727 135.901428 
L 106.147636 135.891368 
L 106.350545 136.224443 
L 106.756364 136.202512 
L 107.162182 136.320598 
L 109.394182 136.366367 
L 111.423273 136.456907 
L 113.655273 136.512879 
L 113.858182 136.498384 
L 114.061091 137.263871 
L 114.264 137.262359 
L 114.466909 137.07777 
L 116.496 137.16513 
L 116.698909 136.541332 
L 118.525091 136.578107 
L 120.351273 136.578698 
L 120.757091 136.580023 
L 120.96 136.848907 
L 121.974545 136.860596 
L 122.177455 139.685039 
L 122.380364 139.693849 
L 122.583273 139.855842 
L 122.786182 140.958123 
L 123.192 140.952552 
L 123.394909 144.701068 
L 123.597818 144.696592 
L 123.800727 148.670257 
L 124.003636 148.662332 
L 124.206545 149.131106 
L 126.641455 149.080789 
L 127.453091 149.188087 
L 128.670545 149.094078 
L 128.873455 162.468223 
L 129.076364 163.067018 
L 129.279273 163.062016 
L 129.482182 163.248547 
L 129.888 163.230074 
L 131.308364 163.234495 
L 134.352 163.37977 
L 134.757818 163.341562 
L 134.960727 162.415008 
L 135.163636 163.78123 
L 136.178182 163.730981 
L 136.381091 164.069507 
L 136.584 164.058785 
L 136.786909 164.169334 
L 136.989818 164.143187 
L 137.192727 165.521957 
L 138.816 165.651407 
L 139.221818 165.611189 
L 139.424727 165.608447 
L 139.627636 164.08555 
L 139.830545 163.990799 
L 140.642182 164.04126 
L 141.048 164.079271 
L 141.453818 164.155122 
L 142.468364 164.14924 
L 142.671273 165.725936 
L 144.700364 165.926117 
L 144.903273 163.04232 
L 145.309091 162.996335 
L 145.714909 162.949786 
L 146.120727 162.877839 
L 146.323636 162.831695 
L 146.729455 162.899542 
L 147.946909 162.949095 
L 148.555636 163.063737 
L 148.758545 163.230817 
L 149.773091 163.190948 
L 149.976 163.315708 
L 151.802182 163.210473 
L 153.019636 163.246665 
L 156.266182 163.186748 
L 156.469091 166.539633 
L 156.672 166.602169 
L 157.280727 166.392676 
L 158.498182 166.543606 
L 159.512727 166.569591 
L 159.918545 166.550818 
L 160.121455 168.248311 
L 161.338909 168.143753 
L 161.541818 168.987465 
L 162.962182 169.063514 
L 163.368 169.084519 
L 164.991273 169.057661 
L 165.194182 169.094663 
L 165.397091 168.947391 
L 165.802909 169.03452 
L 166.208727 169.059356 
L 166.411636 169.302526 
L 167.426182 169.377474 
L 168.237818 169.349977 
L 168.643636 169.304334 
L 168.846545 169.206898 
L 169.049455 169.240022 
L 169.252364 176.484149 
L 169.861091 176.491563 
L 170.266909 176.461248 
L 170.672727 176.422055 
L 170.875636 179.216574 
L 171.281455 179.158615 
L 171.484364 179.000734 
L 171.890182 179.114044 
L 172.093091 179.146434 
L 172.498909 178.982105 
L 173.107636 179.125174 
L 173.310545 178.937271 
L 173.716364 178.947075 
L 175.339636 179.106675 
L 178.180364 179.275499 
L 178.586182 179.45551 
L 178.992 179.259222 
L 179.194909 180.027954 
L 180.818182 180.241081 
L 181.426909 180.288303 
L 181.832727 180.25776 
L 182.035636 185.078603 
L 182.644364 185.100436 
L 182.847273 185.061898 
L 183.050182 185.171173 
L 183.253091 190.197754 
L 183.456 190.055896 
L 183.658909 190.197255 
L 183.861818 191.599929 
L 184.470545 191.523628 
L 184.673455 191.541498 
L 184.876364 192.379855 
L 185.079273 192.136932 
L 185.688 192.138539 
L 185.890909 192.239665 
L 186.296727 192.152781 
L 186.905455 192.397762 
L 187.108364 192.32344 
L 187.514182 192.455635 
L 188.325818 192.246428 
L 188.528727 192.475812 
L 188.731636 192.492225 
L 188.934545 192.250484 
L 189.137455 192.300367 
L 189.340364 192.218948 
L 189.543273 191.958487 
L 189.746182 192.128334 
L 189.949091 192.019349 
L 190.152 192.063562 
L 190.354909 191.646985 
L 190.963636 191.730012 
L 191.166545 193.527119 
L 191.572364 193.614557 
L 192.181091 193.624451 
L 192.384 193.514755 
L 192.789818 193.594147 
L 193.195636 193.422074 
L 193.398545 193.359773 
L 193.601455 193.701976 
L 194.007273 193.550992 
L 194.210182 193.72562 
L 194.413091 194.14732 
L 194.616 193.992597 
L 194.818909 194.191022 
L 195.021818 193.958126 
L 195.427636 193.94839 
L 195.630545 194.047938 
L 195.833455 193.537145 
L 196.036364 193.732558 
L 196.239273 193.720968 
L 196.645091 193.884897 
L 196.848 200.631283 
L 197.253818 200.596784 
L 197.456727 200.660041 
L 197.659636 201.146911 
L 198.065455 201.031557 
L 198.268364 201.733632 
L 198.471273 201.508694 
L 199.485818 201.786386 
L 199.688727 201.723391 
L 200.094545 202.797888 
L 200.297455 202.787764 
L 200.500364 202.918585 
L 200.703273 207.494755 
L 200.906182 207.279318 
L 201.109091 207.357723 
L 201.312 207.274379 
L 201.514909 207.946225 
L 201.920727 207.863449 
L 202.326545 207.675874 
L 202.529455 207.888569 
L 202.732364 210.523089 
L 202.935273 211.159376 
L 203.138182 211.043744 
L 203.341091 212.707562 
L 203.544 212.820088 
L 203.746909 213.087436 
L 203.949818 212.584076 
L 204.152727 212.645279 
L 204.355636 212.490199 
L 204.558545 212.109427 
L 204.761455 212.477517 
L 204.964364 212.4954 
L 205.167273 211.818053 
L 205.370182 211.966161 
L 205.776 212.863818 
L 206.181818 213.24511 
L 206.384727 213.252707 
L 206.587636 213.099774 
L 206.790545 213.156504 
L 207.196364 212.360725 
L 207.602182 212.407097 
L 207.805091 212.420448 
L 208.008 212.254738 
L 208.210909 212.467801 
L 208.413818 211.681158 
L 208.616727 211.880361 
L 208.819636 210.819883 
L 209.225455 211.757012 
L 209.631273 211.983784 
L 210.037091 211.898296 
L 210.24 211.490226 
L 210.645818 213.199008 
L 210.848727 213.250542 
L 211.254545 212.085522 
L 211.457455 208.918029 
L 212.066182 209.379908 
L 212.472 209.107092 
L 212.877818 209.306247 
L 213.486545 209.361897 
L 213.689455 209.713683 
L 213.892364 209.657745 
L 214.298182 209.987553 
L 214.501091 209.652121 
L 214.704 209.685408 
L 214.906909 209.850949 
L 215.312727 209.704561 
L 215.718545 209.386145 
L 216.124364 209.494519 
L 216.327273 209.886166 
L 216.530182 209.883816 
L 216.733091 209.656903 
L 216.936 209.660135 
L 217.544727 208.718503 
L 217.950545 209.211806 
L 218.559273 209.052842 
L 218.762182 209.307422 
L 218.965091 209.362001 
L 219.168 209.756619 
L 219.370909 209.677918 
L 219.776727 209.925748 
L 219.979636 209.90825 
L 220.182545 210.19408 
L 220.385455 209.945877 
L 220.588364 209.893048 
L 220.791273 209.489131 
L 221.4 209.750218 
L 221.602909 209.18834 
L 222.008727 209.271227 
L 373.581818 209.271227 
L 373.581818 209.271227 
" style="fill:none;stroke:#8b2be2;stroke-linecap:round;stroke-width:1.2;"/>
    <defs>
     <path d="M -0 3.394113 
L 3.394113 0 
L 0 -3.394113 
L -3.394113 -0 
z
" id="mb7b5afacf6" style="stroke:#8b2be2;stroke-linejoin:miter;"/>
    </defs>
    <g clip-path="url(#p67e37943b0)">
     <use style="fill-opacity:0;stroke:#8b2be2;stroke-linejoin:miter;" x="69.218182" xlink:href="#mb7b5afacf6" y="44.952306"/>
     <use style="fill-opacity:0;stroke:#8b2be2;stroke-linejoin:miter;" x="109.8" xlink:href="#mb7b5afacf6" y="136.380417"/>
     <use style="fill-opacity:0;stroke:#8b2be2;stroke-linejoin:miter;" x="150.381818" xlink:href="#mb7b5afacf6" y="163.304704"/>
     <use style="fill-opacity:0;stroke:#8b2be2;stroke-linejoin:miter;" x="190.963636" xlink:href="#mb7b5afacf6" y="191.730012"/>
     <use style="fill-opacity:0;stroke:#8b2be2;stroke-linejoin:miter;" x="231.545455" xlink:href="#mb7b5afacf6" y="209.271227"/>
     <use style="fill-opacity:0;stroke:#8b2be2;stroke-linejoin:miter;" x="272.127273" xlink:href="#mb7b5afacf6" y="209.271227"/>
     <use style="fill-opacity:0;stroke:#8b2be2;stroke-linejoin:miter;" x="312.709091" xlink:href="#mb7b5afacf6" y="209.271227"/>
     <use style="fill-opacity:0;stroke:#8b2be2;stroke-linejoin:miter;" x="353.290909" xlink:href="#mb7b5afacf6" y="209.271227"/>
    </g>
   </g>
   <g id="patch_3">
    <path d="M 54 256.32 
L 54 34.56 
" style="fill:none;stroke:#000000;stroke-linecap:square;stroke-linejoin:miter;"/>
   </g>
   <g id="patch_4">
    <path d="M 388.8 256.32 
L 388.8 34.56 
" style="fill:none;stroke:#000000;stroke-linecap:square;stroke-linejoin:miter;"/>
   </g>
   <g id="patch_5">
    <path d="M 54 256.32 
L 388.8 256.32 
" style="fill:none;stroke:#000000;stroke-linecap:square;stroke-linejoin:miter;"/>
   </g>
   <g id="patch_6">
    <path d="M 54 34.56 
L 388.8 34.56 
" style="fill:none;stroke:#000000;stroke-linecap:square;stroke-linejoin:miter;"/>
   </g>
   <g id="legend_1">
    <g id="patch_7">
     <path d="M 276.864 117.9543 
L 383.52 117.9543 
L 383.52 39.84 
L 276.864 39.84 
z
" style="fill:#ffffff;opacity:0.8;stroke:#000000;stroke-linejoin:miter;stroke-width:0.8;"/>
    </g>
    <g id="line2d_64">
     <path d="M 281.088 48.06195 
L 302.208 48.06195 
" style="fill:none;stroke:#023eff;stroke-linecap:round;stroke-width:1.2;"/>
    </g>
    <g id="line2d_65">
     <g>
      <use style="fill-opacity:0;stroke:#023eff;" x="291.648" xlink:href="#md3b2aaa83e" y="48.06195"/>
     </g>
    </g>
    <g id="text_13">
     <!-- MOEA/D-Lvy -->
     <defs>
      <path d="M 7.421875 0 
L 7.421875 71.578125 
L 21.6875 71.578125 
L 38.625 20.90625 
Q 40.96875 13.8125 42.046875 10.296875 
Q 43.265625 14.203125 45.84375 21.78125 
L 62.984375 71.578125 
L 75.734375 71.578125 
L 75.734375 0 
L 66.609375 0 
L 66.609375 59.90625 
L 45.796875 0 
L 37.25 0 
L 16.546875 60.9375 
L 16.546875 0 
z
" id="ArialMT-77"/>
      <path d="M 4.828125 34.859375 
Q 4.828125 52.6875 14.390625 62.765625 
Q 23.96875 72.859375 39.109375 72.859375 
Q 49.03125 72.859375 56.984375 68.109375 
Q 64.9375 63.375 69.109375 54.90625 
Q 73.296875 46.4375 73.296875 35.6875 
Q 73.296875 24.8125 68.890625 16.21875 
Q 64.5 7.625 56.4375 3.203125 
Q 48.390625 -1.21875 39.0625 -1.21875 
Q 28.953125 -1.21875 20.984375 3.65625 
Q 13.03125 8.546875 8.921875 16.984375 
Q 4.828125 25.4375 4.828125 34.859375 
z
M 14.59375 34.71875 
Q 14.59375 21.78125 21.546875 14.328125 
Q 28.515625 6.890625 39.015625 6.890625 
Q 49.703125 6.890625 56.609375 14.40625 
Q 63.53125 21.921875 63.53125 35.75 
Q 63.53125 44.484375 60.578125 51 
Q 57.625 57.515625 51.921875 61.109375 
Q 46.234375 64.703125 39.15625 64.703125 
Q 29.109375 64.703125 21.84375 57.78125 
Q 14.59375 50.875 14.59375 34.71875 
z
" id="ArialMT-79"/>
      <path d="M 7.90625 0 
L 7.90625 71.578125 
L 59.671875 71.578125 
L 59.671875 63.140625 
L 17.390625 63.140625 
L 17.390625 41.21875 
L 56.984375 41.21875 
L 56.984375 32.8125 
L 17.390625 32.8125 
L 17.390625 8.453125 
L 61.328125 8.453125 
L 61.328125 0 
z
" id="ArialMT-69"/>
      <path d="M -0.140625 0 
L 27.34375 71.578125 
L 37.546875 71.578125 
L 66.84375 0 
L 56.0625 0 
L 47.703125 21.6875 
L 17.78125 21.6875 
L 9.90625 0 
z
M 20.515625 29.390625 
L 44.78125 29.390625 
L 37.3125 49.21875 
Q 33.890625 58.25 32.234375 64.0625 
Q 30.859375 57.171875 28.375 50.390625 
z
" id="ArialMT-65"/>
      <path d="M 0 -1.21875 
L 20.75 72.796875 
L 27.78125 72.796875 
L 7.078125 -1.21875 
z
" id="ArialMT-47"/>
      <path d="M 3.171875 21.484375 
L 3.171875 30.328125 
L 30.171875 30.328125 
L 30.171875 21.484375 
z
" id="ArialMT-45"/>
      <path d="M 7.328125 0 
L 7.328125 71.578125 
L 16.796875 71.578125 
L 16.796875 8.453125 
L 52.046875 8.453125 
L 52.046875 0 
z
" id="ArialMT-76"/>
      <path d="M 42.09375 16.703125 
L 51.171875 15.578125 
Q 49.03125 7.625 43.21875 3.21875 
Q 37.40625 -1.171875 28.375 -1.171875 
Q 17 -1.171875 10.328125 5.828125 
Q 3.65625 12.84375 3.65625 25.484375 
Q 3.65625 38.578125 10.390625 45.796875 
Q 17.140625 53.03125 27.875 53.03125 
Q 38.28125 53.03125 44.875 45.953125 
Q 51.46875 38.875 51.46875 26.03125 
Q 51.46875 25.25 51.421875 23.6875 
L 12.75 23.6875 
Q 13.234375 15.140625 17.578125 10.59375 
Q 21.921875 6.0625 28.421875 6.0625 
Q 33.25 6.0625 36.671875 8.59375 
Q 40.09375 11.140625 42.09375 16.703125 
z
M 13.234375 30.90625 
L 42.1875 30.90625 
Q 41.609375 37.453125 38.875 40.71875 
Q 34.671875 45.796875 27.984375 45.796875 
Q 21.921875 45.796875 17.796875 41.75 
Q 13.671875 37.703125 13.234375 30.90625 
z
M 22.71875 58.296875 
L 29.203125 71.96875 
L 40.734375 71.96875 
L 29.984375 58.296875 
z
" id="ArialMT-233"/>
      <path d="M 21 0 
L 1.265625 51.859375 
L 10.546875 51.859375 
L 21.6875 20.796875 
Q 23.484375 15.765625 25 10.359375 
Q 26.171875 14.453125 28.265625 20.21875 
L 39.796875 51.859375 
L 48.828125 51.859375 
L 29.203125 0 
z
" id="ArialMT-118"/>
      <path d="M 6.203125 -19.96875 
L 5.21875 -11.71875 
Q 8.109375 -12.5 10.25 -12.5 
Q 13.1875 -12.5 14.9375 -11.515625 
Q 16.703125 -10.546875 17.828125 -8.796875 
Q 18.65625 -7.46875 20.515625 -2.25 
Q 20.75 -1.515625 21.296875 -0.09375 
L 1.609375 51.859375 
L 11.078125 51.859375 
L 21.875 21.828125 
Q 23.96875 16.109375 25.640625 9.8125 
Q 27.15625 15.875 29.25 21.625 
L 40.328125 51.859375 
L 49.125 51.859375 
L 29.390625 -0.875 
Q 26.21875 -9.421875 24.46875 -12.640625 
Q 22.125 -17 19.09375 -19.015625 
Q 16.0625 -21.046875 11.859375 -21.046875 
Q 9.328125 -21.046875 6.203125 -19.96875 
z
" id="ArialMT-121"/>
     </defs>
     <g transform="translate(310.656 51.75795)scale(0.1056 -0.1056)">
      <use xlink:href="#ArialMT-77"/>
      <use x="83.300781" xlink:href="#ArialMT-79"/>
      <use x="161.083984" xlink:href="#ArialMT-69"/>
      <use x="227.783203" xlink:href="#ArialMT-65"/>
      <use x="294.482422" xlink:href="#ArialMT-47"/>
      <use x="322.265625" xlink:href="#ArialMT-68"/>
      <use x="394.482422" xlink:href="#ArialMT-45"/>
      <use x="427.783203" xlink:href="#ArialMT-76"/>
      <use x="483.398438" xlink:href="#ArialMT-233"/>
      <use x="539.013672" xlink:href="#ArialMT-118"/>
      <use x="589.013672" xlink:href="#ArialMT-121"/>
     </g>
    </g>
    <g id="line2d_66">
     <path d="M 281.088 63.12315 
L 302.208 63.12315 
" style="fill:none;stroke:#1ac938;stroke-linecap:round;stroke-width:1.2;"/>
    </g>
    <g id="line2d_67">
     <g>
      <use style="fill-opacity:0;stroke:#1ac938;stroke-linejoin:miter;" x="291.648" xlink:href="#m4594b9a3f8" y="63.12315"/>
     </g>
    </g>
    <g id="text_14">
     <!-- MOEA/D-DEM -->
     <g transform="translate(310.656 66.81915)scale(0.1056 -0.1056)">
      <use xlink:href="#ArialMT-77"/>
      <use x="83.300781" xlink:href="#ArialMT-79"/>
      <use x="161.083984" xlink:href="#ArialMT-69"/>
      <use x="227.783203" xlink:href="#ArialMT-65"/>
      <use x="294.482422" xlink:href="#ArialMT-47"/>
      <use x="322.265625" xlink:href="#ArialMT-68"/>
      <use x="394.482422" xlink:href="#ArialMT-45"/>
      <use x="427.783203" xlink:href="#ArialMT-68"/>
      <use x="500" xlink:href="#ArialMT-69"/>
      <use x="566.699219" xlink:href="#ArialMT-77"/>
     </g>
    </g>
    <g id="line2d_68">
     <path d="M 281.088 78.0606 
L 302.208 78.0606 
" style="fill:none;stroke:#e8000b;stroke-linecap:round;stroke-width:1.2;"/>
    </g>
    <g id="line2d_69">
     <g>
      <use style="fill-opacity:0;stroke:#e8000b;stroke-linejoin:miter;" x="291.648" xlink:href="#me436b2cf49" y="78.0606"/>
     </g>
    </g>
    <g id="text_15">
     <!-- MOEA/D-DE -->
     <g transform="translate(310.656 81.7566)scale(0.1056 -0.1056)">
      <use xlink:href="#ArialMT-77"/>
      <use x="83.300781" xlink:href="#ArialMT-79"/>
      <use x="161.083984" xlink:href="#ArialMT-69"/>
      <use x="227.783203" xlink:href="#ArialMT-65"/>
      <use x="294.482422" xlink:href="#ArialMT-47"/>
      <use x="322.265625" xlink:href="#ArialMT-68"/>
      <use x="394.482422" xlink:href="#ArialMT-45"/>
      <use x="427.783203" xlink:href="#ArialMT-68"/>
      <use x="500" xlink:href="#ArialMT-69"/>
     </g>
    </g>
    <g id="line2d_70">
     <path d="M 281.088 92.99805 
L 302.208 92.99805 
" style="fill:none;stroke:#00d7ff;stroke-linecap:round;stroke-width:1.2;"/>
    </g>
    <g id="line2d_71">
     <g>
      <use style="fill-opacity:0;stroke:#00d7ff;stroke-linejoin:miter;" x="291.648" xlink:href="#maf704ea5c7" y="92.99805"/>
     </g>
    </g>
    <g id="text_16">
     <!-- MOEA/D-GA -->
     <g transform="translate(310.656 96.69405)scale(0.1056 -0.1056)">
      <use xlink:href="#ArialMT-77"/>
      <use x="83.300781" xlink:href="#ArialMT-79"/>
      <use x="161.083984" xlink:href="#ArialMT-69"/>
      <use x="227.783203" xlink:href="#ArialMT-65"/>
      <use x="294.482422" xlink:href="#ArialMT-47"/>
      <use x="322.265625" xlink:href="#ArialMT-68"/>
      <use x="394.482422" xlink:href="#ArialMT-45"/>
      <use x="427.783203" xlink:href="#ArialMT-71"/>
      <use x="505.566406" xlink:href="#ArialMT-65"/>
     </g>
    </g>
    <g id="line2d_72">
     <path d="M 281.088 107.9355 
L 302.208 107.9355 
" style="fill:none;stroke:#8b2be2;stroke-linecap:round;stroke-width:1.2;"/>
    </g>
    <g id="line2d_73">
     <g>
      <use style="fill-opacity:0;stroke:#8b2be2;stroke-linejoin:miter;" x="291.648" xlink:href="#mb7b5afacf6" y="107.9355"/>
     </g>
    </g>
    <g id="text_17">
     <!-- NSGA-II -->
     <defs>
      <path d="M 7.625 0 
L 7.625 71.578125 
L 17.328125 71.578125 
L 54.9375 15.375 
L 54.9375 71.578125 
L 64.015625 71.578125 
L 64.015625 0 
L 54.296875 0 
L 16.703125 56.25 
L 16.703125 0 
z
" id="ArialMT-78"/>
      <path d="M 4.5 23 
L 13.421875 23.78125 
Q 14.0625 18.40625 16.375 14.96875 
Q 18.703125 11.53125 23.578125 9.40625 
Q 28.46875 7.28125 34.578125 7.28125 
Q 39.984375 7.28125 44.140625 8.890625 
Q 48.296875 10.5 50.3125 13.296875 
Q 52.34375 16.109375 52.34375 19.4375 
Q 52.34375 22.796875 50.390625 25.3125 
Q 48.4375 27.828125 43.953125 29.546875 
Q 41.0625 30.671875 31.203125 33.03125 
Q 21.34375 35.40625 17.390625 37.5 
Q 12.25 40.1875 9.734375 44.15625 
Q 7.234375 48.140625 7.234375 53.078125 
Q 7.234375 58.5 10.296875 63.203125 
Q 13.375 67.921875 19.28125 70.359375 
Q 25.203125 72.796875 32.421875 72.796875 
Q 40.375 72.796875 46.453125 70.234375 
Q 52.546875 67.671875 55.8125 62.6875 
Q 59.078125 57.71875 59.328125 51.421875 
L 50.25 50.734375 
Q 49.515625 57.515625 45.28125 60.984375 
Q 41.0625 64.453125 32.8125 64.453125 
Q 24.21875 64.453125 20.28125 61.296875 
Q 16.359375 58.15625 16.359375 53.71875 
Q 16.359375 49.859375 19.140625 47.359375 
Q 21.875 44.875 33.421875 42.265625 
Q 44.96875 39.65625 49.265625 37.703125 
Q 55.515625 34.8125 58.484375 30.390625 
Q 61.46875 25.984375 61.46875 20.21875 
Q 61.46875 14.5 58.203125 9.4375 
Q 54.9375 4.390625 48.796875 1.578125 
Q 42.671875 -1.21875 35.015625 -1.21875 
Q 25.296875 -1.21875 18.71875 1.609375 
Q 12.15625 4.4375 8.421875 10.125 
Q 4.6875 15.828125 4.5 23 
z
" id="ArialMT-83"/>
     </defs>
     <g transform="translate(310.656 111.6315)scale(0.1056 -0.1056)">
      <use xlink:href="#ArialMT-78"/>
      <use x="72.216797" xlink:href="#ArialMT-83"/>
      <use x="138.916016" xlink:href="#ArialMT-71"/>
      <use x="216.699219" xlink:href="#ArialMT-65"/>
      <use x="283.398438" xlink:href="#ArialMT-45"/>
      <use x="316.699219" xlink:href="#ArialMT-73"/>
      <use x="344.482422" xlink:href="#ArialMT-73"/>
     </g>
    </g>
   </g>
  </g>
 </g>
 <defs>
  <clipPath id="p67e37943b0">
   <rect height="221.76" width="334.8" x="54" y="34.56"/>
  </clipPath>
 </defs>
</svg>
