<?xml version="1.0" encoding="utf-8" standalone="no"?>
<!DOCTYPE svg PUBLIC "-//W3C//DTD SVG 1.1//EN"
  "http://www.w3.org/Graphics/SVG/1.1/DTD/svg11.dtd">
<!-- Created with matplotlib (https://matplotlib.org/) -->
<svg height="288pt" version="1.1" viewBox="0 0 432 288" width="432pt" xmlns="http://www.w3.org/2000/svg" xmlns:xlink="http://www.w3.org/1999/xlink">
 <defs>
  <style type="text/css">
*{stroke-linecap:butt;stroke-linejoin:round;}
  </style>
 </defs>
 <g id="figure_1">
  <g id="patch_1">
   <path d="M 0 288 
L 432 288 
L 432 0 
L 0 0 
z
" style="fill:#ffffff;"/>
  </g>
  <g id="axes_1">
   <g id="patch_2">
    <path d="M 54 256.32 
L 388.8 256.32 
L 388.8 34.56 
L 54 34.56 
z
" style="fill:#ffffff;"/>
   </g>
   <g id="matplotlib.axis_1">
    <g id="xtick_1">
     <g id="line2d_1">
      <defs>
       <path d="M 0 0 
L 0 -3 
" id="m2fd4046152" style="stroke:#000000;"/>
      </defs>
      <g>
       <use style="stroke:#000000;" x="69.218182" xlink:href="#m2fd4046152" y="256.32"/>
      </g>
     </g>
     <g id="line2d_2">
      <defs>
       <path d="M 0 0 
L 0 3 
" id="mfc9d487a36" style="stroke:#000000;"/>
      </defs>
      <g>
       <use style="stroke:#000000;" x="69.218182" xlink:href="#mfc9d487a36" y="34.56"/>
      </g>
     </g>
     <g id="text_1">
      <!-- 0 -->
      <defs>
       <path d="M 4.15625 35.296875 
Q 4.15625 48 6.765625 55.734375 
Q 9.375 63.484375 14.515625 67.671875 
Q 19.671875 71.875 27.484375 71.875 
Q 33.25 71.875 37.59375 69.546875 
Q 41.9375 67.234375 44.765625 62.859375 
Q 47.609375 58.5 49.21875 52.21875 
Q 50.828125 45.953125 50.828125 35.296875 
Q 50.828125 22.703125 48.234375 14.96875 
Q 45.65625 7.234375 40.5 3 
Q 35.359375 -1.21875 27.484375 -1.21875 
Q 17.140625 -1.21875 11.234375 6.203125 
Q 4.15625 15.140625 4.15625 35.296875 
z
M 13.1875 35.296875 
Q 13.1875 17.671875 17.3125 11.828125 
Q 21.4375 6 27.484375 6 
Q 33.546875 6 37.671875 11.859375 
Q 41.796875 17.71875 41.796875 35.296875 
Q 41.796875 52.984375 37.671875 58.78125 
Q 33.546875 64.59375 27.390625 64.59375 
Q 21.34375 64.59375 17.71875 59.46875 
Q 13.1875 52.9375 13.1875 35.296875 
z
" id="ArialMT-48"/>
      </defs>
      <g transform="translate(66.282007 267.37865)scale(0.1056 -0.1056)">
       <use xlink:href="#ArialMT-48"/>
      </g>
     </g>
    </g>
    <g id="xtick_2">
     <g id="line2d_3">
      <g>
       <use style="stroke:#000000;" x="109.8" xlink:href="#m2fd4046152" y="256.32"/>
      </g>
     </g>
     <g id="line2d_4">
      <g>
       <use style="stroke:#000000;" x="109.8" xlink:href="#mfc9d487a36" y="34.56"/>
      </g>
     </g>
     <g id="text_2">
      <!-- 200 -->
      <defs>
       <path d="M 50.34375 8.453125 
L 50.34375 0 
L 3.03125 0 
Q 2.9375 3.171875 4.046875 6.109375 
Q 5.859375 10.9375 9.828125 15.625 
Q 13.8125 20.3125 21.34375 26.46875 
Q 33.015625 36.03125 37.109375 41.625 
Q 41.21875 47.21875 41.21875 52.203125 
Q 41.21875 57.421875 37.46875 61 
Q 33.734375 64.59375 27.734375 64.59375 
Q 21.390625 64.59375 17.578125 60.78125 
Q 13.765625 56.984375 13.71875 50.25 
L 4.6875 51.171875 
Q 5.609375 61.28125 11.65625 66.578125 
Q 17.71875 71.875 27.9375 71.875 
Q 38.234375 71.875 44.234375 66.15625 
Q 50.25 60.453125 50.25 52 
Q 50.25 47.703125 48.484375 43.546875 
Q 46.734375 39.40625 42.65625 34.8125 
Q 38.578125 30.21875 29.109375 22.21875 
Q 21.1875 15.578125 18.9375 13.203125 
Q 16.703125 10.84375 15.234375 8.453125 
z
" id="ArialMT-50"/>
      </defs>
      <g transform="translate(100.991475 267.37865)scale(0.1056 -0.1056)">
       <use xlink:href="#ArialMT-50"/>
       <use x="55.615234" xlink:href="#ArialMT-48"/>
       <use x="111.230469" xlink:href="#ArialMT-48"/>
      </g>
     </g>
    </g>
    <g id="xtick_3">
     <g id="line2d_5">
      <g>
       <use style="stroke:#000000;" x="150.381818" xlink:href="#m2fd4046152" y="256.32"/>
      </g>
     </g>
     <g id="line2d_6">
      <g>
       <use style="stroke:#000000;" x="150.381818" xlink:href="#mfc9d487a36" y="34.56"/>
      </g>
     </g>
     <g id="text_3">
      <!-- 400 -->
      <defs>
       <path d="M 32.328125 0 
L 32.328125 17.140625 
L 1.265625 17.140625 
L 1.265625 25.203125 
L 33.9375 71.578125 
L 41.109375 71.578125 
L 41.109375 25.203125 
L 50.78125 25.203125 
L 50.78125 17.140625 
L 41.109375 17.140625 
L 41.109375 0 
z
M 32.328125 25.203125 
L 32.328125 57.46875 
L 9.90625 25.203125 
z
" id="ArialMT-52"/>
      </defs>
      <g transform="translate(141.573293 267.37865)scale(0.1056 -0.1056)">
       <use xlink:href="#ArialMT-52"/>
       <use x="55.615234" xlink:href="#ArialMT-48"/>
       <use x="111.230469" xlink:href="#ArialMT-48"/>
      </g>
     </g>
    </g>
    <g id="xtick_4">
     <g id="line2d_7">
      <g>
       <use style="stroke:#000000;" x="190.963636" xlink:href="#m2fd4046152" y="256.32"/>
      </g>
     </g>
     <g id="line2d_8">
      <g>
       <use style="stroke:#000000;" x="190.963636" xlink:href="#mfc9d487a36" y="34.56"/>
      </g>
     </g>
     <g id="text_4">
      <!-- 600 -->
      <defs>
       <path d="M 49.75 54.046875 
L 41.015625 53.375 
Q 39.84375 58.546875 37.703125 60.890625 
Q 34.125 64.65625 28.90625 64.65625 
Q 24.703125 64.65625 21.53125 62.3125 
Q 17.390625 59.28125 14.984375 53.46875 
Q 12.59375 47.65625 12.5 36.921875 
Q 15.671875 41.75 20.265625 44.09375 
Q 24.859375 46.4375 29.890625 46.4375 
Q 38.671875 46.4375 44.84375 39.96875 
Q 51.03125 33.5 51.03125 23.25 
Q 51.03125 16.5 48.125 10.71875 
Q 45.21875 4.9375 40.140625 1.859375 
Q 35.0625 -1.21875 28.609375 -1.21875 
Q 17.625 -1.21875 10.6875 6.859375 
Q 3.765625 14.9375 3.765625 33.5 
Q 3.765625 54.25 11.421875 63.671875 
Q 18.109375 71.875 29.4375 71.875 
Q 37.890625 71.875 43.28125 67.140625 
Q 48.6875 62.40625 49.75 54.046875 
z
M 13.875 23.1875 
Q 13.875 18.65625 15.796875 14.5 
Q 17.71875 10.359375 21.1875 8.171875 
Q 24.65625 6 28.46875 6 
Q 34.03125 6 38.03125 10.484375 
Q 42.046875 14.984375 42.046875 22.703125 
Q 42.046875 30.125 38.078125 34.390625 
Q 34.125 38.671875 28.125 38.671875 
Q 22.171875 38.671875 18.015625 34.390625 
Q 13.875 30.125 13.875 23.1875 
z
" id="ArialMT-54"/>
      </defs>
      <g transform="translate(182.155111 267.37865)scale(0.1056 -0.1056)">
       <use xlink:href="#ArialMT-54"/>
       <use x="55.615234" xlink:href="#ArialMT-48"/>
       <use x="111.230469" xlink:href="#ArialMT-48"/>
      </g>
     </g>
    </g>
    <g id="xtick_5">
     <g id="line2d_9">
      <g>
       <use style="stroke:#000000;" x="231.545455" xlink:href="#m2fd4046152" y="256.32"/>
      </g>
     </g>
     <g id="line2d_10">
      <g>
       <use style="stroke:#000000;" x="231.545455" xlink:href="#mfc9d487a36" y="34.56"/>
      </g>
     </g>
     <g id="text_5">
      <!-- 800 -->
      <defs>
       <path d="M 17.671875 38.8125 
Q 12.203125 40.828125 9.5625 44.53125 
Q 6.9375 48.25 6.9375 53.421875 
Q 6.9375 61.234375 12.546875 66.546875 
Q 18.171875 71.875 27.484375 71.875 
Q 36.859375 71.875 42.578125 66.421875 
Q 48.296875 60.984375 48.296875 53.171875 
Q 48.296875 48.1875 45.671875 44.5 
Q 43.0625 40.828125 37.75 38.8125 
Q 44.34375 36.671875 47.78125 31.875 
Q 51.21875 27.09375 51.21875 20.453125 
Q 51.21875 11.28125 44.71875 5.03125 
Q 38.234375 -1.21875 27.640625 -1.21875 
Q 17.046875 -1.21875 10.546875 5.046875 
Q 4.046875 11.328125 4.046875 20.703125 
Q 4.046875 27.6875 7.59375 32.390625 
Q 11.140625 37.109375 17.671875 38.8125 
z
M 15.921875 53.71875 
Q 15.921875 48.640625 19.1875 45.40625 
Q 22.46875 42.1875 27.6875 42.1875 
Q 32.765625 42.1875 36.015625 45.375 
Q 39.265625 48.578125 39.265625 53.21875 
Q 39.265625 58.0625 35.90625 61.359375 
Q 32.5625 64.65625 27.59375 64.65625 
Q 22.5625 64.65625 19.234375 61.421875 
Q 15.921875 58.203125 15.921875 53.71875 
z
M 13.09375 20.65625 
Q 13.09375 16.890625 14.875 13.375 
Q 16.65625 9.859375 20.171875 7.921875 
Q 23.6875 6 27.734375 6 
Q 34.03125 6 38.125 10.046875 
Q 42.234375 14.109375 42.234375 20.359375 
Q 42.234375 26.703125 38.015625 30.859375 
Q 33.796875 35.015625 27.4375 35.015625 
Q 21.234375 35.015625 17.15625 30.90625 
Q 13.09375 26.8125 13.09375 20.65625 
z
" id="ArialMT-56"/>
      </defs>
      <g transform="translate(222.73693 267.37865)scale(0.1056 -0.1056)">
       <use xlink:href="#ArialMT-56"/>
       <use x="55.615234" xlink:href="#ArialMT-48"/>
       <use x="111.230469" xlink:href="#ArialMT-48"/>
      </g>
     </g>
    </g>
    <g id="xtick_6">
     <g id="line2d_11">
      <g>
       <use style="stroke:#000000;" x="272.127273" xlink:href="#m2fd4046152" y="256.32"/>
      </g>
     </g>
     <g id="line2d_12">
      <g>
       <use style="stroke:#000000;" x="272.127273" xlink:href="#mfc9d487a36" y="34.56"/>
      </g>
     </g>
     <g id="text_6">
      <!-- 1000 -->
      <defs>
       <path d="M 37.25 0 
L 28.46875 0 
L 28.46875 56 
Q 25.296875 52.984375 20.140625 49.953125 
Q 14.984375 46.921875 10.890625 45.40625 
L 10.890625 53.90625 
Q 18.265625 57.375 23.78125 62.296875 
Q 29.296875 67.234375 31.59375 71.875 
L 37.25 71.875 
z
" id="ArialMT-49"/>
      </defs>
      <g transform="translate(260.382573 267.37865)scale(0.1056 -0.1056)">
       <use xlink:href="#ArialMT-49"/>
       <use x="55.615234" xlink:href="#ArialMT-48"/>
       <use x="111.230469" xlink:href="#ArialMT-48"/>
       <use x="166.845703" xlink:href="#ArialMT-48"/>
      </g>
     </g>
    </g>
    <g id="xtick_7">
     <g id="line2d_13">
      <g>
       <use style="stroke:#000000;" x="312.709091" xlink:href="#m2fd4046152" y="256.32"/>
      </g>
     </g>
     <g id="line2d_14">
      <g>
       <use style="stroke:#000000;" x="312.709091" xlink:href="#mfc9d487a36" y="34.56"/>
      </g>
     </g>
     <g id="text_7">
      <!-- 1200 -->
      <g transform="translate(300.964391 267.37865)scale(0.1056 -0.1056)">
       <use xlink:href="#ArialMT-49"/>
       <use x="55.615234" xlink:href="#ArialMT-50"/>
       <use x="111.230469" xlink:href="#ArialMT-48"/>
       <use x="166.845703" xlink:href="#ArialMT-48"/>
      </g>
     </g>
    </g>
    <g id="xtick_8">
     <g id="line2d_15">
      <g>
       <use style="stroke:#000000;" x="353.290909" xlink:href="#m2fd4046152" y="256.32"/>
      </g>
     </g>
     <g id="line2d_16">
      <g>
       <use style="stroke:#000000;" x="353.290909" xlink:href="#mfc9d487a36" y="34.56"/>
      </g>
     </g>
     <g id="text_8">
      <!-- 1400 -->
      <g transform="translate(341.546209 267.37865)scale(0.1056 -0.1056)">
       <use xlink:href="#ArialMT-49"/>
       <use x="55.615234" xlink:href="#ArialMT-52"/>
       <use x="111.230469" xlink:href="#ArialMT-48"/>
       <use x="166.845703" xlink:href="#ArialMT-48"/>
      </g>
     </g>
    </g>
    <g id="text_9">
     <!-- Generations -->
     <defs>
      <path d="M 41.21875 28.078125 
L 41.21875 36.46875 
L 71.53125 36.53125 
L 71.53125 9.96875 
Q 64.546875 4.390625 57.125 1.578125 
Q 49.703125 -1.21875 41.890625 -1.21875 
Q 31.34375 -1.21875 22.71875 3.296875 
Q 14.109375 7.8125 9.71875 16.359375 
Q 5.328125 24.90625 5.328125 35.453125 
Q 5.328125 45.90625 9.6875 54.953125 
Q 14.0625 64.015625 22.265625 68.40625 
Q 30.46875 72.796875 41.15625 72.796875 
Q 48.921875 72.796875 55.1875 70.28125 
Q 61.46875 67.78125 65.03125 63.28125 
Q 68.609375 58.796875 70.453125 51.5625 
L 61.921875 49.21875 
Q 60.296875 54.6875 57.90625 57.8125 
Q 55.515625 60.9375 51.0625 62.8125 
Q 46.625 64.703125 41.21875 64.703125 
Q 34.71875 64.703125 29.984375 62.71875 
Q 25.25 60.75 22.34375 57.515625 
Q 19.4375 54.296875 17.828125 50.4375 
Q 15.09375 43.796875 15.09375 36.03125 
Q 15.09375 26.46875 18.390625 20.015625 
Q 21.6875 13.578125 27.984375 10.453125 
Q 34.28125 7.328125 41.359375 7.328125 
Q 47.515625 7.328125 53.375 9.6875 
Q 59.234375 12.0625 62.25 14.75 
L 62.25 28.078125 
z
" id="ArialMT-71"/>
      <path d="M 42.09375 16.703125 
L 51.171875 15.578125 
Q 49.03125 7.625 43.21875 3.21875 
Q 37.40625 -1.171875 28.375 -1.171875 
Q 17 -1.171875 10.328125 5.828125 
Q 3.65625 12.84375 3.65625 25.484375 
Q 3.65625 38.578125 10.390625 45.796875 
Q 17.140625 53.03125 27.875 53.03125 
Q 38.28125 53.03125 44.875 45.953125 
Q 51.46875 38.875 51.46875 26.03125 
Q 51.46875 25.25 51.421875 23.6875 
L 12.75 23.6875 
Q 13.234375 15.140625 17.578125 10.59375 
Q 21.921875 6.0625 28.421875 6.0625 
Q 33.25 6.0625 36.671875 8.59375 
Q 40.09375 11.140625 42.09375 16.703125 
z
M 13.234375 30.90625 
L 42.1875 30.90625 
Q 41.609375 37.453125 38.875 40.71875 
Q 34.671875 45.796875 27.984375 45.796875 
Q 21.921875 45.796875 17.796875 41.75 
Q 13.671875 37.703125 13.234375 30.90625 
z
" id="ArialMT-101"/>
      <path d="M 6.59375 0 
L 6.59375 51.859375 
L 14.5 51.859375 
L 14.5 44.484375 
Q 20.21875 53.03125 31 53.03125 
Q 35.6875 53.03125 39.625 51.34375 
Q 43.5625 49.65625 45.515625 46.921875 
Q 47.46875 44.1875 48.25 40.4375 
Q 48.734375 37.984375 48.734375 31.890625 
L 48.734375 0 
L 39.9375 0 
L 39.9375 31.546875 
Q 39.9375 36.921875 38.90625 39.578125 
Q 37.890625 42.234375 35.28125 43.8125 
Q 32.671875 45.40625 29.15625 45.40625 
Q 23.53125 45.40625 19.453125 41.84375 
Q 15.375 38.28125 15.375 28.328125 
L 15.375 0 
z
" id="ArialMT-110"/>
      <path d="M 6.5 0 
L 6.5 51.859375 
L 14.40625 51.859375 
L 14.40625 44 
Q 17.4375 49.515625 20 51.265625 
Q 22.5625 53.03125 25.640625 53.03125 
Q 30.078125 53.03125 34.671875 50.203125 
L 31.640625 42.046875 
Q 28.421875 43.953125 25.203125 43.953125 
Q 22.3125 43.953125 20.015625 42.21875 
Q 17.71875 40.484375 16.75 37.40625 
Q 15.28125 32.71875 15.28125 27.15625 
L 15.28125 0 
z
" id="ArialMT-114"/>
      <path d="M 40.4375 6.390625 
Q 35.546875 2.25 31.03125 0.53125 
Q 26.515625 -1.171875 21.34375 -1.171875 
Q 12.796875 -1.171875 8.203125 3 
Q 3.609375 7.171875 3.609375 13.671875 
Q 3.609375 17.484375 5.34375 20.625 
Q 7.078125 23.78125 9.890625 25.6875 
Q 12.703125 27.59375 16.21875 28.5625 
Q 18.796875 29.25 24.03125 29.890625 
Q 34.671875 31.15625 39.703125 32.90625 
Q 39.75 34.71875 39.75 35.203125 
Q 39.75 40.578125 37.25 42.78125 
Q 33.890625 45.75 27.25 45.75 
Q 21.046875 45.75 18.09375 43.578125 
Q 15.140625 41.40625 13.71875 35.890625 
L 5.125 37.0625 
Q 6.296875 42.578125 8.984375 45.96875 
Q 11.671875 49.359375 16.75 51.1875 
Q 21.828125 53.03125 28.515625 53.03125 
Q 35.15625 53.03125 39.296875 51.46875 
Q 43.453125 49.90625 45.40625 47.53125 
Q 47.359375 45.171875 48.140625 41.546875 
Q 48.578125 39.3125 48.578125 33.453125 
L 48.578125 21.734375 
Q 48.578125 9.46875 49.140625 6.21875 
Q 49.703125 2.984375 51.375 0 
L 42.1875 0 
Q 40.828125 2.734375 40.4375 6.390625 
z
M 39.703125 26.03125 
Q 34.90625 24.078125 25.34375 22.703125 
Q 19.921875 21.921875 17.671875 20.9375 
Q 15.4375 19.96875 14.203125 18.09375 
Q 12.984375 16.21875 12.984375 13.921875 
Q 12.984375 10.40625 15.640625 8.0625 
Q 18.3125 5.71875 23.4375 5.71875 
Q 28.515625 5.71875 32.46875 7.9375 
Q 36.421875 10.15625 38.28125 14.015625 
Q 39.703125 17 39.703125 22.796875 
z
" id="ArialMT-97"/>
      <path d="M 25.78125 7.859375 
L 27.046875 0.09375 
Q 23.34375 -0.6875 20.40625 -0.6875 
Q 15.625 -0.6875 12.984375 0.828125 
Q 10.359375 2.34375 9.28125 4.8125 
Q 8.203125 7.28125 8.203125 15.1875 
L 8.203125 45.015625 
L 1.765625 45.015625 
L 1.765625 51.859375 
L 8.203125 51.859375 
L 8.203125 64.703125 
L 16.9375 69.96875 
L 16.9375 51.859375 
L 25.78125 51.859375 
L 25.78125 45.015625 
L 16.9375 45.015625 
L 16.9375 14.703125 
Q 16.9375 10.9375 17.40625 9.859375 
Q 17.875 8.796875 18.921875 8.15625 
Q 19.96875 7.515625 21.921875 7.515625 
Q 23.390625 7.515625 25.78125 7.859375 
z
" id="ArialMT-116"/>
      <path d="M 6.640625 61.46875 
L 6.640625 71.578125 
L 15.4375 71.578125 
L 15.4375 61.46875 
z
M 6.640625 0 
L 6.640625 51.859375 
L 15.4375 51.859375 
L 15.4375 0 
z
" id="ArialMT-105"/>
      <path d="M 3.328125 25.921875 
Q 3.328125 40.328125 11.328125 47.265625 
Q 18.015625 53.03125 27.640625 53.03125 
Q 38.328125 53.03125 45.109375 46.015625 
Q 51.90625 39.015625 51.90625 26.65625 
Q 51.90625 16.65625 48.90625 10.90625 
Q 45.90625 5.171875 40.15625 2 
Q 34.421875 -1.171875 27.640625 -1.171875 
Q 16.75 -1.171875 10.03125 5.8125 
Q 3.328125 12.796875 3.328125 25.921875 
z
M 12.359375 25.921875 
Q 12.359375 15.96875 16.703125 11.015625 
Q 21.046875 6.0625 27.640625 6.0625 
Q 34.1875 6.0625 38.53125 11.03125 
Q 42.875 16.015625 42.875 26.21875 
Q 42.875 35.84375 38.5 40.796875 
Q 34.125 45.75 27.640625 45.75 
Q 21.046875 45.75 16.703125 40.8125 
Q 12.359375 35.890625 12.359375 25.921875 
z
" id="ArialMT-111"/>
      <path d="M 3.078125 15.484375 
L 11.765625 16.84375 
Q 12.5 11.625 15.84375 8.84375 
Q 19.1875 6.0625 25.203125 6.0625 
Q 31.25 6.0625 34.171875 8.515625 
Q 37.109375 10.984375 37.109375 14.3125 
Q 37.109375 17.28125 34.515625 19 
Q 32.71875 20.171875 25.53125 21.96875 
Q 15.875 24.421875 12.140625 26.203125 
Q 8.40625 27.984375 6.46875 31.125 
Q 4.546875 34.28125 4.546875 38.09375 
Q 4.546875 41.546875 6.125 44.5 
Q 7.71875 47.46875 10.453125 49.421875 
Q 12.5 50.921875 16.03125 51.96875 
Q 19.578125 53.03125 23.640625 53.03125 
Q 29.734375 53.03125 34.34375 51.265625 
Q 38.96875 49.515625 41.15625 46.5 
Q 43.359375 43.5 44.1875 38.484375 
L 35.59375 37.3125 
Q 35.015625 41.3125 32.203125 43.546875 
Q 29.390625 45.796875 24.265625 45.796875 
Q 18.21875 45.796875 15.625 43.796875 
Q 13.03125 41.796875 13.03125 39.109375 
Q 13.03125 37.40625 14.109375 36.03125 
Q 15.1875 34.625 17.484375 33.6875 
Q 18.796875 33.203125 25.25 31.453125 
Q 34.578125 28.953125 38.25 27.359375 
Q 41.9375 25.78125 44.03125 22.75 
Q 46.140625 19.734375 46.140625 15.234375 
Q 46.140625 10.84375 43.578125 6.953125 
Q 41.015625 3.078125 36.171875 0.953125 
Q 31.34375 -1.171875 25.25 -1.171875 
Q 15.140625 -1.171875 9.84375 3.03125 
Q 4.546875 7.234375 3.078125 15.484375 
z
" id="ArialMT-115"/>
     </defs>
     <g transform="translate(190.0233 281.72325)scale(0.1152 -0.1152)">
      <use xlink:href="#ArialMT-71"/>
      <use x="77.783203" xlink:href="#ArialMT-101"/>
      <use x="133.398438" xlink:href="#ArialMT-110"/>
      <use x="189.013672" xlink:href="#ArialMT-101"/>
      <use x="244.628906" xlink:href="#ArialMT-114"/>
      <use x="277.929688" xlink:href="#ArialMT-97"/>
      <use x="333.544922" xlink:href="#ArialMT-116"/>
      <use x="361.328125" xlink:href="#ArialMT-105"/>
      <use x="383.544922" xlink:href="#ArialMT-111"/>
      <use x="439.160156" xlink:href="#ArialMT-110"/>
      <use x="494.775391" xlink:href="#ArialMT-115"/>
     </g>
    </g>
   </g>
   <g id="matplotlib.axis_2">
    <g id="ytick_1">
     <g id="line2d_17">
      <defs>
       <path d="M 0 0 
L 3 0 
" id="m8d19a2ae90" style="stroke:#000000;"/>
      </defs>
      <g>
       <use style="stroke:#000000;" x="54" xlink:href="#m8d19a2ae90" y="180.485768"/>
      </g>
     </g>
     <g id="line2d_18">
      <defs>
       <path d="M 0 0 
L -3 0 
" id="m39a561eb76" style="stroke:#000000;"/>
      </defs>
      <g>
       <use style="stroke:#000000;" x="388.8" xlink:href="#m39a561eb76" y="180.485768"/>
      </g>
     </g>
     <g id="text_10">
      <!-- $\mathdefault{10^{-4}}$ -->
      <defs>
       <path d="M 52.828125 31.203125 
L 5.5625 31.203125 
L 5.5625 39.40625 
L 52.828125 39.40625 
z
" id="ArialMT-8722"/>
      </defs>
      <g transform="translate(29.5912 185.877968)scale(0.1056 -0.1056)">
       <use transform="translate(0 0.201563)" xlink:href="#ArialMT-49"/>
       <use transform="translate(55.615234 0.201563)" xlink:href="#ArialMT-48"/>
       <use transform="translate(112.972813 69.895313)scale(0.7)" xlink:href="#ArialMT-8722"/>
       <use transform="translate(153.851719 69.895313)scale(0.7)" xlink:href="#ArialMT-52"/>
      </g>
     </g>
    </g>
    <g id="ytick_2">
     <g id="line2d_19">
      <g>
       <use style="stroke:#000000;" x="54" xlink:href="#m8d19a2ae90" y="91.816387"/>
      </g>
     </g>
     <g id="line2d_20">
      <g>
       <use style="stroke:#000000;" x="388.8" xlink:href="#m39a561eb76" y="91.816387"/>
      </g>
     </g>
     <g id="text_11">
      <!-- $\mathdefault{10^{-3}}$ -->
      <defs>
       <path d="M 4.203125 18.890625 
L 12.984375 20.0625 
Q 14.5 12.59375 18.140625 9.296875 
Q 21.78125 6 27 6 
Q 33.203125 6 37.46875 10.296875 
Q 41.75 14.59375 41.75 20.953125 
Q 41.75 27 37.796875 30.921875 
Q 33.84375 34.859375 27.734375 34.859375 
Q 25.25 34.859375 21.53125 33.890625 
L 22.515625 41.609375 
Q 23.390625 41.5 23.921875 41.5 
Q 29.546875 41.5 34.03125 44.421875 
Q 38.53125 47.359375 38.53125 53.46875 
Q 38.53125 58.296875 35.25 61.46875 
Q 31.984375 64.65625 26.8125 64.65625 
Q 21.6875 64.65625 18.265625 61.421875 
Q 14.84375 58.203125 13.875 51.765625 
L 5.078125 53.328125 
Q 6.6875 62.15625 12.390625 67.015625 
Q 18.109375 71.875 26.609375 71.875 
Q 32.46875 71.875 37.390625 69.359375 
Q 42.328125 66.84375 44.9375 62.5 
Q 47.5625 58.15625 47.5625 53.265625 
Q 47.5625 48.640625 45.0625 44.828125 
Q 42.578125 41.015625 37.703125 38.765625 
Q 44.046875 37.3125 47.5625 32.6875 
Q 51.078125 28.078125 51.078125 21.140625 
Q 51.078125 11.765625 44.234375 5.25 
Q 37.40625 -1.265625 26.953125 -1.265625 
Q 17.53125 -1.265625 11.296875 4.34375 
Q 5.078125 9.96875 4.203125 18.890625 
z
" id="ArialMT-51"/>
      </defs>
      <g transform="translate(29.5912 97.261387)scale(0.1056 -0.1056)">
       <use transform="translate(0 0.99375)" xlink:href="#ArialMT-49"/>
       <use transform="translate(55.615234 0.99375)" xlink:href="#ArialMT-48"/>
       <use transform="translate(112.972813 70.6875)scale(0.7)" xlink:href="#ArialMT-8722"/>
       <use transform="translate(153.851719 70.6875)scale(0.7)" xlink:href="#ArialMT-51"/>
      </g>
     </g>
    </g>
    <g id="ytick_3">
     <g id="line2d_21">
      <defs>
       <path d="M 0 0 
L 3.2 0 
" id="mf7a078981e" style="stroke:#000000;stroke-width:0.8;"/>
      </defs>
      <g>
       <use style="stroke:#000000;stroke-width:0.8;" x="54" xlink:href="#mf7a078981e" y="242.463005"/>
      </g>
     </g>
     <g id="line2d_22">
      <defs>
       <path d="M 0 0 
L -3.2 0 
" id="m57a7b433e6" style="stroke:#000000;stroke-width:0.8;"/>
      </defs>
      <g>
       <use style="stroke:#000000;stroke-width:0.8;" x="388.8" xlink:href="#m57a7b433e6" y="242.463005"/>
      </g>
     </g>
    </g>
    <g id="ytick_4">
     <g id="line2d_23">
      <g>
       <use style="stroke:#000000;stroke-width:0.8;" x="54" xlink:href="#mf7a078981e" y="226.849102"/>
      </g>
     </g>
     <g id="line2d_24">
      <g>
       <use style="stroke:#000000;stroke-width:0.8;" x="388.8" xlink:href="#m57a7b433e6" y="226.849102"/>
      </g>
     </g>
    </g>
    <g id="ytick_5">
     <g id="line2d_25">
      <g>
       <use style="stroke:#000000;stroke-width:0.8;" x="54" xlink:href="#mf7a078981e" y="215.770862"/>
      </g>
     </g>
     <g id="line2d_26">
      <g>
       <use style="stroke:#000000;stroke-width:0.8;" x="388.8" xlink:href="#m57a7b433e6" y="215.770862"/>
      </g>
     </g>
    </g>
    <g id="ytick_6">
     <g id="line2d_27">
      <g>
       <use style="stroke:#000000;stroke-width:0.8;" x="54" xlink:href="#mf7a078981e" y="207.177911"/>
      </g>
     </g>
     <g id="line2d_28">
      <g>
       <use style="stroke:#000000;stroke-width:0.8;" x="388.8" xlink:href="#m57a7b433e6" y="207.177911"/>
      </g>
     </g>
    </g>
    <g id="ytick_7">
     <g id="line2d_29">
      <g>
       <use style="stroke:#000000;stroke-width:0.8;" x="54" xlink:href="#mf7a078981e" y="200.156959"/>
      </g>
     </g>
     <g id="line2d_30">
      <g>
       <use style="stroke:#000000;stroke-width:0.8;" x="388.8" xlink:href="#m57a7b433e6" y="200.156959"/>
      </g>
     </g>
    </g>
    <g id="ytick_8">
     <g id="line2d_31">
      <g>
       <use style="stroke:#000000;stroke-width:0.8;" x="54" xlink:href="#mf7a078981e" y="194.220829"/>
      </g>
     </g>
     <g id="line2d_32">
      <g>
       <use style="stroke:#000000;stroke-width:0.8;" x="388.8" xlink:href="#m57a7b433e6" y="194.220829"/>
      </g>
     </g>
    </g>
    <g id="ytick_9">
     <g id="line2d_33">
      <g>
       <use style="stroke:#000000;stroke-width:0.8;" x="54" xlink:href="#mf7a078981e" y="189.078719"/>
      </g>
     </g>
     <g id="line2d_34">
      <g>
       <use style="stroke:#000000;stroke-width:0.8;" x="388.8" xlink:href="#m57a7b433e6" y="189.078719"/>
      </g>
     </g>
    </g>
    <g id="ytick_10">
     <g id="line2d_35">
      <g>
       <use style="stroke:#000000;stroke-width:0.8;" x="54" xlink:href="#mf7a078981e" y="184.543056"/>
      </g>
     </g>
     <g id="line2d_36">
      <g>
       <use style="stroke:#000000;stroke-width:0.8;" x="388.8" xlink:href="#m57a7b433e6" y="184.543056"/>
      </g>
     </g>
    </g>
    <g id="ytick_11">
     <g id="line2d_37">
      <g>
       <use style="stroke:#000000;stroke-width:0.8;" x="54" xlink:href="#mf7a078981e" y="153.793625"/>
      </g>
     </g>
     <g id="line2d_38">
      <g>
       <use style="stroke:#000000;stroke-width:0.8;" x="388.8" xlink:href="#m57a7b433e6" y="153.793625"/>
      </g>
     </g>
    </g>
    <g id="ytick_12">
     <g id="line2d_39">
      <g>
       <use style="stroke:#000000;stroke-width:0.8;" x="54" xlink:href="#mf7a078981e" y="138.179722"/>
      </g>
     </g>
     <g id="line2d_40">
      <g>
       <use style="stroke:#000000;stroke-width:0.8;" x="388.8" xlink:href="#m57a7b433e6" y="138.179722"/>
      </g>
     </g>
    </g>
    <g id="ytick_13">
     <g id="line2d_41">
      <g>
       <use style="stroke:#000000;stroke-width:0.8;" x="54" xlink:href="#mf7a078981e" y="127.101481"/>
      </g>
     </g>
     <g id="line2d_42">
      <g>
       <use style="stroke:#000000;stroke-width:0.8;" x="388.8" xlink:href="#m57a7b433e6" y="127.101481"/>
      </g>
     </g>
    </g>
    <g id="ytick_14">
     <g id="line2d_43">
      <g>
       <use style="stroke:#000000;stroke-width:0.8;" x="54" xlink:href="#mf7a078981e" y="118.50853"/>
      </g>
     </g>
     <g id="line2d_44">
      <g>
       <use style="stroke:#000000;stroke-width:0.8;" x="388.8" xlink:href="#m57a7b433e6" y="118.50853"/>
      </g>
     </g>
    </g>
    <g id="ytick_15">
     <g id="line2d_45">
      <g>
       <use style="stroke:#000000;stroke-width:0.8;" x="54" xlink:href="#mf7a078981e" y="111.487578"/>
      </g>
     </g>
     <g id="line2d_46">
      <g>
       <use style="stroke:#000000;stroke-width:0.8;" x="388.8" xlink:href="#m57a7b433e6" y="111.487578"/>
      </g>
     </g>
    </g>
    <g id="ytick_16">
     <g id="line2d_47">
      <g>
       <use style="stroke:#000000;stroke-width:0.8;" x="54" xlink:href="#mf7a078981e" y="105.551448"/>
      </g>
     </g>
     <g id="line2d_48">
      <g>
       <use style="stroke:#000000;stroke-width:0.8;" x="388.8" xlink:href="#m57a7b433e6" y="105.551448"/>
      </g>
     </g>
    </g>
    <g id="ytick_17">
     <g id="line2d_49">
      <g>
       <use style="stroke:#000000;stroke-width:0.8;" x="54" xlink:href="#mf7a078981e" y="100.409338"/>
      </g>
     </g>
     <g id="line2d_50">
      <g>
       <use style="stroke:#000000;stroke-width:0.8;" x="388.8" xlink:href="#m57a7b433e6" y="100.409338"/>
      </g>
     </g>
    </g>
    <g id="ytick_18">
     <g id="line2d_51">
      <g>
       <use style="stroke:#000000;stroke-width:0.8;" x="54" xlink:href="#mf7a078981e" y="95.873675"/>
      </g>
     </g>
     <g id="line2d_52">
      <g>
       <use style="stroke:#000000;stroke-width:0.8;" x="388.8" xlink:href="#m57a7b433e6" y="95.873675"/>
      </g>
     </g>
    </g>
    <g id="ytick_19">
     <g id="line2d_53">
      <g>
       <use style="stroke:#000000;stroke-width:0.8;" x="54" xlink:href="#mf7a078981e" y="65.124244"/>
      </g>
     </g>
     <g id="line2d_54">
      <g>
       <use style="stroke:#000000;stroke-width:0.8;" x="388.8" xlink:href="#m57a7b433e6" y="65.124244"/>
      </g>
     </g>
    </g>
    <g id="ytick_20">
     <g id="line2d_55">
      <g>
       <use style="stroke:#000000;stroke-width:0.8;" x="54" xlink:href="#mf7a078981e" y="49.510341"/>
      </g>
     </g>
     <g id="line2d_56">
      <g>
       <use style="stroke:#000000;stroke-width:0.8;" x="388.8" xlink:href="#m57a7b433e6" y="49.510341"/>
      </g>
     </g>
    </g>
    <g id="ytick_21">
     <g id="line2d_57">
      <g>
       <use style="stroke:#000000;stroke-width:0.8;" x="54" xlink:href="#mf7a078981e" y="38.432101"/>
      </g>
     </g>
     <g id="line2d_58">
      <g>
       <use style="stroke:#000000;stroke-width:0.8;" x="388.8" xlink:href="#m57a7b433e6" y="38.432101"/>
      </g>
     </g>
    </g>
    <g id="text_12">
     <!-- IGD -->
     <defs>
      <path d="M 9.328125 0 
L 9.328125 71.578125 
L 18.796875 71.578125 
L 18.796875 0 
z
" id="ArialMT-73"/>
      <path d="M 7.71875 0 
L 7.71875 71.578125 
L 32.375 71.578125 
Q 40.71875 71.578125 45.125 70.5625 
Q 51.265625 69.140625 55.609375 65.4375 
Q 61.28125 60.640625 64.078125 53.1875 
Q 66.890625 45.75 66.890625 36.1875 
Q 66.890625 28.03125 64.984375 21.734375 
Q 63.09375 15.4375 60.109375 11.296875 
Q 57.125 7.171875 53.578125 4.796875 
Q 50.046875 2.4375 45.046875 1.21875 
Q 40.046875 0 33.546875 0 
z
M 17.1875 8.453125 
L 32.46875 8.453125 
Q 39.546875 8.453125 43.578125 9.765625 
Q 47.609375 11.078125 50 13.484375 
Q 53.375 16.84375 55.25 22.53125 
Q 57.125 28.21875 57.125 36.328125 
Q 57.125 47.5625 53.4375 53.59375 
Q 49.75 59.625 44.484375 61.671875 
Q 40.671875 63.140625 32.234375 63.140625 
L 17.1875 63.140625 
z
" id="ArialMT-68"/>
     </defs>
     <g transform="translate(23.3016 155.6802)rotate(-90)scale(0.1152 -0.1152)">
      <use xlink:href="#ArialMT-73"/>
      <use x="27.783203" xlink:href="#ArialMT-71"/>
      <use x="105.566406" xlink:href="#ArialMT-68"/>
     </g>
    </g>
   </g>
   <g id="line2d_59">
    <path clip-path="url(#pc751aed4f2)" d="M 69.218182 44.64 
L 69.421091 95.097272 
L 69.826909 104.884888 
L 70.029818 106.561781 
L 70.232727 115.501825 
L 70.435636 116.674502 
L 70.638545 119.493702 
L 70.841455 128.028827 
L 71.044364 131.622528 
L 71.247273 132.384842 
L 71.450182 123.942203 
L 71.653091 124.189031 
L 72.058909 125.141756 
L 72.261818 126.413396 
L 72.464727 136.142861 
L 72.870545 138.515993 
L 73.479273 140.901314 
L 73.682182 143.189496 
L 73.885091 143.834409 
L 74.290909 145.967728 
L 74.493818 146.173991 
L 74.696727 147.416881 
L 75.102545 147.995395 
L 75.305455 151.280081 
L 75.711273 151.876259 
L 75.914182 152.067078 
L 76.117091 152.541038 
L 76.32 152.622267 
L 76.522909 156.925468 
L 76.725818 156.629373 
L 76.928727 157.210664 
L 77.131636 157.338597 
L 77.334545 158.203346 
L 77.537455 162.450365 
L 77.740364 163.674618 
L 78.146182 159.682417 
L 78.349091 161.252801 
L 78.552 165.638977 
L 78.754909 167.122327 
L 78.957818 165.882468 
L 79.160727 166.732941 
L 79.363636 164.346971 
L 79.566545 167.459943 
L 79.769455 168.094772 
L 79.972364 167.435398 
L 80.378182 172.380137 
L 80.581091 172.231257 
L 80.986909 174.631675 
L 81.189818 172.322559 
L 81.392727 172.36963 
L 81.595636 173.381496 
L 81.798545 175.483098 
L 82.001455 175.849664 
L 82.407273 177.566184 
L 82.610182 177.708028 
L 83.421818 181.34686 
L 83.624727 181.526205 
L 83.827636 182.792122 
L 84.030545 183.019275 
L 84.233455 182.138671 
L 84.842182 184.381911 
L 85.045091 184.091137 
L 85.653818 185.151551 
L 85.856727 190.403728 
L 86.059636 178.870158 
L 86.465455 181.891837 
L 86.668364 182.811946 
L 86.871273 187.953675 
L 87.074182 189.454661 
L 87.277091 187.200513 
L 87.682909 188.427855 
L 87.885818 187.110074 
L 88.088727 189.540011 
L 88.291636 189.989366 
L 88.494545 189.832832 
L 88.697455 192.535874 
L 89.103273 155.55199 
L 89.306182 159.353767 
L 89.509091 160.421632 
L 89.712 164.243527 
L 90.523636 167.420677 
L 90.726545 167.443298 
L 90.929455 168.229421 
L 91.132364 167.717208 
L 91.335273 167.913241 
L 91.538182 158.584707 
L 91.741091 161.988137 
L 91.944 173.045369 
L 92.146909 173.198996 
L 92.349818 173.603696 
L 92.552727 173.622143 
L 92.958545 174.07539 
L 93.364364 173.813174 
L 93.567273 165.90297 
L 93.770182 163.349248 
L 93.973091 164.385095 
L 94.378909 164.731375 
L 94.581818 165.60971 
L 94.784727 165.082537 
L 94.987636 173.770527 
L 95.190545 173.353622 
L 95.393455 173.294857 
L 96.002182 174.644059 
L 96.408 174.880261 
L 96.610909 175.216158 
L 96.813818 175.898935 
L 97.016727 175.932485 
L 97.219636 177.042817 
L 97.422545 176.400076 
L 97.828364 178.485002 
L 98.031273 178.593864 
L 98.234182 178.867681 
L 98.437091 192.210525 
L 98.64 164.625976 
L 98.842909 156.708542 
L 99.045818 156.920816 
L 99.248727 160.312104 
L 99.451636 161.630667 
L 99.654545 162.103265 
L 99.857455 163.994327 
L 100.263273 165.328486 
L 100.466182 165.447747 
L 100.669091 168.340528 
L 100.872 168.391654 
L 101.683636 169.432659 
L 101.886545 170.087531 
L 102.292364 170.253273 
L 102.698182 170.63763 
L 104.118545 171.095691 
L 104.321455 171.907809 
L 105.133091 171.942342 
L 105.336 172.472625 
L 105.538909 172.578859 
L 105.944727 172.526415 
L 106.147636 172.582527 
L 106.350545 186.133789 
L 106.553455 183.714874 
L 106.756364 184.333642 
L 107.162182 184.328266 
L 107.365091 185.294881 
L 107.568 185.237411 
L 107.770909 186.116451 
L 107.973818 186.18463 
L 108.176727 186.520066 
L 108.785455 186.850324 
L 108.988364 187.650312 
L 109.191273 187.64735 
L 109.394182 188.113693 
L 110.002909 188.343246 
L 110.205818 190.483758 
L 110.408727 190.318626 
L 110.814545 190.346081 
L 111.220364 190.63051 
L 111.626182 190.557749 
L 111.829091 191.217881 
L 112.032 191.218055 
L 112.234909 201.462489 
L 112.437818 198.575625 
L 112.843636 200.046661 
L 113.452364 200.317259 
L 113.655273 200.824228 
L 114.061091 201.054052 
L 114.264 201.814802 
L 114.466909 202.132129 
L 114.669818 202.11401 
L 114.872727 205.485165 
L 115.075636 205.625595 
L 115.278545 202.012907 
L 115.684364 200.375382 
L 115.887273 200.594924 
L 116.090182 215.888066 
L 116.293091 209.430038 
L 116.496 211.016314 
L 116.698909 206.910643 
L 116.901818 206.305688 
L 117.510545 209.926072 
L 117.713455 210.48798 
L 118.119273 175.133057 
L 118.322182 176.996276 
L 118.728 184.073011 
L 118.930909 184.214432 
L 119.133818 185.19415 
L 119.336727 188.063997 
L 119.539636 188.272262 
L 120.351273 192.204963 
L 120.554182 195.99637 
L 121.162909 196.510188 
L 121.365818 196.424029 
L 121.568727 197.050343 
L 121.771636 200.498749 
L 121.974545 200.805631 
L 122.786182 200.691078 
L 123.394909 201.661444 
L 123.597818 201.740333 
L 123.800727 202.008089 
L 124.003636 201.930359 
L 124.206545 202.053727 
L 124.409455 202.421439 
L 125.018182 202.490263 
L 125.424 203.356548 
L 125.626909 203.402481 
L 126.032727 197.326926 
L 126.235636 197.254181 
L 126.641455 197.761801 
L 126.844364 197.392191 
L 127.047273 204.224497 
L 127.250182 203.629866 
L 127.453091 203.904696 
L 127.656 203.952846 
L 127.858909 204.148583 
L 128.061818 211.745736 
L 128.264727 206.743594 
L 128.467636 213.226853 
L 128.670545 215.429149 
L 128.873455 216.384912 
L 129.279273 216.789856 
L 129.482182 215.787292 
L 129.685091 215.974119 
L 129.888 216.96611 
L 130.090909 215.339779 
L 130.293818 217.212702 
L 130.496727 217.75103 
L 130.699636 219.571898 
L 131.308364 219.709416 
L 131.511273 223.664205 
L 132.12 224.417045 
L 132.322909 224.552505 
L 132.525818 214.086545 
L 132.728727 195.960299 
L 132.931636 196.6484 
L 133.134545 203.593647 
L 133.337455 203.985584 
L 133.540364 204.099509 
L 133.743273 206.293765 
L 133.946182 206.629393 
L 134.149091 207.416063 
L 134.352 210.569382 
L 134.960727 210.842164 
L 135.366545 211.125479 
L 135.569455 210.752144 
L 135.975273 211.103421 
L 136.178182 212.048987 
L 136.381091 219.299305 
L 136.584 214.016607 
L 136.786909 215.353616 
L 136.989818 215.500526 
L 137.395636 216.120639 
L 137.598545 219.185495 
L 138.207273 220.842559 
L 138.410182 221.174783 
L 138.613091 221.240488 
L 139.018909 221.095806 
L 139.221818 221.938872 
L 139.424727 228.296483 
L 139.627636 224.446482 
L 139.830545 224.029875 
L 140.033455 225.004278 
L 140.439273 225.450117 
L 140.845091 226.702022 
L 141.048 226.175541 
L 141.250909 226.583803 
L 141.453818 227.704553 
L 141.656727 227.570779 
L 141.859636 227.667097 
L 142.265455 227.528936 
L 142.468364 228.326977 
L 142.671273 228.488126 
L 142.874182 228.969623 
L 143.28 228.537803 
L 143.482909 229.018393 
L 144.091636 229.322047 
L 144.497455 229.388079 
L 144.700364 231.253637 
L 144.903273 231.418403 
L 145.106182 232.801472 
L 145.309091 232.780411 
L 145.512 232.904001 
L 145.714909 233.243369 
L 145.917818 233.273 
L 146.120727 233.079031 
L 146.323636 232.204356 
L 146.729455 232.427602 
L 146.932364 232.313752 
L 147.135273 233.184303 
L 147.541091 233.438824 
L 147.744 233.808534 
L 147.946909 233.829992 
L 148.149818 232.39408 
L 148.352727 231.96818 
L 148.555636 232.382376 
L 148.758545 234.07575 
L 149.367273 234.211026 
L 149.570182 234.046719 
L 149.773091 234.042027 
L 149.976 234.201303 
L 150.178909 235.307697 
L 150.381818 235.370341 
L 150.787636 235.861107 
L 150.990545 236.471221 
L 151.193455 236.628099 
L 151.599273 236.604174 
L 152.005091 237.109436 
L 152.208 236.782836 
L 152.410909 236.87515 
L 152.816727 237.327161 
L 153.222545 237.452338 
L 153.628364 237.363657 
L 153.831273 237.408211 
L 154.034182 237.001243 
L 154.237091 237.825044 
L 154.44 237.732247 
L 154.642909 237.826334 
L 154.845818 237.474327 
L 155.048727 237.722332 
L 155.251636 237.063525 
L 155.454545 237.074239 
L 156.063273 238.442209 
L 156.266182 238.297382 
L 156.672 238.759445 
L 156.874909 238.711328 
L 157.280727 239.580696 
L 158.092364 239.521405 
L 158.498182 237.65281 
L 158.701091 237.299638 
L 158.904 236.109637 
L 159.106909 236.198694 
L 159.309818 236.821641 
L 159.512727 229.43592 
L 159.715636 211.564292 
L 160.121455 216.222982 
L 160.730182 222.875748 
L 160.933091 222.770387 
L 161.136 222.957442 
L 161.338909 224.301739 
L 161.541818 227.173095 
L 161.947636 228.70613 
L 162.150545 227.293864 
L 162.556364 227.900739 
L 162.759273 228.616498 
L 162.962182 228.496355 
L 163.165091 228.63018 
L 163.368 228.027618 
L 163.773818 230.782832 
L 164.179636 230.86186 
L 164.382545 231.239318 
L 164.585455 231.099142 
L 164.788364 232.484906 
L 165.194182 232.729069 
L 165.397091 232.974096 
L 165.6 232.458752 
L 165.802909 233.097815 
L 166.005818 233.308849 
L 166.411636 233.340475 
L 166.614545 233.581242 
L 167.020364 233.539696 
L 167.223273 232.872831 
L 167.426182 233.312233 
L 168.034909 233.349854 
L 168.237818 226.623979 
L 168.440727 206.548015 
L 168.643636 208.194069 
L 168.846545 212.248502 
L 169.252364 214.818898 
L 169.455273 220.133661 
L 169.658182 220.579058 
L 169.861091 222.108918 
L 170.064 222.123571 
L 170.266909 222.402137 
L 170.469818 222.320496 
L 170.875636 222.899109 
L 171.078545 224.150381 
L 171.281455 224.267317 
L 171.890182 225.207531 
L 172.093091 225.395997 
L 172.296 225.842642 
L 172.498909 230.866878 
L 172.701818 227.143486 
L 172.904727 226.348964 
L 173.310545 226.685 
L 173.716364 228.564283 
L 173.919273 228.286457 
L 174.122182 229.944697 
L 174.325091 229.914681 
L 174.528 232.705537 
L 174.730909 232.678136 
L 174.933818 237.113871 
L 175.136727 233.528988 
L 175.339636 232.843561 
L 175.745455 233.185328 
L 175.948364 233.834429 
L 176.151273 233.575146 
L 176.557091 235.241864 
L 176.76 235.647247 
L 176.962909 235.400351 
L 177.165818 234.605868 
L 177.571636 235.028669 
L 177.774545 235.261521 
L 177.977455 235.317816 
L 178.586182 235.904184 
L 178.789091 235.950987 
L 178.992 235.680508 
L 179.194909 235.665234 
L 179.397818 236.057181 
L 179.600727 225.863618 
L 179.803636 204.82426 
L 180.209455 210.810021 
L 180.412364 211.351538 
L 180.818182 216.582036 
L 181.224 219.730858 
L 181.629818 221.258596 
L 182.238545 223.357224 
L 182.441455 224.58023 
L 182.644364 224.507343 
L 182.847273 224.895551 
L 183.050182 225.036683 
L 183.253091 225.998272 
L 183.456 226.00166 
L 183.658909 226.31431 
L 184.064727 226.384126 
L 184.267636 227.609437 
L 184.470545 227.972134 
L 184.876364 228.070798 
L 185.079273 227.207941 
L 185.282182 227.40692 
L 185.688 227.308574 
L 185.890909 226.788784 
L 186.093818 226.931435 
L 186.296727 227.401308 
L 187.311273 227.734071 
L 187.514182 228.529795 
L 187.717091 228.556897 
L 187.92 228.977147 
L 188.122909 228.945904 
L 189.543273 230.147836 
L 190.354909 230.04391 
L 191.166545 230.256637 
L 191.369455 230.39622 
L 191.775273 230.418518 
L 192.181091 230.453035 
L 192.384 233.390381 
L 192.586909 233.170766 
L 192.992727 233.180174 
L 193.195636 237.658581 
L 193.398545 230.940896 
L 193.601455 230.795546 
L 193.804364 230.799399 
L 194.007273 230.976047 
L 194.210182 232.07398 
L 194.413091 231.706462 
L 194.616 233.519527 
L 195.427636 233.588086 
L 195.833455 234.53094 
L 196.036364 234.531177 
L 196.239273 234.405534 
L 196.645091 235.052265 
L 196.848 234.849588 
L 197.050909 234.900315 
L 197.253818 234.207272 
L 197.456727 230.89698 
L 197.659636 230.649083 
L 197.862545 231.882716 
L 198.268364 232.292474 
L 198.471273 233.618357 
L 198.877091 233.789925 
L 199.08 233.699426 
L 199.282909 233.73876 
L 199.485818 233.916704 
L 199.688727 233.354132 
L 200.094545 233.684563 
L 200.297455 234.790517 
L 201.109091 235.118296 
L 201.312 235.967749 
L 201.514909 236.029992 
L 201.717818 236.922258 
L 201.920727 231.336215 
L 202.123636 213.37381 
L 202.529455 214.894604 
L 202.732364 220.673484 
L 202.935273 220.753333 
L 203.138182 221.961793 
L 203.341091 222.337374 
L 203.544 225.084226 
L 203.746909 225.054235 
L 203.949818 225.976866 
L 204.152727 225.761529 
L 204.558545 226.350725 
L 204.761455 227.235506 
L 204.964364 227.581947 
L 205.167273 226.86604 
L 205.978909 228.524312 
L 206.384727 229.000667 
L 206.587636 231.664983 
L 206.790545 220.595613 
L 206.993455 221.48806 
L 207.196364 221.257283 
L 207.805091 224.300538 
L 208.008 225.127627 
L 208.210909 226.768496 
L 208.413818 226.831442 
L 208.616727 229.905617 
L 208.819636 229.868152 
L 209.022545 230.016529 
L 209.428364 231.582445 
L 209.834182 231.577625 
L 210.442909 231.895596 
L 210.645818 235.713947 
L 211.051636 236.197138 
L 211.457455 237.664821 
L 211.660364 237.712374 
L 211.863273 238.9354 
L 212.066182 238.888391 
L 212.472 239.373124 
L 213.080727 239.553107 
L 213.283636 238.791552 
L 213.486545 238.814836 
L 213.689455 240.495984 
L 213.892364 240.585253 
L 214.095273 240.883885 
L 214.298182 240.82099 
L 214.501091 240.906339 
L 214.704 240.708057 
L 215.109818 240.773353 
L 215.312727 242.852721 
L 215.515636 242.224688 
L 215.921455 242.250182 
L 216.327273 242.283193 
L 216.530182 242.875494 
L 216.733091 239.742899 
L 216.936 239.729266 
L 217.138909 240.885757 
L 217.747636 241.685672 
L 217.950545 241.668161 
L 218.153455 242.263906 
L 218.356364 242.2383 
L 218.559273 242.783599 
L 219.370909 242.926026 
L 219.573818 243.005949 
L 219.979636 242.937414 
L 220.588364 243.700965 
L 220.791273 242.959563 
L 220.994182 243.61704 
L 221.197091 243.869966 
L 222.008727 244.032362 
L 222.414545 244.121647 
L 222.617455 244.119934 
L 222.820364 245.049723 
L 223.023273 244.526651 
L 223.226182 224.712195 
L 223.429091 225.535971 
L 223.632 227.678419 
L 224.037818 227.069175 
L 224.240727 231.262298 
L 224.849455 235.064402 
L 225.052364 235.064784 
L 225.255273 235.266016 
L 225.458182 235.718947 
L 225.661091 237.272444 
L 225.864 237.477806 
L 226.066909 238.55815 
L 226.269818 238.580736 
L 226.472727 238.888974 
L 226.878545 240.030513 
L 227.081455 240.375491 
L 227.284364 240.332769 
L 227.487273 241.261207 
L 228.298909 241.497997 
L 228.704727 241.759469 
L 229.110545 241.641589 
L 229.313455 242.656207 
L 229.922182 242.819902 
L 230.125091 242.004724 
L 230.530909 243.415452 
L 230.936727 243.620822 
L 231.545455 243.682115 
L 232.357091 243.735464 
L 232.56 243.669635 
L 233.371636 244.124003 
L 233.574545 244.441042 
L 233.980364 244.554324 
L 234.183273 244.58724 
L 234.386182 244.469441 
L 235.197818 244.477886 
L 235.400727 244.839886 
L 235.603636 244.862982 
L 236.212364 243.446454 
L 236.415273 243.736661 
L 237.226909 243.811677 
L 238.038545 243.947929 
L 238.241455 244.395423 
L 239.053091 244.503906 
L 239.458909 244.604588 
L 239.864727 244.700478 
L 240.067636 244.567416 
L 240.473455 244.601409 
L 240.676364 244.823305 
L 241.082182 244.918158 
L 242.299636 245.065639 
L 242.502545 245.27764 
L 243.314182 245.249964 
L 243.517091 245.395437 
L 243.72 245.387837 
L 243.922909 245.493335 
L 244.531636 245.531272 
L 245.343273 245.610252 
L 245.546182 245.634394 
L 245.749091 245.529337 
L 246.763636 245.618764 
L 251.024727 245.613365 
L 373.581818 245.613365 
L 373.581818 245.613365 
" style="fill:none;stroke:#023eff;stroke-linecap:round;stroke-width:1.2;"/>
    <defs>
     <path d="M 0 2.4 
C 0.636487 2.4 1.246992 2.147121 1.697056 1.697056 
C 2.147121 1.246992 2.4 0.636487 2.4 0 
C 2.4 -0.636487 2.147121 -1.246992 1.697056 -1.697056 
C 1.246992 -2.147121 0.636487 -2.4 0 -2.4 
C -0.636487 -2.4 -1.246992 -2.147121 -1.697056 -1.697056 
C -2.147121 -1.246992 -2.4 -0.636487 -2.4 0 
C -2.4 0.636487 -2.147121 1.246992 -1.697056 1.697056 
C -1.246992 2.147121 -0.636487 2.4 0 2.4 
z
" id="m6c47a31e29" style="stroke:#023eff;"/>
    </defs>
    <g clip-path="url(#pc751aed4f2)">
     <use style="fill-opacity:0;stroke:#023eff;" x="69.218182" xlink:href="#m6c47a31e29" y="44.64"/>
     <use style="fill-opacity:0;stroke:#023eff;" x="109.8" xlink:href="#m6c47a31e29" y="188.209273"/>
     <use style="fill-opacity:0;stroke:#023eff;" x="150.381818" xlink:href="#m6c47a31e29" y="235.370341"/>
     <use style="fill-opacity:0;stroke:#023eff;" x="190.963636" xlink:href="#m6c47a31e29" y="230.200594"/>
     <use style="fill-opacity:0;stroke:#023eff;" x="231.545455" xlink:href="#m6c47a31e29" y="243.682115"/>
     <use style="fill-opacity:0;stroke:#023eff;" x="272.127273" xlink:href="#m6c47a31e29" y="245.613365"/>
     <use style="fill-opacity:0;stroke:#023eff;" x="312.709091" xlink:href="#m6c47a31e29" y="245.613365"/>
     <use style="fill-opacity:0;stroke:#023eff;" x="353.290909" xlink:href="#m6c47a31e29" y="245.613365"/>
    </g>
   </g>
   <g id="line2d_60">
    <path clip-path="url(#pc751aed4f2)" d="M 69.218182 45.195983 
L 70.232727 54.744801 
L 70.435636 55.38187 
L 71.044364 64.3839 
L 71.247273 66.23729 
L 72.058909 78.655238 
L 72.261818 80.002807 
L 72.464727 79.659904 
L 72.870545 89.324644 
L 73.073455 98.913241 
L 73.276364 101.802188 
L 73.479273 100.167966 
L 73.682182 104.509643 
L 73.885091 103.592782 
L 74.088 103.546345 
L 74.290909 103.772952 
L 74.696727 108.905505 
L 74.899636 105.307466 
L 75.305455 116.695943 
L 75.508364 117.61081 
L 75.711273 120.286437 
L 75.914182 120.560649 
L 76.117091 113.562848 
L 76.32 127.028731 
L 76.928727 119.72089 
L 77.131636 124.059991 
L 77.334545 130.832049 
L 77.537455 131.14722 
L 77.740364 130.895721 
L 77.943273 135.116067 
L 78.146182 135.050684 
L 78.349091 136.993869 
L 78.552 137.351962 
L 78.754909 134.01745 
L 79.160727 134.576284 
L 79.363636 129.432604 
L 79.566545 129.639278 
L 79.769455 125.515801 
L 79.972364 126.806436 
L 80.175273 132.368329 
L 80.378182 132.923722 
L 80.581091 132.054556 
L 80.784 132.17336 
L 80.986909 147.185887 
L 81.189818 132.674317 
L 81.392727 133.023859 
L 81.595636 133.03535 
L 81.798545 138.930378 
L 82.001455 138.974427 
L 82.204364 139.132745 
L 82.407273 142.101091 
L 82.610182 146.964566 
L 82.813091 148.205416 
L 83.016 157.728312 
L 83.218909 158.560869 
L 83.624727 159.078853 
L 83.827636 162.015149 
L 84.233455 162.662728 
L 84.436364 158.143091 
L 84.639273 158.592899 
L 85.045091 170.162874 
L 85.248 170.392294 
L 85.450909 170.899189 
L 85.653818 170.121597 
L 85.856727 171.051245 
L 86.059636 169.198236 
L 86.668364 170.089232 
L 87.48 180.360691 
L 87.682909 169.964629 
L 87.885818 170.172087 
L 88.088727 172.193611 
L 88.291636 163.777735 
L 88.494545 163.503298 
L 89.103273 164.832935 
L 89.306182 164.983245 
L 89.712 166.0028 
L 89.914909 166.228392 
L 90.117818 166.041936 
L 90.523636 188.973296 
L 90.726545 187.890637 
L 90.929455 191.247388 
L 91.538182 195.312129 
L 91.944 172.898778 
L 92.146909 176.219037 
L 92.349818 176.275405 
L 92.552727 177.296142 
L 92.755636 184.175609 
L 92.958545 184.181463 
L 93.161455 183.964911 
L 93.364364 184.803303 
L 93.567273 185.003238 
L 93.770182 182.30087 
L 93.973091 195.472889 
L 94.176 195.937505 
L 94.378909 199.757793 
L 94.784727 200.764602 
L 94.987636 202.12343 
L 95.190545 175.450257 
L 95.393455 176.261278 
L 95.596364 168.014944 
L 95.799273 168.287126 
L 96.002182 160.221768 
L 96.205091 165.850358 
L 96.408 166.546331 
L 96.610909 184.807225 
L 96.813818 183.585003 
L 97.016727 185.626775 
L 97.219636 185.835506 
L 97.422545 181.229271 
L 97.625455 194.942708 
L 97.828364 194.485296 
L 98.031273 191.521724 
L 98.234182 191.957678 
L 98.437091 192.992728 
L 98.64 196.560642 
L 98.842909 196.986277 
L 99.045818 197.919586 
L 99.248727 197.742665 
L 99.451636 198.220907 
L 99.654545 192.621524 
L 99.857455 192.012107 
L 100.060364 199.363071 
L 100.263273 199.320643 
L 100.466182 200.639344 
L 100.669091 200.846303 
L 100.872 201.814066 
L 101.074909 203.553035 
L 101.277818 203.426881 
L 101.480727 203.855997 
L 101.683636 206.402246 
L 101.886545 207.141559 
L 102.089455 212.300725 
L 102.292364 198.717176 
L 102.698182 198.31323 
L 103.306909 202.504894 
L 103.509818 202.500958 
L 103.712727 202.375815 
L 104.118545 203.412831 
L 104.321455 219.217356 
L 104.524364 213.304106 
L 104.727273 216.368366 
L 104.930182 217.307469 
L 105.133091 219.154052 
L 105.336 219.718305 
L 105.538909 222.833483 
L 105.741818 222.028376 
L 106.147636 218.957847 
L 106.350545 223.893055 
L 106.756364 225.421064 
L 106.959273 229.706561 
L 107.162182 230.366563 
L 107.365091 230.517968 
L 107.770909 232.073386 
L 107.973818 230.344237 
L 108.379636 232.126799 
L 108.582545 227.901344 
L 108.988364 235.030648 
L 109.191273 234.008132 
L 109.394182 235.25429 
L 109.597091 233.421424 
L 109.8 233.105254 
L 110.002909 236.827387 
L 110.205818 235.969076 
L 110.408727 226.50367 
L 110.611636 226.53031 
L 110.814545 221.862449 
L 111.017455 197.472085 
L 111.220364 210.752453 
L 111.423273 215.121411 
L 111.626182 215.825982 
L 112.032 219.843897 
L 112.234909 219.526389 
L 112.437818 220.447007 
L 112.640727 223.545927 
L 112.843636 224.367869 
L 113.249455 224.670083 
L 113.452364 232.86012 
L 113.655273 228.427318 
L 113.858182 228.369219 
L 114.061091 228.687276 
L 114.264 228.742321 
L 114.466909 229.67493 
L 114.669818 223.970462 
L 114.872727 230.648842 
L 115.075636 232.739106 
L 115.278545 231.829129 
L 115.481455 228.147281 
L 115.684364 233.860187 
L 115.887273 234.035011 
L 116.496 229.85336 
L 116.698909 230.481434 
L 117.104727 235.218245 
L 117.307636 235.147917 
L 117.510545 235.49606 
L 117.713455 236.546741 
L 117.916364 234.890434 
L 118.119273 223.003598 
L 118.525091 233.133499 
L 118.728 231.891972 
L 118.930909 232.12636 
L 119.133818 236.272116 
L 119.336727 236.057667 
L 119.539636 237.97808 
L 119.742545 238.660154 
L 119.945455 240.255029 
L 120.148364 239.43548 
L 120.351273 239.408195 
L 120.554182 241.083951 
L 120.757091 241.168791 
L 121.162909 240.625088 
L 121.568727 240.654622 
L 121.771636 241.584322 
L 121.974545 241.45977 
L 122.177455 235.639188 
L 122.380364 212.196914 
L 122.583273 225.738853 
L 122.989091 230.876772 
L 123.192 226.835197 
L 123.394909 225.332695 
L 123.800727 227.51387 
L 124.003636 226.99389 
L 124.206545 227.560428 
L 124.409455 226.665329 
L 125.018182 232.696499 
L 125.221091 233.354312 
L 125.424 236.452724 
L 125.626909 226.628896 
L 125.829818 228.450682 
L 126.032727 233.218948 
L 126.235636 235.174771 
L 126.438545 238.402612 
L 126.641455 237.756321 
L 126.844364 237.888088 
L 127.047273 239.349457 
L 127.250182 239.764538 
L 127.453091 238.361242 
L 127.656 238.626408 
L 127.858909 240.721395 
L 128.061818 240.513727 
L 128.264727 241.363289 
L 128.467636 241.529157 
L 128.670545 239.287771 
L 129.076364 239.354639 
L 129.685091 239.933475 
L 129.888 240.63951 
L 130.699636 240.620294 
L 131.105455 240.954064 
L 131.714182 240.830256 
L 131.917091 239.53205 
L 132.322909 239.528846 
L 132.525818 239.614022 
L 132.931636 239.341569 
L 133.743273 239.691137 
L 133.946182 238.717742 
L 134.149091 238.796813 
L 134.352 238.269565 
L 134.554909 238.144821 
L 134.757818 238.16711 
L 134.960727 241.214027 
L 135.366545 241.707883 
L 135.569455 241.698443 
L 135.772364 234.138881 
L 135.975273 219.251507 
L 136.381091 229.019174 
L 136.584 228.991302 
L 136.786909 231.295678 
L 136.989818 232.194676 
L 137.192727 232.120834 
L 137.598545 233.016464 
L 137.801455 232.855304 
L 138.004364 233.147619 
L 138.207273 233.721983 
L 138.410182 233.637234 
L 139.018909 234.462588 
L 139.221818 235.090861 
L 139.424727 234.723904 
L 139.627636 234.900514 
L 139.830545 234.724641 
L 140.033455 235.707227 
L 140.236364 235.44587 
L 140.439273 235.598423 
L 140.642182 235.601893 
L 140.845091 235.807987 
L 141.048 235.001776 
L 141.250909 235.241675 
L 141.453818 236.152131 
L 141.656727 235.940584 
L 141.859636 236.001351 
L 142.062545 236.253776 
L 142.265455 236.234773 
L 142.671273 236.583649 
L 142.874182 237.845068 
L 143.28 238.068054 
L 143.482909 238.094269 
L 143.888727 238.362483 
L 144.700364 238.400254 
L 145.106182 238.389384 
L 145.309091 238.41527 
L 145.512 238.553503 
L 146.526545 238.635242 
L 147.338182 238.697924 
L 148.149818 238.725153 
L 148.352727 241.434994 
L 148.555636 228.489173 
L 148.961455 233.923927 
L 149.164364 237.502678 
L 149.367273 237.490674 
L 149.570182 238.649213 
L 149.773091 238.761118 
L 149.976 240.194798 
L 150.178909 240.323633 
L 150.584727 241.454368 
L 150.787636 241.132293 
L 150.990545 242.103912 
L 151.193455 241.121379 
L 151.396364 242.237284 
L 151.802182 242.90064 
L 152.005091 242.949534 
L 152.208 243.906435 
L 152.410909 243.922556 
L 152.613818 244.66565 
L 152.816727 244.875259 
L 153.222545 244.951056 
L 153.425455 245.356117 
L 153.831273 245.46387 
L 154.034182 245.366333 
L 154.44 245.545518 
L 154.642909 245.763896 
L 154.845818 245.774777 
L 155.048727 245.484385 
L 155.251636 245.798281 
L 155.454545 245.799283 
L 155.860364 246.174967 
L 156.063273 246.24 
L 156.266182 246.016697 
L 156.469091 245.990053 
L 156.672 246.105258 
L 156.874909 245.852381 
L 157.686545 245.940104 
L 373.581818 245.940104 
L 373.581818 245.940104 
" style="fill:none;stroke:#1ac938;stroke-linecap:round;stroke-width:1.2;"/>
    <defs>
     <path d="M -0 2.4 
L 2.4 -2.4 
L -2.4 -2.4 
z
" id="mdc0a3ebf37" style="stroke:#1ac938;stroke-linejoin:miter;"/>
    </defs>
    <g clip-path="url(#pc751aed4f2)">
     <use style="fill-opacity:0;stroke:#1ac938;stroke-linejoin:miter;" x="69.218182" xlink:href="#mdc0a3ebf37" y="45.195983"/>
     <use style="fill-opacity:0;stroke:#1ac938;stroke-linejoin:miter;" x="109.8" xlink:href="#mdc0a3ebf37" y="233.105254"/>
     <use style="fill-opacity:0;stroke:#1ac938;stroke-linejoin:miter;" x="150.381818" xlink:href="#mdc0a3ebf37" y="240.945156"/>
     <use style="fill-opacity:0;stroke:#1ac938;stroke-linejoin:miter;" x="190.963636" xlink:href="#mdc0a3ebf37" y="245.940104"/>
     <use style="fill-opacity:0;stroke:#1ac938;stroke-linejoin:miter;" x="231.545455" xlink:href="#mdc0a3ebf37" y="245.940104"/>
     <use style="fill-opacity:0;stroke:#1ac938;stroke-linejoin:miter;" x="272.127273" xlink:href="#mdc0a3ebf37" y="245.940104"/>
     <use style="fill-opacity:0;stroke:#1ac938;stroke-linejoin:miter;" x="312.709091" xlink:href="#mdc0a3ebf37" y="245.940104"/>
     <use style="fill-opacity:0;stroke:#1ac938;stroke-linejoin:miter;" x="353.290909" xlink:href="#mdc0a3ebf37" y="245.940104"/>
    </g>
   </g>
   <g id="line2d_61">
    <path clip-path="url(#pc751aed4f2)" d="M 69.218182 45.674424 
L 69.421091 45.292783 
L 69.826909 46.282425 
L 70.029818 49.007765 
L 70.638545 51.658503 
L 70.841455 54.265079 
L 71.044364 54.505933 
L 71.450182 57.3861 
L 71.653091 63.915555 
L 71.856 63.962534 
L 72.261818 72.346999 
L 72.464727 72.652018 
L 72.667636 75.726813 
L 73.073455 87.302418 
L 73.276364 90.200567 
L 73.479273 90.052636 
L 73.682182 92.342173 
L 73.885091 92.376064 
L 74.088 96.212277 
L 74.290909 96.236213 
L 74.493818 95.883187 
L 74.696727 97.052083 
L 74.899636 96.581537 
L 75.102545 97.130938 
L 75.305455 96.965373 
L 75.508364 95.990168 
L 75.711273 98.104822 
L 75.914182 97.944105 
L 76.117091 98.429195 
L 76.32 100.751568 
L 76.522909 99.328423 
L 76.725818 99.270462 
L 76.928727 98.774281 
L 77.131636 99.270506 
L 77.537455 99.41693 
L 77.740364 105.366913 
L 77.943273 104.910272 
L 78.146182 106.574858 
L 78.349091 106.421113 
L 78.957818 113.584348 
L 79.363636 114.757666 
L 79.769455 120.268178 
L 79.972364 119.065108 
L 80.378182 119.198448 
L 80.581091 120.387176 
L 80.784 122.890828 
L 80.986909 123.578396 
L 81.189818 123.685852 
L 81.392727 124.924868 
L 81.595636 124.173647 
L 82.001455 127.343459 
L 82.204364 130.870167 
L 82.407273 130.992017 
L 82.610182 131.290517 
L 83.016 135.515431 
L 83.218909 136.249951 
L 83.421818 135.808042 
L 83.624727 135.708624 
L 83.827636 136.391243 
L 84.030545 137.645691 
L 84.233455 137.212346 
L 84.436364 137.877397 
L 84.842182 139.40231 
L 85.248 143.537978 
L 85.450909 144.745516 
L 85.653818 145.094405 
L 85.856727 145.905371 
L 86.059636 145.975366 
L 86.262545 146.847907 
L 86.465455 146.250753 
L 86.871273 146.980128 
L 87.48 152.123206 
L 87.885818 153.362197 
L 88.088727 154.976351 
L 88.494545 155.754117 
L 88.697455 156.787992 
L 88.900364 157.045383 
L 89.103273 156.956525 
L 89.509091 157.760424 
L 89.914909 158.312872 
L 90.117818 158.595239 
L 90.320727 158.664712 
L 90.523636 161.352948 
L 90.726545 159.101098 
L 90.929455 158.968302 
L 91.132364 159.295938 
L 91.335273 160.730309 
L 91.741091 161.20421 
L 92.349818 164.290413 
L 92.958545 166.05124 
L 93.161455 164.18436 
L 93.364364 164.126787 
L 93.567273 164.448711 
L 93.770182 165.706544 
L 93.973091 166.174507 
L 94.784727 169.400868 
L 94.987636 169.654606 
L 95.596364 171.3058 
L 96.002182 171.802166 
L 96.205091 172.135407 
L 96.408 172.00458 
L 96.610909 171.391275 
L 97.422545 173.444894 
L 97.625455 173.707004 
L 97.828364 174.519722 
L 98.031273 174.836359 
L 98.234182 177.12108 
L 98.437091 177.316582 
L 98.842909 178.007426 
L 99.045818 177.967271 
L 99.248727 175.240801 
L 99.451636 174.360758 
L 99.654545 174.575363 
L 99.857455 145.073167 
L 100.060364 145.630807 
L 100.263273 161.990779 
L 100.466182 160.917562 
L 100.669091 161.545203 
L 100.872 162.907602 
L 101.074909 162.281111 
L 101.277818 163.529513 
L 101.480727 168.709981 
L 101.886545 170.859321 
L 102.089455 167.357288 
L 102.292364 168.411857 
L 103.306909 169.946865 
L 103.509818 158.560584 
L 103.712727 158.13576 
L 103.915636 166.919181 
L 104.118545 167.163131 
L 104.321455 167.634206 
L 104.524364 175.229049 
L 104.727273 175.173441 
L 104.930182 164.124993 
L 105.133091 163.924551 
L 105.336 168.918134 
L 105.741818 169.256712 
L 105.944727 169.36459 
L 106.147636 171.070282 
L 106.553455 171.237185 
L 106.756364 171.493881 
L 106.959273 171.538668 
L 107.770909 172.098844 
L 107.973818 172.127504 
L 108.379636 172.311874 
L 108.582545 172.325545 
L 108.785455 175.377179 
L 108.988364 175.316006 
L 109.191273 175.440762 
L 109.597091 175.386815 
L 109.8 175.599426 
L 110.408727 175.615794 
L 110.611636 178.153277 
L 111.626182 178.471112 
L 111.829091 178.403367 
L 112.032 178.493447 
L 112.234909 178.293912 
L 112.437818 173.38075 
L 112.640727 171.59931 
L 112.843636 172.807556 
L 113.046545 173.075684 
L 113.249455 176.093448 
L 113.452364 176.73479 
L 113.655273 176.762054 
L 113.858182 177.172039 
L 115.075636 177.473259 
L 115.481455 158.784541 
L 115.887273 159.614828 
L 116.090182 165.464963 
L 116.293091 165.649635 
L 116.496 162.581518 
L 116.698909 162.102983 
L 116.901818 166.801515 
L 117.104727 166.948683 
L 117.307636 168.539972 
L 117.713455 168.958183 
L 117.916364 175.929895 
L 118.119273 173.983761 
L 118.322182 173.74782 
L 118.525091 175.209043 
L 118.728 163.976987 
L 118.930909 173.599498 
L 119.133818 174.497812 
L 119.336727 174.724877 
L 119.539636 178.021084 
L 119.742545 178.576302 
L 119.945455 178.574256 
L 120.351273 179.209031 
L 120.554182 176.76659 
L 120.757091 176.921576 
L 121.162909 177.385807 
L 121.365818 177.470096 
L 121.568727 190.846734 
L 121.771636 189.344865 
L 121.974545 190.753067 
L 122.177455 193.109414 
L 122.380364 193.37223 
L 122.583273 187.011998 
L 122.786182 186.361218 
L 122.989091 187.071968 
L 123.192 184.352572 
L 123.394909 183.810349 
L 123.597818 197.495989 
L 123.800727 196.393362 
L 124.003636 196.36621 
L 124.206545 199.854914 
L 124.409455 200.160172 
L 124.612364 201.471413 
L 125.424 203.402796 
L 125.626909 203.639534 
L 125.829818 203.526153 
L 126.235636 203.530442 
L 126.641455 194.510922 
L 126.844364 196.676242 
L 127.047273 196.527458 
L 127.250182 196.521014 
L 127.453091 197.326361 
L 127.656 197.56418 
L 127.858909 197.97658 
L 128.061818 206.676568 
L 128.264727 203.750055 
L 128.467636 204.684255 
L 128.670545 210.699839 
L 128.873455 209.854521 
L 129.076364 209.880719 
L 129.279273 211.129043 
L 129.482182 213.205173 
L 129.685091 213.149297 
L 129.888 212.488272 
L 130.090909 212.784299 
L 130.293818 213.475741 
L 130.496727 214.785601 
L 130.699636 215.140304 
L 130.902545 214.996934 
L 131.105455 213.035665 
L 131.308364 212.998738 
L 131.714182 217.24094 
L 131.917091 215.128667 
L 132.12 216.370822 
L 132.322909 211.49521 
L 132.525818 199.337068 
L 132.728727 197.303786 
L 132.931636 197.962877 
L 133.134545 199.113917 
L 133.337455 206.703547 
L 133.540364 206.534245 
L 133.743273 207.762748 
L 134.554909 210.022309 
L 134.757818 209.712458 
L 134.960727 210.363954 
L 135.366545 210.5807 
L 135.569455 209.189822 
L 135.772364 210.816633 
L 135.975273 215.300132 
L 136.178182 212.791524 
L 136.381091 215.364357 
L 136.584 213.821683 
L 136.786909 214.711825 
L 136.989818 214.730341 
L 137.598545 216.266096 
L 138.207273 216.730899 
L 138.410182 218.058385 
L 138.816 209.434231 
L 139.018909 209.717138 
L 139.627636 212.267338 
L 139.830545 211.467724 
L 140.033455 211.275206 
L 140.236364 211.506574 
L 140.439273 212.190021 
L 140.642182 212.208175 
L 140.845091 212.48332 
L 141.048 212.566186 
L 141.250909 212.088669 
L 141.859636 212.261543 
L 142.062545 212.262159 
L 142.265455 212.836387 
L 143.482909 213.044157 
L 144.294545 213.105162 
L 144.497455 215.065786 
L 144.903273 214.678652 
L 145.309091 214.856306 
L 145.917818 214.903085 
L 146.323636 214.893009 
L 146.526545 215.050828 
L 147.338182 215.020895 
L 147.744 215.351562 
L 147.946909 215.459673 
L 148.352727 215.418071 
L 149.570182 215.571208 
L 149.773091 215.748324 
L 150.381818 215.704844 
L 150.584727 215.825676 
L 150.990545 215.849472 
L 151.396364 215.931312 
L 151.802182 202.9772 
L 152.208 208.143565 
L 153.019636 209.229617 
L 153.222545 209.289399 
L 153.425455 209.468745 
L 153.628364 209.425541 
L 154.034182 209.570573 
L 154.237091 209.521748 
L 154.845818 209.906891 
L 155.860364 210.103584 
L 156.266182 210.044603 
L 156.469091 209.704106 
L 156.672 186.084411 
L 156.874909 177.906254 
L 157.077818 182.427444 
L 157.483636 184.625746 
L 157.686545 184.663046 
L 157.889455 185.238071 
L 158.092364 188.8771 
L 158.295273 189.073727 
L 158.498182 200.568067 
L 158.701091 197.626549 
L 158.904 181.95546 
L 159.106909 189.472885 
L 159.309818 190.126795 
L 159.512727 188.273107 
L 159.715636 192.234334 
L 159.918545 193.068901 
L 160.121455 192.988891 
L 160.324364 194.890967 
L 160.527273 195.598494 
L 160.730182 195.69509 
L 160.933091 196.098002 
L 161.136 196.183365 
L 161.541818 209.042972 
L 161.744727 208.062033 
L 162.150545 209.659428 
L 162.353455 211.80242 
L 162.556364 212.409284 
L 162.759273 212.006948 
L 162.962182 213.370419 
L 163.165091 213.177104 
L 163.368 224.62765 
L 163.570909 218.564895 
L 163.773818 217.756713 
L 163.976727 224.692984 
L 164.179636 226.415917 
L 164.382545 224.662207 
L 164.585455 220.542421 
L 164.788364 221.127564 
L 164.991273 224.081758 
L 165.194182 224.914219 
L 165.6 202.326987 
L 166.005818 208.223698 
L 166.208727 210.394316 
L 166.411636 210.314848 
L 167.020364 212.911681 
L 167.426182 213.358435 
L 167.629091 213.234591 
L 167.832 213.287239 
L 168.034909 227.450264 
L 168.237818 216.872136 
L 168.643636 222.066728 
L 168.846545 215.371931 
L 169.049455 224.470925 
L 169.252364 225.102852 
L 169.455273 226.705376 
L 169.861091 228.032335 
L 170.064 228.172543 
L 170.266909 230.757406 
L 170.469818 229.559089 
L 171.078545 231.102641 
L 171.281455 231.00734 
L 171.687273 210.519867 
L 172.093091 216.187765 
L 172.296 216.377564 
L 172.498909 222.193099 
L 172.701818 220.942215 
L 172.904727 222.142212 
L 173.310545 226.335349 
L 173.513455 227.423176 
L 173.716364 227.698178 
L 173.919273 231.31177 
L 174.325091 232.497622 
L 174.528 233.013447 
L 174.933818 235.34782 
L 175.136727 236.626375 
L 175.339636 234.985893 
L 175.542545 235.724193 
L 175.948364 235.770185 
L 176.354182 236.018136 
L 176.557091 225.914525 
L 176.76 207.735475 
L 176.962909 218.14921 
L 177.165818 216.442602 
L 177.368727 216.63507 
L 177.571636 218.064308 
L 177.977455 223.149621 
L 178.180364 223.419303 
L 178.383273 224.071933 
L 178.586182 224.179612 
L 178.789091 224.487192 
L 178.992 223.893002 
L 179.600727 224.626509 
L 179.803636 224.457129 
L 180.006545 227.927201 
L 180.209455 228.756076 
L 180.412364 228.484193 
L 180.615273 232.344824 
L 180.818182 232.093559 
L 181.021091 230.412657 
L 181.629818 233.838535 
L 181.832727 233.394052 
L 182.644364 236.094407 
L 182.847273 235.891605 
L 183.050182 235.858463 
L 183.456 236.527863 
L 183.658909 236.740368 
L 183.861818 237.278997 
L 184.064727 237.456048 
L 184.267636 236.289314 
L 184.470545 238.115986 
L 184.673455 238.035637 
L 185.079273 238.231553 
L 185.485091 238.231095 
L 185.890909 238.393697 
L 186.093818 238.372407 
L 186.296727 238.233941 
L 186.499636 238.257009 
L 186.702545 237.603005 
L 187.108364 237.822209 
L 187.311273 237.662896 
L 187.514182 237.964751 
L 187.717091 237.997464 
L 187.92 238.51262 
L 188.325818 238.561359 
L 188.528727 238.632371 
L 188.731636 238.040499 
L 188.934545 238.93358 
L 189.340364 238.908887 
L 190.354909 238.986555 
L 190.963636 239.153688 
L 191.572364 239.262975 
L 191.775273 239.216706 
L 191.978182 239.360541 
L 192.181091 238.525633 
L 192.586909 238.656523 
L 192.992727 238.701951 
L 193.195636 239.771695 
L 195.021818 239.997474 
L 195.224727 233.679249 
L 195.427636 234.334055 
L 195.630545 236.118867 
L 196.036364 235.629597 
L 196.239273 235.978276 
L 196.442182 236.921828 
L 196.645091 237.289312 
L 196.848 237.05167 
L 197.050909 237.65784 
L 197.253818 237.633385 
L 197.456727 240.471789 
L 197.659636 240.170487 
L 197.862545 240.334742 
L 198.065455 240.347286 
L 198.268364 241.149273 
L 198.471273 241.354378 
L 198.877091 212.506037 
L 199.08 214.848825 
L 199.485818 221.95676 
L 199.891636 224.837806 
L 200.094545 225.599928 
L 200.297455 225.574654 
L 200.500364 225.29044 
L 200.703273 226.139429 
L 200.906182 231.032503 
L 201.109091 231.138192 
L 201.312 231.767218 
L 201.514909 231.833207 
L 201.920727 232.954323 
L 202.123636 232.971879 
L 202.326545 233.113213 
L 202.732364 233.1645 
L 202.935273 232.940345 
L 203.138182 233.173039 
L 204.152727 233.247927 
L 204.355636 229.346197 
L 204.558545 229.530051 
L 204.761455 230.250318 
L 204.964364 239.386981 
L 205.167273 231.268346 
L 205.370182 230.02658 
L 205.573091 230.944617 
L 205.776 233.106578 
L 205.978909 233.156962 
L 206.181818 233.377417 
L 206.384727 235.571637 
L 206.587636 234.522579 
L 206.790545 225.693561 
L 206.993455 223.626171 
L 207.805091 230.099865 
L 208.008 229.462306 
L 208.210909 229.522057 
L 208.413818 232.278772 
L 208.616727 232.551699 
L 208.819636 233.01127 
L 209.022545 232.746657 
L 209.225455 224.836824 
L 209.631273 231.936074 
L 210.037091 237.52833 
L 210.24 238.789569 
L 210.848727 239.450066 
L 211.254545 240.236329 
L 211.457455 240.091851 
L 211.660364 240.920473 
L 212.066182 238.801988 
L 212.472 238.928925 
L 212.674909 240.895323 
L 213.080727 240.840607 
L 213.283636 240.869353 
L 213.486545 241.014195 
L 213.689455 241.646847 
L 214.095273 227.924056 
L 214.298182 230.5271 
L 214.501091 231.594249 
L 214.704 230.812547 
L 214.906909 233.025204 
L 215.109818 233.356426 
L 215.312727 233.415482 
L 215.718545 234.795225 
L 215.921455 233.902581 
L 216.124364 233.717898 
L 216.327273 237.01813 
L 216.530182 236.933631 
L 216.733091 237.755785 
L 217.544727 237.883589 
L 217.747636 238.251384 
L 217.950545 238.21662 
L 218.153455 237.995023 
L 218.356364 238.032011 
L 218.559273 238.513104 
L 218.762182 238.700298 
L 218.965091 238.321561 
L 219.573818 239.248524 
L 219.979636 239.095555 
L 220.182545 239.251622 
L 220.588364 239.295101 
L 220.791273 239.495323 
L 220.994182 240.109895 
L 221.197091 240.15954 
L 221.4 241.491927 
L 221.602909 238.658798 
L 221.805818 230.467715 
L 222.008727 230.8759 
L 222.211636 234.33249 
L 222.414545 234.731256 
L 222.617455 233.974439 
L 222.820364 237.156693 
L 223.023273 238.52251 
L 223.226182 238.915047 
L 223.632 238.991316 
L 223.834909 240.211624 
L 224.240727 240.401956 
L 224.443636 240.175541 
L 224.646545 240.346468 
L 224.849455 240.359582 
L 225.255273 240.93109 
L 225.458182 240.955459 
L 225.661091 241.570294 
L 225.864 241.581166 
L 226.066909 241.124629 
L 226.675636 241.949591 
L 226.878545 241.451337 
L 227.081455 239.535274 
L 227.284364 221.354595 
L 227.690182 227.64295 
L 227.893091 229.455521 
L 228.096 229.455902 
L 228.298909 233.738466 
L 228.501818 233.246925 
L 228.907636 234.964383 
L 229.313455 238.583734 
L 229.516364 238.075868 
L 229.922182 238.460826 
L 230.125091 238.743302 
L 230.328 240.04338 
L 230.530909 240.296382 
L 230.733818 240.762408 
L 231.139636 240.858451 
L 231.545455 241.459868 
L 231.748364 241.521332 
L 231.951273 239.352894 
L 232.154182 239.237457 
L 232.357091 239.501857 
L 232.56 239.435307 
L 232.762909 236.960303 
L 232.965818 237.86736 
L 233.168727 237.357672 
L 233.574545 238.381267 
L 233.777455 238.830179 
L 233.980364 238.832234 
L 234.183273 239.756424 
L 234.386182 238.647279 
L 234.589091 239.794953 
L 234.792 239.300495 
L 234.994909 238.374789 
L 235.197818 238.326688 
L 235.400727 239.256963 
L 235.603636 239.501936 
L 235.806545 240.30338 
L 236.009455 240.442658 
L 236.212364 240.77581 
L 236.618182 239.157525 
L 236.821091 241.253894 
L 237.024 241.174801 
L 237.226909 240.772343 
L 237.429818 241.046352 
L 237.632727 241.811048 
L 237.835636 241.576563 
L 238.038545 241.757611 
L 238.241455 241.620461 
L 238.444364 241.648285 
L 238.850182 241.951426 
L 239.053091 241.963278 
L 239.458909 241.803192 
L 239.661818 241.907323 
L 240.067636 242.531375 
L 240.270545 242.668786 
L 240.676364 243.572563 
L 240.879273 243.389038 
L 241.082182 240.572473 
L 241.285091 226.983682 
L 241.893818 232.144021 
L 242.096727 232.891686 
L 242.299636 236.674661 
L 242.502545 238.006025 
L 242.705455 237.790001 
L 242.908364 237.832716 
L 243.111273 239.909416 
L 243.314182 240.411569 
L 243.72 240.452387 
L 244.125818 240.699094 
L 244.328727 240.749821 
L 244.531636 240.970161 
L 244.937455 241.568838 
L 245.343273 241.608415 
L 245.546182 241.14835 
L 245.749091 241.793866 
L 245.952 241.810149 
L 246.154909 242.053658 
L 246.357818 242.053432 
L 246.763636 242.225439 
L 247.778182 242.138256 
L 247.981091 241.877508 
L 248.184 241.957086 
L 248.386909 241.632822 
L 248.589818 243.255183 
L 248.995636 243.283315 
L 249.401455 243.381965 
L 373.581818 243.381965 
L 373.581818 243.381965 
" style="fill:none;stroke:#e8000b;stroke-linecap:round;stroke-width:1.2;"/>
    <defs>
     <path d="M 0 -2.4 
L -2.4 2.4 
L 2.4 2.4 
z
" id="me76ef152d4" style="stroke:#e8000b;stroke-linejoin:miter;"/>
    </defs>
    <g clip-path="url(#pc751aed4f2)">
     <use style="fill-opacity:0;stroke:#e8000b;stroke-linejoin:miter;" x="69.218182" xlink:href="#me76ef152d4" y="45.674424"/>
     <use style="fill-opacity:0;stroke:#e8000b;stroke-linejoin:miter;" x="109.8" xlink:href="#me76ef152d4" y="175.599426"/>
     <use style="fill-opacity:0;stroke:#e8000b;stroke-linejoin:miter;" x="150.381818" xlink:href="#me76ef152d4" y="215.704844"/>
     <use style="fill-opacity:0;stroke:#e8000b;stroke-linejoin:miter;" x="190.963636" xlink:href="#me76ef152d4" y="239.153688"/>
     <use style="fill-opacity:0;stroke:#e8000b;stroke-linejoin:miter;" x="231.545455" xlink:href="#me76ef152d4" y="241.459868"/>
     <use style="fill-opacity:0;stroke:#e8000b;stroke-linejoin:miter;" x="272.127273" xlink:href="#me76ef152d4" y="243.381965"/>
     <use style="fill-opacity:0;stroke:#e8000b;stroke-linejoin:miter;" x="312.709091" xlink:href="#me76ef152d4" y="243.381965"/>
     <use style="fill-opacity:0;stroke:#e8000b;stroke-linejoin:miter;" x="353.290909" xlink:href="#me76ef152d4" y="243.381965"/>
    </g>
   </g>
   <g id="line2d_62">
    <path clip-path="url(#pc751aed4f2)" d="M 69.218182 45.234316 
L 69.826909 47.824803 
L 70.029818 47.824803 
L 70.435636 51.413527 
L 70.638545 52.456323 
L 71.044364 52.4825 
L 71.247273 52.596887 
L 71.450182 53.180513 
L 71.653091 55.170994 
L 71.856 58.679815 
L 72.058909 65.271375 
L 72.464727 69.830112 
L 72.667636 71.913412 
L 72.870545 77.115486 
L 73.276364 80.961406 
L 73.682182 81.010402 
L 74.088 81.990033 
L 74.290909 82.189926 
L 74.696727 90.677349 
L 74.899636 92.836676 
L 75.102545 88.530016 
L 75.305455 89.47468 
L 75.508364 89.582925 
L 76.117091 90.648322 
L 76.725818 90.687668 
L 77.131636 96.614829 
L 77.537455 96.983268 
L 77.740364 97.453095 
L 77.943273 98.882618 
L 78.146182 98.885251 
L 78.349091 99.044911 
L 78.754909 104.663657 
L 78.957818 104.768608 
L 79.363636 105.51955 
L 80.175273 107.380994 
L 80.784 107.660263 
L 80.986909 107.425812 
L 81.189818 108.610541 
L 81.392727 108.20861 
L 81.595636 108.289749 
L 81.798545 109.463238 
L 82.001455 111.757505 
L 82.204364 118.326875 
L 82.407273 119.384681 
L 82.610182 119.360709 
L 82.813091 119.581525 
L 83.016 120.593087 
L 83.218909 120.987916 
L 83.624727 125.557437 
L 83.827636 126.044421 
L 84.030545 126.149257 
L 84.436364 130.242418 
L 84.842182 132.976494 
L 85.045091 132.948268 
L 85.248 133.83698 
L 85.653818 133.653943 
L 85.856727 133.740675 
L 86.059636 135.71166 
L 86.465455 136.926629 
L 86.668364 137.313961 
L 86.871273 138.367998 
L 87.074182 138.221265 
L 87.277091 139.143419 
L 87.682909 139.262221 
L 88.088727 139.70348 
L 88.291636 139.440539 
L 89.103273 139.865811 
L 89.306182 140.263236 
L 89.509091 140.277935 
L 89.914909 138.064495 
L 90.117818 131.88307 
L 90.320727 132.14147 
L 90.726545 139.232221 
L 91.335273 139.903833 
L 92.349818 142.468771 
L 92.552727 142.591025 
L 92.755636 143.654452 
L 93.161455 143.990971 
L 93.567273 144.380876 
L 93.770182 144.947349 
L 93.973091 144.978651 
L 94.378909 145.456919 
L 94.581818 145.305447 
L 94.784727 143.769276 
L 95.596364 144.332796 
L 95.799273 144.698406 
L 96.002182 144.700206 
L 96.205091 145.894848 
L 96.408 146.050347 
L 96.610909 149.380139 
L 98.031273 150.541109 
L 98.234182 150.314662 
L 98.437091 150.912677 
L 99.045818 151.05141 
L 99.248727 147.466204 
L 99.654545 147.894499 
L 99.857455 148.03039 
L 100.060364 147.980304 
L 100.669091 148.330845 
L 100.872 153.131657 
L 101.074909 153.250307 
L 101.277818 151.449186 
L 101.683636 151.385226 
L 102.089455 151.569319 
L 102.292364 148.247887 
L 102.495273 148.322461 
L 102.698182 138.27358 
L 103.104 138.357345 
L 103.306909 141.815186 
L 103.509818 152.362555 
L 103.712727 152.406682 
L 103.915636 156.888513 
L 104.118545 157.623417 
L 104.321455 157.249551 
L 104.524364 157.431402 
L 104.727273 156.928578 
L 104.930182 157.08262 
L 105.133091 142.176005 
L 105.336 145.101174 
L 105.538909 145.15608 
L 105.944727 145.911586 
L 106.147636 146.023904 
L 106.553455 154.371986 
L 106.756364 154.781236 
L 106.959273 154.924808 
L 107.365091 155.519198 
L 107.568 155.618922 
L 107.770909 155.842829 
L 107.973818 155.515804 
L 108.176727 155.616314 
L 108.379636 138.555381 
L 108.582545 154.836183 
L 109.191273 156.619961 
L 109.394182 156.77617 
L 110.002909 158.314184 
L 110.408727 158.315504 
L 110.611636 159.557928 
L 110.814545 159.618589 
L 111.017455 158.967346 
L 111.220364 161.058846 
L 111.423273 160.817708 
L 111.626182 162.530683 
L 111.829091 162.885603 
L 112.032 163.67278 
L 112.234909 151.106989 
L 112.437818 150.586621 
L 112.640727 150.581119 
L 113.046545 151.232652 
L 113.249455 150.568446 
L 113.452364 153.802299 
L 113.655273 153.75072 
L 113.858182 154.292172 
L 114.264 154.517071 
L 114.466909 154.534767 
L 114.669818 154.916021 
L 114.872727 154.969256 
L 115.278545 155.268933 
L 116.293091 155.554398 
L 116.698909 155.854173 
L 117.713455 155.92927 
L 117.916364 156.089076 
L 118.322182 156.177019 
L 118.525091 177.411829 
L 118.728 175.518069 
L 118.930909 176.015071 
L 119.133818 175.731746 
L 119.336727 175.859373 
L 119.539636 176.601414 
L 120.148364 176.985888 
L 120.351273 179.851366 
L 120.96 180.086258 
L 121.162909 180.353541 
L 121.365818 179.153295 
L 121.568727 173.274624 
L 121.974545 172.393721 
L 122.380364 168.827488 
L 122.583273 168.864406 
L 122.786182 168.664785 
L 123.192 169.882453 
L 123.394909 155.883738 
L 123.597818 155.806297 
L 124.003636 156.007999 
L 124.206545 143.989629 
L 124.409455 161.877318 
L 124.612364 162.598029 
L 125.018182 162.83192 
L 125.424 163.509347 
L 126.032727 163.724535 
L 126.235636 174.510964 
L 126.438545 174.645075 
L 126.641455 174.405434 
L 127.250182 175.340432 
L 127.453091 175.398293 
L 127.656 176.142393 
L 128.061818 176.355626 
L 128.467636 154.901724 
L 128.670545 154.921151 
L 128.873455 156.18536 
L 129.279273 156.928238 
L 129.888 157.183537 
L 130.293818 157.400193 
L 130.496727 157.58208 
L 130.699636 157.576478 
L 131.105455 157.905563 
L 131.714182 158.269314 
L 132.12 158.429144 
L 132.322909 158.441867 
L 132.525818 158.75101 
L 132.728727 158.653864 
L 132.931636 158.683963 
L 133.134545 158.180732 
L 133.337455 158.165353 
L 133.540364 158.354493 
L 133.743273 164.763168 
L 133.946182 164.011174 
L 134.352 164.164245 
L 134.554909 157.348804 
L 135.772364 157.753204 
L 135.975273 159.415647 
L 136.381091 159.570603 
L 136.584 159.58094 
L 136.786909 163.555739 
L 137.801455 163.674536 
L 138.004364 158.74741 
L 139.221818 158.832864 
L 140.033455 158.878663 
L 140.236364 158.856363 
L 140.439273 160.905395 
L 140.642182 164.118914 
L 141.250909 164.182647 
L 142.062545 164.255179 
L 143.28 164.365408 
L 145.106182 164.439147 
L 147.338182 164.546962 
L 147.541091 169.119148 
L 147.744 169.013213 
L 147.946909 168.761421 
L 148.352727 168.728322 
L 148.555636 168.237132 
L 148.758545 168.774726 
L 149.164364 172.333545 
L 149.773091 172.060692 
L 149.976 171.62786 
L 150.584727 171.486988 
L 151.193455 172.171594 
L 151.599273 189.686209 
L 151.802182 187.807166 
L 152.208 189.37277 
L 152.410909 187.655465 
L 152.613818 187.83415 
L 152.816727 188.646523 
L 153.019636 188.115347 
L 154.034182 189.839043 
L 154.237091 189.601874 
L 154.44 189.800787 
L 154.642909 188.677141 
L 154.845818 188.51203 
L 155.048727 188.67986 
L 155.251636 185.869505 
L 155.657455 186.62649 
L 155.860364 186.521111 
L 156.063273 186.630148 
L 156.266182 186.511855 
L 156.469091 186.622256 
L 156.874909 187.232858 
L 157.077818 187.244638 
L 157.889455 187.673021 
L 158.904 187.787648 
L 159.309818 187.72228 
L 159.512727 174.505752 
L 159.715636 187.204775 
L 160.324364 187.256903 
L 160.527273 192.217498 
L 161.136 192.286684 
L 161.338909 181.968299 
L 162.556364 182.084502 
L 162.759273 185.141171 
L 166.005818 185.32628 
L 166.208727 190.675154 
L 167.223273 190.731424 
L 169.049455 190.809387 
L 170.875636 190.842188 
L 171.078545 185.028528 
L 171.890182 185.024274 
L 172.093091 185.824977 
L 172.296 185.824977 
L 172.498909 190.352548 
L 176.557091 190.4493 
L 176.76 190.454306 
L 176.962909 189.961647 
L 177.774545 189.937721 
L 178.383273 189.943169 
L 178.586182 192.337935 
L 182.238545 192.460181 
L 183.658909 192.511146 
L 184.064727 192.534801 
L 184.267636 193.275934 
L 187.108364 193.317496 
L 187.311273 191.97832 
L 187.514182 191.977527 
L 187.717091 192.614473 
L 188.122909 192.615805 
L 188.325818 193.346941 
L 189.543273 193.273927 
L 189.746182 193.570882 
L 190.152 193.431638 
L 190.354909 193.433849 
L 190.557818 193.056278 
L 190.760727 193.053526 
L 190.963636 193.532805 
L 191.369455 193.523459 
L 191.572364 190.410313 
L 191.775273 190.003932 
L 191.978182 189.886231 
L 192.181091 189.393673 
L 192.586909 189.296098 
L 192.789818 189.581242 
L 373.581818 189.581242 
L 373.581818 189.581242 
" style="fill:none;stroke:#00d7ff;stroke-linecap:round;stroke-width:1.2;"/>
    <defs>
     <path d="M -2.4 2.4 
L 2.4 2.4 
L 2.4 -2.4 
L -2.4 -2.4 
z
" id="ma92011b5f0" style="stroke:#00d7ff;stroke-linejoin:miter;"/>
    </defs>
    <g clip-path="url(#pc751aed4f2)">
     <use style="fill-opacity:0;stroke:#00d7ff;stroke-linejoin:miter;" x="69.218182" xlink:href="#ma92011b5f0" y="45.234316"/>
     <use style="fill-opacity:0;stroke:#00d7ff;stroke-linejoin:miter;" x="109.8" xlink:href="#ma92011b5f0" y="157.878748"/>
     <use style="fill-opacity:0;stroke:#00d7ff;stroke-linejoin:miter;" x="150.381818" xlink:href="#ma92011b5f0" y="171.470312"/>
     <use style="fill-opacity:0;stroke:#00d7ff;stroke-linejoin:miter;" x="190.963636" xlink:href="#ma92011b5f0" y="193.532805"/>
     <use style="fill-opacity:0;stroke:#00d7ff;stroke-linejoin:miter;" x="231.545455" xlink:href="#ma92011b5f0" y="189.581242"/>
     <use style="fill-opacity:0;stroke:#00d7ff;stroke-linejoin:miter;" x="272.127273" xlink:href="#ma92011b5f0" y="189.581242"/>
     <use style="fill-opacity:0;stroke:#00d7ff;stroke-linejoin:miter;" x="312.709091" xlink:href="#ma92011b5f0" y="189.581242"/>
     <use style="fill-opacity:0;stroke:#00d7ff;stroke-linejoin:miter;" x="353.290909" xlink:href="#ma92011b5f0" y="189.581242"/>
    </g>
   </g>
   <g id="patch_3">
    <path d="M 54 256.32 
L 54 34.56 
" style="fill:none;stroke:#000000;stroke-linecap:square;stroke-linejoin:miter;"/>
   </g>
   <g id="patch_4">
    <path d="M 388.8 256.32 
L 388.8 34.56 
" style="fill:none;stroke:#000000;stroke-linecap:square;stroke-linejoin:miter;"/>
   </g>
   <g id="patch_5">
    <path d="M 54 256.32 
L 388.8 256.32 
" style="fill:none;stroke:#000000;stroke-linecap:square;stroke-linejoin:miter;"/>
   </g>
   <g id="patch_6">
    <path d="M 54 34.56 
L 388.8 34.56 
" style="fill:none;stroke:#000000;stroke-linecap:square;stroke-linejoin:miter;"/>
   </g>
   <g id="legend_1">
    <g id="patch_7">
     <path d="M 308.544 102.7578 
L 383.52 102.7578 
L 383.52 39.84 
L 308.544 39.84 
z
" style="fill:#ffffff;opacity:0.8;stroke:#000000;stroke-linejoin:miter;stroke-width:0.8;"/>
    </g>
    <g id="line2d_63">
     <path d="M 312.768 47.92665 
L 333.888 47.92665 
" style="fill:none;stroke:#023eff;stroke-linecap:round;stroke-width:1.2;"/>
    </g>
    <g id="line2d_64">
     <g>
      <use style="fill-opacity:0;stroke:#023eff;" x="323.328" xlink:href="#m6c47a31e29" y="47.92665"/>
     </g>
    </g>
    <g id="text_13">
     <!-- LEVY -->
     <defs>
      <path d="M 7.328125 0 
L 7.328125 71.578125 
L 16.796875 71.578125 
L 16.796875 8.453125 
L 52.046875 8.453125 
L 52.046875 0 
z
" id="ArialMT-76"/>
      <path d="M 7.90625 0 
L 7.90625 71.578125 
L 59.671875 71.578125 
L 59.671875 63.140625 
L 17.390625 63.140625 
L 17.390625 41.21875 
L 56.984375 41.21875 
L 56.984375 32.8125 
L 17.390625 32.8125 
L 17.390625 8.453125 
L 61.328125 8.453125 
L 61.328125 0 
z
" id="ArialMT-69"/>
      <path d="M 28.171875 0 
L 0.4375 71.578125 
L 10.6875 71.578125 
L 29.296875 19.578125 
Q 31.546875 13.328125 33.0625 7.859375 
Q 34.71875 13.71875 36.921875 19.578125 
L 56.25 71.578125 
L 65.921875 71.578125 
L 37.890625 0 
z
" id="ArialMT-86"/>
      <path d="M 27.875 0 
L 27.875 30.328125 
L 0.296875 71.578125 
L 11.8125 71.578125 
L 25.921875 50 
Q 29.828125 43.953125 33.203125 37.890625 
Q 36.421875 43.5 41.015625 50.53125 
L 54.890625 71.578125 
L 65.921875 71.578125 
L 37.359375 30.328125 
L 37.359375 0 
z
" id="ArialMT-89"/>
     </defs>
     <g transform="translate(342.336 51.62265)scale(0.1056 -0.1056)">
      <use xlink:href="#ArialMT-76"/>
      <use x="55.615234" xlink:href="#ArialMT-69"/>
      <use x="122.314453" xlink:href="#ArialMT-86"/>
      <use x="189.013672" xlink:href="#ArialMT-89"/>
     </g>
    </g>
    <g id="line2d_65">
     <path d="M 312.768 62.8641 
L 333.888 62.8641 
" style="fill:none;stroke:#1ac938;stroke-linecap:round;stroke-width:1.2;"/>
    </g>
    <g id="line2d_66">
     <g>
      <use style="fill-opacity:0;stroke:#1ac938;stroke-linejoin:miter;" x="323.328" xlink:href="#mdc0a3ebf37" y="62.8641"/>
     </g>
    </g>
    <g id="text_14">
     <!-- UNIF -->
     <defs>
      <path d="M 54.6875 71.578125 
L 64.15625 71.578125 
L 64.15625 30.21875 
Q 64.15625 19.4375 61.71875 13.078125 
Q 59.28125 6.734375 52.90625 2.75 
Q 46.53125 -1.21875 36.1875 -1.21875 
Q 26.125 -1.21875 19.71875 2.25 
Q 13.328125 5.71875 10.59375 12.28125 
Q 7.859375 18.84375 7.859375 30.21875 
L 7.859375 71.578125 
L 17.328125 71.578125 
L 17.328125 30.28125 
Q 17.328125 20.953125 19.0625 16.53125 
Q 20.796875 12.109375 25.015625 9.71875 
Q 29.25 7.328125 35.359375 7.328125 
Q 45.796875 7.328125 50.234375 12.0625 
Q 54.6875 16.796875 54.6875 30.28125 
z
" id="ArialMT-85"/>
      <path d="M 7.625 0 
L 7.625 71.578125 
L 17.328125 71.578125 
L 54.9375 15.375 
L 54.9375 71.578125 
L 64.015625 71.578125 
L 64.015625 0 
L 54.296875 0 
L 16.703125 56.25 
L 16.703125 0 
z
" id="ArialMT-78"/>
      <path d="M 8.203125 0 
L 8.203125 71.578125 
L 56.5 71.578125 
L 56.5 63.140625 
L 17.671875 63.140625 
L 17.671875 40.96875 
L 51.265625 40.96875 
L 51.265625 32.515625 
L 17.671875 32.515625 
L 17.671875 0 
z
" id="ArialMT-70"/>
     </defs>
     <g transform="translate(342.336 66.5601)scale(0.1056 -0.1056)">
      <use xlink:href="#ArialMT-85"/>
      <use x="72.216797" xlink:href="#ArialMT-78"/>
      <use x="144.433594" xlink:href="#ArialMT-73"/>
      <use x="172.216797" xlink:href="#ArialMT-70"/>
     </g>
    </g>
    <g id="line2d_67">
     <path d="M 312.768 77.80155 
L 333.888 77.80155 
" style="fill:none;stroke:#e8000b;stroke-linecap:round;stroke-width:1.2;"/>
    </g>
    <g id="line2d_68">
     <g>
      <use style="fill-opacity:0;stroke:#e8000b;stroke-linejoin:miter;" x="323.328" xlink:href="#me76ef152d4" y="77.80155"/>
     </g>
    </g>
    <g id="text_15">
     <!-- NORM -->
     <defs>
      <path d="M 4.828125 34.859375 
Q 4.828125 52.6875 14.390625 62.765625 
Q 23.96875 72.859375 39.109375 72.859375 
Q 49.03125 72.859375 56.984375 68.109375 
Q 64.9375 63.375 69.109375 54.90625 
Q 73.296875 46.4375 73.296875 35.6875 
Q 73.296875 24.8125 68.890625 16.21875 
Q 64.5 7.625 56.4375 3.203125 
Q 48.390625 -1.21875 39.0625 -1.21875 
Q 28.953125 -1.21875 20.984375 3.65625 
Q 13.03125 8.546875 8.921875 16.984375 
Q 4.828125 25.4375 4.828125 34.859375 
z
M 14.59375 34.71875 
Q 14.59375 21.78125 21.546875 14.328125 
Q 28.515625 6.890625 39.015625 6.890625 
Q 49.703125 6.890625 56.609375 14.40625 
Q 63.53125 21.921875 63.53125 35.75 
Q 63.53125 44.484375 60.578125 51 
Q 57.625 57.515625 51.921875 61.109375 
Q 46.234375 64.703125 39.15625 64.703125 
Q 29.109375 64.703125 21.84375 57.78125 
Q 14.59375 50.875 14.59375 34.71875 
z
" id="ArialMT-79"/>
      <path d="M 7.859375 0 
L 7.859375 71.578125 
L 39.59375 71.578125 
Q 49.171875 71.578125 54.140625 69.640625 
Q 59.125 67.71875 62.109375 62.828125 
Q 65.09375 57.953125 65.09375 52.046875 
Q 65.09375 44.4375 60.15625 39.203125 
Q 55.21875 33.984375 44.921875 32.5625 
Q 48.6875 30.765625 50.640625 29 
Q 54.78125 25.203125 58.5 19.484375 
L 70.953125 0 
L 59.03125 0 
L 49.5625 14.890625 
Q 45.40625 21.34375 42.71875 24.75 
Q 40.046875 28.171875 37.921875 29.53125 
Q 35.796875 30.90625 33.59375 31.453125 
Q 31.984375 31.78125 28.328125 31.78125 
L 17.328125 31.78125 
L 17.328125 0 
z
M 17.328125 39.984375 
L 37.703125 39.984375 
Q 44.1875 39.984375 47.84375 41.328125 
Q 51.515625 42.671875 53.421875 45.625 
Q 55.328125 48.578125 55.328125 52.046875 
Q 55.328125 57.125 51.640625 60.390625 
Q 47.953125 63.671875 39.984375 63.671875 
L 17.328125 63.671875 
z
" id="ArialMT-82"/>
      <path d="M 7.421875 0 
L 7.421875 71.578125 
L 21.6875 71.578125 
L 38.625 20.90625 
Q 40.96875 13.8125 42.046875 10.296875 
Q 43.265625 14.203125 45.84375 21.78125 
L 62.984375 71.578125 
L 75.734375 71.578125 
L 75.734375 0 
L 66.609375 0 
L 66.609375 59.90625 
L 45.796875 0 
L 37.25 0 
L 16.546875 60.9375 
L 16.546875 0 
z
" id="ArialMT-77"/>
     </defs>
     <g transform="translate(342.336 81.49755)scale(0.1056 -0.1056)">
      <use xlink:href="#ArialMT-78"/>
      <use x="72.216797" xlink:href="#ArialMT-79"/>
      <use x="150" xlink:href="#ArialMT-82"/>
      <use x="222.216797" xlink:href="#ArialMT-77"/>
     </g>
    </g>
    <g id="line2d_69">
     <path d="M 312.768 92.739 
L 333.888 92.739 
" style="fill:none;stroke:#00d7ff;stroke-linecap:round;stroke-width:1.2;"/>
    </g>
    <g id="line2d_70">
     <g>
      <use style="fill-opacity:0;stroke:#00d7ff;stroke-linejoin:miter;" x="323.328" xlink:href="#ma92011b5f0" y="92.739"/>
     </g>
    </g>
    <g id="text_16">
     <!-- CONST -->
     <defs>
      <path d="M 58.796875 25.09375 
L 68.265625 22.703125 
Q 65.28125 11.03125 57.546875 4.90625 
Q 49.8125 -1.21875 38.625 -1.21875 
Q 27.046875 -1.21875 19.796875 3.484375 
Q 12.546875 8.203125 8.765625 17.140625 
Q 4.984375 26.078125 4.984375 36.328125 
Q 4.984375 47.515625 9.25 55.828125 
Q 13.53125 64.15625 21.40625 68.46875 
Q 29.296875 72.796875 38.765625 72.796875 
Q 49.515625 72.796875 56.828125 67.328125 
Q 64.15625 61.859375 67.046875 51.953125 
L 57.71875 49.75 
Q 55.21875 57.5625 50.484375 61.125 
Q 45.75 64.703125 38.578125 64.703125 
Q 30.328125 64.703125 24.78125 60.734375 
Q 19.234375 56.78125 16.984375 50.109375 
Q 14.75 43.453125 14.75 36.375 
Q 14.75 27.25 17.40625 20.4375 
Q 20.0625 13.625 25.671875 10.25 
Q 31.296875 6.890625 37.84375 6.890625 
Q 45.796875 6.890625 51.3125 11.46875 
Q 56.84375 16.0625 58.796875 25.09375 
z
" id="ArialMT-67"/>
      <path d="M 4.5 23 
L 13.421875 23.78125 
Q 14.0625 18.40625 16.375 14.96875 
Q 18.703125 11.53125 23.578125 9.40625 
Q 28.46875 7.28125 34.578125 7.28125 
Q 39.984375 7.28125 44.140625 8.890625 
Q 48.296875 10.5 50.3125 13.296875 
Q 52.34375 16.109375 52.34375 19.4375 
Q 52.34375 22.796875 50.390625 25.3125 
Q 48.4375 27.828125 43.953125 29.546875 
Q 41.0625 30.671875 31.203125 33.03125 
Q 21.34375 35.40625 17.390625 37.5 
Q 12.25 40.1875 9.734375 44.15625 
Q 7.234375 48.140625 7.234375 53.078125 
Q 7.234375 58.5 10.296875 63.203125 
Q 13.375 67.921875 19.28125 70.359375 
Q 25.203125 72.796875 32.421875 72.796875 
Q 40.375 72.796875 46.453125 70.234375 
Q 52.546875 67.671875 55.8125 62.6875 
Q 59.078125 57.71875 59.328125 51.421875 
L 50.25 50.734375 
Q 49.515625 57.515625 45.28125 60.984375 
Q 41.0625 64.453125 32.8125 64.453125 
Q 24.21875 64.453125 20.28125 61.296875 
Q 16.359375 58.15625 16.359375 53.71875 
Q 16.359375 49.859375 19.140625 47.359375 
Q 21.875 44.875 33.421875 42.265625 
Q 44.96875 39.65625 49.265625 37.703125 
Q 55.515625 34.8125 58.484375 30.390625 
Q 61.46875 25.984375 61.46875 20.21875 
Q 61.46875 14.5 58.203125 9.4375 
Q 54.9375 4.390625 48.796875 1.578125 
Q 42.671875 -1.21875 35.015625 -1.21875 
Q 25.296875 -1.21875 18.71875 1.609375 
Q 12.15625 4.4375 8.421875 10.125 
Q 4.6875 15.828125 4.5 23 
z
" id="ArialMT-83"/>
      <path d="M 25.921875 0 
L 25.921875 63.140625 
L 2.34375 63.140625 
L 2.34375 71.578125 
L 59.078125 71.578125 
L 59.078125 63.140625 
L 35.40625 63.140625 
L 35.40625 0 
z
" id="ArialMT-84"/>
     </defs>
     <g transform="translate(342.336 96.435)scale(0.1056 -0.1056)">
      <use xlink:href="#ArialMT-67"/>
      <use x="72.216797" xlink:href="#ArialMT-79"/>
      <use x="150" xlink:href="#ArialMT-78"/>
      <use x="222.216797" xlink:href="#ArialMT-83"/>
      <use x="288.916016" xlink:href="#ArialMT-84"/>
     </g>
    </g>
   </g>
  </g>
 </g>
 <defs>
  <clipPath id="pc751aed4f2">
   <rect height="221.76" width="334.8" x="54" y="34.56"/>
  </clipPath>
 </defs>
</svg>
