<?xml version="1.0" encoding="utf-8" standalone="no"?>
<!DOCTYPE svg PUBLIC "-//W3C//DTD SVG 1.1//EN"
  "http://www.w3.org/Graphics/SVG/1.1/DTD/svg11.dtd">
<!-- Created with matplotlib (https://matplotlib.org/) -->
<svg height="288pt" version="1.1" viewBox="0 0 432 288" width="432pt" xmlns="http://www.w3.org/2000/svg" xmlns:xlink="http://www.w3.org/1999/xlink">
 <defs>
  <style type="text/css">
*{stroke-linecap:butt;stroke-linejoin:round;}
  </style>
 </defs>
 <g id="figure_1">
  <g id="patch_1">
   <path d="M 0 288 
L 432 288 
L 432 0 
L 0 0 
z
" style="fill:#ffffff;"/>
  </g>
  <g id="axes_1">
   <g id="patch_2">
    <path d="M 54 256.32 
L 388.8 256.32 
L 388.8 34.56 
L 54 34.56 
z
" style="fill:#ffffff;"/>
   </g>
   <g id="matplotlib.axis_1">
    <g id="xtick_1">
     <g id="line2d_1">
      <defs>
       <path d="M 0 0 
L 0 -3 
" id="mb40f80c4c6" style="stroke:#000000;"/>
      </defs>
      <g>
       <use style="stroke:#000000;" x="69.218182" xlink:href="#mb40f80c4c6" y="256.32"/>
      </g>
     </g>
     <g id="line2d_2">
      <defs>
       <path d="M 0 0 
L 0 3 
" id="m761a6ca4f6" style="stroke:#000000;"/>
      </defs>
      <g>
       <use style="stroke:#000000;" x="69.218182" xlink:href="#m761a6ca4f6" y="34.56"/>
      </g>
     </g>
     <g id="text_1">
      <!-- 0 -->
      <defs>
       <path d="M 4.15625 35.296875 
Q 4.15625 48 6.765625 55.734375 
Q 9.375 63.484375 14.515625 67.671875 
Q 19.671875 71.875 27.484375 71.875 
Q 33.25 71.875 37.59375 69.546875 
Q 41.9375 67.234375 44.765625 62.859375 
Q 47.609375 58.5 49.21875 52.21875 
Q 50.828125 45.953125 50.828125 35.296875 
Q 50.828125 22.703125 48.234375 14.96875 
Q 45.65625 7.234375 40.5 3 
Q 35.359375 -1.21875 27.484375 -1.21875 
Q 17.140625 -1.21875 11.234375 6.203125 
Q 4.15625 15.140625 4.15625 35.296875 
z
M 13.1875 35.296875 
Q 13.1875 17.671875 17.3125 11.828125 
Q 21.4375 6 27.484375 6 
Q 33.546875 6 37.671875 11.859375 
Q 41.796875 17.71875 41.796875 35.296875 
Q 41.796875 52.984375 37.671875 58.78125 
Q 33.546875 64.59375 27.390625 64.59375 
Q 21.34375 64.59375 17.71875 59.46875 
Q 13.1875 52.9375 13.1875 35.296875 
z
" id="ArialMT-48"/>
      </defs>
      <g transform="translate(66.282007 267.37865)scale(0.1056 -0.1056)">
       <use xlink:href="#ArialMT-48"/>
      </g>
     </g>
    </g>
    <g id="xtick_2">
     <g id="line2d_3">
      <g>
       <use style="stroke:#000000;" x="109.8" xlink:href="#mb40f80c4c6" y="256.32"/>
      </g>
     </g>
     <g id="line2d_4">
      <g>
       <use style="stroke:#000000;" x="109.8" xlink:href="#m761a6ca4f6" y="34.56"/>
      </g>
     </g>
     <g id="text_2">
      <!-- 200 -->
      <defs>
       <path d="M 50.34375 8.453125 
L 50.34375 0 
L 3.03125 0 
Q 2.9375 3.171875 4.046875 6.109375 
Q 5.859375 10.9375 9.828125 15.625 
Q 13.8125 20.3125 21.34375 26.46875 
Q 33.015625 36.03125 37.109375 41.625 
Q 41.21875 47.21875 41.21875 52.203125 
Q 41.21875 57.421875 37.46875 61 
Q 33.734375 64.59375 27.734375 64.59375 
Q 21.390625 64.59375 17.578125 60.78125 
Q 13.765625 56.984375 13.71875 50.25 
L 4.6875 51.171875 
Q 5.609375 61.28125 11.65625 66.578125 
Q 17.71875 71.875 27.9375 71.875 
Q 38.234375 71.875 44.234375 66.15625 
Q 50.25 60.453125 50.25 52 
Q 50.25 47.703125 48.484375 43.546875 
Q 46.734375 39.40625 42.65625 34.8125 
Q 38.578125 30.21875 29.109375 22.21875 
Q 21.1875 15.578125 18.9375 13.203125 
Q 16.703125 10.84375 15.234375 8.453125 
z
" id="ArialMT-50"/>
      </defs>
      <g transform="translate(100.991475 267.37865)scale(0.1056 -0.1056)">
       <use xlink:href="#ArialMT-50"/>
       <use x="55.615234" xlink:href="#ArialMT-48"/>
       <use x="111.230469" xlink:href="#ArialMT-48"/>
      </g>
     </g>
    </g>
    <g id="xtick_3">
     <g id="line2d_5">
      <g>
       <use style="stroke:#000000;" x="150.381818" xlink:href="#mb40f80c4c6" y="256.32"/>
      </g>
     </g>
     <g id="line2d_6">
      <g>
       <use style="stroke:#000000;" x="150.381818" xlink:href="#m761a6ca4f6" y="34.56"/>
      </g>
     </g>
     <g id="text_3">
      <!-- 400 -->
      <defs>
       <path d="M 32.328125 0 
L 32.328125 17.140625 
L 1.265625 17.140625 
L 1.265625 25.203125 
L 33.9375 71.578125 
L 41.109375 71.578125 
L 41.109375 25.203125 
L 50.78125 25.203125 
L 50.78125 17.140625 
L 41.109375 17.140625 
L 41.109375 0 
z
M 32.328125 25.203125 
L 32.328125 57.46875 
L 9.90625 25.203125 
z
" id="ArialMT-52"/>
      </defs>
      <g transform="translate(141.573293 267.37865)scale(0.1056 -0.1056)">
       <use xlink:href="#ArialMT-52"/>
       <use x="55.615234" xlink:href="#ArialMT-48"/>
       <use x="111.230469" xlink:href="#ArialMT-48"/>
      </g>
     </g>
    </g>
    <g id="xtick_4">
     <g id="line2d_7">
      <g>
       <use style="stroke:#000000;" x="190.963636" xlink:href="#mb40f80c4c6" y="256.32"/>
      </g>
     </g>
     <g id="line2d_8">
      <g>
       <use style="stroke:#000000;" x="190.963636" xlink:href="#m761a6ca4f6" y="34.56"/>
      </g>
     </g>
     <g id="text_4">
      <!-- 600 -->
      <defs>
       <path d="M 49.75 54.046875 
L 41.015625 53.375 
Q 39.84375 58.546875 37.703125 60.890625 
Q 34.125 64.65625 28.90625 64.65625 
Q 24.703125 64.65625 21.53125 62.3125 
Q 17.390625 59.28125 14.984375 53.46875 
Q 12.59375 47.65625 12.5 36.921875 
Q 15.671875 41.75 20.265625 44.09375 
Q 24.859375 46.4375 29.890625 46.4375 
Q 38.671875 46.4375 44.84375 39.96875 
Q 51.03125 33.5 51.03125 23.25 
Q 51.03125 16.5 48.125 10.71875 
Q 45.21875 4.9375 40.140625 1.859375 
Q 35.0625 -1.21875 28.609375 -1.21875 
Q 17.625 -1.21875 10.6875 6.859375 
Q 3.765625 14.9375 3.765625 33.5 
Q 3.765625 54.25 11.421875 63.671875 
Q 18.109375 71.875 29.4375 71.875 
Q 37.890625 71.875 43.28125 67.140625 
Q 48.6875 62.40625 49.75 54.046875 
z
M 13.875 23.1875 
Q 13.875 18.65625 15.796875 14.5 
Q 17.71875 10.359375 21.1875 8.171875 
Q 24.65625 6 28.46875 6 
Q 34.03125 6 38.03125 10.484375 
Q 42.046875 14.984375 42.046875 22.703125 
Q 42.046875 30.125 38.078125 34.390625 
Q 34.125 38.671875 28.125 38.671875 
Q 22.171875 38.671875 18.015625 34.390625 
Q 13.875 30.125 13.875 23.1875 
z
" id="ArialMT-54"/>
      </defs>
      <g transform="translate(182.155111 267.37865)scale(0.1056 -0.1056)">
       <use xlink:href="#ArialMT-54"/>
       <use x="55.615234" xlink:href="#ArialMT-48"/>
       <use x="111.230469" xlink:href="#ArialMT-48"/>
      </g>
     </g>
    </g>
    <g id="xtick_5">
     <g id="line2d_9">
      <g>
       <use style="stroke:#000000;" x="231.545455" xlink:href="#mb40f80c4c6" y="256.32"/>
      </g>
     </g>
     <g id="line2d_10">
      <g>
       <use style="stroke:#000000;" x="231.545455" xlink:href="#m761a6ca4f6" y="34.56"/>
      </g>
     </g>
     <g id="text_5">
      <!-- 800 -->
      <defs>
       <path d="M 17.671875 38.8125 
Q 12.203125 40.828125 9.5625 44.53125 
Q 6.9375 48.25 6.9375 53.421875 
Q 6.9375 61.234375 12.546875 66.546875 
Q 18.171875 71.875 27.484375 71.875 
Q 36.859375 71.875 42.578125 66.421875 
Q 48.296875 60.984375 48.296875 53.171875 
Q 48.296875 48.1875 45.671875 44.5 
Q 43.0625 40.828125 37.75 38.8125 
Q 44.34375 36.671875 47.78125 31.875 
Q 51.21875 27.09375 51.21875 20.453125 
Q 51.21875 11.28125 44.71875 5.03125 
Q 38.234375 -1.21875 27.640625 -1.21875 
Q 17.046875 -1.21875 10.546875 5.046875 
Q 4.046875 11.328125 4.046875 20.703125 
Q 4.046875 27.6875 7.59375 32.390625 
Q 11.140625 37.109375 17.671875 38.8125 
z
M 15.921875 53.71875 
Q 15.921875 48.640625 19.1875 45.40625 
Q 22.46875 42.1875 27.6875 42.1875 
Q 32.765625 42.1875 36.015625 45.375 
Q 39.265625 48.578125 39.265625 53.21875 
Q 39.265625 58.0625 35.90625 61.359375 
Q 32.5625 64.65625 27.59375 64.65625 
Q 22.5625 64.65625 19.234375 61.421875 
Q 15.921875 58.203125 15.921875 53.71875 
z
M 13.09375 20.65625 
Q 13.09375 16.890625 14.875 13.375 
Q 16.65625 9.859375 20.171875 7.921875 
Q 23.6875 6 27.734375 6 
Q 34.03125 6 38.125 10.046875 
Q 42.234375 14.109375 42.234375 20.359375 
Q 42.234375 26.703125 38.015625 30.859375 
Q 33.796875 35.015625 27.4375 35.015625 
Q 21.234375 35.015625 17.15625 30.90625 
Q 13.09375 26.8125 13.09375 20.65625 
z
" id="ArialMT-56"/>
      </defs>
      <g transform="translate(222.73693 267.37865)scale(0.1056 -0.1056)">
       <use xlink:href="#ArialMT-56"/>
       <use x="55.615234" xlink:href="#ArialMT-48"/>
       <use x="111.230469" xlink:href="#ArialMT-48"/>
      </g>
     </g>
    </g>
    <g id="xtick_6">
     <g id="line2d_11">
      <g>
       <use style="stroke:#000000;" x="272.127273" xlink:href="#mb40f80c4c6" y="256.32"/>
      </g>
     </g>
     <g id="line2d_12">
      <g>
       <use style="stroke:#000000;" x="272.127273" xlink:href="#m761a6ca4f6" y="34.56"/>
      </g>
     </g>
     <g id="text_6">
      <!-- 1000 -->
      <defs>
       <path d="M 37.25 0 
L 28.46875 0 
L 28.46875 56 
Q 25.296875 52.984375 20.140625 49.953125 
Q 14.984375 46.921875 10.890625 45.40625 
L 10.890625 53.90625 
Q 18.265625 57.375 23.78125 62.296875 
Q 29.296875 67.234375 31.59375 71.875 
L 37.25 71.875 
z
" id="ArialMT-49"/>
      </defs>
      <g transform="translate(260.382573 267.37865)scale(0.1056 -0.1056)">
       <use xlink:href="#ArialMT-49"/>
       <use x="55.615234" xlink:href="#ArialMT-48"/>
       <use x="111.230469" xlink:href="#ArialMT-48"/>
       <use x="166.845703" xlink:href="#ArialMT-48"/>
      </g>
     </g>
    </g>
    <g id="xtick_7">
     <g id="line2d_13">
      <g>
       <use style="stroke:#000000;" x="312.709091" xlink:href="#mb40f80c4c6" y="256.32"/>
      </g>
     </g>
     <g id="line2d_14">
      <g>
       <use style="stroke:#000000;" x="312.709091" xlink:href="#m761a6ca4f6" y="34.56"/>
      </g>
     </g>
     <g id="text_7">
      <!-- 1200 -->
      <g transform="translate(300.964391 267.37865)scale(0.1056 -0.1056)">
       <use xlink:href="#ArialMT-49"/>
       <use x="55.615234" xlink:href="#ArialMT-50"/>
       <use x="111.230469" xlink:href="#ArialMT-48"/>
       <use x="166.845703" xlink:href="#ArialMT-48"/>
      </g>
     </g>
    </g>
    <g id="xtick_8">
     <g id="line2d_15">
      <g>
       <use style="stroke:#000000;" x="353.290909" xlink:href="#mb40f80c4c6" y="256.32"/>
      </g>
     </g>
     <g id="line2d_16">
      <g>
       <use style="stroke:#000000;" x="353.290909" xlink:href="#m761a6ca4f6" y="34.56"/>
      </g>
     </g>
     <g id="text_8">
      <!-- 1400 -->
      <g transform="translate(341.546209 267.37865)scale(0.1056 -0.1056)">
       <use xlink:href="#ArialMT-49"/>
       <use x="55.615234" xlink:href="#ArialMT-52"/>
       <use x="111.230469" xlink:href="#ArialMT-48"/>
       <use x="166.845703" xlink:href="#ArialMT-48"/>
      </g>
     </g>
    </g>
    <g id="text_9">
     <!-- Generations -->
     <defs>
      <path d="M 41.21875 28.078125 
L 41.21875 36.46875 
L 71.53125 36.53125 
L 71.53125 9.96875 
Q 64.546875 4.390625 57.125 1.578125 
Q 49.703125 -1.21875 41.890625 -1.21875 
Q 31.34375 -1.21875 22.71875 3.296875 
Q 14.109375 7.8125 9.71875 16.359375 
Q 5.328125 24.90625 5.328125 35.453125 
Q 5.328125 45.90625 9.6875 54.953125 
Q 14.0625 64.015625 22.265625 68.40625 
Q 30.46875 72.796875 41.15625 72.796875 
Q 48.921875 72.796875 55.1875 70.28125 
Q 61.46875 67.78125 65.03125 63.28125 
Q 68.609375 58.796875 70.453125 51.5625 
L 61.921875 49.21875 
Q 60.296875 54.6875 57.90625 57.8125 
Q 55.515625 60.9375 51.0625 62.8125 
Q 46.625 64.703125 41.21875 64.703125 
Q 34.71875 64.703125 29.984375 62.71875 
Q 25.25 60.75 22.34375 57.515625 
Q 19.4375 54.296875 17.828125 50.4375 
Q 15.09375 43.796875 15.09375 36.03125 
Q 15.09375 26.46875 18.390625 20.015625 
Q 21.6875 13.578125 27.984375 10.453125 
Q 34.28125 7.328125 41.359375 7.328125 
Q 47.515625 7.328125 53.375 9.6875 
Q 59.234375 12.0625 62.25 14.75 
L 62.25 28.078125 
z
" id="ArialMT-71"/>
      <path d="M 42.09375 16.703125 
L 51.171875 15.578125 
Q 49.03125 7.625 43.21875 3.21875 
Q 37.40625 -1.171875 28.375 -1.171875 
Q 17 -1.171875 10.328125 5.828125 
Q 3.65625 12.84375 3.65625 25.484375 
Q 3.65625 38.578125 10.390625 45.796875 
Q 17.140625 53.03125 27.875 53.03125 
Q 38.28125 53.03125 44.875 45.953125 
Q 51.46875 38.875 51.46875 26.03125 
Q 51.46875 25.25 51.421875 23.6875 
L 12.75 23.6875 
Q 13.234375 15.140625 17.578125 10.59375 
Q 21.921875 6.0625 28.421875 6.0625 
Q 33.25 6.0625 36.671875 8.59375 
Q 40.09375 11.140625 42.09375 16.703125 
z
M 13.234375 30.90625 
L 42.1875 30.90625 
Q 41.609375 37.453125 38.875 40.71875 
Q 34.671875 45.796875 27.984375 45.796875 
Q 21.921875 45.796875 17.796875 41.75 
Q 13.671875 37.703125 13.234375 30.90625 
z
" id="ArialMT-101"/>
      <path d="M 6.59375 0 
L 6.59375 51.859375 
L 14.5 51.859375 
L 14.5 44.484375 
Q 20.21875 53.03125 31 53.03125 
Q 35.6875 53.03125 39.625 51.34375 
Q 43.5625 49.65625 45.515625 46.921875 
Q 47.46875 44.1875 48.25 40.4375 
Q 48.734375 37.984375 48.734375 31.890625 
L 48.734375 0 
L 39.9375 0 
L 39.9375 31.546875 
Q 39.9375 36.921875 38.90625 39.578125 
Q 37.890625 42.234375 35.28125 43.8125 
Q 32.671875 45.40625 29.15625 45.40625 
Q 23.53125 45.40625 19.453125 41.84375 
Q 15.375 38.28125 15.375 28.328125 
L 15.375 0 
z
" id="ArialMT-110"/>
      <path d="M 6.5 0 
L 6.5 51.859375 
L 14.40625 51.859375 
L 14.40625 44 
Q 17.4375 49.515625 20 51.265625 
Q 22.5625 53.03125 25.640625 53.03125 
Q 30.078125 53.03125 34.671875 50.203125 
L 31.640625 42.046875 
Q 28.421875 43.953125 25.203125 43.953125 
Q 22.3125 43.953125 20.015625 42.21875 
Q 17.71875 40.484375 16.75 37.40625 
Q 15.28125 32.71875 15.28125 27.15625 
L 15.28125 0 
z
" id="ArialMT-114"/>
      <path d="M 40.4375 6.390625 
Q 35.546875 2.25 31.03125 0.53125 
Q 26.515625 -1.171875 21.34375 -1.171875 
Q 12.796875 -1.171875 8.203125 3 
Q 3.609375 7.171875 3.609375 13.671875 
Q 3.609375 17.484375 5.34375 20.625 
Q 7.078125 23.78125 9.890625 25.6875 
Q 12.703125 27.59375 16.21875 28.5625 
Q 18.796875 29.25 24.03125 29.890625 
Q 34.671875 31.15625 39.703125 32.90625 
Q 39.75 34.71875 39.75 35.203125 
Q 39.75 40.578125 37.25 42.78125 
Q 33.890625 45.75 27.25 45.75 
Q 21.046875 45.75 18.09375 43.578125 
Q 15.140625 41.40625 13.71875 35.890625 
L 5.125 37.0625 
Q 6.296875 42.578125 8.984375 45.96875 
Q 11.671875 49.359375 16.75 51.1875 
Q 21.828125 53.03125 28.515625 53.03125 
Q 35.15625 53.03125 39.296875 51.46875 
Q 43.453125 49.90625 45.40625 47.53125 
Q 47.359375 45.171875 48.140625 41.546875 
Q 48.578125 39.3125 48.578125 33.453125 
L 48.578125 21.734375 
Q 48.578125 9.46875 49.140625 6.21875 
Q 49.703125 2.984375 51.375 0 
L 42.1875 0 
Q 40.828125 2.734375 40.4375 6.390625 
z
M 39.703125 26.03125 
Q 34.90625 24.078125 25.34375 22.703125 
Q 19.921875 21.921875 17.671875 20.9375 
Q 15.4375 19.96875 14.203125 18.09375 
Q 12.984375 16.21875 12.984375 13.921875 
Q 12.984375 10.40625 15.640625 8.0625 
Q 18.3125 5.71875 23.4375 5.71875 
Q 28.515625 5.71875 32.46875 7.9375 
Q 36.421875 10.15625 38.28125 14.015625 
Q 39.703125 17 39.703125 22.796875 
z
" id="ArialMT-97"/>
      <path d="M 25.78125 7.859375 
L 27.046875 0.09375 
Q 23.34375 -0.6875 20.40625 -0.6875 
Q 15.625 -0.6875 12.984375 0.828125 
Q 10.359375 2.34375 9.28125 4.8125 
Q 8.203125 7.28125 8.203125 15.1875 
L 8.203125 45.015625 
L 1.765625 45.015625 
L 1.765625 51.859375 
L 8.203125 51.859375 
L 8.203125 64.703125 
L 16.9375 69.96875 
L 16.9375 51.859375 
L 25.78125 51.859375 
L 25.78125 45.015625 
L 16.9375 45.015625 
L 16.9375 14.703125 
Q 16.9375 10.9375 17.40625 9.859375 
Q 17.875 8.796875 18.921875 8.15625 
Q 19.96875 7.515625 21.921875 7.515625 
Q 23.390625 7.515625 25.78125 7.859375 
z
" id="ArialMT-116"/>
      <path d="M 6.640625 61.46875 
L 6.640625 71.578125 
L 15.4375 71.578125 
L 15.4375 61.46875 
z
M 6.640625 0 
L 6.640625 51.859375 
L 15.4375 51.859375 
L 15.4375 0 
z
" id="ArialMT-105"/>
      <path d="M 3.328125 25.921875 
Q 3.328125 40.328125 11.328125 47.265625 
Q 18.015625 53.03125 27.640625 53.03125 
Q 38.328125 53.03125 45.109375 46.015625 
Q 51.90625 39.015625 51.90625 26.65625 
Q 51.90625 16.65625 48.90625 10.90625 
Q 45.90625 5.171875 40.15625 2 
Q 34.421875 -1.171875 27.640625 -1.171875 
Q 16.75 -1.171875 10.03125 5.8125 
Q 3.328125 12.796875 3.328125 25.921875 
z
M 12.359375 25.921875 
Q 12.359375 15.96875 16.703125 11.015625 
Q 21.046875 6.0625 27.640625 6.0625 
Q 34.1875 6.0625 38.53125 11.03125 
Q 42.875 16.015625 42.875 26.21875 
Q 42.875 35.84375 38.5 40.796875 
Q 34.125 45.75 27.640625 45.75 
Q 21.046875 45.75 16.703125 40.8125 
Q 12.359375 35.890625 12.359375 25.921875 
z
" id="ArialMT-111"/>
      <path d="M 3.078125 15.484375 
L 11.765625 16.84375 
Q 12.5 11.625 15.84375 8.84375 
Q 19.1875 6.0625 25.203125 6.0625 
Q 31.25 6.0625 34.171875 8.515625 
Q 37.109375 10.984375 37.109375 14.3125 
Q 37.109375 17.28125 34.515625 19 
Q 32.71875 20.171875 25.53125 21.96875 
Q 15.875 24.421875 12.140625 26.203125 
Q 8.40625 27.984375 6.46875 31.125 
Q 4.546875 34.28125 4.546875 38.09375 
Q 4.546875 41.546875 6.125 44.5 
Q 7.71875 47.46875 10.453125 49.421875 
Q 12.5 50.921875 16.03125 51.96875 
Q 19.578125 53.03125 23.640625 53.03125 
Q 29.734375 53.03125 34.34375 51.265625 
Q 38.96875 49.515625 41.15625 46.5 
Q 43.359375 43.5 44.1875 38.484375 
L 35.59375 37.3125 
Q 35.015625 41.3125 32.203125 43.546875 
Q 29.390625 45.796875 24.265625 45.796875 
Q 18.21875 45.796875 15.625 43.796875 
Q 13.03125 41.796875 13.03125 39.109375 
Q 13.03125 37.40625 14.109375 36.03125 
Q 15.1875 34.625 17.484375 33.6875 
Q 18.796875 33.203125 25.25 31.453125 
Q 34.578125 28.953125 38.25 27.359375 
Q 41.9375 25.78125 44.03125 22.75 
Q 46.140625 19.734375 46.140625 15.234375 
Q 46.140625 10.84375 43.578125 6.953125 
Q 41.015625 3.078125 36.171875 0.953125 
Q 31.34375 -1.171875 25.25 -1.171875 
Q 15.140625 -1.171875 9.84375 3.03125 
Q 4.546875 7.234375 3.078125 15.484375 
z
" id="ArialMT-115"/>
     </defs>
     <g transform="translate(190.0233 281.72325)scale(0.1152 -0.1152)">
      <use xlink:href="#ArialMT-71"/>
      <use x="77.783203" xlink:href="#ArialMT-101"/>
      <use x="133.398438" xlink:href="#ArialMT-110"/>
      <use x="189.013672" xlink:href="#ArialMT-101"/>
      <use x="244.628906" xlink:href="#ArialMT-114"/>
      <use x="277.929688" xlink:href="#ArialMT-97"/>
      <use x="333.544922" xlink:href="#ArialMT-116"/>
      <use x="361.328125" xlink:href="#ArialMT-105"/>
      <use x="383.544922" xlink:href="#ArialMT-111"/>
      <use x="439.160156" xlink:href="#ArialMT-110"/>
      <use x="494.775391" xlink:href="#ArialMT-115"/>
     </g>
    </g>
   </g>
   <g id="matplotlib.axis_2">
    <g id="ytick_1">
     <g id="line2d_17">
      <defs>
       <path d="M 0 0 
L 3 0 
" id="m733f349576" style="stroke:#000000;"/>
      </defs>
      <g>
       <use style="stroke:#000000;" x="54" xlink:href="#m733f349576" y="193.254862"/>
      </g>
     </g>
     <g id="line2d_18">
      <defs>
       <path d="M 0 0 
L -3 0 
" id="me0cdc6015d" style="stroke:#000000;"/>
      </defs>
      <g>
       <use style="stroke:#000000;" x="388.8" xlink:href="#me0cdc6015d" y="193.254862"/>
      </g>
     </g>
     <g id="text_10">
      <!-- $\mathdefault{10^{-4}}$ -->
      <defs>
       <path d="M 52.828125 31.203125 
L 5.5625 31.203125 
L 5.5625 39.40625 
L 52.828125 39.40625 
z
" id="ArialMT-8722"/>
      </defs>
      <g transform="translate(29.5912 198.647062)scale(0.1056 -0.1056)">
       <use transform="translate(0 0.201563)" xlink:href="#ArialMT-49"/>
       <use transform="translate(55.615234 0.201563)" xlink:href="#ArialMT-48"/>
       <use transform="translate(112.972813 69.895313)scale(0.7)" xlink:href="#ArialMT-8722"/>
       <use transform="translate(153.851719 69.895313)scale(0.7)" xlink:href="#ArialMT-52"/>
      </g>
     </g>
    </g>
    <g id="ytick_2">
     <g id="line2d_19">
      <g>
       <use style="stroke:#000000;" x="54" xlink:href="#m733f349576" y="88.598742"/>
      </g>
     </g>
     <g id="line2d_20">
      <g>
       <use style="stroke:#000000;" x="388.8" xlink:href="#me0cdc6015d" y="88.598742"/>
      </g>
     </g>
     <g id="text_11">
      <!-- $\mathdefault{10^{-3}}$ -->
      <defs>
       <path d="M 4.203125 18.890625 
L 12.984375 20.0625 
Q 14.5 12.59375 18.140625 9.296875 
Q 21.78125 6 27 6 
Q 33.203125 6 37.46875 10.296875 
Q 41.75 14.59375 41.75 20.953125 
Q 41.75 27 37.796875 30.921875 
Q 33.84375 34.859375 27.734375 34.859375 
Q 25.25 34.859375 21.53125 33.890625 
L 22.515625 41.609375 
Q 23.390625 41.5 23.921875 41.5 
Q 29.546875 41.5 34.03125 44.421875 
Q 38.53125 47.359375 38.53125 53.46875 
Q 38.53125 58.296875 35.25 61.46875 
Q 31.984375 64.65625 26.8125 64.65625 
Q 21.6875 64.65625 18.265625 61.421875 
Q 14.84375 58.203125 13.875 51.765625 
L 5.078125 53.328125 
Q 6.6875 62.15625 12.390625 67.015625 
Q 18.109375 71.875 26.609375 71.875 
Q 32.46875 71.875 37.390625 69.359375 
Q 42.328125 66.84375 44.9375 62.5 
Q 47.5625 58.15625 47.5625 53.265625 
Q 47.5625 48.640625 45.0625 44.828125 
Q 42.578125 41.015625 37.703125 38.765625 
Q 44.046875 37.3125 47.5625 32.6875 
Q 51.078125 28.078125 51.078125 21.140625 
Q 51.078125 11.765625 44.234375 5.25 
Q 37.40625 -1.265625 26.953125 -1.265625 
Q 17.53125 -1.265625 11.296875 4.34375 
Q 5.078125 9.96875 4.203125 18.890625 
z
" id="ArialMT-51"/>
      </defs>
      <g transform="translate(29.5912 94.043742)scale(0.1056 -0.1056)">
       <use transform="translate(0 0.99375)" xlink:href="#ArialMT-49"/>
       <use transform="translate(55.615234 0.99375)" xlink:href="#ArialMT-48"/>
       <use transform="translate(112.972813 70.6875)scale(0.7)" xlink:href="#ArialMT-8722"/>
       <use transform="translate(153.851719 70.6875)scale(0.7)" xlink:href="#ArialMT-51"/>
      </g>
     </g>
    </g>
    <g id="ytick_3">
     <g id="line2d_21">
      <defs>
       <path d="M 0 0 
L 3.2 0 
" id="md0c1760aa9" style="stroke:#000000;stroke-width:0.8;"/>
      </defs>
      <g>
       <use style="stroke:#000000;stroke-width:0.8;" x="54" xlink:href="#md0c1760aa9" y="247.977322"/>
      </g>
     </g>
     <g id="line2d_22">
      <defs>
       <path d="M 0 0 
L -3.2 0 
" id="m2dbbe13c9c" style="stroke:#000000;stroke-width:0.8;"/>
      </defs>
      <g>
       <use style="stroke:#000000;stroke-width:0.8;" x="388.8" xlink:href="#m2dbbe13c9c" y="247.977322"/>
      </g>
     </g>
    </g>
    <g id="ytick_4">
     <g id="line2d_23">
      <g>
       <use style="stroke:#000000;stroke-width:0.8;" x="54" xlink:href="#md0c1760aa9" y="234.901719"/>
      </g>
     </g>
     <g id="line2d_24">
      <g>
       <use style="stroke:#000000;stroke-width:0.8;" x="388.8" xlink:href="#m2dbbe13c9c" y="234.901719"/>
      </g>
     </g>
    </g>
    <g id="ytick_5">
     <g id="line2d_25">
      <g>
       <use style="stroke:#000000;stroke-width:0.8;" x="54" xlink:href="#md0c1760aa9" y="224.759493"/>
      </g>
     </g>
     <g id="line2d_26">
      <g>
       <use style="stroke:#000000;stroke-width:0.8;" x="388.8" xlink:href="#m2dbbe13c9c" y="224.759493"/>
      </g>
     </g>
    </g>
    <g id="ytick_6">
     <g id="line2d_27">
      <g>
       <use style="stroke:#000000;stroke-width:0.8;" x="54" xlink:href="#md0c1760aa9" y="216.472691"/>
      </g>
     </g>
     <g id="line2d_28">
      <g>
       <use style="stroke:#000000;stroke-width:0.8;" x="388.8" xlink:href="#m2dbbe13c9c" y="216.472691"/>
      </g>
     </g>
    </g>
    <g id="ytick_7">
     <g id="line2d_29">
      <g>
       <use style="stroke:#000000;stroke-width:0.8;" x="54" xlink:href="#md0c1760aa9" y="209.4663"/>
      </g>
     </g>
     <g id="line2d_30">
      <g>
       <use style="stroke:#000000;stroke-width:0.8;" x="388.8" xlink:href="#m2dbbe13c9c" y="209.4663"/>
      </g>
     </g>
    </g>
    <g id="ytick_8">
     <g id="line2d_31">
      <g>
       <use style="stroke:#000000;stroke-width:0.8;" x="54" xlink:href="#md0c1760aa9" y="203.397088"/>
      </g>
     </g>
     <g id="line2d_32">
      <g>
       <use style="stroke:#000000;stroke-width:0.8;" x="388.8" xlink:href="#m2dbbe13c9c" y="203.397088"/>
      </g>
     </g>
    </g>
    <g id="ytick_9">
     <g id="line2d_33">
      <g>
       <use style="stroke:#000000;stroke-width:0.8;" x="54" xlink:href="#md0c1760aa9" y="198.043663"/>
      </g>
     </g>
     <g id="line2d_34">
      <g>
       <use style="stroke:#000000;stroke-width:0.8;" x="388.8" xlink:href="#m2dbbe13c9c" y="198.043663"/>
      </g>
     </g>
    </g>
    <g id="ytick_10">
     <g id="line2d_35">
      <g>
       <use style="stroke:#000000;stroke-width:0.8;" x="54" xlink:href="#md0c1760aa9" y="161.75023"/>
      </g>
     </g>
     <g id="line2d_36">
      <g>
       <use style="stroke:#000000;stroke-width:0.8;" x="388.8" xlink:href="#m2dbbe13c9c" y="161.75023"/>
      </g>
     </g>
    </g>
    <g id="ytick_11">
     <g id="line2d_37">
      <g>
       <use style="stroke:#000000;stroke-width:0.8;" x="54" xlink:href="#md0c1760aa9" y="143.321203"/>
      </g>
     </g>
     <g id="line2d_38">
      <g>
       <use style="stroke:#000000;stroke-width:0.8;" x="388.8" xlink:href="#m2dbbe13c9c" y="143.321203"/>
      </g>
     </g>
    </g>
    <g id="ytick_12">
     <g id="line2d_39">
      <g>
       <use style="stroke:#000000;stroke-width:0.8;" x="54" xlink:href="#md0c1760aa9" y="130.245599"/>
      </g>
     </g>
     <g id="line2d_40">
      <g>
       <use style="stroke:#000000;stroke-width:0.8;" x="388.8" xlink:href="#m2dbbe13c9c" y="130.245599"/>
      </g>
     </g>
    </g>
    <g id="ytick_13">
     <g id="line2d_41">
      <g>
       <use style="stroke:#000000;stroke-width:0.8;" x="54" xlink:href="#md0c1760aa9" y="120.103373"/>
      </g>
     </g>
     <g id="line2d_42">
      <g>
       <use style="stroke:#000000;stroke-width:0.8;" x="388.8" xlink:href="#m2dbbe13c9c" y="120.103373"/>
      </g>
     </g>
    </g>
    <g id="ytick_14">
     <g id="line2d_43">
      <g>
       <use style="stroke:#000000;stroke-width:0.8;" x="54" xlink:href="#md0c1760aa9" y="111.816571"/>
      </g>
     </g>
     <g id="line2d_44">
      <g>
       <use style="stroke:#000000;stroke-width:0.8;" x="388.8" xlink:href="#m2dbbe13c9c" y="111.816571"/>
      </g>
     </g>
    </g>
    <g id="ytick_15">
     <g id="line2d_45">
      <g>
       <use style="stroke:#000000;stroke-width:0.8;" x="54" xlink:href="#md0c1760aa9" y="104.81018"/>
      </g>
     </g>
     <g id="line2d_46">
      <g>
       <use style="stroke:#000000;stroke-width:0.8;" x="388.8" xlink:href="#m2dbbe13c9c" y="104.81018"/>
      </g>
     </g>
    </g>
    <g id="ytick_16">
     <g id="line2d_47">
      <g>
       <use style="stroke:#000000;stroke-width:0.8;" x="54" xlink:href="#md0c1760aa9" y="98.740968"/>
      </g>
     </g>
     <g id="line2d_48">
      <g>
       <use style="stroke:#000000;stroke-width:0.8;" x="388.8" xlink:href="#m2dbbe13c9c" y="98.740968"/>
      </g>
     </g>
    </g>
    <g id="ytick_17">
     <g id="line2d_49">
      <g>
       <use style="stroke:#000000;stroke-width:0.8;" x="54" xlink:href="#md0c1760aa9" y="93.387543"/>
      </g>
     </g>
     <g id="line2d_50">
      <g>
       <use style="stroke:#000000;stroke-width:0.8;" x="388.8" xlink:href="#m2dbbe13c9c" y="93.387543"/>
      </g>
     </g>
    </g>
    <g id="ytick_18">
     <g id="line2d_51">
      <g>
       <use style="stroke:#000000;stroke-width:0.8;" x="54" xlink:href="#md0c1760aa9" y="57.094111"/>
      </g>
     </g>
     <g id="line2d_52">
      <g>
       <use style="stroke:#000000;stroke-width:0.8;" x="388.8" xlink:href="#m2dbbe13c9c" y="57.094111"/>
      </g>
     </g>
    </g>
    <g id="ytick_19">
     <g id="line2d_53">
      <g>
       <use style="stroke:#000000;stroke-width:0.8;" x="54" xlink:href="#md0c1760aa9" y="38.665083"/>
      </g>
     </g>
     <g id="line2d_54">
      <g>
       <use style="stroke:#000000;stroke-width:0.8;" x="388.8" xlink:href="#m2dbbe13c9c" y="38.665083"/>
      </g>
     </g>
    </g>
    <g id="text_12">
     <!-- IGD -->
     <defs>
      <path d="M 9.328125 0 
L 9.328125 71.578125 
L 18.796875 71.578125 
L 18.796875 0 
z
" id="ArialMT-73"/>
      <path d="M 7.71875 0 
L 7.71875 71.578125 
L 32.375 71.578125 
Q 40.71875 71.578125 45.125 70.5625 
Q 51.265625 69.140625 55.609375 65.4375 
Q 61.28125 60.640625 64.078125 53.1875 
Q 66.890625 45.75 66.890625 36.1875 
Q 66.890625 28.03125 64.984375 21.734375 
Q 63.09375 15.4375 60.109375 11.296875 
Q 57.125 7.171875 53.578125 4.796875 
Q 50.046875 2.4375 45.046875 1.21875 
Q 40.046875 0 33.546875 0 
z
M 17.1875 8.453125 
L 32.46875 8.453125 
Q 39.546875 8.453125 43.578125 9.765625 
Q 47.609375 11.078125 50 13.484375 
Q 53.375 16.84375 55.25 22.53125 
Q 57.125 28.21875 57.125 36.328125 
Q 57.125 47.5625 53.4375 53.59375 
Q 49.75 59.625 44.484375 61.671875 
Q 40.671875 63.140625 32.234375 63.140625 
L 17.1875 63.140625 
z
" id="ArialMT-68"/>
     </defs>
     <g transform="translate(23.3016 155.6802)rotate(-90)scale(0.1152 -0.1152)">
      <use xlink:href="#ArialMT-73"/>
      <use x="27.783203" xlink:href="#ArialMT-71"/>
      <use x="105.566406" xlink:href="#ArialMT-68"/>
     </g>
    </g>
   </g>
   <g id="line2d_55">
    <path clip-path="url(#p551bbd1480)" d="M 69.218182 45.571227 
L 69.624 76.734134 
L 69.826909 78.272672 
L 70.232727 98.028866 
L 70.435636 103.738899 
L 70.638545 116.06415 
L 70.841455 118.540392 
L 71.044364 119.335659 
L 71.450182 123.573795 
L 71.856 135.461971 
L 72.058909 137.004623 
L 72.464727 141.323495 
L 72.667636 141.576514 
L 72.870545 146.498304 
L 73.073455 147.394355 
L 73.276364 148.99836 
L 73.479273 148.619817 
L 73.682182 149.872325 
L 73.885091 149.989688 
L 74.493818 155.145931 
L 74.696727 155.967823 
L 74.899636 159.734152 
L 75.102545 160.612891 
L 75.508364 163.787401 
L 75.711273 163.803179 
L 75.914182 163.685129 
L 76.117091 165.320859 
L 76.32 168.585981 
L 76.522909 168.945976 
L 76.928727 171.16053 
L 77.334545 172.896413 
L 77.740364 173.206419 
L 77.943273 174.196394 
L 78.146182 174.578065 
L 78.552 175.870776 
L 78.957818 167.4947 
L 79.972364 172.525431 
L 80.175273 173.903353 
L 80.378182 181.122035 
L 80.581091 179.148159 
L 81.189818 181.516254 
L 81.392727 182.833295 
L 81.595636 183.189084 
L 82.001455 184.661713 
L 82.204364 184.885784 
L 82.407273 185.806463 
L 82.610182 185.625824 
L 82.813091 185.804453 
L 83.624727 187.210071 
L 83.827636 188.361604 
L 84.030545 188.514705 
L 84.639273 189.49977 
L 84.842182 190.320037 
L 85.045091 189.885921 
L 85.450909 190.199882 
L 85.653818 190.595071 
L 86.059636 190.826688 
L 86.465455 191.832787 
L 86.668364 192.420146 
L 86.871273 192.586425 
L 87.277091 193.199784 
L 87.48 194.059211 
L 87.682909 195.698926 
L 87.885818 195.727334 
L 88.088727 196.411785 
L 88.291636 196.338152 
L 88.494545 196.771523 
L 88.697455 196.780223 
L 88.900364 197.001238 
L 89.306182 198.115081 
L 89.712 198.34784 
L 89.914909 198.127848 
L 90.117818 198.263634 
L 90.320727 198.554988 
L 90.726545 199.560038 
L 91.132364 199.728689 
L 91.335273 199.887691 
L 91.741091 201.020944 
L 92.146909 201.041011 
L 92.552727 201.666224 
L 92.755636 204.040221 
L 92.958545 203.852843 
L 93.161455 204.17249 
L 93.364364 205.313445 
L 93.567273 205.326727 
L 94.176 206.172651 
L 94.378909 205.710326 
L 94.581818 205.802573 
L 94.784727 206.563215 
L 94.987636 206.888314 
L 95.393455 207.224252 
L 95.596364 207.733169 
L 96.408 208.47582 
L 96.610909 208.963152 
L 97.016727 209.134027 
L 97.219636 209.397878 
L 97.625455 208.842712 
L 97.828364 209.287992 
L 98.031273 208.989867 
L 98.234182 209.35712 
L 98.842909 209.50953 
L 99.045818 210.300407 
L 99.248727 209.784348 
L 99.451636 210.861012 
L 99.857455 211.046591 
L 100.060364 210.469603 
L 100.263273 210.377039 
L 100.466182 209.869126 
L 100.872 210.537238 
L 101.074909 210.53995 
L 101.480727 210.757034 
L 101.683636 211.940534 
L 102.292364 190.971287 
L 102.698182 194.392248 
L 102.901091 195.457284 
L 103.306909 201.754184 
L 103.915636 203.319482 
L 104.118545 203.221593 
L 104.321455 203.649092 
L 104.524364 204.368431 
L 104.727273 204.632564 
L 104.930182 203.534078 
L 105.133091 204.967701 
L 105.538909 205.080418 
L 105.741818 205.346293 
L 105.944727 205.241206 
L 106.147636 206.680593 
L 106.350545 206.903965 
L 106.553455 206.915473 
L 106.756364 208.335464 
L 106.959273 219.056036 
L 107.162182 209.965185 
L 107.568 214.317223 
L 107.770909 215.259248 
L 107.973818 214.927312 
L 108.176727 213.110984 
L 108.379636 213.916216 
L 108.785455 216.324813 
L 109.191273 215.228818 
L 109.597091 217.429044 
L 109.8 217.440301 
L 110.002909 217.809555 
L 110.205818 218.428009 
L 110.611636 221.913977 
L 110.814545 221.626497 
L 111.017455 221.785267 
L 111.220364 222.249261 
L 111.423273 222.26073 
L 111.626182 221.940622 
L 112.234909 225.136849 
L 112.437818 224.474164 
L 112.640727 225.472083 
L 113.046545 225.212084 
L 113.452364 225.178094 
L 113.655273 225.110183 
L 114.466909 225.853332 
L 114.669818 226.269784 
L 114.872727 227.250897 
L 115.075636 227.027405 
L 115.278545 227.985207 
L 115.481455 228.042806 
L 115.684364 228.307906 
L 116.090182 228.317406 
L 116.496 228.523097 
L 116.901818 229.201736 
L 117.104727 228.249738 
L 117.510545 228.680536 
L 117.713455 228.544333 
L 117.916364 229.884336 
L 118.119273 229.104283 
L 118.525091 229.16945 
L 118.728 228.529481 
L 118.930909 228.711125 
L 119.133818 229.529439 
L 119.539636 228.931975 
L 119.742545 229.711474 
L 119.945455 229.727295 
L 120.148364 230.11181 
L 120.757091 230.157361 
L 120.96 220.095041 
L 121.162909 196.231409 
L 121.365818 197.036947 
L 121.771636 201.748959 
L 121.974545 211.318186 
L 122.177455 212.772011 
L 122.380364 213.181615 
L 122.786182 215.525195 
L 122.989091 216.048572 
L 123.192 216.129879 
L 123.394909 216.359164 
L 123.597818 216.211666 
L 123.800727 216.592991 
L 124.003636 221.93118 
L 124.206545 220.20045 
L 124.815273 220.79129 
L 125.424 222.027228 
L 125.626909 222.811104 
L 125.829818 222.806553 
L 126.032727 222.673018 
L 126.235636 221.895421 
L 126.641455 222.613023 
L 126.844364 223.975172 
L 127.047273 224.09019 
L 127.250182 219.814983 
L 127.453091 224.171996 
L 128.264727 224.623735 
L 128.467636 225.728321 
L 128.670545 227.66122 
L 128.873455 227.813304 
L 129.076364 227.73015 
L 129.279273 227.928832 
L 129.482182 227.913268 
L 129.888 228.035467 
L 130.293818 227.934269 
L 130.496727 230.602371 
L 130.699636 230.84209 
L 131.308364 230.627064 
L 131.511273 230.890656 
L 131.714182 230.754652 
L 131.917091 230.809371 
L 132.12 230.349382 
L 132.322909 230.575752 
L 132.525818 229.128279 
L 132.728727 229.391126 
L 132.931636 230.027616 
L 133.134545 231.084327 
L 133.337455 231.057624 
L 133.946182 231.815999 
L 134.149091 231.728797 
L 134.352 231.934663 
L 134.554909 231.915627 
L 134.757818 233.057143 
L 134.960727 233.453911 
L 135.163636 232.955846 
L 135.569455 232.611636 
L 136.178182 232.840918 
L 136.381091 232.660014 
L 136.786909 232.892827 
L 136.989818 232.023382 
L 137.192727 232.636598 
L 137.395636 232.649454 
L 137.598545 234.950605 
L 137.801455 231.529313 
L 138.004364 230.358384 
L 138.207273 230.74354 
L 138.410182 230.257959 
L 138.613091 232.000687 
L 138.816 230.208326 
L 139.221818 230.696496 
L 139.627636 230.604855 
L 139.830545 231.807192 
L 140.033455 231.684384 
L 140.236364 227.528938 
L 140.642182 228.439687 
L 140.845091 228.520695 
L 141.048 229.30535 
L 141.656727 230.298693 
L 141.859636 230.974746 
L 142.265455 230.805915 
L 142.468364 235.183363 
L 142.874182 235.484609 
L 143.077091 235.496365 
L 143.28 233.537401 
L 143.685818 222.868113 
L 143.888727 222.127242 
L 144.091636 226.109517 
L 144.497455 228.74353 
L 144.700364 229.128988 
L 145.309091 230.916793 
L 145.917818 231.534932 
L 146.120727 232.11793 
L 146.323636 229.738631 
L 146.526545 228.717765 
L 146.729455 230.072714 
L 146.932364 233.222235 
L 147.338182 223.504007 
L 148.149818 236.177237 
L 148.555636 236.691304 
L 148.758545 235.508894 
L 148.961455 236.825124 
L 149.164364 237.085807 
L 149.367273 240.171885 
L 149.773091 240.348536 
L 150.381818 240.653016 
L 150.990545 240.590806 
L 151.396364 241.239107 
L 152.005091 241.30724 
L 152.208 241.0204 
L 152.410909 241.654362 
L 152.816727 241.820004 
L 153.019636 241.854189 
L 153.222545 241.629831 
L 153.628364 241.773072 
L 154.034182 241.631943 
L 154.237091 242.605348 
L 154.642909 242.734424 
L 154.845818 242.880695 
L 155.251636 242.854195 
L 155.454545 243.136581 
L 155.657455 243.153768 
L 155.860364 241.878743 
L 156.266182 242.06485 
L 156.469091 241.756624 
L 156.672 241.802761 
L 156.874909 236.400423 
L 157.077818 237.943604 
L 157.280727 237.785184 
L 157.889455 237.795588 
L 158.092364 238.036647 
L 158.295273 238.996854 
L 159.106909 238.884445 
L 159.512727 244.020394 
L 160.527273 244.041857 
L 160.730182 242.867506 
L 160.933091 242.925563 
L 161.136 243.151142 
L 161.541818 243.072691 
L 162.759273 243.068318 
L 162.962182 242.225562 
L 163.165091 242.236048 
L 163.368 241.973673 
L 163.570909 242.01836 
L 163.773818 241.944129 
L 164.179636 242.043566 
L 164.788364 242.018189 
L 164.991273 242.038761 
L 165.194182 242.609052 
L 165.6 242.638319 
L 165.802909 242.528944 
L 166.208727 242.551786 
L 166.411636 242.895776 
L 373.581818 242.895776 
L 373.581818 242.895776 
" style="fill:none;stroke:#023eff;stroke-linecap:round;stroke-width:1.2;"/>
    <defs>
     <path d="M 0 2.4 
C 0.636487 2.4 1.246992 2.147121 1.697056 1.697056 
C 2.147121 1.246992 2.4 0.636487 2.4 0 
C 2.4 -0.636487 2.147121 -1.246992 1.697056 -1.697056 
C 1.246992 -2.147121 0.636487 -2.4 0 -2.4 
C -0.636487 -2.4 -1.246992 -2.147121 -1.697056 -1.697056 
C -2.147121 -1.246992 -2.4 -0.636487 -2.4 0 
C -2.4 0.636487 -2.147121 1.246992 -1.697056 1.697056 
C -1.246992 2.147121 -0.636487 2.4 0 2.4 
z
" id="m86038074cf" style="stroke:#023eff;"/>
    </defs>
    <g clip-path="url(#p551bbd1480)">
     <use style="fill-opacity:0;stroke:#023eff;" x="69.218182" xlink:href="#m86038074cf" y="45.571227"/>
     <use style="fill-opacity:0;stroke:#023eff;" x="109.8" xlink:href="#m86038074cf" y="217.440301"/>
     <use style="fill-opacity:0;stroke:#023eff;" x="150.381818" xlink:href="#m86038074cf" y="240.653016"/>
     <use style="fill-opacity:0;stroke:#023eff;" x="190.963636" xlink:href="#m86038074cf" y="242.895776"/>
     <use style="fill-opacity:0;stroke:#023eff;" x="231.545455" xlink:href="#m86038074cf" y="242.895776"/>
     <use style="fill-opacity:0;stroke:#023eff;" x="272.127273" xlink:href="#m86038074cf" y="242.895776"/>
     <use style="fill-opacity:0;stroke:#023eff;" x="312.709091" xlink:href="#m86038074cf" y="242.895776"/>
     <use style="fill-opacity:0;stroke:#023eff;" x="353.290909" xlink:href="#m86038074cf" y="242.895776"/>
    </g>
   </g>
   <g id="line2d_56">
    <path clip-path="url(#p551bbd1480)" d="M 69.218182 45.20201 
L 69.421091 47.561692 
L 70.232727 51.509254 
L 70.435636 53.230909 
L 70.638545 60.263327 
L 70.841455 61.000227 
L 71.044364 64.077703 
L 71.247273 63.854807 
L 71.450182 65.075549 
L 71.653091 65.593475 
L 71.856 66.925934 
L 72.058909 66.923795 
L 72.261818 69.912615 
L 72.464727 75.558515 
L 72.667636 74.612256 
L 72.870545 74.488202 
L 73.073455 76.854037 
L 73.276364 77.026985 
L 73.479273 80.206158 
L 73.682182 89.657048 
L 73.885091 88.7232 
L 74.088 88.677714 
L 74.493818 94.535352 
L 74.696727 93.849106 
L 74.899636 99.998687 
L 75.102545 98.355357 
L 75.305455 100.274092 
L 75.508364 105.823626 
L 76.32 106.268821 
L 76.725818 107.745922 
L 76.928727 107.785548 
L 77.131636 108.025204 
L 77.334545 108.08886 
L 77.537455 114.817194 
L 77.740364 115.149266 
L 78.146182 122.405737 
L 78.552 125.745486 
L 78.754909 126.597578 
L 79.160727 127.017539 
L 79.566545 127.241617 
L 79.769455 128.306026 
L 79.972364 130.348769 
L 80.175273 131.183143 
L 80.378182 137.747441 
L 80.581091 138.385321 
L 80.784 142.478328 
L 80.986909 143.365627 
L 81.189818 143.700166 
L 81.392727 144.477167 
L 81.798545 144.849808 
L 82.407273 151.224688 
L 82.610182 151.572598 
L 82.813091 152.838684 
L 83.218909 153.510287 
L 83.827636 160.412355 
L 84.233455 161.261609 
L 84.436364 163.335816 
L 84.639273 163.921429 
L 84.842182 166.884333 
L 85.045091 167.153765 
L 85.248 168.649964 
L 85.450909 169.220613 
L 85.653818 170.318387 
L 85.856727 170.518346 
L 86.059636 170.133399 
L 86.465455 171.462076 
L 86.668364 174.645187 
L 87.277091 176.345229 
L 87.682909 178.243823 
L 87.885818 178.384521 
L 88.088727 180.54429 
L 88.291636 180.269877 
L 88.494545 181.08936 
L 89.103273 188.33738 
L 89.306182 189.122298 
L 89.509091 190.428194 
L 89.712 192.716297 
L 89.914909 193.558212 
L 90.117818 195.223405 
L 90.320727 195.814165 
L 90.726545 197.999238 
L 91.132364 194.541071 
L 91.538182 196.152182 
L 91.944 197.068538 
L 92.146909 197.469729 
L 92.552727 198.695472 
L 92.755636 199.117327 
L 92.958545 199.20134 
L 93.161455 200.032627 
L 93.364364 200.119495 
L 93.567273 200.331992 
L 93.770182 200.887848 
L 94.378909 201.359634 
L 94.581818 201.309551 
L 94.987636 200.741759 
L 95.190545 200.953483 
L 95.596364 201.991946 
L 96.002182 203.028767 
L 96.205091 202.116856 
L 96.408 202.228959 
L 96.813818 203.207221 
L 97.016727 202.626524 
L 97.219636 203.221862 
L 97.625455 205.27074 
L 98.031273 205.930223 
L 98.437091 206.253731 
L 98.64 206.299134 
L 98.842909 207.716097 
L 99.045818 207.863564 
L 99.248727 208.775443 
L 99.451636 209.040054 
L 99.857455 209.983644 
L 100.060364 205.831719 
L 100.263273 205.584294 
L 100.466182 205.549483 
L 100.669091 207.715397 
L 100.872 206.917106 
L 101.074909 211.068291 
L 101.277818 211.1916 
L 101.480727 211.632338 
L 101.886545 214.332764 
L 102.089455 214.405446 
L 102.495273 215.014117 
L 102.698182 213.384548 
L 102.901091 213.759214 
L 103.104 206.413545 
L 103.509818 209.933954 
L 103.915636 212.604506 
L 104.321455 214.00003 
L 104.727273 215.62378 
L 104.930182 215.698856 
L 105.336 217.167075 
L 105.741818 217.857894 
L 105.944727 218.835953 
L 106.147636 218.333963 
L 106.553455 218.840792 
L 106.756364 219.184664 
L 106.959273 219.819522 
L 107.162182 219.688934 
L 107.365091 219.715972 
L 107.770909 220.389191 
L 108.176727 220.781603 
L 108.379636 220.94214 
L 108.582545 220.860967 
L 108.988364 220.944501 
L 109.191273 221.408497 
L 110.611636 221.841881 
L 111.017455 222.050419 
L 111.220364 221.961626 
L 112.437818 222.793227 
L 113.249455 222.830066 
L 113.655273 223.079853 
L 113.858182 222.813766 
L 114.061091 222.809236 
L 114.264 222.561822 
L 114.669818 222.496468 
L 115.075636 222.729592 
L 115.278545 223.680219 
L 116.090182 223.75973 
L 116.293091 232.894254 
L 116.496 225.890326 
L 116.698909 226.394299 
L 116.901818 229.343844 
L 117.510545 231.050656 
L 117.713455 231.170497 
L 118.322182 232.153348 
L 118.525091 231.939267 
L 118.930909 232.504569 
L 119.539636 232.519633 
L 119.945455 232.830096 
L 120.148364 234.761771 
L 120.351273 234.990775 
L 120.757091 235.128684 
L 120.96 235.035702 
L 121.568727 235.392626 
L 121.974545 235.616017 
L 122.177455 235.618859 
L 124.003636 236.539775 
L 125.221091 236.688746 
L 125.424 236.796628 
L 125.829818 236.721294 
L 126.032727 235.978957 
L 126.235636 236.028377 
L 126.641455 235.560745 
L 127.656 235.701271 
L 128.061818 235.872204 
L 128.467636 236.003162 
L 129.076364 236.020551 
L 129.482182 236.168536 
L 129.685091 236.558886 
L 129.888 236.088084 
L 130.090909 236.072042 
L 130.293818 236.228455 
L 131.105455 236.112179 
L 132.728727 236.194007 
L 133.134545 236.278161 
L 133.946182 236.374429 
L 134.149091 237.562917 
L 134.757818 237.491814 
L 134.960727 239.667397 
L 135.163636 239.303928 
L 135.569455 239.3423 
L 135.772364 239.236863 
L 137.192727 239.454938 
L 373.581818 239.454938 
L 373.581818 239.454938 
" style="fill:none;stroke:#1ac938;stroke-linecap:round;stroke-width:1.2;"/>
    <defs>
     <path d="M -0 2.4 
L 2.4 -2.4 
L -2.4 -2.4 
z
" id="m86872bd8b0" style="stroke:#1ac938;stroke-linejoin:miter;"/>
    </defs>
    <g clip-path="url(#p551bbd1480)">
     <use style="fill-opacity:0;stroke:#1ac938;stroke-linejoin:miter;" x="69.218182" xlink:href="#m86872bd8b0" y="45.20201"/>
     <use style="fill-opacity:0;stroke:#1ac938;stroke-linejoin:miter;" x="109.8" xlink:href="#m86872bd8b0" y="221.519932"/>
     <use style="fill-opacity:0;stroke:#1ac938;stroke-linejoin:miter;" x="150.381818" xlink:href="#m86872bd8b0" y="239.454938"/>
     <use style="fill-opacity:0;stroke:#1ac938;stroke-linejoin:miter;" x="190.963636" xlink:href="#m86872bd8b0" y="239.454938"/>
     <use style="fill-opacity:0;stroke:#1ac938;stroke-linejoin:miter;" x="231.545455" xlink:href="#m86872bd8b0" y="239.454938"/>
     <use style="fill-opacity:0;stroke:#1ac938;stroke-linejoin:miter;" x="272.127273" xlink:href="#m86872bd8b0" y="239.454938"/>
     <use style="fill-opacity:0;stroke:#1ac938;stroke-linejoin:miter;" x="312.709091" xlink:href="#m86872bd8b0" y="239.454938"/>
     <use style="fill-opacity:0;stroke:#1ac938;stroke-linejoin:miter;" x="353.290909" xlink:href="#m86872bd8b0" y="239.454938"/>
    </g>
   </g>
   <g id="line2d_57">
    <path clip-path="url(#p551bbd1480)" d="M 69.218182 45.92775 
L 69.421091 44.842614 
L 69.826909 51.141185 
L 70.232727 55.540983 
L 70.435636 56.509925 
L 70.638545 56.281263 
L 71.044364 57.498519 
L 71.247273 59.875418 
L 71.450182 65.608033 
L 71.653091 66.523068 
L 71.856 65.78574 
L 72.058909 68.497309 
L 72.261818 67.958192 
L 72.464727 67.996261 
L 72.667636 69.440691 
L 72.870545 72.486845 
L 73.073455 80.291848 
L 73.276364 79.487417 
L 73.479273 79.674786 
L 73.682182 83.089299 
L 73.885091 84.518495 
L 74.088 93.681019 
L 74.290909 93.885962 
L 74.493818 93.856748 
L 74.696727 95.790363 
L 74.899636 96.632441 
L 75.102545 99.851682 
L 75.305455 106.571416 
L 75.508364 121.552252 
L 75.711273 128.197977 
L 75.914182 128.70959 
L 76.117091 129.765729 
L 76.32 126.254224 
L 76.522909 130.065907 
L 76.725818 130.693117 
L 76.928727 128.588825 
L 77.131636 128.944454 
L 77.740364 131.615874 
L 77.943273 135.14658 
L 78.552 139.564853 
L 78.754909 139.809958 
L 78.957818 140.667669 
L 79.160727 140.700226 
L 79.363636 142.232619 
L 79.566545 142.308002 
L 79.769455 142.591872 
L 80.175273 143.629933 
L 80.378182 148.045916 
L 80.581091 148.609633 
L 80.986909 153.172765 
L 81.189818 153.018996 
L 81.392727 153.177893 
L 81.595636 156.925518 
L 81.798545 157.297326 
L 82.001455 159.243793 
L 82.204364 159.875788 
L 82.407273 162.792618 
L 82.610182 163.173906 
L 82.813091 168.051706 
L 83.016 168.731932 
L 83.218909 171.160084 
L 83.421818 171.956739 
L 84.233455 179.325265 
L 84.639273 180.008223 
L 85.248 181.929244 
L 85.450909 182.17162 
L 85.653818 183.328906 
L 85.856727 183.074648 
L 86.059636 183.345998 
L 86.262545 184.721088 
L 86.465455 183.460232 
L 86.871273 189.555371 
L 87.074182 189.519454 
L 87.277091 191.292999 
L 87.48 194.347346 
L 87.682909 193.733168 
L 88.291636 201.412688 
L 88.494545 199.185916 
L 88.697455 200.866835 
L 88.900364 204.425868 
L 89.306182 206.98315 
L 89.712 209.215424 
L 89.914909 209.64839 
L 90.117818 206.19135 
L 90.320727 207.59483 
L 90.523636 209.818423 
L 90.929455 206.847149 
L 91.132364 202.815578 
L 91.335273 204.99522 
L 91.741091 212.17576 
L 91.944 212.798564 
L 92.146909 202.273086 
L 92.552727 211.808318 
L 92.755636 213.370847 
L 92.958545 213.80759 
L 93.161455 213.830221 
L 93.364364 214.670684 
L 93.567273 216.604696 
L 94.176 219.045587 
L 94.581818 223.302218 
L 94.784727 222.871271 
L 95.190545 224.346272 
L 95.596364 225.30455 
L 95.799273 225.430874 
L 96.002182 225.415153 
L 96.205091 225.65816 
L 96.408 225.657104 
L 97.219636 227.305821 
L 97.422545 227.283997 
L 97.828364 227.853892 
L 98.031273 227.726624 
L 98.234182 227.974611 
L 98.437091 230.482191 
L 98.64 230.4784 
L 99.045818 230.915418 
L 99.248727 229.9287 
L 99.451636 230.357519 
L 99.857455 230.684 
L 100.060364 230.596595 
L 100.263273 230.697482 
L 100.466182 230.960324 
L 100.669091 230.815997 
L 101.074909 231.442934 
L 101.277818 231.402019 
L 101.683636 231.562098 
L 102.089455 231.454641 
L 102.495273 232.040777 
L 103.104 232.047731 
L 103.712727 233.074811 
L 104.118545 232.828746 
L 104.321455 233.354612 
L 105.336 233.80042 
L 105.741818 233.972433 
L 106.147636 233.799241 
L 106.553455 233.942026 
L 106.959273 233.971886 
L 107.365091 234.191361 
L 107.770909 234.287991 
L 107.973818 234.17561 
L 108.176727 234.333643 
L 108.379636 234.803163 
L 108.582545 234.857838 
L 108.988364 235.239875 
L 109.8 235.622311 
L 110.205818 235.711823 
L 110.408727 235.754422 
L 110.611636 226.468656 
L 110.814545 200.324565 
L 111.017455 210.069273 
L 111.220364 214.262868 
L 111.423273 215.119885 
L 111.626182 218.434553 
L 112.032 219.538623 
L 112.234909 222.181623 
L 112.640727 222.775198 
L 112.843636 224.157422 
L 113.046545 224.386764 
L 113.249455 225.434323 
L 113.452364 225.731222 
L 113.858182 225.896396 
L 114.061091 226.475434 
L 114.264 226.566066 
L 114.466909 227.033925 
L 114.872727 227.167884 
L 115.075636 227.394465 
L 115.278545 227.421371 
L 115.481455 227.76605 
L 115.684364 227.592635 
L 116.090182 227.765211 
L 116.901818 227.989595 
L 117.104727 228.302058 
L 117.510545 228.435066 
L 117.713455 228.298538 
L 117.916364 228.571957 
L 118.525091 228.701797 
L 118.728 229.090229 
L 118.930909 229.153561 
L 119.336727 229.090001 
L 119.945455 229.2035 
L 120.554182 229.562374 
L 120.757091 229.584632 
L 120.96 229.748871 
L 121.365818 229.760314 
L 121.974545 229.81199 
L 122.380364 229.845182 
L 123.597818 229.967693 
L 124.003636 230.194102 
L 124.612364 230.302165 
L 124.815273 237.94412 
L 125.018182 234.37882 
L 125.221091 233.148324 
L 125.424 232.877008 
L 125.626909 235.750129 
L 125.829818 235.510235 
L 126.235636 236.31898 
L 126.438545 237.39556 
L 126.641455 237.471057 
L 126.844364 238.406124 
L 127.047273 238.427907 
L 127.250182 238.693213 
L 127.453091 238.717815 
L 127.858909 238.922138 
L 128.264727 239.578105 
L 129.076364 239.52204 
L 129.279273 239.361267 
L 129.685091 239.812629 
L 130.293818 239.954857 
L 130.699636 240.340157 
L 130.902545 240.463048 
L 131.105455 240.427104 
L 131.308364 240.573036 
L 131.511273 240.484126 
L 131.714182 240.570096 
L 132.12 240.519589 
L 132.525818 240.750444 
L 132.728727 240.698034 
L 132.931636 240.842529 
L 133.134545 238.390842 
L 133.337455 229.636476 
L 133.540364 230.659113 
L 133.743273 232.706835 
L 134.352 235.120862 
L 134.554909 234.277227 
L 134.960727 236.030941 
L 135.163636 236.381719 
L 135.366545 237.730767 
L 135.975273 237.997227 
L 136.178182 238.075879 
L 136.381091 238.410571 
L 136.786909 238.556572 
L 138.004364 238.744599 
L 138.816 238.506116 
L 139.221818 238.573617 
L 139.830545 238.663906 
L 140.236364 238.935775 
L 140.642182 238.943279 
L 141.453818 238.956073 
L 141.656727 232.275024 
L 141.859636 221.269922 
L 142.062545 223.701908 
L 142.265455 223.691754 
L 142.671273 226.110619 
L 142.874182 225.630666 
L 143.28 229.28321 
L 143.685818 230.342241 
L 143.888727 230.184571 
L 144.091636 234.075374 
L 144.294545 227.406937 
L 144.497455 228.290846 
L 144.903273 233.277544 
L 145.106182 235.222168 
L 145.309091 236.010131 
L 145.512 234.838415 
L 145.714909 234.525239 
L 145.917818 236.605329 
L 146.120727 237.287007 
L 146.323636 237.369653 
L 146.526545 237.824361 
L 146.729455 237.939773 
L 146.932364 238.576356 
L 147.135273 238.666412 
L 147.338182 239.269737 
L 147.541091 239.096128 
L 147.744 239.078812 
L 147.946909 239.191966 
L 148.149818 239.738729 
L 148.352727 239.37339 
L 148.555636 239.348359 
L 148.758545 239.964223 
L 148.961455 240.103534 
L 149.164364 240.707781 
L 149.367273 240.43505 
L 149.773091 240.810986 
L 149.976 240.828646 
L 150.178909 240.99833 
L 150.381818 240.786889 
L 150.787636 242.498112 
L 151.396364 242.747065 
L 151.599273 243.055094 
L 151.802182 244.563229 
L 153.019636 244.720226 
L 153.222545 244.531079 
L 153.831273 244.791152 
L 154.237091 244.79076 
L 154.642909 245.149642 
L 154.845818 244.244253 
L 155.048727 242.474166 
L 155.454545 242.523175 
L 155.657455 244.184171 
L 156.063273 244.275775 
L 156.266182 243.962382 
L 156.672 244.03481 
L 157.077818 244.121075 
L 157.280727 244.585362 
L 157.686545 244.754914 
L 158.295273 244.729351 
L 159.309818 244.884969 
L 160.121455 244.991336 
L 160.324364 245.567131 
L 160.933091 245.608256 
L 161.136 245.512249 
L 161.541818 245.742055 
L 161.947636 245.761682 
L 162.353455 245.866781 
L 162.962182 245.97349 
L 163.368 246.047477 
L 163.976727 246.064834 
L 164.382545 246.24 
L 373.581818 246.24 
L 373.581818 246.24 
" style="fill:none;stroke:#e8000b;stroke-linecap:round;stroke-width:1.2;"/>
    <defs>
     <path d="M 0 -2.4 
L -2.4 2.4 
L 2.4 2.4 
z
" id="m3ca4d4b883" style="stroke:#e8000b;stroke-linejoin:miter;"/>
    </defs>
    <g clip-path="url(#p551bbd1480)">
     <use style="fill-opacity:0;stroke:#e8000b;stroke-linejoin:miter;" x="69.218182" xlink:href="#m3ca4d4b883" y="45.92775"/>
     <use style="fill-opacity:0;stroke:#e8000b;stroke-linejoin:miter;" x="109.8" xlink:href="#m3ca4d4b883" y="235.622311"/>
     <use style="fill-opacity:0;stroke:#e8000b;stroke-linejoin:miter;" x="150.381818" xlink:href="#m3ca4d4b883" y="240.786889"/>
     <use style="fill-opacity:0;stroke:#e8000b;stroke-linejoin:miter;" x="190.963636" xlink:href="#m3ca4d4b883" y="246.24"/>
     <use style="fill-opacity:0;stroke:#e8000b;stroke-linejoin:miter;" x="231.545455" xlink:href="#m3ca4d4b883" y="246.24"/>
     <use style="fill-opacity:0;stroke:#e8000b;stroke-linejoin:miter;" x="272.127273" xlink:href="#m3ca4d4b883" y="246.24"/>
     <use style="fill-opacity:0;stroke:#e8000b;stroke-linejoin:miter;" x="312.709091" xlink:href="#m3ca4d4b883" y="246.24"/>
     <use style="fill-opacity:0;stroke:#e8000b;stroke-linejoin:miter;" x="353.290909" xlink:href="#m3ca4d4b883" y="246.24"/>
    </g>
   </g>
   <g id="line2d_58">
    <path clip-path="url(#p551bbd1480)" d="M 69.218182 44.64 
L 69.624 47.129835 
L 69.826909 48.31196 
L 70.029818 53.521933 
L 70.232727 54.680798 
L 70.638545 55.36527 
L 70.841455 55.372747 
L 71.044364 55.038346 
L 71.247273 61.472835 
L 71.450182 63.901158 
L 71.856 63.91428 
L 72.058909 73.445769 
L 72.261818 73.492308 
L 72.464727 73.76787 
L 72.667636 73.610618 
L 72.870545 73.796403 
L 73.073455 74.304096 
L 73.276364 76.18199 
L 73.479273 79.146394 
L 73.682182 84.776252 
L 73.885091 85.084074 
L 74.088 85.153685 
L 74.290909 86.382115 
L 74.696727 86.386849 
L 74.899636 89.139107 
L 75.102545 88.159045 
L 75.305455 88.161502 
L 75.508364 88.040697 
L 75.711273 88.064054 
L 75.914182 91.415115 
L 76.32 93.426618 
L 76.522909 93.619656 
L 76.928727 95.367455 
L 77.131636 99.796516 
L 77.334545 99.954899 
L 77.537455 101.397041 
L 78.146182 101.731585 
L 78.349091 101.636928 
L 78.957818 101.839765 
L 79.363636 105.51005 
L 79.566545 108.77325 
L 79.972364 109.438562 
L 80.175273 108.685166 
L 80.378182 115.347165 
L 80.581091 115.413113 
L 80.986909 128.670863 
L 81.189818 131.262988 
L 81.392727 130.142886 
L 81.595636 130.243788 
L 81.798545 136.249302 
L 82.204364 138.265189 
L 82.813091 142.566882 
L 83.016 143.786187 
L 83.421818 148.871217 
L 83.624727 149.471434 
L 83.827636 151.551997 
L 84.030545 155.273439 
L 84.233455 156.607353 
L 84.639273 156.786392 
L 84.842182 162.199472 
L 85.045091 163.27014 
L 85.248 165.027454 
L 85.450909 169.128691 
L 85.653818 168.780449 
L 85.856727 166.1602 
L 86.059636 168.934913 
L 86.262545 167.484716 
L 86.465455 167.595977 
L 86.871273 169.963478 
L 87.074182 170.230617 
L 87.277091 174.280198 
L 87.48 176.051377 
L 87.682909 174.852232 
L 87.885818 175.693707 
L 88.088727 177.668351 
L 88.291636 177.483067 
L 88.494545 179.606178 
L 88.900364 180.681418 
L 89.103273 179.747836 
L 89.306182 179.693206 
L 90.117818 186.412226 
L 90.320727 187.591764 
L 90.726545 187.87149 
L 90.929455 181.691011 
L 91.944 189.132014 
L 92.349818 189.756557 
L 92.755636 191.89438 
L 93.567273 194.02327 
L 93.770182 198.838671 
L 93.973091 198.187484 
L 94.176 197.994338 
L 94.581818 198.854069 
L 94.784727 198.88181 
L 95.190545 199.506184 
L 95.393455 200.656333 
L 95.799273 201.417674 
L 96.205091 202.122664 
L 96.408 202.055686 
L 96.610909 202.343858 
L 97.016727 203.506944 
L 98.031273 204.519986 
L 98.234182 205.099719 
L 98.64 205.212838 
L 99.045818 206.404454 
L 99.451636 206.856428 
L 99.654545 206.983386 
L 99.857455 202.316346 
L 100.060364 201.838303 
L 100.263273 201.73321 
L 100.466182 200.579972 
L 101.277818 202.826932 
L 101.480727 203.914851 
L 101.683636 204.036871 
L 102.292364 205.021815 
L 102.901091 207.147247 
L 103.104 206.796053 
L 103.509818 207.574422 
L 103.712727 207.749272 
L 104.321455 209.527272 
L 104.727273 210.079918 
L 104.930182 210.536329 
L 105.741818 211.171766 
L 106.147636 212.75256 
L 106.350545 212.846041 
L 106.553455 213.214558 
L 106.959273 213.242095 
L 107.162182 213.533263 
L 107.365091 213.301827 
L 108.176727 214.494024 
L 108.785455 215.311099 
L 109.191273 215.296398 
L 109.394182 218.998699 
L 109.597091 218.132061 
L 110.002909 218.54607 
L 110.205818 217.517555 
L 111.017455 218.929747 
L 111.220364 218.748121 
L 111.423273 220.497912 
L 111.626182 220.413886 
L 111.829091 220.778492 
L 112.437818 220.546367 
L 112.640727 221.000971 
L 112.843636 220.339002 
L 113.046545 220.17345 
L 113.249455 209.58922 
L 113.452364 205.9884 
L 113.858182 210.37966 
L 114.061091 210.570008 
L 114.466909 213.604239 
L 114.872727 213.68257 
L 115.075636 214.021942 
L 115.278545 218.093623 
L 115.481455 217.458954 
L 115.887273 218.588936 
L 116.496 220.287315 
L 116.698909 221.376431 
L 117.104727 221.997839 
L 117.510545 209.409693 
L 117.713455 206.340082 
L 118.322182 212.353736 
L 118.525091 212.534086 
L 118.728 213.785809 
L 118.930909 213.689372 
L 119.133818 213.245682 
L 119.336727 213.725426 
L 119.742545 213.935548 
L 120.148364 214.6116 
L 120.351273 214.035318 
L 120.554182 214.468727 
L 120.96 214.55458 
L 121.162909 215.554984 
L 121.365818 215.562086 
L 121.568727 215.428371 
L 121.771636 215.542256 
L 121.974545 216.141947 
L 122.786182 216.860767 
L 122.989091 217.12682 
L 123.192 216.788522 
L 124.003636 217.199813 
L 124.612364 217.307759 
L 124.815273 217.666144 
L 125.829818 217.948253 
L 126.032727 223.696799 
L 126.235636 212.455499 
L 126.641455 213.494912 
L 127.047273 213.027074 
L 127.250182 213.296573 
L 127.453091 213.311565 
L 127.656 213.541179 
L 127.858909 213.592073 
L 128.061818 220.723934 
L 128.264727 212.842109 
L 128.467636 213.722776 
L 128.670545 215.152446 
L 128.873455 215.67743 
L 129.076364 215.87847 
L 129.279273 218.497377 
L 129.482182 219.145815 
L 129.685091 215.508738 
L 129.888 201.24927 
L 130.293818 209.813758 
L 130.496727 210.876003 
L 130.699636 210.043485 
L 131.105455 212.486866 
L 131.308364 213.030997 
L 131.511273 213.036601 
L 131.714182 213.627032 
L 131.917091 213.584961 
L 132.12 213.948624 
L 132.525818 215.255246 
L 132.931636 215.153545 
L 133.134545 215.736196 
L 133.337455 216.920839 
L 133.540364 216.84371 
L 133.743273 217.029181 
L 134.149091 217.752018 
L 134.352 217.56523 
L 134.554909 218.20029 
L 135.163636 218.697743 
L 135.366545 218.609864 
L 135.569455 218.858406 
L 135.772364 218.859985 
L 135.975273 218.982388 
L 136.178182 223.191314 
L 136.381091 220.351119 
L 136.584 220.618619 
L 136.786909 219.065513 
L 136.989818 223.250025 
L 137.192727 224.739003 
L 137.395636 224.360295 
L 137.598545 224.692885 
L 137.801455 224.551029 
L 138.004364 224.036625 
L 138.207273 223.847124 
L 138.613091 228.557871 
L 138.816 228.552538 
L 139.018909 229.033217 
L 139.221818 230.188609 
L 139.424727 230.388626 
L 139.627636 231.044224 
L 139.830545 231.153263 
L 140.033455 230.978051 
L 140.236364 231.124391 
L 140.439273 230.797843 
L 140.642182 230.867781 
L 140.845091 225.632703 
L 141.250909 224.654426 
L 141.656727 225.307669 
L 142.062545 228.306415 
L 142.265455 228.255833 
L 142.468364 226.52467 
L 142.671273 226.329852 
L 142.874182 226.587923 
L 143.077091 226.240258 
L 143.28 226.339827 
L 143.482909 226.599984 
L 143.685818 227.281095 
L 143.888727 230.077572 
L 144.091636 231.057325 
L 144.497455 230.263134 
L 144.700364 230.625585 
L 144.903273 230.216717 
L 145.106182 230.465118 
L 145.309091 229.885749 
L 145.512 228.92635 
L 145.714909 228.915004 
L 145.917818 229.404702 
L 146.120727 230.927098 
L 146.323636 231.039641 
L 146.526545 231.293401 
L 146.729455 231.293401 
L 146.932364 232.328995 
L 147.135273 232.386305 
L 147.744 232.903617 
L 148.555636 233.220604 
L 148.758545 233.673543 
L 149.367273 233.965835 
L 150.584727 234.134461 
L 150.990545 234.092101 
L 151.396364 234.290091 
L 151.599273 234.204034 
L 151.802182 233.524062 
L 152.005091 233.385486 
L 152.208 233.789465 
L 152.410909 233.75646 
L 152.613818 234.37358 
L 153.831273 234.923876 
L 154.44 234.977964 
L 154.845818 235.069235 
L 155.251636 235.031106 
L 155.657455 235.580357 
L 155.860364 234.858589 
L 156.469091 235.090831 
L 156.672 228.287761 
L 156.874909 216.687403 
L 157.077818 217.8323 
L 157.483636 221.851537 
L 157.889455 223.087471 
L 158.092364 223.39992 
L 158.295273 222.777359 
L 158.701091 215.591561 
L 158.904 216.588741 
L 159.106909 216.386116 
L 159.715636 220.310799 
L 159.918545 220.300437 
L 160.324364 222.458007 
L 160.527273 222.000867 
L 160.730182 222.351292 
L 160.933091 222.4246 
L 161.136 220.72617 
L 161.338909 223.044438 
L 161.541818 230.868107 
L 161.744727 225.76093 
L 161.947636 225.58924 
L 162.150545 225.043844 
L 162.759273 226.276409 
L 162.962182 226.41267 
L 163.368 228.422593 
L 163.570909 228.99118 
L 163.773818 230.991387 
L 163.976727 230.229675 
L 164.179636 230.151018 
L 164.382545 229.336555 
L 164.585455 231.265435 
L 164.991273 232.501403 
L 165.194182 232.61284 
L 165.397091 233.024725 
L 165.6 233.039804 
L 166.005818 233.998026 
L 166.208727 235.332623 
L 166.411636 235.281842 
L 166.614545 235.603673 
L 166.817455 235.496962 
L 167.832 235.548147 
L 168.237818 235.524754 
L 168.846545 235.731287 
L 169.049455 235.63055 
L 169.455273 235.904909 
L 169.658182 234.589986 
L 169.861091 234.634591 
L 170.064 234.952266 
L 170.266909 235.002278 
L 170.469818 236.443244 
L 170.672727 236.431206 
L 170.875636 236.640229 
L 171.484364 236.704797 
L 171.890182 236.789236 
L 172.904727 236.776328 
L 173.107636 236.897249 
L 173.310545 237.260213 
L 173.716364 237.376332 
L 174.528 237.588465 
L 174.933818 237.649268 
L 175.136727 237.409848 
L 178.586182 237.644509 
L 178.789091 237.808524 
L 179.194909 237.89378 
L 179.600727 237.969229 
L 179.803636 238.424001 
L 180.615273 238.63776 
L 180.818182 239.973657 
L 181.426909 239.733383 
L 181.629818 239.867606 
L 181.832727 239.208221 
L 373.581818 239.208221 
L 373.581818 239.208221 
" style="fill:none;stroke:#00d7ff;stroke-linecap:round;stroke-width:1.2;"/>
    <defs>
     <path d="M -2.4 2.4 
L 2.4 2.4 
L 2.4 -2.4 
L -2.4 -2.4 
z
" id="m0e40455719" style="stroke:#00d7ff;stroke-linejoin:miter;"/>
    </defs>
    <g clip-path="url(#p551bbd1480)">
     <use style="fill-opacity:0;stroke:#00d7ff;stroke-linejoin:miter;" x="69.218182" xlink:href="#m0e40455719" y="44.64"/>
     <use style="fill-opacity:0;stroke:#00d7ff;stroke-linejoin:miter;" x="109.8" xlink:href="#m0e40455719" y="218.420471"/>
     <use style="fill-opacity:0;stroke:#00d7ff;stroke-linejoin:miter;" x="150.381818" xlink:href="#m0e40455719" y="234.086767"/>
     <use style="fill-opacity:0;stroke:#00d7ff;stroke-linejoin:miter;" x="190.963636" xlink:href="#m0e40455719" y="239.208221"/>
     <use style="fill-opacity:0;stroke:#00d7ff;stroke-linejoin:miter;" x="231.545455" xlink:href="#m0e40455719" y="239.208221"/>
     <use style="fill-opacity:0;stroke:#00d7ff;stroke-linejoin:miter;" x="272.127273" xlink:href="#m0e40455719" y="239.208221"/>
     <use style="fill-opacity:0;stroke:#00d7ff;stroke-linejoin:miter;" x="312.709091" xlink:href="#m0e40455719" y="239.208221"/>
     <use style="fill-opacity:0;stroke:#00d7ff;stroke-linejoin:miter;" x="353.290909" xlink:href="#m0e40455719" y="239.208221"/>
    </g>
   </g>
   <g id="patch_3">
    <path d="M 54 256.32 
L 54 34.56 
" style="fill:none;stroke:#000000;stroke-linecap:square;stroke-linejoin:miter;"/>
   </g>
   <g id="patch_4">
    <path d="M 388.8 256.32 
L 388.8 34.56 
" style="fill:none;stroke:#000000;stroke-linecap:square;stroke-linejoin:miter;"/>
   </g>
   <g id="patch_5">
    <path d="M 54 256.32 
L 388.8 256.32 
" style="fill:none;stroke:#000000;stroke-linecap:square;stroke-linejoin:miter;"/>
   </g>
   <g id="patch_6">
    <path d="M 54 34.56 
L 388.8 34.56 
" style="fill:none;stroke:#000000;stroke-linecap:square;stroke-linejoin:miter;"/>
   </g>
   <g id="legend_1">
    <g id="patch_7">
     <path d="M 308.544 102.7578 
L 383.52 102.7578 
L 383.52 39.84 
L 308.544 39.84 
z
" style="fill:#ffffff;opacity:0.8;stroke:#000000;stroke-linejoin:miter;stroke-width:0.8;"/>
    </g>
    <g id="line2d_59">
     <path d="M 312.768 47.92665 
L 333.888 47.92665 
" style="fill:none;stroke:#023eff;stroke-linecap:round;stroke-width:1.2;"/>
    </g>
    <g id="line2d_60">
     <g>
      <use style="fill-opacity:0;stroke:#023eff;" x="323.328" xlink:href="#m86038074cf" y="47.92665"/>
     </g>
    </g>
    <g id="text_13">
     <!-- LEVY -->
     <defs>
      <path d="M 7.328125 0 
L 7.328125 71.578125 
L 16.796875 71.578125 
L 16.796875 8.453125 
L 52.046875 8.453125 
L 52.046875 0 
z
" id="ArialMT-76"/>
      <path d="M 7.90625 0 
L 7.90625 71.578125 
L 59.671875 71.578125 
L 59.671875 63.140625 
L 17.390625 63.140625 
L 17.390625 41.21875 
L 56.984375 41.21875 
L 56.984375 32.8125 
L 17.390625 32.8125 
L 17.390625 8.453125 
L 61.328125 8.453125 
L 61.328125 0 
z
" id="ArialMT-69"/>
      <path d="M 28.171875 0 
L 0.4375 71.578125 
L 10.6875 71.578125 
L 29.296875 19.578125 
Q 31.546875 13.328125 33.0625 7.859375 
Q 34.71875 13.71875 36.921875 19.578125 
L 56.25 71.578125 
L 65.921875 71.578125 
L 37.890625 0 
z
" id="ArialMT-86"/>
      <path d="M 27.875 0 
L 27.875 30.328125 
L 0.296875 71.578125 
L 11.8125 71.578125 
L 25.921875 50 
Q 29.828125 43.953125 33.203125 37.890625 
Q 36.421875 43.5 41.015625 50.53125 
L 54.890625 71.578125 
L 65.921875 71.578125 
L 37.359375 30.328125 
L 37.359375 0 
z
" id="ArialMT-89"/>
     </defs>
     <g transform="translate(342.336 51.62265)scale(0.1056 -0.1056)">
      <use xlink:href="#ArialMT-76"/>
      <use x="55.615234" xlink:href="#ArialMT-69"/>
      <use x="122.314453" xlink:href="#ArialMT-86"/>
      <use x="189.013672" xlink:href="#ArialMT-89"/>
     </g>
    </g>
    <g id="line2d_61">
     <path d="M 312.768 62.8641 
L 333.888 62.8641 
" style="fill:none;stroke:#1ac938;stroke-linecap:round;stroke-width:1.2;"/>
    </g>
    <g id="line2d_62">
     <g>
      <use style="fill-opacity:0;stroke:#1ac938;stroke-linejoin:miter;" x="323.328" xlink:href="#m86872bd8b0" y="62.8641"/>
     </g>
    </g>
    <g id="text_14">
     <!-- UNIF -->
     <defs>
      <path d="M 54.6875 71.578125 
L 64.15625 71.578125 
L 64.15625 30.21875 
Q 64.15625 19.4375 61.71875 13.078125 
Q 59.28125 6.734375 52.90625 2.75 
Q 46.53125 -1.21875 36.1875 -1.21875 
Q 26.125 -1.21875 19.71875 2.25 
Q 13.328125 5.71875 10.59375 12.28125 
Q 7.859375 18.84375 7.859375 30.21875 
L 7.859375 71.578125 
L 17.328125 71.578125 
L 17.328125 30.28125 
Q 17.328125 20.953125 19.0625 16.53125 
Q 20.796875 12.109375 25.015625 9.71875 
Q 29.25 7.328125 35.359375 7.328125 
Q 45.796875 7.328125 50.234375 12.0625 
Q 54.6875 16.796875 54.6875 30.28125 
z
" id="ArialMT-85"/>
      <path d="M 7.625 0 
L 7.625 71.578125 
L 17.328125 71.578125 
L 54.9375 15.375 
L 54.9375 71.578125 
L 64.015625 71.578125 
L 64.015625 0 
L 54.296875 0 
L 16.703125 56.25 
L 16.703125 0 
z
" id="ArialMT-78"/>
      <path d="M 8.203125 0 
L 8.203125 71.578125 
L 56.5 71.578125 
L 56.5 63.140625 
L 17.671875 63.140625 
L 17.671875 40.96875 
L 51.265625 40.96875 
L 51.265625 32.515625 
L 17.671875 32.515625 
L 17.671875 0 
z
" id="ArialMT-70"/>
     </defs>
     <g transform="translate(342.336 66.5601)scale(0.1056 -0.1056)">
      <use xlink:href="#ArialMT-85"/>
      <use x="72.216797" xlink:href="#ArialMT-78"/>
      <use x="144.433594" xlink:href="#ArialMT-73"/>
      <use x="172.216797" xlink:href="#ArialMT-70"/>
     </g>
    </g>
    <g id="line2d_63">
     <path d="M 312.768 77.80155 
L 333.888 77.80155 
" style="fill:none;stroke:#e8000b;stroke-linecap:round;stroke-width:1.2;"/>
    </g>
    <g id="line2d_64">
     <g>
      <use style="fill-opacity:0;stroke:#e8000b;stroke-linejoin:miter;" x="323.328" xlink:href="#m3ca4d4b883" y="77.80155"/>
     </g>
    </g>
    <g id="text_15">
     <!-- NORM -->
     <defs>
      <path d="M 4.828125 34.859375 
Q 4.828125 52.6875 14.390625 62.765625 
Q 23.96875 72.859375 39.109375 72.859375 
Q 49.03125 72.859375 56.984375 68.109375 
Q 64.9375 63.375 69.109375 54.90625 
Q 73.296875 46.4375 73.296875 35.6875 
Q 73.296875 24.8125 68.890625 16.21875 
Q 64.5 7.625 56.4375 3.203125 
Q 48.390625 -1.21875 39.0625 -1.21875 
Q 28.953125 -1.21875 20.984375 3.65625 
Q 13.03125 8.546875 8.921875 16.984375 
Q 4.828125 25.4375 4.828125 34.859375 
z
M 14.59375 34.71875 
Q 14.59375 21.78125 21.546875 14.328125 
Q 28.515625 6.890625 39.015625 6.890625 
Q 49.703125 6.890625 56.609375 14.40625 
Q 63.53125 21.921875 63.53125 35.75 
Q 63.53125 44.484375 60.578125 51 
Q 57.625 57.515625 51.921875 61.109375 
Q 46.234375 64.703125 39.15625 64.703125 
Q 29.109375 64.703125 21.84375 57.78125 
Q 14.59375 50.875 14.59375 34.71875 
z
" id="ArialMT-79"/>
      <path d="M 7.859375 0 
L 7.859375 71.578125 
L 39.59375 71.578125 
Q 49.171875 71.578125 54.140625 69.640625 
Q 59.125 67.71875 62.109375 62.828125 
Q 65.09375 57.953125 65.09375 52.046875 
Q 65.09375 44.4375 60.15625 39.203125 
Q 55.21875 33.984375 44.921875 32.5625 
Q 48.6875 30.765625 50.640625 29 
Q 54.78125 25.203125 58.5 19.484375 
L 70.953125 0 
L 59.03125 0 
L 49.5625 14.890625 
Q 45.40625 21.34375 42.71875 24.75 
Q 40.046875 28.171875 37.921875 29.53125 
Q 35.796875 30.90625 33.59375 31.453125 
Q 31.984375 31.78125 28.328125 31.78125 
L 17.328125 31.78125 
L 17.328125 0 
z
M 17.328125 39.984375 
L 37.703125 39.984375 
Q 44.1875 39.984375 47.84375 41.328125 
Q 51.515625 42.671875 53.421875 45.625 
Q 55.328125 48.578125 55.328125 52.046875 
Q 55.328125 57.125 51.640625 60.390625 
Q 47.953125 63.671875 39.984375 63.671875 
L 17.328125 63.671875 
z
" id="ArialMT-82"/>
      <path d="M 7.421875 0 
L 7.421875 71.578125 
L 21.6875 71.578125 
L 38.625 20.90625 
Q 40.96875 13.8125 42.046875 10.296875 
Q 43.265625 14.203125 45.84375 21.78125 
L 62.984375 71.578125 
L 75.734375 71.578125 
L 75.734375 0 
L 66.609375 0 
L 66.609375 59.90625 
L 45.796875 0 
L 37.25 0 
L 16.546875 60.9375 
L 16.546875 0 
z
" id="ArialMT-77"/>
     </defs>
     <g transform="translate(342.336 81.49755)scale(0.1056 -0.1056)">
      <use xlink:href="#ArialMT-78"/>
      <use x="72.216797" xlink:href="#ArialMT-79"/>
      <use x="150" xlink:href="#ArialMT-82"/>
      <use x="222.216797" xlink:href="#ArialMT-77"/>
     </g>
    </g>
    <g id="line2d_65">
     <path d="M 312.768 92.739 
L 333.888 92.739 
" style="fill:none;stroke:#00d7ff;stroke-linecap:round;stroke-width:1.2;"/>
    </g>
    <g id="line2d_66">
     <g>
      <use style="fill-opacity:0;stroke:#00d7ff;stroke-linejoin:miter;" x="323.328" xlink:href="#m0e40455719" y="92.739"/>
     </g>
    </g>
    <g id="text_16">
     <!-- CONST -->
     <defs>
      <path d="M 58.796875 25.09375 
L 68.265625 22.703125 
Q 65.28125 11.03125 57.546875 4.90625 
Q 49.8125 -1.21875 38.625 -1.21875 
Q 27.046875 -1.21875 19.796875 3.484375 
Q 12.546875 8.203125 8.765625 17.140625 
Q 4.984375 26.078125 4.984375 36.328125 
Q 4.984375 47.515625 9.25 55.828125 
Q 13.53125 64.15625 21.40625 68.46875 
Q 29.296875 72.796875 38.765625 72.796875 
Q 49.515625 72.796875 56.828125 67.328125 
Q 64.15625 61.859375 67.046875 51.953125 
L 57.71875 49.75 
Q 55.21875 57.5625 50.484375 61.125 
Q 45.75 64.703125 38.578125 64.703125 
Q 30.328125 64.703125 24.78125 60.734375 
Q 19.234375 56.78125 16.984375 50.109375 
Q 14.75 43.453125 14.75 36.375 
Q 14.75 27.25 17.40625 20.4375 
Q 20.0625 13.625 25.671875 10.25 
Q 31.296875 6.890625 37.84375 6.890625 
Q 45.796875 6.890625 51.3125 11.46875 
Q 56.84375 16.0625 58.796875 25.09375 
z
" id="ArialMT-67"/>
      <path d="M 4.5 23 
L 13.421875 23.78125 
Q 14.0625 18.40625 16.375 14.96875 
Q 18.703125 11.53125 23.578125 9.40625 
Q 28.46875 7.28125 34.578125 7.28125 
Q 39.984375 7.28125 44.140625 8.890625 
Q 48.296875 10.5 50.3125 13.296875 
Q 52.34375 16.109375 52.34375 19.4375 
Q 52.34375 22.796875 50.390625 25.3125 
Q 48.4375 27.828125 43.953125 29.546875 
Q 41.0625 30.671875 31.203125 33.03125 
Q 21.34375 35.40625 17.390625 37.5 
Q 12.25 40.1875 9.734375 44.15625 
Q 7.234375 48.140625 7.234375 53.078125 
Q 7.234375 58.5 10.296875 63.203125 
Q 13.375 67.921875 19.28125 70.359375 
Q 25.203125 72.796875 32.421875 72.796875 
Q 40.375 72.796875 46.453125 70.234375 
Q 52.546875 67.671875 55.8125 62.6875 
Q 59.078125 57.71875 59.328125 51.421875 
L 50.25 50.734375 
Q 49.515625 57.515625 45.28125 60.984375 
Q 41.0625 64.453125 32.8125 64.453125 
Q 24.21875 64.453125 20.28125 61.296875 
Q 16.359375 58.15625 16.359375 53.71875 
Q 16.359375 49.859375 19.140625 47.359375 
Q 21.875 44.875 33.421875 42.265625 
Q 44.96875 39.65625 49.265625 37.703125 
Q 55.515625 34.8125 58.484375 30.390625 
Q 61.46875 25.984375 61.46875 20.21875 
Q 61.46875 14.5 58.203125 9.4375 
Q 54.9375 4.390625 48.796875 1.578125 
Q 42.671875 -1.21875 35.015625 -1.21875 
Q 25.296875 -1.21875 18.71875 1.609375 
Q 12.15625 4.4375 8.421875 10.125 
Q 4.6875 15.828125 4.5 23 
z
" id="ArialMT-83"/>
      <path d="M 25.921875 0 
L 25.921875 63.140625 
L 2.34375 63.140625 
L 2.34375 71.578125 
L 59.078125 71.578125 
L 59.078125 63.140625 
L 35.40625 63.140625 
L 35.40625 0 
z
" id="ArialMT-84"/>
     </defs>
     <g transform="translate(342.336 96.435)scale(0.1056 -0.1056)">
      <use xlink:href="#ArialMT-67"/>
      <use x="72.216797" xlink:href="#ArialMT-79"/>
      <use x="150" xlink:href="#ArialMT-78"/>
      <use x="222.216797" xlink:href="#ArialMT-83"/>
      <use x="288.916016" xlink:href="#ArialMT-84"/>
     </g>
    </g>
   </g>
  </g>
 </g>
 <defs>
  <clipPath id="p551bbd1480">
   <rect height="221.76" width="334.8" x="54" y="34.56"/>
  </clipPath>
 </defs>
</svg>
